  0
SECTION
  2
HEADER
  9
$ANGBASE
  50
0.0
  9
$ANGDIR
  70
1
  9
$MEASUREMENT
  70
1
  0
ENDSEC
  0
SECTION
  2
TABLES
  0
TABLE
  2
LTYPE
  70
4
  0
LTYPE
  5
40F
  2
CONTINUOUS
  70
0
  3
Solid line
  72
65
  73
0
  40
0.0
  0
LTYPE
  5
410
  2
DASHDOT
 70
0
  3
Dash Dot ____ _ ____ _
 72
65
 73
4
 40
2.0
 49
1.25
 49
-0.25
 49
0.25
 49
-0.25
  0
LTYPE
  5
411
  2
DASHED
 70
0
  3
Dashed __ __ __ __ __
 72
65
 73
2
 40
0.75
 49
0.5
 49
-0.25
  0
LTYPE
  5
43B
  2
DOTTED
 70
0
  3
Dotted .  .  .  .
 72
65
 73
2
 40
0.2
 49
0.0
 49
-0.2
  0
ENDTAB
  0
TABLE
  2
STYLE
  70
4
  0
STYLE
  2
KICAD
  70
0
  40
0
  41
1
  42
1
  50
0
  71
0
  3
isocp.shx
  0
STYLE
  2
KICADB
  70
0
  40
0
  41
1
  42
1
  50
0
  71
0
  3
isocp.shx
  0
STYLE
  2
KICADI
  70
0
  40
0
  41
1
  42
1
  50
15
  71
0
  3
isocp.shx
  0
STYLE
  2
KICADBI
  70
0
  40
0
  41
1
  42
1
  50
15
  71
0
  3
isocp.shx
  0
ENDTAB
  0
TABLE
  2
LAYER
  70
1
  0
LAYER
  2
BLACK
  70
0
  62
7
  6
CONTINUOUS
  0
ENDTAB
  0
ENDSEC
  0
SECTION
  2
ENTITIES
0
LINE
8
BLACK
6
CONTINUOUS
10
122.044
20
-88.12
11
121.992
21
-138.2
0
LINE
8
BLACK
6
CONTINUOUS
10
92.052
20
-88.12
11
122.044
21
-88.12
0
LINE
8
BLACK
6
CONTINUOUS
10
92
20
-138.2
11
92.052
21
-88.12
0
LINE
8
BLACK
6
CONTINUOUS
10
121.992
20
-138.2
11
92
21
-138.2
0
LINE
8
BLACK
6
CONTINUOUS
10
93.582
20
-136.78
11
93.982
21
-137.18
0
LINE
8
BLACK
6
CONTINUOUS
10
93.982
20
-136.78
11
93.582
21
-137.18
0
LINE
8
BLACK
6
CONTINUOUS
10
107.022
20
-113.85
11
107.422
21
-114.25
0
LINE
8
BLACK
6
CONTINUOUS
10
107.422
20
-113.85
11
107.022
21
-114.25
0
LINE
8
BLACK
6
CONTINUOUS
10
120.032
20
-89.75
11
120.432
21
-90.15
0
LINE
8
BLACK
6
CONTINUOUS
10
120.432
20
-89.75
11
120.032
21
-90.15
0
LINE
8
BLACK
6
CONTINUOUS
10
120.102
20
-136.85
11
120.502
21
-137.25
0
LINE
8
BLACK
6
CONTINUOUS
10
120.502
20
-136.85
11
120.102
21
-137.25
0
CIRCLE
8
BLACK
10
107.796
20
-101.53
40
0.35
0
CIRCLE
8
BLACK
10
107.796
20
-110.52
40
0.35
0
CIRCLE
8
BLACK
10
107.81
20
-94.59
40
0.35
0
CIRCLE
8
BLACK
10
107.812
20
-98.31
40
0.35
0
CIRCLE
8
BLACK
10
107.826
20
-107.64
40
0.35
0
CIRCLE
8
BLACK
10
107.88
20
-104.89
40
0.35
0
CIRCLE
8
BLACK
10
115.416
20
-101.53
40
0.35
0
CIRCLE
8
BLACK
10
115.416
20
-110.52
40
0.35
0
CIRCLE
8
BLACK
10
115.43
20
-94.59
40
0.35
0
CIRCLE
8
BLACK
10
115.432
20
-98.31
40
0.35
0
CIRCLE
8
BLACK
10
115.447
20
-107.64
40
0.35
0
CIRCLE
8
BLACK
10
115.5
20
-104.89
40
0.35
0
LINE
8
BLACK
6
CONTINUOUS
10
96.342
20
-95.9
11
96.342
21
-96.7
0
LINE
8
BLACK
6
CONTINUOUS
10
95.942
20
-96.3
11
96.742
21
-96.3
0
LINE
8
BLACK
6
CONTINUOUS
10
96.342
20
-100.9
11
96.342
21
-101.7
0
LINE
8
BLACK
6
CONTINUOUS
10
95.942
20
-101.3
11
96.742
21
-101.3
0
LINE
8
BLACK
6
CONTINUOUS
10
96.6141
20
-104.894
11
96.6141
21
-104.186
0
LINE
8
BLACK
6
CONTINUOUS
10
96.6141
20
-104.186
11
95.9069
21
-104.186
0
LINE
8
BLACK
6
CONTINUOUS
10
95.9069
20
-104.186
11
95.9069
21
-104.894
0
LINE
8
BLACK
6
CONTINUOUS
10
95.9069
20
-104.894
11
96.6141
21
-104.894
0
LINE
8
BLACK
6
CONTINUOUS
10
96.6141
20
-107.434
11
96.6141
21
-106.726
0
LINE
8
BLACK
6
CONTINUOUS
10
96.6141
20
-106.726
11
95.9069
21
-106.726
0
LINE
8
BLACK
6
CONTINUOUS
10
95.9069
20
-106.726
11
95.9069
21
-107.434
0
LINE
8
BLACK
6
CONTINUOUS
10
95.9069
20
-107.434
11
96.6141
21
-107.434
0
LINE
8
BLACK
6
CONTINUOUS
10
96.6141
20
-109.974
11
96.6141
21
-109.266
0
LINE
8
BLACK
6
CONTINUOUS
10
96.6141
20
-109.266
11
95.9069
21
-109.266
0
LINE
8
BLACK
6
CONTINUOUS
10
95.9069
20
-109.266
11
95.9069
21
-109.974
0
LINE
8
BLACK
6
CONTINUOUS
10
95.9069
20
-109.974
11
96.6141
21
-109.974
0
LINE
8
BLACK
6
CONTINUOUS
10
96.6946
20
-115.084
11
96.6946
21
-114.376
0
LINE
8
BLACK
6
CONTINUOUS
10
96.6946
20
-114.376
11
95.9874
21
-114.376
0
LINE
8
BLACK
6
CONTINUOUS
10
95.9874
20
-114.376
11
95.9874
21
-115.084
0
LINE
8
BLACK
6
CONTINUOUS
10
95.9874
20
-115.084
11
96.6946
21
-115.084
0
LINE
8
BLACK
6
CONTINUOUS
10
96.6946
20
-117.624
11
96.6946
21
-116.916
0
LINE
8
BLACK
6
CONTINUOUS
10
96.6946
20
-116.916
11
95.9874
21
-116.916
0
LINE
8
BLACK
6
CONTINUOUS
10
95.9874
20
-116.916
11
95.9874
21
-117.624
0
LINE
8
BLACK
6
CONTINUOUS
10
95.9874
20
-117.624
11
96.6946
21
-117.624
0
LINE
8
BLACK
6
CONTINUOUS
10
96.6946
20
-120.164
11
96.6946
21
-119.456
0
LINE
8
BLACK
6
CONTINUOUS
10
96.6946
20
-119.456
11
95.9874
21
-119.456
0
LINE
8
BLACK
6
CONTINUOUS
10
95.9874
20
-119.456
11
95.9874
21
-120.164
0
LINE
8
BLACK
6
CONTINUOUS
10
95.9874
20
-120.164
11
96.6946
21
-120.164
0
LINE
8
BLACK
6
CONTINUOUS
10
96.6946
20
-122.704
11
96.6946
21
-121.996
0
LINE
8
BLACK
6
CONTINUOUS
10
96.6946
20
-121.996
11
95.9874
21
-121.996
0
LINE
8
BLACK
6
CONTINUOUS
10
95.9874
20
-121.996
11
95.9874
21
-122.704
0
LINE
8
BLACK
6
CONTINUOUS
10
95.9874
20
-122.704
11
96.6946
21
-122.704
0
LINE
8
BLACK
6
CONTINUOUS
10
103.509
20
-97.1736
11
103.509
21
-96.4664
0
LINE
8
BLACK
6
CONTINUOUS
10
103.509
20
-96.4664
11
102.802
21
-96.4664
0
LINE
8
BLACK
6
CONTINUOUS
10
102.802
20
-96.4664
11
102.802
21
-97.1736
0
LINE
8
BLACK
6
CONTINUOUS
10
102.802
20
-97.1736
11
103.509
21
-97.1736
0
LINE
8
BLACK
6
CONTINUOUS
10
103.509
20
-99.7136
11
103.509
21
-99.0064
0
LINE
8
BLACK
6
CONTINUOUS
10
103.509
20
-99.0064
11
102.802
21
-99.0064
0
LINE
8
BLACK
6
CONTINUOUS
10
102.802
20
-99.0064
11
102.802
21
-99.7136
0
LINE
8
BLACK
6
CONTINUOUS
10
102.802
20
-99.7136
11
103.509
21
-99.7136
0
LINE
8
BLACK
6
CONTINUOUS
10
103.509
20
-102.254
11
103.509
21
-101.546
0
LINE
8
BLACK
6
CONTINUOUS
10
103.509
20
-101.546
11
102.802
21
-101.546
0
LINE
8
BLACK
6
CONTINUOUS
10
102.802
20
-101.546
11
102.802
21
-102.254
0
LINE
8
BLACK
6
CONTINUOUS
10
102.802
20
-102.254
11
103.509
21
-102.254
0
LINE
8
BLACK
6
CONTINUOUS
10
103.509
20
-104.794
11
103.509
21
-104.086
0
LINE
8
BLACK
6
CONTINUOUS
10
103.509
20
-104.086
11
102.802
21
-104.086
0
LINE
8
BLACK
6
CONTINUOUS
10
102.802
20
-104.086
11
102.802
21
-104.794
0
LINE
8
BLACK
6
CONTINUOUS
10
102.802
20
-104.794
11
103.509
21
-104.794
0
LINE
8
BLACK
6
CONTINUOUS
10
103.509
20
-107.334
11
103.509
21
-106.626
0
LINE
8
BLACK
6
CONTINUOUS
10
103.509
20
-106.626
11
102.802
21
-106.626
0
LINE
8
BLACK
6
CONTINUOUS
10
102.802
20
-106.626
11
102.802
21
-107.334
0
LINE
8
BLACK
6
CONTINUOUS
10
102.802
20
-107.334
11
103.509
21
-107.334
0
LINE
8
BLACK
6
CONTINUOUS
10
103.509
20
-109.874
11
103.509
21
-109.166
0
LINE
8
BLACK
6
CONTINUOUS
10
103.509
20
-109.166
11
102.802
21
-109.166
0
LINE
8
BLACK
6
CONTINUOUS
10
102.802
20
-109.166
11
102.802
21
-109.874
0
LINE
8
BLACK
6
CONTINUOUS
10
102.802
20
-109.874
11
103.509
21
-109.874
0
LINE
8
BLACK
6
CONTINUOUS
10
103.509
20
-112.414
11
103.509
21
-111.706
0
LINE
8
BLACK
6
CONTINUOUS
10
103.509
20
-111.706
11
102.802
21
-111.706
0
LINE
8
BLACK
6
CONTINUOUS
10
102.802
20
-111.706
11
102.802
21
-112.414
0
LINE
8
BLACK
6
CONTINUOUS
10
102.802
20
-112.414
11
103.509
21
-112.414
0
LINE
8
BLACK
6
CONTINUOUS
10
103.509
20
-114.954
11
103.509
21
-114.246
0
LINE
8
BLACK
6
CONTINUOUS
10
103.509
20
-114.246
11
102.802
21
-114.246
0
LINE
8
BLACK
6
CONTINUOUS
10
102.802
20
-114.246
11
102.802
21
-114.954
0
LINE
8
BLACK
6
CONTINUOUS
10
102.802
20
-114.954
11
103.509
21
-114.954
0
LINE
8
BLACK
6
CONTINUOUS
10
103.509
20
-117.494
11
103.509
21
-116.786
0
LINE
8
BLACK
6
CONTINUOUS
10
103.509
20
-116.786
11
102.802
21
-116.786
0
LINE
8
BLACK
6
CONTINUOUS
10
102.802
20
-116.786
11
102.802
21
-117.494
0
LINE
8
BLACK
6
CONTINUOUS
10
102.802
20
-117.494
11
103.509
21
-117.494
0
LINE
8
BLACK
6
CONTINUOUS
10
103.509
20
-120.034
11
103.509
21
-119.326
0
LINE
8
BLACK
6
CONTINUOUS
10
103.509
20
-119.326
11
102.802
21
-119.326
0
LINE
8
BLACK
6
CONTINUOUS
10
102.802
20
-119.326
11
102.802
21
-120.034
0
LINE
8
BLACK
6
CONTINUOUS
10
102.802
20
-120.034
11
103.509
21
-120.034
0
LINE
8
BLACK
6
CONTINUOUS
10
103.509
20
-122.574
11
103.509
21
-121.866
0
LINE
8
BLACK
6
CONTINUOUS
10
103.509
20
-121.866
11
102.802
21
-121.866
0
LINE
8
BLACK
6
CONTINUOUS
10
102.802
20
-121.866
11
102.802
21
-122.574
0
LINE
8
BLACK
6
CONTINUOUS
10
102.802
20
-122.574
11
103.509
21
-122.574
0
LINE
8
BLACK
6
CONTINUOUS
10
103.509
20
-125.114
11
103.509
21
-124.406
0
LINE
8
BLACK
6
CONTINUOUS
10
103.509
20
-124.406
11
102.802
21
-124.406
0
LINE
8
BLACK
6
CONTINUOUS
10
102.802
20
-124.406
11
102.802
21
-125.114
0
LINE
8
BLACK
6
CONTINUOUS
10
102.802
20
-125.114
11
103.509
21
-125.114
0
LINE
8
BLACK
6
CONTINUOUS
10
103.509
20
-127.654
11
103.509
21
-126.946
0
LINE
8
BLACK
6
CONTINUOUS
10
103.509
20
-126.946
11
102.802
21
-126.946
0
LINE
8
BLACK
6
CONTINUOUS
10
102.802
20
-126.946
11
102.802
21
-127.654
0
LINE
8
BLACK
6
CONTINUOUS
10
102.802
20
-127.654
11
103.509
21
-127.654
0
LINE
8
BLACK
6
CONTINUOUS
10
103.509
20
-130.194
11
103.509
21
-129.486
0
LINE
8
BLACK
6
CONTINUOUS
10
103.509
20
-129.486
11
102.802
21
-129.486
0
LINE
8
BLACK
6
CONTINUOUS
10
102.802
20
-129.486
11
102.802
21
-130.194
0
LINE
8
BLACK
6
CONTINUOUS
10
102.802
20
-130.194
11
103.509
21
-130.194
0
LINE
8
BLACK
6
CONTINUOUS
10
103.509
20
-132.734
11
103.509
21
-132.026
0
LINE
8
BLACK
6
CONTINUOUS
10
103.509
20
-132.026
11
102.802
21
-132.026
0
LINE
8
BLACK
6
CONTINUOUS
10
102.802
20
-132.026
11
102.802
21
-132.734
0
LINE
8
BLACK
6
CONTINUOUS
10
102.802
20
-132.734
11
103.509
21
-132.734
0
LINE
8
BLACK
6
CONTINUOUS
10
118.749
20
-97.1736
11
118.749
21
-96.4664
0
LINE
8
BLACK
6
CONTINUOUS
10
118.749
20
-96.4664
11
118.042
21
-96.4664
0
LINE
8
BLACK
6
CONTINUOUS
10
118.042
20
-96.4664
11
118.042
21
-97.1736
0
LINE
8
BLACK
6
CONTINUOUS
10
118.042
20
-97.1736
11
118.749
21
-97.1736
0
LINE
8
BLACK
6
CONTINUOUS
10
118.749
20
-99.7136
11
118.749
21
-99.0064
0
LINE
8
BLACK
6
CONTINUOUS
10
118.749
20
-99.0064
11
118.042
21
-99.0064
0
LINE
8
BLACK
6
CONTINUOUS
10
118.042
20
-99.0064
11
118.042
21
-99.7136
0
LINE
8
BLACK
6
CONTINUOUS
10
118.042
20
-99.7136
11
118.749
21
-99.7136
0
LINE
8
BLACK
6
CONTINUOUS
10
118.749
20
-102.254
11
118.749
21
-101.546
0
LINE
8
BLACK
6
CONTINUOUS
10
118.749
20
-101.546
11
118.042
21
-101.546
0
LINE
8
BLACK
6
CONTINUOUS
10
118.042
20
-101.546
11
118.042
21
-102.254
0
LINE
8
BLACK
6
CONTINUOUS
10
118.042
20
-102.254
11
118.749
21
-102.254
0
LINE
8
BLACK
6
CONTINUOUS
10
118.749
20
-104.794
11
118.749
21
-104.086
0
LINE
8
BLACK
6
CONTINUOUS
10
118.749
20
-104.086
11
118.042
21
-104.086
0
LINE
8
BLACK
6
CONTINUOUS
10
118.042
20
-104.086
11
118.042
21
-104.794
0
LINE
8
BLACK
6
CONTINUOUS
10
118.042
20
-104.794
11
118.749
21
-104.794
0
LINE
8
BLACK
6
CONTINUOUS
10
118.749
20
-107.334
11
118.749
21
-106.626
0
LINE
8
BLACK
6
CONTINUOUS
10
118.749
20
-106.626
11
118.042
21
-106.626
0
LINE
8
BLACK
6
CONTINUOUS
10
118.042
20
-106.626
11
118.042
21
-107.334
0
LINE
8
BLACK
6
CONTINUOUS
10
118.042
20
-107.334
11
118.749
21
-107.334
0
LINE
8
BLACK
6
CONTINUOUS
10
118.749
20
-109.874
11
118.749
21
-109.166
0
LINE
8
BLACK
6
CONTINUOUS
10
118.749
20
-109.166
11
118.042
21
-109.166
0
LINE
8
BLACK
6
CONTINUOUS
10
118.042
20
-109.166
11
118.042
21
-109.874
0
LINE
8
BLACK
6
CONTINUOUS
10
118.042
20
-109.874
11
118.749
21
-109.874
0
LINE
8
BLACK
6
CONTINUOUS
10
118.749
20
-112.414
11
118.749
21
-111.706
0
LINE
8
BLACK
6
CONTINUOUS
10
118.749
20
-111.706
11
118.042
21
-111.706
0
LINE
8
BLACK
6
CONTINUOUS
10
118.042
20
-111.706
11
118.042
21
-112.414
0
LINE
8
BLACK
6
CONTINUOUS
10
118.042
20
-112.414
11
118.749
21
-112.414
0
LINE
8
BLACK
6
CONTINUOUS
10
118.749
20
-114.954
11
118.749
21
-114.246
0
LINE
8
BLACK
6
CONTINUOUS
10
118.749
20
-114.246
11
118.042
21
-114.246
0
LINE
8
BLACK
6
CONTINUOUS
10
118.042
20
-114.246
11
118.042
21
-114.954
0
LINE
8
BLACK
6
CONTINUOUS
10
118.042
20
-114.954
11
118.749
21
-114.954
0
LINE
8
BLACK
6
CONTINUOUS
10
118.749
20
-117.494
11
118.749
21
-116.786
0
LINE
8
BLACK
6
CONTINUOUS
10
118.749
20
-116.786
11
118.042
21
-116.786
0
LINE
8
BLACK
6
CONTINUOUS
10
118.042
20
-116.786
11
118.042
21
-117.494
0
LINE
8
BLACK
6
CONTINUOUS
10
118.042
20
-117.494
11
118.749
21
-117.494
0
LINE
8
BLACK
6
CONTINUOUS
10
118.749
20
-120.034
11
118.749
21
-119.326
0
LINE
8
BLACK
6
CONTINUOUS
10
118.749
20
-119.326
11
118.042
21
-119.326
0
LINE
8
BLACK
6
CONTINUOUS
10
118.042
20
-119.326
11
118.042
21
-120.034
0
LINE
8
BLACK
6
CONTINUOUS
10
118.042
20
-120.034
11
118.749
21
-120.034
0
LINE
8
BLACK
6
CONTINUOUS
10
118.749
20
-122.574
11
118.749
21
-121.866
0
LINE
8
BLACK
6
CONTINUOUS
10
118.749
20
-121.866
11
118.042
21
-121.866
0
LINE
8
BLACK
6
CONTINUOUS
10
118.042
20
-121.866
11
118.042
21
-122.574
0
LINE
8
BLACK
6
CONTINUOUS
10
118.042
20
-122.574
11
118.749
21
-122.574
0
LINE
8
BLACK
6
CONTINUOUS
10
118.749
20
-125.114
11
118.749
21
-124.406
0
LINE
8
BLACK
6
CONTINUOUS
10
118.749
20
-124.406
11
118.042
21
-124.406
0
LINE
8
BLACK
6
CONTINUOUS
10
118.042
20
-124.406
11
118.042
21
-125.114
0
LINE
8
BLACK
6
CONTINUOUS
10
118.042
20
-125.114
11
118.749
21
-125.114
0
LINE
8
BLACK
6
CONTINUOUS
10
118.749
20
-127.654
11
118.749
21
-126.946
0
LINE
8
BLACK
6
CONTINUOUS
10
118.749
20
-126.946
11
118.042
21
-126.946
0
LINE
8
BLACK
6
CONTINUOUS
10
118.042
20
-126.946
11
118.042
21
-127.654
0
LINE
8
BLACK
6
CONTINUOUS
10
118.042
20
-127.654
11
118.749
21
-127.654
0
LINE
8
BLACK
6
CONTINUOUS
10
118.749
20
-130.194
11
118.749
21
-129.486
0
LINE
8
BLACK
6
CONTINUOUS
10
118.749
20
-129.486
11
118.042
21
-129.486
0
LINE
8
BLACK
6
CONTINUOUS
10
118.042
20
-129.486
11
118.042
21
-130.194
0
LINE
8
BLACK
6
CONTINUOUS
10
118.042
20
-130.194
11
118.749
21
-130.194
0
LINE
8
BLACK
6
CONTINUOUS
10
118.749
20
-132.734
11
118.749
21
-132.026
0
LINE
8
BLACK
6
CONTINUOUS
10
118.749
20
-132.026
11
118.042
21
-132.026
0
LINE
8
BLACK
6
CONTINUOUS
10
118.042
20
-132.026
11
118.042
21
-132.734
0
LINE
8
BLACK
6
CONTINUOUS
10
118.042
20
-132.734
11
118.749
21
-132.734
0
LINE
8
BLACK
6
CONTINUOUS
10
93.95
20
-128.65
11
94.5
21
-128.1
0
LINE
8
BLACK
6
CONTINUOUS
10
94.5
20
-128.1
11
93.95
21
-127.55
0
LINE
8
BLACK
6
CONTINUOUS
10
93.95
20
-127.55
11
93.4
21
-128.1
0
LINE
8
BLACK
6
CONTINUOUS
10
93.4
20
-128.1
11
93.95
21
-128.65
0
LINE
8
BLACK
6
CONTINUOUS
10
93.95
20
-135.15
11
94.5
21
-134.6
0
LINE
8
BLACK
6
CONTINUOUS
10
94.5
20
-134.6
11
93.95
21
-134.05
0
LINE
8
BLACK
6
CONTINUOUS
10
93.95
20
-134.05
11
93.4
21
-134.6
0
LINE
8
BLACK
6
CONTINUOUS
10
93.4
20
-134.6
11
93.95
21
-135.15
0
LINE
8
BLACK
6
CONTINUOUS
10
98.45
20
-128.65
11
99
21
-128.1
0
LINE
8
BLACK
6
CONTINUOUS
10
99
20
-128.1
11
98.45
21
-127.55
0
LINE
8
BLACK
6
CONTINUOUS
10
98.45
20
-127.55
11
97.9
21
-128.1
0
LINE
8
BLACK
6
CONTINUOUS
10
97.9
20
-128.1
11
98.45
21
-128.65
0
LINE
8
BLACK
6
CONTINUOUS
10
98.45
20
-135.15
11
99
21
-134.6
0
LINE
8
BLACK
6
CONTINUOUS
10
99
20
-134.6
11
98.45
21
-134.05
0
LINE
8
BLACK
6
CONTINUOUS
10
98.45
20
-134.05
11
97.9
21
-134.6
0
LINE
8
BLACK
6
CONTINUOUS
10
97.9
20
-134.6
11
98.45
21
-135.15
0
LINE
8
BLACK
6
CONTINUOUS
10
101.02
20
-90.11
11
102.32
21
-91.41
0
LINE
8
BLACK
6
CONTINUOUS
10
102.32
20
-90.11
11
101.02
21
-91.41
0
CIRCLE
8
BLACK
10
101.67
20
-90.76
40
0.65
0
LINE
8
BLACK
6
CONTINUOUS
10
107.52
20
-90.11
11
108.82
21
-91.41
0
LINE
8
BLACK
6
CONTINUOUS
10
108.82
20
-90.11
11
107.52
21
-91.41
0
CIRCLE
8
BLACK
10
108.17
20
-90.76
40
0.65
0
LINE
8
BLACK
6
CONTINUOUS
10
94.34
20
-90.17
11
97.54
21
-93.37
0
LINE
8
BLACK
6
CONTINUOUS
10
97.54
20
-90.17
11
94.34
21
-93.37
0
LINE
8
BLACK
6
CONTINUOUS
10
95.94
20
-90.17
11
95.94
21
-93.37
0
LINE
8
BLACK
6
CONTINUOUS
10
94.34
20
-91.77
11
97.54
21
-91.77
0
LINE
8
BLACK
6
CONTINUOUS
10
94.5328
20
-141.39
11
94.5328
21
-139.39
0
LINE
8
BLACK
6
CONTINUOUS
10
94.5328
20
-139.39
11
95.009
21
-139.39
0
LINE
8
BLACK
6
CONTINUOUS
10
95.009
20
-139.39
11
95.2947
21
-139.485
0
LINE
8
BLACK
6
CONTINUOUS
10
95.2947
20
-139.485
11
95.4851
21
-139.676
0
LINE
8
BLACK
6
CONTINUOUS
10
95.4851
20
-139.676
11
95.5804
21
-139.866
0
LINE
8
BLACK
6
CONTINUOUS
10
95.5804
20
-139.866
11
95.6756
21
-140.247
0
LINE
8
BLACK
6
CONTINUOUS
10
95.6756
20
-140.247
11
95.6756
21
-140.533
0
LINE
8
BLACK
6
CONTINUOUS
10
95.6756
20
-140.533
11
95.5804
21
-140.914
0
LINE
8
BLACK
6
CONTINUOUS
10
95.5804
20
-140.914
11
95.4851
21
-141.104
0
LINE
8
BLACK
6
CONTINUOUS
10
95.4851
20
-141.104
11
95.2947
21
-141.295
0
LINE
8
BLACK
6
CONTINUOUS
10
95.2947
20
-141.295
11
95.009
21
-141.39
0
LINE
8
BLACK
6
CONTINUOUS
10
95.009
20
-141.39
11
94.5328
21
-141.39
0
LINE
8
BLACK
6
CONTINUOUS
10
96.5328
20
-141.39
11
96.5328
21
-140.057
0
LINE
8
BLACK
6
CONTINUOUS
10
96.5328
20
-140.437
11
96.628
21
-140.247
0
LINE
8
BLACK
6
CONTINUOUS
10
96.628
20
-140.247
11
96.7232
21
-140.152
0
LINE
8
BLACK
6
CONTINUOUS
10
96.7232
20
-140.152
11
96.9137
21
-140.057
0
LINE
8
BLACK
6
CONTINUOUS
10
96.9137
20
-140.057
11
97.1042
21
-140.057
0
LINE
8
BLACK
6
CONTINUOUS
10
97.7709
20
-141.39
11
97.7709
21
-140.057
0
LINE
8
BLACK
6
CONTINUOUS
10
97.7709
20
-139.39
11
97.6756
21
-139.485
0
LINE
8
BLACK
6
CONTINUOUS
10
97.6756
20
-139.485
11
97.7709
21
-139.58
0
LINE
8
BLACK
6
CONTINUOUS
10
97.7709
20
-139.58
11
97.8661
21
-139.485
0
LINE
8
BLACK
6
CONTINUOUS
10
97.8661
20
-139.485
11
97.7709
21
-139.39
0
LINE
8
BLACK
6
CONTINUOUS
10
97.7709
20
-139.39
11
97.7709
21
-139.58
0
LINE
8
BLACK
6
CONTINUOUS
10
99.009
20
-141.39
11
98.8185
21
-141.295
0
LINE
8
BLACK
6
CONTINUOUS
10
98.8185
20
-141.295
11
98.7232
21
-141.104
0
LINE
8
BLACK
6
CONTINUOUS
10
98.7232
20
-141.104
11
98.7232
21
-139.39
0
LINE
8
BLACK
6
CONTINUOUS
10
100.057
20
-141.39
11
99.8661
21
-141.295
0
LINE
8
BLACK
6
CONTINUOUS
10
99.8661
20
-141.295
11
99.7709
21
-141.104
0
LINE
8
BLACK
6
CONTINUOUS
10
99.7709
20
-141.104
11
99.7709
21
-139.39
0
LINE
8
BLACK
6
CONTINUOUS
10
102.342
20
-141.39
11
102.342
21
-139.39
0
LINE
8
BLACK
6
CONTINUOUS
10
102.342
20
-139.39
11
103.009
21
-140.818
0
LINE
8
BLACK
6
CONTINUOUS
10
103.009
20
-140.818
11
103.676
21
-139.39
0
LINE
8
BLACK
6
CONTINUOUS
10
103.676
20
-139.39
11
103.676
21
-141.39
0
LINE
8
BLACK
6
CONTINUOUS
10
105.485
20
-141.39
11
105.485
21
-140.342
0
LINE
8
BLACK
6
CONTINUOUS
10
105.485
20
-140.342
11
105.39
21
-140.152
0
LINE
8
BLACK
6
CONTINUOUS
10
105.39
20
-140.152
11
105.199
21
-140.057
0
LINE
8
BLACK
6
CONTINUOUS
10
105.199
20
-140.057
11
104.818
21
-140.057
0
LINE
8
BLACK
6
CONTINUOUS
10
104.818
20
-140.057
11
104.628
21
-140.152
0
LINE
8
BLACK
6
CONTINUOUS
10
105.485
20
-141.295
11
105.295
21
-141.39
0
LINE
8
BLACK
6
CONTINUOUS
10
105.295
20
-141.39
11
104.818
21
-141.39
0
LINE
8
BLACK
6
CONTINUOUS
10
104.818
20
-141.39
11
104.628
21
-141.295
0
LINE
8
BLACK
6
CONTINUOUS
10
104.628
20
-141.295
11
104.533
21
-141.104
0
LINE
8
BLACK
6
CONTINUOUS
10
104.533
20
-141.104
11
104.533
21
-140.914
0
LINE
8
BLACK
6
CONTINUOUS
10
104.533
20
-140.914
11
104.628
21
-140.723
0
LINE
8
BLACK
6
CONTINUOUS
10
104.628
20
-140.723
11
104.818
21
-140.628
0
LINE
8
BLACK
6
CONTINUOUS
10
104.818
20
-140.628
11
105.295
21
-140.628
0
LINE
8
BLACK
6
CONTINUOUS
10
105.295
20
-140.628
11
105.485
21
-140.533
0
LINE
8
BLACK
6
CONTINUOUS
10
106.438
20
-140.057
11
106.438
21
-142.057
0
LINE
8
BLACK
6
CONTINUOUS
10
106.438
20
-140.152
11
106.628
21
-140.057
0
LINE
8
BLACK
6
CONTINUOUS
10
106.628
20
-140.057
11
107.009
21
-140.057
0
LINE
8
BLACK
6
CONTINUOUS
10
107.009
20
-140.057
11
107.199
21
-140.152
0
LINE
8
BLACK
6
CONTINUOUS
10
107.199
20
-140.152
11
107.295
21
-140.247
0
LINE
8
BLACK
6
CONTINUOUS
10
107.295
20
-140.247
11
107.39
21
-140.437
0
LINE
8
BLACK
6
CONTINUOUS
10
107.39
20
-140.437
11
107.39
21
-141.009
0
LINE
8
BLACK
6
CONTINUOUS
10
107.39
20
-141.009
11
107.295
21
-141.199
0
LINE
8
BLACK
6
CONTINUOUS
10
107.295
20
-141.199
11
107.199
21
-141.295
0
LINE
8
BLACK
6
CONTINUOUS
10
107.199
20
-141.295
11
107.009
21
-141.39
0
LINE
8
BLACK
6
CONTINUOUS
10
107.009
20
-141.39
11
106.628
21
-141.39
0
LINE
8
BLACK
6
CONTINUOUS
10
106.628
20
-141.39
11
106.438
21
-141.295
0
LINE
8
BLACK
6
CONTINUOUS
10
108.247
20
-141.199
11
108.342
21
-141.295
0
LINE
8
BLACK
6
CONTINUOUS
10
108.342
20
-141.295
11
108.247
21
-141.39
0
LINE
8
BLACK
6
CONTINUOUS
10
108.247
20
-141.39
11
108.152
21
-141.295
0
LINE
8
BLACK
6
CONTINUOUS
10
108.152
20
-141.295
11
108.247
21
-141.199
0
LINE
8
BLACK
6
CONTINUOUS
10
108.247
20
-141.199
11
108.247
21
-141.39
0
LINE
8
BLACK
6
CONTINUOUS
10
108.247
20
-140.152
11
108.342
21
-140.247
0
LINE
8
BLACK
6
CONTINUOUS
10
108.342
20
-140.247
11
108.247
21
-140.342
0
LINE
8
BLACK
6
CONTINUOUS
10
108.247
20
-140.342
11
108.152
21
-140.247
0
LINE
8
BLACK
6
CONTINUOUS
10
108.152
20
-140.247
11
108.247
21
-140.152
0
LINE
8
BLACK
6
CONTINUOUS
10
108.247
20
-140.152
11
108.247
21
-140.342
0
LINE
8
BLACK
6
CONTINUOUS
10
91.525
20
-144.475
11
91.925
21
-144.875
0
LINE
8
BLACK
6
CONTINUOUS
10
91.925
20
-144.475
11
91.525
21
-144.875
0
LINE
8
BLACK
6
CONTINUOUS
10
94.9137
20
-143.59
11
95.1042
21
-143.59
0
LINE
8
BLACK
6
CONTINUOUS
10
95.1042
20
-143.59
11
95.2947
21
-143.685
0
LINE
8
BLACK
6
CONTINUOUS
10
95.2947
20
-143.685
11
95.3899
21
-143.78
0
LINE
8
BLACK
6
CONTINUOUS
10
95.3899
20
-143.78
11
95.4851
21
-143.971
0
LINE
8
BLACK
6
CONTINUOUS
10
95.4851
20
-143.971
11
95.5804
21
-144.352
0
LINE
8
BLACK
6
CONTINUOUS
10
95.5804
20
-144.352
11
95.5804
21
-144.828
0
LINE
8
BLACK
6
CONTINUOUS
10
95.5804
20
-144.828
11
95.4851
21
-145.209
0
LINE
8
BLACK
6
CONTINUOUS
10
95.4851
20
-145.209
11
95.3899
21
-145.399
0
LINE
8
BLACK
6
CONTINUOUS
10
95.3899
20
-145.399
11
95.2947
21
-145.495
0
LINE
8
BLACK
6
CONTINUOUS
10
95.2947
20
-145.495
11
95.1042
21
-145.59
0
LINE
8
BLACK
6
CONTINUOUS
10
95.1042
20
-145.59
11
94.9137
21
-145.59
0
LINE
8
BLACK
6
CONTINUOUS
10
94.9137
20
-145.59
11
94.7232
21
-145.495
0
LINE
8
BLACK
6
CONTINUOUS
10
94.7232
20
-145.495
11
94.628
21
-145.399
0
LINE
8
BLACK
6
CONTINUOUS
10
94.628
20
-145.399
11
94.5328
21
-145.209
0
LINE
8
BLACK
6
CONTINUOUS
10
94.5328
20
-145.209
11
94.4375
21
-144.828
0
LINE
8
BLACK
6
CONTINUOUS
10
94.4375
20
-144.828
11
94.4375
21
-144.352
0
LINE
8
BLACK
6
CONTINUOUS
10
94.4375
20
-144.352
11
94.5328
21
-143.971
0
LINE
8
BLACK
6
CONTINUOUS
10
94.5328
20
-143.971
11
94.628
21
-143.78
0
LINE
8
BLACK
6
CONTINUOUS
10
94.628
20
-143.78
11
94.7232
21
-143.685
0
LINE
8
BLACK
6
CONTINUOUS
10
94.7232
20
-143.685
11
94.9137
21
-143.59
0
LINE
8
BLACK
6
CONTINUOUS
10
96.4375
20
-145.399
11
96.5328
21
-145.495
0
LINE
8
BLACK
6
CONTINUOUS
10
96.5328
20
-145.495
11
96.4375
21
-145.59
0
LINE
8
BLACK
6
CONTINUOUS
10
96.4375
20
-145.59
11
96.3423
21
-145.495
0
LINE
8
BLACK
6
CONTINUOUS
10
96.3423
20
-145.495
11
96.4375
21
-145.399
0
LINE
8
BLACK
6
CONTINUOUS
10
96.4375
20
-145.399
11
96.4375
21
-145.59
0
LINE
8
BLACK
6
CONTINUOUS
10
98.2471
20
-144.257
11
98.2471
21
-145.59
0
LINE
8
BLACK
6
CONTINUOUS
10
97.7709
20
-143.495
11
97.2947
21
-144.923
0
LINE
8
BLACK
6
CONTINUOUS
10
97.2947
20
-144.923
11
98.5328
21
-144.923
0
LINE
8
BLACK
6
CONTINUOUS
10
99.6756
20
-143.59
11
99.8661
21
-143.59
0
LINE
8
BLACK
6
CONTINUOUS
10
99.8661
20
-143.59
11
100.057
21
-143.685
0
LINE
8
BLACK
6
CONTINUOUS
10
100.057
20
-143.685
11
100.152
21
-143.78
0
LINE
8
BLACK
6
CONTINUOUS
10
100.152
20
-143.78
11
100.247
21
-143.971
0
LINE
8
BLACK
6
CONTINUOUS
10
100.247
20
-143.971
11
100.342
21
-144.352
0
LINE
8
BLACK
6
CONTINUOUS
10
100.342
20
-144.352
11
100.342
21
-144.828
0
LINE
8
BLACK
6
CONTINUOUS
10
100.342
20
-144.828
11
100.247
21
-145.209
0
LINE
8
BLACK
6
CONTINUOUS
10
100.247
20
-145.209
11
100.152
21
-145.399
0
LINE
8
BLACK
6
CONTINUOUS
10
100.152
20
-145.399
11
100.057
21
-145.495
0
LINE
8
BLACK
6
CONTINUOUS
10
100.057
20
-145.495
11
99.8661
21
-145.59
0
LINE
8
BLACK
6
CONTINUOUS
10
99.8661
20
-145.59
11
99.6756
21
-145.59
0
LINE
8
BLACK
6
CONTINUOUS
10
99.6756
20
-145.59
11
99.4851
21
-145.495
0
LINE
8
BLACK
6
CONTINUOUS
10
99.4851
20
-145.495
11
99.3899
21
-145.399
0
LINE
8
BLACK
6
CONTINUOUS
10
99.3899
20
-145.399
11
99.2947
21
-145.209
0
LINE
8
BLACK
6
CONTINUOUS
10
99.2947
20
-145.209
11
99.1994
21
-144.828
0
LINE
8
BLACK
6
CONTINUOUS
10
99.1994
20
-144.828
11
99.1994
21
-144.352
0
LINE
8
BLACK
6
CONTINUOUS
10
99.1994
20
-144.352
11
99.2947
21
-143.971
0
LINE
8
BLACK
6
CONTINUOUS
10
99.2947
20
-143.971
11
99.3899
21
-143.78
0
LINE
8
BLACK
6
CONTINUOUS
10
99.3899
20
-143.78
11
99.4851
21
-143.685
0
LINE
8
BLACK
6
CONTINUOUS
10
99.4851
20
-143.685
11
99.6756
21
-143.59
0
LINE
8
BLACK
6
CONTINUOUS
10
101.58
20
-143.59
11
101.771
21
-143.59
0
LINE
8
BLACK
6
CONTINUOUS
10
101.771
20
-143.59
11
101.961
21
-143.685
0
LINE
8
BLACK
6
CONTINUOUS
10
101.961
20
-143.685
11
102.057
21
-143.78
0
LINE
8
BLACK
6
CONTINUOUS
10
102.057
20
-143.78
11
102.152
21
-143.971
0
LINE
8
BLACK
6
CONTINUOUS
10
102.152
20
-143.971
11
102.247
21
-144.352
0
LINE
8
BLACK
6
CONTINUOUS
10
102.247
20
-144.352
11
102.247
21
-144.828
0
LINE
8
BLACK
6
CONTINUOUS
10
102.247
20
-144.828
11
102.152
21
-145.209
0
LINE
8
BLACK
6
CONTINUOUS
10
102.152
20
-145.209
11
102.057
21
-145.399
0
LINE
8
BLACK
6
CONTINUOUS
10
102.057
20
-145.399
11
101.961
21
-145.495
0
LINE
8
BLACK
6
CONTINUOUS
10
101.961
20
-145.495
11
101.771
21
-145.59
0
LINE
8
BLACK
6
CONTINUOUS
10
101.771
20
-145.59
11
101.58
21
-145.59
0
LINE
8
BLACK
6
CONTINUOUS
10
101.58
20
-145.59
11
101.39
21
-145.495
0
LINE
8
BLACK
6
CONTINUOUS
10
101.39
20
-145.495
11
101.295
21
-145.399
0
LINE
8
BLACK
6
CONTINUOUS
10
101.295
20
-145.399
11
101.199
21
-145.209
0
LINE
8
BLACK
6
CONTINUOUS
10
101.199
20
-145.209
11
101.104
21
-144.828
0
LINE
8
BLACK
6
CONTINUOUS
10
101.104
20
-144.828
11
101.104
21
-144.352
0
LINE
8
BLACK
6
CONTINUOUS
10
101.104
20
-144.352
11
101.199
21
-143.971
0
LINE
8
BLACK
6
CONTINUOUS
10
101.199
20
-143.971
11
101.295
21
-143.78
0
LINE
8
BLACK
6
CONTINUOUS
10
101.295
20
-143.78
11
101.39
21
-143.685
0
LINE
8
BLACK
6
CONTINUOUS
10
101.39
20
-143.685
11
101.58
21
-143.59
0
LINE
8
BLACK
6
CONTINUOUS
10
103.104
20
-145.59
11
103.104
21
-144.257
0
LINE
8
BLACK
6
CONTINUOUS
10
103.104
20
-144.447
11
103.199
21
-144.352
0
LINE
8
BLACK
6
CONTINUOUS
10
103.199
20
-144.352
11
103.39
21
-144.257
0
LINE
8
BLACK
6
CONTINUOUS
10
103.39
20
-144.257
11
103.676
21
-144.257
0
LINE
8
BLACK
6
CONTINUOUS
10
103.676
20
-144.257
11
103.866
21
-144.352
0
LINE
8
BLACK
6
CONTINUOUS
10
103.866
20
-144.352
11
103.961
21
-144.542
0
LINE
8
BLACK
6
CONTINUOUS
10
103.961
20
-144.542
11
103.961
21
-145.59
0
LINE
8
BLACK
6
CONTINUOUS
10
103.961
20
-144.542
11
104.057
21
-144.352
0
LINE
8
BLACK
6
CONTINUOUS
10
104.057
20
-144.352
11
104.247
21
-144.257
0
LINE
8
BLACK
6
CONTINUOUS
10
104.247
20
-144.257
11
104.533
21
-144.257
0
LINE
8
BLACK
6
CONTINUOUS
10
104.533
20
-144.257
11
104.723
21
-144.352
0
LINE
8
BLACK
6
CONTINUOUS
10
104.723
20
-144.352
11
104.818
21
-144.542
0
LINE
8
BLACK
6
CONTINUOUS
10
104.818
20
-144.542
11
104.818
21
-145.59
0
LINE
8
BLACK
6
CONTINUOUS
10
105.771
20
-145.59
11
105.771
21
-144.257
0
LINE
8
BLACK
6
CONTINUOUS
10
105.771
20
-144.447
11
105.866
21
-144.352
0
LINE
8
BLACK
6
CONTINUOUS
10
105.866
20
-144.352
11
106.057
21
-144.257
0
LINE
8
BLACK
6
CONTINUOUS
10
106.057
20
-144.257
11
106.342
21
-144.257
0
LINE
8
BLACK
6
CONTINUOUS
10
106.342
20
-144.257
11
106.533
21
-144.352
0
LINE
8
BLACK
6
CONTINUOUS
10
106.533
20
-144.352
11
106.628
21
-144.542
0
LINE
8
BLACK
6
CONTINUOUS
10
106.628
20
-144.542
11
106.628
21
-145.59
0
LINE
8
BLACK
6
CONTINUOUS
10
106.628
20
-144.542
11
106.723
21
-144.352
0
LINE
8
BLACK
6
CONTINUOUS
10
106.723
20
-144.352
11
106.914
21
-144.257
0
LINE
8
BLACK
6
CONTINUOUS
10
106.914
20
-144.257
11
107.199
21
-144.257
0
LINE
8
BLACK
6
CONTINUOUS
10
107.199
20
-144.257
11
107.39
21
-144.352
0
LINE
8
BLACK
6
CONTINUOUS
10
107.39
20
-144.352
11
107.485
21
-144.542
0
LINE
8
BLACK
6
CONTINUOUS
10
107.485
20
-144.542
11
107.485
21
-145.59
0
LINE
8
BLACK
6
CONTINUOUS
10
111.39
20
-143.495
11
109.676
21
-146.066
0
LINE
8
BLACK
6
CONTINUOUS
10
113.961
20
-143.59
11
114.152
21
-143.59
0
LINE
8
BLACK
6
CONTINUOUS
10
114.152
20
-143.59
11
114.342
21
-143.685
0
LINE
8
BLACK
6
CONTINUOUS
10
114.342
20
-143.685
11
114.438
21
-143.78
0
LINE
8
BLACK
6
CONTINUOUS
10
114.438
20
-143.78
11
114.533
21
-143.971
0
LINE
8
BLACK
6
CONTINUOUS
10
114.533
20
-143.971
11
114.628
21
-144.352
0
LINE
8
BLACK
6
CONTINUOUS
10
114.628
20
-144.352
11
114.628
21
-144.828
0
LINE
8
BLACK
6
CONTINUOUS
10
114.628
20
-144.828
11
114.533
21
-145.209
0
LINE
8
BLACK
6
CONTINUOUS
10
114.533
20
-145.209
11
114.438
21
-145.399
0
LINE
8
BLACK
6
CONTINUOUS
10
114.438
20
-145.399
11
114.342
21
-145.495
0
LINE
8
BLACK
6
CONTINUOUS
10
114.342
20
-145.495
11
114.152
21
-145.59
0
LINE
8
BLACK
6
CONTINUOUS
10
114.152
20
-145.59
11
113.961
21
-145.59
0
LINE
8
BLACK
6
CONTINUOUS
10
113.961
20
-145.59
11
113.771
21
-145.495
0
LINE
8
BLACK
6
CONTINUOUS
10
113.771
20
-145.495
11
113.676
21
-145.399
0
LINE
8
BLACK
6
CONTINUOUS
10
113.676
20
-145.399
11
113.58
21
-145.209
0
LINE
8
BLACK
6
CONTINUOUS
10
113.58
20
-145.209
11
113.485
21
-144.828
0
LINE
8
BLACK
6
CONTINUOUS
10
113.485
20
-144.828
11
113.485
21
-144.352
0
LINE
8
BLACK
6
CONTINUOUS
10
113.485
20
-144.352
11
113.58
21
-143.971
0
LINE
8
BLACK
6
CONTINUOUS
10
113.58
20
-143.971
11
113.676
21
-143.78
0
LINE
8
BLACK
6
CONTINUOUS
10
113.676
20
-143.78
11
113.771
21
-143.685
0
LINE
8
BLACK
6
CONTINUOUS
10
113.771
20
-143.685
11
113.961
21
-143.59
0
LINE
8
BLACK
6
CONTINUOUS
10
115.485
20
-145.399
11
115.58
21
-145.495
0
LINE
8
BLACK
6
CONTINUOUS
10
115.58
20
-145.495
11
115.485
21
-145.59
0
LINE
8
BLACK
6
CONTINUOUS
10
115.485
20
-145.59
11
115.39
21
-145.495
0
LINE
8
BLACK
6
CONTINUOUS
10
115.39
20
-145.495
11
115.485
21
-145.399
0
LINE
8
BLACK
6
CONTINUOUS
10
115.485
20
-145.399
11
115.485
21
-145.59
0
LINE
8
BLACK
6
CONTINUOUS
10
116.818
20
-143.59
11
117.009
21
-143.59
0
LINE
8
BLACK
6
CONTINUOUS
10
117.009
20
-143.59
11
117.199
21
-143.685
0
LINE
8
BLACK
6
CONTINUOUS
10
117.199
20
-143.685
11
117.295
21
-143.78
0
LINE
8
BLACK
6
CONTINUOUS
10
117.295
20
-143.78
11
117.39
21
-143.971
0
LINE
8
BLACK
6
CONTINUOUS
10
117.39
20
-143.971
11
117.485
21
-144.352
0
LINE
8
BLACK
6
CONTINUOUS
10
117.485
20
-144.352
11
117.485
21
-144.828
0
LINE
8
BLACK
6
CONTINUOUS
10
117.485
20
-144.828
11
117.39
21
-145.209
0
LINE
8
BLACK
6
CONTINUOUS
10
117.39
20
-145.209
11
117.295
21
-145.399
0
LINE
8
BLACK
6
CONTINUOUS
10
117.295
20
-145.399
11
117.199
21
-145.495
0
LINE
8
BLACK
6
CONTINUOUS
10
117.199
20
-145.495
11
117.009
21
-145.59
0
LINE
8
BLACK
6
CONTINUOUS
10
117.009
20
-145.59
11
116.818
21
-145.59
0
LINE
8
BLACK
6
CONTINUOUS
10
116.818
20
-145.59
11
116.628
21
-145.495
0
LINE
8
BLACK
6
CONTINUOUS
10
116.628
20
-145.495
11
116.533
21
-145.399
0
LINE
8
BLACK
6
CONTINUOUS
10
116.533
20
-145.399
11
116.438
21
-145.209
0
LINE
8
BLACK
6
CONTINUOUS
10
116.438
20
-145.209
11
116.342
21
-144.828
0
LINE
8
BLACK
6
CONTINUOUS
10
116.342
20
-144.828
11
116.342
21
-144.352
0
LINE
8
BLACK
6
CONTINUOUS
10
116.342
20
-144.352
11
116.438
21
-143.971
0
LINE
8
BLACK
6
CONTINUOUS
10
116.438
20
-143.971
11
116.533
21
-143.78
0
LINE
8
BLACK
6
CONTINUOUS
10
116.533
20
-143.78
11
116.628
21
-143.685
0
LINE
8
BLACK
6
CONTINUOUS
10
116.628
20
-143.685
11
116.818
21
-143.59
0
LINE
8
BLACK
6
CONTINUOUS
10
119.39
20
-145.59
11
118.247
21
-145.59
0
LINE
8
BLACK
6
CONTINUOUS
10
118.818
20
-145.59
11
118.818
21
-143.59
0
LINE
8
BLACK
6
CONTINUOUS
10
118.818
20
-143.59
11
118.628
21
-143.876
0
LINE
8
BLACK
6
CONTINUOUS
10
118.628
20
-143.876
11
118.438
21
-144.066
0
LINE
8
BLACK
6
CONTINUOUS
10
118.438
20
-144.066
11
118.247
21
-144.161
0
LINE
8
BLACK
6
CONTINUOUS
10
121.199
20
-143.59
11
120.247
21
-143.59
0
LINE
8
BLACK
6
CONTINUOUS
10
120.247
20
-143.59
11
120.152
21
-144.542
0
LINE
8
BLACK
6
CONTINUOUS
10
120.152
20
-144.542
11
120.247
21
-144.447
0
LINE
8
BLACK
6
CONTINUOUS
10
120.247
20
-144.447
11
120.438
21
-144.352
0
LINE
8
BLACK
6
CONTINUOUS
10
120.438
20
-144.352
11
120.914
21
-144.352
0
LINE
8
BLACK
6
CONTINUOUS
10
120.914
20
-144.352
11
121.104
21
-144.447
0
LINE
8
BLACK
6
CONTINUOUS
10
121.104
20
-144.447
11
121.199
21
-144.542
0
LINE
8
BLACK
6
CONTINUOUS
10
121.199
20
-144.542
11
121.295
21
-144.733
0
LINE
8
BLACK
6
CONTINUOUS
10
121.295
20
-144.733
11
121.295
21
-145.209
0
LINE
8
BLACK
6
CONTINUOUS
10
121.295
20
-145.209
11
121.199
21
-145.399
0
LINE
8
BLACK
6
CONTINUOUS
10
121.199
20
-145.399
11
121.104
21
-145.495
0
LINE
8
BLACK
6
CONTINUOUS
10
121.104
20
-145.495
11
120.914
21
-145.59
0
LINE
8
BLACK
6
CONTINUOUS
10
120.914
20
-145.59
11
120.438
21
-145.59
0
LINE
8
BLACK
6
CONTINUOUS
10
120.438
20
-145.59
11
120.247
21
-145.495
0
LINE
8
BLACK
6
CONTINUOUS
10
120.247
20
-145.495
11
120.152
21
-145.399
0
LINE
8
BLACK
6
CONTINUOUS
10
121.961
20
-143.59
11
123.295
21
-143.59
0
LINE
8
BLACK
6
CONTINUOUS
10
123.295
20
-143.59
11
122.438
21
-145.59
0
LINE
8
BLACK
6
CONTINUOUS
10
123.961
20
-143.59
11
123.961
21
-143.971
0
LINE
8
BLACK
6
CONTINUOUS
10
124.723
20
-143.59
11
124.723
21
-143.971
0
LINE
8
BLACK
6
CONTINUOUS
10
127.676
20
-146.352
11
127.58
21
-146.257
0
LINE
8
BLACK
6
CONTINUOUS
10
127.58
20
-146.257
11
127.39
21
-145.971
0
LINE
8
BLACK
6
CONTINUOUS
10
127.39
20
-145.971
11
127.295
21
-145.78
0
LINE
8
BLACK
6
CONTINUOUS
10
127.295
20
-145.78
11
127.199
21
-145.495
0
LINE
8
BLACK
6
CONTINUOUS
10
127.199
20
-145.495
11
127.104
21
-145.018
0
LINE
8
BLACK
6
CONTINUOUS
10
127.104
20
-145.018
11
127.104
21
-144.637
0
LINE
8
BLACK
6
CONTINUOUS
10
127.104
20
-144.637
11
127.199
21
-144.161
0
LINE
8
BLACK
6
CONTINUOUS
10
127.199
20
-144.161
11
127.295
21
-143.876
0
LINE
8
BLACK
6
CONTINUOUS
10
127.295
20
-143.876
11
127.39
21
-143.685
0
LINE
8
BLACK
6
CONTINUOUS
10
127.39
20
-143.685
11
127.58
21
-143.399
0
LINE
8
BLACK
6
CONTINUOUS
10
127.58
20
-143.399
11
127.676
21
-143.304
0
LINE
8
BLACK
6
CONTINUOUS
10
129.295
20
-144.257
11
129.295
21
-145.59
0
LINE
8
BLACK
6
CONTINUOUS
10
128.818
20
-143.495
11
128.342
21
-144.923
0
LINE
8
BLACK
6
CONTINUOUS
10
128.342
20
-144.923
11
129.58
21
-144.923
0
LINE
8
BLACK
6
CONTINUOUS
10
131.866
20
-145.59
11
131.866
21
-143.59
0
LINE
8
BLACK
6
CONTINUOUS
10
132.723
20
-145.59
11
132.723
21
-144.542
0
LINE
8
BLACK
6
CONTINUOUS
10
132.723
20
-144.542
11
132.628
21
-144.352
0
LINE
8
BLACK
6
CONTINUOUS
10
132.628
20
-144.352
11
132.438
21
-144.257
0
LINE
8
BLACK
6
CONTINUOUS
10
132.438
20
-144.257
11
132.152
21
-144.257
0
LINE
8
BLACK
6
CONTINUOUS
10
132.152
20
-144.257
11
131.961
21
-144.352
0
LINE
8
BLACK
6
CONTINUOUS
10
131.961
20
-144.352
11
131.866
21
-144.447
0
LINE
8
BLACK
6
CONTINUOUS
10
133.961
20
-145.59
11
133.771
21
-145.495
0
LINE
8
BLACK
6
CONTINUOUS
10
133.771
20
-145.495
11
133.676
21
-145.399
0
LINE
8
BLACK
6
CONTINUOUS
10
133.676
20
-145.399
11
133.58
21
-145.209
0
LINE
8
BLACK
6
CONTINUOUS
10
133.58
20
-145.209
11
133.58
21
-144.637
0
LINE
8
BLACK
6
CONTINUOUS
10
133.58
20
-144.637
11
133.676
21
-144.447
0
LINE
8
BLACK
6
CONTINUOUS
10
133.676
20
-144.447
11
133.771
21
-144.352
0
LINE
8
BLACK
6
CONTINUOUS
10
133.771
20
-144.352
11
133.961
21
-144.257
0
LINE
8
BLACK
6
CONTINUOUS
10
133.961
20
-144.257
11
134.247
21
-144.257
0
LINE
8
BLACK
6
CONTINUOUS
10
134.247
20
-144.257
11
134.438
21
-144.352
0
LINE
8
BLACK
6
CONTINUOUS
10
134.438
20
-144.352
11
134.533
21
-144.447
0
LINE
8
BLACK
6
CONTINUOUS
10
134.533
20
-144.447
11
134.628
21
-144.637
0
LINE
8
BLACK
6
CONTINUOUS
10
134.628
20
-144.637
11
134.628
21
-145.209
0
LINE
8
BLACK
6
CONTINUOUS
10
134.628
20
-145.209
11
134.533
21
-145.399
0
LINE
8
BLACK
6
CONTINUOUS
10
134.533
20
-145.399
11
134.438
21
-145.495
0
LINE
8
BLACK
6
CONTINUOUS
10
134.438
20
-145.495
11
134.247
21
-145.59
0
LINE
8
BLACK
6
CONTINUOUS
10
134.247
20
-145.59
11
133.961
21
-145.59
0
LINE
8
BLACK
6
CONTINUOUS
10
135.771
20
-145.59
11
135.58
21
-145.495
0
LINE
8
BLACK
6
CONTINUOUS
10
135.58
20
-145.495
11
135.485
21
-145.304
0
LINE
8
BLACK
6
CONTINUOUS
10
135.485
20
-145.304
11
135.485
21
-143.59
0
LINE
8
BLACK
6
CONTINUOUS
10
137.295
20
-145.495
11
137.104
21
-145.59
0
LINE
8
BLACK
6
CONTINUOUS
10
137.104
20
-145.59
11
136.723
21
-145.59
0
LINE
8
BLACK
6
CONTINUOUS
10
136.723
20
-145.59
11
136.533
21
-145.495
0
LINE
8
BLACK
6
CONTINUOUS
10
136.533
20
-145.495
11
136.438
21
-145.304
0
LINE
8
BLACK
6
CONTINUOUS
10
136.438
20
-145.304
11
136.438
21
-144.542
0
LINE
8
BLACK
6
CONTINUOUS
10
136.438
20
-144.542
11
136.533
21
-144.352
0
LINE
8
BLACK
6
CONTINUOUS
10
136.533
20
-144.352
11
136.723
21
-144.257
0
LINE
8
BLACK
6
CONTINUOUS
10
136.723
20
-144.257
11
137.104
21
-144.257
0
LINE
8
BLACK
6
CONTINUOUS
10
137.104
20
-144.257
11
137.295
21
-144.352
0
LINE
8
BLACK
6
CONTINUOUS
10
137.295
20
-144.352
11
137.39
21
-144.542
0
LINE
8
BLACK
6
CONTINUOUS
10
137.39
20
-144.542
11
137.39
21
-144.733
0
LINE
8
BLACK
6
CONTINUOUS
10
137.39
20
-144.733
11
136.438
21
-144.923
0
LINE
8
BLACK
6
CONTINUOUS
10
138.152
20
-145.495
11
138.342
21
-145.59
0
LINE
8
BLACK
6
CONTINUOUS
10
138.342
20
-145.59
11
138.723
21
-145.59
0
LINE
8
BLACK
6
CONTINUOUS
10
138.723
20
-145.59
11
138.914
21
-145.495
0
LINE
8
BLACK
6
CONTINUOUS
10
138.914
20
-145.495
11
139.009
21
-145.304
0
LINE
8
BLACK
6
CONTINUOUS
10
139.009
20
-145.304
11
139.009
21
-145.209
0
LINE
8
BLACK
6
CONTINUOUS
10
139.009
20
-145.209
11
138.914
21
-145.018
0
LINE
8
BLACK
6
CONTINUOUS
10
138.914
20
-145.018
11
138.723
21
-144.923
0
LINE
8
BLACK
6
CONTINUOUS
10
138.723
20
-144.923
11
138.438
21
-144.923
0
LINE
8
BLACK
6
CONTINUOUS
10
138.438
20
-144.923
11
138.247
21
-144.828
0
LINE
8
BLACK
6
CONTINUOUS
10
138.247
20
-144.828
11
138.152
21
-144.637
0
LINE
8
BLACK
6
CONTINUOUS
10
138.152
20
-144.637
11
138.152
21
-144.542
0
LINE
8
BLACK
6
CONTINUOUS
10
138.152
20
-144.542
11
138.247
21
-144.352
0
LINE
8
BLACK
6
CONTINUOUS
10
138.247
20
-144.352
11
138.438
21
-144.257
0
LINE
8
BLACK
6
CONTINUOUS
10
138.438
20
-144.257
11
138.723
21
-144.257
0
LINE
8
BLACK
6
CONTINUOUS
10
138.723
20
-144.257
11
138.914
21
-144.352
0
LINE
8
BLACK
6
CONTINUOUS
10
139.676
20
-146.352
11
139.771
21
-146.257
0
LINE
8
BLACK
6
CONTINUOUS
10
139.771
20
-146.257
11
139.961
21
-145.971
0
LINE
8
BLACK
6
CONTINUOUS
10
139.961
20
-145.971
11
140.057
21
-145.78
0
LINE
8
BLACK
6
CONTINUOUS
10
140.057
20
-145.78
11
140.152
21
-145.495
0
LINE
8
BLACK
6
CONTINUOUS
10
140.152
20
-145.495
11
140.247
21
-145.018
0
LINE
8
BLACK
6
CONTINUOUS
10
140.247
20
-145.018
11
140.247
21
-144.637
0
LINE
8
BLACK
6
CONTINUOUS
10
140.247
20
-144.637
11
140.152
21
-144.161
0
LINE
8
BLACK
6
CONTINUOUS
10
140.152
20
-144.161
11
140.057
21
-143.876
0
LINE
8
BLACK
6
CONTINUOUS
10
140.057
20
-143.876
11
139.961
21
-143.685
0
LINE
8
BLACK
6
CONTINUOUS
10
139.961
20
-143.685
11
139.771
21
-143.399
0
LINE
8
BLACK
6
CONTINUOUS
10
139.771
20
-143.399
11
139.676
21
-143.304
0
CIRCLE
8
BLACK
10
91.575
20
-147.315
40
0.35
0
LINE
8
BLACK
6
CONTINUOUS
10
94.9137
20
-146.23
11
95.1042
21
-146.23
0
LINE
8
BLACK
6
CONTINUOUS
10
95.1042
20
-146.23
11
95.2947
21
-146.325
0
LINE
8
BLACK
6
CONTINUOUS
10
95.2947
20
-146.325
11
95.3899
21
-146.42
0
LINE
8
BLACK
6
CONTINUOUS
10
95.3899
20
-146.42
11
95.4851
21
-146.611
0
LINE
8
BLACK
6
CONTINUOUS
10
95.4851
20
-146.611
11
95.5804
21
-146.992
0
LINE
8
BLACK
6
CONTINUOUS
10
95.5804
20
-146.992
11
95.5804
21
-147.468
0
LINE
8
BLACK
6
CONTINUOUS
10
95.5804
20
-147.468
11
95.4851
21
-147.849
0
LINE
8
BLACK
6
CONTINUOUS
10
95.4851
20
-147.849
11
95.3899
21
-148.039
0
LINE
8
BLACK
6
CONTINUOUS
10
95.3899
20
-148.039
11
95.2947
21
-148.135
0
LINE
8
BLACK
6
CONTINUOUS
10
95.2947
20
-148.135
11
95.1042
21
-148.23
0
LINE
8
BLACK
6
CONTINUOUS
10
95.1042
20
-148.23
11
94.9137
21
-148.23
0
LINE
8
BLACK
6
CONTINUOUS
10
94.9137
20
-148.23
11
94.7232
21
-148.135
0
LINE
8
BLACK
6
CONTINUOUS
10
94.7232
20
-148.135
11
94.628
21
-148.039
0
LINE
8
BLACK
6
CONTINUOUS
10
94.628
20
-148.039
11
94.5328
21
-147.849
0
LINE
8
BLACK
6
CONTINUOUS
10
94.5328
20
-147.849
11
94.4375
21
-147.468
0
LINE
8
BLACK
6
CONTINUOUS
10
94.4375
20
-147.468
11
94.4375
21
-146.992
0
LINE
8
BLACK
6
CONTINUOUS
10
94.4375
20
-146.992
11
94.5328
21
-146.611
0
LINE
8
BLACK
6
CONTINUOUS
10
94.5328
20
-146.611
11
94.628
21
-146.42
0
LINE
8
BLACK
6
CONTINUOUS
10
94.628
20
-146.42
11
94.7232
21
-146.325
0
LINE
8
BLACK
6
CONTINUOUS
10
94.7232
20
-146.325
11
94.9137
21
-146.23
0
LINE
8
BLACK
6
CONTINUOUS
10
96.4375
20
-148.039
11
96.5328
21
-148.135
0
LINE
8
BLACK
6
CONTINUOUS
10
96.5328
20
-148.135
11
96.4375
21
-148.23
0
LINE
8
BLACK
6
CONTINUOUS
10
96.4375
20
-148.23
11
96.3423
21
-148.135
0
LINE
8
BLACK
6
CONTINUOUS
10
96.3423
20
-148.135
11
96.4375
21
-148.039
0
LINE
8
BLACK
6
CONTINUOUS
10
96.4375
20
-148.039
11
96.4375
21
-148.23
0
LINE
8
BLACK
6
CONTINUOUS
10
97.1994
20
-146.23
11
98.5328
21
-146.23
0
LINE
8
BLACK
6
CONTINUOUS
10
98.5328
20
-146.23
11
97.6756
21
-148.23
0
LINE
8
BLACK
6
CONTINUOUS
10
99.6756
20
-146.23
11
99.8661
21
-146.23
0
LINE
8
BLACK
6
CONTINUOUS
10
99.8661
20
-146.23
11
100.057
21
-146.325
0
LINE
8
BLACK
6
CONTINUOUS
10
100.057
20
-146.325
11
100.152
21
-146.42
0
LINE
8
BLACK
6
CONTINUOUS
10
100.152
20
-146.42
11
100.247
21
-146.611
0
LINE
8
BLACK
6
CONTINUOUS
10
100.247
20
-146.611
11
100.342
21
-146.992
0
LINE
8
BLACK
6
CONTINUOUS
10
100.342
20
-146.992
11
100.342
21
-147.468
0
LINE
8
BLACK
6
CONTINUOUS
10
100.342
20
-147.468
11
100.247
21
-147.849
0
LINE
8
BLACK
6
CONTINUOUS
10
100.247
20
-147.849
11
100.152
21
-148.039
0
LINE
8
BLACK
6
CONTINUOUS
10
100.152
20
-148.039
11
100.057
21
-148.135
0
LINE
8
BLACK
6
CONTINUOUS
10
100.057
20
-148.135
11
99.8661
21
-148.23
0
LINE
8
BLACK
6
CONTINUOUS
10
99.8661
20
-148.23
11
99.6756
21
-148.23
0
LINE
8
BLACK
6
CONTINUOUS
10
99.6756
20
-148.23
11
99.4851
21
-148.135
0
LINE
8
BLACK
6
CONTINUOUS
10
99.4851
20
-148.135
11
99.3899
21
-148.039
0
LINE
8
BLACK
6
CONTINUOUS
10
99.3899
20
-148.039
11
99.2947
21
-147.849
0
LINE
8
BLACK
6
CONTINUOUS
10
99.2947
20
-147.849
11
99.1994
21
-147.468
0
LINE
8
BLACK
6
CONTINUOUS
10
99.1994
20
-147.468
11
99.1994
21
-146.992
0
LINE
8
BLACK
6
CONTINUOUS
10
99.1994
20
-146.992
11
99.2947
21
-146.611
0
LINE
8
BLACK
6
CONTINUOUS
10
99.2947
20
-146.611
11
99.3899
21
-146.42
0
LINE
8
BLACK
6
CONTINUOUS
10
99.3899
20
-146.42
11
99.4851
21
-146.325
0
LINE
8
BLACK
6
CONTINUOUS
10
99.4851
20
-146.325
11
99.6756
21
-146.23
0
LINE
8
BLACK
6
CONTINUOUS
10
101.58
20
-146.23
11
101.771
21
-146.23
0
LINE
8
BLACK
6
CONTINUOUS
10
101.771
20
-146.23
11
101.961
21
-146.325
0
LINE
8
BLACK
6
CONTINUOUS
10
101.961
20
-146.325
11
102.057
21
-146.42
0
LINE
8
BLACK
6
CONTINUOUS
10
102.057
20
-146.42
11
102.152
21
-146.611
0
LINE
8
BLACK
6
CONTINUOUS
10
102.152
20
-146.611
11
102.247
21
-146.992
0
LINE
8
BLACK
6
CONTINUOUS
10
102.247
20
-146.992
11
102.247
21
-147.468
0
LINE
8
BLACK
6
CONTINUOUS
10
102.247
20
-147.468
11
102.152
21
-147.849
0
LINE
8
BLACK
6
CONTINUOUS
10
102.152
20
-147.849
11
102.057
21
-148.039
0
LINE
8
BLACK
6
CONTINUOUS
10
102.057
20
-148.039
11
101.961
21
-148.135
0
LINE
8
BLACK
6
CONTINUOUS
10
101.961
20
-148.135
11
101.771
21
-148.23
0
LINE
8
BLACK
6
CONTINUOUS
10
101.771
20
-148.23
11
101.58
21
-148.23
0
LINE
8
BLACK
6
CONTINUOUS
10
101.58
20
-148.23
11
101.39
21
-148.135
0
LINE
8
BLACK
6
CONTINUOUS
10
101.39
20
-148.135
11
101.295
21
-148.039
0
LINE
8
BLACK
6
CONTINUOUS
10
101.295
20
-148.039
11
101.199
21
-147.849
0
LINE
8
BLACK
6
CONTINUOUS
10
101.199
20
-147.849
11
101.104
21
-147.468
0
LINE
8
BLACK
6
CONTINUOUS
10
101.104
20
-147.468
11
101.104
21
-146.992
0
LINE
8
BLACK
6
CONTINUOUS
10
101.104
20
-146.992
11
101.199
21
-146.611
0
LINE
8
BLACK
6
CONTINUOUS
10
101.199
20
-146.611
11
101.295
21
-146.42
0
LINE
8
BLACK
6
CONTINUOUS
10
101.295
20
-146.42
11
101.39
21
-146.325
0
LINE
8
BLACK
6
CONTINUOUS
10
101.39
20
-146.325
11
101.58
21
-146.23
0
LINE
8
BLACK
6
CONTINUOUS
10
103.104
20
-148.23
11
103.104
21
-146.897
0
LINE
8
BLACK
6
CONTINUOUS
10
103.104
20
-147.087
11
103.199
21
-146.992
0
LINE
8
BLACK
6
CONTINUOUS
10
103.199
20
-146.992
11
103.39
21
-146.897
0
LINE
8
BLACK
6
CONTINUOUS
10
103.39
20
-146.897
11
103.676
21
-146.897
0
LINE
8
BLACK
6
CONTINUOUS
10
103.676
20
-146.897
11
103.866
21
-146.992
0
LINE
8
BLACK
6
CONTINUOUS
10
103.866
20
-146.992
11
103.961
21
-147.182
0
LINE
8
BLACK
6
CONTINUOUS
10
103.961
20
-147.182
11
103.961
21
-148.23
0
LINE
8
BLACK
6
CONTINUOUS
10
103.961
20
-147.182
11
104.057
21
-146.992
0
LINE
8
BLACK
6
CONTINUOUS
10
104.057
20
-146.992
11
104.247
21
-146.897
0
LINE
8
BLACK
6
CONTINUOUS
10
104.247
20
-146.897
11
104.533
21
-146.897
0
LINE
8
BLACK
6
CONTINUOUS
10
104.533
20
-146.897
11
104.723
21
-146.992
0
LINE
8
BLACK
6
CONTINUOUS
10
104.723
20
-146.992
11
104.818
21
-147.182
0
LINE
8
BLACK
6
CONTINUOUS
10
104.818
20
-147.182
11
104.818
21
-148.23
0
LINE
8
BLACK
6
CONTINUOUS
10
105.771
20
-148.23
11
105.771
21
-146.897
0
LINE
8
BLACK
6
CONTINUOUS
10
105.771
20
-147.087
11
105.866
21
-146.992
0
LINE
8
BLACK
6
CONTINUOUS
10
105.866
20
-146.992
11
106.057
21
-146.897
0
LINE
8
BLACK
6
CONTINUOUS
10
106.057
20
-146.897
11
106.342
21
-146.897
0
LINE
8
BLACK
6
CONTINUOUS
10
106.342
20
-146.897
11
106.533
21
-146.992
0
LINE
8
BLACK
6
CONTINUOUS
10
106.533
20
-146.992
11
106.628
21
-147.182
0
LINE
8
BLACK
6
CONTINUOUS
10
106.628
20
-147.182
11
106.628
21
-148.23
0
LINE
8
BLACK
6
CONTINUOUS
10
106.628
20
-147.182
11
106.723
21
-146.992
0
LINE
8
BLACK
6
CONTINUOUS
10
106.723
20
-146.992
11
106.914
21
-146.897
0
LINE
8
BLACK
6
CONTINUOUS
10
106.914
20
-146.897
11
107.199
21
-146.897
0
LINE
8
BLACK
6
CONTINUOUS
10
107.199
20
-146.897
11
107.39
21
-146.992
0
LINE
8
BLACK
6
CONTINUOUS
10
107.39
20
-146.992
11
107.485
21
-147.182
0
LINE
8
BLACK
6
CONTINUOUS
10
107.485
20
-147.182
11
107.485
21
-148.23
0
LINE
8
BLACK
6
CONTINUOUS
10
111.39
20
-146.135
11
109.676
21
-148.706
0
LINE
8
BLACK
6
CONTINUOUS
10
113.961
20
-146.23
11
114.152
21
-146.23
0
LINE
8
BLACK
6
CONTINUOUS
10
114.152
20
-146.23
11
114.342
21
-146.325
0
LINE
8
BLACK
6
CONTINUOUS
10
114.342
20
-146.325
11
114.438
21
-146.42
0
LINE
8
BLACK
6
CONTINUOUS
10
114.438
20
-146.42
11
114.533
21
-146.611
0
LINE
8
BLACK
6
CONTINUOUS
10
114.533
20
-146.611
11
114.628
21
-146.992
0
LINE
8
BLACK
6
CONTINUOUS
10
114.628
20
-146.992
11
114.628
21
-147.468
0
LINE
8
BLACK
6
CONTINUOUS
10
114.628
20
-147.468
11
114.533
21
-147.849
0
LINE
8
BLACK
6
CONTINUOUS
10
114.533
20
-147.849
11
114.438
21
-148.039
0
LINE
8
BLACK
6
CONTINUOUS
10
114.438
20
-148.039
11
114.342
21
-148.135
0
LINE
8
BLACK
6
CONTINUOUS
10
114.342
20
-148.135
11
114.152
21
-148.23
0
LINE
8
BLACK
6
CONTINUOUS
10
114.152
20
-148.23
11
113.961
21
-148.23
0
LINE
8
BLACK
6
CONTINUOUS
10
113.961
20
-148.23
11
113.771
21
-148.135
0
LINE
8
BLACK
6
CONTINUOUS
10
113.771
20
-148.135
11
113.676
21
-148.039
0
LINE
8
BLACK
6
CONTINUOUS
10
113.676
20
-148.039
11
113.58
21
-147.849
0
LINE
8
BLACK
6
CONTINUOUS
10
113.58
20
-147.849
11
113.485
21
-147.468
0
LINE
8
BLACK
6
CONTINUOUS
10
113.485
20
-147.468
11
113.485
21
-146.992
0
LINE
8
BLACK
6
CONTINUOUS
10
113.485
20
-146.992
11
113.58
21
-146.611
0
LINE
8
BLACK
6
CONTINUOUS
10
113.58
20
-146.611
11
113.676
21
-146.42
0
LINE
8
BLACK
6
CONTINUOUS
10
113.676
20
-146.42
11
113.771
21
-146.325
0
LINE
8
BLACK
6
CONTINUOUS
10
113.771
20
-146.325
11
113.961
21
-146.23
0
LINE
8
BLACK
6
CONTINUOUS
10
115.485
20
-148.039
11
115.58
21
-148.135
0
LINE
8
BLACK
6
CONTINUOUS
10
115.58
20
-148.135
11
115.485
21
-148.23
0
LINE
8
BLACK
6
CONTINUOUS
10
115.485
20
-148.23
11
115.39
21
-148.135
0
LINE
8
BLACK
6
CONTINUOUS
10
115.39
20
-148.135
11
115.485
21
-148.039
0
LINE
8
BLACK
6
CONTINUOUS
10
115.485
20
-148.039
11
115.485
21
-148.23
0
LINE
8
BLACK
6
CONTINUOUS
10
116.818
20
-146.23
11
117.009
21
-146.23
0
LINE
8
BLACK
6
CONTINUOUS
10
117.009
20
-146.23
11
117.199
21
-146.325
0
LINE
8
BLACK
6
CONTINUOUS
10
117.199
20
-146.325
11
117.295
21
-146.42
0
LINE
8
BLACK
6
CONTINUOUS
10
117.295
20
-146.42
11
117.39
21
-146.611
0
LINE
8
BLACK
6
CONTINUOUS
10
117.39
20
-146.611
11
117.485
21
-146.992
0
LINE
8
BLACK
6
CONTINUOUS
10
117.485
20
-146.992
11
117.485
21
-147.468
0
LINE
8
BLACK
6
CONTINUOUS
10
117.485
20
-147.468
11
117.39
21
-147.849
0
LINE
8
BLACK
6
CONTINUOUS
10
117.39
20
-147.849
11
117.295
21
-148.039
0
LINE
8
BLACK
6
CONTINUOUS
10
117.295
20
-148.039
11
117.199
21
-148.135
0
LINE
8
BLACK
6
CONTINUOUS
10
117.199
20
-148.135
11
117.009
21
-148.23
0
LINE
8
BLACK
6
CONTINUOUS
10
117.009
20
-148.23
11
116.818
21
-148.23
0
LINE
8
BLACK
6
CONTINUOUS
10
116.818
20
-148.23
11
116.628
21
-148.135
0
LINE
8
BLACK
6
CONTINUOUS
10
116.628
20
-148.135
11
116.533
21
-148.039
0
LINE
8
BLACK
6
CONTINUOUS
10
116.533
20
-148.039
11
116.438
21
-147.849
0
LINE
8
BLACK
6
CONTINUOUS
10
116.438
20
-147.849
11
116.342
21
-147.468
0
LINE
8
BLACK
6
CONTINUOUS
10
116.342
20
-147.468
11
116.342
21
-146.992
0
LINE
8
BLACK
6
CONTINUOUS
10
116.342
20
-146.992
11
116.438
21
-146.611
0
LINE
8
BLACK
6
CONTINUOUS
10
116.438
20
-146.611
11
116.533
21
-146.42
0
LINE
8
BLACK
6
CONTINUOUS
10
116.533
20
-146.42
11
116.628
21
-146.325
0
LINE
8
BLACK
6
CONTINUOUS
10
116.628
20
-146.325
11
116.818
21
-146.23
0
LINE
8
BLACK
6
CONTINUOUS
10
118.247
20
-146.42
11
118.342
21
-146.325
0
LINE
8
BLACK
6
CONTINUOUS
10
118.342
20
-146.325
11
118.533
21
-146.23
0
LINE
8
BLACK
6
CONTINUOUS
10
118.533
20
-146.23
11
119.009
21
-146.23
0
LINE
8
BLACK
6
CONTINUOUS
10
119.009
20
-146.23
11
119.199
21
-146.325
0
LINE
8
BLACK
6
CONTINUOUS
10
119.199
20
-146.325
11
119.295
21
-146.42
0
LINE
8
BLACK
6
CONTINUOUS
10
119.295
20
-146.42
11
119.39
21
-146.611
0
LINE
8
BLACK
6
CONTINUOUS
10
119.39
20
-146.611
11
119.39
21
-146.801
0
LINE
8
BLACK
6
CONTINUOUS
10
119.39
20
-146.801
11
119.295
21
-147.087
0
LINE
8
BLACK
6
CONTINUOUS
10
119.295
20
-147.087
11
118.152
21
-148.23
0
LINE
8
BLACK
6
CONTINUOUS
10
118.152
20
-148.23
11
119.39
21
-148.23
0
LINE
8
BLACK
6
CONTINUOUS
10
120.057
20
-146.23
11
121.39
21
-146.23
0
LINE
8
BLACK
6
CONTINUOUS
10
121.39
20
-146.23
11
120.533
21
-148.23
0
LINE
8
BLACK
6
CONTINUOUS
10
123.009
20
-146.23
11
122.628
21
-146.23
0
LINE
8
BLACK
6
CONTINUOUS
10
122.628
20
-146.23
11
122.438
21
-146.325
0
LINE
8
BLACK
6
CONTINUOUS
10
122.438
20
-146.325
11
122.342
21
-146.42
0
LINE
8
BLACK
6
CONTINUOUS
10
122.342
20
-146.42
11
122.152
21
-146.706
0
LINE
8
BLACK
6
CONTINUOUS
10
122.152
20
-146.706
11
122.057
21
-147.087
0
LINE
8
BLACK
6
CONTINUOUS
10
122.057
20
-147.087
11
122.057
21
-147.849
0
LINE
8
BLACK
6
CONTINUOUS
10
122.057
20
-147.849
11
122.152
21
-148.039
0
LINE
8
BLACK
6
CONTINUOUS
10
122.152
20
-148.039
11
122.247
21
-148.135
0
LINE
8
BLACK
6
CONTINUOUS
10
122.247
20
-148.135
11
122.438
21
-148.23
0
LINE
8
BLACK
6
CONTINUOUS
10
122.438
20
-148.23
11
122.818
21
-148.23
0
LINE
8
BLACK
6
CONTINUOUS
10
122.818
20
-148.23
11
123.009
21
-148.135
0
LINE
8
BLACK
6
CONTINUOUS
10
123.009
20
-148.135
11
123.104
21
-148.039
0
LINE
8
BLACK
6
CONTINUOUS
10
123.104
20
-148.039
11
123.199
21
-147.849
0
LINE
8
BLACK
6
CONTINUOUS
10
123.199
20
-147.849
11
123.199
21
-147.373
0
LINE
8
BLACK
6
CONTINUOUS
10
123.199
20
-147.373
11
123.104
21
-147.182
0
LINE
8
BLACK
6
CONTINUOUS
10
123.104
20
-147.182
11
123.009
21
-147.087
0
LINE
8
BLACK
6
CONTINUOUS
10
123.009
20
-147.087
11
122.818
21
-146.992
0
LINE
8
BLACK
6
CONTINUOUS
10
122.818
20
-146.992
11
122.438
21
-146.992
0
LINE
8
BLACK
6
CONTINUOUS
10
122.438
20
-146.992
11
122.247
21
-147.087
0
LINE
8
BLACK
6
CONTINUOUS
10
122.247
20
-147.087
11
122.152
21
-147.182
0
LINE
8
BLACK
6
CONTINUOUS
10
122.152
20
-147.182
11
122.057
21
-147.373
0
LINE
8
BLACK
6
CONTINUOUS
10
123.961
20
-146.23
11
123.961
21
-146.611
0
LINE
8
BLACK
6
CONTINUOUS
10
124.723
20
-146.23
11
124.723
21
-146.611
0
LINE
8
BLACK
6
CONTINUOUS
10
127.676
20
-148.992
11
127.58
21
-148.897
0
LINE
8
BLACK
6
CONTINUOUS
10
127.58
20
-148.897
11
127.39
21
-148.611
0
LINE
8
BLACK
6
CONTINUOUS
10
127.39
20
-148.611
11
127.295
21
-148.42
0
LINE
8
BLACK
6
CONTINUOUS
10
127.295
20
-148.42
11
127.199
21
-148.135
0
LINE
8
BLACK
6
CONTINUOUS
10
127.199
20
-148.135
11
127.104
21
-147.658
0
LINE
8
BLACK
6
CONTINUOUS
10
127.104
20
-147.658
11
127.104
21
-147.277
0
LINE
8
BLACK
6
CONTINUOUS
10
127.104
20
-147.277
11
127.199
21
-146.801
0
LINE
8
BLACK
6
CONTINUOUS
10
127.199
20
-146.801
11
127.295
21
-146.516
0
LINE
8
BLACK
6
CONTINUOUS
10
127.295
20
-146.516
11
127.39
21
-146.325
0
LINE
8
BLACK
6
CONTINUOUS
10
127.39
20
-146.325
11
127.58
21
-146.039
0
LINE
8
BLACK
6
CONTINUOUS
10
127.58
20
-146.039
11
127.676
21
-145.944
0
LINE
8
BLACK
6
CONTINUOUS
10
129.485
20
-148.23
11
128.342
21
-148.23
0
LINE
8
BLACK
6
CONTINUOUS
10
128.914
20
-148.23
11
128.914
21
-146.23
0
LINE
8
BLACK
6
CONTINUOUS
10
128.914
20
-146.23
11
128.723
21
-146.516
0
LINE
8
BLACK
6
CONTINUOUS
10
128.723
20
-146.516
11
128.533
21
-146.706
0
LINE
8
BLACK
6
CONTINUOUS
10
128.533
20
-146.706
11
128.342
21
-146.801
0
LINE
8
BLACK
6
CONTINUOUS
10
130.247
20
-146.42
11
130.342
21
-146.325
0
LINE
8
BLACK
6
CONTINUOUS
10
130.342
20
-146.325
11
130.533
21
-146.23
0
LINE
8
BLACK
6
CONTINUOUS
10
130.533
20
-146.23
11
131.009
21
-146.23
0
LINE
8
BLACK
6
CONTINUOUS
10
131.009
20
-146.23
11
131.199
21
-146.325
0
LINE
8
BLACK
6
CONTINUOUS
10
131.199
20
-146.325
11
131.295
21
-146.42
0
LINE
8
BLACK
6
CONTINUOUS
10
131.295
20
-146.42
11
131.39
21
-146.611
0
LINE
8
BLACK
6
CONTINUOUS
10
131.39
20
-146.611
11
131.39
21
-146.801
0
LINE
8
BLACK
6
CONTINUOUS
10
131.39
20
-146.801
11
131.295
21
-147.087
0
LINE
8
BLACK
6
CONTINUOUS
10
131.295
20
-147.087
11
130.152
21
-148.23
0
LINE
8
BLACK
6
CONTINUOUS
10
130.152
20
-148.23
11
131.39
21
-148.23
0
LINE
8
BLACK
6
CONTINUOUS
10
133.771
20
-148.23
11
133.771
21
-146.23
0
LINE
8
BLACK
6
CONTINUOUS
10
134.628
20
-148.23
11
134.628
21
-147.182
0
LINE
8
BLACK
6
CONTINUOUS
10
134.628
20
-147.182
11
134.533
21
-146.992
0
LINE
8
BLACK
6
CONTINUOUS
10
134.533
20
-146.992
11
134.342
21
-146.897
0
LINE
8
BLACK
6
CONTINUOUS
10
134.342
20
-146.897
11
134.057
21
-146.897
0
LINE
8
BLACK
6
CONTINUOUS
10
134.057
20
-146.897
11
133.866
21
-146.992
0
LINE
8
BLACK
6
CONTINUOUS
10
133.866
20
-146.992
11
133.771
21
-147.087
0
LINE
8
BLACK
6
CONTINUOUS
10
135.866
20
-148.23
11
135.676
21
-148.135
0
LINE
8
BLACK
6
CONTINUOUS
10
135.676
20
-148.135
11
135.58
21
-148.039
0
LINE
8
BLACK
6
CONTINUOUS
10
135.58
20
-148.039
11
135.485
21
-147.849
0
LINE
8
BLACK
6
CONTINUOUS
10
135.485
20
-147.849
11
135.485
21
-147.277
0
LINE
8
BLACK
6
CONTINUOUS
10
135.485
20
-147.277
11
135.58
21
-147.087
0
LINE
8
BLACK
6
CONTINUOUS
10
135.58
20
-147.087
11
135.676
21
-146.992
0
LINE
8
BLACK
6
CONTINUOUS
10
135.676
20
-146.992
11
135.866
21
-146.897
0
LINE
8
BLACK
6
CONTINUOUS
10
135.866
20
-146.897
11
136.152
21
-146.897
0
LINE
8
BLACK
6
CONTINUOUS
10
136.152
20
-146.897
11
136.342
21
-146.992
0
LINE
8
BLACK
6
CONTINUOUS
10
136.342
20
-146.992
11
136.438
21
-147.087
0
LINE
8
BLACK
6
CONTINUOUS
10
136.438
20
-147.087
11
136.533
21
-147.277
0
LINE
8
BLACK
6
CONTINUOUS
10
136.533
20
-147.277
11
136.533
21
-147.849
0
LINE
8
BLACK
6
CONTINUOUS
10
136.533
20
-147.849
11
136.438
21
-148.039
0
LINE
8
BLACK
6
CONTINUOUS
10
136.438
20
-148.039
11
136.342
21
-148.135
0
LINE
8
BLACK
6
CONTINUOUS
10
136.342
20
-148.135
11
136.152
21
-148.23
0
LINE
8
BLACK
6
CONTINUOUS
10
136.152
20
-148.23
11
135.866
21
-148.23
0
LINE
8
BLACK
6
CONTINUOUS
10
137.676
20
-148.23
11
137.485
21
-148.135
0
LINE
8
BLACK
6
CONTINUOUS
10
137.485
20
-148.135
11
137.39
21
-147.944
0
LINE
8
BLACK
6
CONTINUOUS
10
137.39
20
-147.944
11
137.39
21
-146.23
0
LINE
8
BLACK
6
CONTINUOUS
10
139.199
20
-148.135
11
139.009
21
-148.23
0
LINE
8
BLACK
6
CONTINUOUS
10
139.009
20
-148.23
11
138.628
21
-148.23
0
LINE
8
BLACK
6
CONTINUOUS
10
138.628
20
-148.23
11
138.438
21
-148.135
0
LINE
8
BLACK
6
CONTINUOUS
10
138.438
20
-148.135
11
138.342
21
-147.944
0
LINE
8
BLACK
6
CONTINUOUS
10
138.342
20
-147.944
11
138.342
21
-147.182
0
LINE
8
BLACK
6
CONTINUOUS
10
138.342
20
-147.182
11
138.438
21
-146.992
0
LINE
8
BLACK
6
CONTINUOUS
10
138.438
20
-146.992
11
138.628
21
-146.897
0
LINE
8
BLACK
6
CONTINUOUS
10
138.628
20
-146.897
11
139.009
21
-146.897
0
LINE
8
BLACK
6
CONTINUOUS
10
139.009
20
-146.897
11
139.199
21
-146.992
0
LINE
8
BLACK
6
CONTINUOUS
10
139.199
20
-146.992
11
139.295
21
-147.182
0
LINE
8
BLACK
6
CONTINUOUS
10
139.295
20
-147.182
11
139.295
21
-147.373
0
LINE
8
BLACK
6
CONTINUOUS
10
139.295
20
-147.373
11
138.342
21
-147.563
0
LINE
8
BLACK
6
CONTINUOUS
10
140.057
20
-148.135
11
140.247
21
-148.23
0
LINE
8
BLACK
6
CONTINUOUS
10
140.247
20
-148.23
11
140.628
21
-148.23
0
LINE
8
BLACK
6
CONTINUOUS
10
140.628
20
-148.23
11
140.818
21
-148.135
0
LINE
8
BLACK
6
CONTINUOUS
10
140.818
20
-148.135
11
140.914
21
-147.944
0
LINE
8
BLACK
6
CONTINUOUS
10
140.914
20
-147.944
11
140.914
21
-147.849
0
LINE
8
BLACK
6
CONTINUOUS
10
140.914
20
-147.849
11
140.818
21
-147.658
0
LINE
8
BLACK
6
CONTINUOUS
10
140.818
20
-147.658
11
140.628
21
-147.563
0
LINE
8
BLACK
6
CONTINUOUS
10
140.628
20
-147.563
11
140.342
21
-147.563
0
LINE
8
BLACK
6
CONTINUOUS
10
140.342
20
-147.563
11
140.152
21
-147.468
0
LINE
8
BLACK
6
CONTINUOUS
10
140.152
20
-147.468
11
140.057
21
-147.277
0
LINE
8
BLACK
6
CONTINUOUS
10
140.057
20
-147.277
11
140.057
21
-147.182
0
LINE
8
BLACK
6
CONTINUOUS
10
140.057
20
-147.182
11
140.152
21
-146.992
0
LINE
8
BLACK
6
CONTINUOUS
10
140.152
20
-146.992
11
140.342
21
-146.897
0
LINE
8
BLACK
6
CONTINUOUS
10
140.342
20
-146.897
11
140.628
21
-146.897
0
LINE
8
BLACK
6
CONTINUOUS
10
140.628
20
-146.897
11
140.818
21
-146.992
0
LINE
8
BLACK
6
CONTINUOUS
10
141.58
20
-148.992
11
141.676
21
-148.897
0
LINE
8
BLACK
6
CONTINUOUS
10
141.676
20
-148.897
11
141.866
21
-148.611
0
LINE
8
BLACK
6
CONTINUOUS
10
141.866
20
-148.611
11
141.961
21
-148.42
0
LINE
8
BLACK
6
CONTINUOUS
10
141.961
20
-148.42
11
142.057
21
-148.135
0
LINE
8
BLACK
6
CONTINUOUS
10
142.057
20
-148.135
11
142.152
21
-147.658
0
LINE
8
BLACK
6
CONTINUOUS
10
142.152
20
-147.658
11
142.152
21
-147.277
0
LINE
8
BLACK
6
CONTINUOUS
10
142.152
20
-147.277
11
142.057
21
-146.801
0
LINE
8
BLACK
6
CONTINUOUS
10
142.057
20
-146.801
11
141.961
21
-146.516
0
LINE
8
BLACK
6
CONTINUOUS
10
141.961
20
-146.516
11
141.866
21
-146.325
0
LINE
8
BLACK
6
CONTINUOUS
10
141.866
20
-146.325
11
141.676
21
-146.039
0
LINE
8
BLACK
6
CONTINUOUS
10
141.676
20
-146.039
11
141.58
21
-145.944
0
LINE
8
BLACK
6
CONTINUOUS
10
91.525
20
-149.555
11
91.525
21
-150.355
0
LINE
8
BLACK
6
CONTINUOUS
10
91.125
20
-149.955
11
91.925
21
-149.955
0
LINE
8
BLACK
6
CONTINUOUS
10
94.9137
20
-148.87
11
95.1042
21
-148.87
0
LINE
8
BLACK
6
CONTINUOUS
10
95.1042
20
-148.87
11
95.2947
21
-148.965
0
LINE
8
BLACK
6
CONTINUOUS
10
95.2947
20
-148.965
11
95.3899
21
-149.06
0
LINE
8
BLACK
6
CONTINUOUS
10
95.3899
20
-149.06
11
95.4851
21
-149.251
0
LINE
8
BLACK
6
CONTINUOUS
10
95.4851
20
-149.251
11
95.5804
21
-149.632
0
LINE
8
BLACK
6
CONTINUOUS
10
95.5804
20
-149.632
11
95.5804
21
-150.108
0
LINE
8
BLACK
6
CONTINUOUS
10
95.5804
20
-150.108
11
95.4851
21
-150.489
0
LINE
8
BLACK
6
CONTINUOUS
10
95.4851
20
-150.489
11
95.3899
21
-150.679
0
LINE
8
BLACK
6
CONTINUOUS
10
95.3899
20
-150.679
11
95.2947
21
-150.775
0
LINE
8
BLACK
6
CONTINUOUS
10
95.2947
20
-150.775
11
95.1042
21
-150.87
0
LINE
8
BLACK
6
CONTINUOUS
10
95.1042
20
-150.87
11
94.9137
21
-150.87
0
LINE
8
BLACK
6
CONTINUOUS
10
94.9137
20
-150.87
11
94.7232
21
-150.775
0
LINE
8
BLACK
6
CONTINUOUS
10
94.7232
20
-150.775
11
94.628
21
-150.679
0
LINE
8
BLACK
6
CONTINUOUS
10
94.628
20
-150.679
11
94.5328
21
-150.489
0
LINE
8
BLACK
6
CONTINUOUS
10
94.5328
20
-150.489
11
94.4375
21
-150.108
0
LINE
8
BLACK
6
CONTINUOUS
10
94.4375
20
-150.108
11
94.4375
21
-149.632
0
LINE
8
BLACK
6
CONTINUOUS
10
94.4375
20
-149.632
11
94.5328
21
-149.251
0
LINE
8
BLACK
6
CONTINUOUS
10
94.5328
20
-149.251
11
94.628
21
-149.06
0
LINE
8
BLACK
6
CONTINUOUS
10
94.628
20
-149.06
11
94.7232
21
-148.965
0
LINE
8
BLACK
6
CONTINUOUS
10
94.7232
20
-148.965
11
94.9137
21
-148.87
0
LINE
8
BLACK
6
CONTINUOUS
10
96.4375
20
-150.679
11
96.5328
21
-150.775
0
LINE
8
BLACK
6
CONTINUOUS
10
96.5328
20
-150.775
11
96.4375
21
-150.87
0
LINE
8
BLACK
6
CONTINUOUS
10
96.4375
20
-150.87
11
96.3423
21
-150.775
0
LINE
8
BLACK
6
CONTINUOUS
10
96.3423
20
-150.775
11
96.4375
21
-150.679
0
LINE
8
BLACK
6
CONTINUOUS
10
96.4375
20
-150.679
11
96.4375
21
-150.87
0
LINE
8
BLACK
6
CONTINUOUS
10
97.6756
20
-149.727
11
97.4851
21
-149.632
0
LINE
8
BLACK
6
CONTINUOUS
10
97.4851
20
-149.632
11
97.3899
21
-149.537
0
LINE
8
BLACK
6
CONTINUOUS
10
97.3899
20
-149.537
11
97.2947
21
-149.346
0
LINE
8
BLACK
6
CONTINUOUS
10
97.2947
20
-149.346
11
97.2947
21
-149.251
0
LINE
8
BLACK
6
CONTINUOUS
10
97.2947
20
-149.251
11
97.3899
21
-149.06
0
LINE
8
BLACK
6
CONTINUOUS
10
97.3899
20
-149.06
11
97.4851
21
-148.965
0
LINE
8
BLACK
6
CONTINUOUS
10
97.4851
20
-148.965
11
97.6756
21
-148.87
0
LINE
8
BLACK
6
CONTINUOUS
10
97.6756
20
-148.87
11
98.0566
21
-148.87
0
LINE
8
BLACK
6
CONTINUOUS
10
98.0566
20
-148.87
11
98.2471
21
-148.965
0
LINE
8
BLACK
6
CONTINUOUS
10
98.2471
20
-148.965
11
98.3423
21
-149.06
0
LINE
8
BLACK
6
CONTINUOUS
10
98.3423
20
-149.06
11
98.4375
21
-149.251
0
LINE
8
BLACK
6
CONTINUOUS
10
98.4375
20
-149.251
11
98.4375
21
-149.346
0
LINE
8
BLACK
6
CONTINUOUS
10
98.4375
20
-149.346
11
98.3423
21
-149.537
0
LINE
8
BLACK
6
CONTINUOUS
10
98.3423
20
-149.537
11
98.2471
21
-149.632
0
LINE
8
BLACK
6
CONTINUOUS
10
98.2471
20
-149.632
11
98.0566
21
-149.727
0
LINE
8
BLACK
6
CONTINUOUS
10
98.0566
20
-149.727
11
97.6756
21
-149.727
0
LINE
8
BLACK
6
CONTINUOUS
10
97.6756
20
-149.727
11
97.4851
21
-149.822
0
LINE
8
BLACK
6
CONTINUOUS
10
97.4851
20
-149.822
11
97.3899
21
-149.917
0
LINE
8
BLACK
6
CONTINUOUS
10
97.3899
20
-149.917
11
97.2947
21
-150.108
0
LINE
8
BLACK
6
CONTINUOUS
10
97.2947
20
-150.108
11
97.2947
21
-150.489
0
LINE
8
BLACK
6
CONTINUOUS
10
97.2947
20
-150.489
11
97.3899
21
-150.679
0
LINE
8
BLACK
6
CONTINUOUS
10
97.3899
20
-150.679
11
97.4851
21
-150.775
0
LINE
8
BLACK
6
CONTINUOUS
10
97.4851
20
-150.775
11
97.6756
21
-150.87
0
LINE
8
BLACK
6
CONTINUOUS
10
97.6756
20
-150.87
11
98.0566
21
-150.87
0
LINE
8
BLACK
6
CONTINUOUS
10
98.0566
20
-150.87
11
98.2471
21
-150.775
0
LINE
8
BLACK
6
CONTINUOUS
10
98.2471
20
-150.775
11
98.3423
21
-150.679
0
LINE
8
BLACK
6
CONTINUOUS
10
98.3423
20
-150.679
11
98.4375
21
-150.489
0
LINE
8
BLACK
6
CONTINUOUS
10
98.4375
20
-150.489
11
98.4375
21
-150.108
0
LINE
8
BLACK
6
CONTINUOUS
10
98.4375
20
-150.108
11
98.3423
21
-149.917
0
LINE
8
BLACK
6
CONTINUOUS
10
98.3423
20
-149.917
11
98.2471
21
-149.822
0
LINE
8
BLACK
6
CONTINUOUS
10
98.2471
20
-149.822
11
98.0566
21
-149.727
0
LINE
8
BLACK
6
CONTINUOUS
10
99.6756
20
-148.87
11
99.8661
21
-148.87
0
LINE
8
BLACK
6
CONTINUOUS
10
99.8661
20
-148.87
11
100.057
21
-148.965
0
LINE
8
BLACK
6
CONTINUOUS
10
100.057
20
-148.965
11
100.152
21
-149.06
0
LINE
8
BLACK
6
CONTINUOUS
10
100.152
20
-149.06
11
100.247
21
-149.251
0
LINE
8
BLACK
6
CONTINUOUS
10
100.247
20
-149.251
11
100.342
21
-149.632
0
LINE
8
BLACK
6
CONTINUOUS
10
100.342
20
-149.632
11
100.342
21
-150.108
0
LINE
8
BLACK
6
CONTINUOUS
10
100.342
20
-150.108
11
100.247
21
-150.489
0
LINE
8
BLACK
6
CONTINUOUS
10
100.247
20
-150.489
11
100.152
21
-150.679
0
LINE
8
BLACK
6
CONTINUOUS
10
100.152
20
-150.679
11
100.057
21
-150.775
0
LINE
8
BLACK
6
CONTINUOUS
10
100.057
20
-150.775
11
99.8661
21
-150.87
0
LINE
8
BLACK
6
CONTINUOUS
10
99.8661
20
-150.87
11
99.6756
21
-150.87
0
LINE
8
BLACK
6
CONTINUOUS
10
99.6756
20
-150.87
11
99.4851
21
-150.775
0
LINE
8
BLACK
6
CONTINUOUS
10
99.4851
20
-150.775
11
99.3899
21
-150.679
0
LINE
8
BLACK
6
CONTINUOUS
10
99.3899
20
-150.679
11
99.2947
21
-150.489
0
LINE
8
BLACK
6
CONTINUOUS
10
99.2947
20
-150.489
11
99.1994
21
-150.108
0
LINE
8
BLACK
6
CONTINUOUS
10
99.1994
20
-150.108
11
99.1994
21
-149.632
0
LINE
8
BLACK
6
CONTINUOUS
10
99.1994
20
-149.632
11
99.2947
21
-149.251
0
LINE
8
BLACK
6
CONTINUOUS
10
99.2947
20
-149.251
11
99.3899
21
-149.06
0
LINE
8
BLACK
6
CONTINUOUS
10
99.3899
20
-149.06
11
99.4851
21
-148.965
0
LINE
8
BLACK
6
CONTINUOUS
10
99.4851
20
-148.965
11
99.6756
21
-148.87
0
LINE
8
BLACK
6
CONTINUOUS
10
101.58
20
-148.87
11
101.771
21
-148.87
0
LINE
8
BLACK
6
CONTINUOUS
10
101.771
20
-148.87
11
101.961
21
-148.965
0
LINE
8
BLACK
6
CONTINUOUS
10
101.961
20
-148.965
11
102.057
21
-149.06
0
LINE
8
BLACK
6
CONTINUOUS
10
102.057
20
-149.06
11
102.152
21
-149.251
0
LINE
8
BLACK
6
CONTINUOUS
10
102.152
20
-149.251
11
102.247
21
-149.632
0
LINE
8
BLACK
6
CONTINUOUS
10
102.247
20
-149.632
11
102.247
21
-150.108
0
LINE
8
BLACK
6
CONTINUOUS
10
102.247
20
-150.108
11
102.152
21
-150.489
0
LINE
8
BLACK
6
CONTINUOUS
10
102.152
20
-150.489
11
102.057
21
-150.679
0
LINE
8
BLACK
6
CONTINUOUS
10
102.057
20
-150.679
11
101.961
21
-150.775
0
LINE
8
BLACK
6
CONTINUOUS
10
101.961
20
-150.775
11
101.771
21
-150.87
0
LINE
8
BLACK
6
CONTINUOUS
10
101.771
20
-150.87
11
101.58
21
-150.87
0
LINE
8
BLACK
6
CONTINUOUS
10
101.58
20
-150.87
11
101.39
21
-150.775
0
LINE
8
BLACK
6
CONTINUOUS
10
101.39
20
-150.775
11
101.295
21
-150.679
0
LINE
8
BLACK
6
CONTINUOUS
10
101.295
20
-150.679
11
101.199
21
-150.489
0
LINE
8
BLACK
6
CONTINUOUS
10
101.199
20
-150.489
11
101.104
21
-150.108
0
LINE
8
BLACK
6
CONTINUOUS
10
101.104
20
-150.108
11
101.104
21
-149.632
0
LINE
8
BLACK
6
CONTINUOUS
10
101.104
20
-149.632
11
101.199
21
-149.251
0
LINE
8
BLACK
6
CONTINUOUS
10
101.199
20
-149.251
11
101.295
21
-149.06
0
LINE
8
BLACK
6
CONTINUOUS
10
101.295
20
-149.06
11
101.39
21
-148.965
0
LINE
8
BLACK
6
CONTINUOUS
10
101.39
20
-148.965
11
101.58
21
-148.87
0
LINE
8
BLACK
6
CONTINUOUS
10
103.104
20
-150.87
11
103.104
21
-149.537
0
LINE
8
BLACK
6
CONTINUOUS
10
103.104
20
-149.727
11
103.199
21
-149.632
0
LINE
8
BLACK
6
CONTINUOUS
10
103.199
20
-149.632
11
103.39
21
-149.537
0
LINE
8
BLACK
6
CONTINUOUS
10
103.39
20
-149.537
11
103.676
21
-149.537
0
LINE
8
BLACK
6
CONTINUOUS
10
103.676
20
-149.537
11
103.866
21
-149.632
0
LINE
8
BLACK
6
CONTINUOUS
10
103.866
20
-149.632
11
103.961
21
-149.822
0
LINE
8
BLACK
6
CONTINUOUS
10
103.961
20
-149.822
11
103.961
21
-150.87
0
LINE
8
BLACK
6
CONTINUOUS
10
103.961
20
-149.822
11
104.057
21
-149.632
0
LINE
8
BLACK
6
CONTINUOUS
10
104.057
20
-149.632
11
104.247
21
-149.537
0
LINE
8
BLACK
6
CONTINUOUS
10
104.247
20
-149.537
11
104.533
21
-149.537
0
LINE
8
BLACK
6
CONTINUOUS
10
104.533
20
-149.537
11
104.723
21
-149.632
0
LINE
8
BLACK
6
CONTINUOUS
10
104.723
20
-149.632
11
104.818
21
-149.822
0
LINE
8
BLACK
6
CONTINUOUS
10
104.818
20
-149.822
11
104.818
21
-150.87
0
LINE
8
BLACK
6
CONTINUOUS
10
105.771
20
-150.87
11
105.771
21
-149.537
0
LINE
8
BLACK
6
CONTINUOUS
10
105.771
20
-149.727
11
105.866
21
-149.632
0
LINE
8
BLACK
6
CONTINUOUS
10
105.866
20
-149.632
11
106.057
21
-149.537
0
LINE
8
BLACK
6
CONTINUOUS
10
106.057
20
-149.537
11
106.342
21
-149.537
0
LINE
8
BLACK
6
CONTINUOUS
10
106.342
20
-149.537
11
106.533
21
-149.632
0
LINE
8
BLACK
6
CONTINUOUS
10
106.533
20
-149.632
11
106.628
21
-149.822
0
LINE
8
BLACK
6
CONTINUOUS
10
106.628
20
-149.822
11
106.628
21
-150.87
0
LINE
8
BLACK
6
CONTINUOUS
10
106.628
20
-149.822
11
106.723
21
-149.632
0
LINE
8
BLACK
6
CONTINUOUS
10
106.723
20
-149.632
11
106.914
21
-149.537
0
LINE
8
BLACK
6
CONTINUOUS
10
106.914
20
-149.537
11
107.199
21
-149.537
0
LINE
8
BLACK
6
CONTINUOUS
10
107.199
20
-149.537
11
107.39
21
-149.632
0
LINE
8
BLACK
6
CONTINUOUS
10
107.39
20
-149.632
11
107.485
21
-149.822
0
LINE
8
BLACK
6
CONTINUOUS
10
107.485
20
-149.822
11
107.485
21
-150.87
0
LINE
8
BLACK
6
CONTINUOUS
10
111.39
20
-148.775
11
109.676
21
-151.346
0
LINE
8
BLACK
6
CONTINUOUS
10
113.961
20
-148.87
11
114.152
21
-148.87
0
LINE
8
BLACK
6
CONTINUOUS
10
114.152
20
-148.87
11
114.342
21
-148.965
0
LINE
8
BLACK
6
CONTINUOUS
10
114.342
20
-148.965
11
114.438
21
-149.06
0
LINE
8
BLACK
6
CONTINUOUS
10
114.438
20
-149.06
11
114.533
21
-149.251
0
LINE
8
BLACK
6
CONTINUOUS
10
114.533
20
-149.251
11
114.628
21
-149.632
0
LINE
8
BLACK
6
CONTINUOUS
10
114.628
20
-149.632
11
114.628
21
-150.108
0
LINE
8
BLACK
6
CONTINUOUS
10
114.628
20
-150.108
11
114.533
21
-150.489
0
LINE
8
BLACK
6
CONTINUOUS
10
114.533
20
-150.489
11
114.438
21
-150.679
0
LINE
8
BLACK
6
CONTINUOUS
10
114.438
20
-150.679
11
114.342
21
-150.775
0
LINE
8
BLACK
6
CONTINUOUS
10
114.342
20
-150.775
11
114.152
21
-150.87
0
LINE
8
BLACK
6
CONTINUOUS
10
114.152
20
-150.87
11
113.961
21
-150.87
0
LINE
8
BLACK
6
CONTINUOUS
10
113.961
20
-150.87
11
113.771
21
-150.775
0
LINE
8
BLACK
6
CONTINUOUS
10
113.771
20
-150.775
11
113.676
21
-150.679
0
LINE
8
BLACK
6
CONTINUOUS
10
113.676
20
-150.679
11
113.58
21
-150.489
0
LINE
8
BLACK
6
CONTINUOUS
10
113.58
20
-150.489
11
113.485
21
-150.108
0
LINE
8
BLACK
6
CONTINUOUS
10
113.485
20
-150.108
11
113.485
21
-149.632
0
LINE
8
BLACK
6
CONTINUOUS
10
113.485
20
-149.632
11
113.58
21
-149.251
0
LINE
8
BLACK
6
CONTINUOUS
10
113.58
20
-149.251
11
113.676
21
-149.06
0
LINE
8
BLACK
6
CONTINUOUS
10
113.676
20
-149.06
11
113.771
21
-148.965
0
LINE
8
BLACK
6
CONTINUOUS
10
113.771
20
-148.965
11
113.961
21
-148.87
0
LINE
8
BLACK
6
CONTINUOUS
10
115.485
20
-150.679
11
115.58
21
-150.775
0
LINE
8
BLACK
6
CONTINUOUS
10
115.58
20
-150.775
11
115.485
21
-150.87
0
LINE
8
BLACK
6
CONTINUOUS
10
115.485
20
-150.87
11
115.39
21
-150.775
0
LINE
8
BLACK
6
CONTINUOUS
10
115.39
20
-150.775
11
115.485
21
-150.679
0
LINE
8
BLACK
6
CONTINUOUS
10
115.485
20
-150.679
11
115.485
21
-150.87
0
LINE
8
BLACK
6
CONTINUOUS
10
116.818
20
-148.87
11
117.009
21
-148.87
0
LINE
8
BLACK
6
CONTINUOUS
10
117.009
20
-148.87
11
117.199
21
-148.965
0
LINE
8
BLACK
6
CONTINUOUS
10
117.199
20
-148.965
11
117.295
21
-149.06
0
LINE
8
BLACK
6
CONTINUOUS
10
117.295
20
-149.06
11
117.39
21
-149.251
0
LINE
8
BLACK
6
CONTINUOUS
10
117.39
20
-149.251
11
117.485
21
-149.632
0
LINE
8
BLACK
6
CONTINUOUS
10
117.485
20
-149.632
11
117.485
21
-150.108
0
LINE
8
BLACK
6
CONTINUOUS
10
117.485
20
-150.108
11
117.39
21
-150.489
0
LINE
8
BLACK
6
CONTINUOUS
10
117.39
20
-150.489
11
117.295
21
-150.679
0
LINE
8
BLACK
6
CONTINUOUS
10
117.295
20
-150.679
11
117.199
21
-150.775
0
LINE
8
BLACK
6
CONTINUOUS
10
117.199
20
-150.775
11
117.009
21
-150.87
0
LINE
8
BLACK
6
CONTINUOUS
10
117.009
20
-150.87
11
116.818
21
-150.87
0
LINE
8
BLACK
6
CONTINUOUS
10
116.818
20
-150.87
11
116.628
21
-150.775
0
LINE
8
BLACK
6
CONTINUOUS
10
116.628
20
-150.775
11
116.533
21
-150.679
0
LINE
8
BLACK
6
CONTINUOUS
10
116.533
20
-150.679
11
116.438
21
-150.489
0
LINE
8
BLACK
6
CONTINUOUS
10
116.438
20
-150.489
11
116.342
21
-150.108
0
LINE
8
BLACK
6
CONTINUOUS
10
116.342
20
-150.108
11
116.342
21
-149.632
0
LINE
8
BLACK
6
CONTINUOUS
10
116.342
20
-149.632
11
116.438
21
-149.251
0
LINE
8
BLACK
6
CONTINUOUS
10
116.438
20
-149.251
11
116.533
21
-149.06
0
LINE
8
BLACK
6
CONTINUOUS
10
116.533
20
-149.06
11
116.628
21
-148.965
0
LINE
8
BLACK
6
CONTINUOUS
10
116.628
20
-148.965
11
116.818
21
-148.87
0
LINE
8
BLACK
6
CONTINUOUS
10
118.152
20
-148.87
11
119.39
21
-148.87
0
LINE
8
BLACK
6
CONTINUOUS
10
119.39
20
-148.87
11
118.723
21
-149.632
0
LINE
8
BLACK
6
CONTINUOUS
10
118.723
20
-149.632
11
119.009
21
-149.632
0
LINE
8
BLACK
6
CONTINUOUS
10
119.009
20
-149.632
11
119.199
21
-149.727
0
LINE
8
BLACK
6
CONTINUOUS
10
119.199
20
-149.727
11
119.295
21
-149.822
0
LINE
8
BLACK
6
CONTINUOUS
10
119.295
20
-149.822
11
119.39
21
-150.013
0
LINE
8
BLACK
6
CONTINUOUS
10
119.39
20
-150.013
11
119.39
21
-150.489
0
LINE
8
BLACK
6
CONTINUOUS
10
119.39
20
-150.489
11
119.295
21
-150.679
0
LINE
8
BLACK
6
CONTINUOUS
10
119.295
20
-150.679
11
119.199
21
-150.775
0
LINE
8
BLACK
6
CONTINUOUS
10
119.199
20
-150.775
11
119.009
21
-150.87
0
LINE
8
BLACK
6
CONTINUOUS
10
119.009
20
-150.87
11
118.438
21
-150.87
0
LINE
8
BLACK
6
CONTINUOUS
10
118.438
20
-150.87
11
118.247
21
-150.775
0
LINE
8
BLACK
6
CONTINUOUS
10
118.247
20
-150.775
11
118.152
21
-150.679
0
LINE
8
BLACK
6
CONTINUOUS
10
121.295
20
-150.87
11
120.152
21
-150.87
0
LINE
8
BLACK
6
CONTINUOUS
10
120.723
20
-150.87
11
120.723
21
-148.87
0
LINE
8
BLACK
6
CONTINUOUS
10
120.723
20
-148.87
11
120.533
21
-149.156
0
LINE
8
BLACK
6
CONTINUOUS
10
120.533
20
-149.156
11
120.342
21
-149.346
0
LINE
8
BLACK
6
CONTINUOUS
10
120.342
20
-149.346
11
120.152
21
-149.441
0
LINE
8
BLACK
6
CONTINUOUS
10
123.104
20
-148.87
11
122.152
21
-148.87
0
LINE
8
BLACK
6
CONTINUOUS
10
122.152
20
-148.87
11
122.057
21
-149.822
0
LINE
8
BLACK
6
CONTINUOUS
10
122.057
20
-149.822
11
122.152
21
-149.727
0
LINE
8
BLACK
6
CONTINUOUS
10
122.152
20
-149.727
11
122.342
21
-149.632
0
LINE
8
BLACK
6
CONTINUOUS
10
122.342
20
-149.632
11
122.818
21
-149.632
0
LINE
8
BLACK
6
CONTINUOUS
10
122.818
20
-149.632
11
123.009
21
-149.727
0
LINE
8
BLACK
6
CONTINUOUS
10
123.009
20
-149.727
11
123.104
21
-149.822
0
LINE
8
BLACK
6
CONTINUOUS
10
123.104
20
-149.822
11
123.199
21
-150.013
0
LINE
8
BLACK
6
CONTINUOUS
10
123.199
20
-150.013
11
123.199
21
-150.489
0
LINE
8
BLACK
6
CONTINUOUS
10
123.199
20
-150.489
11
123.104
21
-150.679
0
LINE
8
BLACK
6
CONTINUOUS
10
123.104
20
-150.679
11
123.009
21
-150.775
0
LINE
8
BLACK
6
CONTINUOUS
10
123.009
20
-150.775
11
122.818
21
-150.87
0
LINE
8
BLACK
6
CONTINUOUS
10
122.818
20
-150.87
11
122.342
21
-150.87
0
LINE
8
BLACK
6
CONTINUOUS
10
122.342
20
-150.87
11
122.152
21
-150.775
0
LINE
8
BLACK
6
CONTINUOUS
10
122.152
20
-150.775
11
122.057
21
-150.679
0
LINE
8
BLACK
6
CONTINUOUS
10
123.961
20
-148.87
11
123.961
21
-149.251
0
LINE
8
BLACK
6
CONTINUOUS
10
124.723
20
-148.87
11
124.723
21
-149.251
0
LINE
8
BLACK
6
CONTINUOUS
10
127.676
20
-151.632
11
127.58
21
-151.537
0
LINE
8
BLACK
6
CONTINUOUS
10
127.58
20
-151.537
11
127.39
21
-151.251
0
LINE
8
BLACK
6
CONTINUOUS
10
127.39
20
-151.251
11
127.295
21
-151.06
0
LINE
8
BLACK
6
CONTINUOUS
10
127.295
20
-151.06
11
127.199
21
-150.775
0
LINE
8
BLACK
6
CONTINUOUS
10
127.199
20
-150.775
11
127.104
21
-150.298
0
LINE
8
BLACK
6
CONTINUOUS
10
127.104
20
-150.298
11
127.104
21
-149.917
0
LINE
8
BLACK
6
CONTINUOUS
10
127.104
20
-149.917
11
127.199
21
-149.441
0
LINE
8
BLACK
6
CONTINUOUS
10
127.199
20
-149.441
11
127.295
21
-149.156
0
LINE
8
BLACK
6
CONTINUOUS
10
127.295
20
-149.156
11
127.39
21
-148.965
0
LINE
8
BLACK
6
CONTINUOUS
10
127.39
20
-148.965
11
127.58
21
-148.679
0
LINE
8
BLACK
6
CONTINUOUS
10
127.58
20
-148.679
11
127.676
21
-148.584
0
LINE
8
BLACK
6
CONTINUOUS
10
128.342
20
-149.06
11
128.438
21
-148.965
0
LINE
8
BLACK
6
CONTINUOUS
10
128.438
20
-148.965
11
128.628
21
-148.87
0
LINE
8
BLACK
6
CONTINUOUS
10
128.628
20
-148.87
11
129.104
21
-148.87
0
LINE
8
BLACK
6
CONTINUOUS
10
129.104
20
-148.87
11
129.295
21
-148.965
0
LINE
8
BLACK
6
CONTINUOUS
10
129.295
20
-148.965
11
129.39
21
-149.06
0
LINE
8
BLACK
6
CONTINUOUS
10
129.39
20
-149.06
11
129.485
21
-149.251
0
LINE
8
BLACK
6
CONTINUOUS
10
129.485
20
-149.251
11
129.485
21
-149.441
0
LINE
8
BLACK
6
CONTINUOUS
10
129.485
20
-149.441
11
129.39
21
-149.727
0
LINE
8
BLACK
6
CONTINUOUS
10
129.39
20
-149.727
11
128.247
21
-150.87
0
LINE
8
BLACK
6
CONTINUOUS
10
128.247
20
-150.87
11
129.485
21
-150.87
0
LINE
8
BLACK
6
CONTINUOUS
10
131.866
20
-150.87
11
131.866
21
-148.87
0
LINE
8
BLACK
6
CONTINUOUS
10
132.723
20
-150.87
11
132.723
21
-149.822
0
LINE
8
BLACK
6
CONTINUOUS
10
132.723
20
-149.822
11
132.628
21
-149.632
0
LINE
8
BLACK
6
CONTINUOUS
10
132.628
20
-149.632
11
132.438
21
-149.537
0
LINE
8
BLACK
6
CONTINUOUS
10
132.438
20
-149.537
11
132.152
21
-149.537
0
LINE
8
BLACK
6
CONTINUOUS
10
132.152
20
-149.537
11
131.961
21
-149.632
0
LINE
8
BLACK
6
CONTINUOUS
10
131.961
20
-149.632
11
131.866
21
-149.727
0
LINE
8
BLACK
6
CONTINUOUS
10
133.961
20
-150.87
11
133.771
21
-150.775
0
LINE
8
BLACK
6
CONTINUOUS
10
133.771
20
-150.775
11
133.676
21
-150.679
0
LINE
8
BLACK
6
CONTINUOUS
10
133.676
20
-150.679
11
133.58
21
-150.489
0
LINE
8
BLACK
6
CONTINUOUS
10
133.58
20
-150.489
11
133.58
21
-149.917
0
LINE
8
BLACK
6
CONTINUOUS
10
133.58
20
-149.917
11
133.676
21
-149.727
0
LINE
8
BLACK
6
CONTINUOUS
10
133.676
20
-149.727
11
133.771
21
-149.632
0
LINE
8
BLACK
6
CONTINUOUS
10
133.771
20
-149.632
11
133.961
21
-149.537
0
LINE
8
BLACK
6
CONTINUOUS
10
133.961
20
-149.537
11
134.247
21
-149.537
0
LINE
8
BLACK
6
CONTINUOUS
10
134.247
20
-149.537
11
134.438
21
-149.632
0
LINE
8
BLACK
6
CONTINUOUS
10
134.438
20
-149.632
11
134.533
21
-149.727
0
LINE
8
BLACK
6
CONTINUOUS
10
134.533
20
-149.727
11
134.628
21
-149.917
0
LINE
8
BLACK
6
CONTINUOUS
10
134.628
20
-149.917
11
134.628
21
-150.489
0
LINE
8
BLACK
6
CONTINUOUS
10
134.628
20
-150.489
11
134.533
21
-150.679
0
LINE
8
BLACK
6
CONTINUOUS
10
134.533
20
-150.679
11
134.438
21
-150.775
0
LINE
8
BLACK
6
CONTINUOUS
10
134.438
20
-150.775
11
134.247
21
-150.87
0
LINE
8
BLACK
6
CONTINUOUS
10
134.247
20
-150.87
11
133.961
21
-150.87
0
LINE
8
BLACK
6
CONTINUOUS
10
135.771
20
-150.87
11
135.58
21
-150.775
0
LINE
8
BLACK
6
CONTINUOUS
10
135.58
20
-150.775
11
135.485
21
-150.584
0
LINE
8
BLACK
6
CONTINUOUS
10
135.485
20
-150.584
11
135.485
21
-148.87
0
LINE
8
BLACK
6
CONTINUOUS
10
137.295
20
-150.775
11
137.104
21
-150.87
0
LINE
8
BLACK
6
CONTINUOUS
10
137.104
20
-150.87
11
136.723
21
-150.87
0
LINE
8
BLACK
6
CONTINUOUS
10
136.723
20
-150.87
11
136.533
21
-150.775
0
LINE
8
BLACK
6
CONTINUOUS
10
136.533
20
-150.775
11
136.438
21
-150.584
0
LINE
8
BLACK
6
CONTINUOUS
10
136.438
20
-150.584
11
136.438
21
-149.822
0
LINE
8
BLACK
6
CONTINUOUS
10
136.438
20
-149.822
11
136.533
21
-149.632
0
LINE
8
BLACK
6
CONTINUOUS
10
136.533
20
-149.632
11
136.723
21
-149.537
0
LINE
8
BLACK
6
CONTINUOUS
10
136.723
20
-149.537
11
137.104
21
-149.537
0
LINE
8
BLACK
6
CONTINUOUS
10
137.104
20
-149.537
11
137.295
21
-149.632
0
LINE
8
BLACK
6
CONTINUOUS
10
137.295
20
-149.632
11
137.39
21
-149.822
0
LINE
8
BLACK
6
CONTINUOUS
10
137.39
20
-149.822
11
137.39
21
-150.013
0
LINE
8
BLACK
6
CONTINUOUS
10
137.39
20
-150.013
11
136.438
21
-150.203
0
LINE
8
BLACK
6
CONTINUOUS
10
138.152
20
-150.775
11
138.342
21
-150.87
0
LINE
8
BLACK
6
CONTINUOUS
10
138.342
20
-150.87
11
138.723
21
-150.87
0
LINE
8
BLACK
6
CONTINUOUS
10
138.723
20
-150.87
11
138.914
21
-150.775
0
LINE
8
BLACK
6
CONTINUOUS
10
138.914
20
-150.775
11
139.009
21
-150.584
0
LINE
8
BLACK
6
CONTINUOUS
10
139.009
20
-150.584
11
139.009
21
-150.489
0
LINE
8
BLACK
6
CONTINUOUS
10
139.009
20
-150.489
11
138.914
21
-150.298
0
LINE
8
BLACK
6
CONTINUOUS
10
138.914
20
-150.298
11
138.723
21
-150.203
0
LINE
8
BLACK
6
CONTINUOUS
10
138.723
20
-150.203
11
138.438
21
-150.203
0
LINE
8
BLACK
6
CONTINUOUS
10
138.438
20
-150.203
11
138.247
21
-150.108
0
LINE
8
BLACK
6
CONTINUOUS
10
138.247
20
-150.108
11
138.152
21
-149.917
0
LINE
8
BLACK
6
CONTINUOUS
10
138.152
20
-149.917
11
138.152
21
-149.822
0
LINE
8
BLACK
6
CONTINUOUS
10
138.152
20
-149.822
11
138.247
21
-149.632
0
LINE
8
BLACK
6
CONTINUOUS
10
138.247
20
-149.632
11
138.438
21
-149.537
0
LINE
8
BLACK
6
CONTINUOUS
10
138.438
20
-149.537
11
138.723
21
-149.537
0
LINE
8
BLACK
6
CONTINUOUS
10
138.723
20
-149.537
11
138.914
21
-149.632
0
LINE
8
BLACK
6
CONTINUOUS
10
139.676
20
-151.632
11
139.771
21
-151.537
0
LINE
8
BLACK
6
CONTINUOUS
10
139.771
20
-151.537
11
139.961
21
-151.251
0
LINE
8
BLACK
6
CONTINUOUS
10
139.961
20
-151.251
11
140.057
21
-151.06
0
LINE
8
BLACK
6
CONTINUOUS
10
140.057
20
-151.06
11
140.152
21
-150.775
0
LINE
8
BLACK
6
CONTINUOUS
10
140.152
20
-150.775
11
140.247
21
-150.298
0
LINE
8
BLACK
6
CONTINUOUS
10
140.247
20
-150.298
11
140.247
21
-149.917
0
LINE
8
BLACK
6
CONTINUOUS
10
140.247
20
-149.917
11
140.152
21
-149.441
0
LINE
8
BLACK
6
CONTINUOUS
10
140.152
20
-149.441
11
140.057
21
-149.156
0
LINE
8
BLACK
6
CONTINUOUS
10
140.057
20
-149.156
11
139.961
21
-148.965
0
LINE
8
BLACK
6
CONTINUOUS
10
139.961
20
-148.965
11
139.771
21
-148.679
0
LINE
8
BLACK
6
CONTINUOUS
10
139.771
20
-148.679
11
139.676
21
-148.584
0
LINE
8
BLACK
6
CONTINUOUS
10
91.7786
20
-152.949
11
91.7786
21
-152.241
0
LINE
8
BLACK
6
CONTINUOUS
10
91.7786
20
-152.241
11
91.0714
21
-152.241
0
LINE
8
BLACK
6
CONTINUOUS
10
91.0714
20
-152.241
11
91.0714
21
-152.949
0
LINE
8
BLACK
6
CONTINUOUS
10
91.0714
20
-152.949
11
91.7786
21
-152.949
0
LINE
8
BLACK
6
CONTINUOUS
10
95.5804
20
-153.51
11
94.4375
21
-153.51
0
LINE
8
BLACK
6
CONTINUOUS
10
95.009
20
-153.51
11
95.009
21
-151.51
0
LINE
8
BLACK
6
CONTINUOUS
10
95.009
20
-151.51
11
94.8185
21
-151.796
0
LINE
8
BLACK
6
CONTINUOUS
10
94.8185
20
-151.796
11
94.628
21
-151.986
0
LINE
8
BLACK
6
CONTINUOUS
10
94.628
20
-151.986
11
94.4375
21
-152.081
0
LINE
8
BLACK
6
CONTINUOUS
10
96.4375
20
-153.319
11
96.5328
21
-153.415
0
LINE
8
BLACK
6
CONTINUOUS
10
96.5328
20
-153.415
11
96.4375
21
-153.51
0
LINE
8
BLACK
6
CONTINUOUS
10
96.4375
20
-153.51
11
96.3423
21
-153.415
0
LINE
8
BLACK
6
CONTINUOUS
10
96.3423
20
-153.415
11
96.4375
21
-153.319
0
LINE
8
BLACK
6
CONTINUOUS
10
96.4375
20
-153.319
11
96.4375
21
-153.51
0
LINE
8
BLACK
6
CONTINUOUS
10
97.7709
20
-151.51
11
97.9613
21
-151.51
0
LINE
8
BLACK
6
CONTINUOUS
10
97.9613
20
-151.51
11
98.1518
21
-151.605
0
LINE
8
BLACK
6
CONTINUOUS
10
98.1518
20
-151.605
11
98.2471
21
-151.7
0
LINE
8
BLACK
6
CONTINUOUS
10
98.2471
20
-151.7
11
98.3423
21
-151.891
0
LINE
8
BLACK
6
CONTINUOUS
10
98.3423
20
-151.891
11
98.4375
21
-152.272
0
LINE
8
BLACK
6
CONTINUOUS
10
98.4375
20
-152.272
11
98.4375
21
-152.748
0
LINE
8
BLACK
6
CONTINUOUS
10
98.4375
20
-152.748
11
98.3423
21
-153.129
0
LINE
8
BLACK
6
CONTINUOUS
10
98.3423
20
-153.129
11
98.2471
21
-153.319
0
LINE
8
BLACK
6
CONTINUOUS
10
98.2471
20
-153.319
11
98.1518
21
-153.415
0
LINE
8
BLACK
6
CONTINUOUS
10
98.1518
20
-153.415
11
97.9613
21
-153.51
0
LINE
8
BLACK
6
CONTINUOUS
10
97.9613
20
-153.51
11
97.7709
21
-153.51
0
LINE
8
BLACK
6
CONTINUOUS
10
97.7709
20
-153.51
11
97.5804
21
-153.415
0
LINE
8
BLACK
6
CONTINUOUS
10
97.5804
20
-153.415
11
97.4851
21
-153.319
0
LINE
8
BLACK
6
CONTINUOUS
10
97.4851
20
-153.319
11
97.3899
21
-153.129
0
LINE
8
BLACK
6
CONTINUOUS
10
97.3899
20
-153.129
11
97.2947
21
-152.748
0
LINE
8
BLACK
6
CONTINUOUS
10
97.2947
20
-152.748
11
97.2947
21
-152.272
0
LINE
8
BLACK
6
CONTINUOUS
10
97.2947
20
-152.272
11
97.3899
21
-151.891
0
LINE
8
BLACK
6
CONTINUOUS
10
97.3899
20
-151.891
11
97.4851
21
-151.7
0
LINE
8
BLACK
6
CONTINUOUS
10
97.4851
20
-151.7
11
97.5804
21
-151.605
0
LINE
8
BLACK
6
CONTINUOUS
10
97.5804
20
-151.605
11
97.7709
21
-151.51
0
LINE
8
BLACK
6
CONTINUOUS
10
99.6756
20
-151.51
11
99.8661
21
-151.51
0
LINE
8
BLACK
6
CONTINUOUS
10
99.8661
20
-151.51
11
100.057
21
-151.605
0
LINE
8
BLACK
6
CONTINUOUS
10
100.057
20
-151.605
11
100.152
21
-151.7
0
LINE
8
BLACK
6
CONTINUOUS
10
100.152
20
-151.7
11
100.247
21
-151.891
0
LINE
8
BLACK
6
CONTINUOUS
10
100.247
20
-151.891
11
100.342
21
-152.272
0
LINE
8
BLACK
6
CONTINUOUS
10
100.342
20
-152.272
11
100.342
21
-152.748
0
LINE
8
BLACK
6
CONTINUOUS
10
100.342
20
-152.748
11
100.247
21
-153.129
0
LINE
8
BLACK
6
CONTINUOUS
10
100.247
20
-153.129
11
100.152
21
-153.319
0
LINE
8
BLACK
6
CONTINUOUS
10
100.152
20
-153.319
11
100.057
21
-153.415
0
LINE
8
BLACK
6
CONTINUOUS
10
100.057
20
-153.415
11
99.8661
21
-153.51
0
LINE
8
BLACK
6
CONTINUOUS
10
99.8661
20
-153.51
11
99.6756
21
-153.51
0
LINE
8
BLACK
6
CONTINUOUS
10
99.6756
20
-153.51
11
99.4851
21
-153.415
0
LINE
8
BLACK
6
CONTINUOUS
10
99.4851
20
-153.415
11
99.3899
21
-153.319
0
LINE
8
BLACK
6
CONTINUOUS
10
99.3899
20
-153.319
11
99.2947
21
-153.129
0
LINE
8
BLACK
6
CONTINUOUS
10
99.2947
20
-153.129
11
99.1994
21
-152.748
0
LINE
8
BLACK
6
CONTINUOUS
10
99.1994
20
-152.748
11
99.1994
21
-152.272
0
LINE
8
BLACK
6
CONTINUOUS
10
99.1994
20
-152.272
11
99.2947
21
-151.891
0
LINE
8
BLACK
6
CONTINUOUS
10
99.2947
20
-151.891
11
99.3899
21
-151.7
0
LINE
8
BLACK
6
CONTINUOUS
10
99.3899
20
-151.7
11
99.4851
21
-151.605
0
LINE
8
BLACK
6
CONTINUOUS
10
99.4851
20
-151.605
11
99.6756
21
-151.51
0
LINE
8
BLACK
6
CONTINUOUS
10
101.58
20
-151.51
11
101.771
21
-151.51
0
LINE
8
BLACK
6
CONTINUOUS
10
101.771
20
-151.51
11
101.961
21
-151.605
0
LINE
8
BLACK
6
CONTINUOUS
10
101.961
20
-151.605
11
102.057
21
-151.7
0
LINE
8
BLACK
6
CONTINUOUS
10
102.057
20
-151.7
11
102.152
21
-151.891
0
LINE
8
BLACK
6
CONTINUOUS
10
102.152
20
-151.891
11
102.247
21
-152.272
0
LINE
8
BLACK
6
CONTINUOUS
10
102.247
20
-152.272
11
102.247
21
-152.748
0
LINE
8
BLACK
6
CONTINUOUS
10
102.247
20
-152.748
11
102.152
21
-153.129
0
LINE
8
BLACK
6
CONTINUOUS
10
102.152
20
-153.129
11
102.057
21
-153.319
0
LINE
8
BLACK
6
CONTINUOUS
10
102.057
20
-153.319
11
101.961
21
-153.415
0
LINE
8
BLACK
6
CONTINUOUS
10
101.961
20
-153.415
11
101.771
21
-153.51
0
LINE
8
BLACK
6
CONTINUOUS
10
101.771
20
-153.51
11
101.58
21
-153.51
0
LINE
8
BLACK
6
CONTINUOUS
10
101.58
20
-153.51
11
101.39
21
-153.415
0
LINE
8
BLACK
6
CONTINUOUS
10
101.39
20
-153.415
11
101.295
21
-153.319
0
LINE
8
BLACK
6
CONTINUOUS
10
101.295
20
-153.319
11
101.199
21
-153.129
0
LINE
8
BLACK
6
CONTINUOUS
10
101.199
20
-153.129
11
101.104
21
-152.748
0
LINE
8
BLACK
6
CONTINUOUS
10
101.104
20
-152.748
11
101.104
21
-152.272
0
LINE
8
BLACK
6
CONTINUOUS
10
101.104
20
-152.272
11
101.199
21
-151.891
0
LINE
8
BLACK
6
CONTINUOUS
10
101.199
20
-151.891
11
101.295
21
-151.7
0
LINE
8
BLACK
6
CONTINUOUS
10
101.295
20
-151.7
11
101.39
21
-151.605
0
LINE
8
BLACK
6
CONTINUOUS
10
101.39
20
-151.605
11
101.58
21
-151.51
0
LINE
8
BLACK
6
CONTINUOUS
10
103.104
20
-153.51
11
103.104
21
-152.177
0
LINE
8
BLACK
6
CONTINUOUS
10
103.104
20
-152.367
11
103.199
21
-152.272
0
LINE
8
BLACK
6
CONTINUOUS
10
103.199
20
-152.272
11
103.39
21
-152.177
0
LINE
8
BLACK
6
CONTINUOUS
10
103.39
20
-152.177
11
103.676
21
-152.177
0
LINE
8
BLACK
6
CONTINUOUS
10
103.676
20
-152.177
11
103.866
21
-152.272
0
LINE
8
BLACK
6
CONTINUOUS
10
103.866
20
-152.272
11
103.961
21
-152.462
0
LINE
8
BLACK
6
CONTINUOUS
10
103.961
20
-152.462
11
103.961
21
-153.51
0
LINE
8
BLACK
6
CONTINUOUS
10
103.961
20
-152.462
11
104.057
21
-152.272
0
LINE
8
BLACK
6
CONTINUOUS
10
104.057
20
-152.272
11
104.247
21
-152.177
0
LINE
8
BLACK
6
CONTINUOUS
10
104.247
20
-152.177
11
104.533
21
-152.177
0
LINE
8
BLACK
6
CONTINUOUS
10
104.533
20
-152.177
11
104.723
21
-152.272
0
LINE
8
BLACK
6
CONTINUOUS
10
104.723
20
-152.272
11
104.818
21
-152.462
0
LINE
8
BLACK
6
CONTINUOUS
10
104.818
20
-152.462
11
104.818
21
-153.51
0
LINE
8
BLACK
6
CONTINUOUS
10
105.771
20
-153.51
11
105.771
21
-152.177
0
LINE
8
BLACK
6
CONTINUOUS
10
105.771
20
-152.367
11
105.866
21
-152.272
0
LINE
8
BLACK
6
CONTINUOUS
10
105.866
20
-152.272
11
106.057
21
-152.177
0
LINE
8
BLACK
6
CONTINUOUS
10
106.057
20
-152.177
11
106.342
21
-152.177
0
LINE
8
BLACK
6
CONTINUOUS
10
106.342
20
-152.177
11
106.533
21
-152.272
0
LINE
8
BLACK
6
CONTINUOUS
10
106.533
20
-152.272
11
106.628
21
-152.462
0
LINE
8
BLACK
6
CONTINUOUS
10
106.628
20
-152.462
11
106.628
21
-153.51
0
LINE
8
BLACK
6
CONTINUOUS
10
106.628
20
-152.462
11
106.723
21
-152.272
0
LINE
8
BLACK
6
CONTINUOUS
10
106.723
20
-152.272
11
106.914
21
-152.177
0
LINE
8
BLACK
6
CONTINUOUS
10
106.914
20
-152.177
11
107.199
21
-152.177
0
LINE
8
BLACK
6
CONTINUOUS
10
107.199
20
-152.177
11
107.39
21
-152.272
0
LINE
8
BLACK
6
CONTINUOUS
10
107.39
20
-152.272
11
107.485
21
-152.462
0
LINE
8
BLACK
6
CONTINUOUS
10
107.485
20
-152.462
11
107.485
21
-153.51
0
LINE
8
BLACK
6
CONTINUOUS
10
111.39
20
-151.415
11
109.676
21
-153.986
0
LINE
8
BLACK
6
CONTINUOUS
10
113.961
20
-151.51
11
114.152
21
-151.51
0
LINE
8
BLACK
6
CONTINUOUS
10
114.152
20
-151.51
11
114.342
21
-151.605
0
LINE
8
BLACK
6
CONTINUOUS
10
114.342
20
-151.605
11
114.438
21
-151.7
0
LINE
8
BLACK
6
CONTINUOUS
10
114.438
20
-151.7
11
114.533
21
-151.891
0
LINE
8
BLACK
6
CONTINUOUS
10
114.533
20
-151.891
11
114.628
21
-152.272
0
LINE
8
BLACK
6
CONTINUOUS
10
114.628
20
-152.272
11
114.628
21
-152.748
0
LINE
8
BLACK
6
CONTINUOUS
10
114.628
20
-152.748
11
114.533
21
-153.129
0
LINE
8
BLACK
6
CONTINUOUS
10
114.533
20
-153.129
11
114.438
21
-153.319
0
LINE
8
BLACK
6
CONTINUOUS
10
114.438
20
-153.319
11
114.342
21
-153.415
0
LINE
8
BLACK
6
CONTINUOUS
10
114.342
20
-153.415
11
114.152
21
-153.51
0
LINE
8
BLACK
6
CONTINUOUS
10
114.152
20
-153.51
11
113.961
21
-153.51
0
LINE
8
BLACK
6
CONTINUOUS
10
113.961
20
-153.51
11
113.771
21
-153.415
0
LINE
8
BLACK
6
CONTINUOUS
10
113.771
20
-153.415
11
113.676
21
-153.319
0
LINE
8
BLACK
6
CONTINUOUS
10
113.676
20
-153.319
11
113.58
21
-153.129
0
LINE
8
BLACK
6
CONTINUOUS
10
113.58
20
-153.129
11
113.485
21
-152.748
0
LINE
8
BLACK
6
CONTINUOUS
10
113.485
20
-152.748
11
113.485
21
-152.272
0
LINE
8
BLACK
6
CONTINUOUS
10
113.485
20
-152.272
11
113.58
21
-151.891
0
LINE
8
BLACK
6
CONTINUOUS
10
113.58
20
-151.891
11
113.676
21
-151.7
0
LINE
8
BLACK
6
CONTINUOUS
10
113.676
20
-151.7
11
113.771
21
-151.605
0
LINE
8
BLACK
6
CONTINUOUS
10
113.771
20
-151.605
11
113.961
21
-151.51
0
LINE
8
BLACK
6
CONTINUOUS
10
115.485
20
-153.319
11
115.58
21
-153.415
0
LINE
8
BLACK
6
CONTINUOUS
10
115.58
20
-153.415
11
115.485
21
-153.51
0
LINE
8
BLACK
6
CONTINUOUS
10
115.485
20
-153.51
11
115.39
21
-153.415
0
LINE
8
BLACK
6
CONTINUOUS
10
115.39
20
-153.415
11
115.485
21
-153.319
0
LINE
8
BLACK
6
CONTINUOUS
10
115.485
20
-153.319
11
115.485
21
-153.51
0
LINE
8
BLACK
6
CONTINUOUS
10
116.818
20
-151.51
11
117.009
21
-151.51
0
LINE
8
BLACK
6
CONTINUOUS
10
117.009
20
-151.51
11
117.199
21
-151.605
0
LINE
8
BLACK
6
CONTINUOUS
10
117.199
20
-151.605
11
117.295
21
-151.7
0
LINE
8
BLACK
6
CONTINUOUS
10
117.295
20
-151.7
11
117.39
21
-151.891
0
LINE
8
BLACK
6
CONTINUOUS
10
117.39
20
-151.891
11
117.485
21
-152.272
0
LINE
8
BLACK
6
CONTINUOUS
10
117.485
20
-152.272
11
117.485
21
-152.748
0
LINE
8
BLACK
6
CONTINUOUS
10
117.485
20
-152.748
11
117.39
21
-153.129
0
LINE
8
BLACK
6
CONTINUOUS
10
117.39
20
-153.129
11
117.295
21
-153.319
0
LINE
8
BLACK
6
CONTINUOUS
10
117.295
20
-153.319
11
117.199
21
-153.415
0
LINE
8
BLACK
6
CONTINUOUS
10
117.199
20
-153.415
11
117.009
21
-153.51
0
LINE
8
BLACK
6
CONTINUOUS
10
117.009
20
-153.51
11
116.818
21
-153.51
0
LINE
8
BLACK
6
CONTINUOUS
10
116.818
20
-153.51
11
116.628
21
-153.415
0
LINE
8
BLACK
6
CONTINUOUS
10
116.628
20
-153.415
11
116.533
21
-153.319
0
LINE
8
BLACK
6
CONTINUOUS
10
116.533
20
-153.319
11
116.438
21
-153.129
0
LINE
8
BLACK
6
CONTINUOUS
10
116.438
20
-153.129
11
116.342
21
-152.748
0
LINE
8
BLACK
6
CONTINUOUS
10
116.342
20
-152.748
11
116.342
21
-152.272
0
LINE
8
BLACK
6
CONTINUOUS
10
116.342
20
-152.272
11
116.438
21
-151.891
0
LINE
8
BLACK
6
CONTINUOUS
10
116.438
20
-151.891
11
116.533
21
-151.7
0
LINE
8
BLACK
6
CONTINUOUS
10
116.533
20
-151.7
11
116.628
21
-151.605
0
LINE
8
BLACK
6
CONTINUOUS
10
116.628
20
-151.605
11
116.818
21
-151.51
0
LINE
8
BLACK
6
CONTINUOUS
10
118.152
20
-151.51
11
119.39
21
-151.51
0
LINE
8
BLACK
6
CONTINUOUS
10
119.39
20
-151.51
11
118.723
21
-152.272
0
LINE
8
BLACK
6
CONTINUOUS
10
118.723
20
-152.272
11
119.009
21
-152.272
0
LINE
8
BLACK
6
CONTINUOUS
10
119.009
20
-152.272
11
119.199
21
-152.367
0
LINE
8
BLACK
6
CONTINUOUS
10
119.199
20
-152.367
11
119.295
21
-152.462
0
LINE
8
BLACK
6
CONTINUOUS
10
119.295
20
-152.462
11
119.39
21
-152.653
0
LINE
8
BLACK
6
CONTINUOUS
10
119.39
20
-152.653
11
119.39
21
-153.129
0
LINE
8
BLACK
6
CONTINUOUS
10
119.39
20
-153.129
11
119.295
21
-153.319
0
LINE
8
BLACK
6
CONTINUOUS
10
119.295
20
-153.319
11
119.199
21
-153.415
0
LINE
8
BLACK
6
CONTINUOUS
10
119.199
20
-153.415
11
119.009
21
-153.51
0
LINE
8
BLACK
6
CONTINUOUS
10
119.009
20
-153.51
11
118.438
21
-153.51
0
LINE
8
BLACK
6
CONTINUOUS
10
118.438
20
-153.51
11
118.247
21
-153.415
0
LINE
8
BLACK
6
CONTINUOUS
10
118.247
20
-153.415
11
118.152
21
-153.319
0
LINE
8
BLACK
6
CONTINUOUS
10
120.342
20
-153.51
11
120.723
21
-153.51
0
LINE
8
BLACK
6
CONTINUOUS
10
120.723
20
-153.51
11
120.914
21
-153.415
0
LINE
8
BLACK
6
CONTINUOUS
10
120.914
20
-153.415
11
121.009
21
-153.319
0
LINE
8
BLACK
6
CONTINUOUS
10
121.009
20
-153.319
11
121.199
21
-153.034
0
LINE
8
BLACK
6
CONTINUOUS
10
121.199
20
-153.034
11
121.295
21
-152.653
0
LINE
8
BLACK
6
CONTINUOUS
10
121.295
20
-152.653
11
121.295
21
-151.891
0
LINE
8
BLACK
6
CONTINUOUS
10
121.295
20
-151.891
11
121.199
21
-151.7
0
LINE
8
BLACK
6
CONTINUOUS
10
121.199
20
-151.7
11
121.104
21
-151.605
0
LINE
8
BLACK
6
CONTINUOUS
10
121.104
20
-151.605
11
120.914
21
-151.51
0
LINE
8
BLACK
6
CONTINUOUS
10
120.914
20
-151.51
11
120.533
21
-151.51
0
LINE
8
BLACK
6
CONTINUOUS
10
120.533
20
-151.51
11
120.342
21
-151.605
0
LINE
8
BLACK
6
CONTINUOUS
10
120.342
20
-151.605
11
120.247
21
-151.7
0
LINE
8
BLACK
6
CONTINUOUS
10
120.247
20
-151.7
11
120.152
21
-151.891
0
LINE
8
BLACK
6
CONTINUOUS
10
120.152
20
-151.891
11
120.152
21
-152.367
0
LINE
8
BLACK
6
CONTINUOUS
10
120.152
20
-152.367
11
120.247
21
-152.557
0
LINE
8
BLACK
6
CONTINUOUS
10
120.247
20
-152.557
11
120.342
21
-152.653
0
LINE
8
BLACK
6
CONTINUOUS
10
120.342
20
-152.653
11
120.533
21
-152.748
0
LINE
8
BLACK
6
CONTINUOUS
10
120.533
20
-152.748
11
120.914
21
-152.748
0
LINE
8
BLACK
6
CONTINUOUS
10
120.914
20
-152.748
11
121.104
21
-152.653
0
LINE
8
BLACK
6
CONTINUOUS
10
121.104
20
-152.653
11
121.199
21
-152.557
0
LINE
8
BLACK
6
CONTINUOUS
10
121.199
20
-152.557
11
121.295
21
-152.367
0
LINE
8
BLACK
6
CONTINUOUS
10
123.009
20
-152.177
11
123.009
21
-153.51
0
LINE
8
BLACK
6
CONTINUOUS
10
122.533
20
-151.415
11
122.057
21
-152.843
0
LINE
8
BLACK
6
CONTINUOUS
10
122.057
20
-152.843
11
123.295
21
-152.843
0
LINE
8
BLACK
6
CONTINUOUS
10
123.961
20
-151.51
11
123.961
21
-151.891
0
LINE
8
BLACK
6
CONTINUOUS
10
124.723
20
-151.51
11
124.723
21
-151.891
0
LINE
8
BLACK
6
CONTINUOUS
10
127.676
20
-154.272
11
127.58
21
-154.177
0
LINE
8
BLACK
6
CONTINUOUS
10
127.58
20
-154.177
11
127.39
21
-153.891
0
LINE
8
BLACK
6
CONTINUOUS
10
127.39
20
-153.891
11
127.295
21
-153.7
0
LINE
8
BLACK
6
CONTINUOUS
10
127.295
20
-153.7
11
127.199
21
-153.415
0
LINE
8
BLACK
6
CONTINUOUS
10
127.199
20
-153.415
11
127.104
21
-152.938
0
LINE
8
BLACK
6
CONTINUOUS
10
127.104
20
-152.938
11
127.104
21
-152.557
0
LINE
8
BLACK
6
CONTINUOUS
10
127.104
20
-152.557
11
127.199
21
-152.081
0
LINE
8
BLACK
6
CONTINUOUS
10
127.199
20
-152.081
11
127.295
21
-151.796
0
LINE
8
BLACK
6
CONTINUOUS
10
127.295
20
-151.796
11
127.39
21
-151.605
0
LINE
8
BLACK
6
CONTINUOUS
10
127.39
20
-151.605
11
127.58
21
-151.319
0
LINE
8
BLACK
6
CONTINUOUS
10
127.58
20
-151.319
11
127.676
21
-151.224
0
LINE
8
BLACK
6
CONTINUOUS
10
128.247
20
-151.51
11
129.485
21
-151.51
0
LINE
8
BLACK
6
CONTINUOUS
10
129.485
20
-151.51
11
128.818
21
-152.272
0
LINE
8
BLACK
6
CONTINUOUS
10
128.818
20
-152.272
11
129.104
21
-152.272
0
LINE
8
BLACK
6
CONTINUOUS
10
129.104
20
-152.272
11
129.295
21
-152.367
0
LINE
8
BLACK
6
CONTINUOUS
10
129.295
20
-152.367
11
129.39
21
-152.462
0
LINE
8
BLACK
6
CONTINUOUS
10
129.39
20
-152.462
11
129.485
21
-152.653
0
LINE
8
BLACK
6
CONTINUOUS
10
129.485
20
-152.653
11
129.485
21
-153.129
0
LINE
8
BLACK
6
CONTINUOUS
10
129.485
20
-153.129
11
129.39
21
-153.319
0
LINE
8
BLACK
6
CONTINUOUS
10
129.39
20
-153.319
11
129.295
21
-153.415
0
LINE
8
BLACK
6
CONTINUOUS
10
129.295
20
-153.415
11
129.104
21
-153.51
0
LINE
8
BLACK
6
CONTINUOUS
10
129.104
20
-153.51
11
128.533
21
-153.51
0
LINE
8
BLACK
6
CONTINUOUS
10
128.533
20
-153.51
11
128.342
21
-153.415
0
LINE
8
BLACK
6
CONTINUOUS
10
128.342
20
-153.415
11
128.247
21
-153.319
0
LINE
8
BLACK
6
CONTINUOUS
10
130.152
20
-151.51
11
131.485
21
-151.51
0
LINE
8
BLACK
6
CONTINUOUS
10
131.485
20
-151.51
11
130.628
21
-153.51
0
LINE
8
BLACK
6
CONTINUOUS
10
133.771
20
-153.51
11
133.771
21
-151.51
0
LINE
8
BLACK
6
CONTINUOUS
10
134.628
20
-153.51
11
134.628
21
-152.462
0
LINE
8
BLACK
6
CONTINUOUS
10
134.628
20
-152.462
11
134.533
21
-152.272
0
LINE
8
BLACK
6
CONTINUOUS
10
134.533
20
-152.272
11
134.342
21
-152.177
0
LINE
8
BLACK
6
CONTINUOUS
10
134.342
20
-152.177
11
134.057
21
-152.177
0
LINE
8
BLACK
6
CONTINUOUS
10
134.057
20
-152.177
11
133.866
21
-152.272
0
LINE
8
BLACK
6
CONTINUOUS
10
133.866
20
-152.272
11
133.771
21
-152.367
0
LINE
8
BLACK
6
CONTINUOUS
10
135.866
20
-153.51
11
135.676
21
-153.415
0
LINE
8
BLACK
6
CONTINUOUS
10
135.676
20
-153.415
11
135.58
21
-153.319
0
LINE
8
BLACK
6
CONTINUOUS
10
135.58
20
-153.319
11
135.485
21
-153.129
0
LINE
8
BLACK
6
CONTINUOUS
10
135.485
20
-153.129
11
135.485
21
-152.557
0
LINE
8
BLACK
6
CONTINUOUS
10
135.485
20
-152.557
11
135.58
21
-152.367
0
LINE
8
BLACK
6
CONTINUOUS
10
135.58
20
-152.367
11
135.676
21
-152.272
0
LINE
8
BLACK
6
CONTINUOUS
10
135.676
20
-152.272
11
135.866
21
-152.177
0
LINE
8
BLACK
6
CONTINUOUS
10
135.866
20
-152.177
11
136.152
21
-152.177
0
LINE
8
BLACK
6
CONTINUOUS
10
136.152
20
-152.177
11
136.342
21
-152.272
0
LINE
8
BLACK
6
CONTINUOUS
10
136.342
20
-152.272
11
136.438
21
-152.367
0
LINE
8
BLACK
6
CONTINUOUS
10
136.438
20
-152.367
11
136.533
21
-152.557
0
LINE
8
BLACK
6
CONTINUOUS
10
136.533
20
-152.557
11
136.533
21
-153.129
0
LINE
8
BLACK
6
CONTINUOUS
10
136.533
20
-153.129
11
136.438
21
-153.319
0
LINE
8
BLACK
6
CONTINUOUS
10
136.438
20
-153.319
11
136.342
21
-153.415
0
LINE
8
BLACK
6
CONTINUOUS
10
136.342
20
-153.415
11
136.152
21
-153.51
0
LINE
8
BLACK
6
CONTINUOUS
10
136.152
20
-153.51
11
135.866
21
-153.51
0
LINE
8
BLACK
6
CONTINUOUS
10
137.676
20
-153.51
11
137.485
21
-153.415
0
LINE
8
BLACK
6
CONTINUOUS
10
137.485
20
-153.415
11
137.39
21
-153.224
0
LINE
8
BLACK
6
CONTINUOUS
10
137.39
20
-153.224
11
137.39
21
-151.51
0
LINE
8
BLACK
6
CONTINUOUS
10
139.199
20
-153.415
11
139.009
21
-153.51
0
LINE
8
BLACK
6
CONTINUOUS
10
139.009
20
-153.51
11
138.628
21
-153.51
0
LINE
8
BLACK
6
CONTINUOUS
10
138.628
20
-153.51
11
138.438
21
-153.415
0
LINE
8
BLACK
6
CONTINUOUS
10
138.438
20
-153.415
11
138.342
21
-153.224
0
LINE
8
BLACK
6
CONTINUOUS
10
138.342
20
-153.224
11
138.342
21
-152.462
0
LINE
8
BLACK
6
CONTINUOUS
10
138.342
20
-152.462
11
138.438
21
-152.272
0
LINE
8
BLACK
6
CONTINUOUS
10
138.438
20
-152.272
11
138.628
21
-152.177
0
LINE
8
BLACK
6
CONTINUOUS
10
138.628
20
-152.177
11
139.009
21
-152.177
0
LINE
8
BLACK
6
CONTINUOUS
10
139.009
20
-152.177
11
139.199
21
-152.272
0
LINE
8
BLACK
6
CONTINUOUS
10
139.199
20
-152.272
11
139.295
21
-152.462
0
LINE
8
BLACK
6
CONTINUOUS
10
139.295
20
-152.462
11
139.295
21
-152.653
0
LINE
8
BLACK
6
CONTINUOUS
10
139.295
20
-152.653
11
138.342
21
-152.843
0
LINE
8
BLACK
6
CONTINUOUS
10
140.057
20
-153.415
11
140.247
21
-153.51
0
LINE
8
BLACK
6
CONTINUOUS
10
140.247
20
-153.51
11
140.628
21
-153.51
0
LINE
8
BLACK
6
CONTINUOUS
10
140.628
20
-153.51
11
140.818
21
-153.415
0
LINE
8
BLACK
6
CONTINUOUS
10
140.818
20
-153.415
11
140.914
21
-153.224
0
LINE
8
BLACK
6
CONTINUOUS
10
140.914
20
-153.224
11
140.914
21
-153.129
0
LINE
8
BLACK
6
CONTINUOUS
10
140.914
20
-153.129
11
140.818
21
-152.938
0
LINE
8
BLACK
6
CONTINUOUS
10
140.818
20
-152.938
11
140.628
21
-152.843
0
LINE
8
BLACK
6
CONTINUOUS
10
140.628
20
-152.843
11
140.342
21
-152.843
0
LINE
8
BLACK
6
CONTINUOUS
10
140.342
20
-152.843
11
140.152
21
-152.748
0
LINE
8
BLACK
6
CONTINUOUS
10
140.152
20
-152.748
11
140.057
21
-152.557
0
LINE
8
BLACK
6
CONTINUOUS
10
140.057
20
-152.557
11
140.057
21
-152.462
0
LINE
8
BLACK
6
CONTINUOUS
10
140.057
20
-152.462
11
140.152
21
-152.272
0
LINE
8
BLACK
6
CONTINUOUS
10
140.152
20
-152.272
11
140.342
21
-152.177
0
LINE
8
BLACK
6
CONTINUOUS
10
140.342
20
-152.177
11
140.628
21
-152.177
0
LINE
8
BLACK
6
CONTINUOUS
10
140.628
20
-152.177
11
140.818
21
-152.272
0
LINE
8
BLACK
6
CONTINUOUS
10
141.58
20
-154.272
11
141.676
21
-154.177
0
LINE
8
BLACK
6
CONTINUOUS
10
141.676
20
-154.177
11
141.866
21
-153.891
0
LINE
8
BLACK
6
CONTINUOUS
10
141.866
20
-153.891
11
141.961
21
-153.7
0
LINE
8
BLACK
6
CONTINUOUS
10
141.961
20
-153.7
11
142.057
21
-153.415
0
LINE
8
BLACK
6
CONTINUOUS
10
142.057
20
-153.415
11
142.152
21
-152.938
0
LINE
8
BLACK
6
CONTINUOUS
10
142.152
20
-152.938
11
142.152
21
-152.557
0
LINE
8
BLACK
6
CONTINUOUS
10
142.152
20
-152.557
11
142.057
21
-152.081
0
LINE
8
BLACK
6
CONTINUOUS
10
142.057
20
-152.081
11
141.961
21
-151.796
0
LINE
8
BLACK
6
CONTINUOUS
10
141.961
20
-151.796
11
141.866
21
-151.605
0
LINE
8
BLACK
6
CONTINUOUS
10
141.866
20
-151.605
11
141.676
21
-151.319
0
LINE
8
BLACK
6
CONTINUOUS
10
141.676
20
-151.319
11
141.58
21
-151.224
0
LINE
8
BLACK
6
CONTINUOUS
10
91.375
20
-155.785
11
91.925
21
-155.235
0
LINE
8
BLACK
6
CONTINUOUS
10
91.925
20
-155.235
11
91.375
21
-154.685
0
LINE
8
BLACK
6
CONTINUOUS
10
91.375
20
-154.685
11
90.825
21
-155.235
0
LINE
8
BLACK
6
CONTINUOUS
10
90.825
20
-155.235
11
91.375
21
-155.785
0
LINE
8
BLACK
6
CONTINUOUS
10
95.5804
20
-156.15
11
94.4375
21
-156.15
0
LINE
8
BLACK
6
CONTINUOUS
10
95.009
20
-156.15
11
95.009
21
-154.15
0
LINE
8
BLACK
6
CONTINUOUS
10
95.009
20
-154.15
11
94.8185
21
-154.436
0
LINE
8
BLACK
6
CONTINUOUS
10
94.8185
20
-154.436
11
94.628
21
-154.626
0
LINE
8
BLACK
6
CONTINUOUS
10
94.628
20
-154.626
11
94.4375
21
-154.721
0
LINE
8
BLACK
6
CONTINUOUS
10
96.4375
20
-155.959
11
96.5328
21
-156.055
0
LINE
8
BLACK
6
CONTINUOUS
10
96.5328
20
-156.055
11
96.4375
21
-156.15
0
LINE
8
BLACK
6
CONTINUOUS
10
96.4375
20
-156.15
11
96.3423
21
-156.055
0
LINE
8
BLACK
6
CONTINUOUS
10
96.3423
20
-156.055
11
96.4375
21
-155.959
0
LINE
8
BLACK
6
CONTINUOUS
10
96.4375
20
-155.959
11
96.4375
21
-156.15
0
LINE
8
BLACK
6
CONTINUOUS
10
98.4375
20
-156.15
11
97.2947
21
-156.15
0
LINE
8
BLACK
6
CONTINUOUS
10
97.8661
20
-156.15
11
97.8661
21
-154.15
0
LINE
8
BLACK
6
CONTINUOUS
10
97.8661
20
-154.15
11
97.6756
21
-154.436
0
LINE
8
BLACK
6
CONTINUOUS
10
97.6756
20
-154.436
11
97.4851
21
-154.626
0
LINE
8
BLACK
6
CONTINUOUS
10
97.4851
20
-154.626
11
97.2947
21
-154.721
0
LINE
8
BLACK
6
CONTINUOUS
10
99.6756
20
-154.15
11
99.8661
21
-154.15
0
LINE
8
BLACK
6
CONTINUOUS
10
99.8661
20
-154.15
11
100.057
21
-154.245
0
LINE
8
BLACK
6
CONTINUOUS
10
100.057
20
-154.245
11
100.152
21
-154.34
0
LINE
8
BLACK
6
CONTINUOUS
10
100.152
20
-154.34
11
100.247
21
-154.531
0
LINE
8
BLACK
6
CONTINUOUS
10
100.247
20
-154.531
11
100.342
21
-154.912
0
LINE
8
BLACK
6
CONTINUOUS
10
100.342
20
-154.912
11
100.342
21
-155.388
0
LINE
8
BLACK
6
CONTINUOUS
10
100.342
20
-155.388
11
100.247
21
-155.769
0
LINE
8
BLACK
6
CONTINUOUS
10
100.247
20
-155.769
11
100.152
21
-155.959
0
LINE
8
BLACK
6
CONTINUOUS
10
100.152
20
-155.959
11
100.057
21
-156.055
0
LINE
8
BLACK
6
CONTINUOUS
10
100.057
20
-156.055
11
99.8661
21
-156.15
0
LINE
8
BLACK
6
CONTINUOUS
10
99.8661
20
-156.15
11
99.6756
21
-156.15
0
LINE
8
BLACK
6
CONTINUOUS
10
99.6756
20
-156.15
11
99.4851
21
-156.055
0
LINE
8
BLACK
6
CONTINUOUS
10
99.4851
20
-156.055
11
99.3899
21
-155.959
0
LINE
8
BLACK
6
CONTINUOUS
10
99.3899
20
-155.959
11
99.2947
21
-155.769
0
LINE
8
BLACK
6
CONTINUOUS
10
99.2947
20
-155.769
11
99.1994
21
-155.388
0
LINE
8
BLACK
6
CONTINUOUS
10
99.1994
20
-155.388
11
99.1994
21
-154.912
0
LINE
8
BLACK
6
CONTINUOUS
10
99.1994
20
-154.912
11
99.2947
21
-154.531
0
LINE
8
BLACK
6
CONTINUOUS
10
99.2947
20
-154.531
11
99.3899
21
-154.34
0
LINE
8
BLACK
6
CONTINUOUS
10
99.3899
20
-154.34
11
99.4851
21
-154.245
0
LINE
8
BLACK
6
CONTINUOUS
10
99.4851
20
-154.245
11
99.6756
21
-154.15
0
LINE
8
BLACK
6
CONTINUOUS
10
101.58
20
-154.15
11
101.771
21
-154.15
0
LINE
8
BLACK
6
CONTINUOUS
10
101.771
20
-154.15
11
101.961
21
-154.245
0
LINE
8
BLACK
6
CONTINUOUS
10
101.961
20
-154.245
11
102.057
21
-154.34
0
LINE
8
BLACK
6
CONTINUOUS
10
102.057
20
-154.34
11
102.152
21
-154.531
0
LINE
8
BLACK
6
CONTINUOUS
10
102.152
20
-154.531
11
102.247
21
-154.912
0
LINE
8
BLACK
6
CONTINUOUS
10
102.247
20
-154.912
11
102.247
21
-155.388
0
LINE
8
BLACK
6
CONTINUOUS
10
102.247
20
-155.388
11
102.152
21
-155.769
0
LINE
8
BLACK
6
CONTINUOUS
10
102.152
20
-155.769
11
102.057
21
-155.959
0
LINE
8
BLACK
6
CONTINUOUS
10
102.057
20
-155.959
11
101.961
21
-156.055
0
LINE
8
BLACK
6
CONTINUOUS
10
101.961
20
-156.055
11
101.771
21
-156.15
0
LINE
8
BLACK
6
CONTINUOUS
10
101.771
20
-156.15
11
101.58
21
-156.15
0
LINE
8
BLACK
6
CONTINUOUS
10
101.58
20
-156.15
11
101.39
21
-156.055
0
LINE
8
BLACK
6
CONTINUOUS
10
101.39
20
-156.055
11
101.295
21
-155.959
0
LINE
8
BLACK
6
CONTINUOUS
10
101.295
20
-155.959
11
101.199
21
-155.769
0
LINE
8
BLACK
6
CONTINUOUS
10
101.199
20
-155.769
11
101.104
21
-155.388
0
LINE
8
BLACK
6
CONTINUOUS
10
101.104
20
-155.388
11
101.104
21
-154.912
0
LINE
8
BLACK
6
CONTINUOUS
10
101.104
20
-154.912
11
101.199
21
-154.531
0
LINE
8
BLACK
6
CONTINUOUS
10
101.199
20
-154.531
11
101.295
21
-154.34
0
LINE
8
BLACK
6
CONTINUOUS
10
101.295
20
-154.34
11
101.39
21
-154.245
0
LINE
8
BLACK
6
CONTINUOUS
10
101.39
20
-154.245
11
101.58
21
-154.15
0
LINE
8
BLACK
6
CONTINUOUS
10
103.104
20
-156.15
11
103.104
21
-154.817
0
LINE
8
BLACK
6
CONTINUOUS
10
103.104
20
-155.007
11
103.199
21
-154.912
0
LINE
8
BLACK
6
CONTINUOUS
10
103.199
20
-154.912
11
103.39
21
-154.817
0
LINE
8
BLACK
6
CONTINUOUS
10
103.39
20
-154.817
11
103.676
21
-154.817
0
LINE
8
BLACK
6
CONTINUOUS
10
103.676
20
-154.817
11
103.866
21
-154.912
0
LINE
8
BLACK
6
CONTINUOUS
10
103.866
20
-154.912
11
103.961
21
-155.102
0
LINE
8
BLACK
6
CONTINUOUS
10
103.961
20
-155.102
11
103.961
21
-156.15
0
LINE
8
BLACK
6
CONTINUOUS
10
103.961
20
-155.102
11
104.057
21
-154.912
0
LINE
8
BLACK
6
CONTINUOUS
10
104.057
20
-154.912
11
104.247
21
-154.817
0
LINE
8
BLACK
6
CONTINUOUS
10
104.247
20
-154.817
11
104.533
21
-154.817
0
LINE
8
BLACK
6
CONTINUOUS
10
104.533
20
-154.817
11
104.723
21
-154.912
0
LINE
8
BLACK
6
CONTINUOUS
10
104.723
20
-154.912
11
104.818
21
-155.102
0
LINE
8
BLACK
6
CONTINUOUS
10
104.818
20
-155.102
11
104.818
21
-156.15
0
LINE
8
BLACK
6
CONTINUOUS
10
105.771
20
-156.15
11
105.771
21
-154.817
0
LINE
8
BLACK
6
CONTINUOUS
10
105.771
20
-155.007
11
105.866
21
-154.912
0
LINE
8
BLACK
6
CONTINUOUS
10
105.866
20
-154.912
11
106.057
21
-154.817
0
LINE
8
BLACK
6
CONTINUOUS
10
106.057
20
-154.817
11
106.342
21
-154.817
0
LINE
8
BLACK
6
CONTINUOUS
10
106.342
20
-154.817
11
106.533
21
-154.912
0
LINE
8
BLACK
6
CONTINUOUS
10
106.533
20
-154.912
11
106.628
21
-155.102
0
LINE
8
BLACK
6
CONTINUOUS
10
106.628
20
-155.102
11
106.628
21
-156.15
0
LINE
8
BLACK
6
CONTINUOUS
10
106.628
20
-155.102
11
106.723
21
-154.912
0
LINE
8
BLACK
6
CONTINUOUS
10
106.723
20
-154.912
11
106.914
21
-154.817
0
LINE
8
BLACK
6
CONTINUOUS
10
106.914
20
-154.817
11
107.199
21
-154.817
0
LINE
8
BLACK
6
CONTINUOUS
10
107.199
20
-154.817
11
107.39
21
-154.912
0
LINE
8
BLACK
6
CONTINUOUS
10
107.39
20
-154.912
11
107.485
21
-155.102
0
LINE
8
BLACK
6
CONTINUOUS
10
107.485
20
-155.102
11
107.485
21
-156.15
0
LINE
8
BLACK
6
CONTINUOUS
10
111.39
20
-154.055
11
109.676
21
-156.626
0
LINE
8
BLACK
6
CONTINUOUS
10
113.961
20
-154.15
11
114.152
21
-154.15
0
LINE
8
BLACK
6
CONTINUOUS
10
114.152
20
-154.15
11
114.342
21
-154.245
0
LINE
8
BLACK
6
CONTINUOUS
10
114.342
20
-154.245
11
114.438
21
-154.34
0
LINE
8
BLACK
6
CONTINUOUS
10
114.438
20
-154.34
11
114.533
21
-154.531
0
LINE
8
BLACK
6
CONTINUOUS
10
114.533
20
-154.531
11
114.628
21
-154.912
0
LINE
8
BLACK
6
CONTINUOUS
10
114.628
20
-154.912
11
114.628
21
-155.388
0
LINE
8
BLACK
6
CONTINUOUS
10
114.628
20
-155.388
11
114.533
21
-155.769
0
LINE
8
BLACK
6
CONTINUOUS
10
114.533
20
-155.769
11
114.438
21
-155.959
0
LINE
8
BLACK
6
CONTINUOUS
10
114.438
20
-155.959
11
114.342
21
-156.055
0
LINE
8
BLACK
6
CONTINUOUS
10
114.342
20
-156.055
11
114.152
21
-156.15
0
LINE
8
BLACK
6
CONTINUOUS
10
114.152
20
-156.15
11
113.961
21
-156.15
0
LINE
8
BLACK
6
CONTINUOUS
10
113.961
20
-156.15
11
113.771
21
-156.055
0
LINE
8
BLACK
6
CONTINUOUS
10
113.771
20
-156.055
11
113.676
21
-155.959
0
LINE
8
BLACK
6
CONTINUOUS
10
113.676
20
-155.959
11
113.58
21
-155.769
0
LINE
8
BLACK
6
CONTINUOUS
10
113.58
20
-155.769
11
113.485
21
-155.388
0
LINE
8
BLACK
6
CONTINUOUS
10
113.485
20
-155.388
11
113.485
21
-154.912
0
LINE
8
BLACK
6
CONTINUOUS
10
113.485
20
-154.912
11
113.58
21
-154.531
0
LINE
8
BLACK
6
CONTINUOUS
10
113.58
20
-154.531
11
113.676
21
-154.34
0
LINE
8
BLACK
6
CONTINUOUS
10
113.676
20
-154.34
11
113.771
21
-154.245
0
LINE
8
BLACK
6
CONTINUOUS
10
113.771
20
-154.245
11
113.961
21
-154.15
0
LINE
8
BLACK
6
CONTINUOUS
10
115.485
20
-155.959
11
115.58
21
-156.055
0
LINE
8
BLACK
6
CONTINUOUS
10
115.58
20
-156.055
11
115.485
21
-156.15
0
LINE
8
BLACK
6
CONTINUOUS
10
115.485
20
-156.15
11
115.39
21
-156.055
0
LINE
8
BLACK
6
CONTINUOUS
10
115.39
20
-156.055
11
115.485
21
-155.959
0
LINE
8
BLACK
6
CONTINUOUS
10
115.485
20
-155.959
11
115.485
21
-156.15
0
LINE
8
BLACK
6
CONTINUOUS
10
116.818
20
-154.15
11
117.009
21
-154.15
0
LINE
8
BLACK
6
CONTINUOUS
10
117.009
20
-154.15
11
117.199
21
-154.245
0
LINE
8
BLACK
6
CONTINUOUS
10
117.199
20
-154.245
11
117.295
21
-154.34
0
LINE
8
BLACK
6
CONTINUOUS
10
117.295
20
-154.34
11
117.39
21
-154.531
0
LINE
8
BLACK
6
CONTINUOUS
10
117.39
20
-154.531
11
117.485
21
-154.912
0
LINE
8
BLACK
6
CONTINUOUS
10
117.485
20
-154.912
11
117.485
21
-155.388
0
LINE
8
BLACK
6
CONTINUOUS
10
117.485
20
-155.388
11
117.39
21
-155.769
0
LINE
8
BLACK
6
CONTINUOUS
10
117.39
20
-155.769
11
117.295
21
-155.959
0
LINE
8
BLACK
6
CONTINUOUS
10
117.295
20
-155.959
11
117.199
21
-156.055
0
LINE
8
BLACK
6
CONTINUOUS
10
117.199
20
-156.055
11
117.009
21
-156.15
0
LINE
8
BLACK
6
CONTINUOUS
10
117.009
20
-156.15
11
116.818
21
-156.15
0
LINE
8
BLACK
6
CONTINUOUS
10
116.818
20
-156.15
11
116.628
21
-156.055
0
LINE
8
BLACK
6
CONTINUOUS
10
116.628
20
-156.055
11
116.533
21
-155.959
0
LINE
8
BLACK
6
CONTINUOUS
10
116.533
20
-155.959
11
116.438
21
-155.769
0
LINE
8
BLACK
6
CONTINUOUS
10
116.438
20
-155.769
11
116.342
21
-155.388
0
LINE
8
BLACK
6
CONTINUOUS
10
116.342
20
-155.388
11
116.342
21
-154.912
0
LINE
8
BLACK
6
CONTINUOUS
10
116.342
20
-154.912
11
116.438
21
-154.531
0
LINE
8
BLACK
6
CONTINUOUS
10
116.438
20
-154.531
11
116.533
21
-154.34
0
LINE
8
BLACK
6
CONTINUOUS
10
116.533
20
-154.34
11
116.628
21
-154.245
0
LINE
8
BLACK
6
CONTINUOUS
10
116.628
20
-154.245
11
116.818
21
-154.15
0
LINE
8
BLACK
6
CONTINUOUS
10
119.199
20
-154.817
11
119.199
21
-156.15
0
LINE
8
BLACK
6
CONTINUOUS
10
118.723
20
-154.055
11
118.247
21
-155.483
0
LINE
8
BLACK
6
CONTINUOUS
10
118.247
20
-155.483
11
119.485
21
-155.483
0
LINE
8
BLACK
6
CONTINUOUS
10
120.057
20
-154.15
11
121.295
21
-154.15
0
LINE
8
BLACK
6
CONTINUOUS
10
121.295
20
-154.15
11
120.628
21
-154.912
0
LINE
8
BLACK
6
CONTINUOUS
10
120.628
20
-154.912
11
120.914
21
-154.912
0
LINE
8
BLACK
6
CONTINUOUS
10
120.914
20
-154.912
11
121.104
21
-155.007
0
LINE
8
BLACK
6
CONTINUOUS
10
121.104
20
-155.007
11
121.199
21
-155.102
0
LINE
8
BLACK
6
CONTINUOUS
10
121.199
20
-155.102
11
121.295
21
-155.293
0
LINE
8
BLACK
6
CONTINUOUS
10
121.295
20
-155.293
11
121.295
21
-155.769
0
LINE
8
BLACK
6
CONTINUOUS
10
121.295
20
-155.769
11
121.199
21
-155.959
0
LINE
8
BLACK
6
CONTINUOUS
10
121.199
20
-155.959
11
121.104
21
-156.055
0
LINE
8
BLACK
6
CONTINUOUS
10
121.104
20
-156.055
11
120.914
21
-156.15
0
LINE
8
BLACK
6
CONTINUOUS
10
120.914
20
-156.15
11
120.342
21
-156.15
0
LINE
8
BLACK
6
CONTINUOUS
10
120.342
20
-156.15
11
120.152
21
-156.055
0
LINE
8
BLACK
6
CONTINUOUS
10
120.152
20
-156.055
11
120.057
21
-155.959
0
LINE
8
BLACK
6
CONTINUOUS
10
121.961
20
-154.15
11
123.199
21
-154.15
0
LINE
8
BLACK
6
CONTINUOUS
10
123.199
20
-154.15
11
122.533
21
-154.912
0
LINE
8
BLACK
6
CONTINUOUS
10
122.533
20
-154.912
11
122.818
21
-154.912
0
LINE
8
BLACK
6
CONTINUOUS
10
122.818
20
-154.912
11
123.009
21
-155.007
0
LINE
8
BLACK
6
CONTINUOUS
10
123.009
20
-155.007
11
123.104
21
-155.102
0
LINE
8
BLACK
6
CONTINUOUS
10
123.104
20
-155.102
11
123.199
21
-155.293
0
LINE
8
BLACK
6
CONTINUOUS
10
123.199
20
-155.293
11
123.199
21
-155.769
0
LINE
8
BLACK
6
CONTINUOUS
10
123.199
20
-155.769
11
123.104
21
-155.959
0
LINE
8
BLACK
6
CONTINUOUS
10
123.104
20
-155.959
11
123.009
21
-156.055
0
LINE
8
BLACK
6
CONTINUOUS
10
123.009
20
-156.055
11
122.818
21
-156.15
0
LINE
8
BLACK
6
CONTINUOUS
10
122.818
20
-156.15
11
122.247
21
-156.15
0
LINE
8
BLACK
6
CONTINUOUS
10
122.247
20
-156.15
11
122.057
21
-156.055
0
LINE
8
BLACK
6
CONTINUOUS
10
122.057
20
-156.055
11
121.961
21
-155.959
0
LINE
8
BLACK
6
CONTINUOUS
10
123.961
20
-154.15
11
123.961
21
-154.531
0
LINE
8
BLACK
6
CONTINUOUS
10
124.723
20
-154.15
11
124.723
21
-154.531
0
LINE
8
BLACK
6
CONTINUOUS
10
127.676
20
-156.912
11
127.58
21
-156.817
0
LINE
8
BLACK
6
CONTINUOUS
10
127.58
20
-156.817
11
127.39
21
-156.531
0
LINE
8
BLACK
6
CONTINUOUS
10
127.39
20
-156.531
11
127.295
21
-156.34
0
LINE
8
BLACK
6
CONTINUOUS
10
127.295
20
-156.34
11
127.199
21
-156.055
0
LINE
8
BLACK
6
CONTINUOUS
10
127.199
20
-156.055
11
127.104
21
-155.578
0
LINE
8
BLACK
6
CONTINUOUS
10
127.104
20
-155.578
11
127.104
21
-155.197
0
LINE
8
BLACK
6
CONTINUOUS
10
127.104
20
-155.197
11
127.199
21
-154.721
0
LINE
8
BLACK
6
CONTINUOUS
10
127.199
20
-154.721
11
127.295
21
-154.436
0
LINE
8
BLACK
6
CONTINUOUS
10
127.295
20
-154.436
11
127.39
21
-154.245
0
LINE
8
BLACK
6
CONTINUOUS
10
127.39
20
-154.245
11
127.58
21
-153.959
0
LINE
8
BLACK
6
CONTINUOUS
10
127.58
20
-153.959
11
127.676
21
-153.864
0
LINE
8
BLACK
6
CONTINUOUS
10
129.295
20
-154.817
11
129.295
21
-156.15
0
LINE
8
BLACK
6
CONTINUOUS
10
128.818
20
-154.055
11
128.342
21
-155.483
0
LINE
8
BLACK
6
CONTINUOUS
10
128.342
20
-155.483
11
129.58
21
-155.483
0
LINE
8
BLACK
6
CONTINUOUS
10
131.866
20
-156.15
11
131.866
21
-154.15
0
LINE
8
BLACK
6
CONTINUOUS
10
132.723
20
-156.15
11
132.723
21
-155.102
0
LINE
8
BLACK
6
CONTINUOUS
10
132.723
20
-155.102
11
132.628
21
-154.912
0
LINE
8
BLACK
6
CONTINUOUS
10
132.628
20
-154.912
11
132.438
21
-154.817
0
LINE
8
BLACK
6
CONTINUOUS
10
132.438
20
-154.817
11
132.152
21
-154.817
0
LINE
8
BLACK
6
CONTINUOUS
10
132.152
20
-154.817
11
131.961
21
-154.912
0
LINE
8
BLACK
6
CONTINUOUS
10
131.961
20
-154.912
11
131.866
21
-155.007
0
LINE
8
BLACK
6
CONTINUOUS
10
133.961
20
-156.15
11
133.771
21
-156.055
0
LINE
8
BLACK
6
CONTINUOUS
10
133.771
20
-156.055
11
133.676
21
-155.959
0
LINE
8
BLACK
6
CONTINUOUS
10
133.676
20
-155.959
11
133.58
21
-155.769
0
LINE
8
BLACK
6
CONTINUOUS
10
133.58
20
-155.769
11
133.58
21
-155.197
0
LINE
8
BLACK
6
CONTINUOUS
10
133.58
20
-155.197
11
133.676
21
-155.007
0
LINE
8
BLACK
6
CONTINUOUS
10
133.676
20
-155.007
11
133.771
21
-154.912
0
LINE
8
BLACK
6
CONTINUOUS
10
133.771
20
-154.912
11
133.961
21
-154.817
0
LINE
8
BLACK
6
CONTINUOUS
10
133.961
20
-154.817
11
134.247
21
-154.817
0
LINE
8
BLACK
6
CONTINUOUS
10
134.247
20
-154.817
11
134.438
21
-154.912
0
LINE
8
BLACK
6
CONTINUOUS
10
134.438
20
-154.912
11
134.533
21
-155.007
0
LINE
8
BLACK
6
CONTINUOUS
10
134.533
20
-155.007
11
134.628
21
-155.197
0
LINE
8
BLACK
6
CONTINUOUS
10
134.628
20
-155.197
11
134.628
21
-155.769
0
LINE
8
BLACK
6
CONTINUOUS
10
134.628
20
-155.769
11
134.533
21
-155.959
0
LINE
8
BLACK
6
CONTINUOUS
10
134.533
20
-155.959
11
134.438
21
-156.055
0
LINE
8
BLACK
6
CONTINUOUS
10
134.438
20
-156.055
11
134.247
21
-156.15
0
LINE
8
BLACK
6
CONTINUOUS
10
134.247
20
-156.15
11
133.961
21
-156.15
0
LINE
8
BLACK
6
CONTINUOUS
10
135.771
20
-156.15
11
135.58
21
-156.055
0
LINE
8
BLACK
6
CONTINUOUS
10
135.58
20
-156.055
11
135.485
21
-155.864
0
LINE
8
BLACK
6
CONTINUOUS
10
135.485
20
-155.864
11
135.485
21
-154.15
0
LINE
8
BLACK
6
CONTINUOUS
10
137.295
20
-156.055
11
137.104
21
-156.15
0
LINE
8
BLACK
6
CONTINUOUS
10
137.104
20
-156.15
11
136.723
21
-156.15
0
LINE
8
BLACK
6
CONTINUOUS
10
136.723
20
-156.15
11
136.533
21
-156.055
0
LINE
8
BLACK
6
CONTINUOUS
10
136.533
20
-156.055
11
136.438
21
-155.864
0
LINE
8
BLACK
6
CONTINUOUS
10
136.438
20
-155.864
11
136.438
21
-155.102
0
LINE
8
BLACK
6
CONTINUOUS
10
136.438
20
-155.102
11
136.533
21
-154.912
0
LINE
8
BLACK
6
CONTINUOUS
10
136.533
20
-154.912
11
136.723
21
-154.817
0
LINE
8
BLACK
6
CONTINUOUS
10
136.723
20
-154.817
11
137.104
21
-154.817
0
LINE
8
BLACK
6
CONTINUOUS
10
137.104
20
-154.817
11
137.295
21
-154.912
0
LINE
8
BLACK
6
CONTINUOUS
10
137.295
20
-154.912
11
137.39
21
-155.102
0
LINE
8
BLACK
6
CONTINUOUS
10
137.39
20
-155.102
11
137.39
21
-155.293
0
LINE
8
BLACK
6
CONTINUOUS
10
137.39
20
-155.293
11
136.438
21
-155.483
0
LINE
8
BLACK
6
CONTINUOUS
10
138.152
20
-156.055
11
138.342
21
-156.15
0
LINE
8
BLACK
6
CONTINUOUS
10
138.342
20
-156.15
11
138.723
21
-156.15
0
LINE
8
BLACK
6
CONTINUOUS
10
138.723
20
-156.15
11
138.914
21
-156.055
0
LINE
8
BLACK
6
CONTINUOUS
10
138.914
20
-156.055
11
139.009
21
-155.864
0
LINE
8
BLACK
6
CONTINUOUS
10
139.009
20
-155.864
11
139.009
21
-155.769
0
LINE
8
BLACK
6
CONTINUOUS
10
139.009
20
-155.769
11
138.914
21
-155.578
0
LINE
8
BLACK
6
CONTINUOUS
10
138.914
20
-155.578
11
138.723
21
-155.483
0
LINE
8
BLACK
6
CONTINUOUS
10
138.723
20
-155.483
11
138.438
21
-155.483
0
LINE
8
BLACK
6
CONTINUOUS
10
138.438
20
-155.483
11
138.247
21
-155.388
0
LINE
8
BLACK
6
CONTINUOUS
10
138.247
20
-155.388
11
138.152
21
-155.197
0
LINE
8
BLACK
6
CONTINUOUS
10
138.152
20
-155.197
11
138.152
21
-155.102
0
LINE
8
BLACK
6
CONTINUOUS
10
138.152
20
-155.102
11
138.247
21
-154.912
0
LINE
8
BLACK
6
CONTINUOUS
10
138.247
20
-154.912
11
138.438
21
-154.817
0
LINE
8
BLACK
6
CONTINUOUS
10
138.438
20
-154.817
11
138.723
21
-154.817
0
LINE
8
BLACK
6
CONTINUOUS
10
138.723
20
-154.817
11
138.914
21
-154.912
0
LINE
8
BLACK
6
CONTINUOUS
10
139.676
20
-156.912
11
139.771
21
-156.817
0
LINE
8
BLACK
6
CONTINUOUS
10
139.771
20
-156.817
11
139.961
21
-156.531
0
LINE
8
BLACK
6
CONTINUOUS
10
139.961
20
-156.531
11
140.057
21
-156.34
0
LINE
8
BLACK
6
CONTINUOUS
10
140.057
20
-156.34
11
140.152
21
-156.055
0
LINE
8
BLACK
6
CONTINUOUS
10
140.152
20
-156.055
11
140.247
21
-155.578
0
LINE
8
BLACK
6
CONTINUOUS
10
140.247
20
-155.578
11
140.247
21
-155.197
0
LINE
8
BLACK
6
CONTINUOUS
10
140.247
20
-155.197
11
140.152
21
-154.721
0
LINE
8
BLACK
6
CONTINUOUS
10
140.152
20
-154.721
11
140.057
21
-154.436
0
LINE
8
BLACK
6
CONTINUOUS
10
140.057
20
-154.436
11
139.961
21
-154.245
0
LINE
8
BLACK
6
CONTINUOUS
10
139.961
20
-154.245
11
139.771
21
-153.959
0
LINE
8
BLACK
6
CONTINUOUS
10
139.771
20
-153.959
11
139.676
21
-153.864
0
LINE
8
BLACK
6
CONTINUOUS
10
90.625
20
-157.225
11
91.925
21
-158.525
0
LINE
8
BLACK
6
CONTINUOUS
10
91.925
20
-157.225
11
90.625
21
-158.525
0
CIRCLE
8
BLACK
10
91.275
20
-157.875
40
0.65
0
LINE
8
BLACK
6
CONTINUOUS
10
95.5804
20
-158.79
11
94.4375
21
-158.79
0
LINE
8
BLACK
6
CONTINUOUS
10
95.009
20
-158.79
11
95.009
21
-156.79
0
LINE
8
BLACK
6
CONTINUOUS
10
95.009
20
-156.79
11
94.8185
21
-157.076
0
LINE
8
BLACK
6
CONTINUOUS
10
94.8185
20
-157.076
11
94.628
21
-157.266
0
LINE
8
BLACK
6
CONTINUOUS
10
94.628
20
-157.266
11
94.4375
21
-157.361
0
LINE
8
BLACK
6
CONTINUOUS
10
96.4375
20
-158.599
11
96.5328
21
-158.695
0
LINE
8
BLACK
6
CONTINUOUS
10
96.5328
20
-158.695
11
96.4375
21
-158.79
0
LINE
8
BLACK
6
CONTINUOUS
10
96.4375
20
-158.79
11
96.3423
21
-158.695
0
LINE
8
BLACK
6
CONTINUOUS
10
96.3423
20
-158.695
11
96.4375
21
-158.599
0
LINE
8
BLACK
6
CONTINUOUS
10
96.4375
20
-158.599
11
96.4375
21
-158.79
0
LINE
8
BLACK
6
CONTINUOUS
10
97.1994
20
-156.79
11
98.4375
21
-156.79
0
LINE
8
BLACK
6
CONTINUOUS
10
98.4375
20
-156.79
11
97.7709
21
-157.552
0
LINE
8
BLACK
6
CONTINUOUS
10
97.7709
20
-157.552
11
98.0566
21
-157.552
0
LINE
8
BLACK
6
CONTINUOUS
10
98.0566
20
-157.552
11
98.2471
21
-157.647
0
LINE
8
BLACK
6
CONTINUOUS
10
98.2471
20
-157.647
11
98.3423
21
-157.742
0
LINE
8
BLACK
6
CONTINUOUS
10
98.3423
20
-157.742
11
98.4375
21
-157.933
0
LINE
8
BLACK
6
CONTINUOUS
10
98.4375
20
-157.933
11
98.4375
21
-158.409
0
LINE
8
BLACK
6
CONTINUOUS
10
98.4375
20
-158.409
11
98.3423
21
-158.599
0
LINE
8
BLACK
6
CONTINUOUS
10
98.3423
20
-158.599
11
98.2471
21
-158.695
0
LINE
8
BLACK
6
CONTINUOUS
10
98.2471
20
-158.695
11
98.0566
21
-158.79
0
LINE
8
BLACK
6
CONTINUOUS
10
98.0566
20
-158.79
11
97.4851
21
-158.79
0
LINE
8
BLACK
6
CONTINUOUS
10
97.4851
20
-158.79
11
97.2947
21
-158.695
0
LINE
8
BLACK
6
CONTINUOUS
10
97.2947
20
-158.695
11
97.1994
21
-158.599
0
LINE
8
BLACK
6
CONTINUOUS
10
99.6756
20
-156.79
11
99.8661
21
-156.79
0
LINE
8
BLACK
6
CONTINUOUS
10
99.8661
20
-156.79
11
100.057
21
-156.885
0
LINE
8
BLACK
6
CONTINUOUS
10
100.057
20
-156.885
11
100.152
21
-156.98
0
LINE
8
BLACK
6
CONTINUOUS
10
100.152
20
-156.98
11
100.247
21
-157.171
0
LINE
8
BLACK
6
CONTINUOUS
10
100.247
20
-157.171
11
100.342
21
-157.552
0
LINE
8
BLACK
6
CONTINUOUS
10
100.342
20
-157.552
11
100.342
21
-158.028
0
LINE
8
BLACK
6
CONTINUOUS
10
100.342
20
-158.028
11
100.247
21
-158.409
0
LINE
8
BLACK
6
CONTINUOUS
10
100.247
20
-158.409
11
100.152
21
-158.599
0
LINE
8
BLACK
6
CONTINUOUS
10
100.152
20
-158.599
11
100.057
21
-158.695
0
LINE
8
BLACK
6
CONTINUOUS
10
100.057
20
-158.695
11
99.8661
21
-158.79
0
LINE
8
BLACK
6
CONTINUOUS
10
99.8661
20
-158.79
11
99.6756
21
-158.79
0
LINE
8
BLACK
6
CONTINUOUS
10
99.6756
20
-158.79
11
99.4851
21
-158.695
0
LINE
8
BLACK
6
CONTINUOUS
10
99.4851
20
-158.695
11
99.3899
21
-158.599
0
LINE
8
BLACK
6
CONTINUOUS
10
99.3899
20
-158.599
11
99.2947
21
-158.409
0
LINE
8
BLACK
6
CONTINUOUS
10
99.2947
20
-158.409
11
99.1994
21
-158.028
0
LINE
8
BLACK
6
CONTINUOUS
10
99.1994
20
-158.028
11
99.1994
21
-157.552
0
LINE
8
BLACK
6
CONTINUOUS
10
99.1994
20
-157.552
11
99.2947
21
-157.171
0
LINE
8
BLACK
6
CONTINUOUS
10
99.2947
20
-157.171
11
99.3899
21
-156.98
0
LINE
8
BLACK
6
CONTINUOUS
10
99.3899
20
-156.98
11
99.4851
21
-156.885
0
LINE
8
BLACK
6
CONTINUOUS
10
99.4851
20
-156.885
11
99.6756
21
-156.79
0
LINE
8
BLACK
6
CONTINUOUS
10
101.58
20
-156.79
11
101.771
21
-156.79
0
LINE
8
BLACK
6
CONTINUOUS
10
101.771
20
-156.79
11
101.961
21
-156.885
0
LINE
8
BLACK
6
CONTINUOUS
10
101.961
20
-156.885
11
102.057
21
-156.98
0
LINE
8
BLACK
6
CONTINUOUS
10
102.057
20
-156.98
11
102.152
21
-157.171
0
LINE
8
BLACK
6
CONTINUOUS
10
102.152
20
-157.171
11
102.247
21
-157.552
0
LINE
8
BLACK
6
CONTINUOUS
10
102.247
20
-157.552
11
102.247
21
-158.028
0
LINE
8
BLACK
6
CONTINUOUS
10
102.247
20
-158.028
11
102.152
21
-158.409
0
LINE
8
BLACK
6
CONTINUOUS
10
102.152
20
-158.409
11
102.057
21
-158.599
0
LINE
8
BLACK
6
CONTINUOUS
10
102.057
20
-158.599
11
101.961
21
-158.695
0
LINE
8
BLACK
6
CONTINUOUS
10
101.961
20
-158.695
11
101.771
21
-158.79
0
LINE
8
BLACK
6
CONTINUOUS
10
101.771
20
-158.79
11
101.58
21
-158.79
0
LINE
8
BLACK
6
CONTINUOUS
10
101.58
20
-158.79
11
101.39
21
-158.695
0
LINE
8
BLACK
6
CONTINUOUS
10
101.39
20
-158.695
11
101.295
21
-158.599
0
LINE
8
BLACK
6
CONTINUOUS
10
101.295
20
-158.599
11
101.199
21
-158.409
0
LINE
8
BLACK
6
CONTINUOUS
10
101.199
20
-158.409
11
101.104
21
-158.028
0
LINE
8
BLACK
6
CONTINUOUS
10
101.104
20
-158.028
11
101.104
21
-157.552
0
LINE
8
BLACK
6
CONTINUOUS
10
101.104
20
-157.552
11
101.199
21
-157.171
0
LINE
8
BLACK
6
CONTINUOUS
10
101.199
20
-157.171
11
101.295
21
-156.98
0
LINE
8
BLACK
6
CONTINUOUS
10
101.295
20
-156.98
11
101.39
21
-156.885
0
LINE
8
BLACK
6
CONTINUOUS
10
101.39
20
-156.885
11
101.58
21
-156.79
0
LINE
8
BLACK
6
CONTINUOUS
10
103.104
20
-158.79
11
103.104
21
-157.457
0
LINE
8
BLACK
6
CONTINUOUS
10
103.104
20
-157.647
11
103.199
21
-157.552
0
LINE
8
BLACK
6
CONTINUOUS
10
103.199
20
-157.552
11
103.39
21
-157.457
0
LINE
8
BLACK
6
CONTINUOUS
10
103.39
20
-157.457
11
103.676
21
-157.457
0
LINE
8
BLACK
6
CONTINUOUS
10
103.676
20
-157.457
11
103.866
21
-157.552
0
LINE
8
BLACK
6
CONTINUOUS
10
103.866
20
-157.552
11
103.961
21
-157.742
0
LINE
8
BLACK
6
CONTINUOUS
10
103.961
20
-157.742
11
103.961
21
-158.79
0
LINE
8
BLACK
6
CONTINUOUS
10
103.961
20
-157.742
11
104.057
21
-157.552
0
LINE
8
BLACK
6
CONTINUOUS
10
104.057
20
-157.552
11
104.247
21
-157.457
0
LINE
8
BLACK
6
CONTINUOUS
10
104.247
20
-157.457
11
104.533
21
-157.457
0
LINE
8
BLACK
6
CONTINUOUS
10
104.533
20
-157.457
11
104.723
21
-157.552
0
LINE
8
BLACK
6
CONTINUOUS
10
104.723
20
-157.552
11
104.818
21
-157.742
0
LINE
8
BLACK
6
CONTINUOUS
10
104.818
20
-157.742
11
104.818
21
-158.79
0
LINE
8
BLACK
6
CONTINUOUS
10
105.771
20
-158.79
11
105.771
21
-157.457
0
LINE
8
BLACK
6
CONTINUOUS
10
105.771
20
-157.647
11
105.866
21
-157.552
0
LINE
8
BLACK
6
CONTINUOUS
10
105.866
20
-157.552
11
106.057
21
-157.457
0
LINE
8
BLACK
6
CONTINUOUS
10
106.057
20
-157.457
11
106.342
21
-157.457
0
LINE
8
BLACK
6
CONTINUOUS
10
106.342
20
-157.457
11
106.533
21
-157.552
0
LINE
8
BLACK
6
CONTINUOUS
10
106.533
20
-157.552
11
106.628
21
-157.742
0
LINE
8
BLACK
6
CONTINUOUS
10
106.628
20
-157.742
11
106.628
21
-158.79
0
LINE
8
BLACK
6
CONTINUOUS
10
106.628
20
-157.742
11
106.723
21
-157.552
0
LINE
8
BLACK
6
CONTINUOUS
10
106.723
20
-157.552
11
106.914
21
-157.457
0
LINE
8
BLACK
6
CONTINUOUS
10
106.914
20
-157.457
11
107.199
21
-157.457
0
LINE
8
BLACK
6
CONTINUOUS
10
107.199
20
-157.457
11
107.39
21
-157.552
0
LINE
8
BLACK
6
CONTINUOUS
10
107.39
20
-157.552
11
107.485
21
-157.742
0
LINE
8
BLACK
6
CONTINUOUS
10
107.485
20
-157.742
11
107.485
21
-158.79
0
LINE
8
BLACK
6
CONTINUOUS
10
111.39
20
-156.695
11
109.676
21
-159.266
0
LINE
8
BLACK
6
CONTINUOUS
10
113.961
20
-156.79
11
114.152
21
-156.79
0
LINE
8
BLACK
6
CONTINUOUS
10
114.152
20
-156.79
11
114.342
21
-156.885
0
LINE
8
BLACK
6
CONTINUOUS
10
114.342
20
-156.885
11
114.438
21
-156.98
0
LINE
8
BLACK
6
CONTINUOUS
10
114.438
20
-156.98
11
114.533
21
-157.171
0
LINE
8
BLACK
6
CONTINUOUS
10
114.533
20
-157.171
11
114.628
21
-157.552
0
LINE
8
BLACK
6
CONTINUOUS
10
114.628
20
-157.552
11
114.628
21
-158.028
0
LINE
8
BLACK
6
CONTINUOUS
10
114.628
20
-158.028
11
114.533
21
-158.409
0
LINE
8
BLACK
6
CONTINUOUS
10
114.533
20
-158.409
11
114.438
21
-158.599
0
LINE
8
BLACK
6
CONTINUOUS
10
114.438
20
-158.599
11
114.342
21
-158.695
0
LINE
8
BLACK
6
CONTINUOUS
10
114.342
20
-158.695
11
114.152
21
-158.79
0
LINE
8
BLACK
6
CONTINUOUS
10
114.152
20
-158.79
11
113.961
21
-158.79
0
LINE
8
BLACK
6
CONTINUOUS
10
113.961
20
-158.79
11
113.771
21
-158.695
0
LINE
8
BLACK
6
CONTINUOUS
10
113.771
20
-158.695
11
113.676
21
-158.599
0
LINE
8
BLACK
6
CONTINUOUS
10
113.676
20
-158.599
11
113.58
21
-158.409
0
LINE
8
BLACK
6
CONTINUOUS
10
113.58
20
-158.409
11
113.485
21
-158.028
0
LINE
8
BLACK
6
CONTINUOUS
10
113.485
20
-158.028
11
113.485
21
-157.552
0
LINE
8
BLACK
6
CONTINUOUS
10
113.485
20
-157.552
11
113.58
21
-157.171
0
LINE
8
BLACK
6
CONTINUOUS
10
113.58
20
-157.171
11
113.676
21
-156.98
0
LINE
8
BLACK
6
CONTINUOUS
10
113.676
20
-156.98
11
113.771
21
-156.885
0
LINE
8
BLACK
6
CONTINUOUS
10
113.771
20
-156.885
11
113.961
21
-156.79
0
LINE
8
BLACK
6
CONTINUOUS
10
115.485
20
-158.599
11
115.58
21
-158.695
0
LINE
8
BLACK
6
CONTINUOUS
10
115.58
20
-158.695
11
115.485
21
-158.79
0
LINE
8
BLACK
6
CONTINUOUS
10
115.485
20
-158.79
11
115.39
21
-158.695
0
LINE
8
BLACK
6
CONTINUOUS
10
115.39
20
-158.695
11
115.485
21
-158.599
0
LINE
8
BLACK
6
CONTINUOUS
10
115.485
20
-158.599
11
115.485
21
-158.79
0
LINE
8
BLACK
6
CONTINUOUS
10
116.818
20
-156.79
11
117.009
21
-156.79
0
LINE
8
BLACK
6
CONTINUOUS
10
117.009
20
-156.79
11
117.199
21
-156.885
0
LINE
8
BLACK
6
CONTINUOUS
10
117.199
20
-156.885
11
117.295
21
-156.98
0
LINE
8
BLACK
6
CONTINUOUS
10
117.295
20
-156.98
11
117.39
21
-157.171
0
LINE
8
BLACK
6
CONTINUOUS
10
117.39
20
-157.171
11
117.485
21
-157.552
0
LINE
8
BLACK
6
CONTINUOUS
10
117.485
20
-157.552
11
117.485
21
-158.028
0
LINE
8
BLACK
6
CONTINUOUS
10
117.485
20
-158.028
11
117.39
21
-158.409
0
LINE
8
BLACK
6
CONTINUOUS
10
117.39
20
-158.409
11
117.295
21
-158.599
0
LINE
8
BLACK
6
CONTINUOUS
10
117.295
20
-158.599
11
117.199
21
-158.695
0
LINE
8
BLACK
6
CONTINUOUS
10
117.199
20
-158.695
11
117.009
21
-158.79
0
LINE
8
BLACK
6
CONTINUOUS
10
117.009
20
-158.79
11
116.818
21
-158.79
0
LINE
8
BLACK
6
CONTINUOUS
10
116.818
20
-158.79
11
116.628
21
-158.695
0
LINE
8
BLACK
6
CONTINUOUS
10
116.628
20
-158.695
11
116.533
21
-158.599
0
LINE
8
BLACK
6
CONTINUOUS
10
116.533
20
-158.599
11
116.438
21
-158.409
0
LINE
8
BLACK
6
CONTINUOUS
10
116.438
20
-158.409
11
116.342
21
-158.028
0
LINE
8
BLACK
6
CONTINUOUS
10
116.342
20
-158.028
11
116.342
21
-157.552
0
LINE
8
BLACK
6
CONTINUOUS
10
116.342
20
-157.552
11
116.438
21
-157.171
0
LINE
8
BLACK
6
CONTINUOUS
10
116.438
20
-157.171
11
116.533
21
-156.98
0
LINE
8
BLACK
6
CONTINUOUS
10
116.533
20
-156.98
11
116.628
21
-156.885
0
LINE
8
BLACK
6
CONTINUOUS
10
116.628
20
-156.885
11
116.818
21
-156.79
0
LINE
8
BLACK
6
CONTINUOUS
10
119.295
20
-156.79
11
118.342
21
-156.79
0
LINE
8
BLACK
6
CONTINUOUS
10
118.342
20
-156.79
11
118.247
21
-157.742
0
LINE
8
BLACK
6
CONTINUOUS
10
118.247
20
-157.742
11
118.342
21
-157.647
0
LINE
8
BLACK
6
CONTINUOUS
10
118.342
20
-157.647
11
118.533
21
-157.552
0
LINE
8
BLACK
6
CONTINUOUS
10
118.533
20
-157.552
11
119.009
21
-157.552
0
LINE
8
BLACK
6
CONTINUOUS
10
119.009
20
-157.552
11
119.199
21
-157.647
0
LINE
8
BLACK
6
CONTINUOUS
10
119.199
20
-157.647
11
119.295
21
-157.742
0
LINE
8
BLACK
6
CONTINUOUS
10
119.295
20
-157.742
11
119.39
21
-157.933
0
LINE
8
BLACK
6
CONTINUOUS
10
119.39
20
-157.933
11
119.39
21
-158.409
0
LINE
8
BLACK
6
CONTINUOUS
10
119.39
20
-158.409
11
119.295
21
-158.599
0
LINE
8
BLACK
6
CONTINUOUS
10
119.295
20
-158.599
11
119.199
21
-158.695
0
LINE
8
BLACK
6
CONTINUOUS
10
119.199
20
-158.695
11
119.009
21
-158.79
0
LINE
8
BLACK
6
CONTINUOUS
10
119.009
20
-158.79
11
118.533
21
-158.79
0
LINE
8
BLACK
6
CONTINUOUS
10
118.533
20
-158.79
11
118.342
21
-158.695
0
LINE
8
BLACK
6
CONTINUOUS
10
118.342
20
-158.695
11
118.247
21
-158.599
0
LINE
8
BLACK
6
CONTINUOUS
10
121.295
20
-158.79
11
120.152
21
-158.79
0
LINE
8
BLACK
6
CONTINUOUS
10
120.723
20
-158.79
11
120.723
21
-156.79
0
LINE
8
BLACK
6
CONTINUOUS
10
120.723
20
-156.79
11
120.533
21
-157.076
0
LINE
8
BLACK
6
CONTINUOUS
10
120.533
20
-157.076
11
120.342
21
-157.266
0
LINE
8
BLACK
6
CONTINUOUS
10
120.342
20
-157.266
11
120.152
21
-157.361
0
LINE
8
BLACK
6
CONTINUOUS
10
122.057
20
-156.98
11
122.152
21
-156.885
0
LINE
8
BLACK
6
CONTINUOUS
10
122.152
20
-156.885
11
122.342
21
-156.79
0
LINE
8
BLACK
6
CONTINUOUS
10
122.342
20
-156.79
11
122.818
21
-156.79
0
LINE
8
BLACK
6
CONTINUOUS
10
122.818
20
-156.79
11
123.009
21
-156.885
0
LINE
8
BLACK
6
CONTINUOUS
10
123.009
20
-156.885
11
123.104
21
-156.98
0
LINE
8
BLACK
6
CONTINUOUS
10
123.104
20
-156.98
11
123.199
21
-157.171
0
LINE
8
BLACK
6
CONTINUOUS
10
123.199
20
-157.171
11
123.199
21
-157.361
0
LINE
8
BLACK
6
CONTINUOUS
10
123.199
20
-157.361
11
123.104
21
-157.647
0
LINE
8
BLACK
6
CONTINUOUS
10
123.104
20
-157.647
11
121.961
21
-158.79
0
LINE
8
BLACK
6
CONTINUOUS
10
121.961
20
-158.79
11
123.199
21
-158.79
0
LINE
8
BLACK
6
CONTINUOUS
10
123.961
20
-156.79
11
123.961
21
-157.171
0
LINE
8
BLACK
6
CONTINUOUS
10
124.723
20
-156.79
11
124.723
21
-157.171
0
LINE
8
BLACK
6
CONTINUOUS
10
127.676
20
-159.552
11
127.58
21
-159.457
0
LINE
8
BLACK
6
CONTINUOUS
10
127.58
20
-159.457
11
127.39
21
-159.171
0
LINE
8
BLACK
6
CONTINUOUS
10
127.39
20
-159.171
11
127.295
21
-158.98
0
LINE
8
BLACK
6
CONTINUOUS
10
127.295
20
-158.98
11
127.199
21
-158.695
0
LINE
8
BLACK
6
CONTINUOUS
10
127.199
20
-158.695
11
127.104
21
-158.218
0
LINE
8
BLACK
6
CONTINUOUS
10
127.104
20
-158.218
11
127.104
21
-157.837
0
LINE
8
BLACK
6
CONTINUOUS
10
127.104
20
-157.837
11
127.199
21
-157.361
0
LINE
8
BLACK
6
CONTINUOUS
10
127.199
20
-157.361
11
127.295
21
-157.076
0
LINE
8
BLACK
6
CONTINUOUS
10
127.295
20
-157.076
11
127.39
21
-156.885
0
LINE
8
BLACK
6
CONTINUOUS
10
127.39
20
-156.885
11
127.58
21
-156.599
0
LINE
8
BLACK
6
CONTINUOUS
10
127.58
20
-156.599
11
127.676
21
-156.504
0
LINE
8
BLACK
6
CONTINUOUS
10
128.342
20
-156.98
11
128.438
21
-156.885
0
LINE
8
BLACK
6
CONTINUOUS
10
128.438
20
-156.885
11
128.628
21
-156.79
0
LINE
8
BLACK
6
CONTINUOUS
10
128.628
20
-156.79
11
129.104
21
-156.79
0
LINE
8
BLACK
6
CONTINUOUS
10
129.104
20
-156.79
11
129.295
21
-156.885
0
LINE
8
BLACK
6
CONTINUOUS
10
129.295
20
-156.885
11
129.39
21
-156.98
0
LINE
8
BLACK
6
CONTINUOUS
10
129.39
20
-156.98
11
129.485
21
-157.171
0
LINE
8
BLACK
6
CONTINUOUS
10
129.485
20
-157.171
11
129.485
21
-157.361
0
LINE
8
BLACK
6
CONTINUOUS
10
129.485
20
-157.361
11
129.39
21
-157.647
0
LINE
8
BLACK
6
CONTINUOUS
10
129.39
20
-157.647
11
128.247
21
-158.79
0
LINE
8
BLACK
6
CONTINUOUS
10
128.247
20
-158.79
11
129.485
21
-158.79
0
LINE
8
BLACK
6
CONTINUOUS
10
131.866
20
-158.79
11
131.866
21
-156.79
0
LINE
8
BLACK
6
CONTINUOUS
10
132.723
20
-158.79
11
132.723
21
-157.742
0
LINE
8
BLACK
6
CONTINUOUS
10
132.723
20
-157.742
11
132.628
21
-157.552
0
LINE
8
BLACK
6
CONTINUOUS
10
132.628
20
-157.552
11
132.438
21
-157.457
0
LINE
8
BLACK
6
CONTINUOUS
10
132.438
20
-157.457
11
132.152
21
-157.457
0
LINE
8
BLACK
6
CONTINUOUS
10
132.152
20
-157.457
11
131.961
21
-157.552
0
LINE
8
BLACK
6
CONTINUOUS
10
131.961
20
-157.552
11
131.866
21
-157.647
0
LINE
8
BLACK
6
CONTINUOUS
10
133.961
20
-158.79
11
133.771
21
-158.695
0
LINE
8
BLACK
6
CONTINUOUS
10
133.771
20
-158.695
11
133.676
21
-158.599
0
LINE
8
BLACK
6
CONTINUOUS
10
133.676
20
-158.599
11
133.58
21
-158.409
0
LINE
8
BLACK
6
CONTINUOUS
10
133.58
20
-158.409
11
133.58
21
-157.837
0
LINE
8
BLACK
6
CONTINUOUS
10
133.58
20
-157.837
11
133.676
21
-157.647
0
LINE
8
BLACK
6
CONTINUOUS
10
133.676
20
-157.647
11
133.771
21
-157.552
0
LINE
8
BLACK
6
CONTINUOUS
10
133.771
20
-157.552
11
133.961
21
-157.457
0
LINE
8
BLACK
6
CONTINUOUS
10
133.961
20
-157.457
11
134.247
21
-157.457
0
LINE
8
BLACK
6
CONTINUOUS
10
134.247
20
-157.457
11
134.438
21
-157.552
0
LINE
8
BLACK
6
CONTINUOUS
10
134.438
20
-157.552
11
134.533
21
-157.647
0
LINE
8
BLACK
6
CONTINUOUS
10
134.533
20
-157.647
11
134.628
21
-157.837
0
LINE
8
BLACK
6
CONTINUOUS
10
134.628
20
-157.837
11
134.628
21
-158.409
0
LINE
8
BLACK
6
CONTINUOUS
10
134.628
20
-158.409
11
134.533
21
-158.599
0
LINE
8
BLACK
6
CONTINUOUS
10
134.533
20
-158.599
11
134.438
21
-158.695
0
LINE
8
BLACK
6
CONTINUOUS
10
134.438
20
-158.695
11
134.247
21
-158.79
0
LINE
8
BLACK
6
CONTINUOUS
10
134.247
20
-158.79
11
133.961
21
-158.79
0
LINE
8
BLACK
6
CONTINUOUS
10
135.771
20
-158.79
11
135.58
21
-158.695
0
LINE
8
BLACK
6
CONTINUOUS
10
135.58
20
-158.695
11
135.485
21
-158.504
0
LINE
8
BLACK
6
CONTINUOUS
10
135.485
20
-158.504
11
135.485
21
-156.79
0
LINE
8
BLACK
6
CONTINUOUS
10
137.295
20
-158.695
11
137.104
21
-158.79
0
LINE
8
BLACK
6
CONTINUOUS
10
137.104
20
-158.79
11
136.723
21
-158.79
0
LINE
8
BLACK
6
CONTINUOUS
10
136.723
20
-158.79
11
136.533
21
-158.695
0
LINE
8
BLACK
6
CONTINUOUS
10
136.533
20
-158.695
11
136.438
21
-158.504
0
LINE
8
BLACK
6
CONTINUOUS
10
136.438
20
-158.504
11
136.438
21
-157.742
0
LINE
8
BLACK
6
CONTINUOUS
10
136.438
20
-157.742
11
136.533
21
-157.552
0
LINE
8
BLACK
6
CONTINUOUS
10
136.533
20
-157.552
11
136.723
21
-157.457
0
LINE
8
BLACK
6
CONTINUOUS
10
136.723
20
-157.457
11
137.104
21
-157.457
0
LINE
8
BLACK
6
CONTINUOUS
10
137.104
20
-157.457
11
137.295
21
-157.552
0
LINE
8
BLACK
6
CONTINUOUS
10
137.295
20
-157.552
11
137.39
21
-157.742
0
LINE
8
BLACK
6
CONTINUOUS
10
137.39
20
-157.742
11
137.39
21
-157.933
0
LINE
8
BLACK
6
CONTINUOUS
10
137.39
20
-157.933
11
136.438
21
-158.123
0
LINE
8
BLACK
6
CONTINUOUS
10
138.152
20
-158.695
11
138.342
21
-158.79
0
LINE
8
BLACK
6
CONTINUOUS
10
138.342
20
-158.79
11
138.723
21
-158.79
0
LINE
8
BLACK
6
CONTINUOUS
10
138.723
20
-158.79
11
138.914
21
-158.695
0
LINE
8
BLACK
6
CONTINUOUS
10
138.914
20
-158.695
11
139.009
21
-158.504
0
LINE
8
BLACK
6
CONTINUOUS
10
139.009
20
-158.504
11
139.009
21
-158.409
0
LINE
8
BLACK
6
CONTINUOUS
10
139.009
20
-158.409
11
138.914
21
-158.218
0
LINE
8
BLACK
6
CONTINUOUS
10
138.914
20
-158.218
11
138.723
21
-158.123
0
LINE
8
BLACK
6
CONTINUOUS
10
138.723
20
-158.123
11
138.438
21
-158.123
0
LINE
8
BLACK
6
CONTINUOUS
10
138.438
20
-158.123
11
138.247
21
-158.028
0
LINE
8
BLACK
6
CONTINUOUS
10
138.247
20
-158.028
11
138.152
21
-157.837
0
LINE
8
BLACK
6
CONTINUOUS
10
138.152
20
-157.837
11
138.152
21
-157.742
0
LINE
8
BLACK
6
CONTINUOUS
10
138.152
20
-157.742
11
138.247
21
-157.552
0
LINE
8
BLACK
6
CONTINUOUS
10
138.247
20
-157.552
11
138.438
21
-157.457
0
LINE
8
BLACK
6
CONTINUOUS
10
138.438
20
-157.457
11
138.723
21
-157.457
0
LINE
8
BLACK
6
CONTINUOUS
10
138.723
20
-157.457
11
138.914
21
-157.552
0
LINE
8
BLACK
6
CONTINUOUS
10
139.676
20
-159.552
11
139.771
21
-159.457
0
LINE
8
BLACK
6
CONTINUOUS
10
139.771
20
-159.457
11
139.961
21
-159.171
0
LINE
8
BLACK
6
CONTINUOUS
10
139.961
20
-159.171
11
140.057
21
-158.98
0
LINE
8
BLACK
6
CONTINUOUS
10
140.057
20
-158.98
11
140.152
21
-158.695
0
LINE
8
BLACK
6
CONTINUOUS
10
140.152
20
-158.695
11
140.247
21
-158.218
0
LINE
8
BLACK
6
CONTINUOUS
10
140.247
20
-158.218
11
140.247
21
-157.837
0
LINE
8
BLACK
6
CONTINUOUS
10
140.247
20
-157.837
11
140.152
21
-157.361
0
LINE
8
BLACK
6
CONTINUOUS
10
140.152
20
-157.361
11
140.057
21
-157.076
0
LINE
8
BLACK
6
CONTINUOUS
10
140.057
20
-157.076
11
139.961
21
-156.885
0
LINE
8
BLACK
6
CONTINUOUS
10
139.961
20
-156.885
11
139.771
21
-156.599
0
LINE
8
BLACK
6
CONTINUOUS
10
139.771
20
-156.599
11
139.676
21
-156.504
0
LINE
8
BLACK
6
CONTINUOUS
10
89.925
20
-159.515
11
91.925
21
-161.515
0
LINE
8
BLACK
6
CONTINUOUS
10
91.925
20
-159.515
11
89.925
21
-161.515
0
LINE
8
BLACK
6
CONTINUOUS
10
90.925
20
-159.515
11
90.925
21
-161.515
0
LINE
8
BLACK
6
CONTINUOUS
10
89.925
20
-160.515
11
91.925
21
-160.515
0
LINE
8
BLACK
6
CONTINUOUS
10
94.3423
20
-159.43
11
95.5804
21
-159.43
0
LINE
8
BLACK
6
CONTINUOUS
10
95.5804
20
-159.43
11
94.9137
21
-160.192
0
LINE
8
BLACK
6
CONTINUOUS
10
94.9137
20
-160.192
11
95.1994
21
-160.192
0
LINE
8
BLACK
6
CONTINUOUS
10
95.1994
20
-160.192
11
95.3899
21
-160.287
0
LINE
8
BLACK
6
CONTINUOUS
10
95.3899
20
-160.287
11
95.4851
21
-160.382
0
LINE
8
BLACK
6
CONTINUOUS
10
95.4851
20
-160.382
11
95.5804
21
-160.573
0
LINE
8
BLACK
6
CONTINUOUS
10
95.5804
20
-160.573
11
95.5804
21
-161.049
0
LINE
8
BLACK
6
CONTINUOUS
10
95.5804
20
-161.049
11
95.4851
21
-161.239
0
LINE
8
BLACK
6
CONTINUOUS
10
95.4851
20
-161.239
11
95.3899
21
-161.335
0
LINE
8
BLACK
6
CONTINUOUS
10
95.3899
20
-161.335
11
95.1994
21
-161.43
0
LINE
8
BLACK
6
CONTINUOUS
10
95.1994
20
-161.43
11
94.628
21
-161.43
0
LINE
8
BLACK
6
CONTINUOUS
10
94.628
20
-161.43
11
94.4375
21
-161.335
0
LINE
8
BLACK
6
CONTINUOUS
10
94.4375
20
-161.335
11
94.3423
21
-161.239
0
LINE
8
BLACK
6
CONTINUOUS
10
96.4375
20
-161.239
11
96.5328
21
-161.335
0
LINE
8
BLACK
6
CONTINUOUS
10
96.5328
20
-161.335
11
96.4375
21
-161.43
0
LINE
8
BLACK
6
CONTINUOUS
10
96.4375
20
-161.43
11
96.3423
21
-161.335
0
LINE
8
BLACK
6
CONTINUOUS
10
96.3423
20
-161.335
11
96.4375
21
-161.239
0
LINE
8
BLACK
6
CONTINUOUS
10
96.4375
20
-161.239
11
96.4375
21
-161.43
0
LINE
8
BLACK
6
CONTINUOUS
10
97.2947
20
-159.62
11
97.3899
21
-159.525
0
LINE
8
BLACK
6
CONTINUOUS
10
97.3899
20
-159.525
11
97.5804
21
-159.43
0
LINE
8
BLACK
6
CONTINUOUS
10
97.5804
20
-159.43
11
98.0566
21
-159.43
0
LINE
8
BLACK
6
CONTINUOUS
10
98.0566
20
-159.43
11
98.2471
21
-159.525
0
LINE
8
BLACK
6
CONTINUOUS
10
98.2471
20
-159.525
11
98.3423
21
-159.62
0
LINE
8
BLACK
6
CONTINUOUS
10
98.3423
20
-159.62
11
98.4375
21
-159.811
0
LINE
8
BLACK
6
CONTINUOUS
10
98.4375
20
-159.811
11
98.4375
21
-160.001
0
LINE
8
BLACK
6
CONTINUOUS
10
98.4375
20
-160.001
11
98.3423
21
-160.287
0
LINE
8
BLACK
6
CONTINUOUS
10
98.3423
20
-160.287
11
97.1994
21
-161.43
0
LINE
8
BLACK
6
CONTINUOUS
10
97.1994
20
-161.43
11
98.4375
21
-161.43
0
LINE
8
BLACK
6
CONTINUOUS
10
99.6756
20
-159.43
11
99.8661
21
-159.43
0
LINE
8
BLACK
6
CONTINUOUS
10
99.8661
20
-159.43
11
100.057
21
-159.525
0
LINE
8
BLACK
6
CONTINUOUS
10
100.057
20
-159.525
11
100.152
21
-159.62
0
LINE
8
BLACK
6
CONTINUOUS
10
100.152
20
-159.62
11
100.247
21
-159.811
0
LINE
8
BLACK
6
CONTINUOUS
10
100.247
20
-159.811
11
100.342
21
-160.192
0
LINE
8
BLACK
6
CONTINUOUS
10
100.342
20
-160.192
11
100.342
21
-160.668
0
LINE
8
BLACK
6
CONTINUOUS
10
100.342
20
-160.668
11
100.247
21
-161.049
0
LINE
8
BLACK
6
CONTINUOUS
10
100.247
20
-161.049
11
100.152
21
-161.239
0
LINE
8
BLACK
6
CONTINUOUS
10
100.152
20
-161.239
11
100.057
21
-161.335
0
LINE
8
BLACK
6
CONTINUOUS
10
100.057
20
-161.335
11
99.8661
21
-161.43
0
LINE
8
BLACK
6
CONTINUOUS
10
99.8661
20
-161.43
11
99.6756
21
-161.43
0
LINE
8
BLACK
6
CONTINUOUS
10
99.6756
20
-161.43
11
99.4851
21
-161.335
0
LINE
8
BLACK
6
CONTINUOUS
10
99.4851
20
-161.335
11
99.3899
21
-161.239
0
LINE
8
BLACK
6
CONTINUOUS
10
99.3899
20
-161.239
11
99.2947
21
-161.049
0
LINE
8
BLACK
6
CONTINUOUS
10
99.2947
20
-161.049
11
99.1994
21
-160.668
0
LINE
8
BLACK
6
CONTINUOUS
10
99.1994
20
-160.668
11
99.1994
21
-160.192
0
LINE
8
BLACK
6
CONTINUOUS
10
99.1994
20
-160.192
11
99.2947
21
-159.811
0
LINE
8
BLACK
6
CONTINUOUS
10
99.2947
20
-159.811
11
99.3899
21
-159.62
0
LINE
8
BLACK
6
CONTINUOUS
10
99.3899
20
-159.62
11
99.4851
21
-159.525
0
LINE
8
BLACK
6
CONTINUOUS
10
99.4851
20
-159.525
11
99.6756
21
-159.43
0
LINE
8
BLACK
6
CONTINUOUS
10
101.58
20
-159.43
11
101.771
21
-159.43
0
LINE
8
BLACK
6
CONTINUOUS
10
101.771
20
-159.43
11
101.961
21
-159.525
0
LINE
8
BLACK
6
CONTINUOUS
10
101.961
20
-159.525
11
102.057
21
-159.62
0
LINE
8
BLACK
6
CONTINUOUS
10
102.057
20
-159.62
11
102.152
21
-159.811
0
LINE
8
BLACK
6
CONTINUOUS
10
102.152
20
-159.811
11
102.247
21
-160.192
0
LINE
8
BLACK
6
CONTINUOUS
10
102.247
20
-160.192
11
102.247
21
-160.668
0
LINE
8
BLACK
6
CONTINUOUS
10
102.247
20
-160.668
11
102.152
21
-161.049
0
LINE
8
BLACK
6
CONTINUOUS
10
102.152
20
-161.049
11
102.057
21
-161.239
0
LINE
8
BLACK
6
CONTINUOUS
10
102.057
20
-161.239
11
101.961
21
-161.335
0
LINE
8
BLACK
6
CONTINUOUS
10
101.961
20
-161.335
11
101.771
21
-161.43
0
LINE
8
BLACK
6
CONTINUOUS
10
101.771
20
-161.43
11
101.58
21
-161.43
0
LINE
8
BLACK
6
CONTINUOUS
10
101.58
20
-161.43
11
101.39
21
-161.335
0
LINE
8
BLACK
6
CONTINUOUS
10
101.39
20
-161.335
11
101.295
21
-161.239
0
LINE
8
BLACK
6
CONTINUOUS
10
101.295
20
-161.239
11
101.199
21
-161.049
0
LINE
8
BLACK
6
CONTINUOUS
10
101.199
20
-161.049
11
101.104
21
-160.668
0
LINE
8
BLACK
6
CONTINUOUS
10
101.104
20
-160.668
11
101.104
21
-160.192
0
LINE
8
BLACK
6
CONTINUOUS
10
101.104
20
-160.192
11
101.199
21
-159.811
0
LINE
8
BLACK
6
CONTINUOUS
10
101.199
20
-159.811
11
101.295
21
-159.62
0
LINE
8
BLACK
6
CONTINUOUS
10
101.295
20
-159.62
11
101.39
21
-159.525
0
LINE
8
BLACK
6
CONTINUOUS
10
101.39
20
-159.525
11
101.58
21
-159.43
0
LINE
8
BLACK
6
CONTINUOUS
10
103.104
20
-161.43
11
103.104
21
-160.097
0
LINE
8
BLACK
6
CONTINUOUS
10
103.104
20
-160.287
11
103.199
21
-160.192
0
LINE
8
BLACK
6
CONTINUOUS
10
103.199
20
-160.192
11
103.39
21
-160.097
0
LINE
8
BLACK
6
CONTINUOUS
10
103.39
20
-160.097
11
103.676
21
-160.097
0
LINE
8
BLACK
6
CONTINUOUS
10
103.676
20
-160.097
11
103.866
21
-160.192
0
LINE
8
BLACK
6
CONTINUOUS
10
103.866
20
-160.192
11
103.961
21
-160.382
0
LINE
8
BLACK
6
CONTINUOUS
10
103.961
20
-160.382
11
103.961
21
-161.43
0
LINE
8
BLACK
6
CONTINUOUS
10
103.961
20
-160.382
11
104.057
21
-160.192
0
LINE
8
BLACK
6
CONTINUOUS
10
104.057
20
-160.192
11
104.247
21
-160.097
0
LINE
8
BLACK
6
CONTINUOUS
10
104.247
20
-160.097
11
104.533
21
-160.097
0
LINE
8
BLACK
6
CONTINUOUS
10
104.533
20
-160.097
11
104.723
21
-160.192
0
LINE
8
BLACK
6
CONTINUOUS
10
104.723
20
-160.192
11
104.818
21
-160.382
0
LINE
8
BLACK
6
CONTINUOUS
10
104.818
20
-160.382
11
104.818
21
-161.43
0
LINE
8
BLACK
6
CONTINUOUS
10
105.771
20
-161.43
11
105.771
21
-160.097
0
LINE
8
BLACK
6
CONTINUOUS
10
105.771
20
-160.287
11
105.866
21
-160.192
0
LINE
8
BLACK
6
CONTINUOUS
10
105.866
20
-160.192
11
106.057
21
-160.097
0
LINE
8
BLACK
6
CONTINUOUS
10
106.057
20
-160.097
11
106.342
21
-160.097
0
LINE
8
BLACK
6
CONTINUOUS
10
106.342
20
-160.097
11
106.533
21
-160.192
0
LINE
8
BLACK
6
CONTINUOUS
10
106.533
20
-160.192
11
106.628
21
-160.382
0
LINE
8
BLACK
6
CONTINUOUS
10
106.628
20
-160.382
11
106.628
21
-161.43
0
LINE
8
BLACK
6
CONTINUOUS
10
106.628
20
-160.382
11
106.723
21
-160.192
0
LINE
8
BLACK
6
CONTINUOUS
10
106.723
20
-160.192
11
106.914
21
-160.097
0
LINE
8
BLACK
6
CONTINUOUS
10
106.914
20
-160.097
11
107.199
21
-160.097
0
LINE
8
BLACK
6
CONTINUOUS
10
107.199
20
-160.097
11
107.39
21
-160.192
0
LINE
8
BLACK
6
CONTINUOUS
10
107.39
20
-160.192
11
107.485
21
-160.382
0
LINE
8
BLACK
6
CONTINUOUS
10
107.485
20
-160.382
11
107.485
21
-161.43
0
LINE
8
BLACK
6
CONTINUOUS
10
111.39
20
-159.335
11
109.676
21
-161.906
0
LINE
8
BLACK
6
CONTINUOUS
10
113.961
20
-159.43
11
114.152
21
-159.43
0
LINE
8
BLACK
6
CONTINUOUS
10
114.152
20
-159.43
11
114.342
21
-159.525
0
LINE
8
BLACK
6
CONTINUOUS
10
114.342
20
-159.525
11
114.438
21
-159.62
0
LINE
8
BLACK
6
CONTINUOUS
10
114.438
20
-159.62
11
114.533
21
-159.811
0
LINE
8
BLACK
6
CONTINUOUS
10
114.533
20
-159.811
11
114.628
21
-160.192
0
LINE
8
BLACK
6
CONTINUOUS
10
114.628
20
-160.192
11
114.628
21
-160.668
0
LINE
8
BLACK
6
CONTINUOUS
10
114.628
20
-160.668
11
114.533
21
-161.049
0
LINE
8
BLACK
6
CONTINUOUS
10
114.533
20
-161.049
11
114.438
21
-161.239
0
LINE
8
BLACK
6
CONTINUOUS
10
114.438
20
-161.239
11
114.342
21
-161.335
0
LINE
8
BLACK
6
CONTINUOUS
10
114.342
20
-161.335
11
114.152
21
-161.43
0
LINE
8
BLACK
6
CONTINUOUS
10
114.152
20
-161.43
11
113.961
21
-161.43
0
LINE
8
BLACK
6
CONTINUOUS
10
113.961
20
-161.43
11
113.771
21
-161.335
0
LINE
8
BLACK
6
CONTINUOUS
10
113.771
20
-161.335
11
113.676
21
-161.239
0
LINE
8
BLACK
6
CONTINUOUS
10
113.676
20
-161.239
11
113.58
21
-161.049
0
LINE
8
BLACK
6
CONTINUOUS
10
113.58
20
-161.049
11
113.485
21
-160.668
0
LINE
8
BLACK
6
CONTINUOUS
10
113.485
20
-160.668
11
113.485
21
-160.192
0
LINE
8
BLACK
6
CONTINUOUS
10
113.485
20
-160.192
11
113.58
21
-159.811
0
LINE
8
BLACK
6
CONTINUOUS
10
113.58
20
-159.811
11
113.676
21
-159.62
0
LINE
8
BLACK
6
CONTINUOUS
10
113.676
20
-159.62
11
113.771
21
-159.525
0
LINE
8
BLACK
6
CONTINUOUS
10
113.771
20
-159.525
11
113.961
21
-159.43
0
LINE
8
BLACK
6
CONTINUOUS
10
115.485
20
-161.239
11
115.58
21
-161.335
0
LINE
8
BLACK
6
CONTINUOUS
10
115.58
20
-161.335
11
115.485
21
-161.43
0
LINE
8
BLACK
6
CONTINUOUS
10
115.485
20
-161.43
11
115.39
21
-161.335
0
LINE
8
BLACK
6
CONTINUOUS
10
115.39
20
-161.335
11
115.485
21
-161.239
0
LINE
8
BLACK
6
CONTINUOUS
10
115.485
20
-161.239
11
115.485
21
-161.43
0
LINE
8
BLACK
6
CONTINUOUS
10
117.485
20
-161.43
11
116.342
21
-161.43
0
LINE
8
BLACK
6
CONTINUOUS
10
116.914
20
-161.43
11
116.914
21
-159.43
0
LINE
8
BLACK
6
CONTINUOUS
10
116.914
20
-159.43
11
116.723
21
-159.716
0
LINE
8
BLACK
6
CONTINUOUS
10
116.723
20
-159.716
11
116.533
21
-159.906
0
LINE
8
BLACK
6
CONTINUOUS
10
116.533
20
-159.906
11
116.342
21
-160.001
0
LINE
8
BLACK
6
CONTINUOUS
10
118.247
20
-159.62
11
118.342
21
-159.525
0
LINE
8
BLACK
6
CONTINUOUS
10
118.342
20
-159.525
11
118.533
21
-159.43
0
LINE
8
BLACK
6
CONTINUOUS
10
118.533
20
-159.43
11
119.009
21
-159.43
0
LINE
8
BLACK
6
CONTINUOUS
10
119.009
20
-159.43
11
119.199
21
-159.525
0
LINE
8
BLACK
6
CONTINUOUS
10
119.199
20
-159.525
11
119.295
21
-159.62
0
LINE
8
BLACK
6
CONTINUOUS
10
119.295
20
-159.62
11
119.39
21
-159.811
0
LINE
8
BLACK
6
CONTINUOUS
10
119.39
20
-159.811
11
119.39
21
-160.001
0
LINE
8
BLACK
6
CONTINUOUS
10
119.39
20
-160.001
11
119.295
21
-160.287
0
LINE
8
BLACK
6
CONTINUOUS
10
119.295
20
-160.287
11
118.152
21
-161.43
0
LINE
8
BLACK
6
CONTINUOUS
10
118.152
20
-161.43
11
119.39
21
-161.43
0
LINE
8
BLACK
6
CONTINUOUS
10
121.104
20
-159.43
11
120.723
21
-159.43
0
LINE
8
BLACK
6
CONTINUOUS
10
120.723
20
-159.43
11
120.533
21
-159.525
0
LINE
8
BLACK
6
CONTINUOUS
10
120.533
20
-159.525
11
120.438
21
-159.62
0
LINE
8
BLACK
6
CONTINUOUS
10
120.438
20
-159.62
11
120.247
21
-159.906
0
LINE
8
BLACK
6
CONTINUOUS
10
120.247
20
-159.906
11
120.152
21
-160.287
0
LINE
8
BLACK
6
CONTINUOUS
10
120.152
20
-160.287
11
120.152
21
-161.049
0
LINE
8
BLACK
6
CONTINUOUS
10
120.152
20
-161.049
11
120.247
21
-161.239
0
LINE
8
BLACK
6
CONTINUOUS
10
120.247
20
-161.239
11
120.342
21
-161.335
0
LINE
8
BLACK
6
CONTINUOUS
10
120.342
20
-161.335
11
120.533
21
-161.43
0
LINE
8
BLACK
6
CONTINUOUS
10
120.533
20
-161.43
11
120.914
21
-161.43
0
LINE
8
BLACK
6
CONTINUOUS
10
120.914
20
-161.43
11
121.104
21
-161.335
0
LINE
8
BLACK
6
CONTINUOUS
10
121.104
20
-161.335
11
121.199
21
-161.239
0
LINE
8
BLACK
6
CONTINUOUS
10
121.199
20
-161.239
11
121.295
21
-161.049
0
LINE
8
BLACK
6
CONTINUOUS
10
121.295
20
-161.049
11
121.295
21
-160.573
0
LINE
8
BLACK
6
CONTINUOUS
10
121.295
20
-160.573
11
121.199
21
-160.382
0
LINE
8
BLACK
6
CONTINUOUS
10
121.199
20
-160.382
11
121.104
21
-160.287
0
LINE
8
BLACK
6
CONTINUOUS
10
121.104
20
-160.287
11
120.914
21
-160.192
0
LINE
8
BLACK
6
CONTINUOUS
10
120.914
20
-160.192
11
120.533
21
-160.192
0
LINE
8
BLACK
6
CONTINUOUS
10
120.533
20
-160.192
11
120.342
21
-160.287
0
LINE
8
BLACK
6
CONTINUOUS
10
120.342
20
-160.287
11
120.247
21
-160.382
0
LINE
8
BLACK
6
CONTINUOUS
10
120.247
20
-160.382
11
120.152
21
-160.573
0
LINE
8
BLACK
6
CONTINUOUS
10
122.533
20
-159.43
11
122.723
21
-159.43
0
LINE
8
BLACK
6
CONTINUOUS
10
122.723
20
-159.43
11
122.914
21
-159.525
0
LINE
8
BLACK
6
CONTINUOUS
10
122.914
20
-159.525
11
123.009
21
-159.62
0
LINE
8
BLACK
6
CONTINUOUS
10
123.009
20
-159.62
11
123.104
21
-159.811
0
LINE
8
BLACK
6
CONTINUOUS
10
123.104
20
-159.811
11
123.199
21
-160.192
0
LINE
8
BLACK
6
CONTINUOUS
10
123.199
20
-160.192
11
123.199
21
-160.668
0
LINE
8
BLACK
6
CONTINUOUS
10
123.199
20
-160.668
11
123.104
21
-161.049
0
LINE
8
BLACK
6
CONTINUOUS
10
123.104
20
-161.049
11
123.009
21
-161.239
0
LINE
8
BLACK
6
CONTINUOUS
10
123.009
20
-161.239
11
122.914
21
-161.335
0
LINE
8
BLACK
6
CONTINUOUS
10
122.914
20
-161.335
11
122.723
21
-161.43
0
LINE
8
BLACK
6
CONTINUOUS
10
122.723
20
-161.43
11
122.533
21
-161.43
0
LINE
8
BLACK
6
CONTINUOUS
10
122.533
20
-161.43
11
122.342
21
-161.335
0
LINE
8
BLACK
6
CONTINUOUS
10
122.342
20
-161.335
11
122.247
21
-161.239
0
LINE
8
BLACK
6
CONTINUOUS
10
122.247
20
-161.239
11
122.152
21
-161.049
0
LINE
8
BLACK
6
CONTINUOUS
10
122.152
20
-161.049
11
122.057
21
-160.668
0
LINE
8
BLACK
6
CONTINUOUS
10
122.057
20
-160.668
11
122.057
21
-160.192
0
LINE
8
BLACK
6
CONTINUOUS
10
122.057
20
-160.192
11
122.152
21
-159.811
0
LINE
8
BLACK
6
CONTINUOUS
10
122.152
20
-159.811
11
122.247
21
-159.62
0
LINE
8
BLACK
6
CONTINUOUS
10
122.247
20
-159.62
11
122.342
21
-159.525
0
LINE
8
BLACK
6
CONTINUOUS
10
122.342
20
-159.525
11
122.533
21
-159.43
0
LINE
8
BLACK
6
CONTINUOUS
10
123.961
20
-159.43
11
123.961
21
-159.811
0
LINE
8
BLACK
6
CONTINUOUS
10
124.723
20
-159.43
11
124.723
21
-159.811
0
LINE
8
BLACK
6
CONTINUOUS
10
127.676
20
-162.192
11
127.58
21
-162.097
0
LINE
8
BLACK
6
CONTINUOUS
10
127.58
20
-162.097
11
127.39
21
-161.811
0
LINE
8
BLACK
6
CONTINUOUS
10
127.39
20
-161.811
11
127.295
21
-161.62
0
LINE
8
BLACK
6
CONTINUOUS
10
127.295
20
-161.62
11
127.199
21
-161.335
0
LINE
8
BLACK
6
CONTINUOUS
10
127.199
20
-161.335
11
127.104
21
-160.858
0
LINE
8
BLACK
6
CONTINUOUS
10
127.104
20
-160.858
11
127.104
21
-160.477
0
LINE
8
BLACK
6
CONTINUOUS
10
127.104
20
-160.477
11
127.199
21
-160.001
0
LINE
8
BLACK
6
CONTINUOUS
10
127.199
20
-160.001
11
127.295
21
-159.716
0
LINE
8
BLACK
6
CONTINUOUS
10
127.295
20
-159.716
11
127.39
21
-159.525
0
LINE
8
BLACK
6
CONTINUOUS
10
127.39
20
-159.525
11
127.58
21
-159.239
0
LINE
8
BLACK
6
CONTINUOUS
10
127.58
20
-159.239
11
127.676
21
-159.144
0
LINE
8
BLACK
6
CONTINUOUS
10
129.485
20
-161.43
11
128.342
21
-161.43
0
LINE
8
BLACK
6
CONTINUOUS
10
128.914
20
-161.43
11
128.914
21
-159.43
0
LINE
8
BLACK
6
CONTINUOUS
10
128.914
20
-159.43
11
128.723
21
-159.716
0
LINE
8
BLACK
6
CONTINUOUS
10
128.723
20
-159.716
11
128.533
21
-159.906
0
LINE
8
BLACK
6
CONTINUOUS
10
128.533
20
-159.906
11
128.342
21
-160.001
0
LINE
8
BLACK
6
CONTINUOUS
10
131.866
20
-161.43
11
131.866
21
-159.43
0
LINE
8
BLACK
6
CONTINUOUS
10
132.723
20
-161.43
11
132.723
21
-160.382
0
LINE
8
BLACK
6
CONTINUOUS
10
132.723
20
-160.382
11
132.628
21
-160.192
0
LINE
8
BLACK
6
CONTINUOUS
10
132.628
20
-160.192
11
132.438
21
-160.097
0
LINE
8
BLACK
6
CONTINUOUS
10
132.438
20
-160.097
11
132.152
21
-160.097
0
LINE
8
BLACK
6
CONTINUOUS
10
132.152
20
-160.097
11
131.961
21
-160.192
0
LINE
8
BLACK
6
CONTINUOUS
10
131.961
20
-160.192
11
131.866
21
-160.287
0
LINE
8
BLACK
6
CONTINUOUS
10
133.961
20
-161.43
11
133.771
21
-161.335
0
LINE
8
BLACK
6
CONTINUOUS
10
133.771
20
-161.335
11
133.676
21
-161.239
0
LINE
8
BLACK
6
CONTINUOUS
10
133.676
20
-161.239
11
133.58
21
-161.049
0
LINE
8
BLACK
6
CONTINUOUS
10
133.58
20
-161.049
11
133.58
21
-160.477
0
LINE
8
BLACK
6
CONTINUOUS
10
133.58
20
-160.477
11
133.676
21
-160.287
0
LINE
8
BLACK
6
CONTINUOUS
10
133.676
20
-160.287
11
133.771
21
-160.192
0
LINE
8
BLACK
6
CONTINUOUS
10
133.771
20
-160.192
11
133.961
21
-160.097
0
LINE
8
BLACK
6
CONTINUOUS
10
133.961
20
-160.097
11
134.247
21
-160.097
0
LINE
8
BLACK
6
CONTINUOUS
10
134.247
20
-160.097
11
134.438
21
-160.192
0
LINE
8
BLACK
6
CONTINUOUS
10
134.438
20
-160.192
11
134.533
21
-160.287
0
LINE
8
BLACK
6
CONTINUOUS
10
134.533
20
-160.287
11
134.628
21
-160.477
0
LINE
8
BLACK
6
CONTINUOUS
10
134.628
20
-160.477
11
134.628
21
-161.049
0
LINE
8
BLACK
6
CONTINUOUS
10
134.628
20
-161.049
11
134.533
21
-161.239
0
LINE
8
BLACK
6
CONTINUOUS
10
134.533
20
-161.239
11
134.438
21
-161.335
0
LINE
8
BLACK
6
CONTINUOUS
10
134.438
20
-161.335
11
134.247
21
-161.43
0
LINE
8
BLACK
6
CONTINUOUS
10
134.247
20
-161.43
11
133.961
21
-161.43
0
LINE
8
BLACK
6
CONTINUOUS
10
135.771
20
-161.43
11
135.58
21
-161.335
0
LINE
8
BLACK
6
CONTINUOUS
10
135.58
20
-161.335
11
135.485
21
-161.144
0
LINE
8
BLACK
6
CONTINUOUS
10
135.485
20
-161.144
11
135.485
21
-159.43
0
LINE
8
BLACK
6
CONTINUOUS
10
137.295
20
-161.335
11
137.104
21
-161.43
0
LINE
8
BLACK
6
CONTINUOUS
10
137.104
20
-161.43
11
136.723
21
-161.43
0
LINE
8
BLACK
6
CONTINUOUS
10
136.723
20
-161.43
11
136.533
21
-161.335
0
LINE
8
BLACK
6
CONTINUOUS
10
136.533
20
-161.335
11
136.438
21
-161.144
0
LINE
8
BLACK
6
CONTINUOUS
10
136.438
20
-161.144
11
136.438
21
-160.382
0
LINE
8
BLACK
6
CONTINUOUS
10
136.438
20
-160.382
11
136.533
21
-160.192
0
LINE
8
BLACK
6
CONTINUOUS
10
136.533
20
-160.192
11
136.723
21
-160.097
0
LINE
8
BLACK
6
CONTINUOUS
10
136.723
20
-160.097
11
137.104
21
-160.097
0
LINE
8
BLACK
6
CONTINUOUS
10
137.104
20
-160.097
11
137.295
21
-160.192
0
LINE
8
BLACK
6
CONTINUOUS
10
137.295
20
-160.192
11
137.39
21
-160.382
0
LINE
8
BLACK
6
CONTINUOUS
10
137.39
20
-160.382
11
137.39
21
-160.573
0
LINE
8
BLACK
6
CONTINUOUS
10
137.39
20
-160.573
11
136.438
21
-160.763
0
LINE
8
BLACK
6
CONTINUOUS
10
138.057
20
-162.192
11
138.152
21
-162.097
0
LINE
8
BLACK
6
CONTINUOUS
10
138.152
20
-162.097
11
138.342
21
-161.811
0
LINE
8
BLACK
6
CONTINUOUS
10
138.342
20
-161.811
11
138.438
21
-161.62
0
LINE
8
BLACK
6
CONTINUOUS
10
138.438
20
-161.62
11
138.533
21
-161.335
0
LINE
8
BLACK
6
CONTINUOUS
10
138.533
20
-161.335
11
138.628
21
-160.858
0
LINE
8
BLACK
6
CONTINUOUS
10
138.628
20
-160.858
11
138.628
21
-160.477
0
LINE
8
BLACK
6
CONTINUOUS
10
138.628
20
-160.477
11
138.533
21
-160.001
0
LINE
8
BLACK
6
CONTINUOUS
10
138.533
20
-160.001
11
138.438
21
-159.716
0
LINE
8
BLACK
6
CONTINUOUS
10
138.438
20
-159.716
11
138.342
21
-159.525
0
LINE
8
BLACK
6
CONTINUOUS
10
138.342
20
-159.525
11
138.152
21
-159.239
0
LINE
8
BLACK
6
CONTINUOUS
10
138.152
20
-159.239
11
138.057
21
-159.144
  0
ENDSEC
  0
EOF
