  0
SECTION
  2
HEADER
  9
$ANGBASE
  50
0.0
  9
$ANGDIR
  70
1
  9
$MEASUREMENT
  70
1
  0
ENDSEC
  0
SECTION
  2
TABLES
  0
TABLE
  2
LTYPE
  70
4
  0
LTYPE
  5
40F
  2
CONTINUOUS
  70
0
  3
Solid line
  72
65
  73
0
  40
0.0
  0
LTYPE
  5
410
  2
DASHDOT
 70
0
  3
Dash Dot ____ _ ____ _
 72
65
 73
4
 40
2.0
 49
1.25
 49
-0.25
 49
0.25
 49
-0.25
  0
LTYPE
  5
411
  2
DASHED
 70
0
  3
Dashed __ __ __ __ __
 72
65
 73
2
 40
0.75
 49
0.5
 49
-0.25
  0
LTYPE
  5
43B
  2
DOTTED
 70
0
  3
Dotted .  .  .  .
 72
65
 73
2
 40
0.2
 49
0.0
 49
-0.2
  0
ENDTAB
  0
TABLE
  2
STYLE
  70
4
  0
STYLE
  2
KICAD
  70
0
  40
0
  41
1
  42
1
  50
0
  71
0
  3
isocp.shx
  0
STYLE
  2
KICADB
  70
0
  40
0
  41
1
  42
1
  50
0
  71
0
  3
isocp.shx
  0
STYLE
  2
KICADI
  70
0
  40
0
  41
1
  42
1
  50
15
  71
0
  3
isocp.shx
  0
STYLE
  2
KICADBI
  70
0
  40
0
  41
1
  42
1
  50
15
  71
0
  3
isocp.shx
  0
ENDTAB
  0
TABLE
  2
LAYER
  70
1
  0
LAYER
  2
BLACK
  70
0
  62
7
  6
CONTINUOUS
  0
ENDTAB
  0
ENDSEC
  0
SECTION
  2
ENTITIES
0
LINE
8
BLACK
6
CONTINUOUS
10
122.044
20
-88.12
11
121.992
21
-138.2
0
LINE
8
BLACK
6
CONTINUOUS
10
92.052
20
-88.12
11
122.044
21
-88.12
0
LINE
8
BLACK
6
CONTINUOUS
10
92
20
-138.2
11
92.052
21
-88.12
0
LINE
8
BLACK
6
CONTINUOUS
10
121.992
20
-138.2
11
92
21
-138.2
0
LINE
8
BLACK
6
CONTINUOUS
10
94.5328
20
-141.39
11
94.5328
21
-139.39
0
LINE
8
BLACK
6
CONTINUOUS
10
94.5328
20
-139.39
11
95.009
21
-139.39
0
LINE
8
BLACK
6
CONTINUOUS
10
95.009
20
-139.39
11
95.2947
21
-139.485
0
LINE
8
BLACK
6
CONTINUOUS
10
95.2947
20
-139.485
11
95.4851
21
-139.676
0
LINE
8
BLACK
6
CONTINUOUS
10
95.4851
20
-139.676
11
95.5804
21
-139.866
0
LINE
8
BLACK
6
CONTINUOUS
10
95.5804
20
-139.866
11
95.6756
21
-140.247
0
LINE
8
BLACK
6
CONTINUOUS
10
95.6756
20
-140.247
11
95.6756
21
-140.533
0
LINE
8
BLACK
6
CONTINUOUS
10
95.6756
20
-140.533
11
95.5804
21
-140.914
0
LINE
8
BLACK
6
CONTINUOUS
10
95.5804
20
-140.914
11
95.4851
21
-141.104
0
LINE
8
BLACK
6
CONTINUOUS
10
95.4851
20
-141.104
11
95.2947
21
-141.295
0
LINE
8
BLACK
6
CONTINUOUS
10
95.2947
20
-141.295
11
95.009
21
-141.39
0
LINE
8
BLACK
6
CONTINUOUS
10
95.009
20
-141.39
11
94.5328
21
-141.39
0
LINE
8
BLACK
6
CONTINUOUS
10
96.5328
20
-141.39
11
96.5328
21
-140.057
0
LINE
8
BLACK
6
CONTINUOUS
10
96.5328
20
-140.437
11
96.628
21
-140.247
0
LINE
8
BLACK
6
CONTINUOUS
10
96.628
20
-140.247
11
96.7232
21
-140.152
0
LINE
8
BLACK
6
CONTINUOUS
10
96.7232
20
-140.152
11
96.9137
21
-140.057
0
LINE
8
BLACK
6
CONTINUOUS
10
96.9137
20
-140.057
11
97.1042
21
-140.057
0
LINE
8
BLACK
6
CONTINUOUS
10
97.7709
20
-141.39
11
97.7709
21
-140.057
0
LINE
8
BLACK
6
CONTINUOUS
10
97.7709
20
-139.39
11
97.6756
21
-139.485
0
LINE
8
BLACK
6
CONTINUOUS
10
97.6756
20
-139.485
11
97.7709
21
-139.58
0
LINE
8
BLACK
6
CONTINUOUS
10
97.7709
20
-139.58
11
97.8661
21
-139.485
0
LINE
8
BLACK
6
CONTINUOUS
10
97.8661
20
-139.485
11
97.7709
21
-139.39
0
LINE
8
BLACK
6
CONTINUOUS
10
97.7709
20
-139.39
11
97.7709
21
-139.58
0
LINE
8
BLACK
6
CONTINUOUS
10
99.009
20
-141.39
11
98.8185
21
-141.295
0
LINE
8
BLACK
6
CONTINUOUS
10
98.8185
20
-141.295
11
98.7232
21
-141.104
0
LINE
8
BLACK
6
CONTINUOUS
10
98.7232
20
-141.104
11
98.7232
21
-139.39
0
LINE
8
BLACK
6
CONTINUOUS
10
100.057
20
-141.39
11
99.8661
21
-141.295
0
LINE
8
BLACK
6
CONTINUOUS
10
99.8661
20
-141.295
11
99.7709
21
-141.104
0
LINE
8
BLACK
6
CONTINUOUS
10
99.7709
20
-141.104
11
99.7709
21
-139.39
0
LINE
8
BLACK
6
CONTINUOUS
10
102.342
20
-141.39
11
102.342
21
-139.39
0
LINE
8
BLACK
6
CONTINUOUS
10
102.342
20
-139.39
11
103.009
21
-140.818
0
LINE
8
BLACK
6
CONTINUOUS
10
103.009
20
-140.818
11
103.676
21
-139.39
0
LINE
8
BLACK
6
CONTINUOUS
10
103.676
20
-139.39
11
103.676
21
-141.39
0
LINE
8
BLACK
6
CONTINUOUS
10
105.485
20
-141.39
11
105.485
21
-140.342
0
LINE
8
BLACK
6
CONTINUOUS
10
105.485
20
-140.342
11
105.39
21
-140.152
0
LINE
8
BLACK
6
CONTINUOUS
10
105.39
20
-140.152
11
105.199
21
-140.057
0
LINE
8
BLACK
6
CONTINUOUS
10
105.199
20
-140.057
11
104.818
21
-140.057
0
LINE
8
BLACK
6
CONTINUOUS
10
104.818
20
-140.057
11
104.628
21
-140.152
0
LINE
8
BLACK
6
CONTINUOUS
10
105.485
20
-141.295
11
105.295
21
-141.39
0
LINE
8
BLACK
6
CONTINUOUS
10
105.295
20
-141.39
11
104.818
21
-141.39
0
LINE
8
BLACK
6
CONTINUOUS
10
104.818
20
-141.39
11
104.628
21
-141.295
0
LINE
8
BLACK
6
CONTINUOUS
10
104.628
20
-141.295
11
104.533
21
-141.104
0
LINE
8
BLACK
6
CONTINUOUS
10
104.533
20
-141.104
11
104.533
21
-140.914
0
LINE
8
BLACK
6
CONTINUOUS
10
104.533
20
-140.914
11
104.628
21
-140.723
0
LINE
8
BLACK
6
CONTINUOUS
10
104.628
20
-140.723
11
104.818
21
-140.628
0
LINE
8
BLACK
6
CONTINUOUS
10
104.818
20
-140.628
11
105.295
21
-140.628
0
LINE
8
BLACK
6
CONTINUOUS
10
105.295
20
-140.628
11
105.485
21
-140.533
0
LINE
8
BLACK
6
CONTINUOUS
10
106.438
20
-140.057
11
106.438
21
-142.057
0
LINE
8
BLACK
6
CONTINUOUS
10
106.438
20
-140.152
11
106.628
21
-140.057
0
LINE
8
BLACK
6
CONTINUOUS
10
106.628
20
-140.057
11
107.009
21
-140.057
0
LINE
8
BLACK
6
CONTINUOUS
10
107.009
20
-140.057
11
107.199
21
-140.152
0
LINE
8
BLACK
6
CONTINUOUS
10
107.199
20
-140.152
11
107.295
21
-140.247
0
LINE
8
BLACK
6
CONTINUOUS
10
107.295
20
-140.247
11
107.39
21
-140.437
0
LINE
8
BLACK
6
CONTINUOUS
10
107.39
20
-140.437
11
107.39
21
-141.009
0
LINE
8
BLACK
6
CONTINUOUS
10
107.39
20
-141.009
11
107.295
21
-141.199
0
LINE
8
BLACK
6
CONTINUOUS
10
107.295
20
-141.199
11
107.199
21
-141.295
0
LINE
8
BLACK
6
CONTINUOUS
10
107.199
20
-141.295
11
107.009
21
-141.39
0
LINE
8
BLACK
6
CONTINUOUS
10
107.009
20
-141.39
11
106.628
21
-141.39
0
LINE
8
BLACK
6
CONTINUOUS
10
106.628
20
-141.39
11
106.438
21
-141.295
0
LINE
8
BLACK
6
CONTINUOUS
10
108.247
20
-141.199
11
108.342
21
-141.295
0
LINE
8
BLACK
6
CONTINUOUS
10
108.342
20
-141.295
11
108.247
21
-141.39
0
LINE
8
BLACK
6
CONTINUOUS
10
108.247
20
-141.39
11
108.152
21
-141.295
0
LINE
8
BLACK
6
CONTINUOUS
10
108.152
20
-141.295
11
108.247
21
-141.199
0
LINE
8
BLACK
6
CONTINUOUS
10
108.247
20
-141.199
11
108.247
21
-141.39
0
LINE
8
BLACK
6
CONTINUOUS
10
108.247
20
-140.152
11
108.342
21
-140.247
0
LINE
8
BLACK
6
CONTINUOUS
10
108.342
20
-140.247
11
108.247
21
-140.342
0
LINE
8
BLACK
6
CONTINUOUS
10
108.247
20
-140.342
11
108.152
21
-140.247
0
LINE
8
BLACK
6
CONTINUOUS
10
108.152
20
-140.247
11
108.247
21
-140.152
0
LINE
8
BLACK
6
CONTINUOUS
10
108.247
20
-140.152
11
108.247
21
-140.342
  0
ENDSEC
  0
EOF
