%TF.GenerationSoftware,KiCad,Pcbnew,7.0.8*%
%TF.CreationDate,2023-10-14T20:08:01+02:00*%
%TF.ProjectId,LCRDT-Tester,4c435244-542d-4546-9573-7465722e6b69,0.3*%
%TF.SameCoordinates,Original*%
%TF.FileFunction,Plated,1,2,PTH,Drill*%
%TF.FilePolarity,Positive*%
%FSLAX46Y46*%
G04 Gerber Fmt 4.6, Leading zero omitted, Abs format (unit mm)*
G04 Created by KiCad (PCBNEW 7.0.8) date 2023-10-14 20:08:01*
%MOMM*%
%LPD*%
G01*
G04 APERTURE LIST*
%TA.AperFunction,ViaDrill*%
%ADD10C,0.400000*%
%TD*%
%TA.AperFunction,ComponentDrill*%
%ADD11C,0.700000*%
%TD*%
%TA.AperFunction,ComponentDrill*%
%ADD12C,0.800000*%
%TD*%
%TA.AperFunction,ComponentDrill*%
%ADD13C,1.000000*%
%TD*%
%TA.AperFunction,ComponentDrill*%
%ADD14C,1.100000*%
%TD*%
%TA.AperFunction,ComponentDrill*%
%ADD15C,1.300000*%
%TD*%
%TA.AperFunction,ComponentDrill*%
%ADD16C,3.200000*%
%TD*%
G04 APERTURE END LIST*
D10*
X93782000Y-136980000D03*
X107222000Y-114050000D03*
X120232000Y-89950000D03*
X120302000Y-137050000D03*
D11*
%TO.C,R4*%
X107796000Y-101530000D03*
%TO.C,R1*%
X107796000Y-110520000D03*
%TO.C,R6*%
X107810000Y-94590000D03*
%TO.C,R5*%
X107812000Y-98310000D03*
%TO.C,R2*%
X107826500Y-107640000D03*
%TO.C,R3*%
X107880500Y-104890000D03*
%TO.C,R4*%
X115416000Y-101530000D03*
%TO.C,R1*%
X115416000Y-110520000D03*
%TO.C,R6*%
X115430000Y-94590000D03*
%TO.C,R5*%
X115432000Y-98310000D03*
%TO.C,R2*%
X115446500Y-107640000D03*
%TO.C,R3*%
X115500500Y-104890000D03*
D12*
%TO.C,C1*%
X96342000Y-96300000D03*
X96342000Y-101300000D03*
D13*
%TO.C,J1*%
X96260500Y-104540000D03*
X96260500Y-107080000D03*
X96260500Y-109620000D03*
%TO.C,J2*%
X96341000Y-114730000D03*
X96341000Y-117270000D03*
X96341000Y-119810000D03*
X96341000Y-122350000D03*
%TO.C,A1*%
X103155500Y-96820000D03*
X103155500Y-99360000D03*
X103155500Y-101900000D03*
X103155500Y-104440000D03*
X103155500Y-106980000D03*
X103155500Y-109520000D03*
X103155500Y-112060000D03*
X103155500Y-114600000D03*
X103155500Y-117140000D03*
X103155500Y-119680000D03*
X103155500Y-122220000D03*
X103155500Y-124760000D03*
X103155500Y-127300000D03*
X103155500Y-129840000D03*
X103155500Y-132380000D03*
X118395500Y-96820000D03*
X118395500Y-99360000D03*
X118395500Y-101900000D03*
X118395500Y-104440000D03*
X118395500Y-106980000D03*
X118395500Y-109520000D03*
X118395500Y-112060000D03*
X118395500Y-114600000D03*
X118395500Y-117140000D03*
X118395500Y-119680000D03*
X118395500Y-122220000D03*
X118395500Y-124760000D03*
X118395500Y-127300000D03*
X118395500Y-129840000D03*
X118395500Y-132380000D03*
D14*
%TO.C,Start*%
X93950000Y-128100000D03*
X93950000Y-134600000D03*
X98450000Y-128100000D03*
X98450000Y-134600000D03*
D15*
%TO.C,Reset*%
X101670000Y-90760000D03*
X108170000Y-90760000D03*
D16*
%TO.C,REF9\u002A\u002A*%
X95940000Y-91770000D03*
M02*
