  0
SECTION
  2
HEADER
  9
$ANGBASE
  50
0.0
  9
$ANGDIR
  70
1
  9
$MEASUREMENT
  70
1
  0
ENDSEC
  0
SECTION
  2
TABLES
  0
TABLE
  2
LTYPE
  70
4
  0
LTYPE
  5
40F
  2
CONTINUOUS
  70
0
  3
Solid line
  72
65
  73
0
  40
0.0
  0
LTYPE
  5
410
  2
DASHDOT
 70
0
  3
Dash Dot ____ _ ____ _
 72
65
 73
4
 40
2.0
 49
1.25
 49
-0.25
 49
0.25
 49
-0.25
  0
LTYPE
  5
411
  2
DASHED
 70
0
  3
Dashed __ __ __ __ __
 72
65
 73
2
 40
0.75
 49
0.5
 49
-0.25
  0
LTYPE
  5
43B
  2
DOTTED
 70
0
  3
Dotted .  .  .  .
 72
65
 73
2
 40
0.2
 49
0.0
 49
-0.2
  0
ENDTAB
  0
TABLE
  2
STYLE
  70
4
  0
STYLE
  2
KICAD
  70
0
  40
0
  41
1
  42
1
  50
0
  71
0
  3
isocp.shx
  0
STYLE
  2
KICADB
  70
0
  40
0
  41
1
  42
1
  50
0
  71
0
  3
isocp.shx
  0
STYLE
  2
KICADI
  70
0
  40
0
  41
1
  42
1
  50
15
  71
0
  3
isocp.shx
  0
STYLE
  2
KICADBI
  70
0
  40
0
  41
1
  42
1
  50
15
  71
0
  3
isocp.shx
  0
ENDTAB
  0
TABLE
  2
LAYER
  70
1
  0
LAYER
  2
BLACK
  70
0
  62
7
  6
CONTINUOUS
  0
ENDTAB
  0
ENDSEC
  0
SECTION
  2
ENTITIES
0
LINE
8
BLACK
6
CONTINUOUS
10
30.0519999999999996
20
50.0799999999999983
11
30.
21
0.
0
LINE
8
BLACK
6
CONTINUOUS
10
0.06
20
50.0799999999999983
11
30.0519999999999996
21
50.0799999999999983
0
LINE
8
BLACK
6
CONTINUOUS
10
0.008
20
0.
11
0.06
21
50.0799999999999983
0
LINE
8
BLACK
6
CONTINUOUS
10
30.
20
0.
11
0.008
21
0.
0
LINE
8
BLACK
6
CONTINUOUS
10
10.2579999999999991
20
44.8900000000000006
11
12.0380000000000003
21
43.1099999999999994
0
LINE
8
BLACK
6
CONTINUOUS
10
12.0380000000000003
20
44.8900000000000006
11
10.2579999999999991
21
43.1099999999999994
0
LINE
8
BLACK
6
CONTINUOUS
10
10.2579999999999991
20
4.25
11
12.0380000000000003
21
2.4699999999999998
0
LINE
8
BLACK
6
CONTINUOUS
10
12.0380000000000003
20
4.25
11
10.2579999999999991
21
2.4699999999999998
0
LINE
8
BLACK
6
CONTINUOUS
10
25.4979999999999976
20
44.8900000000000006
11
27.2779999999999987
21
43.1099999999999994
0
LINE
8
BLACK
6
CONTINUOUS
10
27.2779999999999987
20
44.8900000000000006
11
25.4979999999999976
21
43.1099999999999994
0
LINE
8
BLACK
6
CONTINUOUS
10
25.4979999999999976
20
4.25
11
27.2779999999999987
21
2.4699999999999998
0
LINE
8
BLACK
6
CONTINUOUS
10
27.2779999999999987
20
4.25
11
25.4979999999999976
21
2.4699999999999998
0
LINE
8
BLACK
6
CONTINUOUS
10
2.5407679999999999
20
-3.189838
11
2.5407679999999999
21
-1.189838
0
LINE
8
BLACK
6
CONTINUOUS
10
2.5407679999999999
20
-1.189838
11
3.0169579999999998
21
-1.189838
0
LINE
8
BLACK
6
CONTINUOUS
10
3.0169579999999998
20
-1.189838
11
3.302673
21
-1.2850759999999999
0
LINE
8
BLACK
6
CONTINUOUS
10
3.302673
20
-1.2850759999999999
11
3.4931489999999998
21
-1.475552
0
LINE
8
BLACK
6
CONTINUOUS
10
3.4931489999999998
20
-1.475552
11
3.588387
21
-1.6660279999999998
0
LINE
8
BLACK
6
CONTINUOUS
10
3.588387
20
-1.6660279999999998
11
3.6836249999999997
21
-2.04698
0
LINE
8
BLACK
6
CONTINUOUS
10
3.6836249999999997
20
-2.04698
11
3.6836249999999997
21
-2.3326949999999997
0
LINE
8
BLACK
6
CONTINUOUS
10
3.6836249999999997
20
-2.3326949999999997
11
3.588387
21
-2.7136469999999999
0
LINE
8
BLACK
6
CONTINUOUS
10
3.588387
20
-2.7136469999999999
11
3.4931489999999998
21
-2.9041229999999998
0
LINE
8
BLACK
6
CONTINUOUS
10
3.4931489999999998
20
-2.9041229999999998
11
3.302673
21
-3.0945999999999998
0
LINE
8
BLACK
6
CONTINUOUS
10
3.302673
20
-3.0945999999999998
11
3.0169579999999998
21
-3.189838
0
LINE
8
BLACK
6
CONTINUOUS
10
3.0169579999999998
20
-3.189838
11
2.5407679999999999
21
-3.189838
0
LINE
8
BLACK
6
CONTINUOUS
10
4.5407679999999999
20
-3.189838
11
4.5407679999999999
21
-1.8565039999999999
0
LINE
8
BLACK
6
CONTINUOUS
10
4.5407679999999999
20
-2.237457
11
4.6360060000000001
21
-2.04698
0
LINE
8
BLACK
6
CONTINUOUS
10
4.6360060000000001
20
-2.04698
11
4.7312440000000002
21
-1.9517419999999999
0
LINE
8
BLACK
6
CONTINUOUS
10
4.7312440000000002
20
-1.9517419999999999
11
4.9217199999999997
21
-1.8565039999999999
0
LINE
8
BLACK
6
CONTINUOUS
10
4.9217199999999997
20
-1.8565039999999999
11
5.1121970000000001
21
-1.8565039999999999
0
LINE
8
BLACK
6
CONTINUOUS
10
5.7788629999999994
20
-3.189838
11
5.7788629999999994
21
-1.8565039999999999
0
LINE
8
BLACK
6
CONTINUOUS
10
5.7788629999999994
20
-1.189838
11
5.6836250000000001
21
-1.2850759999999999
0
LINE
8
BLACK
6
CONTINUOUS
10
5.6836250000000001
20
-1.2850759999999999
11
5.7788629999999994
21
-1.380314
0
LINE
8
BLACK
6
CONTINUOUS
10
5.7788629999999994
20
-1.380314
11
5.8741009999999996
21
-1.2850759999999999
0
LINE
8
BLACK
6
CONTINUOUS
10
5.8741009999999996
20
-1.2850759999999999
11
5.7788629999999994
21
-1.189838
0
LINE
8
BLACK
6
CONTINUOUS
10
5.7788629999999994
20
-1.189838
11
5.7788629999999994
21
-1.380314
0
LINE
8
BLACK
6
CONTINUOUS
10
7.0169579999999998
20
-3.189838
11
6.8264819999999995
21
-3.0945999999999998
0
LINE
8
BLACK
6
CONTINUOUS
10
6.8264819999999995
20
-3.0945999999999998
11
6.7312439999999993
21
-2.9041229999999998
0
LINE
8
BLACK
6
CONTINUOUS
10
6.7312439999999993
20
-2.9041229999999998
11
6.7312439999999993
21
-1.189838
0
LINE
8
BLACK
6
CONTINUOUS
10
8.0645769999999999
20
-3.189838
11
7.8741009999999996
21
-3.0945999999999998
0
LINE
8
BLACK
6
CONTINUOUS
10
7.8741009999999996
20
-3.0945999999999998
11
7.7788629999999994
21
-2.9041229999999998
0
LINE
8
BLACK
6
CONTINUOUS
10
7.7788629999999994
20
-2.9041229999999998
11
7.7788629999999994
21
-1.189838
0
LINE
8
BLACK
6
CONTINUOUS
10
10.3502919999999996
20
-3.189838
11
10.3502919999999996
21
-1.189838
0
LINE
8
BLACK
6
CONTINUOUS
10
10.3502919999999996
20
-1.189838
11
11.0169589999999999
21
-2.6184089999999998
0
LINE
8
BLACK
6
CONTINUOUS
10
11.0169589999999999
20
-2.6184089999999998
11
11.6836249999999993
21
-1.189838
0
LINE
8
BLACK
6
CONTINUOUS
10
11.6836249999999993
20
-1.189838
11
11.6836249999999993
21
-3.189838
0
LINE
8
BLACK
6
CONTINUOUS
10
13.4931489999999989
20
-3.189838
11
13.4931489999999989
21
-2.1422189999999999
0
LINE
8
BLACK
6
CONTINUOUS
10
13.4931489999999989
20
-2.1422189999999999
11
13.3979109999999988
21
-1.9517419999999999
0
LINE
8
BLACK
6
CONTINUOUS
10
13.3979109999999988
20
-1.9517419999999999
11
13.2074350000000003
21
-1.8565039999999999
0
LINE
8
BLACK
6
CONTINUOUS
10
13.2074350000000003
20
-1.8565039999999999
11
12.8264819999999986
21
-1.8565039999999999
0
LINE
8
BLACK
6
CONTINUOUS
10
12.8264819999999986
20
-1.8565039999999999
11
12.6360060000000001
21
-1.9517419999999999
0
LINE
8
BLACK
6
CONTINUOUS
10
13.4931489999999989
20
-3.0945999999999998
11
13.3026729999999986
21
-3.189838
0
LINE
8
BLACK
6
CONTINUOUS
10
13.3026729999999986
20
-3.189838
11
12.8264819999999986
21
-3.189838
0
LINE
8
BLACK
6
CONTINUOUS
10
12.8264819999999986
20
-3.189838
11
12.6360060000000001
21
-3.0945999999999998
0
LINE
8
BLACK
6
CONTINUOUS
10
12.6360060000000001
20
-3.0945999999999998
11
12.5407679999999999
21
-2.9041229999999998
0
LINE
8
BLACK
6
CONTINUOUS
10
12.5407679999999999
20
-2.9041229999999998
11
12.5407679999999999
21
-2.7136469999999999
0
LINE
8
BLACK
6
CONTINUOUS
10
12.5407679999999999
20
-2.7136469999999999
11
12.6360060000000001
21
-2.5231710000000001
0
LINE
8
BLACK
6
CONTINUOUS
10
12.6360060000000001
20
-2.5231710000000001
11
12.8264819999999986
21
-2.4279329999999999
0
LINE
8
BLACK
6
CONTINUOUS
10
12.8264819999999986
20
-2.4279329999999999
11
13.3026729999999986
21
-2.4279329999999999
0
LINE
8
BLACK
6
CONTINUOUS
10
13.3026729999999986
20
-2.4279329999999999
11
13.4931489999999989
21
-2.3326949999999997
0
LINE
8
BLACK
6
CONTINUOUS
10
14.4455299999999998
20
-1.8565039999999999
11
14.4455299999999998
21
-3.8565039999999997
0
LINE
8
BLACK
6
CONTINUOUS
10
14.4455299999999998
20
-1.9517419999999999
11
14.6360060000000001
21
-1.8565039999999999
0
LINE
8
BLACK
6
CONTINUOUS
10
14.6360060000000001
20
-1.8565039999999999
11
15.0169589999999999
21
-1.8565039999999999
0
LINE
8
BLACK
6
CONTINUOUS
10
15.0169589999999999
20
-1.8565039999999999
11
15.2074349999999985
21
-1.9517419999999999
0
LINE
8
BLACK
6
CONTINUOUS
10
15.2074349999999985
20
-1.9517419999999999
11
15.3026729999999986
21
-2.04698
0
LINE
8
BLACK
6
CONTINUOUS
10
15.3026729999999986
20
-2.04698
11
15.3979109999999988
21
-2.237457
0
LINE
8
BLACK
6
CONTINUOUS
10
15.3979109999999988
20
-2.237457
11
15.3979109999999988
21
-2.8088850000000001
0
LINE
8
BLACK
6
CONTINUOUS
10
15.3979109999999988
20
-2.8088850000000001
11
15.3026729999999986
21
-2.9993609999999999
0
LINE
8
BLACK
6
CONTINUOUS
10
15.3026729999999986
20
-2.9993609999999999
11
15.2074349999999985
21
-3.0945999999999998
0
LINE
8
BLACK
6
CONTINUOUS
10
15.2074349999999985
20
-3.0945999999999998
11
15.0169589999999999
21
-3.189838
0
LINE
8
BLACK
6
CONTINUOUS
10
15.0169589999999999
20
-3.189838
11
14.6360060000000001
21
-3.189838
0
LINE
8
BLACK
6
CONTINUOUS
10
14.6360060000000001
20
-3.189838
11
14.4455299999999998
21
-3.0945999999999998
0
LINE
8
BLACK
6
CONTINUOUS
10
16.2550539999999977
20
-2.9993609999999999
11
16.3502919999999996
21
-3.0945999999999998
0
LINE
8
BLACK
6
CONTINUOUS
10
16.3502919999999996
20
-3.0945999999999998
11
16.2550539999999977
21
-3.189838
0
LINE
8
BLACK
6
CONTINUOUS
10
16.2550539999999977
20
-3.189838
11
16.1598159999999993
21
-3.0945999999999998
0
LINE
8
BLACK
6
CONTINUOUS
10
16.1598159999999993
20
-3.0945999999999998
11
16.2550539999999977
21
-2.9993609999999999
0
LINE
8
BLACK
6
CONTINUOUS
10
16.2550539999999977
20
-2.9993609999999999
11
16.2550539999999977
21
-3.189838
0
LINE
8
BLACK
6
CONTINUOUS
10
16.2550539999999977
20
-1.9517419999999999
11
16.3502919999999996
21
-2.04698
0
LINE
8
BLACK
6
CONTINUOUS
10
16.3502919999999996
20
-2.04698
11
16.2550539999999977
21
-2.1422189999999999
0
LINE
8
BLACK
6
CONTINUOUS
10
16.2550539999999977
20
-2.1422189999999999
11
16.1598159999999993
21
-2.04698
0
LINE
8
BLACK
6
CONTINUOUS
10
16.1598159999999993
20
-2.04698
11
16.2550539999999977
21
-1.9517419999999999
0
LINE
8
BLACK
6
CONTINUOUS
10
16.2550539999999977
20
-1.9517419999999999
11
16.2550539999999977
21
-2.1422189999999999
0
LINE
8
BLACK
6
CONTINUOUS
10
-1.847
20
-5.585
11
-0.067
21
-7.3649999999999993
0
LINE
8
BLACK
6
CONTINUOUS
10
-0.067
20
-5.585
11
-1.847
21
-7.3649999999999993
0
LINE
8
BLACK
6
CONTINUOUS
10
3.588387
20
-7.3898379999999992
11
2.4455299999999998
21
-7.3898379999999992
0
LINE
8
BLACK
6
CONTINUOUS
10
3.0169579999999998
20
-7.3898379999999992
11
3.0169579999999998
21
-5.3898380000000001
0
LINE
8
BLACK
6
CONTINUOUS
10
3.0169579999999998
20
-5.3898380000000001
11
2.8264819999999999
21
-5.6755519999999997
0
LINE
8
BLACK
6
CONTINUOUS
10
2.8264819999999999
20
-5.6755519999999997
11
2.6360060000000001
21
-5.866028
0
LINE
8
BLACK
6
CONTINUOUS
10
2.6360060000000001
20
-5.866028
11
2.4455299999999998
21
-5.9612659999999993
0
LINE
8
BLACK
6
CONTINUOUS
10
4.4455299999999998
20
-7.1993609999999997
11
4.5407679999999999
21
-7.2946
0
LINE
8
BLACK
6
CONTINUOUS
10
4.5407679999999999
20
-7.2946
11
4.4455299999999998
21
-7.3898379999999992
0
LINE
8
BLACK
6
CONTINUOUS
10
4.4455299999999998
20
-7.3898379999999992
11
4.3502919999999996
21
-7.2946
0
LINE
8
BLACK
6
CONTINUOUS
10
4.3502919999999996
20
-7.2946
11
4.4455299999999998
21
-7.1993609999999997
0
LINE
8
BLACK
6
CONTINUOUS
10
4.4455299999999998
20
-7.1993609999999997
11
4.4455299999999998
21
-7.3898379999999992
0
LINE
8
BLACK
6
CONTINUOUS
10
5.2074349999999994
20
-5.3898380000000001
11
6.5407679999999999
21
-5.3898380000000001
0
LINE
8
BLACK
6
CONTINUOUS
10
6.5407679999999999
20
-5.3898380000000001
11
5.6836250000000001
21
-7.3898379999999992
0
LINE
8
BLACK
6
CONTINUOUS
10
7.588387
20
-6.2469799999999998
11
7.3979109999999997
21
-6.1517419999999996
0
LINE
8
BLACK
6
CONTINUOUS
10
7.3979109999999997
20
-6.1517419999999996
11
7.3026729999999995
21
-6.0565039999999994
0
LINE
8
BLACK
6
CONTINUOUS
10
7.3026729999999995
20
-6.0565039999999994
11
7.2074349999999994
21
-5.866028
0
LINE
8
BLACK
6
CONTINUOUS
10
7.2074349999999994
20
-5.866028
11
7.2074349999999994
21
-5.7707899999999999
0
LINE
8
BLACK
6
CONTINUOUS
10
7.2074349999999994
20
-5.7707899999999999
11
7.3026729999999995
21
-5.5803139999999996
0
LINE
8
BLACK
6
CONTINUOUS
10
7.3026729999999995
20
-5.5803139999999996
11
7.3979109999999997
21
-5.4850759999999994
0
LINE
8
BLACK
6
CONTINUOUS
10
7.3979109999999997
20
-5.4850759999999994
11
7.588387
21
-5.3898380000000001
0
LINE
8
BLACK
6
CONTINUOUS
10
7.588387
20
-5.3898380000000001
11
7.9693399999999999
21
-5.3898380000000001
0
LINE
8
BLACK
6
CONTINUOUS
10
7.9693399999999999
20
-5.3898380000000001
11
8.1598159999999993
21
-5.4850759999999994
0
LINE
8
BLACK
6
CONTINUOUS
10
8.1598159999999993
20
-5.4850759999999994
11
8.2550539999999994
21
-5.5803139999999996
0
LINE
8
BLACK
6
CONTINUOUS
10
8.2550539999999994
20
-5.5803139999999996
11
8.3502919999999996
21
-5.7707899999999999
0
LINE
8
BLACK
6
CONTINUOUS
10
8.3502919999999996
20
-5.7707899999999999
11
8.3502919999999996
21
-5.866028
0
LINE
8
BLACK
6
CONTINUOUS
10
8.3502919999999996
20
-5.866028
11
8.2550539999999994
21
-6.0565039999999994
0
LINE
8
BLACK
6
CONTINUOUS
10
8.2550539999999994
20
-6.0565039999999994
11
8.1598159999999993
21
-6.1517419999999996
0
LINE
8
BLACK
6
CONTINUOUS
10
8.1598159999999993
20
-6.1517419999999996
11
7.9693399999999999
21
-6.2469799999999998
0
LINE
8
BLACK
6
CONTINUOUS
10
7.9693399999999999
20
-6.2469799999999998
11
7.588387
21
-6.2469799999999998
0
LINE
8
BLACK
6
CONTINUOUS
10
7.588387
20
-6.2469799999999998
11
7.3979109999999997
21
-6.3422190000000001
0
LINE
8
BLACK
6
CONTINUOUS
10
7.3979109999999997
20
-6.3422190000000001
11
7.3026729999999995
21
-6.4374569999999993
0
LINE
8
BLACK
6
CONTINUOUS
10
7.3026729999999995
20
-6.4374569999999993
11
7.2074349999999994
21
-6.6279329999999996
0
LINE
8
BLACK
6
CONTINUOUS
10
7.2074349999999994
20
-6.6279329999999996
11
7.2074349999999994
21
-7.0088849999999994
0
LINE
8
BLACK
6
CONTINUOUS
10
7.2074349999999994
20
-7.0088849999999994
11
7.3026729999999995
21
-7.1993609999999997
0
LINE
8
BLACK
6
CONTINUOUS
10
7.3026729999999995
20
-7.1993609999999997
11
7.3979109999999997
21
-7.2946
0
LINE
8
BLACK
6
CONTINUOUS
10
7.3979109999999997
20
-7.2946
11
7.588387
21
-7.3898379999999992
0
LINE
8
BLACK
6
CONTINUOUS
10
7.588387
20
-7.3898379999999992
11
7.9693399999999999
21
-7.3898379999999992
0
LINE
8
BLACK
6
CONTINUOUS
10
7.9693399999999999
20
-7.3898379999999992
11
8.1598159999999993
21
-7.2946
0
LINE
8
BLACK
6
CONTINUOUS
10
8.1598159999999993
20
-7.2946
11
8.2550539999999994
21
-7.1993609999999997
0
LINE
8
BLACK
6
CONTINUOUS
10
8.2550539999999994
20
-7.1993609999999997
11
8.3502919999999996
21
-7.0088849999999994
0
LINE
8
BLACK
6
CONTINUOUS
10
8.3502919999999996
20
-7.0088849999999994
11
8.3502919999999996
21
-6.6279329999999996
0
LINE
8
BLACK
6
CONTINUOUS
10
8.3502919999999996
20
-6.6279329999999996
11
8.2550539999999994
21
-6.4374569999999993
0
LINE
8
BLACK
6
CONTINUOUS
10
8.2550539999999994
20
-6.4374569999999993
11
8.1598159999999993
21
-6.3422190000000001
0
LINE
8
BLACK
6
CONTINUOUS
10
8.1598159999999993
20
-6.3422190000000001
11
7.9693399999999999
21
-6.2469799999999998
0
LINE
8
BLACK
6
CONTINUOUS
10
9.5883869999999991
20
-5.3898380000000001
11
9.7788640000000004
21
-5.3898380000000001
0
LINE
8
BLACK
6
CONTINUOUS
10
9.7788640000000004
20
-5.3898380000000001
11
9.969339999999999
21
-5.4850759999999994
0
LINE
8
BLACK
6
CONTINUOUS
10
9.969339999999999
20
-5.4850759999999994
11
10.0645779999999991
21
-5.5803139999999996
0
LINE
8
BLACK
6
CONTINUOUS
10
10.0645779999999991
20
-5.5803139999999996
11
10.1598159999999993
21
-5.7707899999999999
0
LINE
8
BLACK
6
CONTINUOUS
10
10.1598159999999993
20
-5.7707899999999999
11
10.2550539999999994
21
-6.1517419999999996
0
LINE
8
BLACK
6
CONTINUOUS
10
10.2550539999999994
20
-6.1517419999999996
11
10.2550539999999994
21
-6.6279329999999996
0
LINE
8
BLACK
6
CONTINUOUS
10
10.2550539999999994
20
-6.6279329999999996
11
10.1598159999999993
21
-7.0088849999999994
0
LINE
8
BLACK
6
CONTINUOUS
10
10.1598159999999993
20
-7.0088849999999994
11
10.0645779999999991
21
-7.1993609999999997
0
LINE
8
BLACK
6
CONTINUOUS
10
10.0645779999999991
20
-7.1993609999999997
11
9.969339999999999
21
-7.2946
0
LINE
8
BLACK
6
CONTINUOUS
10
9.969339999999999
20
-7.2946
11
9.7788640000000004
21
-7.3898379999999992
0
LINE
8
BLACK
6
CONTINUOUS
10
9.7788640000000004
20
-7.3898379999999992
11
9.5883869999999991
21
-7.3898379999999992
0
LINE
8
BLACK
6
CONTINUOUS
10
9.5883869999999991
20
-7.3898379999999992
11
9.3979109999999988
21
-7.2946
0
LINE
8
BLACK
6
CONTINUOUS
10
9.3979109999999988
20
-7.2946
11
9.3026730000000004
21
-7.1993609999999997
0
LINE
8
BLACK
6
CONTINUOUS
10
9.3026730000000004
20
-7.1993609999999997
11
9.2074350000000003
21
-7.0088849999999994
0
LINE
8
BLACK
6
CONTINUOUS
10
9.2074350000000003
20
-7.0088849999999994
11
9.1121970000000001
21
-6.6279329999999996
0
LINE
8
BLACK
6
CONTINUOUS
10
9.1121970000000001
20
-6.6279329999999996
11
9.1121970000000001
21
-6.1517419999999996
0
LINE
8
BLACK
6
CONTINUOUS
10
9.1121970000000001
20
-6.1517419999999996
11
9.2074350000000003
21
-5.7707899999999999
0
LINE
8
BLACK
6
CONTINUOUS
10
9.2074350000000003
20
-5.7707899999999999
11
9.3026730000000004
21
-5.5803139999999996
0
LINE
8
BLACK
6
CONTINUOUS
10
9.3026730000000004
20
-5.5803139999999996
11
9.3979109999999988
21
-5.4850759999999994
0
LINE
8
BLACK
6
CONTINUOUS
10
9.3979109999999988
20
-5.4850759999999994
11
9.5883869999999991
21
-5.3898380000000001
0
LINE
8
BLACK
6
CONTINUOUS
10
11.1121970000000001
20
-7.3898379999999992
11
11.1121970000000001
21
-6.0565039999999994
0
LINE
8
BLACK
6
CONTINUOUS
10
11.1121970000000001
20
-6.2469799999999998
11
11.2074350000000003
21
-6.1517419999999996
0
LINE
8
BLACK
6
CONTINUOUS
10
11.2074350000000003
20
-6.1517419999999996
11
11.3979109999999988
21
-6.0565039999999994
0
LINE
8
BLACK
6
CONTINUOUS
10
11.3979109999999988
20
-6.0565039999999994
11
11.6836260000000003
21
-6.0565039999999994
0
LINE
8
BLACK
6
CONTINUOUS
10
11.6836260000000003
20
-6.0565039999999994
11
11.8741019999999988
21
-6.1517419999999996
0
LINE
8
BLACK
6
CONTINUOUS
10
11.8741019999999988
20
-6.1517419999999996
11
11.969339999999999
21
-6.3422190000000001
0
LINE
8
BLACK
6
CONTINUOUS
10
11.969339999999999
20
-6.3422190000000001
11
11.969339999999999
21
-7.3898379999999992
0
LINE
8
BLACK
6
CONTINUOUS
10
11.969339999999999
20
-6.3422190000000001
11
12.0645779999999991
21
-6.1517419999999996
0
LINE
8
BLACK
6
CONTINUOUS
10
12.0645779999999991
20
-6.1517419999999996
11
12.2550539999999994
21
-6.0565039999999994
0
LINE
8
BLACK
6
CONTINUOUS
10
12.2550539999999994
20
-6.0565039999999994
11
12.5407679999999999
21
-6.0565039999999994
0
LINE
8
BLACK
6
CONTINUOUS
10
12.5407679999999999
20
-6.0565039999999994
11
12.7312449999999995
21
-6.1517419999999996
0
LINE
8
BLACK
6
CONTINUOUS
10
12.7312449999999995
20
-6.1517419999999996
11
12.8264829999999996
21
-6.3422190000000001
0
LINE
8
BLACK
6
CONTINUOUS
10
12.8264829999999996
20
-6.3422190000000001
11
12.8264829999999996
21
-7.3898379999999992
0
LINE
8
BLACK
6
CONTINUOUS
10
13.7788639999999987
20
-7.3898379999999992
11
13.7788639999999987
21
-6.0565039999999994
0
LINE
8
BLACK
6
CONTINUOUS
10
13.7788639999999987
20
-6.2469799999999998
11
13.8741019999999988
21
-6.1517419999999996
0
LINE
8
BLACK
6
CONTINUOUS
10
13.8741019999999988
20
-6.1517419999999996
11
14.0645779999999991
21
-6.0565039999999994
0
LINE
8
BLACK
6
CONTINUOUS
10
14.0645779999999991
20
-6.0565039999999994
11
14.3502929999999989
21
-6.0565039999999994
0
LINE
8
BLACK
6
CONTINUOUS
10
14.3502929999999989
20
-6.0565039999999994
11
14.5407689999999992
21
-6.1517419999999996
0
LINE
8
BLACK
6
CONTINUOUS
10
14.5407689999999992
20
-6.1517419999999996
11
14.6360069999999993
21
-6.3422190000000001
0
LINE
8
BLACK
6
CONTINUOUS
10
14.6360069999999993
20
-6.3422190000000001
11
14.6360069999999993
21
-7.3898379999999992
0
LINE
8
BLACK
6
CONTINUOUS
10
14.6360069999999993
20
-6.3422190000000001
11
14.7312449999999995
21
-6.1517419999999996
0
LINE
8
BLACK
6
CONTINUOUS
10
14.7312449999999995
20
-6.1517419999999996
11
14.9217209999999998
21
-6.0565039999999994
0
LINE
8
BLACK
6
CONTINUOUS
10
14.9217209999999998
20
-6.0565039999999994
11
15.2074349999999985
21
-6.0565039999999994
0
LINE
8
BLACK
6
CONTINUOUS
10
15.2074349999999985
20
-6.0565039999999994
11
15.3979119999999998
21
-6.1517419999999996
0
LINE
8
BLACK
6
CONTINUOUS
10
15.3979119999999998
20
-6.1517419999999996
11
15.49315
21
-6.3422190000000001
0
LINE
8
BLACK
6
CONTINUOUS
10
15.49315
20
-6.3422190000000001
11
15.49315
21
-7.3898379999999992
0
LINE
8
BLACK
6
CONTINUOUS
10
19.397911999999998
20
-5.2946
11
17.6836269999999978
21
-7.866028
0
LINE
8
BLACK
6
CONTINUOUS
10
21.969341
20
-5.3898380000000001
11
22.1598179999999978
21
-5.3898380000000001
0
LINE
8
BLACK
6
CONTINUOUS
10
22.1598179999999978
20
-5.3898380000000001
11
22.3502939999999981
21
-5.4850759999999994
0
LINE
8
BLACK
6
CONTINUOUS
10
22.3502939999999981
20
-5.4850759999999994
11
22.445532
21
-5.5803139999999996
0
LINE
8
BLACK
6
CONTINUOUS
10
22.445532
20
-5.5803139999999996
11
22.5407699999999984
21
-5.7707899999999999
0
LINE
8
BLACK
6
CONTINUOUS
10
22.5407699999999984
20
-5.7707899999999999
11
22.6360080000000004
21
-6.1517419999999996
0
LINE
8
BLACK
6
CONTINUOUS
10
22.6360080000000004
20
-6.1517419999999996
11
22.6360080000000004
21
-6.6279329999999996
0
LINE
8
BLACK
6
CONTINUOUS
10
22.6360080000000004
20
-6.6279329999999996
11
22.5407699999999984
21
-7.0088849999999994
0
LINE
8
BLACK
6
CONTINUOUS
10
22.5407699999999984
20
-7.0088849999999994
11
22.445532
21
-7.1993609999999997
0
LINE
8
BLACK
6
CONTINUOUS
10
22.445532
20
-7.1993609999999997
11
22.3502939999999981
21
-7.2946
0
LINE
8
BLACK
6
CONTINUOUS
10
22.3502939999999981
20
-7.2946
11
22.1598179999999978
21
-7.3898379999999992
0
LINE
8
BLACK
6
CONTINUOUS
10
22.1598179999999978
20
-7.3898379999999992
11
21.969341
21
-7.3898379999999992
0
LINE
8
BLACK
6
CONTINUOUS
10
21.969341
20
-7.3898379999999992
11
21.7788649999999997
21
-7.2946
0
LINE
8
BLACK
6
CONTINUOUS
10
21.7788649999999997
20
-7.2946
11
21.6836269999999978
21
-7.1993609999999997
0
LINE
8
BLACK
6
CONTINUOUS
10
21.6836269999999978
20
-7.1993609999999997
11
21.5883889999999994
21
-7.0088849999999994
0
LINE
8
BLACK
6
CONTINUOUS
10
21.5883889999999994
20
-7.0088849999999994
11
21.4931509999999975
21
-6.6279329999999996
0
LINE
8
BLACK
6
CONTINUOUS
10
21.4931509999999975
20
-6.6279329999999996
11
21.4931509999999975
21
-6.1517419999999996
0
LINE
8
BLACK
6
CONTINUOUS
10
21.4931509999999975
20
-6.1517419999999996
11
21.5883889999999994
21
-5.7707899999999999
0
LINE
8
BLACK
6
CONTINUOUS
10
21.5883889999999994
20
-5.7707899999999999
11
21.6836269999999978
21
-5.5803139999999996
0
LINE
8
BLACK
6
CONTINUOUS
10
21.6836269999999978
20
-5.5803139999999996
11
21.7788649999999997
21
-5.4850759999999994
0
LINE
8
BLACK
6
CONTINUOUS
10
21.7788649999999997
20
-5.4850759999999994
11
21.969341
21
-5.3898380000000001
0
LINE
8
BLACK
6
CONTINUOUS
10
23.4931509999999975
20
-7.1993609999999997
11
23.5883889999999994
21
-7.2946
0
LINE
8
BLACK
6
CONTINUOUS
10
23.5883889999999994
20
-7.2946
11
23.4931509999999975
21
-7.3898379999999992
0
LINE
8
BLACK
6
CONTINUOUS
10
23.4931509999999975
20
-7.3898379999999992
11
23.3979129999999991
21
-7.2946
0
LINE
8
BLACK
6
CONTINUOUS
10
23.3979129999999991
20
-7.2946
11
23.4931509999999975
21
-7.1993609999999997
0
LINE
8
BLACK
6
CONTINUOUS
10
23.4931509999999975
20
-7.1993609999999997
11
23.4931509999999975
21
-7.3898379999999992
0
LINE
8
BLACK
6
CONTINUOUS
10
24.8264839999999971
20
-5.3898380000000001
11
25.0169609999999984
21
-5.3898380000000001
0
LINE
8
BLACK
6
CONTINUOUS
10
25.0169609999999984
20
-5.3898380000000001
11
25.2074369999999988
21
-5.4850759999999994
0
LINE
8
BLACK
6
CONTINUOUS
10
25.2074369999999988
20
-5.4850759999999994
11
25.3026749999999971
21
-5.5803139999999996
0
LINE
8
BLACK
6
CONTINUOUS
10
25.3026749999999971
20
-5.5803139999999996
11
25.3979129999999991
21
-5.7707899999999999
0
LINE
8
BLACK
6
CONTINUOUS
10
25.3979129999999991
20
-5.7707899999999999
11
25.4931509999999975
21
-6.1517419999999996
0
LINE
8
BLACK
6
CONTINUOUS
10
25.4931509999999975
20
-6.1517419999999996
11
25.4931509999999975
21
-6.6279329999999996
0
LINE
8
BLACK
6
CONTINUOUS
10
25.4931509999999975
20
-6.6279329999999996
11
25.3979129999999991
21
-7.0088849999999994
0
LINE
8
BLACK
6
CONTINUOUS
10
25.3979129999999991
20
-7.0088849999999994
11
25.3026749999999971
21
-7.1993609999999997
0
LINE
8
BLACK
6
CONTINUOUS
10
25.3026749999999971
20
-7.1993609999999997
11
25.2074369999999988
21
-7.2946
0
LINE
8
BLACK
6
CONTINUOUS
10
25.2074369999999988
20
-7.2946
11
25.0169609999999984
21
-7.3898379999999992
0
LINE
8
BLACK
6
CONTINUOUS
10
25.0169609999999984
20
-7.3898379999999992
11
24.8264839999999971
21
-7.3898379999999992
0
LINE
8
BLACK
6
CONTINUOUS
10
24.8264839999999971
20
-7.3898379999999992
11
24.6360080000000004
21
-7.2946
0
LINE
8
BLACK
6
CONTINUOUS
10
24.6360080000000004
20
-7.2946
11
24.5407699999999984
21
-7.1993609999999997
0
LINE
8
BLACK
6
CONTINUOUS
10
24.5407699999999984
20
-7.1993609999999997
11
24.445532
21
-7.0088849999999994
0
LINE
8
BLACK
6
CONTINUOUS
10
24.445532
20
-7.0088849999999994
11
24.3502939999999981
21
-6.6279329999999996
0
LINE
8
BLACK
6
CONTINUOUS
10
24.3502939999999981
20
-6.6279329999999996
11
24.3502939999999981
21
-6.1517419999999996
0
LINE
8
BLACK
6
CONTINUOUS
10
24.3502939999999981
20
-6.1517419999999996
11
24.445532
21
-5.7707899999999999
0
LINE
8
BLACK
6
CONTINUOUS
10
24.445532
20
-5.7707899999999999
11
24.5407699999999984
21
-5.5803139999999996
0
LINE
8
BLACK
6
CONTINUOUS
10
24.5407699999999984
20
-5.5803139999999996
11
24.6360080000000004
21
-5.4850759999999994
0
LINE
8
BLACK
6
CONTINUOUS
10
24.6360080000000004
20
-5.4850759999999994
11
24.8264839999999971
21
-5.3898380000000001
0
LINE
8
BLACK
6
CONTINUOUS
10
26.1598179999999978
20
-5.3898380000000001
11
27.4931509999999975
21
-5.3898380000000001
0
LINE
8
BLACK
6
CONTINUOUS
10
27.4931509999999975
20
-5.3898380000000001
11
26.6360080000000004
21
-7.3898379999999992
0
LINE
8
BLACK
6
CONTINUOUS
10
28.6360080000000004
20
-5.3898380000000001
11
28.8264849999999981
21
-5.3898380000000001
0
LINE
8
BLACK
6
CONTINUOUS
10
28.8264849999999981
20
-5.3898380000000001
11
29.0169609999999984
21
-5.4850759999999994
0
LINE
8
BLACK
6
CONTINUOUS
10
29.0169609999999984
20
-5.4850759999999994
11
29.1121990000000004
21
-5.5803139999999996
0
LINE
8
BLACK
6
CONTINUOUS
10
29.1121990000000004
20
-5.5803139999999996
11
29.2074369999999988
21
-5.7707899999999999
0
LINE
8
BLACK
6
CONTINUOUS
10
29.2074369999999988
20
-5.7707899999999999
11
29.3026749999999971
21
-6.1517419999999996
0
LINE
8
BLACK
6
CONTINUOUS
10
29.3026749999999971
20
-6.1517419999999996
11
29.3026749999999971
21
-6.6279329999999996
0
LINE
8
BLACK
6
CONTINUOUS
10
29.3026749999999971
20
-6.6279329999999996
11
29.2074369999999988
21
-7.0088849999999994
0
LINE
8
BLACK
6
CONTINUOUS
10
29.2074369999999988
20
-7.0088849999999994
11
29.1121990000000004
21
-7.1993609999999997
0
LINE
8
BLACK
6
CONTINUOUS
10
29.1121990000000004
20
-7.1993609999999997
11
29.0169609999999984
21
-7.2946
0
LINE
8
BLACK
6
CONTINUOUS
10
29.0169609999999984
20
-7.2946
11
28.8264849999999981
21
-7.3898379999999992
0
LINE
8
BLACK
6
CONTINUOUS
10
28.8264849999999981
20
-7.3898379999999992
11
28.6360080000000004
21
-7.3898379999999992
0
LINE
8
BLACK
6
CONTINUOUS
10
28.6360080000000004
20
-7.3898379999999992
11
28.445532
21
-7.2946
0
LINE
8
BLACK
6
CONTINUOUS
10
28.445532
20
-7.2946
11
28.3502939999999981
21
-7.1993609999999997
0
LINE
8
BLACK
6
CONTINUOUS
10
28.3502939999999981
20
-7.1993609999999997
11
28.2550559999999997
21
-7.0088849999999994
0
LINE
8
BLACK
6
CONTINUOUS
10
28.2550559999999997
20
-7.0088849999999994
11
28.1598179999999978
21
-6.6279329999999996
0
LINE
8
BLACK
6
CONTINUOUS
10
28.1598179999999978
20
-6.6279329999999996
11
28.1598179999999978
21
-6.1517419999999996
0
LINE
8
BLACK
6
CONTINUOUS
10
28.1598179999999978
20
-6.1517419999999996
11
28.2550559999999997
21
-5.7707899999999999
0
LINE
8
BLACK
6
CONTINUOUS
10
28.2550559999999997
20
-5.7707899999999999
11
28.3502939999999981
21
-5.5803139999999996
0
LINE
8
BLACK
6
CONTINUOUS
10
28.3502939999999981
20
-5.5803139999999996
11
28.445532
21
-5.4850759999999994
0
LINE
8
BLACK
6
CONTINUOUS
10
28.445532
20
-5.4850759999999994
11
28.6360080000000004
21
-5.3898380000000001
0
LINE
8
BLACK
6
CONTINUOUS
10
31.2074369999999988
20
-7.3898379999999992
11
30.0645799999999994
21
-7.3898379999999992
0
LINE
8
BLACK
6
CONTINUOUS
10
30.6360080000000004
20
-7.3898379999999992
11
30.6360080000000004
21
-5.3898380000000001
0
LINE
8
BLACK
6
CONTINUOUS
10
30.6360080000000004
20
-5.3898380000000001
11
30.445532
21
-5.6755519999999997
0
LINE
8
BLACK
6
CONTINUOUS
10
30.445532
20
-5.6755519999999997
11
30.2550559999999997
21
-5.866028
0
LINE
8
BLACK
6
CONTINUOUS
10
30.2550559999999997
20
-5.866028
11
30.0645799999999994
21
-5.9612659999999993
0
LINE
8
BLACK
6
CONTINUOUS
10
31.9693419999999975
20
-5.3898380000000001
11
31.9693419999999975
21
-5.7707899999999999
0
LINE
8
BLACK
6
CONTINUOUS
10
32.7312469999999962
20
-5.3898380000000001
11
32.7312469999999962
21
-5.7707899999999999
0
LINE
8
BLACK
6
CONTINUOUS
10
35.6836289999999963
20
-8.1517420000000005
11
35.5883899999999969
21
-8.0565040000000003
0
LINE
8
BLACK
6
CONTINUOUS
10
35.5883899999999969
20
-8.0565040000000003
11
35.3979140000000001
21
-7.7707899999999999
0
LINE
8
BLACK
6
CONTINUOUS
10
35.3979140000000001
20
-7.7707899999999999
11
35.3026759999999982
21
-7.5803139999999996
0
LINE
8
BLACK
6
CONTINUOUS
10
35.3026759999999982
20
-7.5803139999999996
11
35.2074379999999962
21
-7.2946
0
LINE
8
BLACK
6
CONTINUOUS
10
35.2074379999999962
20
-7.2946
11
35.1122000000000014
21
-6.8184089999999999
0
LINE
8
BLACK
6
CONTINUOUS
10
35.1122000000000014
20
-6.8184089999999999
11
35.1122000000000014
21
-6.4374569999999993
0
LINE
8
BLACK
6
CONTINUOUS
10
35.1122000000000014
20
-6.4374569999999993
11
35.2074379999999962
21
-5.9612659999999993
0
LINE
8
BLACK
6
CONTINUOUS
10
35.2074379999999962
20
-5.9612659999999993
11
35.3026759999999982
21
-5.6755519999999997
0
LINE
8
BLACK
6
CONTINUOUS
10
35.3026759999999982
20
-5.6755519999999997
11
35.3979140000000001
21
-5.4850759999999994
0
LINE
8
BLACK
6
CONTINUOUS
10
35.3979140000000001
20
-5.4850759999999994
11
35.5883899999999969
21
-5.1993609999999997
0
LINE
8
BLACK
6
CONTINUOUS
10
35.5883899999999969
20
-5.1993609999999997
11
35.6836289999999963
21
-5.1041229999999995
0
LINE
8
BLACK
6
CONTINUOUS
10
37.3026759999999982
20
-6.0565039999999994
11
37.3026759999999982
21
-7.3898379999999992
0
LINE
8
BLACK
6
CONTINUOUS
10
36.8264849999999981
20
-5.2946
11
36.3502949999999956
21
-6.7231709999999998
0
LINE
8
BLACK
6
CONTINUOUS
10
36.3502949999999956
20
-6.7231709999999998
11
37.5883899999999969
21
-6.7231709999999998
0
LINE
8
BLACK
6
CONTINUOUS
10
39.8741050000000001
20
-7.3898379999999992
11
39.8741050000000001
21
-5.3898380000000001
0
LINE
8
BLACK
6
CONTINUOUS
10
40.7312480000000008
20
-7.3898379999999992
11
40.7312480000000008
21
-6.3422190000000001
0
LINE
8
BLACK
6
CONTINUOUS
10
40.7312480000000008
20
-6.3422190000000001
11
40.6360099999999989
21
-6.1517419999999996
0
LINE
8
BLACK
6
CONTINUOUS
10
40.6360099999999989
20
-6.1517419999999996
11
40.445533999999995
21
-6.0565039999999994
0
LINE
8
BLACK
6
CONTINUOUS
10
40.445533999999995
20
-6.0565039999999994
11
40.1598189999999988
21
-6.0565039999999994
0
LINE
8
BLACK
6
CONTINUOUS
10
40.1598189999999988
20
-6.0565039999999994
11
39.969342999999995
21
-6.1517419999999996
0
LINE
8
BLACK
6
CONTINUOUS
10
39.969342999999995
20
-6.1517419999999996
11
39.8741050000000001
21
-6.2469799999999998
0
LINE
8
BLACK
6
CONTINUOUS
10
41.969342999999995
20
-7.3898379999999992
11
41.7788669999999982
21
-7.2946
0
LINE
8
BLACK
6
CONTINUOUS
10
41.7788669999999982
20
-7.2946
11
41.6836289999999963
21
-7.1993609999999997
0
LINE
8
BLACK
6
CONTINUOUS
10
41.6836289999999963
20
-7.1993609999999997
11
41.5883910000000014
21
-7.0088849999999994
0
LINE
8
BLACK
6
CONTINUOUS
10
41.5883910000000014
20
-7.0088849999999994
11
41.5883910000000014
21
-6.4374569999999993
0
LINE
8
BLACK
6
CONTINUOUS
10
41.5883910000000014
20
-6.4374569999999993
11
41.6836289999999963
21
-6.2469799999999998
0
LINE
8
BLACK
6
CONTINUOUS
10
41.6836289999999963
20
-6.2469799999999998
11
41.7788669999999982
21
-6.1517419999999996
0
LINE
8
BLACK
6
CONTINUOUS
10
41.7788669999999982
20
-6.1517419999999996
11
41.969342999999995
21
-6.0565039999999994
0
LINE
8
BLACK
6
CONTINUOUS
10
41.969342999999995
20
-6.0565039999999994
11
42.2550579999999982
21
-6.0565039999999994
0
LINE
8
BLACK
6
CONTINUOUS
10
42.2550579999999982
20
-6.0565039999999994
11
42.445533999999995
21
-6.1517419999999996
0
LINE
8
BLACK
6
CONTINUOUS
10
42.445533999999995
20
-6.1517419999999996
11
42.5407719999999969
21
-6.2469799999999998
0
LINE
8
BLACK
6
CONTINUOUS
10
42.5407719999999969
20
-6.2469799999999998
11
42.6360099999999989
21
-6.4374569999999993
0
LINE
8
BLACK
6
CONTINUOUS
10
42.6360099999999989
20
-6.4374569999999993
11
42.6360099999999989
21
-7.0088849999999994
0
LINE
8
BLACK
6
CONTINUOUS
10
42.6360099999999989
20
-7.0088849999999994
11
42.5407719999999969
21
-7.1993609999999997
0
LINE
8
BLACK
6
CONTINUOUS
10
42.5407719999999969
20
-7.1993609999999997
11
42.445533999999995
21
-7.2946
0
LINE
8
BLACK
6
CONTINUOUS
10
42.445533999999995
20
-7.2946
11
42.2550579999999982
21
-7.3898379999999992
0
LINE
8
BLACK
6
CONTINUOUS
10
42.2550579999999982
20
-7.3898379999999992
11
41.969342999999995
21
-7.3898379999999992
0
LINE
8
BLACK
6
CONTINUOUS
10
43.7788669999999982
20
-7.3898379999999992
11
43.5883910000000014
21
-7.2946
0
LINE
8
BLACK
6
CONTINUOUS
10
43.5883910000000014
20
-7.2946
11
43.4931529999999995
21
-7.1041229999999995
0
LINE
8
BLACK
6
CONTINUOUS
10
43.4931529999999995
20
-7.1041229999999995
11
43.4931529999999995
21
-5.3898380000000001
0
LINE
8
BLACK
6
CONTINUOUS
10
45.3026769999999956
20
-7.2946
11
45.1122009999999989
21
-7.3898379999999992
0
LINE
8
BLACK
6
CONTINUOUS
10
45.1122009999999989
20
-7.3898379999999992
11
44.7312480000000008
21
-7.3898379999999992
0
LINE
8
BLACK
6
CONTINUOUS
10
44.7312480000000008
20
-7.3898379999999992
11
44.5407719999999969
21
-7.2946
0
LINE
8
BLACK
6
CONTINUOUS
10
44.5407719999999969
20
-7.2946
11
44.445533999999995
21
-7.1041229999999995
0
LINE
8
BLACK
6
CONTINUOUS
10
44.445533999999995
20
-7.1041229999999995
11
44.445533999999995
21
-6.3422190000000001
0
LINE
8
BLACK
6
CONTINUOUS
10
44.445533999999995
20
-6.3422190000000001
11
44.5407719999999969
21
-6.1517419999999996
0
LINE
8
BLACK
6
CONTINUOUS
10
44.5407719999999969
20
-6.1517419999999996
11
44.7312480000000008
21
-6.0565039999999994
0
LINE
8
BLACK
6
CONTINUOUS
10
44.7312480000000008
20
-6.0565039999999994
11
45.1122009999999989
21
-6.0565039999999994
0
LINE
8
BLACK
6
CONTINUOUS
10
45.1122009999999989
20
-6.0565039999999994
11
45.3026769999999956
21
-6.1517419999999996
0
LINE
8
BLACK
6
CONTINUOUS
10
45.3026769999999956
20
-6.1517419999999996
11
45.3979149999999976
21
-6.3422190000000001
0
LINE
8
BLACK
6
CONTINUOUS
10
45.3979149999999976
20
-6.3422190000000001
11
45.3979149999999976
21
-6.5326949999999995
0
LINE
8
BLACK
6
CONTINUOUS
10
45.3979149999999976
20
-6.5326949999999995
11
44.445533999999995
21
-6.7231709999999998
0
LINE
8
BLACK
6
CONTINUOUS
10
46.1598199999999963
20
-7.2946
11
46.3502960000000002
21
-7.3898379999999992
0
LINE
8
BLACK
6
CONTINUOUS
10
46.3502960000000002
20
-7.3898379999999992
11
46.7312480000000008
21
-7.3898379999999992
0
LINE
8
BLACK
6
CONTINUOUS
10
46.7312480000000008
20
-7.3898379999999992
11
46.921724999999995
21
-7.2946
0
LINE
8
BLACK
6
CONTINUOUS
10
46.921724999999995
20
-7.2946
11
47.016962999999997
21
-7.1041229999999995
0
LINE
8
BLACK
6
CONTINUOUS
10
47.016962999999997
20
-7.1041229999999995
11
47.016962999999997
21
-7.0088849999999994
0
LINE
8
BLACK
6
CONTINUOUS
10
47.016962999999997
20
-7.0088849999999994
11
46.921724999999995
21
-6.8184089999999999
0
LINE
8
BLACK
6
CONTINUOUS
10
46.921724999999995
20
-6.8184089999999999
11
46.7312480000000008
21
-6.7231709999999998
0
LINE
8
BLACK
6
CONTINUOUS
10
46.7312480000000008
20
-6.7231709999999998
11
46.445533999999995
21
-6.7231709999999998
0
LINE
8
BLACK
6
CONTINUOUS
10
46.445533999999995
20
-6.7231709999999998
11
46.2550579999999982
21
-6.6279329999999996
0
LINE
8
BLACK
6
CONTINUOUS
10
46.2550579999999982
20
-6.6279329999999996
11
46.1598199999999963
21
-6.4374569999999993
0
LINE
8
BLACK
6
CONTINUOUS
10
46.1598199999999963
20
-6.4374569999999993
11
46.1598199999999963
21
-6.3422190000000001
0
LINE
8
BLACK
6
CONTINUOUS
10
46.1598199999999963
20
-6.3422190000000001
11
46.2550579999999982
21
-6.1517419999999996
0
LINE
8
BLACK
6
CONTINUOUS
10
46.2550579999999982
20
-6.1517419999999996
11
46.445533999999995
21
-6.0565039999999994
0
LINE
8
BLACK
6
CONTINUOUS
10
46.445533999999995
20
-6.0565039999999994
11
46.7312480000000008
21
-6.0565039999999994
0
LINE
8
BLACK
6
CONTINUOUS
10
46.7312480000000008
20
-6.0565039999999994
11
46.921724999999995
21
-6.1517419999999996
0
LINE
8
BLACK
6
CONTINUOUS
10
47.6836300000000008
20
-8.1517420000000005
11
47.7788679999999957
21
-8.0565040000000003
0
LINE
8
BLACK
6
CONTINUOUS
10
47.7788679999999957
20
-8.0565040000000003
11
47.9693439999999995
21
-7.7707899999999999
0
LINE
8
BLACK
6
CONTINUOUS
10
47.9693439999999995
20
-7.7707899999999999
11
48.0645819999999944
21
-7.5803139999999996
0
LINE
8
BLACK
6
CONTINUOUS
10
48.0645819999999944
20
-7.5803139999999996
11
48.1598199999999963
21
-7.2946
0
LINE
8
BLACK
6
CONTINUOUS
10
48.1598199999999963
20
-7.2946
11
48.2550579999999982
21
-6.8184089999999999
0
LINE
8
BLACK
6
CONTINUOUS
10
48.2550579999999982
20
-6.8184089999999999
11
48.2550579999999982
21
-6.4374569999999993
0
LINE
8
BLACK
6
CONTINUOUS
10
48.2550579999999982
20
-6.4374569999999993
11
48.1598199999999963
21
-5.9612659999999993
0
LINE
8
BLACK
6
CONTINUOUS
10
48.1598199999999963
20
-5.9612659999999993
11
48.0645819999999944
21
-5.6755519999999997
0
LINE
8
BLACK
6
CONTINUOUS
10
48.0645819999999944
20
-5.6755519999999997
11
47.9693439999999995
21
-5.4850759999999994
0
LINE
8
BLACK
6
CONTINUOUS
10
47.9693439999999995
20
-5.4850759999999994
11
47.7788679999999957
21
-5.1993609999999997
0
LINE
8
BLACK
6
CONTINUOUS
10
47.7788679999999957
20
-5.1993609999999997
11
47.6836300000000008
21
-5.1041229999999995
0
LINE
8
BLACK
6
CONTINUOUS
10
51.3026780000000002
20
-8.1517420000000005
11
51.2074390000000008
21
-8.0565040000000003
0
LINE
8
BLACK
6
CONTINUOUS
10
51.2074390000000008
20
-8.0565040000000003
11
51.016962999999997
21
-7.7707899999999999
0
LINE
8
BLACK
6
CONTINUOUS
10
51.016962999999997
20
-7.7707899999999999
11
50.921724999999995
21
-7.5803139999999996
0
LINE
8
BLACK
6
CONTINUOUS
10
50.921724999999995
20
-7.5803139999999996
11
50.8264870000000002
21
-7.2946
0
LINE
8
BLACK
6
CONTINUOUS
10
50.8264870000000002
20
-7.2946
11
50.7312489999999983
21
-6.8184089999999999
0
LINE
8
BLACK
6
CONTINUOUS
10
50.7312489999999983
20
-6.8184089999999999
11
50.7312489999999983
21
-6.4374569999999993
0
LINE
8
BLACK
6
CONTINUOUS
10
50.7312489999999983
20
-6.4374569999999993
11
50.8264870000000002
21
-5.9612659999999993
0
LINE
8
BLACK
6
CONTINUOUS
10
50.8264870000000002
20
-5.9612659999999993
11
50.921724999999995
21
-5.6755519999999997
0
LINE
8
BLACK
6
CONTINUOUS
10
50.921724999999995
20
-5.6755519999999997
11
51.016962999999997
21
-5.4850759999999994
0
LINE
8
BLACK
6
CONTINUOUS
10
51.016962999999997
20
-5.4850759999999994
11
51.2074390000000008
21
-5.1993609999999997
0
LINE
8
BLACK
6
CONTINUOUS
10
51.2074390000000008
20
-5.1993609999999997
11
51.3026780000000002
21
-5.1041229999999995
0
LINE
8
BLACK
6
CONTINUOUS
10
52.0645819999999944
20
-6.0565039999999994
11
52.0645819999999944
21
-7.3898379999999992
0
LINE
8
BLACK
6
CONTINUOUS
10
52.0645819999999944
20
-6.2469799999999998
11
52.1598199999999963
21
-6.1517419999999996
0
LINE
8
BLACK
6
CONTINUOUS
10
52.1598199999999963
20
-6.1517419999999996
11
52.3502960000000002
21
-6.0565039999999994
0
LINE
8
BLACK
6
CONTINUOUS
10
52.3502960000000002
20
-6.0565039999999994
11
52.6360109999999963
21
-6.0565039999999994
0
LINE
8
BLACK
6
CONTINUOUS
10
52.6360109999999963
20
-6.0565039999999994
11
52.8264870000000002
21
-6.1517419999999996
0
LINE
8
BLACK
6
CONTINUOUS
10
52.8264870000000002
20
-6.1517419999999996
11
52.921724999999995
21
-6.3422190000000001
0
LINE
8
BLACK
6
CONTINUOUS
10
52.921724999999995
20
-6.3422190000000001
11
52.921724999999995
21
-7.3898379999999992
0
LINE
8
BLACK
6
CONTINUOUS
10
54.1598199999999963
20
-7.3898379999999992
11
53.9693439999999995
21
-7.2946
0
LINE
8
BLACK
6
CONTINUOUS
10
53.9693439999999995
20
-7.2946
11
53.8741059999999976
21
-7.1993609999999997
0
LINE
8
BLACK
6
CONTINUOUS
10
53.8741059999999976
20
-7.1993609999999997
11
53.7788679999999957
21
-7.0088849999999994
0
LINE
8
BLACK
6
CONTINUOUS
10
53.7788679999999957
20
-7.0088849999999994
11
53.7788679999999957
21
-6.4374569999999993
0
LINE
8
BLACK
6
CONTINUOUS
10
53.7788679999999957
20
-6.4374569999999993
11
53.8741059999999976
21
-6.2469799999999998
0
LINE
8
BLACK
6
CONTINUOUS
10
53.8741059999999976
20
-6.2469799999999998
11
53.9693439999999995
21
-6.1517419999999996
0
LINE
8
BLACK
6
CONTINUOUS
10
53.9693439999999995
20
-6.1517419999999996
11
54.1598199999999963
21
-6.0565039999999994
0
LINE
8
BLACK
6
CONTINUOUS
10
54.1598199999999963
20
-6.0565039999999994
11
54.4455349999999996
21
-6.0565039999999994
0
LINE
8
BLACK
6
CONTINUOUS
10
54.4455349999999996
20
-6.0565039999999994
11
54.6360109999999963
21
-6.1517419999999996
0
LINE
8
BLACK
6
CONTINUOUS
10
54.6360109999999963
20
-6.1517419999999996
11
54.7312489999999983
21
-6.2469799999999998
0
LINE
8
BLACK
6
CONTINUOUS
10
54.7312489999999983
20
-6.2469799999999998
11
54.8264870000000002
21
-6.4374569999999993
0
LINE
8
BLACK
6
CONTINUOUS
10
54.8264870000000002
20
-6.4374569999999993
11
54.8264870000000002
21
-7.0088849999999994
0
LINE
8
BLACK
6
CONTINUOUS
10
54.8264870000000002
20
-7.0088849999999994
11
54.7312489999999983
21
-7.1993609999999997
0
LINE
8
BLACK
6
CONTINUOUS
10
54.7312489999999983
20
-7.1993609999999997
11
54.6360109999999963
21
-7.2946
0
LINE
8
BLACK
6
CONTINUOUS
10
54.6360109999999963
20
-7.2946
11
54.4455349999999996
21
-7.3898379999999992
0
LINE
8
BLACK
6
CONTINUOUS
10
54.4455349999999996
20
-7.3898379999999992
11
54.1598199999999963
21
-7.3898379999999992
0
LINE
8
BLACK
6
CONTINUOUS
10
55.3979159999999951
20
-6.0565039999999994
11
56.1598199999999963
21
-6.0565039999999994
0
LINE
8
BLACK
6
CONTINUOUS
10
55.6836300000000008
20
-5.3898380000000001
11
55.6836300000000008
21
-7.1041229999999995
0
LINE
8
BLACK
6
CONTINUOUS
10
55.6836300000000008
20
-7.1041229999999995
11
55.7788679999999957
21
-7.2946
0
LINE
8
BLACK
6
CONTINUOUS
10
55.7788679999999957
20
-7.2946
11
55.9693439999999995
21
-7.3898379999999992
0
LINE
8
BLACK
6
CONTINUOUS
10
55.9693439999999995
20
-7.3898379999999992
11
56.1598199999999963
21
-7.3898379999999992
0
LINE
8
BLACK
6
CONTINUOUS
10
58.3502969999999976
20
-6.0565039999999994
11
58.3502969999999976
21
-8.0565040000000003
0
LINE
8
BLACK
6
CONTINUOUS
10
58.3502969999999976
20
-6.1517419999999996
11
58.5407729999999944
21
-6.0565039999999994
0
LINE
8
BLACK
6
CONTINUOUS
10
58.5407729999999944
20
-6.0565039999999994
11
58.9217259999999996
21
-6.0565039999999994
0
LINE
8
BLACK
6
CONTINUOUS
10
58.9217259999999996
20
-6.0565039999999994
11
59.1122019999999964
21
-6.1517419999999996
0
LINE
8
BLACK
6
CONTINUOUS
10
59.1122019999999964
20
-6.1517419999999996
11
59.2074399999999983
21
-6.2469799999999998
0
LINE
8
BLACK
6
CONTINUOUS
10
59.2074399999999983
20
-6.2469799999999998
11
59.3026780000000002
21
-6.4374569999999993
0
LINE
8
BLACK
6
CONTINUOUS
10
59.3026780000000002
20
-6.4374569999999993
11
59.3026780000000002
21
-7.0088849999999994
0
LINE
8
BLACK
6
CONTINUOUS
10
59.3026780000000002
20
-7.0088849999999994
11
59.2074399999999983
21
-7.1993609999999997
0
LINE
8
BLACK
6
CONTINUOUS
10
59.2074399999999983
20
-7.1993609999999997
11
59.1122019999999964
21
-7.2946
0
LINE
8
BLACK
6
CONTINUOUS
10
59.1122019999999964
20
-7.2946
11
58.9217259999999996
21
-7.3898379999999992
0
LINE
8
BLACK
6
CONTINUOUS
10
58.9217259999999996
20
-7.3898379999999992
11
58.5407729999999944
21
-7.3898379999999992
0
LINE
8
BLACK
6
CONTINUOUS
10
58.5407729999999944
20
-7.3898379999999992
11
58.3502969999999976
21
-7.2946
0
LINE
8
BLACK
6
CONTINUOUS
10
60.4455349999999996
20
-7.3898379999999992
11
60.2550589999999957
21
-7.2946
0
LINE
8
BLACK
6
CONTINUOUS
10
60.2550589999999957
20
-7.2946
11
60.1598209999999938
21
-7.1041229999999995
0
LINE
8
BLACK
6
CONTINUOUS
10
60.1598209999999938
20
-7.1041229999999995
11
60.1598209999999938
21
-5.3898380000000001
0
LINE
8
BLACK
6
CONTINUOUS
10
62.0645829999999989
20
-7.3898379999999992
11
62.0645829999999989
21
-6.3422190000000001
0
LINE
8
BLACK
6
CONTINUOUS
10
62.0645829999999989
20
-6.3422190000000001
11
61.969344999999997
21
-6.1517419999999996
0
LINE
8
BLACK
6
CONTINUOUS
10
61.969344999999997
20
-6.1517419999999996
11
61.7788690000000003
21
-6.0565039999999994
0
LINE
8
BLACK
6
CONTINUOUS
10
61.7788690000000003
20
-6.0565039999999994
11
61.3979159999999951
21
-6.0565039999999994
0
LINE
8
BLACK
6
CONTINUOUS
10
61.3979159999999951
20
-6.0565039999999994
11
61.2074399999999983
21
-6.1517419999999996
0
LINE
8
BLACK
6
CONTINUOUS
10
62.0645829999999989
20
-7.2946
11
61.8741069999999951
21
-7.3898379999999992
0
LINE
8
BLACK
6
CONTINUOUS
10
61.8741069999999951
20
-7.3898379999999992
11
61.3979159999999951
21
-7.3898379999999992
0
LINE
8
BLACK
6
CONTINUOUS
10
61.3979159999999951
20
-7.3898379999999992
11
61.2074399999999983
21
-7.2946
0
LINE
8
BLACK
6
CONTINUOUS
10
61.2074399999999983
20
-7.2946
11
61.1122019999999964
21
-7.1041229999999995
0
LINE
8
BLACK
6
CONTINUOUS
10
61.1122019999999964
20
-7.1041229999999995
11
61.1122019999999964
21
-6.9136470000000001
0
LINE
8
BLACK
6
CONTINUOUS
10
61.1122019999999964
20
-6.9136470000000001
11
61.2074399999999983
21
-6.7231709999999998
0
LINE
8
BLACK
6
CONTINUOUS
10
61.2074399999999983
20
-6.7231709999999998
11
61.3979159999999951
21
-6.6279329999999996
0
LINE
8
BLACK
6
CONTINUOUS
10
61.3979159999999951
20
-6.6279329999999996
11
61.8741069999999951
21
-6.6279329999999996
0
LINE
8
BLACK
6
CONTINUOUS
10
61.8741069999999951
20
-6.6279329999999996
11
62.0645829999999989
21
-6.5326949999999995
0
LINE
8
BLACK
6
CONTINUOUS
10
62.7312499999999957
20
-6.0565039999999994
11
63.493153999999997
21
-6.0565039999999994
0
LINE
8
BLACK
6
CONTINUOUS
10
63.0169639999999944
20
-5.3898380000000001
11
63.0169639999999944
21
-7.1041229999999995
0
LINE
8
BLACK
6
CONTINUOUS
10
63.0169639999999944
20
-7.1041229999999995
11
63.1122019999999964
21
-7.2946
0
LINE
8
BLACK
6
CONTINUOUS
10
63.1122019999999964
20
-7.2946
11
63.3026780000000002
21
-7.3898379999999992
0
LINE
8
BLACK
6
CONTINUOUS
10
63.3026780000000002
20
-7.3898379999999992
11
63.493153999999997
21
-7.3898379999999992
0
LINE
8
BLACK
6
CONTINUOUS
10
64.9217259999999925
20
-7.2946
11
64.7312500000000028
21
-7.3898379999999992
0
LINE
8
BLACK
6
CONTINUOUS
10
64.7312500000000028
20
-7.3898379999999992
11
64.3502969999999976
21
-7.3898379999999992
0
LINE
8
BLACK
6
CONTINUOUS
10
64.3502969999999976
20
-7.3898379999999992
11
64.1598209999999938
21
-7.2946
0
LINE
8
BLACK
6
CONTINUOUS
10
64.1598209999999938
20
-7.2946
11
64.0645829999999989
21
-7.1041229999999995
0
LINE
8
BLACK
6
CONTINUOUS
10
64.0645829999999989
20
-7.1041229999999995
11
64.0645829999999989
21
-6.3422190000000001
0
LINE
8
BLACK
6
CONTINUOUS
10
64.0645829999999989
20
-6.3422190000000001
11
64.1598209999999938
21
-6.1517419999999996
0
LINE
8
BLACK
6
CONTINUOUS
10
64.1598209999999938
20
-6.1517419999999996
11
64.3502969999999976
21
-6.0565039999999994
0
LINE
8
BLACK
6
CONTINUOUS
10
64.3502969999999976
20
-6.0565039999999994
11
64.7312500000000028
21
-6.0565039999999994
0
LINE
8
BLACK
6
CONTINUOUS
10
64.7312500000000028
20
-6.0565039999999994
11
64.9217259999999925
21
-6.1517419999999996
0
LINE
8
BLACK
6
CONTINUOUS
10
64.9217259999999925
20
-6.1517419999999996
11
65.0169640000000015
21
-6.3422190000000001
0
LINE
8
BLACK
6
CONTINUOUS
10
65.0169640000000015
20
-6.3422190000000001
11
65.0169640000000015
21
-6.5326949999999995
0
LINE
8
BLACK
6
CONTINUOUS
10
65.0169640000000015
20
-6.5326949999999995
11
64.0645829999999989
21
-6.7231709999999998
0
LINE
8
BLACK
6
CONTINUOUS
10
66.7312500000000028
20
-7.3898379999999992
11
66.7312500000000028
21
-5.3898380000000001
0
LINE
8
BLACK
6
CONTINUOUS
10
66.7312500000000028
20
-7.2946
11
66.540773999999999
21
-7.3898379999999992
0
LINE
8
BLACK
6
CONTINUOUS
10
66.540773999999999
20
-7.3898379999999992
11
66.1598209999999938
21
-7.3898379999999992
0
LINE
8
BLACK
6
CONTINUOUS
10
66.1598209999999938
20
-7.3898379999999992
11
65.9693450000000041
21
-7.2946
0
LINE
8
BLACK
6
CONTINUOUS
10
65.9693450000000041
20
-7.2946
11
65.8741069999999951
21
-7.1993609999999997
0
LINE
8
BLACK
6
CONTINUOUS
10
65.8741069999999951
20
-7.1993609999999997
11
65.7788690000000003
21
-7.0088849999999994
0
LINE
8
BLACK
6
CONTINUOUS
10
65.7788690000000003
20
-7.0088849999999994
11
65.7788690000000003
21
-6.4374569999999993
0
LINE
8
BLACK
6
CONTINUOUS
10
65.7788690000000003
20
-6.4374569999999993
11
65.8741069999999951
21
-6.2469799999999998
0
LINE
8
BLACK
6
CONTINUOUS
10
65.8741069999999951
20
-6.2469799999999998
11
65.9693450000000041
21
-6.1517419999999996
0
LINE
8
BLACK
6
CONTINUOUS
10
65.9693450000000041
20
-6.1517419999999996
11
66.1598209999999938
21
-6.0565039999999994
0
LINE
8
BLACK
6
CONTINUOUS
10
66.1598209999999938
20
-6.0565039999999994
11
66.540773999999999
21
-6.0565039999999994
0
LINE
8
BLACK
6
CONTINUOUS
10
66.540773999999999
20
-6.0565039999999994
11
66.7312500000000028
21
-6.1517419999999996
0
LINE
8
BLACK
6
CONTINUOUS
10
67.4931550000000016
20
-8.1517420000000005
11
67.5883929999999964
21
-8.0565040000000003
0
LINE
8
BLACK
6
CONTINUOUS
10
67.5883929999999964
20
-8.0565040000000003
11
67.7788690000000003
21
-7.7707899999999999
0
LINE
8
BLACK
6
CONTINUOUS
10
67.7788690000000003
20
-7.7707899999999999
11
67.8741069999999951
21
-7.5803139999999996
0
LINE
8
BLACK
6
CONTINUOUS
10
67.8741069999999951
20
-7.5803139999999996
11
67.9693449999999899
21
-7.2946
0
LINE
8
BLACK
6
CONTINUOUS
10
67.9693449999999899
20
-7.2946
11
68.0645829999999989
21
-6.8184089999999999
0
LINE
8
BLACK
6
CONTINUOUS
10
68.0645829999999989
20
-6.8184089999999999
11
68.0645829999999989
21
-6.4374569999999993
0
LINE
8
BLACK
6
CONTINUOUS
10
68.0645829999999989
20
-6.4374569999999993
11
67.9693449999999899
21
-5.9612659999999993
0
LINE
8
BLACK
6
CONTINUOUS
10
67.9693449999999899
20
-5.9612659999999993
11
67.8741069999999951
21
-5.6755519999999997
0
LINE
8
BLACK
6
CONTINUOUS
10
67.8741069999999951
20
-5.6755519999999997
11
67.7788690000000003
21
-5.4850759999999994
0
LINE
8
BLACK
6
CONTINUOUS
10
67.7788690000000003
20
-5.4850759999999994
11
67.5883929999999964
21
-5.1993609999999997
0
LINE
8
BLACK
6
CONTINUOUS
10
67.5883929999999964
20
-5.1993609999999997
11
67.4931550000000016
21
-5.1041229999999995
  0
ENDSEC
  0
EOF
