%TF.GenerationSoftware,KiCad,Pcbnew,7.0.8*%
%TF.CreationDate,2023-10-14T20:08:13+02:00*%
%TF.ProjectId,LCRDT-Tester,4c435244-542d-4546-9573-7465722e6b69,0.3*%
%TF.SameCoordinates,Original*%
%TF.FileFunction,Copper,L1,Top*%
%TF.FilePolarity,Positive*%
%FSLAX46Y46*%
G04 Gerber Fmt 4.6, Leading zero omitted, Abs format (unit mm)*
G04 Created by KiCad (PCBNEW 7.0.8) date 2023-10-14 20:08:13*
%MOMM*%
%LPD*%
G01*
G04 APERTURE LIST*
%ADD10C,0.100000*%
%ADD11C,0.150000*%
%ADD12C,0.300000*%
%ADD13C,0.400000*%
%TA.AperFunction,ComponentPad*%
%ADD14R,1.700000X1.700000*%
%TD*%
%TA.AperFunction,ComponentPad*%
%ADD15O,1.700000X1.700000*%
%TD*%
%TA.AperFunction,ComponentPad*%
%ADD16C,1.400000*%
%TD*%
%TA.AperFunction,ComponentPad*%
%ADD17O,1.400000X1.400000*%
%TD*%
%TA.AperFunction,ComponentPad*%
%ADD18C,1.600000*%
%TD*%
%TA.AperFunction,ComponentPad*%
%ADD19R,1.600000X1.600000*%
%TD*%
%TA.AperFunction,ComponentPad*%
%ADD20O,1.600000X1.600000*%
%TD*%
%TA.AperFunction,ComponentPad*%
%ADD21C,2.000000*%
%TD*%
%TA.AperFunction,ComponentPad*%
%ADD22C,5.600000*%
%TD*%
%TA.AperFunction,ComponentPad*%
%ADD23R,2.250000X2.250000*%
%TD*%
%TA.AperFunction,ComponentPad*%
%ADD24C,2.250000*%
%TD*%
%TA.AperFunction,ViaPad*%
%ADD25C,0.800000*%
%TD*%
%TA.AperFunction,Conductor*%
%ADD26C,0.400000*%
%TD*%
%TA.AperFunction,Profile*%
%ADD27C,0.150000*%
%TD*%
G04 APERTURE END LIST*
D10*
D11*
X177002200Y-166007200D02*
X285002200Y-166007200D01*
X285002200Y-198007200D01*
X177002200Y-198007200D01*
X177002200Y-166007200D01*
D10*
D11*
X10000000Y-10000000D02*
X287002200Y-10000000D01*
X287002200Y-200007200D01*
X10000000Y-200007200D01*
X10000000Y-10000000D01*
D10*
D11*
X12000000Y-12000000D02*
X285002200Y-12000000D01*
X285002200Y-198007200D01*
X12000000Y-198007200D01*
X12000000Y-12000000D01*
D10*
D11*
X60000000Y-12000000D02*
X60000000Y-10000000D01*
D10*
D11*
X110000000Y-12000000D02*
X110000000Y-10000000D01*
D10*
D11*
X160000000Y-12000000D02*
X160000000Y-10000000D01*
D10*
D11*
X210000000Y-12000000D02*
X210000000Y-10000000D01*
D10*
D11*
X260000000Y-12000000D02*
X260000000Y-10000000D01*
D10*
D11*
X36089160Y-11593604D02*
X35346303Y-11593604D01*
X35717731Y-11593604D02*
X35717731Y-10293604D01*
X35717731Y-10293604D02*
X35593922Y-10479319D01*
X35593922Y-10479319D02*
X35470112Y-10603128D01*
X35470112Y-10603128D02*
X35346303Y-10665033D01*
D10*
D11*
X85346303Y-10417414D02*
X85408207Y-10355509D01*
X85408207Y-10355509D02*
X85532017Y-10293604D01*
X85532017Y-10293604D02*
X85841541Y-10293604D01*
X85841541Y-10293604D02*
X85965350Y-10355509D01*
X85965350Y-10355509D02*
X86027255Y-10417414D01*
X86027255Y-10417414D02*
X86089160Y-10541223D01*
X86089160Y-10541223D02*
X86089160Y-10665033D01*
X86089160Y-10665033D02*
X86027255Y-10850747D01*
X86027255Y-10850747D02*
X85284398Y-11593604D01*
X85284398Y-11593604D02*
X86089160Y-11593604D01*
D10*
D11*
X135284398Y-10293604D02*
X136089160Y-10293604D01*
X136089160Y-10293604D02*
X135655826Y-10788842D01*
X135655826Y-10788842D02*
X135841541Y-10788842D01*
X135841541Y-10788842D02*
X135965350Y-10850747D01*
X135965350Y-10850747D02*
X136027255Y-10912652D01*
X136027255Y-10912652D02*
X136089160Y-11036461D01*
X136089160Y-11036461D02*
X136089160Y-11345985D01*
X136089160Y-11345985D02*
X136027255Y-11469795D01*
X136027255Y-11469795D02*
X135965350Y-11531700D01*
X135965350Y-11531700D02*
X135841541Y-11593604D01*
X135841541Y-11593604D02*
X135470112Y-11593604D01*
X135470112Y-11593604D02*
X135346303Y-11531700D01*
X135346303Y-11531700D02*
X135284398Y-11469795D01*
D10*
D11*
X185965350Y-10726938D02*
X185965350Y-11593604D01*
X185655826Y-10231700D02*
X185346303Y-11160271D01*
X185346303Y-11160271D02*
X186151064Y-11160271D01*
D10*
D11*
X236027255Y-10293604D02*
X235408207Y-10293604D01*
X235408207Y-10293604D02*
X235346303Y-10912652D01*
X235346303Y-10912652D02*
X235408207Y-10850747D01*
X235408207Y-10850747D02*
X235532017Y-10788842D01*
X235532017Y-10788842D02*
X235841541Y-10788842D01*
X235841541Y-10788842D02*
X235965350Y-10850747D01*
X235965350Y-10850747D02*
X236027255Y-10912652D01*
X236027255Y-10912652D02*
X236089160Y-11036461D01*
X236089160Y-11036461D02*
X236089160Y-11345985D01*
X236089160Y-11345985D02*
X236027255Y-11469795D01*
X236027255Y-11469795D02*
X235965350Y-11531700D01*
X235965350Y-11531700D02*
X235841541Y-11593604D01*
X235841541Y-11593604D02*
X235532017Y-11593604D01*
X235532017Y-11593604D02*
X235408207Y-11531700D01*
X235408207Y-11531700D02*
X235346303Y-11469795D01*
D10*
D11*
X285965350Y-10293604D02*
X285717731Y-10293604D01*
X285717731Y-10293604D02*
X285593922Y-10355509D01*
X285593922Y-10355509D02*
X285532017Y-10417414D01*
X285532017Y-10417414D02*
X285408207Y-10603128D01*
X285408207Y-10603128D02*
X285346303Y-10850747D01*
X285346303Y-10850747D02*
X285346303Y-11345985D01*
X285346303Y-11345985D02*
X285408207Y-11469795D01*
X285408207Y-11469795D02*
X285470112Y-11531700D01*
X285470112Y-11531700D02*
X285593922Y-11593604D01*
X285593922Y-11593604D02*
X285841541Y-11593604D01*
X285841541Y-11593604D02*
X285965350Y-11531700D01*
X285965350Y-11531700D02*
X286027255Y-11469795D01*
X286027255Y-11469795D02*
X286089160Y-11345985D01*
X286089160Y-11345985D02*
X286089160Y-11036461D01*
X286089160Y-11036461D02*
X286027255Y-10912652D01*
X286027255Y-10912652D02*
X285965350Y-10850747D01*
X285965350Y-10850747D02*
X285841541Y-10788842D01*
X285841541Y-10788842D02*
X285593922Y-10788842D01*
X285593922Y-10788842D02*
X285470112Y-10850747D01*
X285470112Y-10850747D02*
X285408207Y-10912652D01*
X285408207Y-10912652D02*
X285346303Y-11036461D01*
D10*
D11*
X60000000Y-198007200D02*
X60000000Y-200007200D01*
D10*
D11*
X110000000Y-198007200D02*
X110000000Y-200007200D01*
D10*
D11*
X160000000Y-198007200D02*
X160000000Y-200007200D01*
D10*
D11*
X210000000Y-198007200D02*
X210000000Y-200007200D01*
D10*
D11*
X260000000Y-198007200D02*
X260000000Y-200007200D01*
D10*
D11*
X36089160Y-199600804D02*
X35346303Y-199600804D01*
X35717731Y-199600804D02*
X35717731Y-198300804D01*
X35717731Y-198300804D02*
X35593922Y-198486519D01*
X35593922Y-198486519D02*
X35470112Y-198610328D01*
X35470112Y-198610328D02*
X35346303Y-198672233D01*
D10*
D11*
X85346303Y-198424614D02*
X85408207Y-198362709D01*
X85408207Y-198362709D02*
X85532017Y-198300804D01*
X85532017Y-198300804D02*
X85841541Y-198300804D01*
X85841541Y-198300804D02*
X85965350Y-198362709D01*
X85965350Y-198362709D02*
X86027255Y-198424614D01*
X86027255Y-198424614D02*
X86089160Y-198548423D01*
X86089160Y-198548423D02*
X86089160Y-198672233D01*
X86089160Y-198672233D02*
X86027255Y-198857947D01*
X86027255Y-198857947D02*
X85284398Y-199600804D01*
X85284398Y-199600804D02*
X86089160Y-199600804D01*
D10*
D11*
X135284398Y-198300804D02*
X136089160Y-198300804D01*
X136089160Y-198300804D02*
X135655826Y-198796042D01*
X135655826Y-198796042D02*
X135841541Y-198796042D01*
X135841541Y-198796042D02*
X135965350Y-198857947D01*
X135965350Y-198857947D02*
X136027255Y-198919852D01*
X136027255Y-198919852D02*
X136089160Y-199043661D01*
X136089160Y-199043661D02*
X136089160Y-199353185D01*
X136089160Y-199353185D02*
X136027255Y-199476995D01*
X136027255Y-199476995D02*
X135965350Y-199538900D01*
X135965350Y-199538900D02*
X135841541Y-199600804D01*
X135841541Y-199600804D02*
X135470112Y-199600804D01*
X135470112Y-199600804D02*
X135346303Y-199538900D01*
X135346303Y-199538900D02*
X135284398Y-199476995D01*
D10*
D11*
X185965350Y-198734138D02*
X185965350Y-199600804D01*
X185655826Y-198238900D02*
X185346303Y-199167471D01*
X185346303Y-199167471D02*
X186151064Y-199167471D01*
D10*
D11*
X236027255Y-198300804D02*
X235408207Y-198300804D01*
X235408207Y-198300804D02*
X235346303Y-198919852D01*
X235346303Y-198919852D02*
X235408207Y-198857947D01*
X235408207Y-198857947D02*
X235532017Y-198796042D01*
X235532017Y-198796042D02*
X235841541Y-198796042D01*
X235841541Y-198796042D02*
X235965350Y-198857947D01*
X235965350Y-198857947D02*
X236027255Y-198919852D01*
X236027255Y-198919852D02*
X236089160Y-199043661D01*
X236089160Y-199043661D02*
X236089160Y-199353185D01*
X236089160Y-199353185D02*
X236027255Y-199476995D01*
X236027255Y-199476995D02*
X235965350Y-199538900D01*
X235965350Y-199538900D02*
X235841541Y-199600804D01*
X235841541Y-199600804D02*
X235532017Y-199600804D01*
X235532017Y-199600804D02*
X235408207Y-199538900D01*
X235408207Y-199538900D02*
X235346303Y-199476995D01*
D10*
D11*
X285965350Y-198300804D02*
X285717731Y-198300804D01*
X285717731Y-198300804D02*
X285593922Y-198362709D01*
X285593922Y-198362709D02*
X285532017Y-198424614D01*
X285532017Y-198424614D02*
X285408207Y-198610328D01*
X285408207Y-198610328D02*
X285346303Y-198857947D01*
X285346303Y-198857947D02*
X285346303Y-199353185D01*
X285346303Y-199353185D02*
X285408207Y-199476995D01*
X285408207Y-199476995D02*
X285470112Y-199538900D01*
X285470112Y-199538900D02*
X285593922Y-199600804D01*
X285593922Y-199600804D02*
X285841541Y-199600804D01*
X285841541Y-199600804D02*
X285965350Y-199538900D01*
X285965350Y-199538900D02*
X286027255Y-199476995D01*
X286027255Y-199476995D02*
X286089160Y-199353185D01*
X286089160Y-199353185D02*
X286089160Y-199043661D01*
X286089160Y-199043661D02*
X286027255Y-198919852D01*
X286027255Y-198919852D02*
X285965350Y-198857947D01*
X285965350Y-198857947D02*
X285841541Y-198796042D01*
X285841541Y-198796042D02*
X285593922Y-198796042D01*
X285593922Y-198796042D02*
X285470112Y-198857947D01*
X285470112Y-198857947D02*
X285408207Y-198919852D01*
X285408207Y-198919852D02*
X285346303Y-199043661D01*
D10*
D11*
X10000000Y-60000000D02*
X12000000Y-60000000D01*
D10*
D11*
X10000000Y-110000000D02*
X12000000Y-110000000D01*
D10*
D11*
X10000000Y-160000000D02*
X12000000Y-160000000D01*
D10*
D11*
X10690476Y-35222176D02*
X11309523Y-35222176D01*
X10566666Y-35593604D02*
X10999999Y-34293604D01*
X10999999Y-34293604D02*
X11433333Y-35593604D01*
D10*
D11*
X11092857Y-84912652D02*
X11278571Y-84974557D01*
X11278571Y-84974557D02*
X11340476Y-85036461D01*
X11340476Y-85036461D02*
X11402380Y-85160271D01*
X11402380Y-85160271D02*
X11402380Y-85345985D01*
X11402380Y-85345985D02*
X11340476Y-85469795D01*
X11340476Y-85469795D02*
X11278571Y-85531700D01*
X11278571Y-85531700D02*
X11154761Y-85593604D01*
X11154761Y-85593604D02*
X10659523Y-85593604D01*
X10659523Y-85593604D02*
X10659523Y-84293604D01*
X10659523Y-84293604D02*
X11092857Y-84293604D01*
X11092857Y-84293604D02*
X11216666Y-84355509D01*
X11216666Y-84355509D02*
X11278571Y-84417414D01*
X11278571Y-84417414D02*
X11340476Y-84541223D01*
X11340476Y-84541223D02*
X11340476Y-84665033D01*
X11340476Y-84665033D02*
X11278571Y-84788842D01*
X11278571Y-84788842D02*
X11216666Y-84850747D01*
X11216666Y-84850747D02*
X11092857Y-84912652D01*
X11092857Y-84912652D02*
X10659523Y-84912652D01*
D10*
D11*
X11402380Y-135469795D02*
X11340476Y-135531700D01*
X11340476Y-135531700D02*
X11154761Y-135593604D01*
X11154761Y-135593604D02*
X11030952Y-135593604D01*
X11030952Y-135593604D02*
X10845238Y-135531700D01*
X10845238Y-135531700D02*
X10721428Y-135407890D01*
X10721428Y-135407890D02*
X10659523Y-135284080D01*
X10659523Y-135284080D02*
X10597619Y-135036461D01*
X10597619Y-135036461D02*
X10597619Y-134850747D01*
X10597619Y-134850747D02*
X10659523Y-134603128D01*
X10659523Y-134603128D02*
X10721428Y-134479319D01*
X10721428Y-134479319D02*
X10845238Y-134355509D01*
X10845238Y-134355509D02*
X11030952Y-134293604D01*
X11030952Y-134293604D02*
X11154761Y-134293604D01*
X11154761Y-134293604D02*
X11340476Y-134355509D01*
X11340476Y-134355509D02*
X11402380Y-134417414D01*
D10*
D11*
X10659523Y-185593604D02*
X10659523Y-184293604D01*
X10659523Y-184293604D02*
X10969047Y-184293604D01*
X10969047Y-184293604D02*
X11154761Y-184355509D01*
X11154761Y-184355509D02*
X11278571Y-184479319D01*
X11278571Y-184479319D02*
X11340476Y-184603128D01*
X11340476Y-184603128D02*
X11402380Y-184850747D01*
X11402380Y-184850747D02*
X11402380Y-185036461D01*
X11402380Y-185036461D02*
X11340476Y-185284080D01*
X11340476Y-185284080D02*
X11278571Y-185407890D01*
X11278571Y-185407890D02*
X11154761Y-185531700D01*
X11154761Y-185531700D02*
X10969047Y-185593604D01*
X10969047Y-185593604D02*
X10659523Y-185593604D01*
D10*
D11*
X287002200Y-60000000D02*
X285002200Y-60000000D01*
D10*
D11*
X287002200Y-110000000D02*
X285002200Y-110000000D01*
D10*
D11*
X287002200Y-160000000D02*
X285002200Y-160000000D01*
D10*
D11*
X285692676Y-35222176D02*
X286311723Y-35222176D01*
X285568866Y-35593604D02*
X286002199Y-34293604D01*
X286002199Y-34293604D02*
X286435533Y-35593604D01*
D10*
D11*
X286095057Y-84912652D02*
X286280771Y-84974557D01*
X286280771Y-84974557D02*
X286342676Y-85036461D01*
X286342676Y-85036461D02*
X286404580Y-85160271D01*
X286404580Y-85160271D02*
X286404580Y-85345985D01*
X286404580Y-85345985D02*
X286342676Y-85469795D01*
X286342676Y-85469795D02*
X286280771Y-85531700D01*
X286280771Y-85531700D02*
X286156961Y-85593604D01*
X286156961Y-85593604D02*
X285661723Y-85593604D01*
X285661723Y-85593604D02*
X285661723Y-84293604D01*
X285661723Y-84293604D02*
X286095057Y-84293604D01*
X286095057Y-84293604D02*
X286218866Y-84355509D01*
X286218866Y-84355509D02*
X286280771Y-84417414D01*
X286280771Y-84417414D02*
X286342676Y-84541223D01*
X286342676Y-84541223D02*
X286342676Y-84665033D01*
X286342676Y-84665033D02*
X286280771Y-84788842D01*
X286280771Y-84788842D02*
X286218866Y-84850747D01*
X286218866Y-84850747D02*
X286095057Y-84912652D01*
X286095057Y-84912652D02*
X285661723Y-84912652D01*
D10*
D11*
X286404580Y-135469795D02*
X286342676Y-135531700D01*
X286342676Y-135531700D02*
X286156961Y-135593604D01*
X286156961Y-135593604D02*
X286033152Y-135593604D01*
X286033152Y-135593604D02*
X285847438Y-135531700D01*
X285847438Y-135531700D02*
X285723628Y-135407890D01*
X285723628Y-135407890D02*
X285661723Y-135284080D01*
X285661723Y-135284080D02*
X285599819Y-135036461D01*
X285599819Y-135036461D02*
X285599819Y-134850747D01*
X285599819Y-134850747D02*
X285661723Y-134603128D01*
X285661723Y-134603128D02*
X285723628Y-134479319D01*
X285723628Y-134479319D02*
X285847438Y-134355509D01*
X285847438Y-134355509D02*
X286033152Y-134293604D01*
X286033152Y-134293604D02*
X286156961Y-134293604D01*
X286156961Y-134293604D02*
X286342676Y-134355509D01*
X286342676Y-134355509D02*
X286404580Y-134417414D01*
D10*
D11*
X285661723Y-185593604D02*
X285661723Y-184293604D01*
X285661723Y-184293604D02*
X285971247Y-184293604D01*
X285971247Y-184293604D02*
X286156961Y-184355509D01*
X286156961Y-184355509D02*
X286280771Y-184479319D01*
X286280771Y-184479319D02*
X286342676Y-184603128D01*
X286342676Y-184603128D02*
X286404580Y-184850747D01*
X286404580Y-184850747D02*
X286404580Y-185036461D01*
X286404580Y-185036461D02*
X286342676Y-185284080D01*
X286342676Y-185284080D02*
X286280771Y-185407890D01*
X286280771Y-185407890D02*
X286156961Y-185531700D01*
X286156961Y-185531700D02*
X285971247Y-185593604D01*
X285971247Y-185593604D02*
X285661723Y-185593604D01*
D10*
D11*
X200458026Y-193793328D02*
X200458026Y-192293328D01*
X200458026Y-192293328D02*
X200815169Y-192293328D01*
X200815169Y-192293328D02*
X201029455Y-192364757D01*
X201029455Y-192364757D02*
X201172312Y-192507614D01*
X201172312Y-192507614D02*
X201243741Y-192650471D01*
X201243741Y-192650471D02*
X201315169Y-192936185D01*
X201315169Y-192936185D02*
X201315169Y-193150471D01*
X201315169Y-193150471D02*
X201243741Y-193436185D01*
X201243741Y-193436185D02*
X201172312Y-193579042D01*
X201172312Y-193579042D02*
X201029455Y-193721900D01*
X201029455Y-193721900D02*
X200815169Y-193793328D01*
X200815169Y-193793328D02*
X200458026Y-193793328D01*
X202600884Y-193793328D02*
X202600884Y-193007614D01*
X202600884Y-193007614D02*
X202529455Y-192864757D01*
X202529455Y-192864757D02*
X202386598Y-192793328D01*
X202386598Y-192793328D02*
X202100884Y-192793328D01*
X202100884Y-192793328D02*
X201958026Y-192864757D01*
X202600884Y-193721900D02*
X202458026Y-193793328D01*
X202458026Y-193793328D02*
X202100884Y-193793328D01*
X202100884Y-193793328D02*
X201958026Y-193721900D01*
X201958026Y-193721900D02*
X201886598Y-193579042D01*
X201886598Y-193579042D02*
X201886598Y-193436185D01*
X201886598Y-193436185D02*
X201958026Y-193293328D01*
X201958026Y-193293328D02*
X202100884Y-193221900D01*
X202100884Y-193221900D02*
X202458026Y-193221900D01*
X202458026Y-193221900D02*
X202600884Y-193150471D01*
X203100884Y-192793328D02*
X203672312Y-192793328D01*
X203315169Y-192293328D02*
X203315169Y-193579042D01*
X203315169Y-193579042D02*
X203386598Y-193721900D01*
X203386598Y-193721900D02*
X203529455Y-193793328D01*
X203529455Y-193793328D02*
X203672312Y-193793328D01*
X204743741Y-193721900D02*
X204600884Y-193793328D01*
X204600884Y-193793328D02*
X204315170Y-193793328D01*
X204315170Y-193793328D02*
X204172312Y-193721900D01*
X204172312Y-193721900D02*
X204100884Y-193579042D01*
X204100884Y-193579042D02*
X204100884Y-193007614D01*
X204100884Y-193007614D02*
X204172312Y-192864757D01*
X204172312Y-192864757D02*
X204315170Y-192793328D01*
X204315170Y-192793328D02*
X204600884Y-192793328D01*
X204600884Y-192793328D02*
X204743741Y-192864757D01*
X204743741Y-192864757D02*
X204815170Y-193007614D01*
X204815170Y-193007614D02*
X204815170Y-193150471D01*
X204815170Y-193150471D02*
X204100884Y-193293328D01*
X205458026Y-193650471D02*
X205529455Y-193721900D01*
X205529455Y-193721900D02*
X205458026Y-193793328D01*
X205458026Y-193793328D02*
X205386598Y-193721900D01*
X205386598Y-193721900D02*
X205458026Y-193650471D01*
X205458026Y-193650471D02*
X205458026Y-193793328D01*
X205458026Y-192864757D02*
X205529455Y-192936185D01*
X205529455Y-192936185D02*
X205458026Y-193007614D01*
X205458026Y-193007614D02*
X205386598Y-192936185D01*
X205386598Y-192936185D02*
X205458026Y-192864757D01*
X205458026Y-192864757D02*
X205458026Y-193007614D01*
X207243741Y-192436185D02*
X207315169Y-192364757D01*
X207315169Y-192364757D02*
X207458027Y-192293328D01*
X207458027Y-192293328D02*
X207815169Y-192293328D01*
X207815169Y-192293328D02*
X207958027Y-192364757D01*
X207958027Y-192364757D02*
X208029455Y-192436185D01*
X208029455Y-192436185D02*
X208100884Y-192579042D01*
X208100884Y-192579042D02*
X208100884Y-192721900D01*
X208100884Y-192721900D02*
X208029455Y-192936185D01*
X208029455Y-192936185D02*
X207172312Y-193793328D01*
X207172312Y-193793328D02*
X208100884Y-193793328D01*
X209029455Y-192293328D02*
X209172312Y-192293328D01*
X209172312Y-192293328D02*
X209315169Y-192364757D01*
X209315169Y-192364757D02*
X209386598Y-192436185D01*
X209386598Y-192436185D02*
X209458026Y-192579042D01*
X209458026Y-192579042D02*
X209529455Y-192864757D01*
X209529455Y-192864757D02*
X209529455Y-193221900D01*
X209529455Y-193221900D02*
X209458026Y-193507614D01*
X209458026Y-193507614D02*
X209386598Y-193650471D01*
X209386598Y-193650471D02*
X209315169Y-193721900D01*
X209315169Y-193721900D02*
X209172312Y-193793328D01*
X209172312Y-193793328D02*
X209029455Y-193793328D01*
X209029455Y-193793328D02*
X208886598Y-193721900D01*
X208886598Y-193721900D02*
X208815169Y-193650471D01*
X208815169Y-193650471D02*
X208743740Y-193507614D01*
X208743740Y-193507614D02*
X208672312Y-193221900D01*
X208672312Y-193221900D02*
X208672312Y-192864757D01*
X208672312Y-192864757D02*
X208743740Y-192579042D01*
X208743740Y-192579042D02*
X208815169Y-192436185D01*
X208815169Y-192436185D02*
X208886598Y-192364757D01*
X208886598Y-192364757D02*
X209029455Y-192293328D01*
X210100883Y-192436185D02*
X210172311Y-192364757D01*
X210172311Y-192364757D02*
X210315169Y-192293328D01*
X210315169Y-192293328D02*
X210672311Y-192293328D01*
X210672311Y-192293328D02*
X210815169Y-192364757D01*
X210815169Y-192364757D02*
X210886597Y-192436185D01*
X210886597Y-192436185D02*
X210958026Y-192579042D01*
X210958026Y-192579042D02*
X210958026Y-192721900D01*
X210958026Y-192721900D02*
X210886597Y-192936185D01*
X210886597Y-192936185D02*
X210029454Y-193793328D01*
X210029454Y-193793328D02*
X210958026Y-193793328D01*
X211458025Y-192293328D02*
X212386597Y-192293328D01*
X212386597Y-192293328D02*
X211886597Y-192864757D01*
X211886597Y-192864757D02*
X212100882Y-192864757D01*
X212100882Y-192864757D02*
X212243740Y-192936185D01*
X212243740Y-192936185D02*
X212315168Y-193007614D01*
X212315168Y-193007614D02*
X212386597Y-193150471D01*
X212386597Y-193150471D02*
X212386597Y-193507614D01*
X212386597Y-193507614D02*
X212315168Y-193650471D01*
X212315168Y-193650471D02*
X212243740Y-193721900D01*
X212243740Y-193721900D02*
X212100882Y-193793328D01*
X212100882Y-193793328D02*
X211672311Y-193793328D01*
X211672311Y-193793328D02*
X211529454Y-193721900D01*
X211529454Y-193721900D02*
X211458025Y-193650471D01*
X213029453Y-193221900D02*
X214172311Y-193221900D01*
X215672311Y-193793328D02*
X214815168Y-193793328D01*
X215243739Y-193793328D02*
X215243739Y-192293328D01*
X215243739Y-192293328D02*
X215100882Y-192507614D01*
X215100882Y-192507614D02*
X214958025Y-192650471D01*
X214958025Y-192650471D02*
X214815168Y-192721900D01*
X216600882Y-192293328D02*
X216743739Y-192293328D01*
X216743739Y-192293328D02*
X216886596Y-192364757D01*
X216886596Y-192364757D02*
X216958025Y-192436185D01*
X216958025Y-192436185D02*
X217029453Y-192579042D01*
X217029453Y-192579042D02*
X217100882Y-192864757D01*
X217100882Y-192864757D02*
X217100882Y-193221900D01*
X217100882Y-193221900D02*
X217029453Y-193507614D01*
X217029453Y-193507614D02*
X216958025Y-193650471D01*
X216958025Y-193650471D02*
X216886596Y-193721900D01*
X216886596Y-193721900D02*
X216743739Y-193793328D01*
X216743739Y-193793328D02*
X216600882Y-193793328D01*
X216600882Y-193793328D02*
X216458025Y-193721900D01*
X216458025Y-193721900D02*
X216386596Y-193650471D01*
X216386596Y-193650471D02*
X216315167Y-193507614D01*
X216315167Y-193507614D02*
X216243739Y-193221900D01*
X216243739Y-193221900D02*
X216243739Y-192864757D01*
X216243739Y-192864757D02*
X216315167Y-192579042D01*
X216315167Y-192579042D02*
X216386596Y-192436185D01*
X216386596Y-192436185D02*
X216458025Y-192364757D01*
X216458025Y-192364757D02*
X216600882Y-192293328D01*
X217743738Y-193221900D02*
X218886596Y-193221900D01*
X219886596Y-192293328D02*
X220029453Y-192293328D01*
X220029453Y-192293328D02*
X220172310Y-192364757D01*
X220172310Y-192364757D02*
X220243739Y-192436185D01*
X220243739Y-192436185D02*
X220315167Y-192579042D01*
X220315167Y-192579042D02*
X220386596Y-192864757D01*
X220386596Y-192864757D02*
X220386596Y-193221900D01*
X220386596Y-193221900D02*
X220315167Y-193507614D01*
X220315167Y-193507614D02*
X220243739Y-193650471D01*
X220243739Y-193650471D02*
X220172310Y-193721900D01*
X220172310Y-193721900D02*
X220029453Y-193793328D01*
X220029453Y-193793328D02*
X219886596Y-193793328D01*
X219886596Y-193793328D02*
X219743739Y-193721900D01*
X219743739Y-193721900D02*
X219672310Y-193650471D01*
X219672310Y-193650471D02*
X219600881Y-193507614D01*
X219600881Y-193507614D02*
X219529453Y-193221900D01*
X219529453Y-193221900D02*
X219529453Y-192864757D01*
X219529453Y-192864757D02*
X219600881Y-192579042D01*
X219600881Y-192579042D02*
X219672310Y-192436185D01*
X219672310Y-192436185D02*
X219743739Y-192364757D01*
X219743739Y-192364757D02*
X219886596Y-192293328D01*
X221743738Y-192293328D02*
X221029452Y-192293328D01*
X221029452Y-192293328D02*
X220958024Y-193007614D01*
X220958024Y-193007614D02*
X221029452Y-192936185D01*
X221029452Y-192936185D02*
X221172310Y-192864757D01*
X221172310Y-192864757D02*
X221529452Y-192864757D01*
X221529452Y-192864757D02*
X221672310Y-192936185D01*
X221672310Y-192936185D02*
X221743738Y-193007614D01*
X221743738Y-193007614D02*
X221815167Y-193150471D01*
X221815167Y-193150471D02*
X221815167Y-193507614D01*
X221815167Y-193507614D02*
X221743738Y-193650471D01*
X221743738Y-193650471D02*
X221672310Y-193721900D01*
X221672310Y-193721900D02*
X221529452Y-193793328D01*
X221529452Y-193793328D02*
X221172310Y-193793328D01*
X221172310Y-193793328D02*
X221029452Y-193721900D01*
X221029452Y-193721900D02*
X220958024Y-193650471D01*
D10*
D11*
X177002200Y-194507200D02*
X285002200Y-194507200D01*
D10*
D11*
X178458026Y-196593328D02*
X178458026Y-195093328D01*
X179315169Y-196593328D02*
X178672312Y-195736185D01*
X179315169Y-195093328D02*
X178458026Y-195950471D01*
X179958026Y-196593328D02*
X179958026Y-195593328D01*
X179958026Y-195093328D02*
X179886598Y-195164757D01*
X179886598Y-195164757D02*
X179958026Y-195236185D01*
X179958026Y-195236185D02*
X180029455Y-195164757D01*
X180029455Y-195164757D02*
X179958026Y-195093328D01*
X179958026Y-195093328D02*
X179958026Y-195236185D01*
X181529455Y-196450471D02*
X181458027Y-196521900D01*
X181458027Y-196521900D02*
X181243741Y-196593328D01*
X181243741Y-196593328D02*
X181100884Y-196593328D01*
X181100884Y-196593328D02*
X180886598Y-196521900D01*
X180886598Y-196521900D02*
X180743741Y-196379042D01*
X180743741Y-196379042D02*
X180672312Y-196236185D01*
X180672312Y-196236185D02*
X180600884Y-195950471D01*
X180600884Y-195950471D02*
X180600884Y-195736185D01*
X180600884Y-195736185D02*
X180672312Y-195450471D01*
X180672312Y-195450471D02*
X180743741Y-195307614D01*
X180743741Y-195307614D02*
X180886598Y-195164757D01*
X180886598Y-195164757D02*
X181100884Y-195093328D01*
X181100884Y-195093328D02*
X181243741Y-195093328D01*
X181243741Y-195093328D02*
X181458027Y-195164757D01*
X181458027Y-195164757D02*
X181529455Y-195236185D01*
X182815170Y-196593328D02*
X182815170Y-195807614D01*
X182815170Y-195807614D02*
X182743741Y-195664757D01*
X182743741Y-195664757D02*
X182600884Y-195593328D01*
X182600884Y-195593328D02*
X182315170Y-195593328D01*
X182315170Y-195593328D02*
X182172312Y-195664757D01*
X182815170Y-196521900D02*
X182672312Y-196593328D01*
X182672312Y-196593328D02*
X182315170Y-196593328D01*
X182315170Y-196593328D02*
X182172312Y-196521900D01*
X182172312Y-196521900D02*
X182100884Y-196379042D01*
X182100884Y-196379042D02*
X182100884Y-196236185D01*
X182100884Y-196236185D02*
X182172312Y-196093328D01*
X182172312Y-196093328D02*
X182315170Y-196021900D01*
X182315170Y-196021900D02*
X182672312Y-196021900D01*
X182672312Y-196021900D02*
X182815170Y-195950471D01*
X184172313Y-196593328D02*
X184172313Y-195093328D01*
X184172313Y-196521900D02*
X184029455Y-196593328D01*
X184029455Y-196593328D02*
X183743741Y-196593328D01*
X183743741Y-196593328D02*
X183600884Y-196521900D01*
X183600884Y-196521900D02*
X183529455Y-196450471D01*
X183529455Y-196450471D02*
X183458027Y-196307614D01*
X183458027Y-196307614D02*
X183458027Y-195879042D01*
X183458027Y-195879042D02*
X183529455Y-195736185D01*
X183529455Y-195736185D02*
X183600884Y-195664757D01*
X183600884Y-195664757D02*
X183743741Y-195593328D01*
X183743741Y-195593328D02*
X184029455Y-195593328D01*
X184029455Y-195593328D02*
X184172313Y-195664757D01*
X186029455Y-195807614D02*
X186529455Y-195807614D01*
X186743741Y-196593328D02*
X186029455Y-196593328D01*
X186029455Y-196593328D02*
X186029455Y-195093328D01*
X186029455Y-195093328D02*
X186743741Y-195093328D01*
X187386598Y-196450471D02*
X187458027Y-196521900D01*
X187458027Y-196521900D02*
X187386598Y-196593328D01*
X187386598Y-196593328D02*
X187315170Y-196521900D01*
X187315170Y-196521900D02*
X187386598Y-196450471D01*
X187386598Y-196450471D02*
X187386598Y-196593328D01*
X188100884Y-196593328D02*
X188100884Y-195093328D01*
X188100884Y-195093328D02*
X188458027Y-195093328D01*
X188458027Y-195093328D02*
X188672313Y-195164757D01*
X188672313Y-195164757D02*
X188815170Y-195307614D01*
X188815170Y-195307614D02*
X188886599Y-195450471D01*
X188886599Y-195450471D02*
X188958027Y-195736185D01*
X188958027Y-195736185D02*
X188958027Y-195950471D01*
X188958027Y-195950471D02*
X188886599Y-196236185D01*
X188886599Y-196236185D02*
X188815170Y-196379042D01*
X188815170Y-196379042D02*
X188672313Y-196521900D01*
X188672313Y-196521900D02*
X188458027Y-196593328D01*
X188458027Y-196593328D02*
X188100884Y-196593328D01*
X189600884Y-196450471D02*
X189672313Y-196521900D01*
X189672313Y-196521900D02*
X189600884Y-196593328D01*
X189600884Y-196593328D02*
X189529456Y-196521900D01*
X189529456Y-196521900D02*
X189600884Y-196450471D01*
X189600884Y-196450471D02*
X189600884Y-196593328D01*
X190243742Y-196164757D02*
X190958028Y-196164757D01*
X190100885Y-196593328D02*
X190600885Y-195093328D01*
X190600885Y-195093328D02*
X191100885Y-196593328D01*
X191600884Y-196450471D02*
X191672313Y-196521900D01*
X191672313Y-196521900D02*
X191600884Y-196593328D01*
X191600884Y-196593328D02*
X191529456Y-196521900D01*
X191529456Y-196521900D02*
X191600884Y-196450471D01*
X191600884Y-196450471D02*
X191600884Y-196593328D01*
X194600884Y-196593328D02*
X194600884Y-195093328D01*
X194743742Y-196021900D02*
X195172313Y-196593328D01*
X195172313Y-195593328D02*
X194600884Y-196164757D01*
X195815170Y-196593328D02*
X195815170Y-195593328D01*
X195815170Y-195093328D02*
X195743742Y-195164757D01*
X195743742Y-195164757D02*
X195815170Y-195236185D01*
X195815170Y-195236185D02*
X195886599Y-195164757D01*
X195886599Y-195164757D02*
X195815170Y-195093328D01*
X195815170Y-195093328D02*
X195815170Y-195236185D01*
X197172314Y-196521900D02*
X197029456Y-196593328D01*
X197029456Y-196593328D02*
X196743742Y-196593328D01*
X196743742Y-196593328D02*
X196600885Y-196521900D01*
X196600885Y-196521900D02*
X196529456Y-196450471D01*
X196529456Y-196450471D02*
X196458028Y-196307614D01*
X196458028Y-196307614D02*
X196458028Y-195879042D01*
X196458028Y-195879042D02*
X196529456Y-195736185D01*
X196529456Y-195736185D02*
X196600885Y-195664757D01*
X196600885Y-195664757D02*
X196743742Y-195593328D01*
X196743742Y-195593328D02*
X197029456Y-195593328D01*
X197029456Y-195593328D02*
X197172314Y-195664757D01*
X198458028Y-196593328D02*
X198458028Y-195807614D01*
X198458028Y-195807614D02*
X198386599Y-195664757D01*
X198386599Y-195664757D02*
X198243742Y-195593328D01*
X198243742Y-195593328D02*
X197958028Y-195593328D01*
X197958028Y-195593328D02*
X197815170Y-195664757D01*
X198458028Y-196521900D02*
X198315170Y-196593328D01*
X198315170Y-196593328D02*
X197958028Y-196593328D01*
X197958028Y-196593328D02*
X197815170Y-196521900D01*
X197815170Y-196521900D02*
X197743742Y-196379042D01*
X197743742Y-196379042D02*
X197743742Y-196236185D01*
X197743742Y-196236185D02*
X197815170Y-196093328D01*
X197815170Y-196093328D02*
X197958028Y-196021900D01*
X197958028Y-196021900D02*
X198315170Y-196021900D01*
X198315170Y-196021900D02*
X198458028Y-195950471D01*
X199815171Y-196593328D02*
X199815171Y-195093328D01*
X199815171Y-196521900D02*
X199672313Y-196593328D01*
X199672313Y-196593328D02*
X199386599Y-196593328D01*
X199386599Y-196593328D02*
X199243742Y-196521900D01*
X199243742Y-196521900D02*
X199172313Y-196450471D01*
X199172313Y-196450471D02*
X199100885Y-196307614D01*
X199100885Y-196307614D02*
X199100885Y-195879042D01*
X199100885Y-195879042D02*
X199172313Y-195736185D01*
X199172313Y-195736185D02*
X199243742Y-195664757D01*
X199243742Y-195664757D02*
X199386599Y-195593328D01*
X199386599Y-195593328D02*
X199672313Y-195593328D01*
X199672313Y-195593328D02*
X199815171Y-195664757D01*
X201529456Y-195093328D02*
X202529456Y-195093328D01*
X202529456Y-195093328D02*
X201886599Y-196593328D01*
X203100884Y-196450471D02*
X203172313Y-196521900D01*
X203172313Y-196521900D02*
X203100884Y-196593328D01*
X203100884Y-196593328D02*
X203029456Y-196521900D01*
X203029456Y-196521900D02*
X203100884Y-196450471D01*
X203100884Y-196450471D02*
X203100884Y-196593328D01*
X204100885Y-195093328D02*
X204243742Y-195093328D01*
X204243742Y-195093328D02*
X204386599Y-195164757D01*
X204386599Y-195164757D02*
X204458028Y-195236185D01*
X204458028Y-195236185D02*
X204529456Y-195379042D01*
X204529456Y-195379042D02*
X204600885Y-195664757D01*
X204600885Y-195664757D02*
X204600885Y-196021900D01*
X204600885Y-196021900D02*
X204529456Y-196307614D01*
X204529456Y-196307614D02*
X204458028Y-196450471D01*
X204458028Y-196450471D02*
X204386599Y-196521900D01*
X204386599Y-196521900D02*
X204243742Y-196593328D01*
X204243742Y-196593328D02*
X204100885Y-196593328D01*
X204100885Y-196593328D02*
X203958028Y-196521900D01*
X203958028Y-196521900D02*
X203886599Y-196450471D01*
X203886599Y-196450471D02*
X203815170Y-196307614D01*
X203815170Y-196307614D02*
X203743742Y-196021900D01*
X203743742Y-196021900D02*
X203743742Y-195664757D01*
X203743742Y-195664757D02*
X203815170Y-195379042D01*
X203815170Y-195379042D02*
X203886599Y-195236185D01*
X203886599Y-195236185D02*
X203958028Y-195164757D01*
X203958028Y-195164757D02*
X204100885Y-195093328D01*
X205243741Y-196450471D02*
X205315170Y-196521900D01*
X205315170Y-196521900D02*
X205243741Y-196593328D01*
X205243741Y-196593328D02*
X205172313Y-196521900D01*
X205172313Y-196521900D02*
X205243741Y-196450471D01*
X205243741Y-196450471D02*
X205243741Y-196593328D01*
X206172313Y-195736185D02*
X206029456Y-195664757D01*
X206029456Y-195664757D02*
X205958027Y-195593328D01*
X205958027Y-195593328D02*
X205886599Y-195450471D01*
X205886599Y-195450471D02*
X205886599Y-195379042D01*
X205886599Y-195379042D02*
X205958027Y-195236185D01*
X205958027Y-195236185D02*
X206029456Y-195164757D01*
X206029456Y-195164757D02*
X206172313Y-195093328D01*
X206172313Y-195093328D02*
X206458027Y-195093328D01*
X206458027Y-195093328D02*
X206600885Y-195164757D01*
X206600885Y-195164757D02*
X206672313Y-195236185D01*
X206672313Y-195236185D02*
X206743742Y-195379042D01*
X206743742Y-195379042D02*
X206743742Y-195450471D01*
X206743742Y-195450471D02*
X206672313Y-195593328D01*
X206672313Y-195593328D02*
X206600885Y-195664757D01*
X206600885Y-195664757D02*
X206458027Y-195736185D01*
X206458027Y-195736185D02*
X206172313Y-195736185D01*
X206172313Y-195736185D02*
X206029456Y-195807614D01*
X206029456Y-195807614D02*
X205958027Y-195879042D01*
X205958027Y-195879042D02*
X205886599Y-196021900D01*
X205886599Y-196021900D02*
X205886599Y-196307614D01*
X205886599Y-196307614D02*
X205958027Y-196450471D01*
X205958027Y-196450471D02*
X206029456Y-196521900D01*
X206029456Y-196521900D02*
X206172313Y-196593328D01*
X206172313Y-196593328D02*
X206458027Y-196593328D01*
X206458027Y-196593328D02*
X206600885Y-196521900D01*
X206600885Y-196521900D02*
X206672313Y-196450471D01*
X206672313Y-196450471D02*
X206743742Y-196307614D01*
X206743742Y-196307614D02*
X206743742Y-196021900D01*
X206743742Y-196021900D02*
X206672313Y-195879042D01*
X206672313Y-195879042D02*
X206600885Y-195807614D01*
X206600885Y-195807614D02*
X206458027Y-195736185D01*
D10*
D11*
X177002200Y-191507200D02*
X285002200Y-191507200D01*
D10*
D12*
X264413853Y-193785528D02*
X263913853Y-193071242D01*
X263556710Y-193785528D02*
X263556710Y-192285528D01*
X263556710Y-192285528D02*
X264128139Y-192285528D01*
X264128139Y-192285528D02*
X264270996Y-192356957D01*
X264270996Y-192356957D02*
X264342425Y-192428385D01*
X264342425Y-192428385D02*
X264413853Y-192571242D01*
X264413853Y-192571242D02*
X264413853Y-192785528D01*
X264413853Y-192785528D02*
X264342425Y-192928385D01*
X264342425Y-192928385D02*
X264270996Y-192999814D01*
X264270996Y-192999814D02*
X264128139Y-193071242D01*
X264128139Y-193071242D02*
X263556710Y-193071242D01*
X265628139Y-193714100D02*
X265485282Y-193785528D01*
X265485282Y-193785528D02*
X265199568Y-193785528D01*
X265199568Y-193785528D02*
X265056710Y-193714100D01*
X265056710Y-193714100D02*
X264985282Y-193571242D01*
X264985282Y-193571242D02*
X264985282Y-192999814D01*
X264985282Y-192999814D02*
X265056710Y-192856957D01*
X265056710Y-192856957D02*
X265199568Y-192785528D01*
X265199568Y-192785528D02*
X265485282Y-192785528D01*
X265485282Y-192785528D02*
X265628139Y-192856957D01*
X265628139Y-192856957D02*
X265699568Y-192999814D01*
X265699568Y-192999814D02*
X265699568Y-193142671D01*
X265699568Y-193142671D02*
X264985282Y-193285528D01*
X266199567Y-192785528D02*
X266556710Y-193785528D01*
X266556710Y-193785528D02*
X266913853Y-192785528D01*
X267485281Y-193642671D02*
X267556710Y-193714100D01*
X267556710Y-193714100D02*
X267485281Y-193785528D01*
X267485281Y-193785528D02*
X267413853Y-193714100D01*
X267413853Y-193714100D02*
X267485281Y-193642671D01*
X267485281Y-193642671D02*
X267485281Y-193785528D01*
X267485281Y-192856957D02*
X267556710Y-192928385D01*
X267556710Y-192928385D02*
X267485281Y-192999814D01*
X267485281Y-192999814D02*
X267413853Y-192928385D01*
X267413853Y-192928385D02*
X267485281Y-192856957D01*
X267485281Y-192856957D02*
X267485281Y-192999814D01*
X269628139Y-192285528D02*
X269770996Y-192285528D01*
X269770996Y-192285528D02*
X269913853Y-192356957D01*
X269913853Y-192356957D02*
X269985282Y-192428385D01*
X269985282Y-192428385D02*
X270056710Y-192571242D01*
X270056710Y-192571242D02*
X270128139Y-192856957D01*
X270128139Y-192856957D02*
X270128139Y-193214100D01*
X270128139Y-193214100D02*
X270056710Y-193499814D01*
X270056710Y-193499814D02*
X269985282Y-193642671D01*
X269985282Y-193642671D02*
X269913853Y-193714100D01*
X269913853Y-193714100D02*
X269770996Y-193785528D01*
X269770996Y-193785528D02*
X269628139Y-193785528D01*
X269628139Y-193785528D02*
X269485282Y-193714100D01*
X269485282Y-193714100D02*
X269413853Y-193642671D01*
X269413853Y-193642671D02*
X269342424Y-193499814D01*
X269342424Y-193499814D02*
X269270996Y-193214100D01*
X269270996Y-193214100D02*
X269270996Y-192856957D01*
X269270996Y-192856957D02*
X269342424Y-192571242D01*
X269342424Y-192571242D02*
X269413853Y-192428385D01*
X269413853Y-192428385D02*
X269485282Y-192356957D01*
X269485282Y-192356957D02*
X269628139Y-192285528D01*
X270770995Y-193642671D02*
X270842424Y-193714100D01*
X270842424Y-193714100D02*
X270770995Y-193785528D01*
X270770995Y-193785528D02*
X270699567Y-193714100D01*
X270699567Y-193714100D02*
X270770995Y-193642671D01*
X270770995Y-193642671D02*
X270770995Y-193785528D01*
X271342424Y-192285528D02*
X272270996Y-192285528D01*
X272270996Y-192285528D02*
X271770996Y-192856957D01*
X271770996Y-192856957D02*
X271985281Y-192856957D01*
X271985281Y-192856957D02*
X272128139Y-192928385D01*
X272128139Y-192928385D02*
X272199567Y-192999814D01*
X272199567Y-192999814D02*
X272270996Y-193142671D01*
X272270996Y-193142671D02*
X272270996Y-193499814D01*
X272270996Y-193499814D02*
X272199567Y-193642671D01*
X272199567Y-193642671D02*
X272128139Y-193714100D01*
X272128139Y-193714100D02*
X271985281Y-193785528D01*
X271985281Y-193785528D02*
X271556710Y-193785528D01*
X271556710Y-193785528D02*
X271413853Y-193714100D01*
X271413853Y-193714100D02*
X271342424Y-193642671D01*
D10*
D11*
X178386598Y-193721900D02*
X178600884Y-193793328D01*
X178600884Y-193793328D02*
X178958026Y-193793328D01*
X178958026Y-193793328D02*
X179100884Y-193721900D01*
X179100884Y-193721900D02*
X179172312Y-193650471D01*
X179172312Y-193650471D02*
X179243741Y-193507614D01*
X179243741Y-193507614D02*
X179243741Y-193364757D01*
X179243741Y-193364757D02*
X179172312Y-193221900D01*
X179172312Y-193221900D02*
X179100884Y-193150471D01*
X179100884Y-193150471D02*
X178958026Y-193079042D01*
X178958026Y-193079042D02*
X178672312Y-193007614D01*
X178672312Y-193007614D02*
X178529455Y-192936185D01*
X178529455Y-192936185D02*
X178458026Y-192864757D01*
X178458026Y-192864757D02*
X178386598Y-192721900D01*
X178386598Y-192721900D02*
X178386598Y-192579042D01*
X178386598Y-192579042D02*
X178458026Y-192436185D01*
X178458026Y-192436185D02*
X178529455Y-192364757D01*
X178529455Y-192364757D02*
X178672312Y-192293328D01*
X178672312Y-192293328D02*
X179029455Y-192293328D01*
X179029455Y-192293328D02*
X179243741Y-192364757D01*
X179886597Y-193793328D02*
X179886597Y-192793328D01*
X179886597Y-192293328D02*
X179815169Y-192364757D01*
X179815169Y-192364757D02*
X179886597Y-192436185D01*
X179886597Y-192436185D02*
X179958026Y-192364757D01*
X179958026Y-192364757D02*
X179886597Y-192293328D01*
X179886597Y-192293328D02*
X179886597Y-192436185D01*
X180458026Y-192793328D02*
X181243741Y-192793328D01*
X181243741Y-192793328D02*
X180458026Y-193793328D01*
X180458026Y-193793328D02*
X181243741Y-193793328D01*
X182386598Y-193721900D02*
X182243741Y-193793328D01*
X182243741Y-193793328D02*
X181958027Y-193793328D01*
X181958027Y-193793328D02*
X181815169Y-193721900D01*
X181815169Y-193721900D02*
X181743741Y-193579042D01*
X181743741Y-193579042D02*
X181743741Y-193007614D01*
X181743741Y-193007614D02*
X181815169Y-192864757D01*
X181815169Y-192864757D02*
X181958027Y-192793328D01*
X181958027Y-192793328D02*
X182243741Y-192793328D01*
X182243741Y-192793328D02*
X182386598Y-192864757D01*
X182386598Y-192864757D02*
X182458027Y-193007614D01*
X182458027Y-193007614D02*
X182458027Y-193150471D01*
X182458027Y-193150471D02*
X181743741Y-193293328D01*
X183100883Y-193650471D02*
X183172312Y-193721900D01*
X183172312Y-193721900D02*
X183100883Y-193793328D01*
X183100883Y-193793328D02*
X183029455Y-193721900D01*
X183029455Y-193721900D02*
X183100883Y-193650471D01*
X183100883Y-193650471D02*
X183100883Y-193793328D01*
X183100883Y-192864757D02*
X183172312Y-192936185D01*
X183172312Y-192936185D02*
X183100883Y-193007614D01*
X183100883Y-193007614D02*
X183029455Y-192936185D01*
X183029455Y-192936185D02*
X183100883Y-192864757D01*
X183100883Y-192864757D02*
X183100883Y-193007614D01*
X184886598Y-193364757D02*
X185600884Y-193364757D01*
X184743741Y-193793328D02*
X185243741Y-192293328D01*
X185243741Y-192293328D02*
X185743741Y-193793328D01*
X186886598Y-192793328D02*
X186886598Y-193793328D01*
X186529455Y-192221900D02*
X186172312Y-193293328D01*
X186172312Y-193293328D02*
X187100883Y-193293328D01*
D10*
D11*
X263458026Y-196593328D02*
X263458026Y-195093328D01*
X264815170Y-196593328D02*
X264815170Y-195093328D01*
X264815170Y-196521900D02*
X264672312Y-196593328D01*
X264672312Y-196593328D02*
X264386598Y-196593328D01*
X264386598Y-196593328D02*
X264243741Y-196521900D01*
X264243741Y-196521900D02*
X264172312Y-196450471D01*
X264172312Y-196450471D02*
X264100884Y-196307614D01*
X264100884Y-196307614D02*
X264100884Y-195879042D01*
X264100884Y-195879042D02*
X264172312Y-195736185D01*
X264172312Y-195736185D02*
X264243741Y-195664757D01*
X264243741Y-195664757D02*
X264386598Y-195593328D01*
X264386598Y-195593328D02*
X264672312Y-195593328D01*
X264672312Y-195593328D02*
X264815170Y-195664757D01*
X265529455Y-196450471D02*
X265600884Y-196521900D01*
X265600884Y-196521900D02*
X265529455Y-196593328D01*
X265529455Y-196593328D02*
X265458027Y-196521900D01*
X265458027Y-196521900D02*
X265529455Y-196450471D01*
X265529455Y-196450471D02*
X265529455Y-196593328D01*
X265529455Y-195664757D02*
X265600884Y-195736185D01*
X265600884Y-195736185D02*
X265529455Y-195807614D01*
X265529455Y-195807614D02*
X265458027Y-195736185D01*
X265458027Y-195736185D02*
X265529455Y-195664757D01*
X265529455Y-195664757D02*
X265529455Y-195807614D01*
X268172313Y-196593328D02*
X267315170Y-196593328D01*
X267743741Y-196593328D02*
X267743741Y-195093328D01*
X267743741Y-195093328D02*
X267600884Y-195307614D01*
X267600884Y-195307614D02*
X267458027Y-195450471D01*
X267458027Y-195450471D02*
X267315170Y-195521900D01*
X269886598Y-195021900D02*
X268600884Y-196950471D01*
X271172313Y-196593328D02*
X270315170Y-196593328D01*
X270743741Y-196593328D02*
X270743741Y-195093328D01*
X270743741Y-195093328D02*
X270600884Y-195307614D01*
X270600884Y-195307614D02*
X270458027Y-195450471D01*
X270458027Y-195450471D02*
X270315170Y-195521900D01*
D10*
D11*
X177002200Y-187507200D02*
X285002200Y-187507200D01*
D10*
D13*
X178693928Y-188211638D02*
X179836785Y-188211638D01*
X179015357Y-190211638D02*
X179265357Y-188211638D01*
X180253452Y-190211638D02*
X180420119Y-188878304D01*
X180503452Y-188211638D02*
X180396309Y-188306876D01*
X180396309Y-188306876D02*
X180479643Y-188402114D01*
X180479643Y-188402114D02*
X180586786Y-188306876D01*
X180586786Y-188306876D02*
X180503452Y-188211638D01*
X180503452Y-188211638D02*
X180479643Y-188402114D01*
X181086786Y-188878304D02*
X181848690Y-188878304D01*
X181455833Y-188211638D02*
X181241548Y-189925923D01*
X181241548Y-189925923D02*
X181312976Y-190116400D01*
X181312976Y-190116400D02*
X181491548Y-190211638D01*
X181491548Y-190211638D02*
X181682024Y-190211638D01*
X182634405Y-190211638D02*
X182455833Y-190116400D01*
X182455833Y-190116400D02*
X182384405Y-189925923D01*
X182384405Y-189925923D02*
X182598690Y-188211638D01*
X184170119Y-190116400D02*
X183967738Y-190211638D01*
X183967738Y-190211638D02*
X183586785Y-190211638D01*
X183586785Y-190211638D02*
X183408214Y-190116400D01*
X183408214Y-190116400D02*
X183336785Y-189925923D01*
X183336785Y-189925923D02*
X183432024Y-189164019D01*
X183432024Y-189164019D02*
X183551071Y-188973542D01*
X183551071Y-188973542D02*
X183753452Y-188878304D01*
X183753452Y-188878304D02*
X184134404Y-188878304D01*
X184134404Y-188878304D02*
X184312976Y-188973542D01*
X184312976Y-188973542D02*
X184384404Y-189164019D01*
X184384404Y-189164019D02*
X184360595Y-189354495D01*
X184360595Y-189354495D02*
X183384404Y-189544971D01*
X185134405Y-190021161D02*
X185217738Y-190116400D01*
X185217738Y-190116400D02*
X185110595Y-190211638D01*
X185110595Y-190211638D02*
X185027262Y-190116400D01*
X185027262Y-190116400D02*
X185134405Y-190021161D01*
X185134405Y-190021161D02*
X185110595Y-190211638D01*
X185265357Y-188973542D02*
X185348690Y-189068780D01*
X185348690Y-189068780D02*
X185241548Y-189164019D01*
X185241548Y-189164019D02*
X185158214Y-189068780D01*
X185158214Y-189068780D02*
X185265357Y-188973542D01*
X185265357Y-188973542D02*
X185241548Y-189164019D01*
X188539167Y-190211638D02*
X187586786Y-190211638D01*
X187586786Y-190211638D02*
X187836786Y-188211638D01*
X190372501Y-190021161D02*
X190265358Y-190116400D01*
X190265358Y-190116400D02*
X189967739Y-190211638D01*
X189967739Y-190211638D02*
X189777263Y-190211638D01*
X189777263Y-190211638D02*
X189503453Y-190116400D01*
X189503453Y-190116400D02*
X189336787Y-189925923D01*
X189336787Y-189925923D02*
X189265358Y-189735447D01*
X189265358Y-189735447D02*
X189217739Y-189354495D01*
X189217739Y-189354495D02*
X189253453Y-189068780D01*
X189253453Y-189068780D02*
X189396310Y-188687828D01*
X189396310Y-188687828D02*
X189515358Y-188497352D01*
X189515358Y-188497352D02*
X189729644Y-188306876D01*
X189729644Y-188306876D02*
X190027263Y-188211638D01*
X190027263Y-188211638D02*
X190217739Y-188211638D01*
X190217739Y-188211638D02*
X190491549Y-188306876D01*
X190491549Y-188306876D02*
X190574882Y-188402114D01*
X192348691Y-190211638D02*
X191801072Y-189259257D01*
X191205834Y-190211638D02*
X191455834Y-188211638D01*
X191455834Y-188211638D02*
X192217739Y-188211638D01*
X192217739Y-188211638D02*
X192396310Y-188306876D01*
X192396310Y-188306876D02*
X192479644Y-188402114D01*
X192479644Y-188402114D02*
X192551072Y-188592590D01*
X192551072Y-188592590D02*
X192515358Y-188878304D01*
X192515358Y-188878304D02*
X192396310Y-189068780D01*
X192396310Y-189068780D02*
X192289168Y-189164019D01*
X192289168Y-189164019D02*
X192086787Y-189259257D01*
X192086787Y-189259257D02*
X191324882Y-189259257D01*
X193205834Y-190211638D02*
X193455834Y-188211638D01*
X193455834Y-188211638D02*
X193932025Y-188211638D01*
X193932025Y-188211638D02*
X194205834Y-188306876D01*
X194205834Y-188306876D02*
X194372501Y-188497352D01*
X194372501Y-188497352D02*
X194443929Y-188687828D01*
X194443929Y-188687828D02*
X194491549Y-189068780D01*
X194491549Y-189068780D02*
X194455834Y-189354495D01*
X194455834Y-189354495D02*
X194312977Y-189735447D01*
X194312977Y-189735447D02*
X194193929Y-189925923D01*
X194193929Y-189925923D02*
X193979644Y-190116400D01*
X193979644Y-190116400D02*
X193682025Y-190211638D01*
X193682025Y-190211638D02*
X193205834Y-190211638D01*
X195301072Y-189449733D02*
X196824882Y-189449733D01*
X197646310Y-188211638D02*
X198789167Y-188211638D01*
X197967739Y-190211638D02*
X198217739Y-188211638D01*
X199979644Y-190116400D02*
X199777263Y-190211638D01*
X199777263Y-190211638D02*
X199396310Y-190211638D01*
X199396310Y-190211638D02*
X199217739Y-190116400D01*
X199217739Y-190116400D02*
X199146310Y-189925923D01*
X199146310Y-189925923D02*
X199241549Y-189164019D01*
X199241549Y-189164019D02*
X199360596Y-188973542D01*
X199360596Y-188973542D02*
X199562977Y-188878304D01*
X199562977Y-188878304D02*
X199943929Y-188878304D01*
X199943929Y-188878304D02*
X200122501Y-188973542D01*
X200122501Y-188973542D02*
X200193929Y-189164019D01*
X200193929Y-189164019D02*
X200170120Y-189354495D01*
X200170120Y-189354495D02*
X199193929Y-189544971D01*
X200836787Y-190116400D02*
X201015358Y-190211638D01*
X201015358Y-190211638D02*
X201396311Y-190211638D01*
X201396311Y-190211638D02*
X201598692Y-190116400D01*
X201598692Y-190116400D02*
X201717739Y-189925923D01*
X201717739Y-189925923D02*
X201729644Y-189830685D01*
X201729644Y-189830685D02*
X201658215Y-189640209D01*
X201658215Y-189640209D02*
X201479644Y-189544971D01*
X201479644Y-189544971D02*
X201193930Y-189544971D01*
X201193930Y-189544971D02*
X201015358Y-189449733D01*
X201015358Y-189449733D02*
X200943930Y-189259257D01*
X200943930Y-189259257D02*
X200955835Y-189164019D01*
X200955835Y-189164019D02*
X201074882Y-188973542D01*
X201074882Y-188973542D02*
X201277263Y-188878304D01*
X201277263Y-188878304D02*
X201562977Y-188878304D01*
X201562977Y-188878304D02*
X201741549Y-188973542D01*
X202420121Y-188878304D02*
X203182025Y-188878304D01*
X202789168Y-188211638D02*
X202574883Y-189925923D01*
X202574883Y-189925923D02*
X202646311Y-190116400D01*
X202646311Y-190116400D02*
X202824883Y-190211638D01*
X202824883Y-190211638D02*
X203015359Y-190211638D01*
X204455835Y-190116400D02*
X204253454Y-190211638D01*
X204253454Y-190211638D02*
X203872501Y-190211638D01*
X203872501Y-190211638D02*
X203693930Y-190116400D01*
X203693930Y-190116400D02*
X203622501Y-189925923D01*
X203622501Y-189925923D02*
X203717740Y-189164019D01*
X203717740Y-189164019D02*
X203836787Y-188973542D01*
X203836787Y-188973542D02*
X204039168Y-188878304D01*
X204039168Y-188878304D02*
X204420120Y-188878304D01*
X204420120Y-188878304D02*
X204598692Y-188973542D01*
X204598692Y-188973542D02*
X204670120Y-189164019D01*
X204670120Y-189164019D02*
X204646311Y-189354495D01*
X204646311Y-189354495D02*
X203670120Y-189544971D01*
X205396311Y-190211638D02*
X205562978Y-188878304D01*
X205515359Y-189259257D02*
X205634406Y-189068780D01*
X205634406Y-189068780D02*
X205741549Y-188973542D01*
X205741549Y-188973542D02*
X205943930Y-188878304D01*
X205943930Y-188878304D02*
X206134406Y-188878304D01*
D10*
D11*
X178958026Y-185607614D02*
X178458026Y-185607614D01*
X178458026Y-186393328D02*
X178458026Y-184893328D01*
X178458026Y-184893328D02*
X179172312Y-184893328D01*
X179743740Y-186393328D02*
X179743740Y-185393328D01*
X179743740Y-184893328D02*
X179672312Y-184964757D01*
X179672312Y-184964757D02*
X179743740Y-185036185D01*
X179743740Y-185036185D02*
X179815169Y-184964757D01*
X179815169Y-184964757D02*
X179743740Y-184893328D01*
X179743740Y-184893328D02*
X179743740Y-185036185D01*
X180672312Y-186393328D02*
X180529455Y-186321900D01*
X180529455Y-186321900D02*
X180458026Y-186179042D01*
X180458026Y-186179042D02*
X180458026Y-184893328D01*
X181815169Y-186321900D02*
X181672312Y-186393328D01*
X181672312Y-186393328D02*
X181386598Y-186393328D01*
X181386598Y-186393328D02*
X181243740Y-186321900D01*
X181243740Y-186321900D02*
X181172312Y-186179042D01*
X181172312Y-186179042D02*
X181172312Y-185607614D01*
X181172312Y-185607614D02*
X181243740Y-185464757D01*
X181243740Y-185464757D02*
X181386598Y-185393328D01*
X181386598Y-185393328D02*
X181672312Y-185393328D01*
X181672312Y-185393328D02*
X181815169Y-185464757D01*
X181815169Y-185464757D02*
X181886598Y-185607614D01*
X181886598Y-185607614D02*
X181886598Y-185750471D01*
X181886598Y-185750471D02*
X181172312Y-185893328D01*
X182529454Y-186250471D02*
X182600883Y-186321900D01*
X182600883Y-186321900D02*
X182529454Y-186393328D01*
X182529454Y-186393328D02*
X182458026Y-186321900D01*
X182458026Y-186321900D02*
X182529454Y-186250471D01*
X182529454Y-186250471D02*
X182529454Y-186393328D01*
X182529454Y-185464757D02*
X182600883Y-185536185D01*
X182600883Y-185536185D02*
X182529454Y-185607614D01*
X182529454Y-185607614D02*
X182458026Y-185536185D01*
X182458026Y-185536185D02*
X182529454Y-185464757D01*
X182529454Y-185464757D02*
X182529454Y-185607614D01*
X185100883Y-186393328D02*
X184386597Y-186393328D01*
X184386597Y-186393328D02*
X184386597Y-184893328D01*
X186458026Y-186250471D02*
X186386598Y-186321900D01*
X186386598Y-186321900D02*
X186172312Y-186393328D01*
X186172312Y-186393328D02*
X186029455Y-186393328D01*
X186029455Y-186393328D02*
X185815169Y-186321900D01*
X185815169Y-186321900D02*
X185672312Y-186179042D01*
X185672312Y-186179042D02*
X185600883Y-186036185D01*
X185600883Y-186036185D02*
X185529455Y-185750471D01*
X185529455Y-185750471D02*
X185529455Y-185536185D01*
X185529455Y-185536185D02*
X185600883Y-185250471D01*
X185600883Y-185250471D02*
X185672312Y-185107614D01*
X185672312Y-185107614D02*
X185815169Y-184964757D01*
X185815169Y-184964757D02*
X186029455Y-184893328D01*
X186029455Y-184893328D02*
X186172312Y-184893328D01*
X186172312Y-184893328D02*
X186386598Y-184964757D01*
X186386598Y-184964757D02*
X186458026Y-185036185D01*
X187958026Y-186393328D02*
X187458026Y-185679042D01*
X187100883Y-186393328D02*
X187100883Y-184893328D01*
X187100883Y-184893328D02*
X187672312Y-184893328D01*
X187672312Y-184893328D02*
X187815169Y-184964757D01*
X187815169Y-184964757D02*
X187886598Y-185036185D01*
X187886598Y-185036185D02*
X187958026Y-185179042D01*
X187958026Y-185179042D02*
X187958026Y-185393328D01*
X187958026Y-185393328D02*
X187886598Y-185536185D01*
X187886598Y-185536185D02*
X187815169Y-185607614D01*
X187815169Y-185607614D02*
X187672312Y-185679042D01*
X187672312Y-185679042D02*
X187100883Y-185679042D01*
X188600883Y-186393328D02*
X188600883Y-184893328D01*
X188600883Y-184893328D02*
X188958026Y-184893328D01*
X188958026Y-184893328D02*
X189172312Y-184964757D01*
X189172312Y-184964757D02*
X189315169Y-185107614D01*
X189315169Y-185107614D02*
X189386598Y-185250471D01*
X189386598Y-185250471D02*
X189458026Y-185536185D01*
X189458026Y-185536185D02*
X189458026Y-185750471D01*
X189458026Y-185750471D02*
X189386598Y-186036185D01*
X189386598Y-186036185D02*
X189315169Y-186179042D01*
X189315169Y-186179042D02*
X189172312Y-186321900D01*
X189172312Y-186321900D02*
X188958026Y-186393328D01*
X188958026Y-186393328D02*
X188600883Y-186393328D01*
X189886598Y-184893328D02*
X190743741Y-184893328D01*
X190315169Y-186393328D02*
X190315169Y-184893328D01*
X191243740Y-185821900D02*
X192386598Y-185821900D01*
X192886598Y-184893328D02*
X193743741Y-184893328D01*
X193315169Y-186393328D02*
X193315169Y-184893328D01*
X194815169Y-186321900D02*
X194672312Y-186393328D01*
X194672312Y-186393328D02*
X194386598Y-186393328D01*
X194386598Y-186393328D02*
X194243740Y-186321900D01*
X194243740Y-186321900D02*
X194172312Y-186179042D01*
X194172312Y-186179042D02*
X194172312Y-185607614D01*
X194172312Y-185607614D02*
X194243740Y-185464757D01*
X194243740Y-185464757D02*
X194386598Y-185393328D01*
X194386598Y-185393328D02*
X194672312Y-185393328D01*
X194672312Y-185393328D02*
X194815169Y-185464757D01*
X194815169Y-185464757D02*
X194886598Y-185607614D01*
X194886598Y-185607614D02*
X194886598Y-185750471D01*
X194886598Y-185750471D02*
X194172312Y-185893328D01*
X195458026Y-186321900D02*
X195600883Y-186393328D01*
X195600883Y-186393328D02*
X195886597Y-186393328D01*
X195886597Y-186393328D02*
X196029454Y-186321900D01*
X196029454Y-186321900D02*
X196100883Y-186179042D01*
X196100883Y-186179042D02*
X196100883Y-186107614D01*
X196100883Y-186107614D02*
X196029454Y-185964757D01*
X196029454Y-185964757D02*
X195886597Y-185893328D01*
X195886597Y-185893328D02*
X195672312Y-185893328D01*
X195672312Y-185893328D02*
X195529454Y-185821900D01*
X195529454Y-185821900D02*
X195458026Y-185679042D01*
X195458026Y-185679042D02*
X195458026Y-185607614D01*
X195458026Y-185607614D02*
X195529454Y-185464757D01*
X195529454Y-185464757D02*
X195672312Y-185393328D01*
X195672312Y-185393328D02*
X195886597Y-185393328D01*
X195886597Y-185393328D02*
X196029454Y-185464757D01*
X196529455Y-185393328D02*
X197100883Y-185393328D01*
X196743740Y-184893328D02*
X196743740Y-186179042D01*
X196743740Y-186179042D02*
X196815169Y-186321900D01*
X196815169Y-186321900D02*
X196958026Y-186393328D01*
X196958026Y-186393328D02*
X197100883Y-186393328D01*
X198172312Y-186321900D02*
X198029455Y-186393328D01*
X198029455Y-186393328D02*
X197743741Y-186393328D01*
X197743741Y-186393328D02*
X197600883Y-186321900D01*
X197600883Y-186321900D02*
X197529455Y-186179042D01*
X197529455Y-186179042D02*
X197529455Y-185607614D01*
X197529455Y-185607614D02*
X197600883Y-185464757D01*
X197600883Y-185464757D02*
X197743741Y-185393328D01*
X197743741Y-185393328D02*
X198029455Y-185393328D01*
X198029455Y-185393328D02*
X198172312Y-185464757D01*
X198172312Y-185464757D02*
X198243741Y-185607614D01*
X198243741Y-185607614D02*
X198243741Y-185750471D01*
X198243741Y-185750471D02*
X197529455Y-185893328D01*
X198886597Y-186393328D02*
X198886597Y-185393328D01*
X198886597Y-185679042D02*
X198958026Y-185536185D01*
X198958026Y-185536185D02*
X199029455Y-185464757D01*
X199029455Y-185464757D02*
X199172312Y-185393328D01*
X199172312Y-185393328D02*
X199315169Y-185393328D01*
X199815168Y-186250471D02*
X199886597Y-186321900D01*
X199886597Y-186321900D02*
X199815168Y-186393328D01*
X199815168Y-186393328D02*
X199743740Y-186321900D01*
X199743740Y-186321900D02*
X199815168Y-186250471D01*
X199815168Y-186250471D02*
X199815168Y-186393328D01*
X200529454Y-186393328D02*
X200529454Y-184893328D01*
X200672312Y-185821900D02*
X201100883Y-186393328D01*
X201100883Y-185393328D02*
X200529454Y-185964757D01*
X201743740Y-186393328D02*
X201743740Y-185393328D01*
X201743740Y-184893328D02*
X201672312Y-184964757D01*
X201672312Y-184964757D02*
X201743740Y-185036185D01*
X201743740Y-185036185D02*
X201815169Y-184964757D01*
X201815169Y-184964757D02*
X201743740Y-184893328D01*
X201743740Y-184893328D02*
X201743740Y-185036185D01*
X203100884Y-186321900D02*
X202958026Y-186393328D01*
X202958026Y-186393328D02*
X202672312Y-186393328D01*
X202672312Y-186393328D02*
X202529455Y-186321900D01*
X202529455Y-186321900D02*
X202458026Y-186250471D01*
X202458026Y-186250471D02*
X202386598Y-186107614D01*
X202386598Y-186107614D02*
X202386598Y-185679042D01*
X202386598Y-185679042D02*
X202458026Y-185536185D01*
X202458026Y-185536185D02*
X202529455Y-185464757D01*
X202529455Y-185464757D02*
X202672312Y-185393328D01*
X202672312Y-185393328D02*
X202958026Y-185393328D01*
X202958026Y-185393328D02*
X203100884Y-185464757D01*
X204386598Y-186393328D02*
X204386598Y-185607614D01*
X204386598Y-185607614D02*
X204315169Y-185464757D01*
X204315169Y-185464757D02*
X204172312Y-185393328D01*
X204172312Y-185393328D02*
X203886598Y-185393328D01*
X203886598Y-185393328D02*
X203743740Y-185464757D01*
X204386598Y-186321900D02*
X204243740Y-186393328D01*
X204243740Y-186393328D02*
X203886598Y-186393328D01*
X203886598Y-186393328D02*
X203743740Y-186321900D01*
X203743740Y-186321900D02*
X203672312Y-186179042D01*
X203672312Y-186179042D02*
X203672312Y-186036185D01*
X203672312Y-186036185D02*
X203743740Y-185893328D01*
X203743740Y-185893328D02*
X203886598Y-185821900D01*
X203886598Y-185821900D02*
X204243740Y-185821900D01*
X204243740Y-185821900D02*
X204386598Y-185750471D01*
X205743741Y-186393328D02*
X205743741Y-184893328D01*
X205743741Y-186321900D02*
X205600883Y-186393328D01*
X205600883Y-186393328D02*
X205315169Y-186393328D01*
X205315169Y-186393328D02*
X205172312Y-186321900D01*
X205172312Y-186321900D02*
X205100883Y-186250471D01*
X205100883Y-186250471D02*
X205029455Y-186107614D01*
X205029455Y-186107614D02*
X205029455Y-185679042D01*
X205029455Y-185679042D02*
X205100883Y-185536185D01*
X205100883Y-185536185D02*
X205172312Y-185464757D01*
X205172312Y-185464757D02*
X205315169Y-185393328D01*
X205315169Y-185393328D02*
X205600883Y-185393328D01*
X205600883Y-185393328D02*
X205743741Y-185464757D01*
X206100884Y-186536185D02*
X207243741Y-186536185D01*
X207600883Y-185393328D02*
X207600883Y-186893328D01*
X207600883Y-185464757D02*
X207743741Y-185393328D01*
X207743741Y-185393328D02*
X208029455Y-185393328D01*
X208029455Y-185393328D02*
X208172312Y-185464757D01*
X208172312Y-185464757D02*
X208243741Y-185536185D01*
X208243741Y-185536185D02*
X208315169Y-185679042D01*
X208315169Y-185679042D02*
X208315169Y-186107614D01*
X208315169Y-186107614D02*
X208243741Y-186250471D01*
X208243741Y-186250471D02*
X208172312Y-186321900D01*
X208172312Y-186321900D02*
X208029455Y-186393328D01*
X208029455Y-186393328D02*
X207743741Y-186393328D01*
X207743741Y-186393328D02*
X207600883Y-186321900D01*
X209600884Y-186321900D02*
X209458026Y-186393328D01*
X209458026Y-186393328D02*
X209172312Y-186393328D01*
X209172312Y-186393328D02*
X209029455Y-186321900D01*
X209029455Y-186321900D02*
X208958026Y-186250471D01*
X208958026Y-186250471D02*
X208886598Y-186107614D01*
X208886598Y-186107614D02*
X208886598Y-185679042D01*
X208886598Y-185679042D02*
X208958026Y-185536185D01*
X208958026Y-185536185D02*
X209029455Y-185464757D01*
X209029455Y-185464757D02*
X209172312Y-185393328D01*
X209172312Y-185393328D02*
X209458026Y-185393328D01*
X209458026Y-185393328D02*
X209600884Y-185464757D01*
X210243740Y-186393328D02*
X210243740Y-184893328D01*
X210243740Y-185464757D02*
X210386598Y-185393328D01*
X210386598Y-185393328D02*
X210672312Y-185393328D01*
X210672312Y-185393328D02*
X210815169Y-185464757D01*
X210815169Y-185464757D02*
X210886598Y-185536185D01*
X210886598Y-185536185D02*
X210958026Y-185679042D01*
X210958026Y-185679042D02*
X210958026Y-186107614D01*
X210958026Y-186107614D02*
X210886598Y-186250471D01*
X210886598Y-186250471D02*
X210815169Y-186321900D01*
X210815169Y-186321900D02*
X210672312Y-186393328D01*
X210672312Y-186393328D02*
X210386598Y-186393328D01*
X210386598Y-186393328D02*
X210243740Y-186321900D01*
D10*
D11*
X177002200Y-181507200D02*
X285002200Y-181507200D01*
D10*
D11*
X178386598Y-183621900D02*
X178600884Y-183693328D01*
X178600884Y-183693328D02*
X178958026Y-183693328D01*
X178958026Y-183693328D02*
X179100884Y-183621900D01*
X179100884Y-183621900D02*
X179172312Y-183550471D01*
X179172312Y-183550471D02*
X179243741Y-183407614D01*
X179243741Y-183407614D02*
X179243741Y-183264757D01*
X179243741Y-183264757D02*
X179172312Y-183121900D01*
X179172312Y-183121900D02*
X179100884Y-183050471D01*
X179100884Y-183050471D02*
X178958026Y-182979042D01*
X178958026Y-182979042D02*
X178672312Y-182907614D01*
X178672312Y-182907614D02*
X178529455Y-182836185D01*
X178529455Y-182836185D02*
X178458026Y-182764757D01*
X178458026Y-182764757D02*
X178386598Y-182621900D01*
X178386598Y-182621900D02*
X178386598Y-182479042D01*
X178386598Y-182479042D02*
X178458026Y-182336185D01*
X178458026Y-182336185D02*
X178529455Y-182264757D01*
X178529455Y-182264757D02*
X178672312Y-182193328D01*
X178672312Y-182193328D02*
X179029455Y-182193328D01*
X179029455Y-182193328D02*
X179243741Y-182264757D01*
X179886597Y-183693328D02*
X179886597Y-182193328D01*
X180529455Y-183693328D02*
X180529455Y-182907614D01*
X180529455Y-182907614D02*
X180458026Y-182764757D01*
X180458026Y-182764757D02*
X180315169Y-182693328D01*
X180315169Y-182693328D02*
X180100883Y-182693328D01*
X180100883Y-182693328D02*
X179958026Y-182764757D01*
X179958026Y-182764757D02*
X179886597Y-182836185D01*
X181815169Y-183621900D02*
X181672312Y-183693328D01*
X181672312Y-183693328D02*
X181386598Y-183693328D01*
X181386598Y-183693328D02*
X181243740Y-183621900D01*
X181243740Y-183621900D02*
X181172312Y-183479042D01*
X181172312Y-183479042D02*
X181172312Y-182907614D01*
X181172312Y-182907614D02*
X181243740Y-182764757D01*
X181243740Y-182764757D02*
X181386598Y-182693328D01*
X181386598Y-182693328D02*
X181672312Y-182693328D01*
X181672312Y-182693328D02*
X181815169Y-182764757D01*
X181815169Y-182764757D02*
X181886598Y-182907614D01*
X181886598Y-182907614D02*
X181886598Y-183050471D01*
X181886598Y-183050471D02*
X181172312Y-183193328D01*
X183100883Y-183621900D02*
X182958026Y-183693328D01*
X182958026Y-183693328D02*
X182672312Y-183693328D01*
X182672312Y-183693328D02*
X182529454Y-183621900D01*
X182529454Y-183621900D02*
X182458026Y-183479042D01*
X182458026Y-183479042D02*
X182458026Y-182907614D01*
X182458026Y-182907614D02*
X182529454Y-182764757D01*
X182529454Y-182764757D02*
X182672312Y-182693328D01*
X182672312Y-182693328D02*
X182958026Y-182693328D01*
X182958026Y-182693328D02*
X183100883Y-182764757D01*
X183100883Y-182764757D02*
X183172312Y-182907614D01*
X183172312Y-182907614D02*
X183172312Y-183050471D01*
X183172312Y-183050471D02*
X182458026Y-183193328D01*
X183600883Y-182693328D02*
X184172311Y-182693328D01*
X183815168Y-182193328D02*
X183815168Y-183479042D01*
X183815168Y-183479042D02*
X183886597Y-183621900D01*
X183886597Y-183621900D02*
X184029454Y-183693328D01*
X184029454Y-183693328D02*
X184172311Y-183693328D01*
X184672311Y-183550471D02*
X184743740Y-183621900D01*
X184743740Y-183621900D02*
X184672311Y-183693328D01*
X184672311Y-183693328D02*
X184600883Y-183621900D01*
X184600883Y-183621900D02*
X184672311Y-183550471D01*
X184672311Y-183550471D02*
X184672311Y-183693328D01*
X184672311Y-182764757D02*
X184743740Y-182836185D01*
X184743740Y-182836185D02*
X184672311Y-182907614D01*
X184672311Y-182907614D02*
X184600883Y-182836185D01*
X184600883Y-182836185D02*
X184672311Y-182764757D01*
X184672311Y-182764757D02*
X184672311Y-182907614D01*
D10*
D12*
X178985282Y-181256957D02*
X178913853Y-181185528D01*
X178913853Y-181185528D02*
X178770996Y-180971242D01*
X178770996Y-180971242D02*
X178699568Y-180828385D01*
X178699568Y-180828385D02*
X178628139Y-180614100D01*
X178628139Y-180614100D02*
X178556710Y-180256957D01*
X178556710Y-180256957D02*
X178556710Y-179971242D01*
X178556710Y-179971242D02*
X178628139Y-179614100D01*
X178628139Y-179614100D02*
X178699568Y-179399814D01*
X178699568Y-179399814D02*
X178770996Y-179256957D01*
X178770996Y-179256957D02*
X178913853Y-179042671D01*
X178913853Y-179042671D02*
X178985282Y-178971242D01*
X180413853Y-180542671D02*
X180342425Y-180614100D01*
X180342425Y-180614100D02*
X180128139Y-180685528D01*
X180128139Y-180685528D02*
X179985282Y-180685528D01*
X179985282Y-180685528D02*
X179770996Y-180614100D01*
X179770996Y-180614100D02*
X179628139Y-180471242D01*
X179628139Y-180471242D02*
X179556710Y-180328385D01*
X179556710Y-180328385D02*
X179485282Y-180042671D01*
X179485282Y-180042671D02*
X179485282Y-179828385D01*
X179485282Y-179828385D02*
X179556710Y-179542671D01*
X179556710Y-179542671D02*
X179628139Y-179399814D01*
X179628139Y-179399814D02*
X179770996Y-179256957D01*
X179770996Y-179256957D02*
X179985282Y-179185528D01*
X179985282Y-179185528D02*
X180128139Y-179185528D01*
X180128139Y-179185528D02*
X180342425Y-179256957D01*
X180342425Y-179256957D02*
X180413853Y-179328385D01*
X180913853Y-181256957D02*
X180985282Y-181185528D01*
X180985282Y-181185528D02*
X181128139Y-180971242D01*
X181128139Y-180971242D02*
X181199568Y-180828385D01*
X181199568Y-180828385D02*
X181270996Y-180614100D01*
X181270996Y-180614100D02*
X181342425Y-180256957D01*
X181342425Y-180256957D02*
X181342425Y-179971242D01*
X181342425Y-179971242D02*
X181270996Y-179614100D01*
X181270996Y-179614100D02*
X181199568Y-179399814D01*
X181199568Y-179399814D02*
X181128139Y-179256957D01*
X181128139Y-179256957D02*
X180985282Y-179042671D01*
X180985282Y-179042671D02*
X180913853Y-178971242D01*
X183056710Y-179185528D02*
X183413853Y-180685528D01*
X183413853Y-180685528D02*
X183699567Y-179614100D01*
X183699567Y-179614100D02*
X183985282Y-180685528D01*
X183985282Y-180685528D02*
X184342425Y-179185528D01*
X185128139Y-180685528D02*
X184985282Y-180614100D01*
X184985282Y-180614100D02*
X184913853Y-180542671D01*
X184913853Y-180542671D02*
X184842425Y-180399814D01*
X184842425Y-180399814D02*
X184842425Y-179971242D01*
X184842425Y-179971242D02*
X184913853Y-179828385D01*
X184913853Y-179828385D02*
X184985282Y-179756957D01*
X184985282Y-179756957D02*
X185128139Y-179685528D01*
X185128139Y-179685528D02*
X185342425Y-179685528D01*
X185342425Y-179685528D02*
X185485282Y-179756957D01*
X185485282Y-179756957D02*
X185556711Y-179828385D01*
X185556711Y-179828385D02*
X185628139Y-179971242D01*
X185628139Y-179971242D02*
X185628139Y-180399814D01*
X185628139Y-180399814D02*
X185556711Y-180542671D01*
X185556711Y-180542671D02*
X185485282Y-180614100D01*
X185485282Y-180614100D02*
X185342425Y-180685528D01*
X185342425Y-180685528D02*
X185128139Y-180685528D01*
X186913854Y-180685528D02*
X186913854Y-179185528D01*
X186913854Y-180614100D02*
X186770996Y-180685528D01*
X186770996Y-180685528D02*
X186485282Y-180685528D01*
X186485282Y-180685528D02*
X186342425Y-180614100D01*
X186342425Y-180614100D02*
X186270996Y-180542671D01*
X186270996Y-180542671D02*
X186199568Y-180399814D01*
X186199568Y-180399814D02*
X186199568Y-179971242D01*
X186199568Y-179971242D02*
X186270996Y-179828385D01*
X186270996Y-179828385D02*
X186342425Y-179756957D01*
X186342425Y-179756957D02*
X186485282Y-179685528D01*
X186485282Y-179685528D02*
X186770996Y-179685528D01*
X186770996Y-179685528D02*
X186913854Y-179756957D01*
X187842425Y-180685528D02*
X187699568Y-180614100D01*
X187699568Y-180614100D02*
X187628139Y-180542671D01*
X187628139Y-180542671D02*
X187556711Y-180399814D01*
X187556711Y-180399814D02*
X187556711Y-179971242D01*
X187556711Y-179971242D02*
X187628139Y-179828385D01*
X187628139Y-179828385D02*
X187699568Y-179756957D01*
X187699568Y-179756957D02*
X187842425Y-179685528D01*
X187842425Y-179685528D02*
X188056711Y-179685528D01*
X188056711Y-179685528D02*
X188199568Y-179756957D01*
X188199568Y-179756957D02*
X188270997Y-179828385D01*
X188270997Y-179828385D02*
X188342425Y-179971242D01*
X188342425Y-179971242D02*
X188342425Y-180399814D01*
X188342425Y-180399814D02*
X188270997Y-180542671D01*
X188270997Y-180542671D02*
X188199568Y-180614100D01*
X188199568Y-180614100D02*
X188056711Y-180685528D01*
X188056711Y-180685528D02*
X187842425Y-180685528D01*
X188842425Y-179185528D02*
X189199568Y-180685528D01*
X189199568Y-180685528D02*
X189485282Y-179614100D01*
X189485282Y-179614100D02*
X189770997Y-180685528D01*
X189770997Y-180685528D02*
X190128140Y-179185528D01*
X190699568Y-180685528D02*
X190699568Y-179685528D01*
X190699568Y-179185528D02*
X190628140Y-179256957D01*
X190628140Y-179256957D02*
X190699568Y-179328385D01*
X190699568Y-179328385D02*
X190770997Y-179256957D01*
X190770997Y-179256957D02*
X190699568Y-179185528D01*
X190699568Y-179185528D02*
X190699568Y-179328385D01*
X191985283Y-180614100D02*
X191842426Y-180685528D01*
X191842426Y-180685528D02*
X191556712Y-180685528D01*
X191556712Y-180685528D02*
X191413854Y-180614100D01*
X191413854Y-180614100D02*
X191342426Y-180471242D01*
X191342426Y-180471242D02*
X191342426Y-179899814D01*
X191342426Y-179899814D02*
X191413854Y-179756957D01*
X191413854Y-179756957D02*
X191556712Y-179685528D01*
X191556712Y-179685528D02*
X191842426Y-179685528D01*
X191842426Y-179685528D02*
X191985283Y-179756957D01*
X191985283Y-179756957D02*
X192056712Y-179899814D01*
X192056712Y-179899814D02*
X192056712Y-180042671D01*
X192056712Y-180042671D02*
X191342426Y-180185528D01*
X192628140Y-180614100D02*
X192770997Y-180685528D01*
X192770997Y-180685528D02*
X193056711Y-180685528D01*
X193056711Y-180685528D02*
X193199568Y-180614100D01*
X193199568Y-180614100D02*
X193270997Y-180471242D01*
X193270997Y-180471242D02*
X193270997Y-180399814D01*
X193270997Y-180399814D02*
X193199568Y-180256957D01*
X193199568Y-180256957D02*
X193056711Y-180185528D01*
X193056711Y-180185528D02*
X192842426Y-180185528D01*
X192842426Y-180185528D02*
X192699568Y-180114100D01*
X192699568Y-180114100D02*
X192628140Y-179971242D01*
X192628140Y-179971242D02*
X192628140Y-179899814D01*
X192628140Y-179899814D02*
X192699568Y-179756957D01*
X192699568Y-179756957D02*
X192842426Y-179685528D01*
X192842426Y-179685528D02*
X193056711Y-179685528D01*
X193056711Y-179685528D02*
X193199568Y-179756957D01*
X194485283Y-180614100D02*
X194342426Y-180685528D01*
X194342426Y-180685528D02*
X194056712Y-180685528D01*
X194056712Y-180685528D02*
X193913854Y-180614100D01*
X193913854Y-180614100D02*
X193842426Y-180471242D01*
X193842426Y-180471242D02*
X193842426Y-179899814D01*
X193842426Y-179899814D02*
X193913854Y-179756957D01*
X193913854Y-179756957D02*
X194056712Y-179685528D01*
X194056712Y-179685528D02*
X194342426Y-179685528D01*
X194342426Y-179685528D02*
X194485283Y-179756957D01*
X194485283Y-179756957D02*
X194556712Y-179899814D01*
X194556712Y-179899814D02*
X194556712Y-180042671D01*
X194556712Y-180042671D02*
X193842426Y-180185528D01*
X195413854Y-180685528D02*
X195270997Y-180614100D01*
X195270997Y-180614100D02*
X195199568Y-180471242D01*
X195199568Y-180471242D02*
X195199568Y-179185528D01*
D10*
D11*
D10*
D11*
D10*
D11*
D10*
D11*
D10*
D11*
X197002200Y-191507200D02*
X197002200Y-194507200D01*
D10*
D11*
X261002200Y-191507200D02*
X261002200Y-198007200D01*
D14*
%TO.P,J1,1,Pin_1*%
%TO.N,Net-(A1-A2)*%
X96260500Y-109620000D03*
D15*
%TO.P,J1,2,Pin_2*%
%TO.N,Net-(A1-A1)*%
X96260500Y-107080000D03*
%TO.P,J1,3,Pin_3*%
%TO.N,Net-(A1-A0)*%
X96260500Y-104540000D03*
%TD*%
D16*
%TO.P,R6,1*%
%TO.N,Net-(A1-D13)*%
X107810000Y-94590000D03*
D17*
%TO.P,R6,2*%
%TO.N,Net-(A1-A2)*%
X115430000Y-94590000D03*
%TD*%
D16*
%TO.P,R1,1*%
%TO.N,Net-(A1-A0)*%
X107796000Y-110520000D03*
D17*
%TO.P,R1,2*%
%TO.N,Net-(A1-D8)*%
X115416000Y-110520000D03*
%TD*%
D18*
%TO.P,C1,1*%
%TO.N,Net-(A1-AREF)*%
X96342000Y-101300000D03*
%TO.P,C1,2*%
%TO.N,GND*%
X96342000Y-96300000D03*
%TD*%
D19*
%TO.P,A1,1,D1/TX*%
%TO.N,unconnected-(A1-D1{slash}TX-Pad1)*%
X118395500Y-132380000D03*
D20*
%TO.P,A1,2,D0/RX*%
%TO.N,unconnected-(A1-D0{slash}RX-Pad2)*%
X118395500Y-129840000D03*
%TO.P,A1,3,~{RESET}*%
%TO.N,Net-(A1-~{RESET}-Pad28)*%
X118395500Y-127300000D03*
%TO.P,A1,4,GND*%
%TO.N,GND*%
X118395500Y-124760000D03*
%TO.P,A1,5,D2*%
%TO.N,unconnected-(A1-D2-Pad5)*%
X118395500Y-122220000D03*
%TO.P,A1,6,D3*%
%TO.N,unconnected-(A1-D3-Pad6)*%
X118395500Y-119680000D03*
%TO.P,A1,7,D4*%
%TO.N,unconnected-(A1-D4-Pad7)*%
X118395500Y-117140000D03*
%TO.P,A1,8,D5*%
%TO.N,unconnected-(A1-D5-Pad8)*%
X118395500Y-114600000D03*
%TO.P,A1,9,D6*%
%TO.N,unconnected-(A1-D6-Pad9)*%
X118395500Y-112060000D03*
%TO.P,A1,10,D7*%
%TO.N,unconnected-(A1-D7-Pad10)*%
X118395500Y-109520000D03*
%TO.P,A1,11,D8*%
%TO.N,Net-(A1-D8)*%
X118395500Y-106980000D03*
%TO.P,A1,12,D9*%
%TO.N,Net-(A1-D9)*%
X118395500Y-104440000D03*
%TO.P,A1,13,D10*%
%TO.N,Net-(A1-D10)*%
X118395500Y-101900000D03*
%TO.P,A1,14,D11*%
%TO.N,Net-(A1-D11)*%
X118395500Y-99360000D03*
%TO.P,A1,15,D12*%
%TO.N,Net-(A1-D12)*%
X118395500Y-96820000D03*
%TO.P,A1,16,D13*%
%TO.N,Net-(A1-D13)*%
X103155500Y-96820000D03*
%TO.P,A1,17,3V3*%
%TO.N,Net-(A1-3V3)*%
X103155500Y-99360000D03*
%TO.P,A1,18,AREF*%
%TO.N,Net-(A1-AREF)*%
X103155500Y-101900000D03*
%TO.P,A1,19,A0*%
%TO.N,Net-(A1-A0)*%
X103155500Y-104440000D03*
%TO.P,A1,20,A1*%
%TO.N,Net-(A1-A1)*%
X103155500Y-106980000D03*
%TO.P,A1,21,A2*%
%TO.N,Net-(A1-A2)*%
X103155500Y-109520000D03*
%TO.P,A1,22,A3*%
%TO.N,Net-(A1-A3)*%
X103155500Y-112060000D03*
%TO.P,A1,23,A4*%
%TO.N,Net-(A1-A4)*%
X103155500Y-114600000D03*
%TO.P,A1,24,A5*%
%TO.N,Net-(A1-A5)*%
X103155500Y-117140000D03*
%TO.P,A1,25,A6*%
%TO.N,unconnected-(A1-A6-Pad25)*%
X103155500Y-119680000D03*
%TO.P,A1,26,A7*%
%TO.N,unconnected-(A1-A7-Pad26)*%
X103155500Y-122220000D03*
%TO.P,A1,27,+5V*%
%TO.N,unconnected-(A1-+5V-Pad27)*%
X103155500Y-124760000D03*
%TO.P,A1,28,~{RESET}*%
%TO.N,Net-(A1-~{RESET}-Pad28)*%
X103155500Y-127300000D03*
%TO.P,A1,29,GND*%
%TO.N,GND*%
X103155500Y-129840000D03*
%TO.P,A1,30,VIN*%
%TO.N,unconnected-(A1-VIN-Pad30)*%
X103155500Y-132380000D03*
%TD*%
D16*
%TO.P,R3,1*%
%TO.N,Net-(A1-A1)*%
X107880500Y-104890000D03*
D17*
%TO.P,R3,2*%
%TO.N,Net-(A1-D10)*%
X115500500Y-104890000D03*
%TD*%
D16*
%TO.P,R5,1*%
%TO.N,Net-(A1-A2)*%
X107812000Y-98310000D03*
D17*
%TO.P,R5,2*%
%TO.N,Net-(A1-D12)*%
X115432000Y-98310000D03*
%TD*%
D21*
%TO.P,Start,1,1*%
%TO.N,Net-(A1-A3)*%
X98450000Y-128100000D03*
X98450000Y-134600000D03*
%TO.P,Start,2,2*%
%TO.N,GND*%
X93950000Y-128100000D03*
X93950000Y-134600000D03*
%TD*%
D14*
%TO.P,J2,1,Pin_1*%
%TO.N,GND*%
X96341000Y-122350000D03*
D15*
%TO.P,J2,2,Pin_2*%
%TO.N,Net-(A1-3V3)*%
X96341000Y-119810000D03*
%TO.P,J2,3,Pin_3*%
%TO.N,Net-(A1-A5)*%
X96341000Y-117270000D03*
%TO.P,J2,4,Pin_4*%
%TO.N,Net-(A1-A4)*%
X96341000Y-114730000D03*
%TD*%
D16*
%TO.P,R4,1*%
%TO.N,Net-(A1-D11)*%
X115416000Y-101530000D03*
D17*
%TO.P,R4,2*%
%TO.N,Net-(A1-A1)*%
X107796000Y-101530000D03*
%TD*%
D22*
%TO.P,REF9\u002A\u002A,1*%
%TO.N,GND*%
X95940000Y-91770000D03*
%TD*%
D23*
%TO.P,Reset,1,1*%
%TO.N,Net-(A1-~{RESET}-Pad28)*%
X108170000Y-90760000D03*
D24*
%TO.P,Reset,2,2*%
%TO.N,GND*%
X101670000Y-90760000D03*
%TD*%
D16*
%TO.P,R2,1*%
%TO.N,Net-(A1-D9)*%
X115446500Y-107640000D03*
D17*
%TO.P,R2,2*%
%TO.N,Net-(A1-A0)*%
X107826500Y-107640000D03*
%TD*%
D25*
%TO.N,GND*%
X107222000Y-114050000D03*
X120302000Y-137050000D03*
X93782000Y-136980000D03*
X120232000Y-89950000D03*
%TD*%
D26*
%TO.N,Net-(A1-~{RESET}-Pad28)*%
X118395500Y-127300000D02*
X113790000Y-122694500D01*
X113790000Y-122694500D02*
X113790000Y-97630000D01*
X117610000Y-92990000D02*
X109280000Y-92990000D01*
X118170000Y-94270000D02*
X118170000Y-93550000D01*
X106340500Y-127300000D02*
X118395500Y-127300000D01*
X113790000Y-97630000D02*
X114630000Y-96790000D01*
X108170000Y-91880000D02*
X108170000Y-90760000D01*
X103155500Y-127300000D02*
X106340500Y-127300000D01*
X109280000Y-92990000D02*
X108170000Y-91880000D01*
X115650000Y-96790000D02*
X118170000Y-94270000D01*
X114630000Y-96790000D02*
X115650000Y-96790000D01*
X118170000Y-93550000D02*
X117610000Y-92990000D01*
%TO.N,GND*%
X95590000Y-136240000D02*
X93950000Y-134600000D01*
X98122000Y-90760000D02*
X97082000Y-91800000D01*
X103155500Y-129840000D02*
X100320000Y-132675500D01*
X101670000Y-90760000D02*
X101670000Y-92140000D01*
X100320000Y-132675500D02*
X100320000Y-135920000D01*
X93950000Y-128100000D02*
X93950000Y-134600000D01*
X101670000Y-92140000D02*
X97510000Y-96300000D01*
X96366000Y-125684000D02*
X93950000Y-128100000D01*
X100320000Y-135920000D02*
X100000000Y-136240000D01*
X96341000Y-122350000D02*
X96366000Y-122375000D01*
X97510000Y-96300000D02*
X96342000Y-96300000D01*
X96366000Y-122375000D02*
X96366000Y-125684000D01*
X100000000Y-136240000D02*
X95590000Y-136240000D01*
%TO.N,Net-(A1-D8)*%
X115416000Y-110520000D02*
X115416000Y-109966000D01*
X115416000Y-109966000D02*
X118395500Y-106986500D01*
X118395500Y-106986500D02*
X118395500Y-106980000D01*
%TO.N,Net-(A1-D9)*%
X115446500Y-107640000D02*
X118395500Y-104691000D01*
X118395500Y-104691000D02*
X118395500Y-104440000D01*
%TO.N,Net-(A1-D10)*%
X115500500Y-104890000D02*
X118395500Y-101995000D01*
%TO.N,Net-(A1-D11)*%
X116225500Y-101530000D02*
X118395500Y-99360000D01*
X115416000Y-101530000D02*
X116225500Y-101530000D01*
%TO.N,Net-(A1-D12)*%
X116052000Y-97930000D02*
X116192000Y-97790000D01*
X116192000Y-97790000D02*
X117425500Y-97790000D01*
X117425500Y-97790000D02*
X118395500Y-96820000D01*
%TO.N,Net-(A1-D13)*%
X105580000Y-96820000D02*
X103155500Y-96820000D01*
X107810000Y-94590000D02*
X105580000Y-96820000D01*
%TO.N,Net-(A1-3V3)*%
X93862000Y-117331000D02*
X93862000Y-100480000D01*
X96341000Y-119810000D02*
X93862000Y-117331000D01*
X94982000Y-99360000D02*
X103155500Y-99360000D01*
X93862000Y-100480000D02*
X94982000Y-99360000D01*
%TO.N,Net-(A1-AREF)*%
X96342000Y-101300000D02*
X96942000Y-101900000D01*
X96942000Y-101900000D02*
X103155500Y-101900000D01*
%TO.N,Net-(A1-A0)*%
X108198000Y-99810000D02*
X109574000Y-101186000D01*
X96260500Y-104540000D02*
X96890500Y-105170000D01*
X107730500Y-109370000D02*
X107730500Y-107736000D01*
X109574000Y-101186000D02*
X109574000Y-108376000D01*
X107730500Y-110454500D02*
X107730500Y-109370000D01*
X103155500Y-104146500D02*
X103155500Y-104440000D01*
X107270000Y-99810000D02*
X108198000Y-99810000D01*
X108890000Y-109060000D02*
X107852000Y-109060000D01*
X102425500Y-105170000D02*
X103155500Y-104440000D01*
X103155500Y-103924500D02*
X107270000Y-99810000D01*
X103155500Y-104440000D02*
X103155500Y-103924500D01*
X109574000Y-108376000D02*
X108890000Y-109060000D01*
X107796000Y-110520000D02*
X107730500Y-110454500D01*
X107730500Y-107736000D02*
X107826500Y-107640000D01*
X96890500Y-105170000D02*
X102425500Y-105170000D01*
%TO.N,Net-(A1-A1)*%
X103025500Y-107110000D02*
X103155500Y-106980000D01*
X107880500Y-104800000D02*
X107880500Y-104890000D01*
X107796000Y-104805500D02*
X107796000Y-101530000D01*
X96290500Y-107110000D02*
X103025500Y-107110000D01*
X107880500Y-104890000D02*
X107796000Y-104805500D01*
X96260500Y-107080000D02*
X96290500Y-107110000D01*
X107796000Y-103218000D02*
X106917500Y-103218000D01*
X106917500Y-103218000D02*
X103155500Y-106980000D01*
%TO.N,Net-(A1-A2)*%
X105865500Y-112230000D02*
X108792000Y-112230000D01*
X102415500Y-110260000D02*
X103155500Y-109520000D01*
X103155500Y-109520000D02*
X105865500Y-112230000D01*
X115130000Y-94590000D02*
X112122000Y-97598000D01*
X115430000Y-94590000D02*
X115130000Y-94590000D01*
X112122000Y-108900000D02*
X112122000Y-98310000D01*
X112122000Y-97598000D02*
X112122000Y-98310000D01*
X96260500Y-109620000D02*
X96900500Y-110260000D01*
X108792000Y-112230000D02*
X112122000Y-108900000D01*
X96900500Y-110260000D02*
X102415500Y-110260000D01*
X112122000Y-98310000D02*
X107812000Y-98310000D01*
%TO.N,Net-(A1-A3)*%
X98450000Y-134600000D02*
X98450000Y-128100000D01*
X99520000Y-128100000D02*
X101560000Y-126060000D01*
X105100000Y-114004500D02*
X103155500Y-112060000D01*
X101560000Y-126060000D02*
X103780000Y-126060000D01*
X103780000Y-126060000D02*
X105100000Y-124740000D01*
X105100000Y-124740000D02*
X105100000Y-114004500D01*
X98450000Y-128100000D02*
X99520000Y-128100000D01*
%TO.N,Net-(A1-A4)*%
X103025500Y-114730000D02*
X103155500Y-114600000D01*
X96341000Y-114730000D02*
X103025500Y-114730000D01*
%TO.N,Net-(A1-A5)*%
X103025500Y-117270000D02*
X103155500Y-117140000D01*
X96341000Y-117270000D02*
X103025500Y-117270000D01*
%TD*%
%TA.AperFunction,Conductor*%
%TO.N,GND*%
G36*
X121934456Y-88189776D02*
G01*
X121992621Y-88208761D01*
X122028519Y-88258309D01*
X122033324Y-88288879D01*
X121981633Y-138071206D01*
X121962665Y-138129377D01*
X121913128Y-138165289D01*
X121882732Y-138170103D01*
X102489584Y-138189500D01*
X92109614Y-138189500D01*
X92051423Y-138170593D01*
X92015459Y-138121093D01*
X92010614Y-138090397D01*
X92013034Y-135759618D01*
X92014238Y-134600000D01*
X92744859Y-134600000D01*
X92765379Y-134821445D01*
X92826239Y-135035347D01*
X92925366Y-135234421D01*
X92925375Y-135234436D01*
X93032407Y-135376168D01*
X93493703Y-134914871D01*
X93496442Y-134920156D01*
X93599638Y-135030652D01*
X93637650Y-135053768D01*
X93174544Y-135516874D01*
X93174545Y-135516876D01*
X93223736Y-135561720D01*
X93412823Y-135678797D01*
X93620200Y-135759136D01*
X93838804Y-135800000D01*
X94061196Y-135800000D01*
X94279799Y-135759136D01*
X94487176Y-135678797D01*
X94676259Y-135561722D01*
X94725453Y-135516875D01*
X94262978Y-135054400D01*
X94355739Y-134978934D01*
X94403166Y-134911744D01*
X94867591Y-135376169D01*
X94974624Y-135234436D01*
X94974633Y-135234421D01*
X95073760Y-135035347D01*
X95134620Y-134821445D01*
X95155140Y-134600000D01*
X97244357Y-134600000D01*
X97264885Y-134821536D01*
X97325771Y-135035528D01*
X97424942Y-135234689D01*
X97559019Y-135412236D01*
X97723438Y-135562124D01*
X97912599Y-135679247D01*
X98120060Y-135759618D01*
X98338757Y-135800500D01*
X98561243Y-135800500D01*
X98779940Y-135759618D01*
X98987401Y-135679247D01*
X99176562Y-135562124D01*
X99340981Y-135412236D01*
X99475058Y-135234689D01*
X99574229Y-135035528D01*
X99635115Y-134821536D01*
X99655643Y-134600000D01*
X99635115Y-134378464D01*
X99574229Y-134164472D01*
X99475058Y-133965311D01*
X99340981Y-133787764D01*
X99176562Y-133637876D01*
X98987401Y-133520753D01*
X98987397Y-133520751D01*
X98987395Y-133520750D01*
X98913736Y-133492214D01*
X98866305Y-133453562D01*
X98850500Y-133399900D01*
X98850500Y-132380003D01*
X102150159Y-132380003D01*
X102169474Y-132576126D01*
X102169475Y-132576129D01*
X102226687Y-132764730D01*
X102226688Y-132764732D01*
X102297718Y-132897618D01*
X102319590Y-132938538D01*
X102319592Y-132938540D01*
X102319593Y-132938542D01*
X102444612Y-133090878D01*
X102444621Y-133090887D01*
X102577281Y-133199758D01*
X102596962Y-133215910D01*
X102770773Y-133308814D01*
X102959368Y-133366024D01*
X102959370Y-133366024D01*
X102959373Y-133366025D01*
X103155497Y-133385341D01*
X103155500Y-133385341D01*
X103155503Y-133385341D01*
X103351626Y-133366025D01*
X103351627Y-133366024D01*
X103351632Y-133366024D01*
X103540227Y-133308814D01*
X103714038Y-133215910D01*
X103733734Y-133199746D01*
X117395000Y-133199746D01*
X117395001Y-133199758D01*
X117406632Y-133258227D01*
X117406634Y-133258233D01*
X117440432Y-133308814D01*
X117450948Y-133324552D01*
X117517269Y-133368867D01*
X117561731Y-133377711D01*
X117575741Y-133380498D01*
X117575746Y-133380498D01*
X117575752Y-133380500D01*
X117575753Y-133380500D01*
X119215247Y-133380500D01*
X119215248Y-133380500D01*
X119273731Y-133368867D01*
X119340052Y-133324552D01*
X119384367Y-133258231D01*
X119396000Y-133199748D01*
X119396000Y-131560252D01*
X119384367Y-131501769D01*
X119340052Y-131435448D01*
X119277986Y-131393976D01*
X119273733Y-131391134D01*
X119273731Y-131391133D01*
X119273728Y-131391132D01*
X119273727Y-131391132D01*
X119215258Y-131379501D01*
X119215248Y-131379500D01*
X117575752Y-131379500D01*
X117575751Y-131379500D01*
X117575741Y-131379501D01*
X117517272Y-131391132D01*
X117517266Y-131391134D01*
X117450951Y-131435445D01*
X117450945Y-131435451D01*
X117406634Y-131501766D01*
X117406632Y-131501772D01*
X117395001Y-131560241D01*
X117395000Y-131560253D01*
X117395000Y-133199746D01*
X103733734Y-133199746D01*
X103866383Y-133090883D01*
X103991410Y-132938538D01*
X104084314Y-132764727D01*
X104141524Y-132576132D01*
X104160841Y-132380000D01*
X104160841Y-132379996D01*
X104141525Y-132183873D01*
X104141524Y-132183870D01*
X104141524Y-132183868D01*
X104084314Y-131995273D01*
X103991410Y-131821462D01*
X103991406Y-131821457D01*
X103866387Y-131669121D01*
X103866378Y-131669112D01*
X103714042Y-131544093D01*
X103714040Y-131544092D01*
X103714038Y-131544090D01*
X103634861Y-131501769D01*
X103540232Y-131451188D01*
X103540230Y-131451187D01*
X103351629Y-131393975D01*
X103351626Y-131393974D01*
X103155503Y-131374659D01*
X103155497Y-131374659D01*
X102959373Y-131393974D01*
X102959370Y-131393975D01*
X102770769Y-131451187D01*
X102770767Y-131451188D01*
X102596967Y-131544087D01*
X102596957Y-131544093D01*
X102444621Y-131669112D01*
X102444612Y-131669121D01*
X102319593Y-131821457D01*
X102319587Y-131821467D01*
X102226688Y-131995267D01*
X102226687Y-131995269D01*
X102169475Y-132183870D01*
X102169474Y-132183873D01*
X102150159Y-132379996D01*
X102150159Y-132380003D01*
X98850500Y-132380003D01*
X98850500Y-129940000D01*
X102160509Y-129940000D01*
X102169967Y-130036028D01*
X102169968Y-130036034D01*
X102227150Y-130224535D01*
X102227152Y-130224540D01*
X102320002Y-130398252D01*
X102320006Y-130398258D01*
X102444968Y-130550523D01*
X102444976Y-130550531D01*
X102597241Y-130675493D01*
X102597247Y-130675497D01*
X102770959Y-130768347D01*
X102770964Y-130768349D01*
X102959468Y-130825531D01*
X103055499Y-130834989D01*
X103055500Y-130834988D01*
X103055500Y-130330764D01*
X103119737Y-130340000D01*
X103191263Y-130340000D01*
X103255500Y-130330764D01*
X103255500Y-130834989D01*
X103351531Y-130825531D01*
X103540035Y-130768349D01*
X103540040Y-130768347D01*
X103713752Y-130675497D01*
X103713758Y-130675493D01*
X103866023Y-130550531D01*
X103866031Y-130550523D01*
X103990993Y-130398258D01*
X103990997Y-130398252D01*
X104083847Y-130224540D01*
X104083849Y-130224535D01*
X104141031Y-130036034D01*
X104141032Y-130036028D01*
X104150491Y-129940000D01*
X103647246Y-129940000D01*
X103655500Y-129911889D01*
X103655500Y-129840003D01*
X117390159Y-129840003D01*
X117409474Y-130036126D01*
X117409475Y-130036129D01*
X117466687Y-130224730D01*
X117466688Y-130224732D01*
X117520112Y-130324680D01*
X117559590Y-130398538D01*
X117559592Y-130398540D01*
X117559593Y-130398542D01*
X117684612Y-130550878D01*
X117684621Y-130550887D01*
X117836454Y-130675493D01*
X117836962Y-130675910D01*
X118010773Y-130768814D01*
X118199368Y-130826024D01*
X118199370Y-130826024D01*
X118199373Y-130826025D01*
X118395497Y-130845341D01*
X118395500Y-130845341D01*
X118395503Y-130845341D01*
X118591626Y-130826025D01*
X118591627Y-130826024D01*
X118591632Y-130826024D01*
X118780227Y-130768814D01*
X118954038Y-130675910D01*
X119106383Y-130550883D01*
X119231410Y-130398538D01*
X119324314Y-130224727D01*
X119381524Y-130036132D01*
X119381535Y-130036028D01*
X119400841Y-129840003D01*
X119400841Y-129839996D01*
X119381525Y-129643873D01*
X119381524Y-129643870D01*
X119381524Y-129643868D01*
X119324314Y-129455273D01*
X119231410Y-129281462D01*
X119231406Y-129281457D01*
X119106387Y-129129121D01*
X119106378Y-129129112D01*
X118954042Y-129004093D01*
X118954040Y-129004092D01*
X118954038Y-129004090D01*
X118913118Y-128982218D01*
X118780232Y-128911188D01*
X118780230Y-128911187D01*
X118591629Y-128853975D01*
X118591626Y-128853974D01*
X118395503Y-128834659D01*
X118395497Y-128834659D01*
X118199373Y-128853974D01*
X118199370Y-128853975D01*
X118010769Y-128911187D01*
X118010767Y-128911188D01*
X117836967Y-129004087D01*
X117836957Y-129004093D01*
X117684621Y-129129112D01*
X117684612Y-129129121D01*
X117559593Y-129281457D01*
X117559587Y-129281467D01*
X117466688Y-129455267D01*
X117466687Y-129455269D01*
X117409475Y-129643870D01*
X117409474Y-129643873D01*
X117390159Y-129839996D01*
X117390159Y-129840003D01*
X103655500Y-129840003D01*
X103655500Y-129768111D01*
X103647246Y-129740000D01*
X104150490Y-129740000D01*
X104150490Y-129739999D01*
X104141032Y-129643971D01*
X104141031Y-129643965D01*
X104083849Y-129455464D01*
X104083847Y-129455459D01*
X103990997Y-129281747D01*
X103990993Y-129281741D01*
X103866031Y-129129476D01*
X103866023Y-129129468D01*
X103713758Y-129004506D01*
X103713752Y-129004502D01*
X103540040Y-128911652D01*
X103540035Y-128911650D01*
X103351534Y-128854468D01*
X103351528Y-128854467D01*
X103255500Y-128845009D01*
X103255500Y-129349235D01*
X103191263Y-129340000D01*
X103119737Y-129340000D01*
X103055500Y-129349235D01*
X103055500Y-128845009D01*
X103055499Y-128845009D01*
X102959471Y-128854467D01*
X102959465Y-128854468D01*
X102770964Y-128911650D01*
X102770959Y-128911652D01*
X102597247Y-129004502D01*
X102597241Y-129004506D01*
X102444976Y-129129468D01*
X102444968Y-129129476D01*
X102320006Y-129281741D01*
X102320002Y-129281747D01*
X102227152Y-129455459D01*
X102227150Y-129455464D01*
X102169968Y-129643965D01*
X102169967Y-129643971D01*
X102160509Y-129739999D01*
X102160510Y-129740000D01*
X102663754Y-129740000D01*
X102655500Y-129768111D01*
X102655500Y-129911889D01*
X102663754Y-129940000D01*
X102160509Y-129940000D01*
X98850500Y-129940000D01*
X98850500Y-129300098D01*
X98869407Y-129241907D01*
X98913735Y-129207784D01*
X98987401Y-129179247D01*
X99176562Y-129062124D01*
X99340981Y-128912236D01*
X99475058Y-128734689D01*
X99572367Y-128539266D01*
X99615230Y-128495604D01*
X99637915Y-128488118D01*
X99637894Y-128488053D01*
X99645297Y-128485646D01*
X99645304Y-128485646D01*
X99666802Y-128474690D01*
X99681151Y-128468748D01*
X99704090Y-128461296D01*
X99723612Y-128447111D01*
X99736849Y-128439000D01*
X99758342Y-128428050D01*
X99775261Y-128411129D01*
X99775265Y-128411127D01*
X99780907Y-128405484D01*
X99780909Y-128405484D01*
X101696897Y-126489496D01*
X101751414Y-126461719D01*
X101766901Y-126460500D01*
X102340852Y-126460500D01*
X102399043Y-126479407D01*
X102435007Y-126528907D01*
X102435007Y-126590093D01*
X102417380Y-126622305D01*
X102319593Y-126741457D01*
X102319587Y-126741467D01*
X102226688Y-126915267D01*
X102226687Y-126915269D01*
X102169475Y-127103870D01*
X102169474Y-127103873D01*
X102150159Y-127299996D01*
X102150159Y-127300003D01*
X102169474Y-127496126D01*
X102169475Y-127496129D01*
X102226687Y-127684730D01*
X102226688Y-127684732D01*
X102263089Y-127752832D01*
X102319590Y-127858538D01*
X102319592Y-127858540D01*
X102319593Y-127858542D01*
X102444612Y-128010878D01*
X102444621Y-128010887D01*
X102596957Y-128135906D01*
X102596962Y-128135910D01*
X102770773Y-128228814D01*
X102959368Y-128286024D01*
X102959370Y-128286024D01*
X102959373Y-128286025D01*
X103155497Y-128305341D01*
X103155500Y-128305341D01*
X103155503Y-128305341D01*
X103351626Y-128286025D01*
X103351627Y-128286024D01*
X103351632Y-128286024D01*
X103540227Y-128228814D01*
X103714038Y-128135910D01*
X103866383Y-128010883D01*
X103991410Y-127858538D01*
X104047912Y-127752830D01*
X104092016Y-127710425D01*
X104135221Y-127700500D01*
X106308981Y-127700500D01*
X117415779Y-127700500D01*
X117473970Y-127719407D01*
X117503087Y-127752829D01*
X117552132Y-127844585D01*
X117559590Y-127858538D01*
X117684612Y-128010878D01*
X117684621Y-128010887D01*
X117836957Y-128135906D01*
X117836962Y-128135910D01*
X118010773Y-128228814D01*
X118199368Y-128286024D01*
X118199370Y-128286024D01*
X118199373Y-128286025D01*
X118395497Y-128305341D01*
X118395500Y-128305341D01*
X118395503Y-128305341D01*
X118591626Y-128286025D01*
X118591627Y-128286024D01*
X118591632Y-128286024D01*
X118780227Y-128228814D01*
X118954038Y-128135910D01*
X119106383Y-128010883D01*
X119231410Y-127858538D01*
X119324314Y-127684727D01*
X119381524Y-127496132D01*
X119384336Y-127467587D01*
X119400841Y-127300003D01*
X119400841Y-127299996D01*
X119381525Y-127103873D01*
X119381524Y-127103870D01*
X119381524Y-127103868D01*
X119324314Y-126915273D01*
X119316150Y-126900000D01*
X119286990Y-126845445D01*
X119231410Y-126741462D01*
X119231406Y-126741457D01*
X119106387Y-126589121D01*
X119106378Y-126589112D01*
X118954042Y-126464093D01*
X118954040Y-126464092D01*
X118954038Y-126464090D01*
X118873980Y-126421298D01*
X118780232Y-126371188D01*
X118780230Y-126371187D01*
X118780032Y-126371127D01*
X118591632Y-126313976D01*
X118591629Y-126313975D01*
X118591626Y-126313974D01*
X118395503Y-126294659D01*
X118395497Y-126294659D01*
X118199373Y-126313974D01*
X118199364Y-126313976D01*
X118084669Y-126348768D01*
X118023496Y-126347567D01*
X117985928Y-126324035D01*
X116521893Y-124860000D01*
X117400509Y-124860000D01*
X117409967Y-124956028D01*
X117409968Y-124956034D01*
X117467150Y-125144535D01*
X117467152Y-125144540D01*
X117560002Y-125318252D01*
X117560006Y-125318258D01*
X117684968Y-125470523D01*
X117684976Y-125470531D01*
X117837241Y-125595493D01*
X117837247Y-125595497D01*
X118010959Y-125688347D01*
X118010964Y-125688349D01*
X118199468Y-125745531D01*
X118295499Y-125754989D01*
X118295500Y-125754988D01*
X118295500Y-125250764D01*
X118359737Y-125260000D01*
X118431263Y-125260000D01*
X118495500Y-125250764D01*
X118495500Y-125754989D01*
X118591531Y-125745531D01*
X118780035Y-125688349D01*
X118780040Y-125688347D01*
X118953752Y-125595497D01*
X118953758Y-125595493D01*
X119106023Y-125470531D01*
X119106031Y-125470523D01*
X119230993Y-125318258D01*
X119230997Y-125318252D01*
X119323847Y-125144540D01*
X119323849Y-125144535D01*
X119381031Y-124956034D01*
X119381032Y-124956028D01*
X119390491Y-124860000D01*
X118887246Y-124860000D01*
X118895500Y-124831889D01*
X118895500Y-124688111D01*
X118887246Y-124660000D01*
X119390490Y-124660000D01*
X119390490Y-124659999D01*
X119381032Y-124563971D01*
X119381031Y-124563965D01*
X119323849Y-124375464D01*
X119323847Y-124375459D01*
X119230997Y-124201747D01*
X119230993Y-124201741D01*
X119106031Y-124049476D01*
X119106023Y-124049468D01*
X118953758Y-123924506D01*
X118953752Y-123924502D01*
X118780040Y-123831652D01*
X118780035Y-123831650D01*
X118591534Y-123774468D01*
X118591528Y-123774467D01*
X118495500Y-123765009D01*
X118495500Y-124269235D01*
X118431263Y-124260000D01*
X118359737Y-124260000D01*
X118295500Y-124269235D01*
X118295500Y-123765009D01*
X118295499Y-123765009D01*
X118199471Y-123774467D01*
X118199465Y-123774468D01*
X118010964Y-123831650D01*
X118010959Y-123831652D01*
X117837247Y-123924502D01*
X117837241Y-123924506D01*
X117684976Y-124049468D01*
X117684968Y-124049476D01*
X117560006Y-124201741D01*
X117560002Y-124201747D01*
X117467152Y-124375459D01*
X117467150Y-124375464D01*
X117409968Y-124563965D01*
X117409967Y-124563971D01*
X117400509Y-124659999D01*
X117400510Y-124660000D01*
X117903754Y-124660000D01*
X117895500Y-124688111D01*
X117895500Y-124831889D01*
X117903754Y-124860000D01*
X117400509Y-124860000D01*
X116521893Y-124860000D01*
X114219496Y-122557603D01*
X114191719Y-122503086D01*
X114190500Y-122487599D01*
X114190500Y-122220003D01*
X117390159Y-122220003D01*
X117409474Y-122416126D01*
X117409475Y-122416129D01*
X117466687Y-122604730D01*
X117466688Y-122604732D01*
X117507347Y-122680798D01*
X117559590Y-122778538D01*
X117559592Y-122778540D01*
X117559593Y-122778542D01*
X117684612Y-122930878D01*
X117684621Y-122930887D01*
X117836957Y-123055906D01*
X117836962Y-123055910D01*
X118010773Y-123148814D01*
X118199368Y-123206024D01*
X118199370Y-123206024D01*
X118199373Y-123206025D01*
X118395497Y-123225341D01*
X118395500Y-123225341D01*
X118395503Y-123225341D01*
X118591626Y-123206025D01*
X118591627Y-123206024D01*
X118591632Y-123206024D01*
X118780227Y-123148814D01*
X118954038Y-123055910D01*
X119106383Y-122930883D01*
X119231410Y-122778538D01*
X119324314Y-122604727D01*
X119381524Y-122416132D01*
X119397887Y-122250000D01*
X119400841Y-122220003D01*
X119400841Y-122219996D01*
X119381525Y-122023873D01*
X119381524Y-122023870D01*
X119381524Y-122023868D01*
X119324314Y-121835273D01*
X119231410Y-121661462D01*
X119231406Y-121661457D01*
X119106387Y-121509121D01*
X119106378Y-121509112D01*
X118954042Y-121384093D01*
X118954040Y-121384092D01*
X118954038Y-121384090D01*
X118901130Y-121355810D01*
X118780232Y-121291188D01*
X118780230Y-121291187D01*
X118591629Y-121233975D01*
X118591626Y-121233974D01*
X118395503Y-121214659D01*
X118395497Y-121214659D01*
X118199373Y-121233974D01*
X118199370Y-121233975D01*
X118010769Y-121291187D01*
X118010767Y-121291188D01*
X117836967Y-121384087D01*
X117836957Y-121384093D01*
X117684621Y-121509112D01*
X117684612Y-121509121D01*
X117559593Y-121661457D01*
X117559587Y-121661467D01*
X117466688Y-121835267D01*
X117466687Y-121835269D01*
X117409475Y-122023870D01*
X117409474Y-122023873D01*
X117390159Y-122219996D01*
X117390159Y-122220003D01*
X114190500Y-122220003D01*
X114190500Y-119680003D01*
X117390159Y-119680003D01*
X117409474Y-119876126D01*
X117409475Y-119876129D01*
X117466687Y-120064730D01*
X117466688Y-120064732D01*
X117537718Y-120197618D01*
X117559590Y-120238538D01*
X117559592Y-120238540D01*
X117559593Y-120238542D01*
X117684612Y-120390878D01*
X117684621Y-120390887D01*
X117836957Y-120515906D01*
X117836962Y-120515910D01*
X118010773Y-120608814D01*
X118199368Y-120666024D01*
X118199370Y-120666024D01*
X118199373Y-120666025D01*
X118395497Y-120685341D01*
X118395500Y-120685341D01*
X118395503Y-120685341D01*
X118591626Y-120666025D01*
X118591627Y-120666024D01*
X118591632Y-120666024D01*
X118780227Y-120608814D01*
X118954038Y-120515910D01*
X119106383Y-120390883D01*
X119231410Y-120238538D01*
X119324314Y-120064727D01*
X119381524Y-119876132D01*
X119388038Y-119810000D01*
X119400841Y-119680003D01*
X119400841Y-119679996D01*
X119381525Y-119483873D01*
X119381524Y-119483870D01*
X119381524Y-119483868D01*
X119324314Y-119295273D01*
X119231410Y-119121462D01*
X119183920Y-119063595D01*
X119106387Y-118969121D01*
X119106378Y-118969112D01*
X118954042Y-118844093D01*
X118954040Y-118844092D01*
X118954038Y-118844090D01*
X118906497Y-118818679D01*
X118780232Y-118751188D01*
X118780230Y-118751187D01*
X118591629Y-118693975D01*
X118591626Y-118693974D01*
X118395503Y-118674659D01*
X118395497Y-118674659D01*
X118199373Y-118693974D01*
X118199370Y-118693975D01*
X118010769Y-118751187D01*
X118010767Y-118751188D01*
X117836967Y-118844087D01*
X117836957Y-118844093D01*
X117684621Y-118969112D01*
X117684612Y-118969121D01*
X117559593Y-119121457D01*
X117559587Y-119121467D01*
X117466688Y-119295267D01*
X117466687Y-119295269D01*
X117409475Y-119483870D01*
X117409474Y-119483873D01*
X117390159Y-119679996D01*
X117390159Y-119680003D01*
X114190500Y-119680003D01*
X114190500Y-117140003D01*
X117390159Y-117140003D01*
X117409474Y-117336126D01*
X117409475Y-117336129D01*
X117466687Y-117524730D01*
X117466688Y-117524732D01*
X117537718Y-117657618D01*
X117559590Y-117698538D01*
X117559592Y-117698540D01*
X117559593Y-117698542D01*
X117684612Y-117850878D01*
X117684621Y-117850887D01*
X117836957Y-117975906D01*
X117836962Y-117975910D01*
X118010773Y-118068814D01*
X118199368Y-118126024D01*
X118199370Y-118126024D01*
X118199373Y-118126025D01*
X118395497Y-118145341D01*
X118395500Y-118145341D01*
X118395503Y-118145341D01*
X118591626Y-118126025D01*
X118591627Y-118126024D01*
X118591632Y-118126024D01*
X118780227Y-118068814D01*
X118954038Y-117975910D01*
X119106383Y-117850883D01*
X119231410Y-117698538D01*
X119324314Y-117524727D01*
X119381524Y-117336132D01*
X119388038Y-117270000D01*
X119400841Y-117140003D01*
X119400841Y-117139996D01*
X119381525Y-116943873D01*
X119381524Y-116943870D01*
X119381524Y-116943868D01*
X119324314Y-116755273D01*
X119231410Y-116581462D01*
X119183920Y-116523595D01*
X119106387Y-116429121D01*
X119106378Y-116429112D01*
X118954042Y-116304093D01*
X118954040Y-116304092D01*
X118954038Y-116304090D01*
X118824219Y-116234700D01*
X118780232Y-116211188D01*
X118780230Y-116211187D01*
X118591629Y-116153975D01*
X118591626Y-116153974D01*
X118395503Y-116134659D01*
X118395497Y-116134659D01*
X118199373Y-116153974D01*
X118199370Y-116153975D01*
X118010769Y-116211187D01*
X118010767Y-116211188D01*
X117836967Y-116304087D01*
X117836957Y-116304093D01*
X117684621Y-116429112D01*
X117684612Y-116429121D01*
X117559593Y-116581457D01*
X117559587Y-116581467D01*
X117466688Y-116755267D01*
X117466687Y-116755269D01*
X117409475Y-116943870D01*
X117409474Y-116943873D01*
X117390159Y-117139996D01*
X117390159Y-117140003D01*
X114190500Y-117140003D01*
X114190500Y-114600003D01*
X117390159Y-114600003D01*
X117409474Y-114796126D01*
X117409475Y-114796129D01*
X117466687Y-114984730D01*
X117466688Y-114984732D01*
X117537718Y-115117618D01*
X117559590Y-115158538D01*
X117559592Y-115158540D01*
X117559593Y-115158542D01*
X117684612Y-115310878D01*
X117684621Y-115310887D01*
X117836957Y-115435906D01*
X117836962Y-115435910D01*
X118010773Y-115528814D01*
X118199368Y-115586024D01*
X118199370Y-115586024D01*
X118199373Y-115586025D01*
X118395497Y-115605341D01*
X118395500Y-115605341D01*
X118395503Y-115605341D01*
X118591626Y-115586025D01*
X118591627Y-115586024D01*
X118591632Y-115586024D01*
X118780227Y-115528814D01*
X118954038Y-115435910D01*
X119106383Y-115310883D01*
X119231410Y-115158538D01*
X119324314Y-114984727D01*
X119381524Y-114796132D01*
X119388038Y-114730000D01*
X119400841Y-114600003D01*
X119400841Y-114599996D01*
X119381525Y-114403873D01*
X119381524Y-114403870D01*
X119381524Y-114403868D01*
X119324314Y-114215273D01*
X119231410Y-114041462D01*
X119183920Y-113983595D01*
X119106387Y-113889121D01*
X119106378Y-113889112D01*
X118954042Y-113764093D01*
X118954040Y-113764092D01*
X118954038Y-113764090D01*
X118824219Y-113694700D01*
X118780232Y-113671188D01*
X118780230Y-113671187D01*
X118591629Y-113613975D01*
X118591626Y-113613974D01*
X118395503Y-113594659D01*
X118395497Y-113594659D01*
X118199373Y-113613974D01*
X118199370Y-113613975D01*
X118010769Y-113671187D01*
X118010767Y-113671188D01*
X117836967Y-113764087D01*
X117836957Y-113764093D01*
X117684621Y-113889112D01*
X117684612Y-113889121D01*
X117559593Y-114041457D01*
X117559587Y-114041467D01*
X117466688Y-114215267D01*
X117466687Y-114215269D01*
X117409475Y-114403870D01*
X117409474Y-114403873D01*
X117390159Y-114599996D01*
X117390159Y-114600003D01*
X114190500Y-114600003D01*
X114190500Y-112060003D01*
X117390159Y-112060003D01*
X117409474Y-112256126D01*
X117409475Y-112256129D01*
X117466687Y-112444730D01*
X117466688Y-112444732D01*
X117515198Y-112535486D01*
X117559590Y-112618538D01*
X117559592Y-112618540D01*
X117559593Y-112618542D01*
X117684612Y-112770878D01*
X117684621Y-112770887D01*
X117836957Y-112895906D01*
X117836962Y-112895910D01*
X118010773Y-112988814D01*
X118199368Y-113046024D01*
X118199370Y-113046024D01*
X118199373Y-113046025D01*
X118395497Y-113065341D01*
X118395500Y-113065341D01*
X118395503Y-113065341D01*
X118591626Y-113046025D01*
X118591627Y-113046024D01*
X118591632Y-113046024D01*
X118780227Y-112988814D01*
X118954038Y-112895910D01*
X119106383Y-112770883D01*
X119231410Y-112618538D01*
X119324314Y-112444727D01*
X119381524Y-112256132D01*
X119400841Y-112060000D01*
X119400841Y-112059996D01*
X119381525Y-111863873D01*
X119381524Y-111863870D01*
X119381524Y-111863868D01*
X119324314Y-111675273D01*
X119231410Y-111501462D01*
X119164966Y-111420500D01*
X119106387Y-111349121D01*
X119106378Y-111349112D01*
X118954042Y-111224093D01*
X118954040Y-111224092D01*
X118954038Y-111224090D01*
X118895654Y-111192883D01*
X118780232Y-111131188D01*
X118780230Y-111131187D01*
X118591629Y-111073975D01*
X118591626Y-111073974D01*
X118395503Y-111054659D01*
X118395497Y-111054659D01*
X118199373Y-111073974D01*
X118199370Y-111073975D01*
X118010769Y-111131187D01*
X118010767Y-111131188D01*
X117836967Y-111224087D01*
X117836957Y-111224093D01*
X117684621Y-111349112D01*
X117684612Y-111349121D01*
X117559593Y-111501457D01*
X117559587Y-111501467D01*
X117466688Y-111675267D01*
X117466687Y-111675269D01*
X117409475Y-111863870D01*
X117409474Y-111863873D01*
X117390159Y-112059996D01*
X117390159Y-112060003D01*
X114190500Y-112060003D01*
X114190500Y-110520000D01*
X114510540Y-110520000D01*
X114524523Y-110653046D01*
X114530327Y-110708261D01*
X114588819Y-110888279D01*
X114588825Y-110888293D01*
X114664015Y-111018525D01*
X114683467Y-111052216D01*
X114810129Y-111192888D01*
X114963270Y-111304151D01*
X115136197Y-111381144D01*
X115321354Y-111420500D01*
X115321357Y-111420500D01*
X115510643Y-111420500D01*
X115510646Y-111420500D01*
X115695803Y-111381144D01*
X115868730Y-111304151D01*
X116021871Y-111192888D01*
X116148533Y-111052216D01*
X116243179Y-110888284D01*
X116301674Y-110708256D01*
X116321460Y-110520000D01*
X116301674Y-110331744D01*
X116243179Y-110151716D01*
X116243176Y-110151711D01*
X116243174Y-110151706D01*
X116194551Y-110067490D01*
X116148533Y-109987784D01*
X116122357Y-109958713D01*
X116097471Y-109902819D01*
X116110192Y-109842970D01*
X116125921Y-109822470D01*
X116428388Y-109520003D01*
X117390159Y-109520003D01*
X117409474Y-109716126D01*
X117409475Y-109716129D01*
X117415457Y-109735849D01*
X117452966Y-109859500D01*
X117466687Y-109904730D01*
X117466688Y-109904732D01*
X117537718Y-110037618D01*
X117559590Y-110078538D01*
X117559592Y-110078540D01*
X117559593Y-110078542D01*
X117684612Y-110230878D01*
X117684621Y-110230887D01*
X117807508Y-110331738D01*
X117836962Y-110355910D01*
X118010773Y-110448814D01*
X118199368Y-110506024D01*
X118199370Y-110506024D01*
X118199373Y-110506025D01*
X118395497Y-110525341D01*
X118395500Y-110525341D01*
X118395503Y-110525341D01*
X118591626Y-110506025D01*
X118591627Y-110506024D01*
X118591632Y-110506024D01*
X118780227Y-110448814D01*
X118954038Y-110355910D01*
X119106383Y-110230883D01*
X119231410Y-110078538D01*
X119324314Y-109904727D01*
X119381524Y-109716132D01*
X119382170Y-109709580D01*
X119400841Y-109520003D01*
X119400841Y-109519996D01*
X119381525Y-109323873D01*
X119381524Y-109323870D01*
X119381524Y-109323868D01*
X119324314Y-109135273D01*
X119231410Y-108961462D01*
X119128911Y-108836567D01*
X119106387Y-108809121D01*
X119106378Y-108809112D01*
X118954042Y-108684093D01*
X118954040Y-108684092D01*
X118954038Y-108684090D01*
X118865769Y-108636909D01*
X118780232Y-108591188D01*
X118780230Y-108591187D01*
X118747083Y-108581132D01*
X118591632Y-108533976D01*
X118591629Y-108533975D01*
X118591626Y-108533974D01*
X118395503Y-108514659D01*
X118395497Y-108514659D01*
X118199373Y-108533974D01*
X118199370Y-108533975D01*
X118010769Y-108591187D01*
X118010767Y-108591188D01*
X117836967Y-108684087D01*
X117836957Y-108684093D01*
X117684621Y-108809112D01*
X117684612Y-108809121D01*
X117559593Y-108961457D01*
X117559587Y-108961467D01*
X117466688Y-109135267D01*
X117466687Y-109135269D01*
X117409475Y-109323870D01*
X117409474Y-109323873D01*
X117390159Y-109519996D01*
X117390159Y-109520003D01*
X116428388Y-109520003D01*
X117990916Y-107957474D01*
X118045431Y-107929699D01*
X118089655Y-107932742D01*
X118199368Y-107966024D01*
X118199370Y-107966024D01*
X118199373Y-107966025D01*
X118395497Y-107985341D01*
X118395500Y-107985341D01*
X118395503Y-107985341D01*
X118591626Y-107966025D01*
X118591627Y-107966024D01*
X118591632Y-107966024D01*
X118780227Y-107908814D01*
X118954038Y-107815910D01*
X119106383Y-107690883D01*
X119231410Y-107538538D01*
X119324314Y-107364727D01*
X119381524Y-107176132D01*
X119388256Y-107107787D01*
X119400841Y-106980003D01*
X119400841Y-106979996D01*
X119381525Y-106783873D01*
X119381524Y-106783870D01*
X119381524Y-106783868D01*
X119324314Y-106595273D01*
X119231410Y-106421462D01*
X119159291Y-106333585D01*
X119106387Y-106269121D01*
X119106378Y-106269112D01*
X118954042Y-106144093D01*
X118954040Y-106144092D01*
X118954038Y-106144090D01*
X118880472Y-106104768D01*
X118780232Y-106051188D01*
X118780230Y-106051187D01*
X118758845Y-106044700D01*
X118591632Y-105993976D01*
X118591629Y-105993975D01*
X118591626Y-105993974D01*
X118395503Y-105974659D01*
X118395497Y-105974659D01*
X118199373Y-105993974D01*
X118199370Y-105993975D01*
X118010769Y-106051187D01*
X118010767Y-106051188D01*
X117836967Y-106144087D01*
X117836957Y-106144093D01*
X117684621Y-106269112D01*
X117684612Y-106269121D01*
X117559593Y-106421457D01*
X117559587Y-106421467D01*
X117466688Y-106595267D01*
X117466687Y-106595269D01*
X117409475Y-106783870D01*
X117409474Y-106783873D01*
X117390159Y-106979996D01*
X117390159Y-106980003D01*
X117409474Y-107176126D01*
X117409475Y-107176132D01*
X117445781Y-107295816D01*
X117444580Y-107356990D01*
X117421048Y-107394558D01*
X115183033Y-109632573D01*
X115140596Y-109655614D01*
X115141129Y-109657254D01*
X115136200Y-109658855D01*
X115136197Y-109658856D01*
X115136193Y-109658857D01*
X115136192Y-109658858D01*
X114963277Y-109735845D01*
X114963268Y-109735850D01*
X114810129Y-109847111D01*
X114810124Y-109847116D01*
X114683469Y-109987781D01*
X114683465Y-109987787D01*
X114588825Y-110151706D01*
X114588819Y-110151720D01*
X114530327Y-110331738D01*
X114530326Y-110331742D01*
X114530326Y-110331744D01*
X114510540Y-110520000D01*
X114190500Y-110520000D01*
X114190500Y-107640000D01*
X114541040Y-107640000D01*
X114560632Y-107826414D01*
X114560827Y-107828261D01*
X114619319Y-108008279D01*
X114619325Y-108008293D01*
X114681107Y-108115301D01*
X114713967Y-108172216D01*
X114713969Y-108172218D01*
X114840339Y-108312567D01*
X114840629Y-108312888D01*
X114993770Y-108424151D01*
X115166697Y-108501144D01*
X115351854Y-108540500D01*
X115351857Y-108540500D01*
X115541143Y-108540500D01*
X115541146Y-108540500D01*
X115726303Y-108501144D01*
X115899230Y-108424151D01*
X116052371Y-108312888D01*
X116179033Y-108172216D01*
X116273679Y-108008284D01*
X116332174Y-107828256D01*
X116351960Y-107640000D01*
X116332174Y-107451744D01*
X116318789Y-107410550D01*
X116318788Y-107349365D01*
X116342937Y-107309954D01*
X118191296Y-105461595D01*
X118245811Y-105433820D01*
X118270996Y-105433078D01*
X118371211Y-105442948D01*
X118395498Y-105445341D01*
X118395500Y-105445341D01*
X118395503Y-105445341D01*
X118591626Y-105426025D01*
X118591627Y-105426024D01*
X118591632Y-105426024D01*
X118780227Y-105368814D01*
X118954038Y-105275910D01*
X119106383Y-105150883D01*
X119231410Y-104998538D01*
X119324314Y-104824727D01*
X119381524Y-104636132D01*
X119385146Y-104599365D01*
X119400841Y-104440003D01*
X119400841Y-104439996D01*
X119381525Y-104243873D01*
X119381524Y-104243870D01*
X119381524Y-104243868D01*
X119324314Y-104055273D01*
X119231410Y-103881462D01*
X119159291Y-103793585D01*
X119106387Y-103729121D01*
X119106378Y-103729112D01*
X118954042Y-103604093D01*
X118954040Y-103604092D01*
X118954038Y-103604090D01*
X118880472Y-103564768D01*
X118780232Y-103511188D01*
X118780230Y-103511187D01*
X118758845Y-103504700D01*
X118591632Y-103453976D01*
X118591629Y-103453975D01*
X118591626Y-103453974D01*
X118395503Y-103434659D01*
X118395497Y-103434659D01*
X118199373Y-103453974D01*
X118199370Y-103453975D01*
X118010769Y-103511187D01*
X118010767Y-103511188D01*
X117836967Y-103604087D01*
X117836957Y-103604093D01*
X117684621Y-103729112D01*
X117684612Y-103729121D01*
X117559593Y-103881457D01*
X117559587Y-103881467D01*
X117466688Y-104055267D01*
X117466687Y-104055269D01*
X117409475Y-104243870D01*
X117409474Y-104243873D01*
X117390159Y-104439996D01*
X117390159Y-104440003D01*
X117409474Y-104636126D01*
X117409475Y-104636129D01*
X117466687Y-104824730D01*
X117466688Y-104824732D01*
X117511733Y-104909006D01*
X117522489Y-104969239D01*
X117495787Y-105024290D01*
X117494427Y-105025678D01*
X115776638Y-106743467D01*
X115722121Y-106771244D01*
X115686052Y-106770300D01*
X115610842Y-106754314D01*
X115541146Y-106739500D01*
X115351854Y-106739500D01*
X115233789Y-106764595D01*
X115166700Y-106778855D01*
X115166694Y-106778857D01*
X114993777Y-106855845D01*
X114993768Y-106855850D01*
X114840629Y-106967111D01*
X114840624Y-106967116D01*
X114713969Y-107107781D01*
X114713965Y-107107787D01*
X114619325Y-107271706D01*
X114619319Y-107271720D01*
X114560827Y-107451738D01*
X114560826Y-107451742D01*
X114560826Y-107451744D01*
X114541040Y-107640000D01*
X114190500Y-107640000D01*
X114190500Y-104890000D01*
X114595040Y-104890000D01*
X114603843Y-104973760D01*
X114614827Y-105078261D01*
X114673319Y-105258279D01*
X114673325Y-105258293D01*
X114737134Y-105368812D01*
X114767967Y-105422216D01*
X114767969Y-105422218D01*
X114891503Y-105559417D01*
X114894629Y-105562888D01*
X115047770Y-105674151D01*
X115220697Y-105751144D01*
X115405854Y-105790500D01*
X115405857Y-105790500D01*
X115595143Y-105790500D01*
X115595146Y-105790500D01*
X115780303Y-105751144D01*
X115953230Y-105674151D01*
X116106371Y-105562888D01*
X116233033Y-105422216D01*
X116315344Y-105279648D01*
X116327674Y-105258293D01*
X116327674Y-105258291D01*
X116327679Y-105258284D01*
X116386174Y-105078256D01*
X116405960Y-104890000D01*
X116386174Y-104701744D01*
X116372789Y-104660550D01*
X116372788Y-104599365D01*
X116396937Y-104559954D01*
X118058818Y-102898072D01*
X118113333Y-102870297D01*
X118157557Y-102873340D01*
X118199368Y-102886024D01*
X118199370Y-102886024D01*
X118199373Y-102886025D01*
X118395497Y-102905341D01*
X118395500Y-102905341D01*
X118395503Y-102905341D01*
X118591626Y-102886025D01*
X118591627Y-102886024D01*
X118591632Y-102886024D01*
X118780227Y-102828814D01*
X118954038Y-102735910D01*
X119106383Y-102610883D01*
X119231410Y-102458538D01*
X119324314Y-102284727D01*
X119381524Y-102096132D01*
X119384865Y-102062218D01*
X119400841Y-101900003D01*
X119400841Y-101899996D01*
X119381525Y-101703873D01*
X119381524Y-101703870D01*
X119381524Y-101703868D01*
X119324314Y-101515273D01*
X119231410Y-101341462D01*
X119216174Y-101322897D01*
X119106387Y-101189121D01*
X119106378Y-101189112D01*
X118954042Y-101064093D01*
X118954040Y-101064092D01*
X118954038Y-101064090D01*
X118894488Y-101032260D01*
X118780232Y-100971188D01*
X118780230Y-100971187D01*
X118758967Y-100964737D01*
X118595908Y-100915273D01*
X118591629Y-100913975D01*
X118591626Y-100913974D01*
X118395503Y-100894659D01*
X118395497Y-100894659D01*
X118199373Y-100913974D01*
X118199370Y-100913975D01*
X118010769Y-100971187D01*
X118010767Y-100971188D01*
X117836967Y-101064087D01*
X117836957Y-101064093D01*
X117684621Y-101189112D01*
X117684612Y-101189121D01*
X117559593Y-101341457D01*
X117559587Y-101341467D01*
X117466688Y-101515267D01*
X117466687Y-101515269D01*
X117409475Y-101703870D01*
X117409474Y-101703873D01*
X117390159Y-101899996D01*
X117390159Y-101900003D01*
X117409474Y-102096126D01*
X117409475Y-102096129D01*
X117416078Y-102117895D01*
X117466379Y-102283718D01*
X117465179Y-102344890D01*
X117441647Y-102382459D01*
X115830639Y-103993467D01*
X115776122Y-104021244D01*
X115740053Y-104020300D01*
X115651330Y-104001442D01*
X115595146Y-103989500D01*
X115405854Y-103989500D01*
X115287789Y-104014595D01*
X115220700Y-104028855D01*
X115220694Y-104028857D01*
X115047777Y-104105845D01*
X115047768Y-104105850D01*
X114894629Y-104217111D01*
X114894624Y-104217116D01*
X114767969Y-104357781D01*
X114767965Y-104357787D01*
X114673325Y-104521706D01*
X114673319Y-104521720D01*
X114614827Y-104701738D01*
X114614826Y-104701742D01*
X114614826Y-104701744D01*
X114595040Y-104890000D01*
X114190500Y-104890000D01*
X114190500Y-101530000D01*
X114510540Y-101530000D01*
X114528814Y-101703873D01*
X114530327Y-101718261D01*
X114588819Y-101898279D01*
X114588825Y-101898293D01*
X114653827Y-102010878D01*
X114683467Y-102062216D01*
X114714004Y-102096131D01*
X114796462Y-102187710D01*
X114810129Y-102202888D01*
X114963270Y-102314151D01*
X115136197Y-102391144D01*
X115321354Y-102430500D01*
X115321357Y-102430500D01*
X115510643Y-102430500D01*
X115510646Y-102430500D01*
X115695803Y-102391144D01*
X115868730Y-102314151D01*
X116021871Y-102202888D01*
X116148533Y-102062216D01*
X116178897Y-102009623D01*
X116196001Y-101980000D01*
X116241470Y-101939059D01*
X116281737Y-101930500D01*
X116288932Y-101930500D01*
X116288933Y-101930500D01*
X116311882Y-101923043D01*
X116326965Y-101919421D01*
X116350804Y-101915646D01*
X116372302Y-101904690D01*
X116386651Y-101898748D01*
X116409590Y-101891296D01*
X116429112Y-101877111D01*
X116442349Y-101869000D01*
X116463842Y-101858050D01*
X116480761Y-101841129D01*
X116480767Y-101841125D01*
X116486406Y-101835485D01*
X116486409Y-101835484D01*
X117985929Y-100335961D01*
X118040444Y-100308186D01*
X118084668Y-100311229D01*
X118199368Y-100346024D01*
X118199370Y-100346024D01*
X118199373Y-100346025D01*
X118395497Y-100365341D01*
X118395500Y-100365341D01*
X118395503Y-100365341D01*
X118591626Y-100346025D01*
X118591627Y-100346024D01*
X118591632Y-100346024D01*
X118780227Y-100288814D01*
X118954038Y-100195910D01*
X119106383Y-100070883D01*
X119231410Y-99918538D01*
X119324314Y-99744727D01*
X119381524Y-99556132D01*
X119386853Y-99502031D01*
X119400841Y-99360003D01*
X119400841Y-99359996D01*
X119381525Y-99163873D01*
X119381524Y-99163870D01*
X119381524Y-99163868D01*
X119324314Y-98975273D01*
X119319867Y-98966954D01*
X119287911Y-98907168D01*
X119231410Y-98801462D01*
X119231406Y-98801457D01*
X119106387Y-98649121D01*
X119106378Y-98649112D01*
X118954042Y-98524093D01*
X118954040Y-98524092D01*
X118954038Y-98524090D01*
X118905706Y-98498256D01*
X118780232Y-98431188D01*
X118780230Y-98431187D01*
X118591629Y-98373975D01*
X118591626Y-98373974D01*
X118395503Y-98354659D01*
X118395497Y-98354659D01*
X118199373Y-98373974D01*
X118199370Y-98373975D01*
X118010769Y-98431187D01*
X118010767Y-98431188D01*
X117836967Y-98524087D01*
X117836957Y-98524093D01*
X117684621Y-98649112D01*
X117684612Y-98649121D01*
X117559593Y-98801457D01*
X117559587Y-98801467D01*
X117466688Y-98975267D01*
X117466687Y-98975269D01*
X117409475Y-99163870D01*
X117409474Y-99163873D01*
X117390159Y-99359996D01*
X117390159Y-99360003D01*
X117409474Y-99556126D01*
X117409475Y-99556132D01*
X117444268Y-99670829D01*
X117443067Y-99732003D01*
X117419535Y-99769571D01*
X116242574Y-100946531D01*
X116188057Y-100974308D01*
X116127625Y-100964737D01*
X116099001Y-100942773D01*
X116021871Y-100857112D01*
X115868730Y-100745849D01*
X115868725Y-100745847D01*
X115868722Y-100745845D01*
X115695805Y-100668857D01*
X115695803Y-100668856D01*
X115695800Y-100668855D01*
X115695799Y-100668855D01*
X115660580Y-100661369D01*
X115510646Y-100629500D01*
X115321354Y-100629500D01*
X115203289Y-100654595D01*
X115136200Y-100668855D01*
X115136194Y-100668857D01*
X114963277Y-100745845D01*
X114963268Y-100745850D01*
X114810129Y-100857111D01*
X114810124Y-100857116D01*
X114683469Y-100997781D01*
X114683465Y-100997787D01*
X114588825Y-101161706D01*
X114588819Y-101161720D01*
X114530327Y-101341738D01*
X114530326Y-101341742D01*
X114530326Y-101341744D01*
X114510540Y-101530000D01*
X114190500Y-101530000D01*
X114190500Y-98310000D01*
X114526540Y-98310000D01*
X114546327Y-98498261D01*
X114604819Y-98678279D01*
X114604825Y-98678293D01*
X114675935Y-98801457D01*
X114699467Y-98842216D01*
X114699469Y-98842218D01*
X114819268Y-98975269D01*
X114826129Y-98982888D01*
X114979270Y-99094151D01*
X115152197Y-99171144D01*
X115337354Y-99210500D01*
X115337357Y-99210500D01*
X115526643Y-99210500D01*
X115526646Y-99210500D01*
X115711803Y-99171144D01*
X115884730Y-99094151D01*
X116037871Y-98982888D01*
X116164533Y-98842216D01*
X116259179Y-98678284D01*
X116317674Y-98498256D01*
X116337460Y-98310000D01*
X116336393Y-98299846D01*
X116349116Y-98239998D01*
X116394586Y-98199058D01*
X116434851Y-98190500D01*
X117488932Y-98190500D01*
X117488933Y-98190500D01*
X117511882Y-98183043D01*
X117526965Y-98179421D01*
X117550804Y-98175646D01*
X117572302Y-98164690D01*
X117586651Y-98158748D01*
X117609590Y-98151296D01*
X117629112Y-98137111D01*
X117642349Y-98129000D01*
X117663842Y-98118050D01*
X117680760Y-98101130D01*
X117680772Y-98101121D01*
X117686409Y-98095484D01*
X117985929Y-97795962D01*
X118040444Y-97768186D01*
X118084669Y-97771229D01*
X118199368Y-97806024D01*
X118199370Y-97806024D01*
X118199373Y-97806025D01*
X118395497Y-97825341D01*
X118395500Y-97825341D01*
X118395503Y-97825341D01*
X118591626Y-97806025D01*
X118591627Y-97806024D01*
X118591632Y-97806024D01*
X118780227Y-97748814D01*
X118954038Y-97655910D01*
X119106383Y-97530883D01*
X119231410Y-97378538D01*
X119324314Y-97204727D01*
X119381524Y-97016132D01*
X119389727Y-96932851D01*
X119400841Y-96820003D01*
X119400841Y-96819996D01*
X119381525Y-96623873D01*
X119381524Y-96623870D01*
X119381524Y-96623868D01*
X119324314Y-96435273D01*
X119316817Y-96421248D01*
X119284349Y-96360504D01*
X119231410Y-96261462D01*
X119160331Y-96174852D01*
X119106387Y-96109121D01*
X119106378Y-96109112D01*
X118954042Y-95984093D01*
X118954040Y-95984092D01*
X118954038Y-95984090D01*
X118913118Y-95962218D01*
X118780232Y-95891188D01*
X118780230Y-95891187D01*
X118591629Y-95833975D01*
X118591626Y-95833974D01*
X118395503Y-95814659D01*
X118395497Y-95814659D01*
X118199373Y-95833974D01*
X118199370Y-95833975D01*
X118010769Y-95891187D01*
X118010767Y-95891188D01*
X117836967Y-95984087D01*
X117836957Y-95984093D01*
X117684621Y-96109112D01*
X117684612Y-96109121D01*
X117559593Y-96261457D01*
X117559587Y-96261467D01*
X117466688Y-96435267D01*
X117466687Y-96435269D01*
X117409475Y-96623870D01*
X117409474Y-96623873D01*
X117390159Y-96819996D01*
X117390159Y-96820003D01*
X117409474Y-97016126D01*
X117409475Y-97016132D01*
X117444269Y-97130829D01*
X117443068Y-97192002D01*
X117419536Y-97229570D01*
X117288604Y-97360503D01*
X117234087Y-97388281D01*
X117218600Y-97389500D01*
X116255433Y-97389500D01*
X116128567Y-97389500D01*
X116128565Y-97389500D01*
X116128562Y-97389501D01*
X116105624Y-97396953D01*
X116090529Y-97400577D01*
X116066701Y-97404352D01*
X116066691Y-97404355D01*
X116045202Y-97415305D01*
X116030852Y-97421249D01*
X116007915Y-97428701D01*
X116007906Y-97428706D01*
X115988385Y-97442887D01*
X115975151Y-97450997D01*
X115953661Y-97461948D01*
X115953660Y-97461948D01*
X115953658Y-97461950D01*
X115936317Y-97479289D01*
X115881801Y-97507064D01*
X115826051Y-97499723D01*
X115717072Y-97451202D01*
X115711803Y-97448856D01*
X115711800Y-97448855D01*
X115711799Y-97448855D01*
X115655328Y-97436852D01*
X115526646Y-97409500D01*
X115337354Y-97409500D01*
X115219289Y-97434595D01*
X115152200Y-97448855D01*
X115152194Y-97448857D01*
X114979277Y-97525845D01*
X114979268Y-97525850D01*
X114826129Y-97637111D01*
X114826124Y-97637116D01*
X114699469Y-97777781D01*
X114699465Y-97777787D01*
X114604825Y-97941706D01*
X114604819Y-97941720D01*
X114546327Y-98121738D01*
X114546326Y-98121742D01*
X114546326Y-98121744D01*
X114540136Y-98180638D01*
X114526540Y-98310000D01*
X114190500Y-98310000D01*
X114190500Y-97836900D01*
X114209407Y-97778709D01*
X114219496Y-97766896D01*
X114766896Y-97219496D01*
X114821413Y-97191719D01*
X114836900Y-97190500D01*
X115713432Y-97190500D01*
X115713433Y-97190500D01*
X115736382Y-97183043D01*
X115751465Y-97179421D01*
X115775304Y-97175646D01*
X115796802Y-97164690D01*
X115811151Y-97158748D01*
X115834090Y-97151296D01*
X115853612Y-97137111D01*
X115866849Y-97129000D01*
X115888342Y-97118050D01*
X115905261Y-97101129D01*
X115905265Y-97101127D01*
X115910906Y-97095485D01*
X115910909Y-97095484D01*
X118475483Y-94530909D01*
X118498050Y-94508342D01*
X118509002Y-94486843D01*
X118517115Y-94473605D01*
X118531296Y-94454090D01*
X118538751Y-94431144D01*
X118544695Y-94416795D01*
X118555646Y-94395304D01*
X118559419Y-94371473D01*
X118563048Y-94356364D01*
X118570498Y-94333435D01*
X118570499Y-94333434D01*
X118570499Y-94303563D01*
X118570500Y-94303538D01*
X118570500Y-93486569D01*
X118570500Y-93486567D01*
X118563041Y-93463611D01*
X118559421Y-93448534D01*
X118555646Y-93424696D01*
X118544693Y-93403201D01*
X118538752Y-93388861D01*
X118531296Y-93365911D01*
X118530412Y-93364694D01*
X118517112Y-93346386D01*
X118508997Y-93333143D01*
X118506885Y-93328998D01*
X118498050Y-93311658D01*
X118498048Y-93311656D01*
X118475486Y-93289093D01*
X117868424Y-92682031D01*
X117848343Y-92661951D01*
X117848342Y-92661950D01*
X117826847Y-92650997D01*
X117813608Y-92642884D01*
X117807581Y-92638505D01*
X117794090Y-92628704D01*
X117794088Y-92628703D01*
X117771142Y-92621247D01*
X117756788Y-92615301D01*
X117735306Y-92604354D01*
X117711474Y-92600579D01*
X117696374Y-92596953D01*
X117673437Y-92589500D01*
X117673433Y-92589500D01*
X117641519Y-92589500D01*
X109486901Y-92589500D01*
X109428710Y-92570593D01*
X109416897Y-92560504D01*
X109110897Y-92254504D01*
X109083120Y-92199987D01*
X109092691Y-92139555D01*
X109135956Y-92096290D01*
X109180901Y-92085500D01*
X109314747Y-92085500D01*
X109314748Y-92085500D01*
X109373231Y-92073867D01*
X109439552Y-92029552D01*
X109483867Y-91963231D01*
X109495500Y-91904748D01*
X109495500Y-89615252D01*
X109483867Y-89556769D01*
X109439552Y-89490448D01*
X109379234Y-89450144D01*
X109373233Y-89446134D01*
X109373231Y-89446133D01*
X109373228Y-89446132D01*
X109373227Y-89446132D01*
X109314758Y-89434501D01*
X109314748Y-89434500D01*
X107025252Y-89434500D01*
X107025251Y-89434500D01*
X107025241Y-89434501D01*
X106966772Y-89446132D01*
X106966766Y-89446134D01*
X106900451Y-89490445D01*
X106900445Y-89490451D01*
X106856134Y-89556766D01*
X106856132Y-89556772D01*
X106844501Y-89615241D01*
X106844500Y-89615253D01*
X106844500Y-91904746D01*
X106844501Y-91904758D01*
X106856132Y-91963227D01*
X106856134Y-91963233D01*
X106900445Y-92029548D01*
X106900448Y-92029552D01*
X106966769Y-92073867D01*
X107011231Y-92082711D01*
X107025241Y-92085498D01*
X107025246Y-92085498D01*
X107025252Y-92085500D01*
X107768101Y-92085500D01*
X107826292Y-92104407D01*
X107838106Y-92114498D01*
X107862031Y-92138424D01*
X109019093Y-93295486D01*
X109035264Y-93311656D01*
X109041658Y-93318050D01*
X109063147Y-93328999D01*
X109076392Y-93337115D01*
X109095910Y-93351296D01*
X109118851Y-93358749D01*
X109133201Y-93364694D01*
X109154691Y-93375644D01*
X109154693Y-93375644D01*
X109154696Y-93375646D01*
X109178517Y-93379418D01*
X109193613Y-93383042D01*
X109216567Y-93390500D01*
X109248481Y-93390500D01*
X117403099Y-93390500D01*
X117461290Y-93409407D01*
X117473103Y-93419496D01*
X117740504Y-93686897D01*
X117768281Y-93741414D01*
X117769500Y-93756901D01*
X117769500Y-94063099D01*
X117750593Y-94121290D01*
X117740504Y-94133103D01*
X115513103Y-96360504D01*
X115458586Y-96388281D01*
X115443099Y-96389500D01*
X114596461Y-96389500D01*
X114596437Y-96389501D01*
X114566563Y-96389501D01*
X114543626Y-96396954D01*
X114528524Y-96400580D01*
X114504693Y-96404354D01*
X114483198Y-96415306D01*
X114468853Y-96421248D01*
X114445911Y-96428703D01*
X114426393Y-96442884D01*
X114413150Y-96450999D01*
X114391658Y-96461950D01*
X114391656Y-96461951D01*
X113484515Y-97369092D01*
X113461950Y-97391658D01*
X113461948Y-97391660D01*
X113450997Y-97413151D01*
X113442887Y-97426385D01*
X113428706Y-97445906D01*
X113428701Y-97445915D01*
X113421249Y-97468852D01*
X113415305Y-97483202D01*
X113404355Y-97504691D01*
X113404352Y-97504701D01*
X113400577Y-97528529D01*
X113396953Y-97543624D01*
X113389501Y-97566562D01*
X113389500Y-97566569D01*
X113389500Y-122757937D01*
X113396953Y-122780874D01*
X113400579Y-122795974D01*
X113404354Y-122819806D01*
X113415301Y-122841288D01*
X113421247Y-122855642D01*
X113428703Y-122878588D01*
X113428702Y-122878588D01*
X113442884Y-122898108D01*
X113450997Y-122911347D01*
X113461950Y-122932842D01*
X113461951Y-122932843D01*
X113482031Y-122952924D01*
X113482032Y-122952924D01*
X113484513Y-122955405D01*
X113484516Y-122955409D01*
X115389107Y-124860000D01*
X117259603Y-126730496D01*
X117287380Y-126785013D01*
X117277809Y-126845445D01*
X117234544Y-126888710D01*
X117189599Y-126899500D01*
X104135221Y-126899500D01*
X104077030Y-126880593D01*
X104047912Y-126847170D01*
X103991410Y-126741462D01*
X103872912Y-126597072D01*
X103850612Y-126540095D01*
X103866060Y-126480892D01*
X103904493Y-126446058D01*
X103905300Y-126445646D01*
X103905304Y-126445646D01*
X103926804Y-126434690D01*
X103941151Y-126428748D01*
X103964090Y-126421296D01*
X103983612Y-126407111D01*
X103996849Y-126399000D01*
X104018342Y-126388050D01*
X104035261Y-126371129D01*
X104035265Y-126371127D01*
X104040907Y-126365485D01*
X104040909Y-126365484D01*
X105405484Y-125000909D01*
X105405485Y-125000907D01*
X105411127Y-124995265D01*
X105411129Y-124995261D01*
X105428050Y-124978342D01*
X105439000Y-124956849D01*
X105447111Y-124943612D01*
X105461296Y-124924090D01*
X105468748Y-124901151D01*
X105474690Y-124886802D01*
X105485646Y-124865304D01*
X105489421Y-124841465D01*
X105493043Y-124826382D01*
X105500500Y-124803433D01*
X105500500Y-124676567D01*
X105500500Y-113972981D01*
X105500500Y-113971130D01*
X105500499Y-113971101D01*
X105500499Y-113941067D01*
X105500498Y-113941065D01*
X105493047Y-113918133D01*
X105489419Y-113903023D01*
X105485646Y-113879197D01*
X105485646Y-113879196D01*
X105474690Y-113857695D01*
X105468750Y-113843352D01*
X105461297Y-113820413D01*
X105461296Y-113820412D01*
X105461296Y-113820410D01*
X105447117Y-113800895D01*
X105439000Y-113787649D01*
X105428050Y-113766158D01*
X105428049Y-113766157D01*
X105338342Y-113676449D01*
X104131463Y-112469570D01*
X104103686Y-112415053D01*
X104106729Y-112370830D01*
X104141524Y-112256132D01*
X104160841Y-112060000D01*
X104160841Y-112059996D01*
X104141525Y-111863873D01*
X104141524Y-111863870D01*
X104141524Y-111863868D01*
X104084314Y-111675273D01*
X103991410Y-111501462D01*
X103924966Y-111420500D01*
X103866387Y-111349121D01*
X103866378Y-111349112D01*
X103714042Y-111224093D01*
X103714040Y-111224092D01*
X103714038Y-111224090D01*
X103655654Y-111192883D01*
X103540232Y-111131188D01*
X103540230Y-111131187D01*
X103351629Y-111073975D01*
X103351626Y-111073974D01*
X103155503Y-111054659D01*
X103155497Y-111054659D01*
X102959373Y-111073974D01*
X102959370Y-111073975D01*
X102770769Y-111131187D01*
X102770767Y-111131188D01*
X102596967Y-111224087D01*
X102596957Y-111224093D01*
X102444621Y-111349112D01*
X102444612Y-111349121D01*
X102319593Y-111501457D01*
X102319587Y-111501467D01*
X102226688Y-111675267D01*
X102226687Y-111675269D01*
X102169475Y-111863870D01*
X102169474Y-111863873D01*
X102150159Y-112059996D01*
X102150159Y-112060003D01*
X102169474Y-112256126D01*
X102169475Y-112256129D01*
X102226687Y-112444730D01*
X102226688Y-112444732D01*
X102275198Y-112535486D01*
X102319590Y-112618538D01*
X102319592Y-112618540D01*
X102319593Y-112618542D01*
X102444612Y-112770878D01*
X102444621Y-112770887D01*
X102596957Y-112895906D01*
X102596962Y-112895910D01*
X102770773Y-112988814D01*
X102959368Y-113046024D01*
X102959370Y-113046024D01*
X102959373Y-113046025D01*
X103155497Y-113065341D01*
X103155500Y-113065341D01*
X103155503Y-113065341D01*
X103351626Y-113046025D01*
X103351627Y-113046024D01*
X103351632Y-113046024D01*
X103466329Y-113011230D01*
X103527500Y-113012431D01*
X103565070Y-113035963D01*
X104670504Y-114141396D01*
X104698281Y-114195913D01*
X104699500Y-114211400D01*
X104699500Y-124533098D01*
X104680593Y-124591289D01*
X104670503Y-124603102D01*
X104317947Y-124955657D01*
X104263431Y-124983434D01*
X104202999Y-124973863D01*
X104159734Y-124930598D01*
X104149421Y-124875949D01*
X104150470Y-124865304D01*
X104160841Y-124760000D01*
X104150992Y-124659999D01*
X104141525Y-124563873D01*
X104141524Y-124563870D01*
X104141524Y-124563868D01*
X104084314Y-124375273D01*
X103991410Y-124201462D01*
X103866678Y-124049476D01*
X103866387Y-124049121D01*
X103866378Y-124049112D01*
X103714042Y-123924093D01*
X103714040Y-123924092D01*
X103714038Y-123924090D01*
X103673118Y-123902218D01*
X103540232Y-123831188D01*
X103540230Y-123831187D01*
X103351629Y-123773975D01*
X103351626Y-123773974D01*
X103155503Y-123754659D01*
X103155497Y-123754659D01*
X102959373Y-123773974D01*
X102959370Y-123773975D01*
X102770769Y-123831187D01*
X102770767Y-123831188D01*
X102596967Y-123924087D01*
X102596957Y-123924093D01*
X102444621Y-124049112D01*
X102444612Y-124049121D01*
X102319593Y-124201457D01*
X102319587Y-124201467D01*
X102226688Y-124375267D01*
X102226687Y-124375269D01*
X102169475Y-124563870D01*
X102169474Y-124563873D01*
X102150159Y-124759996D01*
X102150159Y-124760003D01*
X102169474Y-124956126D01*
X102169475Y-124956129D01*
X102226687Y-125144730D01*
X102226688Y-125144732D01*
X102277860Y-125240467D01*
X102319590Y-125318538D01*
X102319592Y-125318540D01*
X102319593Y-125318542D01*
X102444612Y-125470878D01*
X102444621Y-125470887D01*
X102460565Y-125483972D01*
X102493552Y-125535504D01*
X102489950Y-125596583D01*
X102451135Y-125643880D01*
X102397760Y-125659500D01*
X101623433Y-125659500D01*
X101496567Y-125659500D01*
X101496566Y-125659500D01*
X101496560Y-125659501D01*
X101473624Y-125666953D01*
X101458525Y-125670578D01*
X101434701Y-125674352D01*
X101434695Y-125674354D01*
X101413196Y-125685307D01*
X101398857Y-125691246D01*
X101375914Y-125698702D01*
X101375911Y-125698704D01*
X101356392Y-125712884D01*
X101343156Y-125720995D01*
X101321658Y-125731950D01*
X101299094Y-125754513D01*
X101299092Y-125754515D01*
X101299090Y-125754515D01*
X101299091Y-125754516D01*
X99604224Y-127449381D01*
X99549707Y-127477158D01*
X99489275Y-127467587D01*
X99455220Y-127439041D01*
X99340981Y-127287764D01*
X99176562Y-127137876D01*
X98987401Y-127020753D01*
X98779940Y-126940382D01*
X98779939Y-126940381D01*
X98779937Y-126940381D01*
X98561243Y-126899500D01*
X98338757Y-126899500D01*
X98120062Y-126940381D01*
X98118818Y-126940863D01*
X97912599Y-127020753D01*
X97778363Y-127103868D01*
X97723438Y-127137876D01*
X97559020Y-127287763D01*
X97424943Y-127465309D01*
X97424938Y-127465318D01*
X97325772Y-127664469D01*
X97325771Y-127664472D01*
X97264885Y-127878464D01*
X97244357Y-128100000D01*
X97264885Y-128321536D01*
X97325771Y-128535528D01*
X97424942Y-128734689D01*
X97559019Y-128912236D01*
X97723438Y-129062124D01*
X97912599Y-129179247D01*
X97986263Y-129207784D01*
X98033693Y-129246434D01*
X98049500Y-129300098D01*
X98049500Y-133399900D01*
X98030593Y-133458091D01*
X97986264Y-133492214D01*
X97912604Y-133520750D01*
X97912601Y-133520752D01*
X97723438Y-133637876D01*
X97559020Y-133787763D01*
X97424943Y-133965309D01*
X97424938Y-133965318D01*
X97325772Y-134164469D01*
X97325771Y-134164472D01*
X97264885Y-134378464D01*
X97244357Y-134600000D01*
X95155140Y-134600000D01*
X95134620Y-134378554D01*
X95073760Y-134164652D01*
X94974633Y-133965578D01*
X94974624Y-133965563D01*
X94867590Y-133823829D01*
X94406294Y-134285125D01*
X94403558Y-134279844D01*
X94300362Y-134169348D01*
X94262346Y-134146229D01*
X94725453Y-133683123D01*
X94676260Y-133638277D01*
X94487176Y-133521202D01*
X94279799Y-133440863D01*
X94061196Y-133400000D01*
X93838804Y-133400000D01*
X93620200Y-133440863D01*
X93412821Y-133521202D01*
X93412816Y-133521205D01*
X93223742Y-133638275D01*
X93223739Y-133638277D01*
X93174545Y-133683123D01*
X93637021Y-134145599D01*
X93544261Y-134221066D01*
X93496833Y-134288255D01*
X93032409Y-133823831D01*
X92925369Y-133965573D01*
X92925364Y-133965582D01*
X92826239Y-134164652D01*
X92765379Y-134378554D01*
X92744859Y-134600000D01*
X92014238Y-134600000D01*
X92020987Y-128100000D01*
X92744859Y-128100000D01*
X92765379Y-128321445D01*
X92826239Y-128535347D01*
X92925366Y-128734421D01*
X92925375Y-128734436D01*
X93032407Y-128876168D01*
X93493703Y-128414871D01*
X93496442Y-128420156D01*
X93599638Y-128530652D01*
X93637650Y-128553768D01*
X93174544Y-129016874D01*
X93174545Y-129016876D01*
X93223736Y-129061720D01*
X93412823Y-129178797D01*
X93620200Y-129259136D01*
X93838804Y-129300000D01*
X94061196Y-129300000D01*
X94279799Y-129259136D01*
X94487176Y-129178797D01*
X94676259Y-129061722D01*
X94725453Y-129016875D01*
X94262978Y-128554400D01*
X94355739Y-128478934D01*
X94403166Y-128411744D01*
X94867591Y-128876169D01*
X94974624Y-128734436D01*
X94974633Y-128734421D01*
X95073760Y-128535347D01*
X95134620Y-128321445D01*
X95155140Y-128100000D01*
X95134620Y-127878554D01*
X95073760Y-127664652D01*
X94974633Y-127465578D01*
X94974624Y-127465563D01*
X94867590Y-127323829D01*
X94406294Y-127785125D01*
X94403558Y-127779844D01*
X94300362Y-127669348D01*
X94262346Y-127646229D01*
X94725453Y-127183123D01*
X94676260Y-127138277D01*
X94487176Y-127021202D01*
X94279799Y-126940863D01*
X94061196Y-126900000D01*
X93838804Y-126900000D01*
X93620200Y-126940863D01*
X93412821Y-127021202D01*
X93412816Y-127021205D01*
X93223742Y-127138275D01*
X93223739Y-127138277D01*
X93174545Y-127183123D01*
X93637021Y-127645599D01*
X93544261Y-127721066D01*
X93496833Y-127788255D01*
X93032409Y-127323831D01*
X92925369Y-127465573D01*
X92925364Y-127465582D01*
X92826239Y-127664652D01*
X92765379Y-127878554D01*
X92744859Y-128100000D01*
X92020987Y-128100000D01*
X92026055Y-123219700D01*
X95291000Y-123219700D01*
X95302603Y-123278036D01*
X95346806Y-123344189D01*
X95346810Y-123344193D01*
X95412963Y-123388396D01*
X95471299Y-123399999D01*
X95471303Y-123400000D01*
X96240999Y-123400000D01*
X96241000Y-123399999D01*
X96241000Y-122840764D01*
X96305237Y-122850000D01*
X96376763Y-122850000D01*
X96441000Y-122840764D01*
X96441000Y-123399999D01*
X96441001Y-123400000D01*
X97210697Y-123400000D01*
X97210700Y-123399999D01*
X97269036Y-123388396D01*
X97335189Y-123344193D01*
X97335193Y-123344189D01*
X97379396Y-123278036D01*
X97390999Y-123219700D01*
X97391000Y-123219697D01*
X97391000Y-122450001D01*
X97390999Y-122450000D01*
X96832746Y-122450000D01*
X96841000Y-122421889D01*
X96841000Y-122278111D01*
X96832746Y-122250000D01*
X97390999Y-122250000D01*
X97391000Y-122249999D01*
X97391000Y-122220003D01*
X102150159Y-122220003D01*
X102169474Y-122416126D01*
X102169475Y-122416129D01*
X102226687Y-122604730D01*
X102226688Y-122604732D01*
X102267347Y-122680798D01*
X102319590Y-122778538D01*
X102319592Y-122778540D01*
X102319593Y-122778542D01*
X102444612Y-122930878D01*
X102444621Y-122930887D01*
X102596957Y-123055906D01*
X102596962Y-123055910D01*
X102770773Y-123148814D01*
X102959368Y-123206024D01*
X102959370Y-123206024D01*
X102959373Y-123206025D01*
X103155497Y-123225341D01*
X103155500Y-123225341D01*
X103155503Y-123225341D01*
X103351626Y-123206025D01*
X103351627Y-123206024D01*
X103351632Y-123206024D01*
X103540227Y-123148814D01*
X103714038Y-123055910D01*
X103866383Y-122930883D01*
X103991410Y-122778538D01*
X104084314Y-122604727D01*
X104141524Y-122416132D01*
X104157887Y-122250000D01*
X104160841Y-122220003D01*
X104160841Y-122219996D01*
X104141525Y-122023873D01*
X104141524Y-122023870D01*
X104141524Y-122023868D01*
X104084314Y-121835273D01*
X103991410Y-121661462D01*
X103991406Y-121661457D01*
X103866387Y-121509121D01*
X103866378Y-121509112D01*
X103714042Y-121384093D01*
X103714040Y-121384092D01*
X103714038Y-121384090D01*
X103661130Y-121355810D01*
X103540232Y-121291188D01*
X103540230Y-121291187D01*
X103351629Y-121233975D01*
X103351626Y-121233974D01*
X103155503Y-121214659D01*
X103155497Y-121214659D01*
X102959373Y-121233974D01*
X102959370Y-121233975D01*
X102770769Y-121291187D01*
X102770767Y-121291188D01*
X102596967Y-121384087D01*
X102596957Y-121384093D01*
X102444621Y-121509112D01*
X102444612Y-121509121D01*
X102319593Y-121661457D01*
X102319587Y-121661467D01*
X102226688Y-121835267D01*
X102226687Y-121835269D01*
X102169475Y-122023870D01*
X102169474Y-122023873D01*
X102150159Y-122219996D01*
X102150159Y-122220003D01*
X97391000Y-122220003D01*
X97391000Y-121480302D01*
X97390999Y-121480299D01*
X97379396Y-121421963D01*
X97335193Y-121355810D01*
X97335189Y-121355806D01*
X97269036Y-121311603D01*
X97210700Y-121300000D01*
X96441001Y-121300000D01*
X96441000Y-121300001D01*
X96441000Y-121859235D01*
X96376763Y-121850000D01*
X96305237Y-121850000D01*
X96241000Y-121859235D01*
X96241000Y-121300001D01*
X96240999Y-121300000D01*
X95471299Y-121300000D01*
X95412963Y-121311603D01*
X95346810Y-121355806D01*
X95346806Y-121355810D01*
X95302603Y-121421963D01*
X95291000Y-121480299D01*
X95291000Y-122249999D01*
X95291001Y-122250000D01*
X95849254Y-122250000D01*
X95841000Y-122278111D01*
X95841000Y-122421889D01*
X95849254Y-122450000D01*
X95291001Y-122450000D01*
X95291000Y-122450001D01*
X95291000Y-123219700D01*
X92026055Y-123219700D01*
X92027068Y-122243755D01*
X92037726Y-117394437D01*
X93461500Y-117394437D01*
X93468953Y-117417374D01*
X93472579Y-117432474D01*
X93476354Y-117456306D01*
X93487301Y-117477788D01*
X93493247Y-117492142D01*
X93500703Y-117515088D01*
X93500702Y-117515088D01*
X93514884Y-117534608D01*
X93522997Y-117547847D01*
X93533950Y-117569342D01*
X93533951Y-117569343D01*
X93554031Y-117589424D01*
X93554032Y-117589424D01*
X93556513Y-117591905D01*
X93556516Y-117591909D01*
X94639266Y-118674659D01*
X95324946Y-119360339D01*
X95352723Y-119414856D01*
X95349679Y-119459080D01*
X95305700Y-119604062D01*
X95305698Y-119604070D01*
X95285417Y-119809996D01*
X95285417Y-119810003D01*
X95305698Y-120015929D01*
X95305699Y-120015934D01*
X95365768Y-120213954D01*
X95463316Y-120396452D01*
X95561354Y-120515912D01*
X95594590Y-120556410D01*
X95594595Y-120556414D01*
X95754547Y-120687683D01*
X95754548Y-120687683D01*
X95754550Y-120687685D01*
X95937046Y-120785232D01*
X96074997Y-120827078D01*
X96135065Y-120845300D01*
X96135070Y-120845301D01*
X96340997Y-120865583D01*
X96341000Y-120865583D01*
X96341003Y-120865583D01*
X96546929Y-120845301D01*
X96546934Y-120845300D01*
X96744954Y-120785232D01*
X96927450Y-120687685D01*
X97087410Y-120556410D01*
X97218685Y-120396450D01*
X97316232Y-120213954D01*
X97376300Y-120015934D01*
X97376301Y-120015929D01*
X97396583Y-119810003D01*
X97396583Y-119809996D01*
X97383780Y-119680003D01*
X102150159Y-119680003D01*
X102169474Y-119876126D01*
X102169475Y-119876129D01*
X102226687Y-120064730D01*
X102226688Y-120064732D01*
X102297718Y-120197618D01*
X102319590Y-120238538D01*
X102319592Y-120238540D01*
X102319593Y-120238542D01*
X102444612Y-120390878D01*
X102444621Y-120390887D01*
X102596957Y-120515906D01*
X102596962Y-120515910D01*
X102770773Y-120608814D01*
X102959368Y-120666024D01*
X102959370Y-120666024D01*
X102959373Y-120666025D01*
X103155497Y-120685341D01*
X103155500Y-120685341D01*
X103155503Y-120685341D01*
X103351626Y-120666025D01*
X103351627Y-120666024D01*
X103351632Y-120666024D01*
X103540227Y-120608814D01*
X103714038Y-120515910D01*
X103866383Y-120390883D01*
X103991410Y-120238538D01*
X104084314Y-120064727D01*
X104141524Y-119876132D01*
X104148038Y-119810000D01*
X104160841Y-119680003D01*
X104160841Y-119679996D01*
X104141525Y-119483873D01*
X104141524Y-119483870D01*
X104141524Y-119483868D01*
X104084314Y-119295273D01*
X103991410Y-119121462D01*
X103943920Y-119063595D01*
X103866387Y-118969121D01*
X103866378Y-118969112D01*
X103714042Y-118844093D01*
X103714040Y-118844092D01*
X103714038Y-118844090D01*
X103666497Y-118818679D01*
X103540232Y-118751188D01*
X103540230Y-118751187D01*
X103351629Y-118693975D01*
X103351626Y-118693974D01*
X103155503Y-118674659D01*
X103155497Y-118674659D01*
X102959373Y-118693974D01*
X102959370Y-118693975D01*
X102770769Y-118751187D01*
X102770767Y-118751188D01*
X102596967Y-118844087D01*
X102596957Y-118844093D01*
X102444621Y-118969112D01*
X102444612Y-118969121D01*
X102319593Y-119121457D01*
X102319587Y-119121467D01*
X102226688Y-119295267D01*
X102226687Y-119295269D01*
X102169475Y-119483870D01*
X102169474Y-119483873D01*
X102150159Y-119679996D01*
X102150159Y-119680003D01*
X97383780Y-119680003D01*
X97376301Y-119604070D01*
X97376300Y-119604065D01*
X97339839Y-119483870D01*
X97316232Y-119406046D01*
X97218685Y-119223550D01*
X97087410Y-119063590D01*
X96972288Y-118969112D01*
X96927452Y-118932316D01*
X96744954Y-118834768D01*
X96546934Y-118774699D01*
X96546929Y-118774698D01*
X96341003Y-118754417D01*
X96340997Y-118754417D01*
X96135070Y-118774698D01*
X96135062Y-118774700D01*
X95990080Y-118818679D01*
X95928907Y-118817478D01*
X95891339Y-118793946D01*
X94367396Y-117270003D01*
X95285417Y-117270003D01*
X95305698Y-117475929D01*
X95305699Y-117475934D01*
X95365768Y-117673954D01*
X95463316Y-117856452D01*
X95561354Y-117975912D01*
X95594590Y-118016410D01*
X95594595Y-118016414D01*
X95754547Y-118147683D01*
X95754548Y-118147683D01*
X95754550Y-118147685D01*
X95937046Y-118245232D01*
X96074997Y-118287078D01*
X96135065Y-118305300D01*
X96135070Y-118305301D01*
X96340997Y-118325583D01*
X96341000Y-118325583D01*
X96341003Y-118325583D01*
X96546929Y-118305301D01*
X96546934Y-118305300D01*
X96744954Y-118245232D01*
X96927450Y-118147685D01*
X97087410Y-118016410D01*
X97218685Y-117856450D01*
X97290106Y-117722830D01*
X97334212Y-117680425D01*
X97377416Y-117670500D01*
X102249756Y-117670500D01*
X102307947Y-117689407D01*
X102326284Y-117706695D01*
X102444612Y-117850878D01*
X102444621Y-117850887D01*
X102596957Y-117975906D01*
X102596962Y-117975910D01*
X102770773Y-118068814D01*
X102959368Y-118126024D01*
X102959370Y-118126024D01*
X102959373Y-118126025D01*
X103155497Y-118145341D01*
X103155500Y-118145341D01*
X103155503Y-118145341D01*
X103351626Y-118126025D01*
X103351627Y-118126024D01*
X103351632Y-118126024D01*
X103540227Y-118068814D01*
X103714038Y-117975910D01*
X103866383Y-117850883D01*
X103991410Y-117698538D01*
X104084314Y-117524727D01*
X104141524Y-117336132D01*
X104148038Y-117270000D01*
X104160841Y-117140003D01*
X104160841Y-117139996D01*
X104141525Y-116943873D01*
X104141524Y-116943870D01*
X104141524Y-116943868D01*
X104084314Y-116755273D01*
X103991410Y-116581462D01*
X103943920Y-116523595D01*
X103866387Y-116429121D01*
X103866378Y-116429112D01*
X103714042Y-116304093D01*
X103714040Y-116304092D01*
X103714038Y-116304090D01*
X103584219Y-116234700D01*
X103540232Y-116211188D01*
X103540230Y-116211187D01*
X103351629Y-116153975D01*
X103351626Y-116153974D01*
X103155503Y-116134659D01*
X103155497Y-116134659D01*
X102959373Y-116153974D01*
X102959370Y-116153975D01*
X102770769Y-116211187D01*
X102770767Y-116211188D01*
X102596967Y-116304087D01*
X102596957Y-116304093D01*
X102444621Y-116429112D01*
X102444612Y-116429121D01*
X102319593Y-116581457D01*
X102319587Y-116581467D01*
X102226690Y-116755264D01*
X102226685Y-116755276D01*
X102213349Y-116799239D01*
X102178364Y-116849435D01*
X102120555Y-116869481D01*
X102118612Y-116869500D01*
X97377416Y-116869500D01*
X97319225Y-116850593D01*
X97290106Y-116817169D01*
X97280522Y-116799239D01*
X97218685Y-116683550D01*
X97087410Y-116523590D01*
X96972288Y-116429112D01*
X96927452Y-116392316D01*
X96744954Y-116294768D01*
X96546934Y-116234699D01*
X96546929Y-116234698D01*
X96341003Y-116214417D01*
X96340997Y-116214417D01*
X96135070Y-116234698D01*
X96135065Y-116234699D01*
X95937045Y-116294768D01*
X95754547Y-116392316D01*
X95594595Y-116523585D01*
X95594585Y-116523595D01*
X95463316Y-116683547D01*
X95365768Y-116866045D01*
X95305699Y-117064065D01*
X95305698Y-117064070D01*
X95285417Y-117269996D01*
X95285417Y-117270003D01*
X94367396Y-117270003D01*
X94291496Y-117194103D01*
X94263719Y-117139586D01*
X94262500Y-117124099D01*
X94262500Y-114730003D01*
X95285417Y-114730003D01*
X95305698Y-114935929D01*
X95305699Y-114935934D01*
X95365768Y-115133954D01*
X95463316Y-115316452D01*
X95561354Y-115435912D01*
X95594590Y-115476410D01*
X95594595Y-115476414D01*
X95754547Y-115607683D01*
X95754548Y-115607683D01*
X95754550Y-115607685D01*
X95937046Y-115705232D01*
X96074997Y-115747078D01*
X96135065Y-115765300D01*
X96135070Y-115765301D01*
X96340997Y-115785583D01*
X96341000Y-115785583D01*
X96341003Y-115785583D01*
X96546929Y-115765301D01*
X96546934Y-115765300D01*
X96744954Y-115705232D01*
X96927450Y-115607685D01*
X97087410Y-115476410D01*
X97218685Y-115316450D01*
X97290106Y-115182830D01*
X97334212Y-115140425D01*
X97377416Y-115130500D01*
X102249756Y-115130500D01*
X102307947Y-115149407D01*
X102326284Y-115166695D01*
X102444612Y-115310878D01*
X102444621Y-115310887D01*
X102596957Y-115435906D01*
X102596962Y-115435910D01*
X102770773Y-115528814D01*
X102959368Y-115586024D01*
X102959370Y-115586024D01*
X102959373Y-115586025D01*
X103155497Y-115605341D01*
X103155500Y-115605341D01*
X103155503Y-115605341D01*
X103351626Y-115586025D01*
X103351627Y-115586024D01*
X103351632Y-115586024D01*
X103540227Y-115528814D01*
X103714038Y-115435910D01*
X103866383Y-115310883D01*
X103991410Y-115158538D01*
X104084314Y-114984727D01*
X104141524Y-114796132D01*
X104148038Y-114730000D01*
X104160841Y-114600003D01*
X104160841Y-114599996D01*
X104141525Y-114403873D01*
X104141524Y-114403870D01*
X104141524Y-114403868D01*
X104084314Y-114215273D01*
X103991410Y-114041462D01*
X103943920Y-113983595D01*
X103866387Y-113889121D01*
X103866378Y-113889112D01*
X103714042Y-113764093D01*
X103714040Y-113764092D01*
X103714038Y-113764090D01*
X103584219Y-113694700D01*
X103540232Y-113671188D01*
X103540230Y-113671187D01*
X103351629Y-113613975D01*
X103351626Y-113613974D01*
X103155503Y-113594659D01*
X103155497Y-113594659D01*
X102959373Y-113613974D01*
X102959370Y-113613975D01*
X102770769Y-113671187D01*
X102770767Y-113671188D01*
X102596967Y-113764087D01*
X102596957Y-113764093D01*
X102444621Y-113889112D01*
X102444612Y-113889121D01*
X102319593Y-114041457D01*
X102319587Y-114041467D01*
X102226690Y-114215264D01*
X102226685Y-114215276D01*
X102213349Y-114259239D01*
X102178364Y-114309435D01*
X102120555Y-114329481D01*
X102118612Y-114329500D01*
X97377416Y-114329500D01*
X97319225Y-114310593D01*
X97290106Y-114277169D01*
X97280522Y-114259239D01*
X97218685Y-114143550D01*
X97216917Y-114141396D01*
X97087414Y-113983595D01*
X97087410Y-113983590D01*
X97074474Y-113972974D01*
X96927452Y-113852316D01*
X96744954Y-113754768D01*
X96546934Y-113694699D01*
X96546929Y-113694698D01*
X96341003Y-113674417D01*
X96340997Y-113674417D01*
X96135070Y-113694698D01*
X96135065Y-113694699D01*
X95937045Y-113754768D01*
X95754547Y-113852316D01*
X95594595Y-113983585D01*
X95594585Y-113983595D01*
X95463316Y-114143547D01*
X95365768Y-114326045D01*
X95305699Y-114524065D01*
X95305698Y-114524070D01*
X95285417Y-114729996D01*
X95285417Y-114730003D01*
X94262500Y-114730003D01*
X94262500Y-110489746D01*
X95210000Y-110489746D01*
X95210001Y-110489758D01*
X95221632Y-110548227D01*
X95221634Y-110548233D01*
X95260980Y-110607117D01*
X95265948Y-110614552D01*
X95332269Y-110658867D01*
X95376731Y-110667711D01*
X95390741Y-110670498D01*
X95390746Y-110670498D01*
X95390752Y-110670500D01*
X95390753Y-110670500D01*
X97130247Y-110670500D01*
X97130248Y-110670500D01*
X97170959Y-110662401D01*
X97190273Y-110660500D01*
X102478932Y-110660500D01*
X102478933Y-110660500D01*
X102501882Y-110653043D01*
X102516965Y-110649421D01*
X102540804Y-110645646D01*
X102562302Y-110634690D01*
X102576651Y-110628748D01*
X102599590Y-110621296D01*
X102619112Y-110607111D01*
X102632349Y-110599000D01*
X102653842Y-110588050D01*
X102676405Y-110565486D01*
X102676409Y-110565484D01*
X102745930Y-110495961D01*
X102800443Y-110468186D01*
X102844669Y-110471229D01*
X102959368Y-110506024D01*
X102959370Y-110506024D01*
X102959373Y-110506025D01*
X103155497Y-110525341D01*
X103155500Y-110525341D01*
X103155503Y-110525341D01*
X103351626Y-110506025D01*
X103351627Y-110506024D01*
X103351632Y-110506024D01*
X103466329Y-110471230D01*
X103527500Y-110472431D01*
X103565070Y-110495963D01*
X105604593Y-112535486D01*
X105627156Y-112558048D01*
X105627158Y-112558050D01*
X105648645Y-112568998D01*
X105661886Y-112577112D01*
X105681408Y-112591294D01*
X105681409Y-112591294D01*
X105681411Y-112591296D01*
X105704361Y-112598752D01*
X105718701Y-112604693D01*
X105740196Y-112615646D01*
X105764034Y-112619421D01*
X105779111Y-112623041D01*
X105802067Y-112630500D01*
X105802070Y-112630500D01*
X108855432Y-112630500D01*
X108855433Y-112630500D01*
X108878382Y-112623043D01*
X108893465Y-112619421D01*
X108917304Y-112615646D01*
X108938802Y-112604690D01*
X108953151Y-112598748D01*
X108976090Y-112591296D01*
X108995612Y-112577111D01*
X109008849Y-112569000D01*
X109030342Y-112558050D01*
X109047261Y-112541129D01*
X109047265Y-112541127D01*
X109052906Y-112535485D01*
X109052909Y-112535484D01*
X112427483Y-109160909D01*
X112450050Y-109138342D01*
X112461002Y-109116843D01*
X112469115Y-109103605D01*
X112483296Y-109084090D01*
X112490751Y-109061142D01*
X112496690Y-109046802D01*
X112507646Y-109025304D01*
X112511421Y-109001465D01*
X112515043Y-108986382D01*
X112522500Y-108963433D01*
X112522500Y-108836567D01*
X112522500Y-98349308D01*
X112523719Y-98333820D01*
X112527492Y-98309999D01*
X112523719Y-98286177D01*
X112522500Y-98270690D01*
X112522500Y-97804899D01*
X112541407Y-97746708D01*
X112551490Y-97734901D01*
X114884163Y-95402227D01*
X114938678Y-95374452D01*
X114994431Y-95381791D01*
X115150197Y-95451144D01*
X115335354Y-95490500D01*
X115335357Y-95490500D01*
X115524643Y-95490500D01*
X115524646Y-95490500D01*
X115709803Y-95451144D01*
X115882730Y-95374151D01*
X116035871Y-95262888D01*
X116162533Y-95122216D01*
X116257179Y-94958284D01*
X116315674Y-94778256D01*
X116335460Y-94590000D01*
X116315674Y-94401744D01*
X116257179Y-94221716D01*
X116257176Y-94221711D01*
X116257174Y-94221706D01*
X116199198Y-94121290D01*
X116162533Y-94057784D01*
X116035871Y-93917112D01*
X115882730Y-93805849D01*
X115882725Y-93805847D01*
X115882722Y-93805845D01*
X115709805Y-93728857D01*
X115709803Y-93728856D01*
X115709800Y-93728855D01*
X115709799Y-93728855D01*
X115648816Y-93715893D01*
X115524646Y-93689500D01*
X115335354Y-93689500D01*
X115217289Y-93714595D01*
X115150200Y-93728855D01*
X115150194Y-93728857D01*
X114977277Y-93805845D01*
X114977268Y-93805850D01*
X114824129Y-93917111D01*
X114824124Y-93917116D01*
X114697469Y-94057781D01*
X114697465Y-94057787D01*
X114602825Y-94221706D01*
X114602819Y-94221720D01*
X114544327Y-94401738D01*
X114544326Y-94401742D01*
X114544326Y-94401744D01*
X114530918Y-94529315D01*
X114523998Y-94595159D01*
X114522291Y-94594979D01*
X114505633Y-94646250D01*
X114495544Y-94658063D01*
X111816515Y-97337092D01*
X111793950Y-97359658D01*
X111793948Y-97359660D01*
X111782997Y-97381151D01*
X111774887Y-97394385D01*
X111760706Y-97413906D01*
X111760701Y-97413915D01*
X111753249Y-97436852D01*
X111747305Y-97451202D01*
X111736355Y-97472691D01*
X111736352Y-97472701D01*
X111732577Y-97496529D01*
X111728953Y-97511624D01*
X111721501Y-97534562D01*
X111721500Y-97534569D01*
X111721500Y-97810500D01*
X111702593Y-97868691D01*
X111653093Y-97904655D01*
X111622500Y-97909500D01*
X108677737Y-97909500D01*
X108619546Y-97890593D01*
X108592001Y-97860000D01*
X108568177Y-97818738D01*
X108544533Y-97777784D01*
X108434797Y-97655910D01*
X108417875Y-97637116D01*
X108417870Y-97637111D01*
X108289195Y-97543624D01*
X108264730Y-97525849D01*
X108264725Y-97525847D01*
X108264722Y-97525845D01*
X108097072Y-97451202D01*
X108091803Y-97448856D01*
X108091800Y-97448855D01*
X108091799Y-97448855D01*
X108035328Y-97436852D01*
X107906646Y-97409500D01*
X107717354Y-97409500D01*
X107599289Y-97434595D01*
X107532200Y-97448855D01*
X107532194Y-97448857D01*
X107359277Y-97525845D01*
X107359268Y-97525850D01*
X107206129Y-97637111D01*
X107206124Y-97637116D01*
X107079469Y-97777781D01*
X107079465Y-97777787D01*
X106984825Y-97941706D01*
X106984819Y-97941720D01*
X106926327Y-98121738D01*
X106926326Y-98121742D01*
X106926326Y-98121744D01*
X106920136Y-98180638D01*
X106906540Y-98310000D01*
X106926327Y-98498261D01*
X106984819Y-98678279D01*
X106984825Y-98678293D01*
X107055935Y-98801457D01*
X107079467Y-98842216D01*
X107079469Y-98842218D01*
X107199268Y-98975269D01*
X107206129Y-98982888D01*
X107359270Y-99094151D01*
X107532197Y-99171144D01*
X107717354Y-99210500D01*
X107717357Y-99210500D01*
X107906643Y-99210500D01*
X107906646Y-99210500D01*
X108091803Y-99171144D01*
X108264730Y-99094151D01*
X108417871Y-98982888D01*
X108544533Y-98842216D01*
X108574897Y-98789623D01*
X108592001Y-98760000D01*
X108637470Y-98719059D01*
X108677737Y-98710500D01*
X111622500Y-98710500D01*
X111680691Y-98729407D01*
X111716655Y-98778907D01*
X111721500Y-98809500D01*
X111721500Y-108693099D01*
X111702593Y-108751290D01*
X111692504Y-108763103D01*
X108655103Y-111800504D01*
X108600586Y-111828281D01*
X108585099Y-111829500D01*
X106072401Y-111829500D01*
X106014210Y-111810593D01*
X106002397Y-111800504D01*
X104131463Y-109929570D01*
X104103686Y-109875053D01*
X104106729Y-109830830D01*
X104141524Y-109716132D01*
X104142170Y-109709580D01*
X104160841Y-109520003D01*
X104160841Y-109519996D01*
X104141525Y-109323873D01*
X104141524Y-109323870D01*
X104141524Y-109323868D01*
X104084314Y-109135273D01*
X103991410Y-108961462D01*
X103888911Y-108836567D01*
X103866387Y-108809121D01*
X103866378Y-108809112D01*
X103714042Y-108684093D01*
X103714040Y-108684092D01*
X103714038Y-108684090D01*
X103625769Y-108636909D01*
X103540232Y-108591188D01*
X103540230Y-108591187D01*
X103507083Y-108581132D01*
X103351632Y-108533976D01*
X103351629Y-108533975D01*
X103351626Y-108533974D01*
X103155503Y-108514659D01*
X103155497Y-108514659D01*
X102959373Y-108533974D01*
X102959370Y-108533975D01*
X102770769Y-108591187D01*
X102770767Y-108591188D01*
X102596967Y-108684087D01*
X102596957Y-108684093D01*
X102444621Y-108809112D01*
X102444612Y-108809121D01*
X102319593Y-108961457D01*
X102319587Y-108961467D01*
X102226688Y-109135267D01*
X102226687Y-109135269D01*
X102169475Y-109323870D01*
X102169474Y-109323873D01*
X102150159Y-109519996D01*
X102150159Y-109520003D01*
X102169474Y-109716126D01*
X102169475Y-109716132D01*
X102174217Y-109731762D01*
X102173016Y-109792936D01*
X102136087Y-109841720D01*
X102079480Y-109859500D01*
X97410000Y-109859500D01*
X97351809Y-109840593D01*
X97315845Y-109791093D01*
X97311000Y-109760500D01*
X97311000Y-108750253D01*
X97310998Y-108750241D01*
X97307789Y-108734107D01*
X97299367Y-108691769D01*
X97255052Y-108625448D01*
X97238428Y-108614340D01*
X97188733Y-108581134D01*
X97188731Y-108581133D01*
X97188728Y-108581132D01*
X97188727Y-108581132D01*
X97130258Y-108569501D01*
X97130248Y-108569500D01*
X95390752Y-108569500D01*
X95390751Y-108569500D01*
X95390741Y-108569501D01*
X95332272Y-108581132D01*
X95332266Y-108581134D01*
X95265951Y-108625445D01*
X95265945Y-108625451D01*
X95221634Y-108691766D01*
X95221632Y-108691772D01*
X95210001Y-108750241D01*
X95210000Y-108750253D01*
X95210000Y-110489746D01*
X94262500Y-110489746D01*
X94262500Y-107080003D01*
X95204917Y-107080003D01*
X95225198Y-107285929D01*
X95225199Y-107285934D01*
X95285268Y-107483954D01*
X95382816Y-107666452D01*
X95514085Y-107826404D01*
X95514090Y-107826410D01*
X95543338Y-107850413D01*
X95674047Y-107957683D01*
X95674048Y-107957683D01*
X95674050Y-107957685D01*
X95856546Y-108055232D01*
X95994497Y-108097078D01*
X96054565Y-108115300D01*
X96054570Y-108115301D01*
X96260497Y-108135583D01*
X96260500Y-108135583D01*
X96260503Y-108135583D01*
X96466429Y-108115301D01*
X96466434Y-108115300D01*
X96664454Y-108055232D01*
X96846950Y-107957685D01*
X97006910Y-107826410D01*
X97138185Y-107666450D01*
X97193571Y-107562830D01*
X97237677Y-107520425D01*
X97280881Y-107510500D01*
X102249756Y-107510500D01*
X102307947Y-107529407D01*
X102326284Y-107546695D01*
X102444612Y-107690878D01*
X102444621Y-107690887D01*
X102596957Y-107815906D01*
X102596962Y-107815910D01*
X102770773Y-107908814D01*
X102959368Y-107966024D01*
X102959370Y-107966024D01*
X102959373Y-107966025D01*
X103155497Y-107985341D01*
X103155500Y-107985341D01*
X103155503Y-107985341D01*
X103351626Y-107966025D01*
X103351627Y-107966024D01*
X103351632Y-107966024D01*
X103540227Y-107908814D01*
X103714038Y-107815910D01*
X103866383Y-107690883D01*
X103991410Y-107538538D01*
X104084314Y-107364727D01*
X104141524Y-107176132D01*
X104148256Y-107107787D01*
X104160841Y-106980003D01*
X104160841Y-106979996D01*
X104141525Y-106783873D01*
X104141524Y-106783871D01*
X104141524Y-106783870D01*
X104141524Y-106783868D01*
X104106730Y-106669169D01*
X104107931Y-106607997D01*
X104131461Y-106570430D01*
X107054396Y-103647496D01*
X107108913Y-103619719D01*
X107124400Y-103618500D01*
X107296500Y-103618500D01*
X107354691Y-103637407D01*
X107390655Y-103686907D01*
X107395500Y-103717500D01*
X107395500Y-104078850D01*
X107376593Y-104137041D01*
X107354692Y-104158942D01*
X107274626Y-104217113D01*
X107274624Y-104217116D01*
X107147969Y-104357781D01*
X107147965Y-104357787D01*
X107053325Y-104521706D01*
X107053319Y-104521720D01*
X106994827Y-104701738D01*
X106994826Y-104701742D01*
X106994826Y-104701744D01*
X106975040Y-104890000D01*
X106983843Y-104973760D01*
X106994827Y-105078261D01*
X107053319Y-105258279D01*
X107053325Y-105258293D01*
X107117134Y-105368812D01*
X107147967Y-105422216D01*
X107147969Y-105422218D01*
X107271503Y-105559417D01*
X107274629Y-105562888D01*
X107427770Y-105674151D01*
X107600697Y-105751144D01*
X107785854Y-105790500D01*
X107785857Y-105790500D01*
X107975143Y-105790500D01*
X107975146Y-105790500D01*
X108160303Y-105751144D01*
X108333230Y-105674151D01*
X108486371Y-105562888D01*
X108613033Y-105422216D01*
X108695344Y-105279648D01*
X108707674Y-105258293D01*
X108707674Y-105258291D01*
X108707679Y-105258284D01*
X108766174Y-105078256D01*
X108785960Y-104890000D01*
X108766174Y-104701744D01*
X108707679Y-104521716D01*
X108707676Y-104521711D01*
X108707674Y-104521706D01*
X108659051Y-104437490D01*
X108613033Y-104357784D01*
X108510464Y-104243870D01*
X108486375Y-104217116D01*
X108486370Y-104217111D01*
X108333231Y-104105850D01*
X108333232Y-104105850D01*
X108333230Y-104105849D01*
X108310496Y-104095727D01*
X108255232Y-104071121D01*
X108209763Y-104030179D01*
X108196500Y-103980680D01*
X108196500Y-103257308D01*
X108197719Y-103241820D01*
X108201492Y-103217999D01*
X108197719Y-103194177D01*
X108196500Y-103178690D01*
X108196500Y-102401463D01*
X108215407Y-102343272D01*
X108246002Y-102315725D01*
X108248717Y-102314156D01*
X108248730Y-102314151D01*
X108401871Y-102202888D01*
X108528533Y-102062216D01*
X108623179Y-101898284D01*
X108681674Y-101718256D01*
X108701460Y-101530000D01*
X108681674Y-101341744D01*
X108623179Y-101161716D01*
X108623176Y-101161711D01*
X108623174Y-101161706D01*
X108564853Y-101060693D01*
X108528533Y-100997784D01*
X108483399Y-100947658D01*
X108428775Y-100886991D01*
X108417647Y-100861998D01*
X108396594Y-100853278D01*
X108248731Y-100745850D01*
X108248732Y-100745850D01*
X108248730Y-100745849D01*
X108248725Y-100745847D01*
X108248722Y-100745845D01*
X108075805Y-100668857D01*
X108075803Y-100668856D01*
X108075800Y-100668855D01*
X108075799Y-100668855D01*
X108040580Y-100661369D01*
X107890646Y-100629500D01*
X107701354Y-100629500D01*
X107583289Y-100654595D01*
X107516200Y-100668855D01*
X107516194Y-100668857D01*
X107343277Y-100745845D01*
X107343268Y-100745850D01*
X107190129Y-100857111D01*
X107190124Y-100857116D01*
X107063469Y-100997781D01*
X107063465Y-100997787D01*
X106968825Y-101161706D01*
X106968819Y-101161720D01*
X106910327Y-101341738D01*
X106910326Y-101341742D01*
X106910326Y-101341744D01*
X106890540Y-101530000D01*
X106908814Y-101703873D01*
X106910327Y-101718261D01*
X106968819Y-101898279D01*
X106968825Y-101898293D01*
X107033827Y-102010878D01*
X107063467Y-102062216D01*
X107094004Y-102096131D01*
X107176462Y-102187710D01*
X107190129Y-102202888D01*
X107343270Y-102314151D01*
X107343278Y-102314154D01*
X107345998Y-102315725D01*
X107347059Y-102316904D01*
X107347467Y-102317200D01*
X107347404Y-102317286D01*
X107386940Y-102361194D01*
X107395500Y-102401463D01*
X107395500Y-102718500D01*
X107376593Y-102776691D01*
X107327093Y-102812655D01*
X107296500Y-102817500D01*
X106883961Y-102817500D01*
X106883937Y-102817501D01*
X106854063Y-102817501D01*
X106831126Y-102824954D01*
X106816024Y-102828580D01*
X106792193Y-102832354D01*
X106770698Y-102843306D01*
X106756353Y-102849248D01*
X106733411Y-102856703D01*
X106713893Y-102870884D01*
X106700650Y-102878999D01*
X106679158Y-102889950D01*
X106679156Y-102889951D01*
X106656590Y-102912517D01*
X103565070Y-106004035D01*
X103510553Y-106031812D01*
X103466328Y-106028768D01*
X103351632Y-105993975D01*
X103351626Y-105993974D01*
X103155503Y-105974659D01*
X103155497Y-105974659D01*
X102959373Y-105993974D01*
X102959370Y-105993975D01*
X102770769Y-106051187D01*
X102770767Y-106051188D01*
X102596967Y-106144087D01*
X102596957Y-106144093D01*
X102444621Y-106269112D01*
X102444612Y-106269121D01*
X102319593Y-106421457D01*
X102319587Y-106421467D01*
X102226690Y-106595264D01*
X102226685Y-106595276D01*
X102213349Y-106639239D01*
X102178364Y-106689435D01*
X102120555Y-106709481D01*
X102118612Y-106709500D01*
X97312952Y-106709500D01*
X97254761Y-106690593D01*
X97225642Y-106657169D01*
X97192559Y-106595276D01*
X97138185Y-106493550D01*
X97079028Y-106421467D01*
X97006914Y-106333595D01*
X97006910Y-106333590D01*
X96928343Y-106269112D01*
X96846952Y-106202316D01*
X96664454Y-106104768D01*
X96466434Y-106044699D01*
X96466429Y-106044698D01*
X96260503Y-106024417D01*
X96260497Y-106024417D01*
X96054570Y-106044698D01*
X96054565Y-106044699D01*
X95856545Y-106104768D01*
X95674047Y-106202316D01*
X95514095Y-106333585D01*
X95514085Y-106333595D01*
X95382816Y-106493547D01*
X95285268Y-106676045D01*
X95225199Y-106874065D01*
X95225198Y-106874070D01*
X95204917Y-107079996D01*
X95204917Y-107080003D01*
X94262500Y-107080003D01*
X94262500Y-104540003D01*
X95204917Y-104540003D01*
X95225198Y-104745929D01*
X95225199Y-104745934D01*
X95285268Y-104943954D01*
X95382816Y-105126452D01*
X95514085Y-105286404D01*
X95514090Y-105286410D01*
X95514095Y-105286414D01*
X95674047Y-105417683D01*
X95674048Y-105417683D01*
X95674050Y-105417685D01*
X95856546Y-105515232D01*
X95953674Y-105544695D01*
X96054565Y-105575300D01*
X96054570Y-105575301D01*
X96260497Y-105595583D01*
X96260500Y-105595583D01*
X96260503Y-105595583D01*
X96466429Y-105575301D01*
X96466434Y-105575300D01*
X96632836Y-105524823D01*
X96694007Y-105526024D01*
X96706323Y-105531267D01*
X96706407Y-105531294D01*
X96706411Y-105531297D01*
X96729361Y-105538753D01*
X96743703Y-105544694D01*
X96765196Y-105555646D01*
X96789034Y-105559421D01*
X96804108Y-105563040D01*
X96827067Y-105570500D01*
X96827070Y-105570500D01*
X102488932Y-105570500D01*
X102488933Y-105570500D01*
X102511882Y-105563043D01*
X102526965Y-105559421D01*
X102550804Y-105555646D01*
X102572302Y-105544690D01*
X102586651Y-105538748D01*
X102609590Y-105531296D01*
X102629112Y-105517111D01*
X102642349Y-105509000D01*
X102663842Y-105498050D01*
X102680763Y-105481127D01*
X102680768Y-105481124D01*
X102686406Y-105475485D01*
X102686409Y-105475484D01*
X102745928Y-105415963D01*
X102800442Y-105388186D01*
X102844669Y-105391229D01*
X102959368Y-105426024D01*
X102959370Y-105426024D01*
X102959373Y-105426025D01*
X103155497Y-105445341D01*
X103155500Y-105445341D01*
X103155503Y-105445341D01*
X103351626Y-105426025D01*
X103351627Y-105426024D01*
X103351632Y-105426024D01*
X103540227Y-105368814D01*
X103714038Y-105275910D01*
X103866383Y-105150883D01*
X103991410Y-104998538D01*
X104084314Y-104824727D01*
X104141524Y-104636132D01*
X104145146Y-104599365D01*
X104160841Y-104440003D01*
X104160841Y-104439996D01*
X104141525Y-104243873D01*
X104141524Y-104243870D01*
X104141524Y-104243868D01*
X104084314Y-104055273D01*
X104078808Y-104044972D01*
X103991417Y-103881473D01*
X103991412Y-103881466D01*
X103991410Y-103881462D01*
X103946245Y-103826429D01*
X103923946Y-103769453D01*
X103939395Y-103710250D01*
X103952765Y-103693626D01*
X107406897Y-100239496D01*
X107461414Y-100211719D01*
X107476901Y-100210500D01*
X107991099Y-100210500D01*
X108049290Y-100229407D01*
X108061103Y-100239496D01*
X108524788Y-100703181D01*
X108540099Y-100733232D01*
X108572350Y-100750743D01*
X109144504Y-101322897D01*
X109172281Y-101377414D01*
X109173500Y-101392901D01*
X109173500Y-108169099D01*
X109154593Y-108227290D01*
X109144504Y-108239103D01*
X108753103Y-108630504D01*
X108698586Y-108658281D01*
X108683099Y-108659500D01*
X108230000Y-108659500D01*
X108171809Y-108640593D01*
X108135845Y-108591093D01*
X108131000Y-108560500D01*
X108131000Y-108554439D01*
X108149907Y-108496248D01*
X108189733Y-108463998D01*
X108244906Y-108439433D01*
X108279230Y-108424151D01*
X108432371Y-108312888D01*
X108559033Y-108172216D01*
X108653679Y-108008284D01*
X108712174Y-107828256D01*
X108731960Y-107640000D01*
X108712174Y-107451744D01*
X108653679Y-107271716D01*
X108653676Y-107271711D01*
X108653674Y-107271706D01*
X108598490Y-107176126D01*
X108559033Y-107107784D01*
X108443978Y-106980003D01*
X108432375Y-106967116D01*
X108432370Y-106967111D01*
X108304309Y-106874070D01*
X108279230Y-106855849D01*
X108279225Y-106855847D01*
X108279222Y-106855845D01*
X108106305Y-106778857D01*
X108106303Y-106778856D01*
X108106300Y-106778855D01*
X108106299Y-106778855D01*
X108066050Y-106770300D01*
X107921146Y-106739500D01*
X107731854Y-106739500D01*
X107613789Y-106764595D01*
X107546700Y-106778855D01*
X107546694Y-106778857D01*
X107373777Y-106855845D01*
X107373768Y-106855850D01*
X107220629Y-106967111D01*
X107220624Y-106967116D01*
X107093969Y-107107781D01*
X107093965Y-107107787D01*
X106999325Y-107271706D01*
X106999319Y-107271720D01*
X106940827Y-107451738D01*
X106940826Y-107451742D01*
X106940826Y-107451744D01*
X106921040Y-107640000D01*
X106940632Y-107826414D01*
X106940827Y-107828261D01*
X106999319Y-108008279D01*
X106999325Y-108008293D01*
X107061107Y-108115301D01*
X107093967Y-108172216D01*
X107220340Y-108312567D01*
X107220629Y-108312888D01*
X107289190Y-108362700D01*
X107325154Y-108412200D01*
X107330000Y-108442793D01*
X107330000Y-109695046D01*
X107311093Y-109753237D01*
X107289191Y-109775138D01*
X107190130Y-109847110D01*
X107190124Y-109847116D01*
X107063469Y-109987781D01*
X107063465Y-109987787D01*
X106968825Y-110151706D01*
X106968819Y-110151720D01*
X106910327Y-110331738D01*
X106910326Y-110331742D01*
X106910326Y-110331744D01*
X106890540Y-110520000D01*
X106904523Y-110653046D01*
X106910327Y-110708261D01*
X106968819Y-110888279D01*
X106968825Y-110888293D01*
X107044015Y-111018525D01*
X107063467Y-111052216D01*
X107190129Y-111192888D01*
X107343270Y-111304151D01*
X107516197Y-111381144D01*
X107701354Y-111420500D01*
X107701357Y-111420500D01*
X107890643Y-111420500D01*
X107890646Y-111420500D01*
X108075803Y-111381144D01*
X108248730Y-111304151D01*
X108401871Y-111192888D01*
X108528533Y-111052216D01*
X108623179Y-110888284D01*
X108681674Y-110708256D01*
X108701460Y-110520000D01*
X108681674Y-110331744D01*
X108623179Y-110151716D01*
X108623176Y-110151711D01*
X108623174Y-110151706D01*
X108574551Y-110067490D01*
X108528533Y-109987784D01*
X108474249Y-109927496D01*
X108401875Y-109847116D01*
X108401870Y-109847111D01*
X108248734Y-109735852D01*
X108248730Y-109735849D01*
X108204446Y-109716132D01*
X108189731Y-109709580D01*
X108144263Y-109668638D01*
X108131000Y-109619140D01*
X108131000Y-109559500D01*
X108149907Y-109501309D01*
X108199407Y-109465345D01*
X108230000Y-109460500D01*
X108953432Y-109460500D01*
X108953433Y-109460500D01*
X108976382Y-109453043D01*
X108991465Y-109449421D01*
X109015304Y-109445646D01*
X109036802Y-109434690D01*
X109051151Y-109428748D01*
X109074090Y-109421296D01*
X109093612Y-109407111D01*
X109106849Y-109399000D01*
X109128342Y-109388050D01*
X109145261Y-109371129D01*
X109145265Y-109371127D01*
X109150907Y-109365485D01*
X109150909Y-109365484D01*
X109879484Y-108636909D01*
X109879485Y-108636907D01*
X109885127Y-108631265D01*
X109885129Y-108631261D01*
X109902050Y-108614342D01*
X109913000Y-108592849D01*
X109921111Y-108579612D01*
X109935296Y-108560090D01*
X109942748Y-108537151D01*
X109948690Y-108522802D01*
X109959646Y-108501304D01*
X109963421Y-108477465D01*
X109967043Y-108462382D01*
X109974500Y-108439433D01*
X109974500Y-108312567D01*
X109974500Y-101154481D01*
X109974500Y-101122567D01*
X109967041Y-101099611D01*
X109963421Y-101084534D01*
X109959646Y-101060696D01*
X109948693Y-101039201D01*
X109942752Y-101024861D01*
X109935296Y-101001911D01*
X109932298Y-100997784D01*
X109921112Y-100982386D01*
X109912997Y-100969143D01*
X109910752Y-100964737D01*
X109902050Y-100947658D01*
X109897163Y-100942771D01*
X109879486Y-100925093D01*
X108456424Y-99502031D01*
X108436343Y-99481951D01*
X108436342Y-99481950D01*
X108414845Y-99470996D01*
X108401608Y-99462884D01*
X108395581Y-99458505D01*
X108382090Y-99448704D01*
X108382088Y-99448703D01*
X108359142Y-99441247D01*
X108344788Y-99435301D01*
X108323306Y-99424354D01*
X108299474Y-99420579D01*
X108284374Y-99416953D01*
X108261437Y-99409500D01*
X108261433Y-99409500D01*
X108229519Y-99409500D01*
X107333433Y-99409500D01*
X107206567Y-99409500D01*
X107206566Y-99409500D01*
X107206560Y-99409501D01*
X107183624Y-99416953D01*
X107168525Y-99420578D01*
X107144701Y-99424352D01*
X107144695Y-99424354D01*
X107123196Y-99435307D01*
X107108857Y-99441246D01*
X107085914Y-99448702D01*
X107085911Y-99448704D01*
X107066392Y-99462884D01*
X107053156Y-99470995D01*
X107031658Y-99481950D01*
X107009094Y-99504513D01*
X107009092Y-99504515D01*
X107009090Y-99504515D01*
X107009091Y-99504516D01*
X104300836Y-102212769D01*
X104246319Y-102240546D01*
X104185887Y-102230975D01*
X104142622Y-102187710D01*
X104133051Y-102127278D01*
X104136096Y-102114024D01*
X104141524Y-102096131D01*
X104141525Y-102096126D01*
X104160841Y-101900003D01*
X104160841Y-101899996D01*
X104141525Y-101703873D01*
X104141524Y-101703870D01*
X104141524Y-101703868D01*
X104084314Y-101515273D01*
X103991410Y-101341462D01*
X103976174Y-101322897D01*
X103866387Y-101189121D01*
X103866378Y-101189112D01*
X103714042Y-101064093D01*
X103714040Y-101064092D01*
X103714038Y-101064090D01*
X103654488Y-101032260D01*
X103540232Y-100971188D01*
X103540230Y-100971187D01*
X103518967Y-100964737D01*
X103355908Y-100915273D01*
X103351629Y-100913975D01*
X103351626Y-100913974D01*
X103155503Y-100894659D01*
X103155497Y-100894659D01*
X102959373Y-100913974D01*
X102959370Y-100913975D01*
X102770769Y-100971187D01*
X102770767Y-100971188D01*
X102596967Y-101064087D01*
X102596957Y-101064093D01*
X102444621Y-101189112D01*
X102444612Y-101189121D01*
X102319590Y-101341461D01*
X102300373Y-101377414D01*
X102263087Y-101447169D01*
X102218984Y-101489575D01*
X102175779Y-101499500D01*
X97436922Y-101499500D01*
X97378731Y-101480593D01*
X97342767Y-101431093D01*
X97338399Y-101390797D01*
X97347341Y-101300003D01*
X97347341Y-101299996D01*
X97328025Y-101103873D01*
X97328024Y-101103870D01*
X97328024Y-101103868D01*
X97270814Y-100915273D01*
X97177910Y-100741462D01*
X97171156Y-100733232D01*
X97052887Y-100589121D01*
X97052878Y-100589112D01*
X96900542Y-100464093D01*
X96900540Y-100464092D01*
X96900538Y-100464090D01*
X96811629Y-100416567D01*
X96726732Y-100371188D01*
X96726730Y-100371187D01*
X96707458Y-100365341D01*
X96538132Y-100313976D01*
X96538129Y-100313975D01*
X96538126Y-100313974D01*
X96342003Y-100294659D01*
X96341997Y-100294659D01*
X96145873Y-100313974D01*
X96145870Y-100313975D01*
X95957269Y-100371187D01*
X95957267Y-100371188D01*
X95783467Y-100464087D01*
X95783457Y-100464093D01*
X95631121Y-100589112D01*
X95631112Y-100589121D01*
X95506093Y-100741457D01*
X95506087Y-100741467D01*
X95413188Y-100915267D01*
X95413187Y-100915269D01*
X95355975Y-101103870D01*
X95355974Y-101103873D01*
X95336659Y-101299996D01*
X95336659Y-101300003D01*
X95355974Y-101496126D01*
X95355975Y-101496129D01*
X95413187Y-101684730D01*
X95413188Y-101684732D01*
X95431110Y-101718261D01*
X95506090Y-101858538D01*
X95506092Y-101858540D01*
X95506093Y-101858542D01*
X95631112Y-102010878D01*
X95631121Y-102010887D01*
X95756794Y-102114024D01*
X95783462Y-102135910D01*
X95957273Y-102228814D01*
X96145868Y-102286024D01*
X96145870Y-102286024D01*
X96145873Y-102286025D01*
X96341997Y-102305341D01*
X96342000Y-102305341D01*
X96342003Y-102305341D01*
X96538126Y-102286025D01*
X96538127Y-102286024D01*
X96538132Y-102286024D01*
X96670081Y-102245997D01*
X96731253Y-102247198D01*
X96757014Y-102260645D01*
X96757910Y-102261296D01*
X96780849Y-102268748D01*
X96795201Y-102274694D01*
X96816691Y-102285644D01*
X96816693Y-102285644D01*
X96816696Y-102285646D01*
X96840517Y-102289418D01*
X96855613Y-102293042D01*
X96878567Y-102300500D01*
X96910481Y-102300500D01*
X102175779Y-102300500D01*
X102233970Y-102319407D01*
X102263087Y-102352829D01*
X102319587Y-102458532D01*
X102319590Y-102458538D01*
X102444612Y-102610878D01*
X102444621Y-102610887D01*
X102575748Y-102718500D01*
X102596962Y-102735910D01*
X102673258Y-102776691D01*
X102768054Y-102827361D01*
X102770773Y-102828814D01*
X102959368Y-102886024D01*
X102959370Y-102886024D01*
X102959373Y-102886025D01*
X103155497Y-102905341D01*
X103155500Y-102905341D01*
X103155503Y-102905341D01*
X103351626Y-102886025D01*
X103351630Y-102886024D01*
X103351632Y-102886024D01*
X103369525Y-102880596D01*
X103430697Y-102881795D01*
X103479483Y-102918722D01*
X103497246Y-102977272D01*
X103477202Y-103035081D01*
X103468269Y-103045336D01*
X103095631Y-103417974D01*
X103041114Y-103445751D01*
X103035331Y-103446493D01*
X102959373Y-103453974D01*
X102959370Y-103453975D01*
X102770769Y-103511187D01*
X102770767Y-103511188D01*
X102596967Y-103604087D01*
X102596957Y-103604093D01*
X102444621Y-103729112D01*
X102444612Y-103729121D01*
X102319593Y-103881457D01*
X102319587Y-103881467D01*
X102226688Y-104055267D01*
X102226687Y-104055269D01*
X102169475Y-104243870D01*
X102169474Y-104243873D01*
X102150159Y-104439996D01*
X102150159Y-104440003D01*
X102169474Y-104636126D01*
X102169475Y-104636131D01*
X102171183Y-104641759D01*
X102169984Y-104702932D01*
X102133057Y-104751718D01*
X102076447Y-104769500D01*
X97402709Y-104769500D01*
X97344518Y-104750593D01*
X97308554Y-104701093D01*
X97304186Y-104660796D01*
X97316083Y-104540003D01*
X97316083Y-104539996D01*
X97295801Y-104334070D01*
X97295800Y-104334065D01*
X97277578Y-104273997D01*
X97235732Y-104136046D01*
X97138185Y-103953550D01*
X97079028Y-103881467D01*
X97006914Y-103793595D01*
X97006910Y-103793590D01*
X96914194Y-103717500D01*
X96846952Y-103662316D01*
X96664454Y-103564768D01*
X96466434Y-103504699D01*
X96466429Y-103504698D01*
X96260503Y-103484417D01*
X96260497Y-103484417D01*
X96054570Y-103504698D01*
X96054565Y-103504699D01*
X95856545Y-103564768D01*
X95674047Y-103662316D01*
X95514095Y-103793585D01*
X95514085Y-103793595D01*
X95382816Y-103953547D01*
X95285268Y-104136045D01*
X95225199Y-104334065D01*
X95225198Y-104334070D01*
X95204917Y-104539996D01*
X95204917Y-104540003D01*
X94262500Y-104540003D01*
X94262500Y-100686900D01*
X94281407Y-100628709D01*
X94291496Y-100616896D01*
X95118896Y-99789496D01*
X95173413Y-99761719D01*
X95188900Y-99760500D01*
X102175779Y-99760500D01*
X102233970Y-99779407D01*
X102263087Y-99812829D01*
X102319587Y-99918532D01*
X102319590Y-99918538D01*
X102444612Y-100070878D01*
X102444621Y-100070887D01*
X102596957Y-100195906D01*
X102596962Y-100195910D01*
X102770773Y-100288814D01*
X102959368Y-100346024D01*
X102959370Y-100346024D01*
X102959373Y-100346025D01*
X103155497Y-100365341D01*
X103155500Y-100365341D01*
X103155503Y-100365341D01*
X103351626Y-100346025D01*
X103351627Y-100346024D01*
X103351632Y-100346024D01*
X103540227Y-100288814D01*
X103714038Y-100195910D01*
X103866383Y-100070883D01*
X103991410Y-99918538D01*
X104084314Y-99744727D01*
X104141524Y-99556132D01*
X104146853Y-99502031D01*
X104160841Y-99360003D01*
X104160841Y-99359996D01*
X104141525Y-99163873D01*
X104141524Y-99163870D01*
X104141524Y-99163868D01*
X104084314Y-98975273D01*
X104079867Y-98966954D01*
X104047911Y-98907168D01*
X103991410Y-98801462D01*
X103991406Y-98801457D01*
X103866387Y-98649121D01*
X103866378Y-98649112D01*
X103714042Y-98524093D01*
X103714040Y-98524092D01*
X103714038Y-98524090D01*
X103665706Y-98498256D01*
X103540232Y-98431188D01*
X103540230Y-98431187D01*
X103351629Y-98373975D01*
X103351626Y-98373974D01*
X103155503Y-98354659D01*
X103155497Y-98354659D01*
X102959373Y-98373974D01*
X102959370Y-98373975D01*
X102770769Y-98431187D01*
X102770767Y-98431188D01*
X102596967Y-98524087D01*
X102596957Y-98524093D01*
X102444621Y-98649112D01*
X102444612Y-98649121D01*
X102319590Y-98801461D01*
X102299737Y-98838603D01*
X102263087Y-98907169D01*
X102218984Y-98949575D01*
X102175779Y-98959500D01*
X94948461Y-98959500D01*
X94948437Y-98959501D01*
X94918563Y-98959501D01*
X94895626Y-98966954D01*
X94880524Y-98970580D01*
X94856693Y-98974354D01*
X94835198Y-98985306D01*
X94820853Y-98991248D01*
X94797911Y-98998703D01*
X94778393Y-99012884D01*
X94765150Y-99020999D01*
X94743658Y-99031950D01*
X94743656Y-99031951D01*
X93556515Y-100219092D01*
X93533950Y-100241658D01*
X93533948Y-100241660D01*
X93522997Y-100263151D01*
X93514887Y-100276385D01*
X93500706Y-100295906D01*
X93500701Y-100295915D01*
X93493249Y-100318852D01*
X93487305Y-100333202D01*
X93476355Y-100354691D01*
X93476352Y-100354701D01*
X93472577Y-100378529D01*
X93468953Y-100393624D01*
X93461501Y-100416562D01*
X93461500Y-100416569D01*
X93461500Y-117394437D01*
X92037726Y-117394437D01*
X92084087Y-96300003D01*
X95337161Y-96300003D01*
X95356467Y-96496029D01*
X95356468Y-96496034D01*
X95413650Y-96684535D01*
X95413652Y-96684540D01*
X95506502Y-96858252D01*
X95506506Y-96858258D01*
X95567724Y-96932851D01*
X95996864Y-96503710D01*
X96014359Y-96538045D01*
X96103955Y-96627641D01*
X96138286Y-96645134D01*
X95709147Y-97074274D01*
X95783741Y-97135492D01*
X95783746Y-97135495D01*
X95957459Y-97228347D01*
X95957464Y-97228349D01*
X96145965Y-97285531D01*
X96145970Y-97285532D01*
X96341997Y-97304839D01*
X96342003Y-97304839D01*
X96538029Y-97285532D01*
X96538034Y-97285531D01*
X96726535Y-97228349D01*
X96726540Y-97228347D01*
X96900253Y-97135495D01*
X96900264Y-97135488D01*
X96974851Y-97074274D01*
X96545711Y-96645134D01*
X96580045Y-96627641D01*
X96669641Y-96538045D01*
X96687134Y-96503711D01*
X97116274Y-96932851D01*
X97177488Y-96858264D01*
X97177495Y-96858253D01*
X97197940Y-96820003D01*
X102150159Y-96820003D01*
X102169474Y-97016126D01*
X102169475Y-97016129D01*
X102169476Y-97016132D01*
X102221838Y-97188747D01*
X102226687Y-97204730D01*
X102226688Y-97204732D01*
X102269877Y-97285532D01*
X102319590Y-97378538D01*
X102319592Y-97378540D01*
X102319593Y-97378542D01*
X102444612Y-97530878D01*
X102444621Y-97530887D01*
X102596957Y-97655906D01*
X102596962Y-97655910D01*
X102770773Y-97748814D01*
X102959368Y-97806024D01*
X102959370Y-97806024D01*
X102959373Y-97806025D01*
X103155497Y-97825341D01*
X103155500Y-97825341D01*
X103155503Y-97825341D01*
X103351626Y-97806025D01*
X103351627Y-97806024D01*
X103351632Y-97806024D01*
X103540227Y-97748814D01*
X103714038Y-97655910D01*
X103866383Y-97530883D01*
X103991410Y-97378538D01*
X104047912Y-97272830D01*
X104092016Y-97230425D01*
X104135221Y-97220500D01*
X105643432Y-97220500D01*
X105643433Y-97220500D01*
X105666382Y-97213043D01*
X105681465Y-97209421D01*
X105705304Y-97205646D01*
X105726802Y-97194690D01*
X105741151Y-97188748D01*
X105764090Y-97181296D01*
X105783612Y-97167111D01*
X105796849Y-97159000D01*
X105818342Y-97148050D01*
X105835261Y-97131129D01*
X105835267Y-97131125D01*
X105840906Y-97125485D01*
X105840909Y-97125484D01*
X107479861Y-95486529D01*
X107534376Y-95458754D01*
X107570440Y-95459697D01*
X107715354Y-95490500D01*
X107715357Y-95490500D01*
X107904643Y-95490500D01*
X107904646Y-95490500D01*
X108089803Y-95451144D01*
X108262730Y-95374151D01*
X108415871Y-95262888D01*
X108542533Y-95122216D01*
X108637179Y-94958284D01*
X108695674Y-94778256D01*
X108715460Y-94590000D01*
X108695674Y-94401744D01*
X108637179Y-94221716D01*
X108637176Y-94221711D01*
X108637174Y-94221706D01*
X108579198Y-94121290D01*
X108542533Y-94057784D01*
X108415871Y-93917112D01*
X108262730Y-93805849D01*
X108262725Y-93805847D01*
X108262722Y-93805845D01*
X108089805Y-93728857D01*
X108089803Y-93728856D01*
X108089800Y-93728855D01*
X108089799Y-93728855D01*
X108028816Y-93715893D01*
X107904646Y-93689500D01*
X107715354Y-93689500D01*
X107597289Y-93714595D01*
X107530200Y-93728855D01*
X107530194Y-93728857D01*
X107357277Y-93805845D01*
X107357268Y-93805850D01*
X107204129Y-93917111D01*
X107204124Y-93917116D01*
X107077469Y-94057781D01*
X107077465Y-94057787D01*
X106982825Y-94221706D01*
X106982819Y-94221720D01*
X106924327Y-94401738D01*
X106924326Y-94401742D01*
X106924326Y-94401744D01*
X106904540Y-94590000D01*
X106924326Y-94778256D01*
X106937711Y-94819451D01*
X106937711Y-94880634D01*
X106913560Y-94920046D01*
X105443103Y-96390504D01*
X105388586Y-96418281D01*
X105373099Y-96419500D01*
X104135221Y-96419500D01*
X104077030Y-96400593D01*
X104047912Y-96367170D01*
X103991410Y-96261462D01*
X103920331Y-96174852D01*
X103866387Y-96109121D01*
X103866378Y-96109112D01*
X103714042Y-95984093D01*
X103714040Y-95984092D01*
X103714038Y-95984090D01*
X103673118Y-95962218D01*
X103540232Y-95891188D01*
X103540230Y-95891187D01*
X103351629Y-95833975D01*
X103351626Y-95833974D01*
X103155503Y-95814659D01*
X103155497Y-95814659D01*
X102959373Y-95833974D01*
X102959370Y-95833975D01*
X102770769Y-95891187D01*
X102770767Y-95891188D01*
X102596967Y-95984087D01*
X102596957Y-95984093D01*
X102444621Y-96109112D01*
X102444612Y-96109121D01*
X102319593Y-96261457D01*
X102319587Y-96261467D01*
X102226688Y-96435267D01*
X102226687Y-96435269D01*
X102169475Y-96623870D01*
X102169474Y-96623873D01*
X102150159Y-96819996D01*
X102150159Y-96820003D01*
X97197940Y-96820003D01*
X97270347Y-96684540D01*
X97270349Y-96684535D01*
X97327531Y-96496034D01*
X97327532Y-96496029D01*
X97346839Y-96300003D01*
X97346839Y-96299996D01*
X97327532Y-96103970D01*
X97327531Y-96103965D01*
X97270349Y-95915464D01*
X97270347Y-95915459D01*
X97177495Y-95741746D01*
X97177492Y-95741741D01*
X97116274Y-95667147D01*
X96687134Y-96096286D01*
X96669641Y-96061955D01*
X96580045Y-95972359D01*
X96545710Y-95954864D01*
X96974851Y-95525724D01*
X96974852Y-95525724D01*
X96900258Y-95464506D01*
X96900252Y-95464502D01*
X96726540Y-95371652D01*
X96726535Y-95371650D01*
X96538034Y-95314468D01*
X96538029Y-95314467D01*
X96342003Y-95295161D01*
X96341997Y-95295161D01*
X96145970Y-95314467D01*
X96145965Y-95314468D01*
X95957464Y-95371650D01*
X95957459Y-95371652D01*
X95783748Y-95464502D01*
X95783742Y-95464506D01*
X95709147Y-95525724D01*
X96138288Y-95954865D01*
X96103955Y-95972359D01*
X96014359Y-96061955D01*
X95996865Y-96096288D01*
X95567724Y-95667147D01*
X95506506Y-95741742D01*
X95506502Y-95741748D01*
X95413652Y-95915459D01*
X95413650Y-95915464D01*
X95356468Y-96103965D01*
X95356467Y-96103970D01*
X95337161Y-96299996D01*
X95337161Y-96300003D01*
X92084087Y-96300003D01*
X92094043Y-91770000D01*
X92934916Y-91770000D01*
X92955235Y-92118871D01*
X93015917Y-92463015D01*
X93116144Y-92797798D01*
X93116145Y-92797800D01*
X93254556Y-93118672D01*
X93254559Y-93118679D01*
X93429288Y-93421319D01*
X93429290Y-93421322D01*
X93637975Y-93701634D01*
X93749127Y-93819449D01*
X94739983Y-92828592D01*
X94805130Y-92904870D01*
X94881405Y-92970014D01*
X93887473Y-93963947D01*
X94145485Y-94180445D01*
X94145490Y-94180449D01*
X94437452Y-94372476D01*
X94749744Y-94529315D01*
X94749748Y-94529316D01*
X95078136Y-94648840D01*
X95418162Y-94729428D01*
X95765273Y-94770000D01*
X96114727Y-94770000D01*
X96461837Y-94729428D01*
X96801863Y-94648840D01*
X97130251Y-94529316D01*
X97130255Y-94529315D01*
X97442547Y-94372476D01*
X97734509Y-94180449D01*
X97734514Y-94180445D01*
X97992525Y-93963947D01*
X96998593Y-92970015D01*
X97074870Y-92904870D01*
X97140015Y-92828593D01*
X98130871Y-93819449D01*
X98242025Y-93701634D01*
X98450709Y-93421322D01*
X98450711Y-93421319D01*
X98625440Y-93118679D01*
X98625443Y-93118672D01*
X98763854Y-92797800D01*
X98763855Y-92797798D01*
X98864082Y-92463015D01*
X98924764Y-92118871D01*
X98945083Y-91770000D01*
X98924764Y-91421128D01*
X98864082Y-91076984D01*
X98769185Y-90760004D01*
X100339939Y-90760004D01*
X100360144Y-90990955D01*
X100420151Y-91214907D01*
X100518132Y-91425029D01*
X100651110Y-91614942D01*
X100662373Y-91626205D01*
X101144133Y-91144444D01*
X101165186Y-91177619D01*
X101283087Y-91288334D01*
X100803795Y-91767627D01*
X100815057Y-91778889D01*
X101004970Y-91911867D01*
X101215092Y-92009848D01*
X101439044Y-92069855D01*
X101669996Y-92090061D01*
X101670004Y-92090061D01*
X101900955Y-92069855D01*
X102124907Y-92009848D01*
X102335029Y-91911867D01*
X102524942Y-91778889D01*
X102536205Y-91767627D01*
X102053437Y-91284859D01*
X102118492Y-91237595D01*
X102195694Y-91144272D01*
X102677627Y-91626205D01*
X102688889Y-91614942D01*
X102821867Y-91425029D01*
X102919848Y-91214907D01*
X102979855Y-90990955D01*
X103000061Y-90760004D01*
X103000061Y-90759995D01*
X102979855Y-90529044D01*
X102919847Y-90305087D01*
X102821872Y-90094980D01*
X102821868Y-90094972D01*
X102688889Y-89905057D01*
X102677627Y-89893795D01*
X102195866Y-90375555D01*
X102174814Y-90342381D01*
X102056912Y-90231665D01*
X102536205Y-89752373D01*
X102524942Y-89741110D01*
X102335029Y-89608132D01*
X102124907Y-89510151D01*
X101900955Y-89450144D01*
X101670004Y-89429939D01*
X101669996Y-89429939D01*
X101439044Y-89450144D01*
X101215087Y-89510152D01*
X101004980Y-89608127D01*
X101004972Y-89608131D01*
X100815057Y-89741110D01*
X100803795Y-89752373D01*
X101286562Y-90235140D01*
X101221508Y-90282405D01*
X101144305Y-90375727D01*
X100662373Y-89893795D01*
X100651110Y-89905057D01*
X100518131Y-90094972D01*
X100518127Y-90094980D01*
X100420152Y-90305087D01*
X100360144Y-90529044D01*
X100339939Y-90759995D01*
X100339939Y-90760004D01*
X98769185Y-90760004D01*
X98763855Y-90742201D01*
X98763854Y-90742199D01*
X98625443Y-90421327D01*
X98625440Y-90421320D01*
X98450711Y-90118680D01*
X98450709Y-90118677D01*
X98242024Y-89838365D01*
X98130871Y-89720549D01*
X97140014Y-90711405D01*
X97074870Y-90635130D01*
X96998592Y-90569983D01*
X97992525Y-89576051D01*
X97734514Y-89359554D01*
X97734509Y-89359550D01*
X97442547Y-89167523D01*
X97130255Y-89010684D01*
X97130251Y-89010683D01*
X96801863Y-88891159D01*
X96461837Y-88810571D01*
X96114727Y-88770000D01*
X95765273Y-88770000D01*
X95418162Y-88810571D01*
X95078136Y-88891159D01*
X94749748Y-89010683D01*
X94749744Y-89010684D01*
X94437452Y-89167523D01*
X94145493Y-89359548D01*
X93887473Y-89576051D01*
X94881406Y-90569984D01*
X94805130Y-90635130D01*
X94739984Y-90711406D01*
X93749127Y-89720549D01*
X93637974Y-89838366D01*
X93637968Y-89838374D01*
X93429290Y-90118677D01*
X93429288Y-90118680D01*
X93254559Y-90421320D01*
X93254556Y-90421327D01*
X93116145Y-90742199D01*
X93116144Y-90742201D01*
X93015917Y-91076984D01*
X92955235Y-91421128D01*
X92934916Y-91770000D01*
X92094043Y-91770000D01*
X92101782Y-88248911D01*
X92120817Y-88190764D01*
X92170396Y-88154909D01*
X92200908Y-88150131D01*
X121934456Y-88189776D01*
G37*
%TD.AperFunction*%
%TD*%
D27*
X122044000Y-88120000D02*
X121992000Y-138200000D01*
X92052000Y-88120000D02*
X122044000Y-88120000D01*
X92000000Y-138200000D02*
X92052000Y-88120000D01*
X121992000Y-138200000D02*
X92000000Y-138200000D01*
M02*
