%TF.GenerationSoftware,KiCad,Pcbnew,8.0.1*%
%TF.CreationDate,2024-04-05T21:52:58+02:00*%
%TF.ProjectId,LCRDT-Tester,4c435244-542d-4546-9573-7465722e6b69,0.31*%
%TF.SameCoordinates,PX57bafc0PY83cc3c0*%
%TF.FileFunction,Other,ECO1*%
%FSLAX46Y46*%
G04 Gerber Fmt 4.6, Leading zero omitted, Abs format (unit mm)*
G04 Created by KiCad (PCBNEW 8.0.1) date 2024-04-05 21:52:58*
%MOMM*%
%LPD*%
G01*
G04 APERTURE LIST*
%ADD10C,0.100000*%
%ADD11C,0.150000*%
%ADD12C,0.300000*%
%ADD13C,0.400000*%
%TA.AperFunction,Profile*%
%ADD14C,0.150000*%
%TD*%
G04 APERTURE END LIST*
D10*
D11*
X85010200Y-27807200D02*
X193010200Y-27807200D01*
X193010200Y-59807200D01*
X85010200Y-59807200D01*
X85010200Y-27807200D01*
D10*
D11*
X-81992000Y128200000D02*
X195010200Y128200000D01*
X195010200Y-61807200D01*
X-81992000Y-61807200D01*
X-81992000Y128200000D01*
D10*
D11*
X-79992000Y126200000D02*
X193010200Y126200000D01*
X193010200Y-59807200D01*
X-79992000Y-59807200D01*
X-79992000Y126200000D01*
D10*
D11*
X-31992000Y126200000D02*
X-31992000Y128200000D01*
D10*
D11*
X18008000Y126200000D02*
X18008000Y128200000D01*
D10*
D11*
X68008000Y126200000D02*
X68008000Y128200000D01*
D10*
D11*
X118008000Y126200000D02*
X118008000Y128200000D01*
D10*
D11*
X168008000Y126200000D02*
X168008000Y128200000D01*
D10*
D11*
X-55902840Y126606396D02*
X-56645697Y126606396D01*
X-56274269Y126606396D02*
X-56274269Y127906396D01*
X-56274269Y127906396D02*
X-56398078Y127720681D01*
X-56398078Y127720681D02*
X-56521888Y127596872D01*
X-56521888Y127596872D02*
X-56645697Y127534967D01*
D10*
D11*
X-6645697Y127782586D02*
X-6583793Y127844491D01*
X-6583793Y127844491D02*
X-6459983Y127906396D01*
X-6459983Y127906396D02*
X-6150459Y127906396D01*
X-6150459Y127906396D02*
X-6026650Y127844491D01*
X-6026650Y127844491D02*
X-5964745Y127782586D01*
X-5964745Y127782586D02*
X-5902840Y127658777D01*
X-5902840Y127658777D02*
X-5902840Y127534967D01*
X-5902840Y127534967D02*
X-5964745Y127349253D01*
X-5964745Y127349253D02*
X-6707602Y126606396D01*
X-6707602Y126606396D02*
X-5902840Y126606396D01*
D10*
D11*
X43292398Y127906396D02*
X44097160Y127906396D01*
X44097160Y127906396D02*
X43663826Y127411158D01*
X43663826Y127411158D02*
X43849541Y127411158D01*
X43849541Y127411158D02*
X43973350Y127349253D01*
X43973350Y127349253D02*
X44035255Y127287348D01*
X44035255Y127287348D02*
X44097160Y127163539D01*
X44097160Y127163539D02*
X44097160Y126854015D01*
X44097160Y126854015D02*
X44035255Y126730205D01*
X44035255Y126730205D02*
X43973350Y126668300D01*
X43973350Y126668300D02*
X43849541Y126606396D01*
X43849541Y126606396D02*
X43478112Y126606396D01*
X43478112Y126606396D02*
X43354303Y126668300D01*
X43354303Y126668300D02*
X43292398Y126730205D01*
D10*
D11*
X93973350Y127473062D02*
X93973350Y126606396D01*
X93663826Y127968300D02*
X93354303Y127039729D01*
X93354303Y127039729D02*
X94159064Y127039729D01*
D10*
D11*
X144035255Y127906396D02*
X143416207Y127906396D01*
X143416207Y127906396D02*
X143354303Y127287348D01*
X143354303Y127287348D02*
X143416207Y127349253D01*
X143416207Y127349253D02*
X143540017Y127411158D01*
X143540017Y127411158D02*
X143849541Y127411158D01*
X143849541Y127411158D02*
X143973350Y127349253D01*
X143973350Y127349253D02*
X144035255Y127287348D01*
X144035255Y127287348D02*
X144097160Y127163539D01*
X144097160Y127163539D02*
X144097160Y126854015D01*
X144097160Y126854015D02*
X144035255Y126730205D01*
X144035255Y126730205D02*
X143973350Y126668300D01*
X143973350Y126668300D02*
X143849541Y126606396D01*
X143849541Y126606396D02*
X143540017Y126606396D01*
X143540017Y126606396D02*
X143416207Y126668300D01*
X143416207Y126668300D02*
X143354303Y126730205D01*
D10*
D11*
X193973350Y127906396D02*
X193725731Y127906396D01*
X193725731Y127906396D02*
X193601922Y127844491D01*
X193601922Y127844491D02*
X193540017Y127782586D01*
X193540017Y127782586D02*
X193416207Y127596872D01*
X193416207Y127596872D02*
X193354303Y127349253D01*
X193354303Y127349253D02*
X193354303Y126854015D01*
X193354303Y126854015D02*
X193416207Y126730205D01*
X193416207Y126730205D02*
X193478112Y126668300D01*
X193478112Y126668300D02*
X193601922Y126606396D01*
X193601922Y126606396D02*
X193849541Y126606396D01*
X193849541Y126606396D02*
X193973350Y126668300D01*
X193973350Y126668300D02*
X194035255Y126730205D01*
X194035255Y126730205D02*
X194097160Y126854015D01*
X194097160Y126854015D02*
X194097160Y127163539D01*
X194097160Y127163539D02*
X194035255Y127287348D01*
X194035255Y127287348D02*
X193973350Y127349253D01*
X193973350Y127349253D02*
X193849541Y127411158D01*
X193849541Y127411158D02*
X193601922Y127411158D01*
X193601922Y127411158D02*
X193478112Y127349253D01*
X193478112Y127349253D02*
X193416207Y127287348D01*
X193416207Y127287348D02*
X193354303Y127163539D01*
D10*
D11*
X-31992000Y-59807200D02*
X-31992000Y-61807200D01*
D10*
D11*
X18008000Y-59807200D02*
X18008000Y-61807200D01*
D10*
D11*
X68008000Y-59807200D02*
X68008000Y-61807200D01*
D10*
D11*
X118008000Y-59807200D02*
X118008000Y-61807200D01*
D10*
D11*
X168008000Y-59807200D02*
X168008000Y-61807200D01*
D10*
D11*
X-55902840Y-61400804D02*
X-56645697Y-61400804D01*
X-56274269Y-61400804D02*
X-56274269Y-60100804D01*
X-56274269Y-60100804D02*
X-56398078Y-60286519D01*
X-56398078Y-60286519D02*
X-56521888Y-60410328D01*
X-56521888Y-60410328D02*
X-56645697Y-60472233D01*
D10*
D11*
X-6645697Y-60224614D02*
X-6583793Y-60162709D01*
X-6583793Y-60162709D02*
X-6459983Y-60100804D01*
X-6459983Y-60100804D02*
X-6150459Y-60100804D01*
X-6150459Y-60100804D02*
X-6026650Y-60162709D01*
X-6026650Y-60162709D02*
X-5964745Y-60224614D01*
X-5964745Y-60224614D02*
X-5902840Y-60348423D01*
X-5902840Y-60348423D02*
X-5902840Y-60472233D01*
X-5902840Y-60472233D02*
X-5964745Y-60657947D01*
X-5964745Y-60657947D02*
X-6707602Y-61400804D01*
X-6707602Y-61400804D02*
X-5902840Y-61400804D01*
D10*
D11*
X43292398Y-60100804D02*
X44097160Y-60100804D01*
X44097160Y-60100804D02*
X43663826Y-60596042D01*
X43663826Y-60596042D02*
X43849541Y-60596042D01*
X43849541Y-60596042D02*
X43973350Y-60657947D01*
X43973350Y-60657947D02*
X44035255Y-60719852D01*
X44035255Y-60719852D02*
X44097160Y-60843661D01*
X44097160Y-60843661D02*
X44097160Y-61153185D01*
X44097160Y-61153185D02*
X44035255Y-61276995D01*
X44035255Y-61276995D02*
X43973350Y-61338900D01*
X43973350Y-61338900D02*
X43849541Y-61400804D01*
X43849541Y-61400804D02*
X43478112Y-61400804D01*
X43478112Y-61400804D02*
X43354303Y-61338900D01*
X43354303Y-61338900D02*
X43292398Y-61276995D01*
D10*
D11*
X93973350Y-60534138D02*
X93973350Y-61400804D01*
X93663826Y-60038900D02*
X93354303Y-60967471D01*
X93354303Y-60967471D02*
X94159064Y-60967471D01*
D10*
D11*
X144035255Y-60100804D02*
X143416207Y-60100804D01*
X143416207Y-60100804D02*
X143354303Y-60719852D01*
X143354303Y-60719852D02*
X143416207Y-60657947D01*
X143416207Y-60657947D02*
X143540017Y-60596042D01*
X143540017Y-60596042D02*
X143849541Y-60596042D01*
X143849541Y-60596042D02*
X143973350Y-60657947D01*
X143973350Y-60657947D02*
X144035255Y-60719852D01*
X144035255Y-60719852D02*
X144097160Y-60843661D01*
X144097160Y-60843661D02*
X144097160Y-61153185D01*
X144097160Y-61153185D02*
X144035255Y-61276995D01*
X144035255Y-61276995D02*
X143973350Y-61338900D01*
X143973350Y-61338900D02*
X143849541Y-61400804D01*
X143849541Y-61400804D02*
X143540017Y-61400804D01*
X143540017Y-61400804D02*
X143416207Y-61338900D01*
X143416207Y-61338900D02*
X143354303Y-61276995D01*
D10*
D11*
X193973350Y-60100804D02*
X193725731Y-60100804D01*
X193725731Y-60100804D02*
X193601922Y-60162709D01*
X193601922Y-60162709D02*
X193540017Y-60224614D01*
X193540017Y-60224614D02*
X193416207Y-60410328D01*
X193416207Y-60410328D02*
X193354303Y-60657947D01*
X193354303Y-60657947D02*
X193354303Y-61153185D01*
X193354303Y-61153185D02*
X193416207Y-61276995D01*
X193416207Y-61276995D02*
X193478112Y-61338900D01*
X193478112Y-61338900D02*
X193601922Y-61400804D01*
X193601922Y-61400804D02*
X193849541Y-61400804D01*
X193849541Y-61400804D02*
X193973350Y-61338900D01*
X193973350Y-61338900D02*
X194035255Y-61276995D01*
X194035255Y-61276995D02*
X194097160Y-61153185D01*
X194097160Y-61153185D02*
X194097160Y-60843661D01*
X194097160Y-60843661D02*
X194035255Y-60719852D01*
X194035255Y-60719852D02*
X193973350Y-60657947D01*
X193973350Y-60657947D02*
X193849541Y-60596042D01*
X193849541Y-60596042D02*
X193601922Y-60596042D01*
X193601922Y-60596042D02*
X193478112Y-60657947D01*
X193478112Y-60657947D02*
X193416207Y-60719852D01*
X193416207Y-60719852D02*
X193354303Y-60843661D01*
D10*
D11*
X-81992000Y78200000D02*
X-79992000Y78200000D01*
D10*
D11*
X-81992000Y28200000D02*
X-79992000Y28200000D01*
D10*
D11*
X-81992000Y-21800000D02*
X-79992000Y-21800000D01*
D10*
D11*
X-81301524Y102977824D02*
X-80682477Y102977824D01*
X-81425334Y102606396D02*
X-80992001Y103906396D01*
X-80992001Y103906396D02*
X-80558667Y102606396D01*
D10*
D11*
X-80899143Y53287348D02*
X-80713429Y53225443D01*
X-80713429Y53225443D02*
X-80651524Y53163539D01*
X-80651524Y53163539D02*
X-80589620Y53039729D01*
X-80589620Y53039729D02*
X-80589620Y52854015D01*
X-80589620Y52854015D02*
X-80651524Y52730205D01*
X-80651524Y52730205D02*
X-80713429Y52668300D01*
X-80713429Y52668300D02*
X-80837239Y52606396D01*
X-80837239Y52606396D02*
X-81332477Y52606396D01*
X-81332477Y52606396D02*
X-81332477Y53906396D01*
X-81332477Y53906396D02*
X-80899143Y53906396D01*
X-80899143Y53906396D02*
X-80775334Y53844491D01*
X-80775334Y53844491D02*
X-80713429Y53782586D01*
X-80713429Y53782586D02*
X-80651524Y53658777D01*
X-80651524Y53658777D02*
X-80651524Y53534967D01*
X-80651524Y53534967D02*
X-80713429Y53411158D01*
X-80713429Y53411158D02*
X-80775334Y53349253D01*
X-80775334Y53349253D02*
X-80899143Y53287348D01*
X-80899143Y53287348D02*
X-81332477Y53287348D01*
D10*
D11*
X-80589620Y2730205D02*
X-80651524Y2668300D01*
X-80651524Y2668300D02*
X-80837239Y2606396D01*
X-80837239Y2606396D02*
X-80961048Y2606396D01*
X-80961048Y2606396D02*
X-81146762Y2668300D01*
X-81146762Y2668300D02*
X-81270572Y2792110D01*
X-81270572Y2792110D02*
X-81332477Y2915920D01*
X-81332477Y2915920D02*
X-81394381Y3163539D01*
X-81394381Y3163539D02*
X-81394381Y3349253D01*
X-81394381Y3349253D02*
X-81332477Y3596872D01*
X-81332477Y3596872D02*
X-81270572Y3720681D01*
X-81270572Y3720681D02*
X-81146762Y3844491D01*
X-81146762Y3844491D02*
X-80961048Y3906396D01*
X-80961048Y3906396D02*
X-80837239Y3906396D01*
X-80837239Y3906396D02*
X-80651524Y3844491D01*
X-80651524Y3844491D02*
X-80589620Y3782586D01*
D10*
D11*
X-81332477Y-47393604D02*
X-81332477Y-46093604D01*
X-81332477Y-46093604D02*
X-81022953Y-46093604D01*
X-81022953Y-46093604D02*
X-80837239Y-46155509D01*
X-80837239Y-46155509D02*
X-80713429Y-46279319D01*
X-80713429Y-46279319D02*
X-80651524Y-46403128D01*
X-80651524Y-46403128D02*
X-80589620Y-46650747D01*
X-80589620Y-46650747D02*
X-80589620Y-46836461D01*
X-80589620Y-46836461D02*
X-80651524Y-47084080D01*
X-80651524Y-47084080D02*
X-80713429Y-47207890D01*
X-80713429Y-47207890D02*
X-80837239Y-47331700D01*
X-80837239Y-47331700D02*
X-81022953Y-47393604D01*
X-81022953Y-47393604D02*
X-81332477Y-47393604D01*
D10*
D11*
X195010200Y78200000D02*
X193010200Y78200000D01*
D10*
D11*
X195010200Y28200000D02*
X193010200Y28200000D01*
D10*
D11*
X195010200Y-21800000D02*
X193010200Y-21800000D01*
D10*
D11*
X193700676Y102977824D02*
X194319723Y102977824D01*
X193576866Y102606396D02*
X194010199Y103906396D01*
X194010199Y103906396D02*
X194443533Y102606396D01*
D10*
D11*
X194103057Y53287348D02*
X194288771Y53225443D01*
X194288771Y53225443D02*
X194350676Y53163539D01*
X194350676Y53163539D02*
X194412580Y53039729D01*
X194412580Y53039729D02*
X194412580Y52854015D01*
X194412580Y52854015D02*
X194350676Y52730205D01*
X194350676Y52730205D02*
X194288771Y52668300D01*
X194288771Y52668300D02*
X194164961Y52606396D01*
X194164961Y52606396D02*
X193669723Y52606396D01*
X193669723Y52606396D02*
X193669723Y53906396D01*
X193669723Y53906396D02*
X194103057Y53906396D01*
X194103057Y53906396D02*
X194226866Y53844491D01*
X194226866Y53844491D02*
X194288771Y53782586D01*
X194288771Y53782586D02*
X194350676Y53658777D01*
X194350676Y53658777D02*
X194350676Y53534967D01*
X194350676Y53534967D02*
X194288771Y53411158D01*
X194288771Y53411158D02*
X194226866Y53349253D01*
X194226866Y53349253D02*
X194103057Y53287348D01*
X194103057Y53287348D02*
X193669723Y53287348D01*
D10*
D11*
X194412580Y2730205D02*
X194350676Y2668300D01*
X194350676Y2668300D02*
X194164961Y2606396D01*
X194164961Y2606396D02*
X194041152Y2606396D01*
X194041152Y2606396D02*
X193855438Y2668300D01*
X193855438Y2668300D02*
X193731628Y2792110D01*
X193731628Y2792110D02*
X193669723Y2915920D01*
X193669723Y2915920D02*
X193607819Y3163539D01*
X193607819Y3163539D02*
X193607819Y3349253D01*
X193607819Y3349253D02*
X193669723Y3596872D01*
X193669723Y3596872D02*
X193731628Y3720681D01*
X193731628Y3720681D02*
X193855438Y3844491D01*
X193855438Y3844491D02*
X194041152Y3906396D01*
X194041152Y3906396D02*
X194164961Y3906396D01*
X194164961Y3906396D02*
X194350676Y3844491D01*
X194350676Y3844491D02*
X194412580Y3782586D01*
D10*
D11*
X193669723Y-47393604D02*
X193669723Y-46093604D01*
X193669723Y-46093604D02*
X193979247Y-46093604D01*
X193979247Y-46093604D02*
X194164961Y-46155509D01*
X194164961Y-46155509D02*
X194288771Y-46279319D01*
X194288771Y-46279319D02*
X194350676Y-46403128D01*
X194350676Y-46403128D02*
X194412580Y-46650747D01*
X194412580Y-46650747D02*
X194412580Y-46836461D01*
X194412580Y-46836461D02*
X194350676Y-47084080D01*
X194350676Y-47084080D02*
X194288771Y-47207890D01*
X194288771Y-47207890D02*
X194164961Y-47331700D01*
X194164961Y-47331700D02*
X193979247Y-47393604D01*
X193979247Y-47393604D02*
X193669723Y-47393604D01*
D10*
D11*
X108466026Y-55593328D02*
X108466026Y-54093328D01*
X108466026Y-54093328D02*
X108823169Y-54093328D01*
X108823169Y-54093328D02*
X109037455Y-54164757D01*
X109037455Y-54164757D02*
X109180312Y-54307614D01*
X109180312Y-54307614D02*
X109251741Y-54450471D01*
X109251741Y-54450471D02*
X109323169Y-54736185D01*
X109323169Y-54736185D02*
X109323169Y-54950471D01*
X109323169Y-54950471D02*
X109251741Y-55236185D01*
X109251741Y-55236185D02*
X109180312Y-55379042D01*
X109180312Y-55379042D02*
X109037455Y-55521900D01*
X109037455Y-55521900D02*
X108823169Y-55593328D01*
X108823169Y-55593328D02*
X108466026Y-55593328D01*
X110608884Y-55593328D02*
X110608884Y-54807614D01*
X110608884Y-54807614D02*
X110537455Y-54664757D01*
X110537455Y-54664757D02*
X110394598Y-54593328D01*
X110394598Y-54593328D02*
X110108884Y-54593328D01*
X110108884Y-54593328D02*
X109966026Y-54664757D01*
X110608884Y-55521900D02*
X110466026Y-55593328D01*
X110466026Y-55593328D02*
X110108884Y-55593328D01*
X110108884Y-55593328D02*
X109966026Y-55521900D01*
X109966026Y-55521900D02*
X109894598Y-55379042D01*
X109894598Y-55379042D02*
X109894598Y-55236185D01*
X109894598Y-55236185D02*
X109966026Y-55093328D01*
X109966026Y-55093328D02*
X110108884Y-55021900D01*
X110108884Y-55021900D02*
X110466026Y-55021900D01*
X110466026Y-55021900D02*
X110608884Y-54950471D01*
X111108884Y-54593328D02*
X111680312Y-54593328D01*
X111323169Y-54093328D02*
X111323169Y-55379042D01*
X111323169Y-55379042D02*
X111394598Y-55521900D01*
X111394598Y-55521900D02*
X111537455Y-55593328D01*
X111537455Y-55593328D02*
X111680312Y-55593328D01*
X112751741Y-55521900D02*
X112608884Y-55593328D01*
X112608884Y-55593328D02*
X112323170Y-55593328D01*
X112323170Y-55593328D02*
X112180312Y-55521900D01*
X112180312Y-55521900D02*
X112108884Y-55379042D01*
X112108884Y-55379042D02*
X112108884Y-54807614D01*
X112108884Y-54807614D02*
X112180312Y-54664757D01*
X112180312Y-54664757D02*
X112323170Y-54593328D01*
X112323170Y-54593328D02*
X112608884Y-54593328D01*
X112608884Y-54593328D02*
X112751741Y-54664757D01*
X112751741Y-54664757D02*
X112823170Y-54807614D01*
X112823170Y-54807614D02*
X112823170Y-54950471D01*
X112823170Y-54950471D02*
X112108884Y-55093328D01*
X113466026Y-55450471D02*
X113537455Y-55521900D01*
X113537455Y-55521900D02*
X113466026Y-55593328D01*
X113466026Y-55593328D02*
X113394598Y-55521900D01*
X113394598Y-55521900D02*
X113466026Y-55450471D01*
X113466026Y-55450471D02*
X113466026Y-55593328D01*
X113466026Y-54664757D02*
X113537455Y-54736185D01*
X113537455Y-54736185D02*
X113466026Y-54807614D01*
X113466026Y-54807614D02*
X113394598Y-54736185D01*
X113394598Y-54736185D02*
X113466026Y-54664757D01*
X113466026Y-54664757D02*
X113466026Y-54807614D01*
X115251741Y-54236185D02*
X115323169Y-54164757D01*
X115323169Y-54164757D02*
X115466027Y-54093328D01*
X115466027Y-54093328D02*
X115823169Y-54093328D01*
X115823169Y-54093328D02*
X115966027Y-54164757D01*
X115966027Y-54164757D02*
X116037455Y-54236185D01*
X116037455Y-54236185D02*
X116108884Y-54379042D01*
X116108884Y-54379042D02*
X116108884Y-54521900D01*
X116108884Y-54521900D02*
X116037455Y-54736185D01*
X116037455Y-54736185D02*
X115180312Y-55593328D01*
X115180312Y-55593328D02*
X116108884Y-55593328D01*
X117037455Y-54093328D02*
X117180312Y-54093328D01*
X117180312Y-54093328D02*
X117323169Y-54164757D01*
X117323169Y-54164757D02*
X117394598Y-54236185D01*
X117394598Y-54236185D02*
X117466026Y-54379042D01*
X117466026Y-54379042D02*
X117537455Y-54664757D01*
X117537455Y-54664757D02*
X117537455Y-55021900D01*
X117537455Y-55021900D02*
X117466026Y-55307614D01*
X117466026Y-55307614D02*
X117394598Y-55450471D01*
X117394598Y-55450471D02*
X117323169Y-55521900D01*
X117323169Y-55521900D02*
X117180312Y-55593328D01*
X117180312Y-55593328D02*
X117037455Y-55593328D01*
X117037455Y-55593328D02*
X116894598Y-55521900D01*
X116894598Y-55521900D02*
X116823169Y-55450471D01*
X116823169Y-55450471D02*
X116751740Y-55307614D01*
X116751740Y-55307614D02*
X116680312Y-55021900D01*
X116680312Y-55021900D02*
X116680312Y-54664757D01*
X116680312Y-54664757D02*
X116751740Y-54379042D01*
X116751740Y-54379042D02*
X116823169Y-54236185D01*
X116823169Y-54236185D02*
X116894598Y-54164757D01*
X116894598Y-54164757D02*
X117037455Y-54093328D01*
X118108883Y-54236185D02*
X118180311Y-54164757D01*
X118180311Y-54164757D02*
X118323169Y-54093328D01*
X118323169Y-54093328D02*
X118680311Y-54093328D01*
X118680311Y-54093328D02*
X118823169Y-54164757D01*
X118823169Y-54164757D02*
X118894597Y-54236185D01*
X118894597Y-54236185D02*
X118966026Y-54379042D01*
X118966026Y-54379042D02*
X118966026Y-54521900D01*
X118966026Y-54521900D02*
X118894597Y-54736185D01*
X118894597Y-54736185D02*
X118037454Y-55593328D01*
X118037454Y-55593328D02*
X118966026Y-55593328D01*
X120251740Y-54593328D02*
X120251740Y-55593328D01*
X119894597Y-54021900D02*
X119537454Y-55093328D01*
X119537454Y-55093328D02*
X120466025Y-55093328D01*
X121037453Y-55021900D02*
X122180311Y-55021900D01*
X123180311Y-54093328D02*
X123323168Y-54093328D01*
X123323168Y-54093328D02*
X123466025Y-54164757D01*
X123466025Y-54164757D02*
X123537454Y-54236185D01*
X123537454Y-54236185D02*
X123608882Y-54379042D01*
X123608882Y-54379042D02*
X123680311Y-54664757D01*
X123680311Y-54664757D02*
X123680311Y-55021900D01*
X123680311Y-55021900D02*
X123608882Y-55307614D01*
X123608882Y-55307614D02*
X123537454Y-55450471D01*
X123537454Y-55450471D02*
X123466025Y-55521900D01*
X123466025Y-55521900D02*
X123323168Y-55593328D01*
X123323168Y-55593328D02*
X123180311Y-55593328D01*
X123180311Y-55593328D02*
X123037454Y-55521900D01*
X123037454Y-55521900D02*
X122966025Y-55450471D01*
X122966025Y-55450471D02*
X122894596Y-55307614D01*
X122894596Y-55307614D02*
X122823168Y-55021900D01*
X122823168Y-55021900D02*
X122823168Y-54664757D01*
X122823168Y-54664757D02*
X122894596Y-54379042D01*
X122894596Y-54379042D02*
X122966025Y-54236185D01*
X122966025Y-54236185D02*
X123037454Y-54164757D01*
X123037454Y-54164757D02*
X123180311Y-54093328D01*
X124966025Y-54593328D02*
X124966025Y-55593328D01*
X124608882Y-54021900D02*
X124251739Y-55093328D01*
X124251739Y-55093328D02*
X125180310Y-55093328D01*
X125751738Y-55021900D02*
X126894596Y-55021900D01*
X127894596Y-54093328D02*
X128037453Y-54093328D01*
X128037453Y-54093328D02*
X128180310Y-54164757D01*
X128180310Y-54164757D02*
X128251739Y-54236185D01*
X128251739Y-54236185D02*
X128323167Y-54379042D01*
X128323167Y-54379042D02*
X128394596Y-54664757D01*
X128394596Y-54664757D02*
X128394596Y-55021900D01*
X128394596Y-55021900D02*
X128323167Y-55307614D01*
X128323167Y-55307614D02*
X128251739Y-55450471D01*
X128251739Y-55450471D02*
X128180310Y-55521900D01*
X128180310Y-55521900D02*
X128037453Y-55593328D01*
X128037453Y-55593328D02*
X127894596Y-55593328D01*
X127894596Y-55593328D02*
X127751739Y-55521900D01*
X127751739Y-55521900D02*
X127680310Y-55450471D01*
X127680310Y-55450471D02*
X127608881Y-55307614D01*
X127608881Y-55307614D02*
X127537453Y-55021900D01*
X127537453Y-55021900D02*
X127537453Y-54664757D01*
X127537453Y-54664757D02*
X127608881Y-54379042D01*
X127608881Y-54379042D02*
X127680310Y-54236185D01*
X127680310Y-54236185D02*
X127751739Y-54164757D01*
X127751739Y-54164757D02*
X127894596Y-54093328D01*
X129751738Y-54093328D02*
X129037452Y-54093328D01*
X129037452Y-54093328D02*
X128966024Y-54807614D01*
X128966024Y-54807614D02*
X129037452Y-54736185D01*
X129037452Y-54736185D02*
X129180310Y-54664757D01*
X129180310Y-54664757D02*
X129537452Y-54664757D01*
X129537452Y-54664757D02*
X129680310Y-54736185D01*
X129680310Y-54736185D02*
X129751738Y-54807614D01*
X129751738Y-54807614D02*
X129823167Y-54950471D01*
X129823167Y-54950471D02*
X129823167Y-55307614D01*
X129823167Y-55307614D02*
X129751738Y-55450471D01*
X129751738Y-55450471D02*
X129680310Y-55521900D01*
X129680310Y-55521900D02*
X129537452Y-55593328D01*
X129537452Y-55593328D02*
X129180310Y-55593328D01*
X129180310Y-55593328D02*
X129037452Y-55521900D01*
X129037452Y-55521900D02*
X128966024Y-55450471D01*
D10*
D11*
X85010200Y-56307200D02*
X193010200Y-56307200D01*
D10*
D11*
X86466026Y-58393328D02*
X86466026Y-56893328D01*
X87323169Y-58393328D02*
X86680312Y-57536185D01*
X87323169Y-56893328D02*
X86466026Y-57750471D01*
X87966026Y-58393328D02*
X87966026Y-57393328D01*
X87966026Y-56893328D02*
X87894598Y-56964757D01*
X87894598Y-56964757D02*
X87966026Y-57036185D01*
X87966026Y-57036185D02*
X88037455Y-56964757D01*
X88037455Y-56964757D02*
X87966026Y-56893328D01*
X87966026Y-56893328D02*
X87966026Y-57036185D01*
X89537455Y-58250471D02*
X89466027Y-58321900D01*
X89466027Y-58321900D02*
X89251741Y-58393328D01*
X89251741Y-58393328D02*
X89108884Y-58393328D01*
X89108884Y-58393328D02*
X88894598Y-58321900D01*
X88894598Y-58321900D02*
X88751741Y-58179042D01*
X88751741Y-58179042D02*
X88680312Y-58036185D01*
X88680312Y-58036185D02*
X88608884Y-57750471D01*
X88608884Y-57750471D02*
X88608884Y-57536185D01*
X88608884Y-57536185D02*
X88680312Y-57250471D01*
X88680312Y-57250471D02*
X88751741Y-57107614D01*
X88751741Y-57107614D02*
X88894598Y-56964757D01*
X88894598Y-56964757D02*
X89108884Y-56893328D01*
X89108884Y-56893328D02*
X89251741Y-56893328D01*
X89251741Y-56893328D02*
X89466027Y-56964757D01*
X89466027Y-56964757D02*
X89537455Y-57036185D01*
X90823170Y-58393328D02*
X90823170Y-57607614D01*
X90823170Y-57607614D02*
X90751741Y-57464757D01*
X90751741Y-57464757D02*
X90608884Y-57393328D01*
X90608884Y-57393328D02*
X90323170Y-57393328D01*
X90323170Y-57393328D02*
X90180312Y-57464757D01*
X90823170Y-58321900D02*
X90680312Y-58393328D01*
X90680312Y-58393328D02*
X90323170Y-58393328D01*
X90323170Y-58393328D02*
X90180312Y-58321900D01*
X90180312Y-58321900D02*
X90108884Y-58179042D01*
X90108884Y-58179042D02*
X90108884Y-58036185D01*
X90108884Y-58036185D02*
X90180312Y-57893328D01*
X90180312Y-57893328D02*
X90323170Y-57821900D01*
X90323170Y-57821900D02*
X90680312Y-57821900D01*
X90680312Y-57821900D02*
X90823170Y-57750471D01*
X92180313Y-58393328D02*
X92180313Y-56893328D01*
X92180313Y-58321900D02*
X92037455Y-58393328D01*
X92037455Y-58393328D02*
X91751741Y-58393328D01*
X91751741Y-58393328D02*
X91608884Y-58321900D01*
X91608884Y-58321900D02*
X91537455Y-58250471D01*
X91537455Y-58250471D02*
X91466027Y-58107614D01*
X91466027Y-58107614D02*
X91466027Y-57679042D01*
X91466027Y-57679042D02*
X91537455Y-57536185D01*
X91537455Y-57536185D02*
X91608884Y-57464757D01*
X91608884Y-57464757D02*
X91751741Y-57393328D01*
X91751741Y-57393328D02*
X92037455Y-57393328D01*
X92037455Y-57393328D02*
X92180313Y-57464757D01*
X94037455Y-57607614D02*
X94537455Y-57607614D01*
X94751741Y-58393328D02*
X94037455Y-58393328D01*
X94037455Y-58393328D02*
X94037455Y-56893328D01*
X94037455Y-56893328D02*
X94751741Y-56893328D01*
X95394598Y-58250471D02*
X95466027Y-58321900D01*
X95466027Y-58321900D02*
X95394598Y-58393328D01*
X95394598Y-58393328D02*
X95323170Y-58321900D01*
X95323170Y-58321900D02*
X95394598Y-58250471D01*
X95394598Y-58250471D02*
X95394598Y-58393328D01*
X96108884Y-58393328D02*
X96108884Y-56893328D01*
X96108884Y-56893328D02*
X96466027Y-56893328D01*
X96466027Y-56893328D02*
X96680313Y-56964757D01*
X96680313Y-56964757D02*
X96823170Y-57107614D01*
X96823170Y-57107614D02*
X96894599Y-57250471D01*
X96894599Y-57250471D02*
X96966027Y-57536185D01*
X96966027Y-57536185D02*
X96966027Y-57750471D01*
X96966027Y-57750471D02*
X96894599Y-58036185D01*
X96894599Y-58036185D02*
X96823170Y-58179042D01*
X96823170Y-58179042D02*
X96680313Y-58321900D01*
X96680313Y-58321900D02*
X96466027Y-58393328D01*
X96466027Y-58393328D02*
X96108884Y-58393328D01*
X97608884Y-58250471D02*
X97680313Y-58321900D01*
X97680313Y-58321900D02*
X97608884Y-58393328D01*
X97608884Y-58393328D02*
X97537456Y-58321900D01*
X97537456Y-58321900D02*
X97608884Y-58250471D01*
X97608884Y-58250471D02*
X97608884Y-58393328D01*
X98251742Y-57964757D02*
X98966028Y-57964757D01*
X98108885Y-58393328D02*
X98608885Y-56893328D01*
X98608885Y-56893328D02*
X99108885Y-58393328D01*
X99608884Y-58250471D02*
X99680313Y-58321900D01*
X99680313Y-58321900D02*
X99608884Y-58393328D01*
X99608884Y-58393328D02*
X99537456Y-58321900D01*
X99537456Y-58321900D02*
X99608884Y-58250471D01*
X99608884Y-58250471D02*
X99608884Y-58393328D01*
X101680313Y-57536185D02*
X101537456Y-57464757D01*
X101537456Y-57464757D02*
X101466027Y-57393328D01*
X101466027Y-57393328D02*
X101394599Y-57250471D01*
X101394599Y-57250471D02*
X101394599Y-57179042D01*
X101394599Y-57179042D02*
X101466027Y-57036185D01*
X101466027Y-57036185D02*
X101537456Y-56964757D01*
X101537456Y-56964757D02*
X101680313Y-56893328D01*
X101680313Y-56893328D02*
X101966027Y-56893328D01*
X101966027Y-56893328D02*
X102108885Y-56964757D01*
X102108885Y-56964757D02*
X102180313Y-57036185D01*
X102180313Y-57036185D02*
X102251742Y-57179042D01*
X102251742Y-57179042D02*
X102251742Y-57250471D01*
X102251742Y-57250471D02*
X102180313Y-57393328D01*
X102180313Y-57393328D02*
X102108885Y-57464757D01*
X102108885Y-57464757D02*
X101966027Y-57536185D01*
X101966027Y-57536185D02*
X101680313Y-57536185D01*
X101680313Y-57536185D02*
X101537456Y-57607614D01*
X101537456Y-57607614D02*
X101466027Y-57679042D01*
X101466027Y-57679042D02*
X101394599Y-57821900D01*
X101394599Y-57821900D02*
X101394599Y-58107614D01*
X101394599Y-58107614D02*
X101466027Y-58250471D01*
X101466027Y-58250471D02*
X101537456Y-58321900D01*
X101537456Y-58321900D02*
X101680313Y-58393328D01*
X101680313Y-58393328D02*
X101966027Y-58393328D01*
X101966027Y-58393328D02*
X102108885Y-58321900D01*
X102108885Y-58321900D02*
X102180313Y-58250471D01*
X102180313Y-58250471D02*
X102251742Y-58107614D01*
X102251742Y-58107614D02*
X102251742Y-57821900D01*
X102251742Y-57821900D02*
X102180313Y-57679042D01*
X102180313Y-57679042D02*
X102108885Y-57607614D01*
X102108885Y-57607614D02*
X101966027Y-57536185D01*
X102894598Y-58250471D02*
X102966027Y-58321900D01*
X102966027Y-58321900D02*
X102894598Y-58393328D01*
X102894598Y-58393328D02*
X102823170Y-58321900D01*
X102823170Y-58321900D02*
X102894598Y-58250471D01*
X102894598Y-58250471D02*
X102894598Y-58393328D01*
X103894599Y-56893328D02*
X104037456Y-56893328D01*
X104037456Y-56893328D02*
X104180313Y-56964757D01*
X104180313Y-56964757D02*
X104251742Y-57036185D01*
X104251742Y-57036185D02*
X104323170Y-57179042D01*
X104323170Y-57179042D02*
X104394599Y-57464757D01*
X104394599Y-57464757D02*
X104394599Y-57821900D01*
X104394599Y-57821900D02*
X104323170Y-58107614D01*
X104323170Y-58107614D02*
X104251742Y-58250471D01*
X104251742Y-58250471D02*
X104180313Y-58321900D01*
X104180313Y-58321900D02*
X104037456Y-58393328D01*
X104037456Y-58393328D02*
X103894599Y-58393328D01*
X103894599Y-58393328D02*
X103751742Y-58321900D01*
X103751742Y-58321900D02*
X103680313Y-58250471D01*
X103680313Y-58250471D02*
X103608884Y-58107614D01*
X103608884Y-58107614D02*
X103537456Y-57821900D01*
X103537456Y-57821900D02*
X103537456Y-57464757D01*
X103537456Y-57464757D02*
X103608884Y-57179042D01*
X103608884Y-57179042D02*
X103680313Y-57036185D01*
X103680313Y-57036185D02*
X103751742Y-56964757D01*
X103751742Y-56964757D02*
X103894599Y-56893328D01*
X105037455Y-58250471D02*
X105108884Y-58321900D01*
X105108884Y-58321900D02*
X105037455Y-58393328D01*
X105037455Y-58393328D02*
X104966027Y-58321900D01*
X104966027Y-58321900D02*
X105037455Y-58250471D01*
X105037455Y-58250471D02*
X105037455Y-58393328D01*
X106537456Y-58393328D02*
X105680313Y-58393328D01*
X106108884Y-58393328D02*
X106108884Y-56893328D01*
X106108884Y-56893328D02*
X105966027Y-57107614D01*
X105966027Y-57107614D02*
X105823170Y-57250471D01*
X105823170Y-57250471D02*
X105680313Y-57321900D01*
D10*
D11*
X85010200Y-53307200D02*
X193010200Y-53307200D01*
D10*
D12*
X172421853Y-55585528D02*
X171921853Y-54871242D01*
X171564710Y-55585528D02*
X171564710Y-54085528D01*
X171564710Y-54085528D02*
X172136139Y-54085528D01*
X172136139Y-54085528D02*
X172278996Y-54156957D01*
X172278996Y-54156957D02*
X172350425Y-54228385D01*
X172350425Y-54228385D02*
X172421853Y-54371242D01*
X172421853Y-54371242D02*
X172421853Y-54585528D01*
X172421853Y-54585528D02*
X172350425Y-54728385D01*
X172350425Y-54728385D02*
X172278996Y-54799814D01*
X172278996Y-54799814D02*
X172136139Y-54871242D01*
X172136139Y-54871242D02*
X171564710Y-54871242D01*
X173636139Y-55514100D02*
X173493282Y-55585528D01*
X173493282Y-55585528D02*
X173207568Y-55585528D01*
X173207568Y-55585528D02*
X173064710Y-55514100D01*
X173064710Y-55514100D02*
X172993282Y-55371242D01*
X172993282Y-55371242D02*
X172993282Y-54799814D01*
X172993282Y-54799814D02*
X173064710Y-54656957D01*
X173064710Y-54656957D02*
X173207568Y-54585528D01*
X173207568Y-54585528D02*
X173493282Y-54585528D01*
X173493282Y-54585528D02*
X173636139Y-54656957D01*
X173636139Y-54656957D02*
X173707568Y-54799814D01*
X173707568Y-54799814D02*
X173707568Y-54942671D01*
X173707568Y-54942671D02*
X172993282Y-55085528D01*
X174207567Y-54585528D02*
X174564710Y-55585528D01*
X174564710Y-55585528D02*
X174921853Y-54585528D01*
X175493281Y-55442671D02*
X175564710Y-55514100D01*
X175564710Y-55514100D02*
X175493281Y-55585528D01*
X175493281Y-55585528D02*
X175421853Y-55514100D01*
X175421853Y-55514100D02*
X175493281Y-55442671D01*
X175493281Y-55442671D02*
X175493281Y-55585528D01*
X175493281Y-54656957D02*
X175564710Y-54728385D01*
X175564710Y-54728385D02*
X175493281Y-54799814D01*
X175493281Y-54799814D02*
X175421853Y-54728385D01*
X175421853Y-54728385D02*
X175493281Y-54656957D01*
X175493281Y-54656957D02*
X175493281Y-54799814D01*
X177636139Y-54085528D02*
X177778996Y-54085528D01*
X177778996Y-54085528D02*
X177921853Y-54156957D01*
X177921853Y-54156957D02*
X177993282Y-54228385D01*
X177993282Y-54228385D02*
X178064710Y-54371242D01*
X178064710Y-54371242D02*
X178136139Y-54656957D01*
X178136139Y-54656957D02*
X178136139Y-55014100D01*
X178136139Y-55014100D02*
X178064710Y-55299814D01*
X178064710Y-55299814D02*
X177993282Y-55442671D01*
X177993282Y-55442671D02*
X177921853Y-55514100D01*
X177921853Y-55514100D02*
X177778996Y-55585528D01*
X177778996Y-55585528D02*
X177636139Y-55585528D01*
X177636139Y-55585528D02*
X177493282Y-55514100D01*
X177493282Y-55514100D02*
X177421853Y-55442671D01*
X177421853Y-55442671D02*
X177350424Y-55299814D01*
X177350424Y-55299814D02*
X177278996Y-55014100D01*
X177278996Y-55014100D02*
X177278996Y-54656957D01*
X177278996Y-54656957D02*
X177350424Y-54371242D01*
X177350424Y-54371242D02*
X177421853Y-54228385D01*
X177421853Y-54228385D02*
X177493282Y-54156957D01*
X177493282Y-54156957D02*
X177636139Y-54085528D01*
X178778995Y-55442671D02*
X178850424Y-55514100D01*
X178850424Y-55514100D02*
X178778995Y-55585528D01*
X178778995Y-55585528D02*
X178707567Y-55514100D01*
X178707567Y-55514100D02*
X178778995Y-55442671D01*
X178778995Y-55442671D02*
X178778995Y-55585528D01*
X179350424Y-54085528D02*
X180278996Y-54085528D01*
X180278996Y-54085528D02*
X179778996Y-54656957D01*
X179778996Y-54656957D02*
X179993281Y-54656957D01*
X179993281Y-54656957D02*
X180136139Y-54728385D01*
X180136139Y-54728385D02*
X180207567Y-54799814D01*
X180207567Y-54799814D02*
X180278996Y-54942671D01*
X180278996Y-54942671D02*
X180278996Y-55299814D01*
X180278996Y-55299814D02*
X180207567Y-55442671D01*
X180207567Y-55442671D02*
X180136139Y-55514100D01*
X180136139Y-55514100D02*
X179993281Y-55585528D01*
X179993281Y-55585528D02*
X179564710Y-55585528D01*
X179564710Y-55585528D02*
X179421853Y-55514100D01*
X179421853Y-55514100D02*
X179350424Y-55442671D01*
X181707567Y-55585528D02*
X180850424Y-55585528D01*
X181278995Y-55585528D02*
X181278995Y-54085528D01*
X181278995Y-54085528D02*
X181136138Y-54299814D01*
X181136138Y-54299814D02*
X180993281Y-54442671D01*
X180993281Y-54442671D02*
X180850424Y-54514100D01*
D10*
D11*
X86394598Y-55521900D02*
X86608884Y-55593328D01*
X86608884Y-55593328D02*
X86966026Y-55593328D01*
X86966026Y-55593328D02*
X87108884Y-55521900D01*
X87108884Y-55521900D02*
X87180312Y-55450471D01*
X87180312Y-55450471D02*
X87251741Y-55307614D01*
X87251741Y-55307614D02*
X87251741Y-55164757D01*
X87251741Y-55164757D02*
X87180312Y-55021900D01*
X87180312Y-55021900D02*
X87108884Y-54950471D01*
X87108884Y-54950471D02*
X86966026Y-54879042D01*
X86966026Y-54879042D02*
X86680312Y-54807614D01*
X86680312Y-54807614D02*
X86537455Y-54736185D01*
X86537455Y-54736185D02*
X86466026Y-54664757D01*
X86466026Y-54664757D02*
X86394598Y-54521900D01*
X86394598Y-54521900D02*
X86394598Y-54379042D01*
X86394598Y-54379042D02*
X86466026Y-54236185D01*
X86466026Y-54236185D02*
X86537455Y-54164757D01*
X86537455Y-54164757D02*
X86680312Y-54093328D01*
X86680312Y-54093328D02*
X87037455Y-54093328D01*
X87037455Y-54093328D02*
X87251741Y-54164757D01*
X87894597Y-55593328D02*
X87894597Y-54593328D01*
X87894597Y-54093328D02*
X87823169Y-54164757D01*
X87823169Y-54164757D02*
X87894597Y-54236185D01*
X87894597Y-54236185D02*
X87966026Y-54164757D01*
X87966026Y-54164757D02*
X87894597Y-54093328D01*
X87894597Y-54093328D02*
X87894597Y-54236185D01*
X88466026Y-54593328D02*
X89251741Y-54593328D01*
X89251741Y-54593328D02*
X88466026Y-55593328D01*
X88466026Y-55593328D02*
X89251741Y-55593328D01*
X90394598Y-55521900D02*
X90251741Y-55593328D01*
X90251741Y-55593328D02*
X89966027Y-55593328D01*
X89966027Y-55593328D02*
X89823169Y-55521900D01*
X89823169Y-55521900D02*
X89751741Y-55379042D01*
X89751741Y-55379042D02*
X89751741Y-54807614D01*
X89751741Y-54807614D02*
X89823169Y-54664757D01*
X89823169Y-54664757D02*
X89966027Y-54593328D01*
X89966027Y-54593328D02*
X90251741Y-54593328D01*
X90251741Y-54593328D02*
X90394598Y-54664757D01*
X90394598Y-54664757D02*
X90466027Y-54807614D01*
X90466027Y-54807614D02*
X90466027Y-54950471D01*
X90466027Y-54950471D02*
X89751741Y-55093328D01*
X91108883Y-55450471D02*
X91180312Y-55521900D01*
X91180312Y-55521900D02*
X91108883Y-55593328D01*
X91108883Y-55593328D02*
X91037455Y-55521900D01*
X91037455Y-55521900D02*
X91108883Y-55450471D01*
X91108883Y-55450471D02*
X91108883Y-55593328D01*
X91108883Y-54664757D02*
X91180312Y-54736185D01*
X91180312Y-54736185D02*
X91108883Y-54807614D01*
X91108883Y-54807614D02*
X91037455Y-54736185D01*
X91037455Y-54736185D02*
X91108883Y-54664757D01*
X91108883Y-54664757D02*
X91108883Y-54807614D01*
X92894598Y-55164757D02*
X93608884Y-55164757D01*
X92751741Y-55593328D02*
X93251741Y-54093328D01*
X93251741Y-54093328D02*
X93751741Y-55593328D01*
X94894598Y-54593328D02*
X94894598Y-55593328D01*
X94537455Y-54021900D02*
X94180312Y-55093328D01*
X94180312Y-55093328D02*
X95108883Y-55093328D01*
D10*
D11*
X171466026Y-58393328D02*
X171466026Y-56893328D01*
X172823170Y-58393328D02*
X172823170Y-56893328D01*
X172823170Y-58321900D02*
X172680312Y-58393328D01*
X172680312Y-58393328D02*
X172394598Y-58393328D01*
X172394598Y-58393328D02*
X172251741Y-58321900D01*
X172251741Y-58321900D02*
X172180312Y-58250471D01*
X172180312Y-58250471D02*
X172108884Y-58107614D01*
X172108884Y-58107614D02*
X172108884Y-57679042D01*
X172108884Y-57679042D02*
X172180312Y-57536185D01*
X172180312Y-57536185D02*
X172251741Y-57464757D01*
X172251741Y-57464757D02*
X172394598Y-57393328D01*
X172394598Y-57393328D02*
X172680312Y-57393328D01*
X172680312Y-57393328D02*
X172823170Y-57464757D01*
X173537455Y-58250471D02*
X173608884Y-58321900D01*
X173608884Y-58321900D02*
X173537455Y-58393328D01*
X173537455Y-58393328D02*
X173466027Y-58321900D01*
X173466027Y-58321900D02*
X173537455Y-58250471D01*
X173537455Y-58250471D02*
X173537455Y-58393328D01*
X173537455Y-57464757D02*
X173608884Y-57536185D01*
X173608884Y-57536185D02*
X173537455Y-57607614D01*
X173537455Y-57607614D02*
X173466027Y-57536185D01*
X173466027Y-57536185D02*
X173537455Y-57464757D01*
X173537455Y-57464757D02*
X173537455Y-57607614D01*
X176180313Y-58393328D02*
X175323170Y-58393328D01*
X175751741Y-58393328D02*
X175751741Y-56893328D01*
X175751741Y-56893328D02*
X175608884Y-57107614D01*
X175608884Y-57107614D02*
X175466027Y-57250471D01*
X175466027Y-57250471D02*
X175323170Y-57321900D01*
X177894598Y-56821900D02*
X176608884Y-58750471D01*
X179180313Y-58393328D02*
X178323170Y-58393328D01*
X178751741Y-58393328D02*
X178751741Y-56893328D01*
X178751741Y-56893328D02*
X178608884Y-57107614D01*
X178608884Y-57107614D02*
X178466027Y-57250471D01*
X178466027Y-57250471D02*
X178323170Y-57321900D01*
D10*
D11*
X85010200Y-49307200D02*
X193010200Y-49307200D01*
D10*
D13*
X86701928Y-50011638D02*
X87844785Y-50011638D01*
X87023357Y-52011638D02*
X87273357Y-50011638D01*
X88261452Y-52011638D02*
X88428119Y-50678304D01*
X88511452Y-50011638D02*
X88404309Y-50106876D01*
X88404309Y-50106876D02*
X88487643Y-50202114D01*
X88487643Y-50202114D02*
X88594786Y-50106876D01*
X88594786Y-50106876D02*
X88511452Y-50011638D01*
X88511452Y-50011638D02*
X88487643Y-50202114D01*
X89094786Y-50678304D02*
X89856690Y-50678304D01*
X89463833Y-50011638D02*
X89249548Y-51725923D01*
X89249548Y-51725923D02*
X89320976Y-51916400D01*
X89320976Y-51916400D02*
X89499548Y-52011638D01*
X89499548Y-52011638D02*
X89690024Y-52011638D01*
X90642405Y-52011638D02*
X90463833Y-51916400D01*
X90463833Y-51916400D02*
X90392405Y-51725923D01*
X90392405Y-51725923D02*
X90606690Y-50011638D01*
X92178119Y-51916400D02*
X91975738Y-52011638D01*
X91975738Y-52011638D02*
X91594785Y-52011638D01*
X91594785Y-52011638D02*
X91416214Y-51916400D01*
X91416214Y-51916400D02*
X91344785Y-51725923D01*
X91344785Y-51725923D02*
X91440024Y-50964019D01*
X91440024Y-50964019D02*
X91559071Y-50773542D01*
X91559071Y-50773542D02*
X91761452Y-50678304D01*
X91761452Y-50678304D02*
X92142404Y-50678304D01*
X92142404Y-50678304D02*
X92320976Y-50773542D01*
X92320976Y-50773542D02*
X92392404Y-50964019D01*
X92392404Y-50964019D02*
X92368595Y-51154495D01*
X92368595Y-51154495D02*
X91392404Y-51344971D01*
X93142405Y-51821161D02*
X93225738Y-51916400D01*
X93225738Y-51916400D02*
X93118595Y-52011638D01*
X93118595Y-52011638D02*
X93035262Y-51916400D01*
X93035262Y-51916400D02*
X93142405Y-51821161D01*
X93142405Y-51821161D02*
X93118595Y-52011638D01*
X93273357Y-50773542D02*
X93356690Y-50868780D01*
X93356690Y-50868780D02*
X93249548Y-50964019D01*
X93249548Y-50964019D02*
X93166214Y-50868780D01*
X93166214Y-50868780D02*
X93273357Y-50773542D01*
X93273357Y-50773542D02*
X93249548Y-50964019D01*
X96547167Y-52011638D02*
X95594786Y-52011638D01*
X95594786Y-52011638D02*
X95844786Y-50011638D01*
X98380501Y-51821161D02*
X98273358Y-51916400D01*
X98273358Y-51916400D02*
X97975739Y-52011638D01*
X97975739Y-52011638D02*
X97785263Y-52011638D01*
X97785263Y-52011638D02*
X97511453Y-51916400D01*
X97511453Y-51916400D02*
X97344787Y-51725923D01*
X97344787Y-51725923D02*
X97273358Y-51535447D01*
X97273358Y-51535447D02*
X97225739Y-51154495D01*
X97225739Y-51154495D02*
X97261453Y-50868780D01*
X97261453Y-50868780D02*
X97404310Y-50487828D01*
X97404310Y-50487828D02*
X97523358Y-50297352D01*
X97523358Y-50297352D02*
X97737644Y-50106876D01*
X97737644Y-50106876D02*
X98035263Y-50011638D01*
X98035263Y-50011638D02*
X98225739Y-50011638D01*
X98225739Y-50011638D02*
X98499549Y-50106876D01*
X98499549Y-50106876D02*
X98582882Y-50202114D01*
X100356691Y-52011638D02*
X99809072Y-51059257D01*
X99213834Y-52011638D02*
X99463834Y-50011638D01*
X99463834Y-50011638D02*
X100225739Y-50011638D01*
X100225739Y-50011638D02*
X100404310Y-50106876D01*
X100404310Y-50106876D02*
X100487644Y-50202114D01*
X100487644Y-50202114D02*
X100559072Y-50392590D01*
X100559072Y-50392590D02*
X100523358Y-50678304D01*
X100523358Y-50678304D02*
X100404310Y-50868780D01*
X100404310Y-50868780D02*
X100297168Y-50964019D01*
X100297168Y-50964019D02*
X100094787Y-51059257D01*
X100094787Y-51059257D02*
X99332882Y-51059257D01*
X101213834Y-52011638D02*
X101463834Y-50011638D01*
X101463834Y-50011638D02*
X101940025Y-50011638D01*
X101940025Y-50011638D02*
X102213834Y-50106876D01*
X102213834Y-50106876D02*
X102380501Y-50297352D01*
X102380501Y-50297352D02*
X102451929Y-50487828D01*
X102451929Y-50487828D02*
X102499549Y-50868780D01*
X102499549Y-50868780D02*
X102463834Y-51154495D01*
X102463834Y-51154495D02*
X102320977Y-51535447D01*
X102320977Y-51535447D02*
X102201929Y-51725923D01*
X102201929Y-51725923D02*
X101987644Y-51916400D01*
X101987644Y-51916400D02*
X101690025Y-52011638D01*
X101690025Y-52011638D02*
X101213834Y-52011638D01*
X103178120Y-50011638D02*
X104320977Y-50011638D01*
X103499549Y-52011638D02*
X103749549Y-50011638D01*
X104832882Y-51249733D02*
X106356692Y-51249733D01*
X107178120Y-50011638D02*
X108320977Y-50011638D01*
X107499549Y-52011638D02*
X107749549Y-50011638D01*
X109511454Y-51916400D02*
X109309073Y-52011638D01*
X109309073Y-52011638D02*
X108928120Y-52011638D01*
X108928120Y-52011638D02*
X108749549Y-51916400D01*
X108749549Y-51916400D02*
X108678120Y-51725923D01*
X108678120Y-51725923D02*
X108773359Y-50964019D01*
X108773359Y-50964019D02*
X108892406Y-50773542D01*
X108892406Y-50773542D02*
X109094787Y-50678304D01*
X109094787Y-50678304D02*
X109475739Y-50678304D01*
X109475739Y-50678304D02*
X109654311Y-50773542D01*
X109654311Y-50773542D02*
X109725739Y-50964019D01*
X109725739Y-50964019D02*
X109701930Y-51154495D01*
X109701930Y-51154495D02*
X108725739Y-51344971D01*
X110368597Y-51916400D02*
X110547168Y-52011638D01*
X110547168Y-52011638D02*
X110928121Y-52011638D01*
X110928121Y-52011638D02*
X111130502Y-51916400D01*
X111130502Y-51916400D02*
X111249549Y-51725923D01*
X111249549Y-51725923D02*
X111261454Y-51630685D01*
X111261454Y-51630685D02*
X111190025Y-51440209D01*
X111190025Y-51440209D02*
X111011454Y-51344971D01*
X111011454Y-51344971D02*
X110725740Y-51344971D01*
X110725740Y-51344971D02*
X110547168Y-51249733D01*
X110547168Y-51249733D02*
X110475740Y-51059257D01*
X110475740Y-51059257D02*
X110487645Y-50964019D01*
X110487645Y-50964019D02*
X110606692Y-50773542D01*
X110606692Y-50773542D02*
X110809073Y-50678304D01*
X110809073Y-50678304D02*
X111094787Y-50678304D01*
X111094787Y-50678304D02*
X111273359Y-50773542D01*
X111951931Y-50678304D02*
X112713835Y-50678304D01*
X112320978Y-50011638D02*
X112106693Y-51725923D01*
X112106693Y-51725923D02*
X112178121Y-51916400D01*
X112178121Y-51916400D02*
X112356693Y-52011638D01*
X112356693Y-52011638D02*
X112547169Y-52011638D01*
X113987645Y-51916400D02*
X113785264Y-52011638D01*
X113785264Y-52011638D02*
X113404311Y-52011638D01*
X113404311Y-52011638D02*
X113225740Y-51916400D01*
X113225740Y-51916400D02*
X113154311Y-51725923D01*
X113154311Y-51725923D02*
X113249550Y-50964019D01*
X113249550Y-50964019D02*
X113368597Y-50773542D01*
X113368597Y-50773542D02*
X113570978Y-50678304D01*
X113570978Y-50678304D02*
X113951930Y-50678304D01*
X113951930Y-50678304D02*
X114130502Y-50773542D01*
X114130502Y-50773542D02*
X114201930Y-50964019D01*
X114201930Y-50964019D02*
X114178121Y-51154495D01*
X114178121Y-51154495D02*
X113201930Y-51344971D01*
X114928121Y-52011638D02*
X115094788Y-50678304D01*
X115047169Y-51059257D02*
X115166216Y-50868780D01*
X115166216Y-50868780D02*
X115273359Y-50773542D01*
X115273359Y-50773542D02*
X115475740Y-50678304D01*
X115475740Y-50678304D02*
X115666216Y-50678304D01*
D10*
D11*
X86966026Y-47407614D02*
X86466026Y-47407614D01*
X86466026Y-48193328D02*
X86466026Y-46693328D01*
X86466026Y-46693328D02*
X87180312Y-46693328D01*
X87751740Y-48193328D02*
X87751740Y-47193328D01*
X87751740Y-46693328D02*
X87680312Y-46764757D01*
X87680312Y-46764757D02*
X87751740Y-46836185D01*
X87751740Y-46836185D02*
X87823169Y-46764757D01*
X87823169Y-46764757D02*
X87751740Y-46693328D01*
X87751740Y-46693328D02*
X87751740Y-46836185D01*
X88680312Y-48193328D02*
X88537455Y-48121900D01*
X88537455Y-48121900D02*
X88466026Y-47979042D01*
X88466026Y-47979042D02*
X88466026Y-46693328D01*
X89823169Y-48121900D02*
X89680312Y-48193328D01*
X89680312Y-48193328D02*
X89394598Y-48193328D01*
X89394598Y-48193328D02*
X89251740Y-48121900D01*
X89251740Y-48121900D02*
X89180312Y-47979042D01*
X89180312Y-47979042D02*
X89180312Y-47407614D01*
X89180312Y-47407614D02*
X89251740Y-47264757D01*
X89251740Y-47264757D02*
X89394598Y-47193328D01*
X89394598Y-47193328D02*
X89680312Y-47193328D01*
X89680312Y-47193328D02*
X89823169Y-47264757D01*
X89823169Y-47264757D02*
X89894598Y-47407614D01*
X89894598Y-47407614D02*
X89894598Y-47550471D01*
X89894598Y-47550471D02*
X89180312Y-47693328D01*
X90537454Y-48050471D02*
X90608883Y-48121900D01*
X90608883Y-48121900D02*
X90537454Y-48193328D01*
X90537454Y-48193328D02*
X90466026Y-48121900D01*
X90466026Y-48121900D02*
X90537454Y-48050471D01*
X90537454Y-48050471D02*
X90537454Y-48193328D01*
X90537454Y-47264757D02*
X90608883Y-47336185D01*
X90608883Y-47336185D02*
X90537454Y-47407614D01*
X90537454Y-47407614D02*
X90466026Y-47336185D01*
X90466026Y-47336185D02*
X90537454Y-47264757D01*
X90537454Y-47264757D02*
X90537454Y-47407614D01*
X93108883Y-48193328D02*
X92394597Y-48193328D01*
X92394597Y-48193328D02*
X92394597Y-46693328D01*
X94466026Y-48050471D02*
X94394598Y-48121900D01*
X94394598Y-48121900D02*
X94180312Y-48193328D01*
X94180312Y-48193328D02*
X94037455Y-48193328D01*
X94037455Y-48193328D02*
X93823169Y-48121900D01*
X93823169Y-48121900D02*
X93680312Y-47979042D01*
X93680312Y-47979042D02*
X93608883Y-47836185D01*
X93608883Y-47836185D02*
X93537455Y-47550471D01*
X93537455Y-47550471D02*
X93537455Y-47336185D01*
X93537455Y-47336185D02*
X93608883Y-47050471D01*
X93608883Y-47050471D02*
X93680312Y-46907614D01*
X93680312Y-46907614D02*
X93823169Y-46764757D01*
X93823169Y-46764757D02*
X94037455Y-46693328D01*
X94037455Y-46693328D02*
X94180312Y-46693328D01*
X94180312Y-46693328D02*
X94394598Y-46764757D01*
X94394598Y-46764757D02*
X94466026Y-46836185D01*
X95966026Y-48193328D02*
X95466026Y-47479042D01*
X95108883Y-48193328D02*
X95108883Y-46693328D01*
X95108883Y-46693328D02*
X95680312Y-46693328D01*
X95680312Y-46693328D02*
X95823169Y-46764757D01*
X95823169Y-46764757D02*
X95894598Y-46836185D01*
X95894598Y-46836185D02*
X95966026Y-46979042D01*
X95966026Y-46979042D02*
X95966026Y-47193328D01*
X95966026Y-47193328D02*
X95894598Y-47336185D01*
X95894598Y-47336185D02*
X95823169Y-47407614D01*
X95823169Y-47407614D02*
X95680312Y-47479042D01*
X95680312Y-47479042D02*
X95108883Y-47479042D01*
X96608883Y-48193328D02*
X96608883Y-46693328D01*
X96608883Y-46693328D02*
X96966026Y-46693328D01*
X96966026Y-46693328D02*
X97180312Y-46764757D01*
X97180312Y-46764757D02*
X97323169Y-46907614D01*
X97323169Y-46907614D02*
X97394598Y-47050471D01*
X97394598Y-47050471D02*
X97466026Y-47336185D01*
X97466026Y-47336185D02*
X97466026Y-47550471D01*
X97466026Y-47550471D02*
X97394598Y-47836185D01*
X97394598Y-47836185D02*
X97323169Y-47979042D01*
X97323169Y-47979042D02*
X97180312Y-48121900D01*
X97180312Y-48121900D02*
X96966026Y-48193328D01*
X96966026Y-48193328D02*
X96608883Y-48193328D01*
X97894598Y-46693328D02*
X98751741Y-46693328D01*
X98323169Y-48193328D02*
X98323169Y-46693328D01*
X99251740Y-47621900D02*
X100394598Y-47621900D01*
X100894598Y-46693328D02*
X101751741Y-46693328D01*
X101323169Y-48193328D02*
X101323169Y-46693328D01*
X102823169Y-48121900D02*
X102680312Y-48193328D01*
X102680312Y-48193328D02*
X102394598Y-48193328D01*
X102394598Y-48193328D02*
X102251740Y-48121900D01*
X102251740Y-48121900D02*
X102180312Y-47979042D01*
X102180312Y-47979042D02*
X102180312Y-47407614D01*
X102180312Y-47407614D02*
X102251740Y-47264757D01*
X102251740Y-47264757D02*
X102394598Y-47193328D01*
X102394598Y-47193328D02*
X102680312Y-47193328D01*
X102680312Y-47193328D02*
X102823169Y-47264757D01*
X102823169Y-47264757D02*
X102894598Y-47407614D01*
X102894598Y-47407614D02*
X102894598Y-47550471D01*
X102894598Y-47550471D02*
X102180312Y-47693328D01*
X103466026Y-48121900D02*
X103608883Y-48193328D01*
X103608883Y-48193328D02*
X103894597Y-48193328D01*
X103894597Y-48193328D02*
X104037454Y-48121900D01*
X104037454Y-48121900D02*
X104108883Y-47979042D01*
X104108883Y-47979042D02*
X104108883Y-47907614D01*
X104108883Y-47907614D02*
X104037454Y-47764757D01*
X104037454Y-47764757D02*
X103894597Y-47693328D01*
X103894597Y-47693328D02*
X103680312Y-47693328D01*
X103680312Y-47693328D02*
X103537454Y-47621900D01*
X103537454Y-47621900D02*
X103466026Y-47479042D01*
X103466026Y-47479042D02*
X103466026Y-47407614D01*
X103466026Y-47407614D02*
X103537454Y-47264757D01*
X103537454Y-47264757D02*
X103680312Y-47193328D01*
X103680312Y-47193328D02*
X103894597Y-47193328D01*
X103894597Y-47193328D02*
X104037454Y-47264757D01*
X104537455Y-47193328D02*
X105108883Y-47193328D01*
X104751740Y-46693328D02*
X104751740Y-47979042D01*
X104751740Y-47979042D02*
X104823169Y-48121900D01*
X104823169Y-48121900D02*
X104966026Y-48193328D01*
X104966026Y-48193328D02*
X105108883Y-48193328D01*
X106180312Y-48121900D02*
X106037455Y-48193328D01*
X106037455Y-48193328D02*
X105751741Y-48193328D01*
X105751741Y-48193328D02*
X105608883Y-48121900D01*
X105608883Y-48121900D02*
X105537455Y-47979042D01*
X105537455Y-47979042D02*
X105537455Y-47407614D01*
X105537455Y-47407614D02*
X105608883Y-47264757D01*
X105608883Y-47264757D02*
X105751741Y-47193328D01*
X105751741Y-47193328D02*
X106037455Y-47193328D01*
X106037455Y-47193328D02*
X106180312Y-47264757D01*
X106180312Y-47264757D02*
X106251741Y-47407614D01*
X106251741Y-47407614D02*
X106251741Y-47550471D01*
X106251741Y-47550471D02*
X105537455Y-47693328D01*
X106894597Y-48193328D02*
X106894597Y-47193328D01*
X106894597Y-47479042D02*
X106966026Y-47336185D01*
X106966026Y-47336185D02*
X107037455Y-47264757D01*
X107037455Y-47264757D02*
X107180312Y-47193328D01*
X107180312Y-47193328D02*
X107323169Y-47193328D01*
X107823168Y-48050471D02*
X107894597Y-48121900D01*
X107894597Y-48121900D02*
X107823168Y-48193328D01*
X107823168Y-48193328D02*
X107751740Y-48121900D01*
X107751740Y-48121900D02*
X107823168Y-48050471D01*
X107823168Y-48050471D02*
X107823168Y-48193328D01*
X108537454Y-48193328D02*
X108537454Y-46693328D01*
X108680312Y-47621900D02*
X109108883Y-48193328D01*
X109108883Y-47193328D02*
X108537454Y-47764757D01*
X109751740Y-48193328D02*
X109751740Y-47193328D01*
X109751740Y-46693328D02*
X109680312Y-46764757D01*
X109680312Y-46764757D02*
X109751740Y-46836185D01*
X109751740Y-46836185D02*
X109823169Y-46764757D01*
X109823169Y-46764757D02*
X109751740Y-46693328D01*
X109751740Y-46693328D02*
X109751740Y-46836185D01*
X111108884Y-48121900D02*
X110966026Y-48193328D01*
X110966026Y-48193328D02*
X110680312Y-48193328D01*
X110680312Y-48193328D02*
X110537455Y-48121900D01*
X110537455Y-48121900D02*
X110466026Y-48050471D01*
X110466026Y-48050471D02*
X110394598Y-47907614D01*
X110394598Y-47907614D02*
X110394598Y-47479042D01*
X110394598Y-47479042D02*
X110466026Y-47336185D01*
X110466026Y-47336185D02*
X110537455Y-47264757D01*
X110537455Y-47264757D02*
X110680312Y-47193328D01*
X110680312Y-47193328D02*
X110966026Y-47193328D01*
X110966026Y-47193328D02*
X111108884Y-47264757D01*
X112394598Y-48193328D02*
X112394598Y-47407614D01*
X112394598Y-47407614D02*
X112323169Y-47264757D01*
X112323169Y-47264757D02*
X112180312Y-47193328D01*
X112180312Y-47193328D02*
X111894598Y-47193328D01*
X111894598Y-47193328D02*
X111751740Y-47264757D01*
X112394598Y-48121900D02*
X112251740Y-48193328D01*
X112251740Y-48193328D02*
X111894598Y-48193328D01*
X111894598Y-48193328D02*
X111751740Y-48121900D01*
X111751740Y-48121900D02*
X111680312Y-47979042D01*
X111680312Y-47979042D02*
X111680312Y-47836185D01*
X111680312Y-47836185D02*
X111751740Y-47693328D01*
X111751740Y-47693328D02*
X111894598Y-47621900D01*
X111894598Y-47621900D02*
X112251740Y-47621900D01*
X112251740Y-47621900D02*
X112394598Y-47550471D01*
X113751741Y-48193328D02*
X113751741Y-46693328D01*
X113751741Y-48121900D02*
X113608883Y-48193328D01*
X113608883Y-48193328D02*
X113323169Y-48193328D01*
X113323169Y-48193328D02*
X113180312Y-48121900D01*
X113180312Y-48121900D02*
X113108883Y-48050471D01*
X113108883Y-48050471D02*
X113037455Y-47907614D01*
X113037455Y-47907614D02*
X113037455Y-47479042D01*
X113037455Y-47479042D02*
X113108883Y-47336185D01*
X113108883Y-47336185D02*
X113180312Y-47264757D01*
X113180312Y-47264757D02*
X113323169Y-47193328D01*
X113323169Y-47193328D02*
X113608883Y-47193328D01*
X113608883Y-47193328D02*
X113751741Y-47264757D01*
X114108884Y-48336185D02*
X115251741Y-48336185D01*
X115608883Y-47193328D02*
X115608883Y-48693328D01*
X115608883Y-47264757D02*
X115751741Y-47193328D01*
X115751741Y-47193328D02*
X116037455Y-47193328D01*
X116037455Y-47193328D02*
X116180312Y-47264757D01*
X116180312Y-47264757D02*
X116251741Y-47336185D01*
X116251741Y-47336185D02*
X116323169Y-47479042D01*
X116323169Y-47479042D02*
X116323169Y-47907614D01*
X116323169Y-47907614D02*
X116251741Y-48050471D01*
X116251741Y-48050471D02*
X116180312Y-48121900D01*
X116180312Y-48121900D02*
X116037455Y-48193328D01*
X116037455Y-48193328D02*
X115751741Y-48193328D01*
X115751741Y-48193328D02*
X115608883Y-48121900D01*
X117608884Y-48121900D02*
X117466026Y-48193328D01*
X117466026Y-48193328D02*
X117180312Y-48193328D01*
X117180312Y-48193328D02*
X117037455Y-48121900D01*
X117037455Y-48121900D02*
X116966026Y-48050471D01*
X116966026Y-48050471D02*
X116894598Y-47907614D01*
X116894598Y-47907614D02*
X116894598Y-47479042D01*
X116894598Y-47479042D02*
X116966026Y-47336185D01*
X116966026Y-47336185D02*
X117037455Y-47264757D01*
X117037455Y-47264757D02*
X117180312Y-47193328D01*
X117180312Y-47193328D02*
X117466026Y-47193328D01*
X117466026Y-47193328D02*
X117608884Y-47264757D01*
X118251740Y-48193328D02*
X118251740Y-46693328D01*
X118251740Y-47264757D02*
X118394598Y-47193328D01*
X118394598Y-47193328D02*
X118680312Y-47193328D01*
X118680312Y-47193328D02*
X118823169Y-47264757D01*
X118823169Y-47264757D02*
X118894598Y-47336185D01*
X118894598Y-47336185D02*
X118966026Y-47479042D01*
X118966026Y-47479042D02*
X118966026Y-47907614D01*
X118966026Y-47907614D02*
X118894598Y-48050471D01*
X118894598Y-48050471D02*
X118823169Y-48121900D01*
X118823169Y-48121900D02*
X118680312Y-48193328D01*
X118680312Y-48193328D02*
X118394598Y-48193328D01*
X118394598Y-48193328D02*
X118251740Y-48121900D01*
D10*
D11*
X85010200Y-43307200D02*
X193010200Y-43307200D01*
D10*
D11*
X86394598Y-45421900D02*
X86608884Y-45493328D01*
X86608884Y-45493328D02*
X86966026Y-45493328D01*
X86966026Y-45493328D02*
X87108884Y-45421900D01*
X87108884Y-45421900D02*
X87180312Y-45350471D01*
X87180312Y-45350471D02*
X87251741Y-45207614D01*
X87251741Y-45207614D02*
X87251741Y-45064757D01*
X87251741Y-45064757D02*
X87180312Y-44921900D01*
X87180312Y-44921900D02*
X87108884Y-44850471D01*
X87108884Y-44850471D02*
X86966026Y-44779042D01*
X86966026Y-44779042D02*
X86680312Y-44707614D01*
X86680312Y-44707614D02*
X86537455Y-44636185D01*
X86537455Y-44636185D02*
X86466026Y-44564757D01*
X86466026Y-44564757D02*
X86394598Y-44421900D01*
X86394598Y-44421900D02*
X86394598Y-44279042D01*
X86394598Y-44279042D02*
X86466026Y-44136185D01*
X86466026Y-44136185D02*
X86537455Y-44064757D01*
X86537455Y-44064757D02*
X86680312Y-43993328D01*
X86680312Y-43993328D02*
X87037455Y-43993328D01*
X87037455Y-43993328D02*
X87251741Y-44064757D01*
X87894597Y-45493328D02*
X87894597Y-43993328D01*
X88537455Y-45493328D02*
X88537455Y-44707614D01*
X88537455Y-44707614D02*
X88466026Y-44564757D01*
X88466026Y-44564757D02*
X88323169Y-44493328D01*
X88323169Y-44493328D02*
X88108883Y-44493328D01*
X88108883Y-44493328D02*
X87966026Y-44564757D01*
X87966026Y-44564757D02*
X87894597Y-44636185D01*
X89823169Y-45421900D02*
X89680312Y-45493328D01*
X89680312Y-45493328D02*
X89394598Y-45493328D01*
X89394598Y-45493328D02*
X89251740Y-45421900D01*
X89251740Y-45421900D02*
X89180312Y-45279042D01*
X89180312Y-45279042D02*
X89180312Y-44707614D01*
X89180312Y-44707614D02*
X89251740Y-44564757D01*
X89251740Y-44564757D02*
X89394598Y-44493328D01*
X89394598Y-44493328D02*
X89680312Y-44493328D01*
X89680312Y-44493328D02*
X89823169Y-44564757D01*
X89823169Y-44564757D02*
X89894598Y-44707614D01*
X89894598Y-44707614D02*
X89894598Y-44850471D01*
X89894598Y-44850471D02*
X89180312Y-44993328D01*
X91108883Y-45421900D02*
X90966026Y-45493328D01*
X90966026Y-45493328D02*
X90680312Y-45493328D01*
X90680312Y-45493328D02*
X90537454Y-45421900D01*
X90537454Y-45421900D02*
X90466026Y-45279042D01*
X90466026Y-45279042D02*
X90466026Y-44707614D01*
X90466026Y-44707614D02*
X90537454Y-44564757D01*
X90537454Y-44564757D02*
X90680312Y-44493328D01*
X90680312Y-44493328D02*
X90966026Y-44493328D01*
X90966026Y-44493328D02*
X91108883Y-44564757D01*
X91108883Y-44564757D02*
X91180312Y-44707614D01*
X91180312Y-44707614D02*
X91180312Y-44850471D01*
X91180312Y-44850471D02*
X90466026Y-44993328D01*
X91608883Y-44493328D02*
X92180311Y-44493328D01*
X91823168Y-43993328D02*
X91823168Y-45279042D01*
X91823168Y-45279042D02*
X91894597Y-45421900D01*
X91894597Y-45421900D02*
X92037454Y-45493328D01*
X92037454Y-45493328D02*
X92180311Y-45493328D01*
X92680311Y-45350471D02*
X92751740Y-45421900D01*
X92751740Y-45421900D02*
X92680311Y-45493328D01*
X92680311Y-45493328D02*
X92608883Y-45421900D01*
X92608883Y-45421900D02*
X92680311Y-45350471D01*
X92680311Y-45350471D02*
X92680311Y-45493328D01*
X92680311Y-44564757D02*
X92751740Y-44636185D01*
X92751740Y-44636185D02*
X92680311Y-44707614D01*
X92680311Y-44707614D02*
X92608883Y-44636185D01*
X92608883Y-44636185D02*
X92680311Y-44564757D01*
X92680311Y-44564757D02*
X92680311Y-44707614D01*
D10*
D12*
X86993282Y-43056957D02*
X86921853Y-42985528D01*
X86921853Y-42985528D02*
X86778996Y-42771242D01*
X86778996Y-42771242D02*
X86707568Y-42628385D01*
X86707568Y-42628385D02*
X86636139Y-42414100D01*
X86636139Y-42414100D02*
X86564710Y-42056957D01*
X86564710Y-42056957D02*
X86564710Y-41771242D01*
X86564710Y-41771242D02*
X86636139Y-41414100D01*
X86636139Y-41414100D02*
X86707568Y-41199814D01*
X86707568Y-41199814D02*
X86778996Y-41056957D01*
X86778996Y-41056957D02*
X86921853Y-40842671D01*
X86921853Y-40842671D02*
X86993282Y-40771242D01*
X88421853Y-42342671D02*
X88350425Y-42414100D01*
X88350425Y-42414100D02*
X88136139Y-42485528D01*
X88136139Y-42485528D02*
X87993282Y-42485528D01*
X87993282Y-42485528D02*
X87778996Y-42414100D01*
X87778996Y-42414100D02*
X87636139Y-42271242D01*
X87636139Y-42271242D02*
X87564710Y-42128385D01*
X87564710Y-42128385D02*
X87493282Y-41842671D01*
X87493282Y-41842671D02*
X87493282Y-41628385D01*
X87493282Y-41628385D02*
X87564710Y-41342671D01*
X87564710Y-41342671D02*
X87636139Y-41199814D01*
X87636139Y-41199814D02*
X87778996Y-41056957D01*
X87778996Y-41056957D02*
X87993282Y-40985528D01*
X87993282Y-40985528D02*
X88136139Y-40985528D01*
X88136139Y-40985528D02*
X88350425Y-41056957D01*
X88350425Y-41056957D02*
X88421853Y-41128385D01*
X88921853Y-43056957D02*
X88993282Y-42985528D01*
X88993282Y-42985528D02*
X89136139Y-42771242D01*
X89136139Y-42771242D02*
X89207568Y-42628385D01*
X89207568Y-42628385D02*
X89278996Y-42414100D01*
X89278996Y-42414100D02*
X89350425Y-42056957D01*
X89350425Y-42056957D02*
X89350425Y-41771242D01*
X89350425Y-41771242D02*
X89278996Y-41414100D01*
X89278996Y-41414100D02*
X89207568Y-41199814D01*
X89207568Y-41199814D02*
X89136139Y-41056957D01*
X89136139Y-41056957D02*
X88993282Y-40842671D01*
X88993282Y-40842671D02*
X88921853Y-40771242D01*
X91064710Y-40985528D02*
X91421853Y-42485528D01*
X91421853Y-42485528D02*
X91707567Y-41414100D01*
X91707567Y-41414100D02*
X91993282Y-42485528D01*
X91993282Y-42485528D02*
X92350425Y-40985528D01*
X93136139Y-42485528D02*
X92993282Y-42414100D01*
X92993282Y-42414100D02*
X92921853Y-42342671D01*
X92921853Y-42342671D02*
X92850425Y-42199814D01*
X92850425Y-42199814D02*
X92850425Y-41771242D01*
X92850425Y-41771242D02*
X92921853Y-41628385D01*
X92921853Y-41628385D02*
X92993282Y-41556957D01*
X92993282Y-41556957D02*
X93136139Y-41485528D01*
X93136139Y-41485528D02*
X93350425Y-41485528D01*
X93350425Y-41485528D02*
X93493282Y-41556957D01*
X93493282Y-41556957D02*
X93564711Y-41628385D01*
X93564711Y-41628385D02*
X93636139Y-41771242D01*
X93636139Y-41771242D02*
X93636139Y-42199814D01*
X93636139Y-42199814D02*
X93564711Y-42342671D01*
X93564711Y-42342671D02*
X93493282Y-42414100D01*
X93493282Y-42414100D02*
X93350425Y-42485528D01*
X93350425Y-42485528D02*
X93136139Y-42485528D01*
X94921854Y-42485528D02*
X94921854Y-40985528D01*
X94921854Y-42414100D02*
X94778996Y-42485528D01*
X94778996Y-42485528D02*
X94493282Y-42485528D01*
X94493282Y-42485528D02*
X94350425Y-42414100D01*
X94350425Y-42414100D02*
X94278996Y-42342671D01*
X94278996Y-42342671D02*
X94207568Y-42199814D01*
X94207568Y-42199814D02*
X94207568Y-41771242D01*
X94207568Y-41771242D02*
X94278996Y-41628385D01*
X94278996Y-41628385D02*
X94350425Y-41556957D01*
X94350425Y-41556957D02*
X94493282Y-41485528D01*
X94493282Y-41485528D02*
X94778996Y-41485528D01*
X94778996Y-41485528D02*
X94921854Y-41556957D01*
X95850425Y-42485528D02*
X95707568Y-42414100D01*
X95707568Y-42414100D02*
X95636139Y-42342671D01*
X95636139Y-42342671D02*
X95564711Y-42199814D01*
X95564711Y-42199814D02*
X95564711Y-41771242D01*
X95564711Y-41771242D02*
X95636139Y-41628385D01*
X95636139Y-41628385D02*
X95707568Y-41556957D01*
X95707568Y-41556957D02*
X95850425Y-41485528D01*
X95850425Y-41485528D02*
X96064711Y-41485528D01*
X96064711Y-41485528D02*
X96207568Y-41556957D01*
X96207568Y-41556957D02*
X96278997Y-41628385D01*
X96278997Y-41628385D02*
X96350425Y-41771242D01*
X96350425Y-41771242D02*
X96350425Y-42199814D01*
X96350425Y-42199814D02*
X96278997Y-42342671D01*
X96278997Y-42342671D02*
X96207568Y-42414100D01*
X96207568Y-42414100D02*
X96064711Y-42485528D01*
X96064711Y-42485528D02*
X95850425Y-42485528D01*
X96850425Y-40985528D02*
X97207568Y-42485528D01*
X97207568Y-42485528D02*
X97493282Y-41414100D01*
X97493282Y-41414100D02*
X97778997Y-42485528D01*
X97778997Y-42485528D02*
X98136140Y-40985528D01*
X98707568Y-42485528D02*
X98707568Y-41485528D01*
X98707568Y-40985528D02*
X98636140Y-41056957D01*
X98636140Y-41056957D02*
X98707568Y-41128385D01*
X98707568Y-41128385D02*
X98778997Y-41056957D01*
X98778997Y-41056957D02*
X98707568Y-40985528D01*
X98707568Y-40985528D02*
X98707568Y-41128385D01*
X99993283Y-42414100D02*
X99850426Y-42485528D01*
X99850426Y-42485528D02*
X99564712Y-42485528D01*
X99564712Y-42485528D02*
X99421854Y-42414100D01*
X99421854Y-42414100D02*
X99350426Y-42271242D01*
X99350426Y-42271242D02*
X99350426Y-41699814D01*
X99350426Y-41699814D02*
X99421854Y-41556957D01*
X99421854Y-41556957D02*
X99564712Y-41485528D01*
X99564712Y-41485528D02*
X99850426Y-41485528D01*
X99850426Y-41485528D02*
X99993283Y-41556957D01*
X99993283Y-41556957D02*
X100064712Y-41699814D01*
X100064712Y-41699814D02*
X100064712Y-41842671D01*
X100064712Y-41842671D02*
X99350426Y-41985528D01*
X100636140Y-42414100D02*
X100778997Y-42485528D01*
X100778997Y-42485528D02*
X101064711Y-42485528D01*
X101064711Y-42485528D02*
X101207568Y-42414100D01*
X101207568Y-42414100D02*
X101278997Y-42271242D01*
X101278997Y-42271242D02*
X101278997Y-42199814D01*
X101278997Y-42199814D02*
X101207568Y-42056957D01*
X101207568Y-42056957D02*
X101064711Y-41985528D01*
X101064711Y-41985528D02*
X100850426Y-41985528D01*
X100850426Y-41985528D02*
X100707568Y-41914100D01*
X100707568Y-41914100D02*
X100636140Y-41771242D01*
X100636140Y-41771242D02*
X100636140Y-41699814D01*
X100636140Y-41699814D02*
X100707568Y-41556957D01*
X100707568Y-41556957D02*
X100850426Y-41485528D01*
X100850426Y-41485528D02*
X101064711Y-41485528D01*
X101064711Y-41485528D02*
X101207568Y-41556957D01*
X102493283Y-42414100D02*
X102350426Y-42485528D01*
X102350426Y-42485528D02*
X102064712Y-42485528D01*
X102064712Y-42485528D02*
X101921854Y-42414100D01*
X101921854Y-42414100D02*
X101850426Y-42271242D01*
X101850426Y-42271242D02*
X101850426Y-41699814D01*
X101850426Y-41699814D02*
X101921854Y-41556957D01*
X101921854Y-41556957D02*
X102064712Y-41485528D01*
X102064712Y-41485528D02*
X102350426Y-41485528D01*
X102350426Y-41485528D02*
X102493283Y-41556957D01*
X102493283Y-41556957D02*
X102564712Y-41699814D01*
X102564712Y-41699814D02*
X102564712Y-41842671D01*
X102564712Y-41842671D02*
X101850426Y-41985528D01*
X103421854Y-42485528D02*
X103278997Y-42414100D01*
X103278997Y-42414100D02*
X103207568Y-42271242D01*
X103207568Y-42271242D02*
X103207568Y-40985528D01*
D10*
D11*
D10*
D11*
D10*
D11*
D10*
D11*
D10*
D11*
X105010200Y-53307200D02*
X105010200Y-56307200D01*
D10*
D11*
X169010200Y-53307200D02*
X169010200Y-59807200D01*
D14*
X30052000Y50080000D02*
X30000000Y0D01*
X60000Y50080000D02*
X30052000Y50080000D01*
X8000Y0D02*
X60000Y50080000D01*
X30000000Y0D02*
X8000Y0D01*
M02*
