%TF.GenerationSoftware,KiCad,Pcbnew,7.0.8*%
%TF.CreationDate,2023-10-14T20:08:42+02:00*%
%TF.ProjectId,LCRDT-Tester,4c435244-542d-4546-9573-7465722e6b69,0.3*%
%TF.SameCoordinates,Original*%
%TF.FileFunction,Component,L1,Top*%
%TF.FilePolarity,Positive*%
%FSLAX46Y46*%
G04 Gerber Fmt 4.6, Leading zero omitted, Abs format (unit mm)*
G04 Created by KiCad (PCBNEW 7.0.8) date 2023-10-14 20:08:42*
%MOMM*%
%LPD*%
G01*
G04 APERTURE LIST*
%TA.AperFunction,ComponentMain*%
%ADD10C,0.300000*%
%TD*%
%TA.AperFunction,ComponentOutline,Courtyard*%
%ADD11C,0.100000*%
%TD*%
%TA.AperFunction,ComponentPin*%
%ADD12P,0.360000X4X0.000000*%
%TD*%
%TA.AperFunction,ComponentPin*%
%ADD13C,0.100000*%
%TD*%
%TA.AperFunction,Profile*%
%ADD14C,0.150000*%
%TD*%
G04 APERTURE END LIST*
D10*
%TO.C,"J1"*%
%TO.CFtp,"PinSocket_1x03_P2.54mm_Vertical"*%
%TO.CVal,"Test"*%
%TO.CLbN,"Connector_PinSocket_2.54mm"*%
%TO.CMnt,TH*%
%TO.CRot,180*%
X96260500Y-109620000D03*
D11*
X98060499Y-102770001D02*
X98060499Y-111419999D01*
X94510501Y-111419999D01*
X94510501Y-102770001D01*
X98060499Y-102770001D01*
D12*
%TO.P,"J1","1","Pin_1"*%
X96260500Y-109620000D03*
D13*
%TO.P,"J1","2","Pin_2"*%
X96260500Y-107080000D03*
%TO.P,"J1","3","Pin_3"*%
X96260500Y-104540000D03*
%TD*%
D10*
%TO.C,"R6"*%
%TO.CFtp,"R_Axial_DIN0204_L3.6mm_D1.6mm_P7.62mm_Horizontal"*%
%TO.CVal,"10K"*%
%TO.CLbN,"Resistor_THT"*%
%TO.CMnt,TH*%
%TO.CRot,0*%
X107810000Y-94590000D03*
D11*
X116379999Y-93540001D02*
X116379999Y-95639999D01*
X106860001Y-95639999D01*
X106860001Y-93540001D01*
X116379999Y-93540001D01*
D12*
%TO.P,"R6","1"*%
X107810000Y-94590000D03*
D13*
%TO.P,"R6","2"*%
X115430000Y-94590000D03*
%TD*%
D10*
%TO.C,"R1"*%
%TO.CFtp,"R_Axial_DIN0204_L3.6mm_D1.6mm_P7.62mm_Horizontal"*%
%TO.CVal,"330"*%
%TO.CLbN,"Resistor_THT"*%
%TO.CMnt,TH*%
%TO.CRot,0*%
X107796000Y-110520000D03*
D11*
X116365999Y-109470001D02*
X116365999Y-111569999D01*
X106846001Y-111569999D01*
X106846001Y-109470001D01*
X116365999Y-109470001D01*
D12*
%TO.P,"R1","1"*%
X107796000Y-110520000D03*
D13*
%TO.P,"R1","2"*%
X115416000Y-110520000D03*
%TD*%
D10*
%TO.C,"C1"*%
%TO.CFtp,"C_Disc_D5.0mm_W2.5mm_P5.00mm"*%
%TO.CVal,"100n"*%
%TO.CLbN,"Capacitor_THT"*%
%TO.CMnt,TH*%
%TO.CRot,90*%
X96342000Y-101300000D03*
D11*
X97841999Y-95250001D02*
X97841999Y-102349999D01*
X94842001Y-102349999D01*
X94842001Y-95250001D01*
X97841999Y-95250001D01*
D12*
%TO.P,"C1","1"*%
X96342000Y-101300000D03*
D13*
%TO.P,"C1","2"*%
X96342000Y-96300000D03*
%TD*%
D10*
%TO.C,"A1"*%
%TO.CFtp,"Arduino_Nano"*%
%TO.CVal,"Arduino_Nano_v3.x"*%
%TO.CLbN,"Module"*%
%TO.CMnt,TH*%
%TO.CRot,180*%
X118395500Y-132380000D03*
D11*
X119925499Y-90220001D02*
X119925499Y-136439999D01*
X101645501Y-136439999D01*
X101645501Y-90220001D01*
X119925499Y-90220001D01*
D12*
%TO.P,"A1","1","D1/TX"*%
X118395500Y-132380000D03*
D13*
%TO.P,"A1","2","D0/RX"*%
X118395500Y-129840000D03*
%TO.P,"A1","3","~{RESET}"*%
X118395500Y-127300000D03*
%TO.P,"A1","4","GND"*%
X118395500Y-124760000D03*
%TO.P,"A1","5","D2"*%
X118395500Y-122220000D03*
%TO.P,"A1","6","D3"*%
X118395500Y-119680000D03*
%TO.P,"A1","7","D4"*%
X118395500Y-117140000D03*
%TO.P,"A1","8","D5"*%
X118395500Y-114600000D03*
%TO.P,"A1","9","D6"*%
X118395500Y-112060000D03*
%TO.P,"A1","10","D7"*%
X118395500Y-109520000D03*
%TO.P,"A1","11","D8"*%
X118395500Y-106980000D03*
%TO.P,"A1","12","D9"*%
X118395500Y-104440000D03*
%TO.P,"A1","13","D10"*%
X118395500Y-101900000D03*
%TO.P,"A1","14","D11"*%
X118395500Y-99360000D03*
%TO.P,"A1","15","D12"*%
X118395500Y-96820000D03*
%TO.P,"A1","16","D13"*%
X103155500Y-96820000D03*
%TO.P,"A1","17","3V3"*%
X103155500Y-99360000D03*
%TO.P,"A1","18","AREF"*%
X103155500Y-101900000D03*
%TO.P,"A1","19","A0"*%
X103155500Y-104440000D03*
%TO.P,"A1","20","A1"*%
X103155500Y-106980000D03*
%TO.P,"A1","21","A2"*%
X103155500Y-109520000D03*
%TO.P,"A1","22","A3"*%
X103155500Y-112060000D03*
%TO.P,"A1","23","A4"*%
X103155500Y-114600000D03*
%TO.P,"A1","24","A5"*%
X103155500Y-117140000D03*
%TO.P,"A1","25","A6"*%
X103155500Y-119680000D03*
%TO.P,"A1","26","A7"*%
X103155500Y-122220000D03*
%TO.P,"A1","27","+5V"*%
X103155500Y-124760000D03*
%TO.P,"A1","28","~{RESET}"*%
X103155500Y-127300000D03*
%TO.P,"A1","29","GND"*%
X103155500Y-129840000D03*
%TO.P,"A1","30","VIN"*%
X103155500Y-132380000D03*
%TD*%
D10*
%TO.C,"R3"*%
%TO.CFtp,"R_Axial_DIN0204_L3.6mm_D1.6mm_P7.62mm_Horizontal"*%
%TO.CVal,"330"*%
%TO.CLbN,"Resistor_THT"*%
%TO.CMnt,TH*%
%TO.CRot,0*%
X107880500Y-104890000D03*
D11*
X116450499Y-103840001D02*
X116450499Y-105939999D01*
X106930501Y-105939999D01*
X106930501Y-103840001D01*
X116450499Y-103840001D01*
D12*
%TO.P,"R3","1"*%
X107880500Y-104890000D03*
D13*
%TO.P,"R3","2"*%
X115500500Y-104890000D03*
%TD*%
D10*
%TO.C,"R5"*%
%TO.CFtp,"R_Axial_DIN0204_L3.6mm_D1.6mm_P7.62mm_Horizontal"*%
%TO.CVal,"330"*%
%TO.CLbN,"Resistor_THT"*%
%TO.CMnt,TH*%
%TO.CRot,0*%
X107812000Y-98310000D03*
D11*
X116381999Y-97260001D02*
X116381999Y-99359999D01*
X106862001Y-99359999D01*
X106862001Y-97260001D01*
X116381999Y-97260001D01*
D12*
%TO.P,"R5","1"*%
X107812000Y-98310000D03*
D13*
%TO.P,"R5","2"*%
X115432000Y-98310000D03*
%TD*%
D10*
%TO.C,"Start"*%
%TO.CFtp,"SW_PUSH_6mm_H4.3mm"*%
%TO.CVal,"SW_Push"*%
%TO.CLbN,"Button_Switch_THT"*%
%TO.CMnt,TH*%
%TO.CRot,-90*%
X98450000Y-128100000D03*
D11*
X99949999Y-126600001D02*
X99949999Y-136099999D01*
X92450001Y-136099999D01*
X92450001Y-126600001D01*
X99949999Y-126600001D01*
D12*
%TO.P,"Start","1","1"*%
X98450000Y-128100000D03*
X98450000Y-134600000D03*
D13*
%TO.P,"Start","2","2"*%
X93950000Y-128100000D03*
X93950000Y-134600000D03*
%TD*%
D10*
%TO.C,"J2"*%
%TO.CFtp,"PinSocket_1x04_P2.54mm_Vertical"*%
%TO.CVal,"Disp"*%
%TO.CLbN,"Connector_PinSocket_2.54mm"*%
%TO.CMnt,TH*%
%TO.CRot,180*%
X96341000Y-122350000D03*
D11*
X98140999Y-112950001D02*
X98140999Y-124149999D01*
X94591001Y-124149999D01*
X94591001Y-112950001D01*
X98140999Y-112950001D01*
D12*
%TO.P,"J2","1","Pin_1"*%
X96341000Y-122350000D03*
D13*
%TO.P,"J2","2","Pin_2"*%
X96341000Y-119810000D03*
%TO.P,"J2","3","Pin_3"*%
X96341000Y-117270000D03*
%TO.P,"J2","4","Pin_4"*%
X96341000Y-114730000D03*
%TD*%
D10*
%TO.C,"R4"*%
%TO.CFtp,"R_Axial_DIN0204_L3.6mm_D1.6mm_P7.62mm_Horizontal"*%
%TO.CVal,"10K"*%
%TO.CLbN,"Resistor_THT"*%
%TO.CMnt,TH*%
%TO.CRot,180*%
X115416000Y-101530000D03*
D11*
X116365999Y-100480001D02*
X116365999Y-102579999D01*
X106846001Y-102579999D01*
X106846001Y-100480001D01*
X116365999Y-100480001D01*
D12*
%TO.P,"R4","1"*%
X115416000Y-101530000D03*
D13*
%TO.P,"R4","2"*%
X107796000Y-101530000D03*
%TD*%
D10*
%TO.C,"Reset"*%
%TO.CFtp,"SW_PUSH_1P1T_6x3.5mm_H4.3_APEM_MJTP1243"*%
%TO.CVal,"SW_Push"*%
%TO.CLbN,"Button_Switch_THT"*%
%TO.CMnt,TH*%
%TO.CRot,180*%
X108170000Y-90760000D03*
D11*
X108169999Y-88760001D02*
X108169999Y-89380000D01*
X108170000Y-89380001D01*
X109549999Y-89380001D01*
X109549999Y-92139999D01*
X108170000Y-92139999D01*
X108169999Y-92140000D01*
X108169999Y-92759999D01*
X101670001Y-92759999D01*
X101670001Y-92140000D01*
X101670000Y-92139999D01*
X101198012Y-92056775D01*
X101198013Y-92056775D01*
X100782954Y-91817140D01*
X100474886Y-91449999D01*
X100310966Y-90999634D01*
X100310966Y-90520366D01*
X100474886Y-90070001D01*
X100782954Y-89702860D01*
X101198013Y-89463225D01*
X101198012Y-89463224D01*
X101670000Y-89380001D01*
X101670001Y-89380000D01*
X101670001Y-88760001D01*
X108169999Y-88760001D01*
D12*
%TO.P,"Reset","1","1"*%
X108170000Y-90760000D03*
D13*
%TO.P,"Reset","2","2"*%
X101670000Y-90760000D03*
%TD*%
D10*
%TO.C,"R2"*%
%TO.CFtp,"R_Axial_DIN0204_L3.6mm_D1.6mm_P7.62mm_Horizontal"*%
%TO.CVal,"10K"*%
%TO.CLbN,"Resistor_THT"*%
%TO.CMnt,TH*%
%TO.CRot,180*%
X115446500Y-107640000D03*
D11*
X116396499Y-106590001D02*
X116396499Y-108689999D01*
X106876501Y-108689999D01*
X106876501Y-106590001D01*
X116396499Y-106590001D01*
D12*
%TO.P,"R2","1"*%
X115446500Y-107640000D03*
D13*
%TO.P,"R2","2"*%
X107826500Y-107640000D03*
%TD*%
D14*
X122044000Y-88120000D02*
X121992000Y-138200000D01*
X92052000Y-88120000D02*
X122044000Y-88120000D01*
X92000000Y-138200000D02*
X92052000Y-88120000D01*
X121992000Y-138200000D02*
X92000000Y-138200000D01*
M02*
