%TF.GenerationSoftware,KiCad,Pcbnew,8.0.1*%
%TF.CreationDate,2024-04-05T21:52:12+02:00*%
%TF.ProjectId,LCRDT-Tester,4c435244-542d-4546-9573-7465722e6b69,0.31*%
%TF.SameCoordinates,PX57bafc0PY83cc3c0*%
%TF.FileFunction,Drillmap*%
%TF.FilePolarity,Positive*%
%FSLAX45Y45*%
G04 Gerber Fmt 4.5, Leading zero omitted, Abs format (unit mm)*
G04 Created by KiCad (PCBNEW 8.0.1) date 2024-04-05 21:52:12*
%MOMM*%
%LPD*%
G01*
G04 APERTURE LIST*
%ADD10C,0.150000*%
%ADD11C,0.200000*%
%ADD12C,0.178000*%
G04 APERTURE END LIST*
D10*
X3005200Y5008000D02*
X3000000Y0D01*
X6000Y5008000D02*
X3005200Y5008000D01*
X800Y0D02*
X6000Y5008000D01*
X3000000Y0D02*
X800Y0D01*
D11*
D12*
X1025800Y4489000D02*
X1203800Y4311000D01*
X1203800Y4489000D02*
X1025800Y4311000D01*
X1025800Y425000D02*
X1203800Y247000D01*
X1203800Y425000D02*
X1025800Y247000D01*
X2549800Y4489000D02*
X2727800Y4311000D01*
X2727800Y4489000D02*
X2549800Y4311000D01*
X2549800Y425000D02*
X2727800Y247000D01*
X2727800Y425000D02*
X2549800Y247000D01*
D11*
X254077Y-318984D02*
X254077Y-118984D01*
X254077Y-118984D02*
X301696Y-118984D01*
X301696Y-118984D02*
X330267Y-128508D01*
X330267Y-128508D02*
X349315Y-147555D01*
X349315Y-147555D02*
X358839Y-166603D01*
X358839Y-166603D02*
X368362Y-204698D01*
X368362Y-204698D02*
X368362Y-233269D01*
X368362Y-233269D02*
X358839Y-271365D01*
X358839Y-271365D02*
X349315Y-290412D01*
X349315Y-290412D02*
X330267Y-309460D01*
X330267Y-309460D02*
X301696Y-318984D01*
X301696Y-318984D02*
X254077Y-318984D01*
X454077Y-318984D02*
X454077Y-185650D01*
X454077Y-223746D02*
X463601Y-204698D01*
X463601Y-204698D02*
X473124Y-195174D01*
X473124Y-195174D02*
X492172Y-185650D01*
X492172Y-185650D02*
X511220Y-185650D01*
X577886Y-318984D02*
X577886Y-185650D01*
X577886Y-118984D02*
X568363Y-128508D01*
X568363Y-128508D02*
X577886Y-138031D01*
X577886Y-138031D02*
X587410Y-128508D01*
X587410Y-128508D02*
X577886Y-118984D01*
X577886Y-118984D02*
X577886Y-138031D01*
X701696Y-318984D02*
X682648Y-309460D01*
X682648Y-309460D02*
X673124Y-290412D01*
X673124Y-290412D02*
X673124Y-118984D01*
X806458Y-318984D02*
X787410Y-309460D01*
X787410Y-309460D02*
X777886Y-290412D01*
X777886Y-290412D02*
X777886Y-118984D01*
X1035029Y-318984D02*
X1035029Y-118984D01*
X1035029Y-118984D02*
X1101696Y-261841D01*
X1101696Y-261841D02*
X1168363Y-118984D01*
X1168363Y-118984D02*
X1168363Y-318984D01*
X1349315Y-318984D02*
X1349315Y-214222D01*
X1349315Y-214222D02*
X1339791Y-195174D01*
X1339791Y-195174D02*
X1320744Y-185650D01*
X1320744Y-185650D02*
X1282648Y-185650D01*
X1282648Y-185650D02*
X1263601Y-195174D01*
X1349315Y-309460D02*
X1330267Y-318984D01*
X1330267Y-318984D02*
X1282648Y-318984D01*
X1282648Y-318984D02*
X1263601Y-309460D01*
X1263601Y-309460D02*
X1254077Y-290412D01*
X1254077Y-290412D02*
X1254077Y-271365D01*
X1254077Y-271365D02*
X1263601Y-252317D01*
X1263601Y-252317D02*
X1282648Y-242793D01*
X1282648Y-242793D02*
X1330267Y-242793D01*
X1330267Y-242793D02*
X1349315Y-233269D01*
X1444553Y-185650D02*
X1444553Y-385650D01*
X1444553Y-195174D02*
X1463601Y-185650D01*
X1463601Y-185650D02*
X1501696Y-185650D01*
X1501696Y-185650D02*
X1520743Y-195174D01*
X1520743Y-195174D02*
X1530267Y-204698D01*
X1530267Y-204698D02*
X1539791Y-223746D01*
X1539791Y-223746D02*
X1539791Y-280889D01*
X1539791Y-280889D02*
X1530267Y-299936D01*
X1530267Y-299936D02*
X1520743Y-309460D01*
X1520743Y-309460D02*
X1501696Y-318984D01*
X1501696Y-318984D02*
X1463601Y-318984D01*
X1463601Y-318984D02*
X1444553Y-309460D01*
X1625505Y-299936D02*
X1635029Y-309460D01*
X1635029Y-309460D02*
X1625505Y-318984D01*
X1625505Y-318984D02*
X1615982Y-309460D01*
X1615982Y-309460D02*
X1625505Y-299936D01*
X1625505Y-299936D02*
X1625505Y-318984D01*
X1625505Y-195174D02*
X1635029Y-204698D01*
X1635029Y-204698D02*
X1625505Y-214222D01*
X1625505Y-214222D02*
X1615982Y-204698D01*
X1615982Y-204698D02*
X1625505Y-195174D01*
X1625505Y-195174D02*
X1625505Y-214222D01*
D12*
X-184700Y-558500D02*
X-6700Y-736500D01*
X-6700Y-558500D02*
X-184700Y-736500D01*
D11*
X358839Y-738984D02*
X244553Y-738984D01*
X301696Y-738984D02*
X301696Y-538984D01*
X301696Y-538984D02*
X282648Y-567555D01*
X282648Y-567555D02*
X263601Y-586603D01*
X263601Y-586603D02*
X244553Y-596127D01*
X444553Y-719936D02*
X454077Y-729460D01*
X454077Y-729460D02*
X444553Y-738984D01*
X444553Y-738984D02*
X435029Y-729460D01*
X435029Y-729460D02*
X444553Y-719936D01*
X444553Y-719936D02*
X444553Y-738984D01*
X520743Y-538984D02*
X654077Y-538984D01*
X654077Y-538984D02*
X568363Y-738984D01*
X758839Y-624698D02*
X739791Y-615174D01*
X739791Y-615174D02*
X730267Y-605650D01*
X730267Y-605650D02*
X720743Y-586603D01*
X720743Y-586603D02*
X720743Y-577079D01*
X720743Y-577079D02*
X730267Y-558031D01*
X730267Y-558031D02*
X739791Y-548508D01*
X739791Y-548508D02*
X758839Y-538984D01*
X758839Y-538984D02*
X796934Y-538984D01*
X796934Y-538984D02*
X815982Y-548508D01*
X815982Y-548508D02*
X825505Y-558031D01*
X825505Y-558031D02*
X835029Y-577079D01*
X835029Y-577079D02*
X835029Y-586603D01*
X835029Y-586603D02*
X825505Y-605650D01*
X825505Y-605650D02*
X815982Y-615174D01*
X815982Y-615174D02*
X796934Y-624698D01*
X796934Y-624698D02*
X758839Y-624698D01*
X758839Y-624698D02*
X739791Y-634222D01*
X739791Y-634222D02*
X730267Y-643746D01*
X730267Y-643746D02*
X720743Y-662793D01*
X720743Y-662793D02*
X720743Y-700888D01*
X720743Y-700888D02*
X730267Y-719936D01*
X730267Y-719936D02*
X739791Y-729460D01*
X739791Y-729460D02*
X758839Y-738984D01*
X758839Y-738984D02*
X796934Y-738984D01*
X796934Y-738984D02*
X815982Y-729460D01*
X815982Y-729460D02*
X825505Y-719936D01*
X825505Y-719936D02*
X835029Y-700888D01*
X835029Y-700888D02*
X835029Y-662793D01*
X835029Y-662793D02*
X825505Y-643746D01*
X825505Y-643746D02*
X815982Y-634222D01*
X815982Y-634222D02*
X796934Y-624698D01*
X958839Y-538984D02*
X977886Y-538984D01*
X977886Y-538984D02*
X996934Y-548508D01*
X996934Y-548508D02*
X1006458Y-558031D01*
X1006458Y-558031D02*
X1015982Y-577079D01*
X1015982Y-577079D02*
X1025505Y-615174D01*
X1025505Y-615174D02*
X1025505Y-662793D01*
X1025505Y-662793D02*
X1015982Y-700888D01*
X1015982Y-700888D02*
X1006458Y-719936D01*
X1006458Y-719936D02*
X996934Y-729460D01*
X996934Y-729460D02*
X977886Y-738984D01*
X977886Y-738984D02*
X958839Y-738984D01*
X958839Y-738984D02*
X939791Y-729460D01*
X939791Y-729460D02*
X930267Y-719936D01*
X930267Y-719936D02*
X920743Y-700888D01*
X920743Y-700888D02*
X911220Y-662793D01*
X911220Y-662793D02*
X911220Y-615174D01*
X911220Y-615174D02*
X920743Y-577079D01*
X920743Y-577079D02*
X930267Y-558031D01*
X930267Y-558031D02*
X939791Y-548508D01*
X939791Y-548508D02*
X958839Y-538984D01*
X1111220Y-738984D02*
X1111220Y-605650D01*
X1111220Y-624698D02*
X1120744Y-615174D01*
X1120744Y-615174D02*
X1139791Y-605650D01*
X1139791Y-605650D02*
X1168363Y-605650D01*
X1168363Y-605650D02*
X1187410Y-615174D01*
X1187410Y-615174D02*
X1196934Y-634222D01*
X1196934Y-634222D02*
X1196934Y-738984D01*
X1196934Y-634222D02*
X1206458Y-615174D01*
X1206458Y-615174D02*
X1225505Y-605650D01*
X1225505Y-605650D02*
X1254077Y-605650D01*
X1254077Y-605650D02*
X1273125Y-615174D01*
X1273125Y-615174D02*
X1282648Y-634222D01*
X1282648Y-634222D02*
X1282648Y-738984D01*
X1377886Y-738984D02*
X1377886Y-605650D01*
X1377886Y-624698D02*
X1387410Y-615174D01*
X1387410Y-615174D02*
X1406458Y-605650D01*
X1406458Y-605650D02*
X1435029Y-605650D01*
X1435029Y-605650D02*
X1454077Y-615174D01*
X1454077Y-615174D02*
X1463601Y-634222D01*
X1463601Y-634222D02*
X1463601Y-738984D01*
X1463601Y-634222D02*
X1473124Y-615174D01*
X1473124Y-615174D02*
X1492172Y-605650D01*
X1492172Y-605650D02*
X1520743Y-605650D01*
X1520743Y-605650D02*
X1539791Y-615174D01*
X1539791Y-615174D02*
X1549315Y-634222D01*
X1549315Y-634222D02*
X1549315Y-738984D01*
X1939791Y-529460D02*
X1768363Y-786603D01*
X2196934Y-538984D02*
X2215982Y-538984D01*
X2215982Y-538984D02*
X2235029Y-548508D01*
X2235029Y-548508D02*
X2244553Y-558031D01*
X2244553Y-558031D02*
X2254077Y-577079D01*
X2254077Y-577079D02*
X2263601Y-615174D01*
X2263601Y-615174D02*
X2263601Y-662793D01*
X2263601Y-662793D02*
X2254077Y-700888D01*
X2254077Y-700888D02*
X2244553Y-719936D01*
X2244553Y-719936D02*
X2235029Y-729460D01*
X2235029Y-729460D02*
X2215982Y-738984D01*
X2215982Y-738984D02*
X2196934Y-738984D01*
X2196934Y-738984D02*
X2177887Y-729460D01*
X2177887Y-729460D02*
X2168363Y-719936D01*
X2168363Y-719936D02*
X2158839Y-700888D01*
X2158839Y-700888D02*
X2149315Y-662793D01*
X2149315Y-662793D02*
X2149315Y-615174D01*
X2149315Y-615174D02*
X2158839Y-577079D01*
X2158839Y-577079D02*
X2168363Y-558031D01*
X2168363Y-558031D02*
X2177887Y-548508D01*
X2177887Y-548508D02*
X2196934Y-538984D01*
X2349315Y-719936D02*
X2358839Y-729460D01*
X2358839Y-729460D02*
X2349315Y-738984D01*
X2349315Y-738984D02*
X2339791Y-729460D01*
X2339791Y-729460D02*
X2349315Y-719936D01*
X2349315Y-719936D02*
X2349315Y-738984D01*
X2482648Y-538984D02*
X2501696Y-538984D01*
X2501696Y-538984D02*
X2520744Y-548508D01*
X2520744Y-548508D02*
X2530268Y-558031D01*
X2530268Y-558031D02*
X2539791Y-577079D01*
X2539791Y-577079D02*
X2549315Y-615174D01*
X2549315Y-615174D02*
X2549315Y-662793D01*
X2549315Y-662793D02*
X2539791Y-700888D01*
X2539791Y-700888D02*
X2530268Y-719936D01*
X2530268Y-719936D02*
X2520744Y-729460D01*
X2520744Y-729460D02*
X2501696Y-738984D01*
X2501696Y-738984D02*
X2482648Y-738984D01*
X2482648Y-738984D02*
X2463601Y-729460D01*
X2463601Y-729460D02*
X2454077Y-719936D01*
X2454077Y-719936D02*
X2444553Y-700888D01*
X2444553Y-700888D02*
X2435029Y-662793D01*
X2435029Y-662793D02*
X2435029Y-615174D01*
X2435029Y-615174D02*
X2444553Y-577079D01*
X2444553Y-577079D02*
X2454077Y-558031D01*
X2454077Y-558031D02*
X2463601Y-548508D01*
X2463601Y-548508D02*
X2482648Y-538984D01*
X2615982Y-538984D02*
X2749315Y-538984D01*
X2749315Y-538984D02*
X2663601Y-738984D01*
X2863601Y-538984D02*
X2882648Y-538984D01*
X2882648Y-538984D02*
X2901696Y-548508D01*
X2901696Y-548508D02*
X2911220Y-558031D01*
X2911220Y-558031D02*
X2920744Y-577079D01*
X2920744Y-577079D02*
X2930267Y-615174D01*
X2930267Y-615174D02*
X2930267Y-662793D01*
X2930267Y-662793D02*
X2920744Y-700888D01*
X2920744Y-700888D02*
X2911220Y-719936D01*
X2911220Y-719936D02*
X2901696Y-729460D01*
X2901696Y-729460D02*
X2882648Y-738984D01*
X2882648Y-738984D02*
X2863601Y-738984D01*
X2863601Y-738984D02*
X2844553Y-729460D01*
X2844553Y-729460D02*
X2835029Y-719936D01*
X2835029Y-719936D02*
X2825506Y-700888D01*
X2825506Y-700888D02*
X2815982Y-662793D01*
X2815982Y-662793D02*
X2815982Y-615174D01*
X2815982Y-615174D02*
X2825506Y-577079D01*
X2825506Y-577079D02*
X2835029Y-558031D01*
X2835029Y-558031D02*
X2844553Y-548508D01*
X2844553Y-548508D02*
X2863601Y-538984D01*
X3120744Y-738984D02*
X3006458Y-738984D01*
X3063601Y-738984D02*
X3063601Y-538984D01*
X3063601Y-538984D02*
X3044553Y-567555D01*
X3044553Y-567555D02*
X3025506Y-586603D01*
X3025506Y-586603D02*
X3006458Y-596127D01*
X3196934Y-538984D02*
X3196934Y-577079D01*
X3273125Y-538984D02*
X3273125Y-577079D01*
X3568363Y-815174D02*
X3558839Y-805650D01*
X3558839Y-805650D02*
X3539791Y-777079D01*
X3539791Y-777079D02*
X3530268Y-758031D01*
X3530268Y-758031D02*
X3520744Y-729460D01*
X3520744Y-729460D02*
X3511220Y-681841D01*
X3511220Y-681841D02*
X3511220Y-643746D01*
X3511220Y-643746D02*
X3520744Y-596127D01*
X3520744Y-596127D02*
X3530268Y-567555D01*
X3530268Y-567555D02*
X3539791Y-548508D01*
X3539791Y-548508D02*
X3558839Y-519936D01*
X3558839Y-519936D02*
X3568363Y-510412D01*
X3730268Y-605650D02*
X3730268Y-738984D01*
X3682648Y-529460D02*
X3635029Y-672317D01*
X3635029Y-672317D02*
X3758839Y-672317D01*
X3987410Y-738984D02*
X3987410Y-538984D01*
X4073125Y-738984D02*
X4073125Y-634222D01*
X4073125Y-634222D02*
X4063601Y-615174D01*
X4063601Y-615174D02*
X4044553Y-605650D01*
X4044553Y-605650D02*
X4015982Y-605650D01*
X4015982Y-605650D02*
X3996934Y-615174D01*
X3996934Y-615174D02*
X3987410Y-624698D01*
X4196934Y-738984D02*
X4177887Y-729460D01*
X4177887Y-729460D02*
X4168363Y-719936D01*
X4168363Y-719936D02*
X4158839Y-700888D01*
X4158839Y-700888D02*
X4158839Y-643746D01*
X4158839Y-643746D02*
X4168363Y-624698D01*
X4168363Y-624698D02*
X4177887Y-615174D01*
X4177887Y-615174D02*
X4196934Y-605650D01*
X4196934Y-605650D02*
X4225506Y-605650D01*
X4225506Y-605650D02*
X4244553Y-615174D01*
X4244553Y-615174D02*
X4254077Y-624698D01*
X4254077Y-624698D02*
X4263601Y-643746D01*
X4263601Y-643746D02*
X4263601Y-700888D01*
X4263601Y-700888D02*
X4254077Y-719936D01*
X4254077Y-719936D02*
X4244553Y-729460D01*
X4244553Y-729460D02*
X4225506Y-738984D01*
X4225506Y-738984D02*
X4196934Y-738984D01*
X4377887Y-738984D02*
X4358839Y-729460D01*
X4358839Y-729460D02*
X4349315Y-710412D01*
X4349315Y-710412D02*
X4349315Y-538984D01*
X4530268Y-729460D02*
X4511220Y-738984D01*
X4511220Y-738984D02*
X4473125Y-738984D01*
X4473125Y-738984D02*
X4454077Y-729460D01*
X4454077Y-729460D02*
X4444553Y-710412D01*
X4444553Y-710412D02*
X4444553Y-634222D01*
X4444553Y-634222D02*
X4454077Y-615174D01*
X4454077Y-615174D02*
X4473125Y-605650D01*
X4473125Y-605650D02*
X4511220Y-605650D01*
X4511220Y-605650D02*
X4530268Y-615174D01*
X4530268Y-615174D02*
X4539792Y-634222D01*
X4539792Y-634222D02*
X4539792Y-653270D01*
X4539792Y-653270D02*
X4444553Y-672317D01*
X4615982Y-729460D02*
X4635030Y-738984D01*
X4635030Y-738984D02*
X4673125Y-738984D01*
X4673125Y-738984D02*
X4692173Y-729460D01*
X4692173Y-729460D02*
X4701696Y-710412D01*
X4701696Y-710412D02*
X4701696Y-700888D01*
X4701696Y-700888D02*
X4692173Y-681841D01*
X4692173Y-681841D02*
X4673125Y-672317D01*
X4673125Y-672317D02*
X4644553Y-672317D01*
X4644553Y-672317D02*
X4625506Y-662793D01*
X4625506Y-662793D02*
X4615982Y-643746D01*
X4615982Y-643746D02*
X4615982Y-634222D01*
X4615982Y-634222D02*
X4625506Y-615174D01*
X4625506Y-615174D02*
X4644553Y-605650D01*
X4644553Y-605650D02*
X4673125Y-605650D01*
X4673125Y-605650D02*
X4692173Y-615174D01*
X4768363Y-815174D02*
X4777887Y-805650D01*
X4777887Y-805650D02*
X4796934Y-777079D01*
X4796934Y-777079D02*
X4806458Y-758031D01*
X4806458Y-758031D02*
X4815982Y-729460D01*
X4815982Y-729460D02*
X4825506Y-681841D01*
X4825506Y-681841D02*
X4825506Y-643746D01*
X4825506Y-643746D02*
X4815982Y-596127D01*
X4815982Y-596127D02*
X4806458Y-567555D01*
X4806458Y-567555D02*
X4796934Y-548508D01*
X4796934Y-548508D02*
X4777887Y-519936D01*
X4777887Y-519936D02*
X4768363Y-510412D01*
X5130268Y-815174D02*
X5120744Y-805650D01*
X5120744Y-805650D02*
X5101696Y-777079D01*
X5101696Y-777079D02*
X5092173Y-758031D01*
X5092173Y-758031D02*
X5082649Y-729460D01*
X5082649Y-729460D02*
X5073125Y-681841D01*
X5073125Y-681841D02*
X5073125Y-643746D01*
X5073125Y-643746D02*
X5082649Y-596127D01*
X5082649Y-596127D02*
X5092173Y-567555D01*
X5092173Y-567555D02*
X5101696Y-548508D01*
X5101696Y-548508D02*
X5120744Y-519936D01*
X5120744Y-519936D02*
X5130268Y-510412D01*
X5206458Y-605650D02*
X5206458Y-738984D01*
X5206458Y-624698D02*
X5215982Y-615174D01*
X5215982Y-615174D02*
X5235030Y-605650D01*
X5235030Y-605650D02*
X5263601Y-605650D01*
X5263601Y-605650D02*
X5282649Y-615174D01*
X5282649Y-615174D02*
X5292173Y-634222D01*
X5292173Y-634222D02*
X5292173Y-738984D01*
X5415982Y-738984D02*
X5396934Y-729460D01*
X5396934Y-729460D02*
X5387411Y-719936D01*
X5387411Y-719936D02*
X5377887Y-700888D01*
X5377887Y-700888D02*
X5377887Y-643746D01*
X5377887Y-643746D02*
X5387411Y-624698D01*
X5387411Y-624698D02*
X5396934Y-615174D01*
X5396934Y-615174D02*
X5415982Y-605650D01*
X5415982Y-605650D02*
X5444554Y-605650D01*
X5444554Y-605650D02*
X5463601Y-615174D01*
X5463601Y-615174D02*
X5473125Y-624698D01*
X5473125Y-624698D02*
X5482649Y-643746D01*
X5482649Y-643746D02*
X5482649Y-700888D01*
X5482649Y-700888D02*
X5473125Y-719936D01*
X5473125Y-719936D02*
X5463601Y-729460D01*
X5463601Y-729460D02*
X5444554Y-738984D01*
X5444554Y-738984D02*
X5415982Y-738984D01*
X5539792Y-605650D02*
X5615982Y-605650D01*
X5568363Y-538984D02*
X5568363Y-710412D01*
X5568363Y-710412D02*
X5577887Y-729460D01*
X5577887Y-729460D02*
X5596934Y-738984D01*
X5596934Y-738984D02*
X5615982Y-738984D01*
X5835030Y-605650D02*
X5835030Y-805650D01*
X5835030Y-615174D02*
X5854077Y-605650D01*
X5854077Y-605650D02*
X5892173Y-605650D01*
X5892173Y-605650D02*
X5911220Y-615174D01*
X5911220Y-615174D02*
X5920744Y-624698D01*
X5920744Y-624698D02*
X5930268Y-643746D01*
X5930268Y-643746D02*
X5930268Y-700888D01*
X5930268Y-700888D02*
X5920744Y-719936D01*
X5920744Y-719936D02*
X5911220Y-729460D01*
X5911220Y-729460D02*
X5892173Y-738984D01*
X5892173Y-738984D02*
X5854077Y-738984D01*
X5854077Y-738984D02*
X5835030Y-729460D01*
X6044553Y-738984D02*
X6025506Y-729460D01*
X6025506Y-729460D02*
X6015982Y-710412D01*
X6015982Y-710412D02*
X6015982Y-538984D01*
X6206458Y-738984D02*
X6206458Y-634222D01*
X6206458Y-634222D02*
X6196934Y-615174D01*
X6196934Y-615174D02*
X6177887Y-605650D01*
X6177887Y-605650D02*
X6139792Y-605650D01*
X6139792Y-605650D02*
X6120744Y-615174D01*
X6206458Y-729460D02*
X6187411Y-738984D01*
X6187411Y-738984D02*
X6139792Y-738984D01*
X6139792Y-738984D02*
X6120744Y-729460D01*
X6120744Y-729460D02*
X6111220Y-710412D01*
X6111220Y-710412D02*
X6111220Y-691365D01*
X6111220Y-691365D02*
X6120744Y-672317D01*
X6120744Y-672317D02*
X6139792Y-662793D01*
X6139792Y-662793D02*
X6187411Y-662793D01*
X6187411Y-662793D02*
X6206458Y-653270D01*
X6273125Y-605650D02*
X6349315Y-605650D01*
X6301696Y-538984D02*
X6301696Y-710412D01*
X6301696Y-710412D02*
X6311220Y-729460D01*
X6311220Y-729460D02*
X6330268Y-738984D01*
X6330268Y-738984D02*
X6349315Y-738984D01*
X6492173Y-729460D02*
X6473125Y-738984D01*
X6473125Y-738984D02*
X6435030Y-738984D01*
X6435030Y-738984D02*
X6415982Y-729460D01*
X6415982Y-729460D02*
X6406458Y-710412D01*
X6406458Y-710412D02*
X6406458Y-634222D01*
X6406458Y-634222D02*
X6415982Y-615174D01*
X6415982Y-615174D02*
X6435030Y-605650D01*
X6435030Y-605650D02*
X6473125Y-605650D01*
X6473125Y-605650D02*
X6492173Y-615174D01*
X6492173Y-615174D02*
X6501696Y-634222D01*
X6501696Y-634222D02*
X6501696Y-653270D01*
X6501696Y-653270D02*
X6406458Y-672317D01*
X6673125Y-738984D02*
X6673125Y-538984D01*
X6673125Y-729460D02*
X6654077Y-738984D01*
X6654077Y-738984D02*
X6615982Y-738984D01*
X6615982Y-738984D02*
X6596934Y-729460D01*
X6596934Y-729460D02*
X6587411Y-719936D01*
X6587411Y-719936D02*
X6577887Y-700888D01*
X6577887Y-700888D02*
X6577887Y-643746D01*
X6577887Y-643746D02*
X6587411Y-624698D01*
X6587411Y-624698D02*
X6596934Y-615174D01*
X6596934Y-615174D02*
X6615982Y-605650D01*
X6615982Y-605650D02*
X6654077Y-605650D01*
X6654077Y-605650D02*
X6673125Y-615174D01*
X6749315Y-815174D02*
X6758839Y-805650D01*
X6758839Y-805650D02*
X6777887Y-777079D01*
X6777887Y-777079D02*
X6787411Y-758031D01*
X6787411Y-758031D02*
X6796934Y-729460D01*
X6796934Y-729460D02*
X6806458Y-681841D01*
X6806458Y-681841D02*
X6806458Y-643746D01*
X6806458Y-643746D02*
X6796934Y-596127D01*
X6796934Y-596127D02*
X6787411Y-567555D01*
X6787411Y-567555D02*
X6777887Y-548508D01*
X6777887Y-548508D02*
X6758839Y-519936D01*
X6758839Y-519936D02*
X6749315Y-510412D01*
M02*
