%TF.GenerationSoftware,KiCad,Pcbnew,7.0.8*%
%TF.CreationDate,2023-10-14T20:08:13+02:00*%
%TF.ProjectId,LCRDT-Tester,4c435244-542d-4546-9573-7465722e6b69,0.3*%
%TF.SameCoordinates,Original*%
%TF.FileFunction,Other,User*%
%FSLAX46Y46*%
G04 Gerber Fmt 4.6, Leading zero omitted, Abs format (unit mm)*
G04 Created by KiCad (PCBNEW 7.0.8) date 2023-10-14 20:08:13*
%MOMM*%
%LPD*%
G01*
G04 APERTURE LIST*
%ADD10C,0.100000*%
%ADD11C,0.150000*%
%ADD12C,0.300000*%
%ADD13C,0.400000*%
%ADD14C,0.050000*%
%TA.AperFunction,Profile*%
%ADD15C,0.150000*%
%TD*%
G04 APERTURE END LIST*
D10*
D11*
X177002200Y-166007200D02*
X285002200Y-166007200D01*
X285002200Y-198007200D01*
X177002200Y-198007200D01*
X177002200Y-166007200D01*
D10*
D11*
X10000000Y-10000000D02*
X287002200Y-10000000D01*
X287002200Y-200007200D01*
X10000000Y-200007200D01*
X10000000Y-10000000D01*
D10*
D11*
X12000000Y-12000000D02*
X285002200Y-12000000D01*
X285002200Y-198007200D01*
X12000000Y-198007200D01*
X12000000Y-12000000D01*
D10*
D11*
X60000000Y-12000000D02*
X60000000Y-10000000D01*
D10*
D11*
X110000000Y-12000000D02*
X110000000Y-10000000D01*
D10*
D11*
X160000000Y-12000000D02*
X160000000Y-10000000D01*
D10*
D11*
X210000000Y-12000000D02*
X210000000Y-10000000D01*
D10*
D11*
X260000000Y-12000000D02*
X260000000Y-10000000D01*
D10*
D11*
X36089160Y-11593604D02*
X35346303Y-11593604D01*
X35717731Y-11593604D02*
X35717731Y-10293604D01*
X35717731Y-10293604D02*
X35593922Y-10479319D01*
X35593922Y-10479319D02*
X35470112Y-10603128D01*
X35470112Y-10603128D02*
X35346303Y-10665033D01*
D10*
D11*
X85346303Y-10417414D02*
X85408207Y-10355509D01*
X85408207Y-10355509D02*
X85532017Y-10293604D01*
X85532017Y-10293604D02*
X85841541Y-10293604D01*
X85841541Y-10293604D02*
X85965350Y-10355509D01*
X85965350Y-10355509D02*
X86027255Y-10417414D01*
X86027255Y-10417414D02*
X86089160Y-10541223D01*
X86089160Y-10541223D02*
X86089160Y-10665033D01*
X86089160Y-10665033D02*
X86027255Y-10850747D01*
X86027255Y-10850747D02*
X85284398Y-11593604D01*
X85284398Y-11593604D02*
X86089160Y-11593604D01*
D10*
D11*
X135284398Y-10293604D02*
X136089160Y-10293604D01*
X136089160Y-10293604D02*
X135655826Y-10788842D01*
X135655826Y-10788842D02*
X135841541Y-10788842D01*
X135841541Y-10788842D02*
X135965350Y-10850747D01*
X135965350Y-10850747D02*
X136027255Y-10912652D01*
X136027255Y-10912652D02*
X136089160Y-11036461D01*
X136089160Y-11036461D02*
X136089160Y-11345985D01*
X136089160Y-11345985D02*
X136027255Y-11469795D01*
X136027255Y-11469795D02*
X135965350Y-11531700D01*
X135965350Y-11531700D02*
X135841541Y-11593604D01*
X135841541Y-11593604D02*
X135470112Y-11593604D01*
X135470112Y-11593604D02*
X135346303Y-11531700D01*
X135346303Y-11531700D02*
X135284398Y-11469795D01*
D10*
D11*
X185965350Y-10726938D02*
X185965350Y-11593604D01*
X185655826Y-10231700D02*
X185346303Y-11160271D01*
X185346303Y-11160271D02*
X186151064Y-11160271D01*
D10*
D11*
X236027255Y-10293604D02*
X235408207Y-10293604D01*
X235408207Y-10293604D02*
X235346303Y-10912652D01*
X235346303Y-10912652D02*
X235408207Y-10850747D01*
X235408207Y-10850747D02*
X235532017Y-10788842D01*
X235532017Y-10788842D02*
X235841541Y-10788842D01*
X235841541Y-10788842D02*
X235965350Y-10850747D01*
X235965350Y-10850747D02*
X236027255Y-10912652D01*
X236027255Y-10912652D02*
X236089160Y-11036461D01*
X236089160Y-11036461D02*
X236089160Y-11345985D01*
X236089160Y-11345985D02*
X236027255Y-11469795D01*
X236027255Y-11469795D02*
X235965350Y-11531700D01*
X235965350Y-11531700D02*
X235841541Y-11593604D01*
X235841541Y-11593604D02*
X235532017Y-11593604D01*
X235532017Y-11593604D02*
X235408207Y-11531700D01*
X235408207Y-11531700D02*
X235346303Y-11469795D01*
D10*
D11*
X285965350Y-10293604D02*
X285717731Y-10293604D01*
X285717731Y-10293604D02*
X285593922Y-10355509D01*
X285593922Y-10355509D02*
X285532017Y-10417414D01*
X285532017Y-10417414D02*
X285408207Y-10603128D01*
X285408207Y-10603128D02*
X285346303Y-10850747D01*
X285346303Y-10850747D02*
X285346303Y-11345985D01*
X285346303Y-11345985D02*
X285408207Y-11469795D01*
X285408207Y-11469795D02*
X285470112Y-11531700D01*
X285470112Y-11531700D02*
X285593922Y-11593604D01*
X285593922Y-11593604D02*
X285841541Y-11593604D01*
X285841541Y-11593604D02*
X285965350Y-11531700D01*
X285965350Y-11531700D02*
X286027255Y-11469795D01*
X286027255Y-11469795D02*
X286089160Y-11345985D01*
X286089160Y-11345985D02*
X286089160Y-11036461D01*
X286089160Y-11036461D02*
X286027255Y-10912652D01*
X286027255Y-10912652D02*
X285965350Y-10850747D01*
X285965350Y-10850747D02*
X285841541Y-10788842D01*
X285841541Y-10788842D02*
X285593922Y-10788842D01*
X285593922Y-10788842D02*
X285470112Y-10850747D01*
X285470112Y-10850747D02*
X285408207Y-10912652D01*
X285408207Y-10912652D02*
X285346303Y-11036461D01*
D10*
D11*
X60000000Y-198007200D02*
X60000000Y-200007200D01*
D10*
D11*
X110000000Y-198007200D02*
X110000000Y-200007200D01*
D10*
D11*
X160000000Y-198007200D02*
X160000000Y-200007200D01*
D10*
D11*
X210000000Y-198007200D02*
X210000000Y-200007200D01*
D10*
D11*
X260000000Y-198007200D02*
X260000000Y-200007200D01*
D10*
D11*
X36089160Y-199600804D02*
X35346303Y-199600804D01*
X35717731Y-199600804D02*
X35717731Y-198300804D01*
X35717731Y-198300804D02*
X35593922Y-198486519D01*
X35593922Y-198486519D02*
X35470112Y-198610328D01*
X35470112Y-198610328D02*
X35346303Y-198672233D01*
D10*
D11*
X85346303Y-198424614D02*
X85408207Y-198362709D01*
X85408207Y-198362709D02*
X85532017Y-198300804D01*
X85532017Y-198300804D02*
X85841541Y-198300804D01*
X85841541Y-198300804D02*
X85965350Y-198362709D01*
X85965350Y-198362709D02*
X86027255Y-198424614D01*
X86027255Y-198424614D02*
X86089160Y-198548423D01*
X86089160Y-198548423D02*
X86089160Y-198672233D01*
X86089160Y-198672233D02*
X86027255Y-198857947D01*
X86027255Y-198857947D02*
X85284398Y-199600804D01*
X85284398Y-199600804D02*
X86089160Y-199600804D01*
D10*
D11*
X135284398Y-198300804D02*
X136089160Y-198300804D01*
X136089160Y-198300804D02*
X135655826Y-198796042D01*
X135655826Y-198796042D02*
X135841541Y-198796042D01*
X135841541Y-198796042D02*
X135965350Y-198857947D01*
X135965350Y-198857947D02*
X136027255Y-198919852D01*
X136027255Y-198919852D02*
X136089160Y-199043661D01*
X136089160Y-199043661D02*
X136089160Y-199353185D01*
X136089160Y-199353185D02*
X136027255Y-199476995D01*
X136027255Y-199476995D02*
X135965350Y-199538900D01*
X135965350Y-199538900D02*
X135841541Y-199600804D01*
X135841541Y-199600804D02*
X135470112Y-199600804D01*
X135470112Y-199600804D02*
X135346303Y-199538900D01*
X135346303Y-199538900D02*
X135284398Y-199476995D01*
D10*
D11*
X185965350Y-198734138D02*
X185965350Y-199600804D01*
X185655826Y-198238900D02*
X185346303Y-199167471D01*
X185346303Y-199167471D02*
X186151064Y-199167471D01*
D10*
D11*
X236027255Y-198300804D02*
X235408207Y-198300804D01*
X235408207Y-198300804D02*
X235346303Y-198919852D01*
X235346303Y-198919852D02*
X235408207Y-198857947D01*
X235408207Y-198857947D02*
X235532017Y-198796042D01*
X235532017Y-198796042D02*
X235841541Y-198796042D01*
X235841541Y-198796042D02*
X235965350Y-198857947D01*
X235965350Y-198857947D02*
X236027255Y-198919852D01*
X236027255Y-198919852D02*
X236089160Y-199043661D01*
X236089160Y-199043661D02*
X236089160Y-199353185D01*
X236089160Y-199353185D02*
X236027255Y-199476995D01*
X236027255Y-199476995D02*
X235965350Y-199538900D01*
X235965350Y-199538900D02*
X235841541Y-199600804D01*
X235841541Y-199600804D02*
X235532017Y-199600804D01*
X235532017Y-199600804D02*
X235408207Y-199538900D01*
X235408207Y-199538900D02*
X235346303Y-199476995D01*
D10*
D11*
X285965350Y-198300804D02*
X285717731Y-198300804D01*
X285717731Y-198300804D02*
X285593922Y-198362709D01*
X285593922Y-198362709D02*
X285532017Y-198424614D01*
X285532017Y-198424614D02*
X285408207Y-198610328D01*
X285408207Y-198610328D02*
X285346303Y-198857947D01*
X285346303Y-198857947D02*
X285346303Y-199353185D01*
X285346303Y-199353185D02*
X285408207Y-199476995D01*
X285408207Y-199476995D02*
X285470112Y-199538900D01*
X285470112Y-199538900D02*
X285593922Y-199600804D01*
X285593922Y-199600804D02*
X285841541Y-199600804D01*
X285841541Y-199600804D02*
X285965350Y-199538900D01*
X285965350Y-199538900D02*
X286027255Y-199476995D01*
X286027255Y-199476995D02*
X286089160Y-199353185D01*
X286089160Y-199353185D02*
X286089160Y-199043661D01*
X286089160Y-199043661D02*
X286027255Y-198919852D01*
X286027255Y-198919852D02*
X285965350Y-198857947D01*
X285965350Y-198857947D02*
X285841541Y-198796042D01*
X285841541Y-198796042D02*
X285593922Y-198796042D01*
X285593922Y-198796042D02*
X285470112Y-198857947D01*
X285470112Y-198857947D02*
X285408207Y-198919852D01*
X285408207Y-198919852D02*
X285346303Y-199043661D01*
D10*
D11*
X10000000Y-60000000D02*
X12000000Y-60000000D01*
D10*
D11*
X10000000Y-110000000D02*
X12000000Y-110000000D01*
D10*
D11*
X10000000Y-160000000D02*
X12000000Y-160000000D01*
D10*
D11*
X10690476Y-35222176D02*
X11309523Y-35222176D01*
X10566666Y-35593604D02*
X10999999Y-34293604D01*
X10999999Y-34293604D02*
X11433333Y-35593604D01*
D10*
D11*
X11092857Y-84912652D02*
X11278571Y-84974557D01*
X11278571Y-84974557D02*
X11340476Y-85036461D01*
X11340476Y-85036461D02*
X11402380Y-85160271D01*
X11402380Y-85160271D02*
X11402380Y-85345985D01*
X11402380Y-85345985D02*
X11340476Y-85469795D01*
X11340476Y-85469795D02*
X11278571Y-85531700D01*
X11278571Y-85531700D02*
X11154761Y-85593604D01*
X11154761Y-85593604D02*
X10659523Y-85593604D01*
X10659523Y-85593604D02*
X10659523Y-84293604D01*
X10659523Y-84293604D02*
X11092857Y-84293604D01*
X11092857Y-84293604D02*
X11216666Y-84355509D01*
X11216666Y-84355509D02*
X11278571Y-84417414D01*
X11278571Y-84417414D02*
X11340476Y-84541223D01*
X11340476Y-84541223D02*
X11340476Y-84665033D01*
X11340476Y-84665033D02*
X11278571Y-84788842D01*
X11278571Y-84788842D02*
X11216666Y-84850747D01*
X11216666Y-84850747D02*
X11092857Y-84912652D01*
X11092857Y-84912652D02*
X10659523Y-84912652D01*
D10*
D11*
X11402380Y-135469795D02*
X11340476Y-135531700D01*
X11340476Y-135531700D02*
X11154761Y-135593604D01*
X11154761Y-135593604D02*
X11030952Y-135593604D01*
X11030952Y-135593604D02*
X10845238Y-135531700D01*
X10845238Y-135531700D02*
X10721428Y-135407890D01*
X10721428Y-135407890D02*
X10659523Y-135284080D01*
X10659523Y-135284080D02*
X10597619Y-135036461D01*
X10597619Y-135036461D02*
X10597619Y-134850747D01*
X10597619Y-134850747D02*
X10659523Y-134603128D01*
X10659523Y-134603128D02*
X10721428Y-134479319D01*
X10721428Y-134479319D02*
X10845238Y-134355509D01*
X10845238Y-134355509D02*
X11030952Y-134293604D01*
X11030952Y-134293604D02*
X11154761Y-134293604D01*
X11154761Y-134293604D02*
X11340476Y-134355509D01*
X11340476Y-134355509D02*
X11402380Y-134417414D01*
D10*
D11*
X10659523Y-185593604D02*
X10659523Y-184293604D01*
X10659523Y-184293604D02*
X10969047Y-184293604D01*
X10969047Y-184293604D02*
X11154761Y-184355509D01*
X11154761Y-184355509D02*
X11278571Y-184479319D01*
X11278571Y-184479319D02*
X11340476Y-184603128D01*
X11340476Y-184603128D02*
X11402380Y-184850747D01*
X11402380Y-184850747D02*
X11402380Y-185036461D01*
X11402380Y-185036461D02*
X11340476Y-185284080D01*
X11340476Y-185284080D02*
X11278571Y-185407890D01*
X11278571Y-185407890D02*
X11154761Y-185531700D01*
X11154761Y-185531700D02*
X10969047Y-185593604D01*
X10969047Y-185593604D02*
X10659523Y-185593604D01*
D10*
D11*
X287002200Y-60000000D02*
X285002200Y-60000000D01*
D10*
D11*
X287002200Y-110000000D02*
X285002200Y-110000000D01*
D10*
D11*
X287002200Y-160000000D02*
X285002200Y-160000000D01*
D10*
D11*
X285692676Y-35222176D02*
X286311723Y-35222176D01*
X285568866Y-35593604D02*
X286002199Y-34293604D01*
X286002199Y-34293604D02*
X286435533Y-35593604D01*
D10*
D11*
X286095057Y-84912652D02*
X286280771Y-84974557D01*
X286280771Y-84974557D02*
X286342676Y-85036461D01*
X286342676Y-85036461D02*
X286404580Y-85160271D01*
X286404580Y-85160271D02*
X286404580Y-85345985D01*
X286404580Y-85345985D02*
X286342676Y-85469795D01*
X286342676Y-85469795D02*
X286280771Y-85531700D01*
X286280771Y-85531700D02*
X286156961Y-85593604D01*
X286156961Y-85593604D02*
X285661723Y-85593604D01*
X285661723Y-85593604D02*
X285661723Y-84293604D01*
X285661723Y-84293604D02*
X286095057Y-84293604D01*
X286095057Y-84293604D02*
X286218866Y-84355509D01*
X286218866Y-84355509D02*
X286280771Y-84417414D01*
X286280771Y-84417414D02*
X286342676Y-84541223D01*
X286342676Y-84541223D02*
X286342676Y-84665033D01*
X286342676Y-84665033D02*
X286280771Y-84788842D01*
X286280771Y-84788842D02*
X286218866Y-84850747D01*
X286218866Y-84850747D02*
X286095057Y-84912652D01*
X286095057Y-84912652D02*
X285661723Y-84912652D01*
D10*
D11*
X286404580Y-135469795D02*
X286342676Y-135531700D01*
X286342676Y-135531700D02*
X286156961Y-135593604D01*
X286156961Y-135593604D02*
X286033152Y-135593604D01*
X286033152Y-135593604D02*
X285847438Y-135531700D01*
X285847438Y-135531700D02*
X285723628Y-135407890D01*
X285723628Y-135407890D02*
X285661723Y-135284080D01*
X285661723Y-135284080D02*
X285599819Y-135036461D01*
X285599819Y-135036461D02*
X285599819Y-134850747D01*
X285599819Y-134850747D02*
X285661723Y-134603128D01*
X285661723Y-134603128D02*
X285723628Y-134479319D01*
X285723628Y-134479319D02*
X285847438Y-134355509D01*
X285847438Y-134355509D02*
X286033152Y-134293604D01*
X286033152Y-134293604D02*
X286156961Y-134293604D01*
X286156961Y-134293604D02*
X286342676Y-134355509D01*
X286342676Y-134355509D02*
X286404580Y-134417414D01*
D10*
D11*
X285661723Y-185593604D02*
X285661723Y-184293604D01*
X285661723Y-184293604D02*
X285971247Y-184293604D01*
X285971247Y-184293604D02*
X286156961Y-184355509D01*
X286156961Y-184355509D02*
X286280771Y-184479319D01*
X286280771Y-184479319D02*
X286342676Y-184603128D01*
X286342676Y-184603128D02*
X286404580Y-184850747D01*
X286404580Y-184850747D02*
X286404580Y-185036461D01*
X286404580Y-185036461D02*
X286342676Y-185284080D01*
X286342676Y-185284080D02*
X286280771Y-185407890D01*
X286280771Y-185407890D02*
X286156961Y-185531700D01*
X286156961Y-185531700D02*
X285971247Y-185593604D01*
X285971247Y-185593604D02*
X285661723Y-185593604D01*
D10*
D11*
X200458026Y-193793328D02*
X200458026Y-192293328D01*
X200458026Y-192293328D02*
X200815169Y-192293328D01*
X200815169Y-192293328D02*
X201029455Y-192364757D01*
X201029455Y-192364757D02*
X201172312Y-192507614D01*
X201172312Y-192507614D02*
X201243741Y-192650471D01*
X201243741Y-192650471D02*
X201315169Y-192936185D01*
X201315169Y-192936185D02*
X201315169Y-193150471D01*
X201315169Y-193150471D02*
X201243741Y-193436185D01*
X201243741Y-193436185D02*
X201172312Y-193579042D01*
X201172312Y-193579042D02*
X201029455Y-193721900D01*
X201029455Y-193721900D02*
X200815169Y-193793328D01*
X200815169Y-193793328D02*
X200458026Y-193793328D01*
X202600884Y-193793328D02*
X202600884Y-193007614D01*
X202600884Y-193007614D02*
X202529455Y-192864757D01*
X202529455Y-192864757D02*
X202386598Y-192793328D01*
X202386598Y-192793328D02*
X202100884Y-192793328D01*
X202100884Y-192793328D02*
X201958026Y-192864757D01*
X202600884Y-193721900D02*
X202458026Y-193793328D01*
X202458026Y-193793328D02*
X202100884Y-193793328D01*
X202100884Y-193793328D02*
X201958026Y-193721900D01*
X201958026Y-193721900D02*
X201886598Y-193579042D01*
X201886598Y-193579042D02*
X201886598Y-193436185D01*
X201886598Y-193436185D02*
X201958026Y-193293328D01*
X201958026Y-193293328D02*
X202100884Y-193221900D01*
X202100884Y-193221900D02*
X202458026Y-193221900D01*
X202458026Y-193221900D02*
X202600884Y-193150471D01*
X203100884Y-192793328D02*
X203672312Y-192793328D01*
X203315169Y-192293328D02*
X203315169Y-193579042D01*
X203315169Y-193579042D02*
X203386598Y-193721900D01*
X203386598Y-193721900D02*
X203529455Y-193793328D01*
X203529455Y-193793328D02*
X203672312Y-193793328D01*
X204743741Y-193721900D02*
X204600884Y-193793328D01*
X204600884Y-193793328D02*
X204315170Y-193793328D01*
X204315170Y-193793328D02*
X204172312Y-193721900D01*
X204172312Y-193721900D02*
X204100884Y-193579042D01*
X204100884Y-193579042D02*
X204100884Y-193007614D01*
X204100884Y-193007614D02*
X204172312Y-192864757D01*
X204172312Y-192864757D02*
X204315170Y-192793328D01*
X204315170Y-192793328D02*
X204600884Y-192793328D01*
X204600884Y-192793328D02*
X204743741Y-192864757D01*
X204743741Y-192864757D02*
X204815170Y-193007614D01*
X204815170Y-193007614D02*
X204815170Y-193150471D01*
X204815170Y-193150471D02*
X204100884Y-193293328D01*
X205458026Y-193650471D02*
X205529455Y-193721900D01*
X205529455Y-193721900D02*
X205458026Y-193793328D01*
X205458026Y-193793328D02*
X205386598Y-193721900D01*
X205386598Y-193721900D02*
X205458026Y-193650471D01*
X205458026Y-193650471D02*
X205458026Y-193793328D01*
X205458026Y-192864757D02*
X205529455Y-192936185D01*
X205529455Y-192936185D02*
X205458026Y-193007614D01*
X205458026Y-193007614D02*
X205386598Y-192936185D01*
X205386598Y-192936185D02*
X205458026Y-192864757D01*
X205458026Y-192864757D02*
X205458026Y-193007614D01*
X207243741Y-192436185D02*
X207315169Y-192364757D01*
X207315169Y-192364757D02*
X207458027Y-192293328D01*
X207458027Y-192293328D02*
X207815169Y-192293328D01*
X207815169Y-192293328D02*
X207958027Y-192364757D01*
X207958027Y-192364757D02*
X208029455Y-192436185D01*
X208029455Y-192436185D02*
X208100884Y-192579042D01*
X208100884Y-192579042D02*
X208100884Y-192721900D01*
X208100884Y-192721900D02*
X208029455Y-192936185D01*
X208029455Y-192936185D02*
X207172312Y-193793328D01*
X207172312Y-193793328D02*
X208100884Y-193793328D01*
X209029455Y-192293328D02*
X209172312Y-192293328D01*
X209172312Y-192293328D02*
X209315169Y-192364757D01*
X209315169Y-192364757D02*
X209386598Y-192436185D01*
X209386598Y-192436185D02*
X209458026Y-192579042D01*
X209458026Y-192579042D02*
X209529455Y-192864757D01*
X209529455Y-192864757D02*
X209529455Y-193221900D01*
X209529455Y-193221900D02*
X209458026Y-193507614D01*
X209458026Y-193507614D02*
X209386598Y-193650471D01*
X209386598Y-193650471D02*
X209315169Y-193721900D01*
X209315169Y-193721900D02*
X209172312Y-193793328D01*
X209172312Y-193793328D02*
X209029455Y-193793328D01*
X209029455Y-193793328D02*
X208886598Y-193721900D01*
X208886598Y-193721900D02*
X208815169Y-193650471D01*
X208815169Y-193650471D02*
X208743740Y-193507614D01*
X208743740Y-193507614D02*
X208672312Y-193221900D01*
X208672312Y-193221900D02*
X208672312Y-192864757D01*
X208672312Y-192864757D02*
X208743740Y-192579042D01*
X208743740Y-192579042D02*
X208815169Y-192436185D01*
X208815169Y-192436185D02*
X208886598Y-192364757D01*
X208886598Y-192364757D02*
X209029455Y-192293328D01*
X210100883Y-192436185D02*
X210172311Y-192364757D01*
X210172311Y-192364757D02*
X210315169Y-192293328D01*
X210315169Y-192293328D02*
X210672311Y-192293328D01*
X210672311Y-192293328D02*
X210815169Y-192364757D01*
X210815169Y-192364757D02*
X210886597Y-192436185D01*
X210886597Y-192436185D02*
X210958026Y-192579042D01*
X210958026Y-192579042D02*
X210958026Y-192721900D01*
X210958026Y-192721900D02*
X210886597Y-192936185D01*
X210886597Y-192936185D02*
X210029454Y-193793328D01*
X210029454Y-193793328D02*
X210958026Y-193793328D01*
X211458025Y-192293328D02*
X212386597Y-192293328D01*
X212386597Y-192293328D02*
X211886597Y-192864757D01*
X211886597Y-192864757D02*
X212100882Y-192864757D01*
X212100882Y-192864757D02*
X212243740Y-192936185D01*
X212243740Y-192936185D02*
X212315168Y-193007614D01*
X212315168Y-193007614D02*
X212386597Y-193150471D01*
X212386597Y-193150471D02*
X212386597Y-193507614D01*
X212386597Y-193507614D02*
X212315168Y-193650471D01*
X212315168Y-193650471D02*
X212243740Y-193721900D01*
X212243740Y-193721900D02*
X212100882Y-193793328D01*
X212100882Y-193793328D02*
X211672311Y-193793328D01*
X211672311Y-193793328D02*
X211529454Y-193721900D01*
X211529454Y-193721900D02*
X211458025Y-193650471D01*
X213029453Y-193221900D02*
X214172311Y-193221900D01*
X215672311Y-193793328D02*
X214815168Y-193793328D01*
X215243739Y-193793328D02*
X215243739Y-192293328D01*
X215243739Y-192293328D02*
X215100882Y-192507614D01*
X215100882Y-192507614D02*
X214958025Y-192650471D01*
X214958025Y-192650471D02*
X214815168Y-192721900D01*
X216600882Y-192293328D02*
X216743739Y-192293328D01*
X216743739Y-192293328D02*
X216886596Y-192364757D01*
X216886596Y-192364757D02*
X216958025Y-192436185D01*
X216958025Y-192436185D02*
X217029453Y-192579042D01*
X217029453Y-192579042D02*
X217100882Y-192864757D01*
X217100882Y-192864757D02*
X217100882Y-193221900D01*
X217100882Y-193221900D02*
X217029453Y-193507614D01*
X217029453Y-193507614D02*
X216958025Y-193650471D01*
X216958025Y-193650471D02*
X216886596Y-193721900D01*
X216886596Y-193721900D02*
X216743739Y-193793328D01*
X216743739Y-193793328D02*
X216600882Y-193793328D01*
X216600882Y-193793328D02*
X216458025Y-193721900D01*
X216458025Y-193721900D02*
X216386596Y-193650471D01*
X216386596Y-193650471D02*
X216315167Y-193507614D01*
X216315167Y-193507614D02*
X216243739Y-193221900D01*
X216243739Y-193221900D02*
X216243739Y-192864757D01*
X216243739Y-192864757D02*
X216315167Y-192579042D01*
X216315167Y-192579042D02*
X216386596Y-192436185D01*
X216386596Y-192436185D02*
X216458025Y-192364757D01*
X216458025Y-192364757D02*
X216600882Y-192293328D01*
X217743738Y-193221900D02*
X218886596Y-193221900D01*
X219886596Y-192293328D02*
X220029453Y-192293328D01*
X220029453Y-192293328D02*
X220172310Y-192364757D01*
X220172310Y-192364757D02*
X220243739Y-192436185D01*
X220243739Y-192436185D02*
X220315167Y-192579042D01*
X220315167Y-192579042D02*
X220386596Y-192864757D01*
X220386596Y-192864757D02*
X220386596Y-193221900D01*
X220386596Y-193221900D02*
X220315167Y-193507614D01*
X220315167Y-193507614D02*
X220243739Y-193650471D01*
X220243739Y-193650471D02*
X220172310Y-193721900D01*
X220172310Y-193721900D02*
X220029453Y-193793328D01*
X220029453Y-193793328D02*
X219886596Y-193793328D01*
X219886596Y-193793328D02*
X219743739Y-193721900D01*
X219743739Y-193721900D02*
X219672310Y-193650471D01*
X219672310Y-193650471D02*
X219600881Y-193507614D01*
X219600881Y-193507614D02*
X219529453Y-193221900D01*
X219529453Y-193221900D02*
X219529453Y-192864757D01*
X219529453Y-192864757D02*
X219600881Y-192579042D01*
X219600881Y-192579042D02*
X219672310Y-192436185D01*
X219672310Y-192436185D02*
X219743739Y-192364757D01*
X219743739Y-192364757D02*
X219886596Y-192293328D01*
X221743738Y-192293328D02*
X221029452Y-192293328D01*
X221029452Y-192293328D02*
X220958024Y-193007614D01*
X220958024Y-193007614D02*
X221029452Y-192936185D01*
X221029452Y-192936185D02*
X221172310Y-192864757D01*
X221172310Y-192864757D02*
X221529452Y-192864757D01*
X221529452Y-192864757D02*
X221672310Y-192936185D01*
X221672310Y-192936185D02*
X221743738Y-193007614D01*
X221743738Y-193007614D02*
X221815167Y-193150471D01*
X221815167Y-193150471D02*
X221815167Y-193507614D01*
X221815167Y-193507614D02*
X221743738Y-193650471D01*
X221743738Y-193650471D02*
X221672310Y-193721900D01*
X221672310Y-193721900D02*
X221529452Y-193793328D01*
X221529452Y-193793328D02*
X221172310Y-193793328D01*
X221172310Y-193793328D02*
X221029452Y-193721900D01*
X221029452Y-193721900D02*
X220958024Y-193650471D01*
D10*
D11*
X177002200Y-194507200D02*
X285002200Y-194507200D01*
D10*
D11*
X178458026Y-196593328D02*
X178458026Y-195093328D01*
X179315169Y-196593328D02*
X178672312Y-195736185D01*
X179315169Y-195093328D02*
X178458026Y-195950471D01*
X179958026Y-196593328D02*
X179958026Y-195593328D01*
X179958026Y-195093328D02*
X179886598Y-195164757D01*
X179886598Y-195164757D02*
X179958026Y-195236185D01*
X179958026Y-195236185D02*
X180029455Y-195164757D01*
X180029455Y-195164757D02*
X179958026Y-195093328D01*
X179958026Y-195093328D02*
X179958026Y-195236185D01*
X181529455Y-196450471D02*
X181458027Y-196521900D01*
X181458027Y-196521900D02*
X181243741Y-196593328D01*
X181243741Y-196593328D02*
X181100884Y-196593328D01*
X181100884Y-196593328D02*
X180886598Y-196521900D01*
X180886598Y-196521900D02*
X180743741Y-196379042D01*
X180743741Y-196379042D02*
X180672312Y-196236185D01*
X180672312Y-196236185D02*
X180600884Y-195950471D01*
X180600884Y-195950471D02*
X180600884Y-195736185D01*
X180600884Y-195736185D02*
X180672312Y-195450471D01*
X180672312Y-195450471D02*
X180743741Y-195307614D01*
X180743741Y-195307614D02*
X180886598Y-195164757D01*
X180886598Y-195164757D02*
X181100884Y-195093328D01*
X181100884Y-195093328D02*
X181243741Y-195093328D01*
X181243741Y-195093328D02*
X181458027Y-195164757D01*
X181458027Y-195164757D02*
X181529455Y-195236185D01*
X182815170Y-196593328D02*
X182815170Y-195807614D01*
X182815170Y-195807614D02*
X182743741Y-195664757D01*
X182743741Y-195664757D02*
X182600884Y-195593328D01*
X182600884Y-195593328D02*
X182315170Y-195593328D01*
X182315170Y-195593328D02*
X182172312Y-195664757D01*
X182815170Y-196521900D02*
X182672312Y-196593328D01*
X182672312Y-196593328D02*
X182315170Y-196593328D01*
X182315170Y-196593328D02*
X182172312Y-196521900D01*
X182172312Y-196521900D02*
X182100884Y-196379042D01*
X182100884Y-196379042D02*
X182100884Y-196236185D01*
X182100884Y-196236185D02*
X182172312Y-196093328D01*
X182172312Y-196093328D02*
X182315170Y-196021900D01*
X182315170Y-196021900D02*
X182672312Y-196021900D01*
X182672312Y-196021900D02*
X182815170Y-195950471D01*
X184172313Y-196593328D02*
X184172313Y-195093328D01*
X184172313Y-196521900D02*
X184029455Y-196593328D01*
X184029455Y-196593328D02*
X183743741Y-196593328D01*
X183743741Y-196593328D02*
X183600884Y-196521900D01*
X183600884Y-196521900D02*
X183529455Y-196450471D01*
X183529455Y-196450471D02*
X183458027Y-196307614D01*
X183458027Y-196307614D02*
X183458027Y-195879042D01*
X183458027Y-195879042D02*
X183529455Y-195736185D01*
X183529455Y-195736185D02*
X183600884Y-195664757D01*
X183600884Y-195664757D02*
X183743741Y-195593328D01*
X183743741Y-195593328D02*
X184029455Y-195593328D01*
X184029455Y-195593328D02*
X184172313Y-195664757D01*
X186029455Y-195807614D02*
X186529455Y-195807614D01*
X186743741Y-196593328D02*
X186029455Y-196593328D01*
X186029455Y-196593328D02*
X186029455Y-195093328D01*
X186029455Y-195093328D02*
X186743741Y-195093328D01*
X187386598Y-196450471D02*
X187458027Y-196521900D01*
X187458027Y-196521900D02*
X187386598Y-196593328D01*
X187386598Y-196593328D02*
X187315170Y-196521900D01*
X187315170Y-196521900D02*
X187386598Y-196450471D01*
X187386598Y-196450471D02*
X187386598Y-196593328D01*
X188100884Y-196593328D02*
X188100884Y-195093328D01*
X188100884Y-195093328D02*
X188458027Y-195093328D01*
X188458027Y-195093328D02*
X188672313Y-195164757D01*
X188672313Y-195164757D02*
X188815170Y-195307614D01*
X188815170Y-195307614D02*
X188886599Y-195450471D01*
X188886599Y-195450471D02*
X188958027Y-195736185D01*
X188958027Y-195736185D02*
X188958027Y-195950471D01*
X188958027Y-195950471D02*
X188886599Y-196236185D01*
X188886599Y-196236185D02*
X188815170Y-196379042D01*
X188815170Y-196379042D02*
X188672313Y-196521900D01*
X188672313Y-196521900D02*
X188458027Y-196593328D01*
X188458027Y-196593328D02*
X188100884Y-196593328D01*
X189600884Y-196450471D02*
X189672313Y-196521900D01*
X189672313Y-196521900D02*
X189600884Y-196593328D01*
X189600884Y-196593328D02*
X189529456Y-196521900D01*
X189529456Y-196521900D02*
X189600884Y-196450471D01*
X189600884Y-196450471D02*
X189600884Y-196593328D01*
X190243742Y-196164757D02*
X190958028Y-196164757D01*
X190100885Y-196593328D02*
X190600885Y-195093328D01*
X190600885Y-195093328D02*
X191100885Y-196593328D01*
X191600884Y-196450471D02*
X191672313Y-196521900D01*
X191672313Y-196521900D02*
X191600884Y-196593328D01*
X191600884Y-196593328D02*
X191529456Y-196521900D01*
X191529456Y-196521900D02*
X191600884Y-196450471D01*
X191600884Y-196450471D02*
X191600884Y-196593328D01*
X194600884Y-196593328D02*
X194600884Y-195093328D01*
X194743742Y-196021900D02*
X195172313Y-196593328D01*
X195172313Y-195593328D02*
X194600884Y-196164757D01*
X195815170Y-196593328D02*
X195815170Y-195593328D01*
X195815170Y-195093328D02*
X195743742Y-195164757D01*
X195743742Y-195164757D02*
X195815170Y-195236185D01*
X195815170Y-195236185D02*
X195886599Y-195164757D01*
X195886599Y-195164757D02*
X195815170Y-195093328D01*
X195815170Y-195093328D02*
X195815170Y-195236185D01*
X197172314Y-196521900D02*
X197029456Y-196593328D01*
X197029456Y-196593328D02*
X196743742Y-196593328D01*
X196743742Y-196593328D02*
X196600885Y-196521900D01*
X196600885Y-196521900D02*
X196529456Y-196450471D01*
X196529456Y-196450471D02*
X196458028Y-196307614D01*
X196458028Y-196307614D02*
X196458028Y-195879042D01*
X196458028Y-195879042D02*
X196529456Y-195736185D01*
X196529456Y-195736185D02*
X196600885Y-195664757D01*
X196600885Y-195664757D02*
X196743742Y-195593328D01*
X196743742Y-195593328D02*
X197029456Y-195593328D01*
X197029456Y-195593328D02*
X197172314Y-195664757D01*
X198458028Y-196593328D02*
X198458028Y-195807614D01*
X198458028Y-195807614D02*
X198386599Y-195664757D01*
X198386599Y-195664757D02*
X198243742Y-195593328D01*
X198243742Y-195593328D02*
X197958028Y-195593328D01*
X197958028Y-195593328D02*
X197815170Y-195664757D01*
X198458028Y-196521900D02*
X198315170Y-196593328D01*
X198315170Y-196593328D02*
X197958028Y-196593328D01*
X197958028Y-196593328D02*
X197815170Y-196521900D01*
X197815170Y-196521900D02*
X197743742Y-196379042D01*
X197743742Y-196379042D02*
X197743742Y-196236185D01*
X197743742Y-196236185D02*
X197815170Y-196093328D01*
X197815170Y-196093328D02*
X197958028Y-196021900D01*
X197958028Y-196021900D02*
X198315170Y-196021900D01*
X198315170Y-196021900D02*
X198458028Y-195950471D01*
X199815171Y-196593328D02*
X199815171Y-195093328D01*
X199815171Y-196521900D02*
X199672313Y-196593328D01*
X199672313Y-196593328D02*
X199386599Y-196593328D01*
X199386599Y-196593328D02*
X199243742Y-196521900D01*
X199243742Y-196521900D02*
X199172313Y-196450471D01*
X199172313Y-196450471D02*
X199100885Y-196307614D01*
X199100885Y-196307614D02*
X199100885Y-195879042D01*
X199100885Y-195879042D02*
X199172313Y-195736185D01*
X199172313Y-195736185D02*
X199243742Y-195664757D01*
X199243742Y-195664757D02*
X199386599Y-195593328D01*
X199386599Y-195593328D02*
X199672313Y-195593328D01*
X199672313Y-195593328D02*
X199815171Y-195664757D01*
X201529456Y-195093328D02*
X202529456Y-195093328D01*
X202529456Y-195093328D02*
X201886599Y-196593328D01*
X203100884Y-196450471D02*
X203172313Y-196521900D01*
X203172313Y-196521900D02*
X203100884Y-196593328D01*
X203100884Y-196593328D02*
X203029456Y-196521900D01*
X203029456Y-196521900D02*
X203100884Y-196450471D01*
X203100884Y-196450471D02*
X203100884Y-196593328D01*
X204100885Y-195093328D02*
X204243742Y-195093328D01*
X204243742Y-195093328D02*
X204386599Y-195164757D01*
X204386599Y-195164757D02*
X204458028Y-195236185D01*
X204458028Y-195236185D02*
X204529456Y-195379042D01*
X204529456Y-195379042D02*
X204600885Y-195664757D01*
X204600885Y-195664757D02*
X204600885Y-196021900D01*
X204600885Y-196021900D02*
X204529456Y-196307614D01*
X204529456Y-196307614D02*
X204458028Y-196450471D01*
X204458028Y-196450471D02*
X204386599Y-196521900D01*
X204386599Y-196521900D02*
X204243742Y-196593328D01*
X204243742Y-196593328D02*
X204100885Y-196593328D01*
X204100885Y-196593328D02*
X203958028Y-196521900D01*
X203958028Y-196521900D02*
X203886599Y-196450471D01*
X203886599Y-196450471D02*
X203815170Y-196307614D01*
X203815170Y-196307614D02*
X203743742Y-196021900D01*
X203743742Y-196021900D02*
X203743742Y-195664757D01*
X203743742Y-195664757D02*
X203815170Y-195379042D01*
X203815170Y-195379042D02*
X203886599Y-195236185D01*
X203886599Y-195236185D02*
X203958028Y-195164757D01*
X203958028Y-195164757D02*
X204100885Y-195093328D01*
X205243741Y-196450471D02*
X205315170Y-196521900D01*
X205315170Y-196521900D02*
X205243741Y-196593328D01*
X205243741Y-196593328D02*
X205172313Y-196521900D01*
X205172313Y-196521900D02*
X205243741Y-196450471D01*
X205243741Y-196450471D02*
X205243741Y-196593328D01*
X206172313Y-195736185D02*
X206029456Y-195664757D01*
X206029456Y-195664757D02*
X205958027Y-195593328D01*
X205958027Y-195593328D02*
X205886599Y-195450471D01*
X205886599Y-195450471D02*
X205886599Y-195379042D01*
X205886599Y-195379042D02*
X205958027Y-195236185D01*
X205958027Y-195236185D02*
X206029456Y-195164757D01*
X206029456Y-195164757D02*
X206172313Y-195093328D01*
X206172313Y-195093328D02*
X206458027Y-195093328D01*
X206458027Y-195093328D02*
X206600885Y-195164757D01*
X206600885Y-195164757D02*
X206672313Y-195236185D01*
X206672313Y-195236185D02*
X206743742Y-195379042D01*
X206743742Y-195379042D02*
X206743742Y-195450471D01*
X206743742Y-195450471D02*
X206672313Y-195593328D01*
X206672313Y-195593328D02*
X206600885Y-195664757D01*
X206600885Y-195664757D02*
X206458027Y-195736185D01*
X206458027Y-195736185D02*
X206172313Y-195736185D01*
X206172313Y-195736185D02*
X206029456Y-195807614D01*
X206029456Y-195807614D02*
X205958027Y-195879042D01*
X205958027Y-195879042D02*
X205886599Y-196021900D01*
X205886599Y-196021900D02*
X205886599Y-196307614D01*
X205886599Y-196307614D02*
X205958027Y-196450471D01*
X205958027Y-196450471D02*
X206029456Y-196521900D01*
X206029456Y-196521900D02*
X206172313Y-196593328D01*
X206172313Y-196593328D02*
X206458027Y-196593328D01*
X206458027Y-196593328D02*
X206600885Y-196521900D01*
X206600885Y-196521900D02*
X206672313Y-196450471D01*
X206672313Y-196450471D02*
X206743742Y-196307614D01*
X206743742Y-196307614D02*
X206743742Y-196021900D01*
X206743742Y-196021900D02*
X206672313Y-195879042D01*
X206672313Y-195879042D02*
X206600885Y-195807614D01*
X206600885Y-195807614D02*
X206458027Y-195736185D01*
D10*
D11*
X177002200Y-191507200D02*
X285002200Y-191507200D01*
D10*
D12*
X264413853Y-193785528D02*
X263913853Y-193071242D01*
X263556710Y-193785528D02*
X263556710Y-192285528D01*
X263556710Y-192285528D02*
X264128139Y-192285528D01*
X264128139Y-192285528D02*
X264270996Y-192356957D01*
X264270996Y-192356957D02*
X264342425Y-192428385D01*
X264342425Y-192428385D02*
X264413853Y-192571242D01*
X264413853Y-192571242D02*
X264413853Y-192785528D01*
X264413853Y-192785528D02*
X264342425Y-192928385D01*
X264342425Y-192928385D02*
X264270996Y-192999814D01*
X264270996Y-192999814D02*
X264128139Y-193071242D01*
X264128139Y-193071242D02*
X263556710Y-193071242D01*
X265628139Y-193714100D02*
X265485282Y-193785528D01*
X265485282Y-193785528D02*
X265199568Y-193785528D01*
X265199568Y-193785528D02*
X265056710Y-193714100D01*
X265056710Y-193714100D02*
X264985282Y-193571242D01*
X264985282Y-193571242D02*
X264985282Y-192999814D01*
X264985282Y-192999814D02*
X265056710Y-192856957D01*
X265056710Y-192856957D02*
X265199568Y-192785528D01*
X265199568Y-192785528D02*
X265485282Y-192785528D01*
X265485282Y-192785528D02*
X265628139Y-192856957D01*
X265628139Y-192856957D02*
X265699568Y-192999814D01*
X265699568Y-192999814D02*
X265699568Y-193142671D01*
X265699568Y-193142671D02*
X264985282Y-193285528D01*
X266199567Y-192785528D02*
X266556710Y-193785528D01*
X266556710Y-193785528D02*
X266913853Y-192785528D01*
X267485281Y-193642671D02*
X267556710Y-193714100D01*
X267556710Y-193714100D02*
X267485281Y-193785528D01*
X267485281Y-193785528D02*
X267413853Y-193714100D01*
X267413853Y-193714100D02*
X267485281Y-193642671D01*
X267485281Y-193642671D02*
X267485281Y-193785528D01*
X267485281Y-192856957D02*
X267556710Y-192928385D01*
X267556710Y-192928385D02*
X267485281Y-192999814D01*
X267485281Y-192999814D02*
X267413853Y-192928385D01*
X267413853Y-192928385D02*
X267485281Y-192856957D01*
X267485281Y-192856957D02*
X267485281Y-192999814D01*
X269628139Y-192285528D02*
X269770996Y-192285528D01*
X269770996Y-192285528D02*
X269913853Y-192356957D01*
X269913853Y-192356957D02*
X269985282Y-192428385D01*
X269985282Y-192428385D02*
X270056710Y-192571242D01*
X270056710Y-192571242D02*
X270128139Y-192856957D01*
X270128139Y-192856957D02*
X270128139Y-193214100D01*
X270128139Y-193214100D02*
X270056710Y-193499814D01*
X270056710Y-193499814D02*
X269985282Y-193642671D01*
X269985282Y-193642671D02*
X269913853Y-193714100D01*
X269913853Y-193714100D02*
X269770996Y-193785528D01*
X269770996Y-193785528D02*
X269628139Y-193785528D01*
X269628139Y-193785528D02*
X269485282Y-193714100D01*
X269485282Y-193714100D02*
X269413853Y-193642671D01*
X269413853Y-193642671D02*
X269342424Y-193499814D01*
X269342424Y-193499814D02*
X269270996Y-193214100D01*
X269270996Y-193214100D02*
X269270996Y-192856957D01*
X269270996Y-192856957D02*
X269342424Y-192571242D01*
X269342424Y-192571242D02*
X269413853Y-192428385D01*
X269413853Y-192428385D02*
X269485282Y-192356957D01*
X269485282Y-192356957D02*
X269628139Y-192285528D01*
X270770995Y-193642671D02*
X270842424Y-193714100D01*
X270842424Y-193714100D02*
X270770995Y-193785528D01*
X270770995Y-193785528D02*
X270699567Y-193714100D01*
X270699567Y-193714100D02*
X270770995Y-193642671D01*
X270770995Y-193642671D02*
X270770995Y-193785528D01*
X271342424Y-192285528D02*
X272270996Y-192285528D01*
X272270996Y-192285528D02*
X271770996Y-192856957D01*
X271770996Y-192856957D02*
X271985281Y-192856957D01*
X271985281Y-192856957D02*
X272128139Y-192928385D01*
X272128139Y-192928385D02*
X272199567Y-192999814D01*
X272199567Y-192999814D02*
X272270996Y-193142671D01*
X272270996Y-193142671D02*
X272270996Y-193499814D01*
X272270996Y-193499814D02*
X272199567Y-193642671D01*
X272199567Y-193642671D02*
X272128139Y-193714100D01*
X272128139Y-193714100D02*
X271985281Y-193785528D01*
X271985281Y-193785528D02*
X271556710Y-193785528D01*
X271556710Y-193785528D02*
X271413853Y-193714100D01*
X271413853Y-193714100D02*
X271342424Y-193642671D01*
D10*
D11*
X178386598Y-193721900D02*
X178600884Y-193793328D01*
X178600884Y-193793328D02*
X178958026Y-193793328D01*
X178958026Y-193793328D02*
X179100884Y-193721900D01*
X179100884Y-193721900D02*
X179172312Y-193650471D01*
X179172312Y-193650471D02*
X179243741Y-193507614D01*
X179243741Y-193507614D02*
X179243741Y-193364757D01*
X179243741Y-193364757D02*
X179172312Y-193221900D01*
X179172312Y-193221900D02*
X179100884Y-193150471D01*
X179100884Y-193150471D02*
X178958026Y-193079042D01*
X178958026Y-193079042D02*
X178672312Y-193007614D01*
X178672312Y-193007614D02*
X178529455Y-192936185D01*
X178529455Y-192936185D02*
X178458026Y-192864757D01*
X178458026Y-192864757D02*
X178386598Y-192721900D01*
X178386598Y-192721900D02*
X178386598Y-192579042D01*
X178386598Y-192579042D02*
X178458026Y-192436185D01*
X178458026Y-192436185D02*
X178529455Y-192364757D01*
X178529455Y-192364757D02*
X178672312Y-192293328D01*
X178672312Y-192293328D02*
X179029455Y-192293328D01*
X179029455Y-192293328D02*
X179243741Y-192364757D01*
X179886597Y-193793328D02*
X179886597Y-192793328D01*
X179886597Y-192293328D02*
X179815169Y-192364757D01*
X179815169Y-192364757D02*
X179886597Y-192436185D01*
X179886597Y-192436185D02*
X179958026Y-192364757D01*
X179958026Y-192364757D02*
X179886597Y-192293328D01*
X179886597Y-192293328D02*
X179886597Y-192436185D01*
X180458026Y-192793328D02*
X181243741Y-192793328D01*
X181243741Y-192793328D02*
X180458026Y-193793328D01*
X180458026Y-193793328D02*
X181243741Y-193793328D01*
X182386598Y-193721900D02*
X182243741Y-193793328D01*
X182243741Y-193793328D02*
X181958027Y-193793328D01*
X181958027Y-193793328D02*
X181815169Y-193721900D01*
X181815169Y-193721900D02*
X181743741Y-193579042D01*
X181743741Y-193579042D02*
X181743741Y-193007614D01*
X181743741Y-193007614D02*
X181815169Y-192864757D01*
X181815169Y-192864757D02*
X181958027Y-192793328D01*
X181958027Y-192793328D02*
X182243741Y-192793328D01*
X182243741Y-192793328D02*
X182386598Y-192864757D01*
X182386598Y-192864757D02*
X182458027Y-193007614D01*
X182458027Y-193007614D02*
X182458027Y-193150471D01*
X182458027Y-193150471D02*
X181743741Y-193293328D01*
X183100883Y-193650471D02*
X183172312Y-193721900D01*
X183172312Y-193721900D02*
X183100883Y-193793328D01*
X183100883Y-193793328D02*
X183029455Y-193721900D01*
X183029455Y-193721900D02*
X183100883Y-193650471D01*
X183100883Y-193650471D02*
X183100883Y-193793328D01*
X183100883Y-192864757D02*
X183172312Y-192936185D01*
X183172312Y-192936185D02*
X183100883Y-193007614D01*
X183100883Y-193007614D02*
X183029455Y-192936185D01*
X183029455Y-192936185D02*
X183100883Y-192864757D01*
X183100883Y-192864757D02*
X183100883Y-193007614D01*
X184886598Y-193364757D02*
X185600884Y-193364757D01*
X184743741Y-193793328D02*
X185243741Y-192293328D01*
X185243741Y-192293328D02*
X185743741Y-193793328D01*
X186886598Y-192793328D02*
X186886598Y-193793328D01*
X186529455Y-192221900D02*
X186172312Y-193293328D01*
X186172312Y-193293328D02*
X187100883Y-193293328D01*
D10*
D11*
X263458026Y-196593328D02*
X263458026Y-195093328D01*
X264815170Y-196593328D02*
X264815170Y-195093328D01*
X264815170Y-196521900D02*
X264672312Y-196593328D01*
X264672312Y-196593328D02*
X264386598Y-196593328D01*
X264386598Y-196593328D02*
X264243741Y-196521900D01*
X264243741Y-196521900D02*
X264172312Y-196450471D01*
X264172312Y-196450471D02*
X264100884Y-196307614D01*
X264100884Y-196307614D02*
X264100884Y-195879042D01*
X264100884Y-195879042D02*
X264172312Y-195736185D01*
X264172312Y-195736185D02*
X264243741Y-195664757D01*
X264243741Y-195664757D02*
X264386598Y-195593328D01*
X264386598Y-195593328D02*
X264672312Y-195593328D01*
X264672312Y-195593328D02*
X264815170Y-195664757D01*
X265529455Y-196450471D02*
X265600884Y-196521900D01*
X265600884Y-196521900D02*
X265529455Y-196593328D01*
X265529455Y-196593328D02*
X265458027Y-196521900D01*
X265458027Y-196521900D02*
X265529455Y-196450471D01*
X265529455Y-196450471D02*
X265529455Y-196593328D01*
X265529455Y-195664757D02*
X265600884Y-195736185D01*
X265600884Y-195736185D02*
X265529455Y-195807614D01*
X265529455Y-195807614D02*
X265458027Y-195736185D01*
X265458027Y-195736185D02*
X265529455Y-195664757D01*
X265529455Y-195664757D02*
X265529455Y-195807614D01*
X268172313Y-196593328D02*
X267315170Y-196593328D01*
X267743741Y-196593328D02*
X267743741Y-195093328D01*
X267743741Y-195093328D02*
X267600884Y-195307614D01*
X267600884Y-195307614D02*
X267458027Y-195450471D01*
X267458027Y-195450471D02*
X267315170Y-195521900D01*
X269886598Y-195021900D02*
X268600884Y-196950471D01*
X271172313Y-196593328D02*
X270315170Y-196593328D01*
X270743741Y-196593328D02*
X270743741Y-195093328D01*
X270743741Y-195093328D02*
X270600884Y-195307614D01*
X270600884Y-195307614D02*
X270458027Y-195450471D01*
X270458027Y-195450471D02*
X270315170Y-195521900D01*
D10*
D11*
X177002200Y-187507200D02*
X285002200Y-187507200D01*
D10*
D13*
X178693928Y-188211638D02*
X179836785Y-188211638D01*
X179015357Y-190211638D02*
X179265357Y-188211638D01*
X180253452Y-190211638D02*
X180420119Y-188878304D01*
X180503452Y-188211638D02*
X180396309Y-188306876D01*
X180396309Y-188306876D02*
X180479643Y-188402114D01*
X180479643Y-188402114D02*
X180586786Y-188306876D01*
X180586786Y-188306876D02*
X180503452Y-188211638D01*
X180503452Y-188211638D02*
X180479643Y-188402114D01*
X181086786Y-188878304D02*
X181848690Y-188878304D01*
X181455833Y-188211638D02*
X181241548Y-189925923D01*
X181241548Y-189925923D02*
X181312976Y-190116400D01*
X181312976Y-190116400D02*
X181491548Y-190211638D01*
X181491548Y-190211638D02*
X181682024Y-190211638D01*
X182634405Y-190211638D02*
X182455833Y-190116400D01*
X182455833Y-190116400D02*
X182384405Y-189925923D01*
X182384405Y-189925923D02*
X182598690Y-188211638D01*
X184170119Y-190116400D02*
X183967738Y-190211638D01*
X183967738Y-190211638D02*
X183586785Y-190211638D01*
X183586785Y-190211638D02*
X183408214Y-190116400D01*
X183408214Y-190116400D02*
X183336785Y-189925923D01*
X183336785Y-189925923D02*
X183432024Y-189164019D01*
X183432024Y-189164019D02*
X183551071Y-188973542D01*
X183551071Y-188973542D02*
X183753452Y-188878304D01*
X183753452Y-188878304D02*
X184134404Y-188878304D01*
X184134404Y-188878304D02*
X184312976Y-188973542D01*
X184312976Y-188973542D02*
X184384404Y-189164019D01*
X184384404Y-189164019D02*
X184360595Y-189354495D01*
X184360595Y-189354495D02*
X183384404Y-189544971D01*
X185134405Y-190021161D02*
X185217738Y-190116400D01*
X185217738Y-190116400D02*
X185110595Y-190211638D01*
X185110595Y-190211638D02*
X185027262Y-190116400D01*
X185027262Y-190116400D02*
X185134405Y-190021161D01*
X185134405Y-190021161D02*
X185110595Y-190211638D01*
X185265357Y-188973542D02*
X185348690Y-189068780D01*
X185348690Y-189068780D02*
X185241548Y-189164019D01*
X185241548Y-189164019D02*
X185158214Y-189068780D01*
X185158214Y-189068780D02*
X185265357Y-188973542D01*
X185265357Y-188973542D02*
X185241548Y-189164019D01*
X188539167Y-190211638D02*
X187586786Y-190211638D01*
X187586786Y-190211638D02*
X187836786Y-188211638D01*
X190372501Y-190021161D02*
X190265358Y-190116400D01*
X190265358Y-190116400D02*
X189967739Y-190211638D01*
X189967739Y-190211638D02*
X189777263Y-190211638D01*
X189777263Y-190211638D02*
X189503453Y-190116400D01*
X189503453Y-190116400D02*
X189336787Y-189925923D01*
X189336787Y-189925923D02*
X189265358Y-189735447D01*
X189265358Y-189735447D02*
X189217739Y-189354495D01*
X189217739Y-189354495D02*
X189253453Y-189068780D01*
X189253453Y-189068780D02*
X189396310Y-188687828D01*
X189396310Y-188687828D02*
X189515358Y-188497352D01*
X189515358Y-188497352D02*
X189729644Y-188306876D01*
X189729644Y-188306876D02*
X190027263Y-188211638D01*
X190027263Y-188211638D02*
X190217739Y-188211638D01*
X190217739Y-188211638D02*
X190491549Y-188306876D01*
X190491549Y-188306876D02*
X190574882Y-188402114D01*
X192348691Y-190211638D02*
X191801072Y-189259257D01*
X191205834Y-190211638D02*
X191455834Y-188211638D01*
X191455834Y-188211638D02*
X192217739Y-188211638D01*
X192217739Y-188211638D02*
X192396310Y-188306876D01*
X192396310Y-188306876D02*
X192479644Y-188402114D01*
X192479644Y-188402114D02*
X192551072Y-188592590D01*
X192551072Y-188592590D02*
X192515358Y-188878304D01*
X192515358Y-188878304D02*
X192396310Y-189068780D01*
X192396310Y-189068780D02*
X192289168Y-189164019D01*
X192289168Y-189164019D02*
X192086787Y-189259257D01*
X192086787Y-189259257D02*
X191324882Y-189259257D01*
X193205834Y-190211638D02*
X193455834Y-188211638D01*
X193455834Y-188211638D02*
X193932025Y-188211638D01*
X193932025Y-188211638D02*
X194205834Y-188306876D01*
X194205834Y-188306876D02*
X194372501Y-188497352D01*
X194372501Y-188497352D02*
X194443929Y-188687828D01*
X194443929Y-188687828D02*
X194491549Y-189068780D01*
X194491549Y-189068780D02*
X194455834Y-189354495D01*
X194455834Y-189354495D02*
X194312977Y-189735447D01*
X194312977Y-189735447D02*
X194193929Y-189925923D01*
X194193929Y-189925923D02*
X193979644Y-190116400D01*
X193979644Y-190116400D02*
X193682025Y-190211638D01*
X193682025Y-190211638D02*
X193205834Y-190211638D01*
X195301072Y-189449733D02*
X196824882Y-189449733D01*
X197646310Y-188211638D02*
X198789167Y-188211638D01*
X197967739Y-190211638D02*
X198217739Y-188211638D01*
X199979644Y-190116400D02*
X199777263Y-190211638D01*
X199777263Y-190211638D02*
X199396310Y-190211638D01*
X199396310Y-190211638D02*
X199217739Y-190116400D01*
X199217739Y-190116400D02*
X199146310Y-189925923D01*
X199146310Y-189925923D02*
X199241549Y-189164019D01*
X199241549Y-189164019D02*
X199360596Y-188973542D01*
X199360596Y-188973542D02*
X199562977Y-188878304D01*
X199562977Y-188878304D02*
X199943929Y-188878304D01*
X199943929Y-188878304D02*
X200122501Y-188973542D01*
X200122501Y-188973542D02*
X200193929Y-189164019D01*
X200193929Y-189164019D02*
X200170120Y-189354495D01*
X200170120Y-189354495D02*
X199193929Y-189544971D01*
X200836787Y-190116400D02*
X201015358Y-190211638D01*
X201015358Y-190211638D02*
X201396311Y-190211638D01*
X201396311Y-190211638D02*
X201598692Y-190116400D01*
X201598692Y-190116400D02*
X201717739Y-189925923D01*
X201717739Y-189925923D02*
X201729644Y-189830685D01*
X201729644Y-189830685D02*
X201658215Y-189640209D01*
X201658215Y-189640209D02*
X201479644Y-189544971D01*
X201479644Y-189544971D02*
X201193930Y-189544971D01*
X201193930Y-189544971D02*
X201015358Y-189449733D01*
X201015358Y-189449733D02*
X200943930Y-189259257D01*
X200943930Y-189259257D02*
X200955835Y-189164019D01*
X200955835Y-189164019D02*
X201074882Y-188973542D01*
X201074882Y-188973542D02*
X201277263Y-188878304D01*
X201277263Y-188878304D02*
X201562977Y-188878304D01*
X201562977Y-188878304D02*
X201741549Y-188973542D01*
X202420121Y-188878304D02*
X203182025Y-188878304D01*
X202789168Y-188211638D02*
X202574883Y-189925923D01*
X202574883Y-189925923D02*
X202646311Y-190116400D01*
X202646311Y-190116400D02*
X202824883Y-190211638D01*
X202824883Y-190211638D02*
X203015359Y-190211638D01*
X204455835Y-190116400D02*
X204253454Y-190211638D01*
X204253454Y-190211638D02*
X203872501Y-190211638D01*
X203872501Y-190211638D02*
X203693930Y-190116400D01*
X203693930Y-190116400D02*
X203622501Y-189925923D01*
X203622501Y-189925923D02*
X203717740Y-189164019D01*
X203717740Y-189164019D02*
X203836787Y-188973542D01*
X203836787Y-188973542D02*
X204039168Y-188878304D01*
X204039168Y-188878304D02*
X204420120Y-188878304D01*
X204420120Y-188878304D02*
X204598692Y-188973542D01*
X204598692Y-188973542D02*
X204670120Y-189164019D01*
X204670120Y-189164019D02*
X204646311Y-189354495D01*
X204646311Y-189354495D02*
X203670120Y-189544971D01*
X205396311Y-190211638D02*
X205562978Y-188878304D01*
X205515359Y-189259257D02*
X205634406Y-189068780D01*
X205634406Y-189068780D02*
X205741549Y-188973542D01*
X205741549Y-188973542D02*
X205943930Y-188878304D01*
X205943930Y-188878304D02*
X206134406Y-188878304D01*
D10*
D11*
X178958026Y-185607614D02*
X178458026Y-185607614D01*
X178458026Y-186393328D02*
X178458026Y-184893328D01*
X178458026Y-184893328D02*
X179172312Y-184893328D01*
X179743740Y-186393328D02*
X179743740Y-185393328D01*
X179743740Y-184893328D02*
X179672312Y-184964757D01*
X179672312Y-184964757D02*
X179743740Y-185036185D01*
X179743740Y-185036185D02*
X179815169Y-184964757D01*
X179815169Y-184964757D02*
X179743740Y-184893328D01*
X179743740Y-184893328D02*
X179743740Y-185036185D01*
X180672312Y-186393328D02*
X180529455Y-186321900D01*
X180529455Y-186321900D02*
X180458026Y-186179042D01*
X180458026Y-186179042D02*
X180458026Y-184893328D01*
X181815169Y-186321900D02*
X181672312Y-186393328D01*
X181672312Y-186393328D02*
X181386598Y-186393328D01*
X181386598Y-186393328D02*
X181243740Y-186321900D01*
X181243740Y-186321900D02*
X181172312Y-186179042D01*
X181172312Y-186179042D02*
X181172312Y-185607614D01*
X181172312Y-185607614D02*
X181243740Y-185464757D01*
X181243740Y-185464757D02*
X181386598Y-185393328D01*
X181386598Y-185393328D02*
X181672312Y-185393328D01*
X181672312Y-185393328D02*
X181815169Y-185464757D01*
X181815169Y-185464757D02*
X181886598Y-185607614D01*
X181886598Y-185607614D02*
X181886598Y-185750471D01*
X181886598Y-185750471D02*
X181172312Y-185893328D01*
X182529454Y-186250471D02*
X182600883Y-186321900D01*
X182600883Y-186321900D02*
X182529454Y-186393328D01*
X182529454Y-186393328D02*
X182458026Y-186321900D01*
X182458026Y-186321900D02*
X182529454Y-186250471D01*
X182529454Y-186250471D02*
X182529454Y-186393328D01*
X182529454Y-185464757D02*
X182600883Y-185536185D01*
X182600883Y-185536185D02*
X182529454Y-185607614D01*
X182529454Y-185607614D02*
X182458026Y-185536185D01*
X182458026Y-185536185D02*
X182529454Y-185464757D01*
X182529454Y-185464757D02*
X182529454Y-185607614D01*
X185100883Y-186393328D02*
X184386597Y-186393328D01*
X184386597Y-186393328D02*
X184386597Y-184893328D01*
X186458026Y-186250471D02*
X186386598Y-186321900D01*
X186386598Y-186321900D02*
X186172312Y-186393328D01*
X186172312Y-186393328D02*
X186029455Y-186393328D01*
X186029455Y-186393328D02*
X185815169Y-186321900D01*
X185815169Y-186321900D02*
X185672312Y-186179042D01*
X185672312Y-186179042D02*
X185600883Y-186036185D01*
X185600883Y-186036185D02*
X185529455Y-185750471D01*
X185529455Y-185750471D02*
X185529455Y-185536185D01*
X185529455Y-185536185D02*
X185600883Y-185250471D01*
X185600883Y-185250471D02*
X185672312Y-185107614D01*
X185672312Y-185107614D02*
X185815169Y-184964757D01*
X185815169Y-184964757D02*
X186029455Y-184893328D01*
X186029455Y-184893328D02*
X186172312Y-184893328D01*
X186172312Y-184893328D02*
X186386598Y-184964757D01*
X186386598Y-184964757D02*
X186458026Y-185036185D01*
X187958026Y-186393328D02*
X187458026Y-185679042D01*
X187100883Y-186393328D02*
X187100883Y-184893328D01*
X187100883Y-184893328D02*
X187672312Y-184893328D01*
X187672312Y-184893328D02*
X187815169Y-184964757D01*
X187815169Y-184964757D02*
X187886598Y-185036185D01*
X187886598Y-185036185D02*
X187958026Y-185179042D01*
X187958026Y-185179042D02*
X187958026Y-185393328D01*
X187958026Y-185393328D02*
X187886598Y-185536185D01*
X187886598Y-185536185D02*
X187815169Y-185607614D01*
X187815169Y-185607614D02*
X187672312Y-185679042D01*
X187672312Y-185679042D02*
X187100883Y-185679042D01*
X188600883Y-186393328D02*
X188600883Y-184893328D01*
X188600883Y-184893328D02*
X188958026Y-184893328D01*
X188958026Y-184893328D02*
X189172312Y-184964757D01*
X189172312Y-184964757D02*
X189315169Y-185107614D01*
X189315169Y-185107614D02*
X189386598Y-185250471D01*
X189386598Y-185250471D02*
X189458026Y-185536185D01*
X189458026Y-185536185D02*
X189458026Y-185750471D01*
X189458026Y-185750471D02*
X189386598Y-186036185D01*
X189386598Y-186036185D02*
X189315169Y-186179042D01*
X189315169Y-186179042D02*
X189172312Y-186321900D01*
X189172312Y-186321900D02*
X188958026Y-186393328D01*
X188958026Y-186393328D02*
X188600883Y-186393328D01*
X189886598Y-184893328D02*
X190743741Y-184893328D01*
X190315169Y-186393328D02*
X190315169Y-184893328D01*
X191243740Y-185821900D02*
X192386598Y-185821900D01*
X192886598Y-184893328D02*
X193743741Y-184893328D01*
X193315169Y-186393328D02*
X193315169Y-184893328D01*
X194815169Y-186321900D02*
X194672312Y-186393328D01*
X194672312Y-186393328D02*
X194386598Y-186393328D01*
X194386598Y-186393328D02*
X194243740Y-186321900D01*
X194243740Y-186321900D02*
X194172312Y-186179042D01*
X194172312Y-186179042D02*
X194172312Y-185607614D01*
X194172312Y-185607614D02*
X194243740Y-185464757D01*
X194243740Y-185464757D02*
X194386598Y-185393328D01*
X194386598Y-185393328D02*
X194672312Y-185393328D01*
X194672312Y-185393328D02*
X194815169Y-185464757D01*
X194815169Y-185464757D02*
X194886598Y-185607614D01*
X194886598Y-185607614D02*
X194886598Y-185750471D01*
X194886598Y-185750471D02*
X194172312Y-185893328D01*
X195458026Y-186321900D02*
X195600883Y-186393328D01*
X195600883Y-186393328D02*
X195886597Y-186393328D01*
X195886597Y-186393328D02*
X196029454Y-186321900D01*
X196029454Y-186321900D02*
X196100883Y-186179042D01*
X196100883Y-186179042D02*
X196100883Y-186107614D01*
X196100883Y-186107614D02*
X196029454Y-185964757D01*
X196029454Y-185964757D02*
X195886597Y-185893328D01*
X195886597Y-185893328D02*
X195672312Y-185893328D01*
X195672312Y-185893328D02*
X195529454Y-185821900D01*
X195529454Y-185821900D02*
X195458026Y-185679042D01*
X195458026Y-185679042D02*
X195458026Y-185607614D01*
X195458026Y-185607614D02*
X195529454Y-185464757D01*
X195529454Y-185464757D02*
X195672312Y-185393328D01*
X195672312Y-185393328D02*
X195886597Y-185393328D01*
X195886597Y-185393328D02*
X196029454Y-185464757D01*
X196529455Y-185393328D02*
X197100883Y-185393328D01*
X196743740Y-184893328D02*
X196743740Y-186179042D01*
X196743740Y-186179042D02*
X196815169Y-186321900D01*
X196815169Y-186321900D02*
X196958026Y-186393328D01*
X196958026Y-186393328D02*
X197100883Y-186393328D01*
X198172312Y-186321900D02*
X198029455Y-186393328D01*
X198029455Y-186393328D02*
X197743741Y-186393328D01*
X197743741Y-186393328D02*
X197600883Y-186321900D01*
X197600883Y-186321900D02*
X197529455Y-186179042D01*
X197529455Y-186179042D02*
X197529455Y-185607614D01*
X197529455Y-185607614D02*
X197600883Y-185464757D01*
X197600883Y-185464757D02*
X197743741Y-185393328D01*
X197743741Y-185393328D02*
X198029455Y-185393328D01*
X198029455Y-185393328D02*
X198172312Y-185464757D01*
X198172312Y-185464757D02*
X198243741Y-185607614D01*
X198243741Y-185607614D02*
X198243741Y-185750471D01*
X198243741Y-185750471D02*
X197529455Y-185893328D01*
X198886597Y-186393328D02*
X198886597Y-185393328D01*
X198886597Y-185679042D02*
X198958026Y-185536185D01*
X198958026Y-185536185D02*
X199029455Y-185464757D01*
X199029455Y-185464757D02*
X199172312Y-185393328D01*
X199172312Y-185393328D02*
X199315169Y-185393328D01*
X199815168Y-186250471D02*
X199886597Y-186321900D01*
X199886597Y-186321900D02*
X199815168Y-186393328D01*
X199815168Y-186393328D02*
X199743740Y-186321900D01*
X199743740Y-186321900D02*
X199815168Y-186250471D01*
X199815168Y-186250471D02*
X199815168Y-186393328D01*
X200529454Y-186393328D02*
X200529454Y-184893328D01*
X200672312Y-185821900D02*
X201100883Y-186393328D01*
X201100883Y-185393328D02*
X200529454Y-185964757D01*
X201743740Y-186393328D02*
X201743740Y-185393328D01*
X201743740Y-184893328D02*
X201672312Y-184964757D01*
X201672312Y-184964757D02*
X201743740Y-185036185D01*
X201743740Y-185036185D02*
X201815169Y-184964757D01*
X201815169Y-184964757D02*
X201743740Y-184893328D01*
X201743740Y-184893328D02*
X201743740Y-185036185D01*
X203100884Y-186321900D02*
X202958026Y-186393328D01*
X202958026Y-186393328D02*
X202672312Y-186393328D01*
X202672312Y-186393328D02*
X202529455Y-186321900D01*
X202529455Y-186321900D02*
X202458026Y-186250471D01*
X202458026Y-186250471D02*
X202386598Y-186107614D01*
X202386598Y-186107614D02*
X202386598Y-185679042D01*
X202386598Y-185679042D02*
X202458026Y-185536185D01*
X202458026Y-185536185D02*
X202529455Y-185464757D01*
X202529455Y-185464757D02*
X202672312Y-185393328D01*
X202672312Y-185393328D02*
X202958026Y-185393328D01*
X202958026Y-185393328D02*
X203100884Y-185464757D01*
X204386598Y-186393328D02*
X204386598Y-185607614D01*
X204386598Y-185607614D02*
X204315169Y-185464757D01*
X204315169Y-185464757D02*
X204172312Y-185393328D01*
X204172312Y-185393328D02*
X203886598Y-185393328D01*
X203886598Y-185393328D02*
X203743740Y-185464757D01*
X204386598Y-186321900D02*
X204243740Y-186393328D01*
X204243740Y-186393328D02*
X203886598Y-186393328D01*
X203886598Y-186393328D02*
X203743740Y-186321900D01*
X203743740Y-186321900D02*
X203672312Y-186179042D01*
X203672312Y-186179042D02*
X203672312Y-186036185D01*
X203672312Y-186036185D02*
X203743740Y-185893328D01*
X203743740Y-185893328D02*
X203886598Y-185821900D01*
X203886598Y-185821900D02*
X204243740Y-185821900D01*
X204243740Y-185821900D02*
X204386598Y-185750471D01*
X205743741Y-186393328D02*
X205743741Y-184893328D01*
X205743741Y-186321900D02*
X205600883Y-186393328D01*
X205600883Y-186393328D02*
X205315169Y-186393328D01*
X205315169Y-186393328D02*
X205172312Y-186321900D01*
X205172312Y-186321900D02*
X205100883Y-186250471D01*
X205100883Y-186250471D02*
X205029455Y-186107614D01*
X205029455Y-186107614D02*
X205029455Y-185679042D01*
X205029455Y-185679042D02*
X205100883Y-185536185D01*
X205100883Y-185536185D02*
X205172312Y-185464757D01*
X205172312Y-185464757D02*
X205315169Y-185393328D01*
X205315169Y-185393328D02*
X205600883Y-185393328D01*
X205600883Y-185393328D02*
X205743741Y-185464757D01*
X206100884Y-186536185D02*
X207243741Y-186536185D01*
X207600883Y-185393328D02*
X207600883Y-186893328D01*
X207600883Y-185464757D02*
X207743741Y-185393328D01*
X207743741Y-185393328D02*
X208029455Y-185393328D01*
X208029455Y-185393328D02*
X208172312Y-185464757D01*
X208172312Y-185464757D02*
X208243741Y-185536185D01*
X208243741Y-185536185D02*
X208315169Y-185679042D01*
X208315169Y-185679042D02*
X208315169Y-186107614D01*
X208315169Y-186107614D02*
X208243741Y-186250471D01*
X208243741Y-186250471D02*
X208172312Y-186321900D01*
X208172312Y-186321900D02*
X208029455Y-186393328D01*
X208029455Y-186393328D02*
X207743741Y-186393328D01*
X207743741Y-186393328D02*
X207600883Y-186321900D01*
X209600884Y-186321900D02*
X209458026Y-186393328D01*
X209458026Y-186393328D02*
X209172312Y-186393328D01*
X209172312Y-186393328D02*
X209029455Y-186321900D01*
X209029455Y-186321900D02*
X208958026Y-186250471D01*
X208958026Y-186250471D02*
X208886598Y-186107614D01*
X208886598Y-186107614D02*
X208886598Y-185679042D01*
X208886598Y-185679042D02*
X208958026Y-185536185D01*
X208958026Y-185536185D02*
X209029455Y-185464757D01*
X209029455Y-185464757D02*
X209172312Y-185393328D01*
X209172312Y-185393328D02*
X209458026Y-185393328D01*
X209458026Y-185393328D02*
X209600884Y-185464757D01*
X210243740Y-186393328D02*
X210243740Y-184893328D01*
X210243740Y-185464757D02*
X210386598Y-185393328D01*
X210386598Y-185393328D02*
X210672312Y-185393328D01*
X210672312Y-185393328D02*
X210815169Y-185464757D01*
X210815169Y-185464757D02*
X210886598Y-185536185D01*
X210886598Y-185536185D02*
X210958026Y-185679042D01*
X210958026Y-185679042D02*
X210958026Y-186107614D01*
X210958026Y-186107614D02*
X210886598Y-186250471D01*
X210886598Y-186250471D02*
X210815169Y-186321900D01*
X210815169Y-186321900D02*
X210672312Y-186393328D01*
X210672312Y-186393328D02*
X210386598Y-186393328D01*
X210386598Y-186393328D02*
X210243740Y-186321900D01*
D10*
D11*
X177002200Y-181507200D02*
X285002200Y-181507200D01*
D10*
D11*
X178386598Y-183621900D02*
X178600884Y-183693328D01*
X178600884Y-183693328D02*
X178958026Y-183693328D01*
X178958026Y-183693328D02*
X179100884Y-183621900D01*
X179100884Y-183621900D02*
X179172312Y-183550471D01*
X179172312Y-183550471D02*
X179243741Y-183407614D01*
X179243741Y-183407614D02*
X179243741Y-183264757D01*
X179243741Y-183264757D02*
X179172312Y-183121900D01*
X179172312Y-183121900D02*
X179100884Y-183050471D01*
X179100884Y-183050471D02*
X178958026Y-182979042D01*
X178958026Y-182979042D02*
X178672312Y-182907614D01*
X178672312Y-182907614D02*
X178529455Y-182836185D01*
X178529455Y-182836185D02*
X178458026Y-182764757D01*
X178458026Y-182764757D02*
X178386598Y-182621900D01*
X178386598Y-182621900D02*
X178386598Y-182479042D01*
X178386598Y-182479042D02*
X178458026Y-182336185D01*
X178458026Y-182336185D02*
X178529455Y-182264757D01*
X178529455Y-182264757D02*
X178672312Y-182193328D01*
X178672312Y-182193328D02*
X179029455Y-182193328D01*
X179029455Y-182193328D02*
X179243741Y-182264757D01*
X179886597Y-183693328D02*
X179886597Y-182193328D01*
X180529455Y-183693328D02*
X180529455Y-182907614D01*
X180529455Y-182907614D02*
X180458026Y-182764757D01*
X180458026Y-182764757D02*
X180315169Y-182693328D01*
X180315169Y-182693328D02*
X180100883Y-182693328D01*
X180100883Y-182693328D02*
X179958026Y-182764757D01*
X179958026Y-182764757D02*
X179886597Y-182836185D01*
X181815169Y-183621900D02*
X181672312Y-183693328D01*
X181672312Y-183693328D02*
X181386598Y-183693328D01*
X181386598Y-183693328D02*
X181243740Y-183621900D01*
X181243740Y-183621900D02*
X181172312Y-183479042D01*
X181172312Y-183479042D02*
X181172312Y-182907614D01*
X181172312Y-182907614D02*
X181243740Y-182764757D01*
X181243740Y-182764757D02*
X181386598Y-182693328D01*
X181386598Y-182693328D02*
X181672312Y-182693328D01*
X181672312Y-182693328D02*
X181815169Y-182764757D01*
X181815169Y-182764757D02*
X181886598Y-182907614D01*
X181886598Y-182907614D02*
X181886598Y-183050471D01*
X181886598Y-183050471D02*
X181172312Y-183193328D01*
X183100883Y-183621900D02*
X182958026Y-183693328D01*
X182958026Y-183693328D02*
X182672312Y-183693328D01*
X182672312Y-183693328D02*
X182529454Y-183621900D01*
X182529454Y-183621900D02*
X182458026Y-183479042D01*
X182458026Y-183479042D02*
X182458026Y-182907614D01*
X182458026Y-182907614D02*
X182529454Y-182764757D01*
X182529454Y-182764757D02*
X182672312Y-182693328D01*
X182672312Y-182693328D02*
X182958026Y-182693328D01*
X182958026Y-182693328D02*
X183100883Y-182764757D01*
X183100883Y-182764757D02*
X183172312Y-182907614D01*
X183172312Y-182907614D02*
X183172312Y-183050471D01*
X183172312Y-183050471D02*
X182458026Y-183193328D01*
X183600883Y-182693328D02*
X184172311Y-182693328D01*
X183815168Y-182193328D02*
X183815168Y-183479042D01*
X183815168Y-183479042D02*
X183886597Y-183621900D01*
X183886597Y-183621900D02*
X184029454Y-183693328D01*
X184029454Y-183693328D02*
X184172311Y-183693328D01*
X184672311Y-183550471D02*
X184743740Y-183621900D01*
X184743740Y-183621900D02*
X184672311Y-183693328D01*
X184672311Y-183693328D02*
X184600883Y-183621900D01*
X184600883Y-183621900D02*
X184672311Y-183550471D01*
X184672311Y-183550471D02*
X184672311Y-183693328D01*
X184672311Y-182764757D02*
X184743740Y-182836185D01*
X184743740Y-182836185D02*
X184672311Y-182907614D01*
X184672311Y-182907614D02*
X184600883Y-182836185D01*
X184600883Y-182836185D02*
X184672311Y-182764757D01*
X184672311Y-182764757D02*
X184672311Y-182907614D01*
D10*
D12*
X178985282Y-181256957D02*
X178913853Y-181185528D01*
X178913853Y-181185528D02*
X178770996Y-180971242D01*
X178770996Y-180971242D02*
X178699568Y-180828385D01*
X178699568Y-180828385D02*
X178628139Y-180614100D01*
X178628139Y-180614100D02*
X178556710Y-180256957D01*
X178556710Y-180256957D02*
X178556710Y-179971242D01*
X178556710Y-179971242D02*
X178628139Y-179614100D01*
X178628139Y-179614100D02*
X178699568Y-179399814D01*
X178699568Y-179399814D02*
X178770996Y-179256957D01*
X178770996Y-179256957D02*
X178913853Y-179042671D01*
X178913853Y-179042671D02*
X178985282Y-178971242D01*
X180413853Y-180542671D02*
X180342425Y-180614100D01*
X180342425Y-180614100D02*
X180128139Y-180685528D01*
X180128139Y-180685528D02*
X179985282Y-180685528D01*
X179985282Y-180685528D02*
X179770996Y-180614100D01*
X179770996Y-180614100D02*
X179628139Y-180471242D01*
X179628139Y-180471242D02*
X179556710Y-180328385D01*
X179556710Y-180328385D02*
X179485282Y-180042671D01*
X179485282Y-180042671D02*
X179485282Y-179828385D01*
X179485282Y-179828385D02*
X179556710Y-179542671D01*
X179556710Y-179542671D02*
X179628139Y-179399814D01*
X179628139Y-179399814D02*
X179770996Y-179256957D01*
X179770996Y-179256957D02*
X179985282Y-179185528D01*
X179985282Y-179185528D02*
X180128139Y-179185528D01*
X180128139Y-179185528D02*
X180342425Y-179256957D01*
X180342425Y-179256957D02*
X180413853Y-179328385D01*
X180913853Y-181256957D02*
X180985282Y-181185528D01*
X180985282Y-181185528D02*
X181128139Y-180971242D01*
X181128139Y-180971242D02*
X181199568Y-180828385D01*
X181199568Y-180828385D02*
X181270996Y-180614100D01*
X181270996Y-180614100D02*
X181342425Y-180256957D01*
X181342425Y-180256957D02*
X181342425Y-179971242D01*
X181342425Y-179971242D02*
X181270996Y-179614100D01*
X181270996Y-179614100D02*
X181199568Y-179399814D01*
X181199568Y-179399814D02*
X181128139Y-179256957D01*
X181128139Y-179256957D02*
X180985282Y-179042671D01*
X180985282Y-179042671D02*
X180913853Y-178971242D01*
X183056710Y-179185528D02*
X183413853Y-180685528D01*
X183413853Y-180685528D02*
X183699567Y-179614100D01*
X183699567Y-179614100D02*
X183985282Y-180685528D01*
X183985282Y-180685528D02*
X184342425Y-179185528D01*
X185128139Y-180685528D02*
X184985282Y-180614100D01*
X184985282Y-180614100D02*
X184913853Y-180542671D01*
X184913853Y-180542671D02*
X184842425Y-180399814D01*
X184842425Y-180399814D02*
X184842425Y-179971242D01*
X184842425Y-179971242D02*
X184913853Y-179828385D01*
X184913853Y-179828385D02*
X184985282Y-179756957D01*
X184985282Y-179756957D02*
X185128139Y-179685528D01*
X185128139Y-179685528D02*
X185342425Y-179685528D01*
X185342425Y-179685528D02*
X185485282Y-179756957D01*
X185485282Y-179756957D02*
X185556711Y-179828385D01*
X185556711Y-179828385D02*
X185628139Y-179971242D01*
X185628139Y-179971242D02*
X185628139Y-180399814D01*
X185628139Y-180399814D02*
X185556711Y-180542671D01*
X185556711Y-180542671D02*
X185485282Y-180614100D01*
X185485282Y-180614100D02*
X185342425Y-180685528D01*
X185342425Y-180685528D02*
X185128139Y-180685528D01*
X186913854Y-180685528D02*
X186913854Y-179185528D01*
X186913854Y-180614100D02*
X186770996Y-180685528D01*
X186770996Y-180685528D02*
X186485282Y-180685528D01*
X186485282Y-180685528D02*
X186342425Y-180614100D01*
X186342425Y-180614100D02*
X186270996Y-180542671D01*
X186270996Y-180542671D02*
X186199568Y-180399814D01*
X186199568Y-180399814D02*
X186199568Y-179971242D01*
X186199568Y-179971242D02*
X186270996Y-179828385D01*
X186270996Y-179828385D02*
X186342425Y-179756957D01*
X186342425Y-179756957D02*
X186485282Y-179685528D01*
X186485282Y-179685528D02*
X186770996Y-179685528D01*
X186770996Y-179685528D02*
X186913854Y-179756957D01*
X187842425Y-180685528D02*
X187699568Y-180614100D01*
X187699568Y-180614100D02*
X187628139Y-180542671D01*
X187628139Y-180542671D02*
X187556711Y-180399814D01*
X187556711Y-180399814D02*
X187556711Y-179971242D01*
X187556711Y-179971242D02*
X187628139Y-179828385D01*
X187628139Y-179828385D02*
X187699568Y-179756957D01*
X187699568Y-179756957D02*
X187842425Y-179685528D01*
X187842425Y-179685528D02*
X188056711Y-179685528D01*
X188056711Y-179685528D02*
X188199568Y-179756957D01*
X188199568Y-179756957D02*
X188270997Y-179828385D01*
X188270997Y-179828385D02*
X188342425Y-179971242D01*
X188342425Y-179971242D02*
X188342425Y-180399814D01*
X188342425Y-180399814D02*
X188270997Y-180542671D01*
X188270997Y-180542671D02*
X188199568Y-180614100D01*
X188199568Y-180614100D02*
X188056711Y-180685528D01*
X188056711Y-180685528D02*
X187842425Y-180685528D01*
X188842425Y-179185528D02*
X189199568Y-180685528D01*
X189199568Y-180685528D02*
X189485282Y-179614100D01*
X189485282Y-179614100D02*
X189770997Y-180685528D01*
X189770997Y-180685528D02*
X190128140Y-179185528D01*
X190699568Y-180685528D02*
X190699568Y-179685528D01*
X190699568Y-179185528D02*
X190628140Y-179256957D01*
X190628140Y-179256957D02*
X190699568Y-179328385D01*
X190699568Y-179328385D02*
X190770997Y-179256957D01*
X190770997Y-179256957D02*
X190699568Y-179185528D01*
X190699568Y-179185528D02*
X190699568Y-179328385D01*
X191985283Y-180614100D02*
X191842426Y-180685528D01*
X191842426Y-180685528D02*
X191556712Y-180685528D01*
X191556712Y-180685528D02*
X191413854Y-180614100D01*
X191413854Y-180614100D02*
X191342426Y-180471242D01*
X191342426Y-180471242D02*
X191342426Y-179899814D01*
X191342426Y-179899814D02*
X191413854Y-179756957D01*
X191413854Y-179756957D02*
X191556712Y-179685528D01*
X191556712Y-179685528D02*
X191842426Y-179685528D01*
X191842426Y-179685528D02*
X191985283Y-179756957D01*
X191985283Y-179756957D02*
X192056712Y-179899814D01*
X192056712Y-179899814D02*
X192056712Y-180042671D01*
X192056712Y-180042671D02*
X191342426Y-180185528D01*
X192628140Y-180614100D02*
X192770997Y-180685528D01*
X192770997Y-180685528D02*
X193056711Y-180685528D01*
X193056711Y-180685528D02*
X193199568Y-180614100D01*
X193199568Y-180614100D02*
X193270997Y-180471242D01*
X193270997Y-180471242D02*
X193270997Y-180399814D01*
X193270997Y-180399814D02*
X193199568Y-180256957D01*
X193199568Y-180256957D02*
X193056711Y-180185528D01*
X193056711Y-180185528D02*
X192842426Y-180185528D01*
X192842426Y-180185528D02*
X192699568Y-180114100D01*
X192699568Y-180114100D02*
X192628140Y-179971242D01*
X192628140Y-179971242D02*
X192628140Y-179899814D01*
X192628140Y-179899814D02*
X192699568Y-179756957D01*
X192699568Y-179756957D02*
X192842426Y-179685528D01*
X192842426Y-179685528D02*
X193056711Y-179685528D01*
X193056711Y-179685528D02*
X193199568Y-179756957D01*
X194485283Y-180614100D02*
X194342426Y-180685528D01*
X194342426Y-180685528D02*
X194056712Y-180685528D01*
X194056712Y-180685528D02*
X193913854Y-180614100D01*
X193913854Y-180614100D02*
X193842426Y-180471242D01*
X193842426Y-180471242D02*
X193842426Y-179899814D01*
X193842426Y-179899814D02*
X193913854Y-179756957D01*
X193913854Y-179756957D02*
X194056712Y-179685528D01*
X194056712Y-179685528D02*
X194342426Y-179685528D01*
X194342426Y-179685528D02*
X194485283Y-179756957D01*
X194485283Y-179756957D02*
X194556712Y-179899814D01*
X194556712Y-179899814D02*
X194556712Y-180042671D01*
X194556712Y-180042671D02*
X193842426Y-180185528D01*
X195413854Y-180685528D02*
X195270997Y-180614100D01*
X195270997Y-180614100D02*
X195199568Y-180471242D01*
X195199568Y-180471242D02*
X195199568Y-179185528D01*
D10*
D11*
D10*
D11*
D10*
D11*
D10*
D11*
D10*
D11*
X197002200Y-191507200D02*
X197002200Y-194507200D01*
D10*
D11*
X261002200Y-191507200D02*
X261002200Y-198007200D01*
D14*
%TO.C,J1*%
X98060500Y-111420000D02*
X94510500Y-111420000D01*
X98060500Y-102770000D02*
X98060500Y-111420000D01*
X94510500Y-111420000D02*
X94510500Y-102770000D01*
X94510500Y-102770000D02*
X98060500Y-102770000D01*
%TO.C,R6*%
X106860000Y-93540000D02*
X106860000Y-95640000D01*
X106860000Y-95640000D02*
X116380000Y-95640000D01*
X116380000Y-93540000D02*
X106860000Y-93540000D01*
X116380000Y-95640000D02*
X116380000Y-93540000D01*
%TO.C,R1*%
X106846000Y-109470000D02*
X106846000Y-111570000D01*
X106846000Y-111570000D02*
X116366000Y-111570000D01*
X116366000Y-109470000D02*
X106846000Y-109470000D01*
X116366000Y-111570000D02*
X116366000Y-109470000D01*
%TO.C,C1*%
X94842000Y-102350000D02*
X97842000Y-102350000D01*
X97842000Y-102350000D02*
X97842000Y-95250000D01*
X94842000Y-95250000D02*
X94842000Y-102350000D01*
X97842000Y-95250000D02*
X94842000Y-95250000D01*
%TO.C,A1*%
X119925500Y-136440000D02*
X119925500Y-90220000D01*
X119925500Y-136440000D02*
X101645500Y-136440000D01*
X101645500Y-90220000D02*
X119925500Y-90220000D01*
X101645500Y-90220000D02*
X101645500Y-136440000D01*
%TO.C,R3*%
X106930500Y-103840000D02*
X106930500Y-105940000D01*
X106930500Y-105940000D02*
X116450500Y-105940000D01*
X116450500Y-103840000D02*
X106930500Y-103840000D01*
X116450500Y-105940000D02*
X116450500Y-103840000D01*
%TO.C,R5*%
X106862000Y-97260000D02*
X106862000Y-99360000D01*
X106862000Y-99360000D02*
X116382000Y-99360000D01*
X116382000Y-97260000D02*
X106862000Y-97260000D01*
X116382000Y-99360000D02*
X116382000Y-97260000D01*
%TO.C,Start*%
X99950000Y-126600000D02*
X99950000Y-126850000D01*
X99700000Y-126600000D02*
X99950000Y-126600000D01*
X92700000Y-126600000D02*
X99700000Y-126600000D01*
X92700000Y-126600000D02*
X92450000Y-126600000D01*
X92450000Y-126600000D02*
X92450000Y-126850000D01*
X99950000Y-126850000D02*
X99950000Y-135850000D01*
X99950000Y-135850000D02*
X99950000Y-136100000D01*
X92450000Y-135850000D02*
X92450000Y-126850000D01*
X92450000Y-135850000D02*
X92450000Y-136100000D01*
X99950000Y-136100000D02*
X99700000Y-136100000D01*
X99700000Y-136100000D02*
X92700000Y-136100000D01*
X92450000Y-136100000D02*
X92700000Y-136100000D01*
%TO.C,J2*%
X98141000Y-124150000D02*
X94591000Y-124150000D01*
X98141000Y-112950000D02*
X98141000Y-124150000D01*
X94591000Y-124150000D02*
X94591000Y-112950000D01*
X94591000Y-112950000D02*
X98141000Y-112950000D01*
%TO.C,R4*%
X116366000Y-102580000D02*
X116366000Y-100480000D01*
X116366000Y-100480000D02*
X106846000Y-100480000D01*
X106846000Y-102580000D02*
X116366000Y-102580000D01*
X106846000Y-100480000D02*
X106846000Y-102580000D01*
%TO.C,REF9\u002A\u002A*%
X98990000Y-91770000D02*
G75*
G03*
X98990000Y-91770000I-3050000J0D01*
G01*
%TO.C,Reset*%
X109550000Y-92140000D02*
X108170000Y-92140000D01*
X109550000Y-89380000D02*
X109550000Y-92140000D01*
X109550000Y-89380000D02*
X108170000Y-89380000D01*
X108170000Y-92760000D02*
X108170000Y-92140000D01*
X108170000Y-92760000D02*
X101670000Y-92760000D01*
X108170000Y-89380000D02*
X108170000Y-88760000D01*
X101670000Y-92760000D02*
X101670000Y-92140000D01*
X101670000Y-89380000D02*
X101670000Y-88760000D01*
X101670000Y-88760000D02*
X108170000Y-88760000D01*
X101670000Y-89380000D02*
G75*
G03*
X101670000Y-92140000I0J-1380000D01*
G01*
%TO.C,R2*%
X116396500Y-108690000D02*
X116396500Y-106590000D01*
X116396500Y-106590000D02*
X106876500Y-106590000D01*
X106876500Y-108690000D02*
X116396500Y-108690000D01*
X106876500Y-106590000D02*
X106876500Y-108690000D01*
%TD*%
D15*
X122044000Y-88120000D02*
X121992000Y-138200000D01*
X92052000Y-88120000D02*
X122044000Y-88120000D01*
X92000000Y-138200000D02*
X92052000Y-88120000D01*
X121992000Y-138200000D02*
X92000000Y-138200000D01*
M02*
