%TF.GenerationSoftware,KiCad,Pcbnew,8.0.1*%
%TF.CreationDate,2024-04-05T21:52:17+02:00*%
%TF.ProjectId,LCRDT-Tester,4c435244-542d-4546-9573-7465722e6b69,0.31*%
%TF.SameCoordinates,PX57bafc0PY83cc3c0*%
%TF.FileFunction,Plated,1,2,PTH,Drill*%
%TF.FilePolarity,Positive*%
%FSLAX46Y46*%
G04 Gerber Fmt 4.6, Leading zero omitted, Abs format (unit mm)*
G04 Created by KiCad (PCBNEW 8.0.1) date 2024-04-05 21:52:17*
%MOMM*%
%LPD*%
G01*
G04 APERTURE LIST*
%TA.AperFunction,ViaDrill*%
%ADD10C,0.400000*%
%TD*%
%TA.AperFunction,ComponentDrill*%
%ADD11C,0.700000*%
%TD*%
%TA.AperFunction,ComponentDrill*%
%ADD12C,0.800000*%
%TD*%
%TA.AperFunction,ComponentDrill*%
%ADD13C,1.000000*%
%TD*%
%TA.AperFunction,ComponentDrill*%
%ADD14C,1.100000*%
%TD*%
%TA.AperFunction,ComponentDrill*%
%ADD15C,1.300000*%
%TD*%
%TA.AperFunction,ComponentDrill*%
%ADD16C,3.200000*%
%TD*%
G04 APERTURE END LIST*
D10*
X1790000Y1220000D03*
X15230000Y24150000D03*
X28310000Y1150000D03*
X28808000Y44690000D03*
D11*
%TO.C,R6*%
X15748000Y43620000D03*
%TO.C,R4*%
X15804000Y36670000D03*
%TO.C,R1*%
X15804000Y27680000D03*
%TO.C,R5*%
X15820000Y39890000D03*
%TO.C,R2*%
X15834500Y30560000D03*
%TO.C,R3*%
X15888500Y33310000D03*
%TO.C,R6*%
X23368000Y43620000D03*
%TO.C,R4*%
X23424000Y36670000D03*
%TO.C,R1*%
X23424000Y27680000D03*
%TO.C,R5*%
X23440000Y39890000D03*
%TO.C,R2*%
X23454500Y30560000D03*
%TO.C,R3*%
X23508500Y33310000D03*
D12*
%TO.C,C1*%
X4350000Y41900000D03*
X4350000Y36900000D03*
D13*
%TO.C,J1*%
X4268500Y33660000D03*
X4268500Y31120000D03*
X4268500Y28580000D03*
%TO.C,J2*%
X4349000Y23470000D03*
X4349000Y20930000D03*
X4349000Y18390000D03*
X4349000Y15850000D03*
%TO.C,A1*%
X11148000Y41460000D03*
X11148000Y38920000D03*
X11148000Y36380000D03*
X11148000Y33840000D03*
X11148000Y31300000D03*
X11148000Y28760000D03*
X11148000Y26220000D03*
X11148000Y23680000D03*
X11148000Y21140000D03*
X11148000Y18600000D03*
X11148000Y16060000D03*
X11148000Y13520000D03*
X11148000Y10980000D03*
X11148000Y8440000D03*
X11148000Y5900000D03*
X26388000Y41460000D03*
X26388000Y38920000D03*
X26388000Y36380000D03*
X26388000Y33840000D03*
X26388000Y31300000D03*
X26388000Y28760000D03*
X26388000Y26220000D03*
X26388000Y23680000D03*
X26388000Y21140000D03*
X26388000Y18600000D03*
X26388000Y16060000D03*
X26388000Y13520000D03*
X26388000Y10980000D03*
X26388000Y8440000D03*
X26388000Y5900000D03*
D14*
%TO.C,Start*%
X1958000Y10100000D03*
X1958000Y3600000D03*
X6458000Y10100000D03*
X6458000Y3600000D03*
D15*
%TO.C,Reset*%
X9588000Y47450000D03*
X16088000Y47450000D03*
D16*
%TO.C,REF9\u002A\u002A*%
X3948000Y46430000D03*
M02*
