%TF.GenerationSoftware,KiCad,Pcbnew,8.0.1*%
%TF.CreationDate,2024-04-05T21:53:59+02:00*%
%TF.ProjectId,LCRDT-Tester,4c435244-542d-4546-9573-7465722e6b69,0.31*%
%TF.SameCoordinates,PX57bafc0PY83cc3c0*%
%TF.FileFunction,Component,L1,Top*%
%TF.FilePolarity,Positive*%
%FSLAX46Y46*%
G04 Gerber Fmt 4.6, Leading zero omitted, Abs format (unit mm)*
G04 Created by KiCad (PCBNEW 8.0.1) date 2024-04-05 21:53:59*
%MOMM*%
%LPD*%
G01*
G04 APERTURE LIST*
%TA.AperFunction,ComponentMain*%
%ADD10C,0.300000*%
%TD*%
%TA.AperFunction,ComponentOutline,Courtyard*%
%ADD11C,0.100000*%
%TD*%
%TA.AperFunction,ComponentPin*%
%ADD12P,0.360000X4X0.000000*%
%TD*%
%TA.AperFunction,ComponentPin*%
%ADD13C,0.100000*%
%TD*%
%TA.AperFunction,Profile*%
%ADD14C,0.150000*%
%TD*%
G04 APERTURE END LIST*
D10*
%TO.C,J1*%
%TO.CFtp,PinSocket_1x03_P2.54mm_Vertical*%
%TO.CVal,Test*%
%TO.CLbN,Connector_PinSocket_2.54mm*%
%TO.CMnt,TH*%
%TO.CRot,180*%
X4268500Y28580000D03*
D11*
X6068499Y35429999D02*
X6068499Y26780001D01*
X2518501Y26780001D01*
X2518501Y35429999D01*
X6068499Y35429999D01*
D12*
%TO.P,J1,1,Pin_1*%
X4268500Y28580000D03*
D13*
%TO.P,J1,2,Pin_2*%
X4268500Y31120000D03*
%TO.P,J1,3,Pin_3*%
X4268500Y33660000D03*
%TD*%
D10*
%TO.C,R6*%
%TO.CFtp,R_Axial_DIN0204_L3.6mm_D1.6mm_P7.62mm_Horizontal*%
%TO.CVal,10K*%
%TO.CLbN,Resistor_THT*%
%TO.CMnt,TH*%
%TO.CRot,0*%
X15748000Y43620000D03*
D11*
X24317999Y44669999D02*
X24317999Y42570001D01*
X14798001Y42570001D01*
X14798001Y44669999D01*
X24317999Y44669999D01*
D12*
%TO.P,R6,1*%
X15748000Y43620000D03*
D13*
%TO.P,R6,2*%
X23368000Y43620000D03*
%TD*%
D10*
%TO.C,R1*%
%TO.CFtp,R_Axial_DIN0204_L3.6mm_D1.6mm_P7.62mm_Horizontal*%
%TO.CVal,330*%
%TO.CLbN,Resistor_THT*%
%TO.CMnt,TH*%
%TO.CRot,0*%
X15804000Y27680000D03*
D11*
X24373999Y28729999D02*
X24373999Y26630001D01*
X14854001Y26630001D01*
X14854001Y28729999D01*
X24373999Y28729999D01*
D12*
%TO.P,R1,1*%
X15804000Y27680000D03*
D13*
%TO.P,R1,2*%
X23424000Y27680000D03*
%TD*%
D10*
%TO.C,C1*%
%TO.CFtp,C_Disc_D5.0mm_W2.5mm_P5.00mm*%
%TO.CVal,100n*%
%TO.CLbN,Capacitor_THT*%
%TO.CMnt,TH*%
%TO.CRot,90*%
X4350000Y36900000D03*
D11*
X5849999Y42949999D02*
X5849999Y35850001D01*
X2850001Y35850001D01*
X2850001Y42949999D01*
X5849999Y42949999D01*
D12*
%TO.P,C1,1*%
X4350000Y36900000D03*
D13*
%TO.P,C1,2*%
X4350000Y41900000D03*
%TD*%
D10*
%TO.C,R3*%
%TO.CFtp,R_Axial_DIN0204_L3.6mm_D1.6mm_P7.62mm_Horizontal*%
%TO.CVal,330*%
%TO.CLbN,Resistor_THT*%
%TO.CMnt,TH*%
%TO.CRot,0*%
X15888500Y33310000D03*
D11*
X24458499Y34359999D02*
X24458499Y32260001D01*
X14938501Y32260001D01*
X14938501Y34359999D01*
X24458499Y34359999D01*
D12*
%TO.P,R3,1*%
X15888500Y33310000D03*
D13*
%TO.P,R3,2*%
X23508500Y33310000D03*
%TD*%
D10*
%TO.C,R5*%
%TO.CFtp,R_Axial_DIN0204_L3.6mm_D1.6mm_P7.62mm_Horizontal*%
%TO.CVal,330*%
%TO.CLbN,Resistor_THT*%
%TO.CMnt,TH*%
%TO.CRot,0*%
X15820000Y39890000D03*
D11*
X24389999Y40939999D02*
X24389999Y38840001D01*
X14870001Y38840001D01*
X14870001Y40939999D01*
X24389999Y40939999D01*
D12*
%TO.P,R5,1*%
X15820000Y39890000D03*
D13*
%TO.P,R5,2*%
X23440000Y39890000D03*
%TD*%
D10*
%TO.C,A1*%
%TO.CFtp,Arduino_Nano_WithMountingHoles*%
%TO.CVal,Arduino_Nano_v3.x*%
%TO.CLbN,Module*%
%TO.CMnt,TH*%
%TO.CRot,180*%
X26388000Y5900000D03*
D11*
X27917999Y48059999D02*
X27917999Y1840001D01*
X9638001Y1840001D01*
X9638001Y48059999D01*
X27917999Y48059999D01*
D12*
%TO.P,A1,1,D1/TX*%
X26388000Y5900000D03*
D13*
%TO.P,A1,*%
X26388000Y3360000D03*
X26388000Y44000000D03*
X11148000Y3360000D03*
X11148000Y44000000D03*
%TO.P,A1,2,D0/RX*%
X26388000Y8440000D03*
%TO.P,A1,3,~{RESET}*%
X26388000Y10980000D03*
%TO.P,A1,4,GND*%
X26388000Y13520000D03*
%TO.P,A1,5,D2*%
X26388000Y16060000D03*
%TO.P,A1,6,D3*%
X26388000Y18600000D03*
%TO.P,A1,7,D4*%
X26388000Y21140000D03*
%TO.P,A1,8,D5*%
X26388000Y23680000D03*
%TO.P,A1,9,D6*%
X26388000Y26220000D03*
%TO.P,A1,10,D7*%
X26388000Y28760000D03*
%TO.P,A1,11,D8*%
X26388000Y31300000D03*
%TO.P,A1,12,D9*%
X26388000Y33840000D03*
%TO.P,A1,13,D10*%
X26388000Y36380000D03*
%TO.P,A1,14,D11*%
X26388000Y38920000D03*
%TO.P,A1,15,D12*%
X26388000Y41460000D03*
%TO.P,A1,16,D13*%
X11148000Y41460000D03*
%TO.P,A1,17,3V3*%
X11148000Y38920000D03*
%TO.P,A1,18,AREF*%
X11148000Y36380000D03*
%TO.P,A1,19,A0*%
X11148000Y33840000D03*
%TO.P,A1,20,A1*%
X11148000Y31300000D03*
%TO.P,A1,21,A2*%
X11148000Y28760000D03*
%TO.P,A1,22,A3*%
X11148000Y26220000D03*
%TO.P,A1,23,A4*%
X11148000Y23680000D03*
%TO.P,A1,24,A5*%
X11148000Y21140000D03*
%TO.P,A1,25,A6*%
X11148000Y18600000D03*
%TO.P,A1,26,A7*%
X11148000Y16060000D03*
%TO.P,A1,27,+5V*%
X11148000Y13520000D03*
%TO.P,A1,28,~{RESET}*%
X11148000Y10980000D03*
%TO.P,A1,29,GND*%
X11148000Y8440000D03*
%TO.P,A1,30,VIN*%
X11148000Y5900000D03*
%TD*%
D10*
%TO.C,Start*%
%TO.CFtp,SW_PUSH_6mm_H4.3mm*%
%TO.CVal,SW_Push*%
%TO.CLbN,Button_Switch_THT*%
%TO.CMnt,TH*%
%TO.CRot,-90*%
X6458000Y10100000D03*
D11*
X7957999Y11599999D02*
X7957999Y2100001D01*
X458001Y2100001D01*
X458001Y11599999D01*
X7957999Y11599999D01*
D12*
%TO.P,Start,1,1*%
X6458000Y10100000D03*
X6458000Y3600000D03*
D13*
%TO.P,Start,2,2*%
X1958000Y10100000D03*
X1958000Y3600000D03*
%TD*%
D10*
%TO.C,J2*%
%TO.CFtp,PinSocket_1x04_P2.54mm_Vertical*%
%TO.CVal,Disp*%
%TO.CLbN,Connector_PinSocket_2.54mm*%
%TO.CMnt,TH*%
%TO.CRot,180*%
X4349000Y15850000D03*
D11*
X6148999Y25249999D02*
X6148999Y14050001D01*
X2599001Y14050001D01*
X2599001Y25249999D01*
X6148999Y25249999D01*
D12*
%TO.P,J2,1,Pin_1*%
X4349000Y15850000D03*
D13*
%TO.P,J2,2,Pin_2*%
X4349000Y18390000D03*
%TO.P,J2,3,Pin_3*%
X4349000Y20930000D03*
%TO.P,J2,4,Pin_4*%
X4349000Y23470000D03*
%TD*%
D10*
%TO.C,R4*%
%TO.CFtp,R_Axial_DIN0204_L3.6mm_D1.6mm_P7.62mm_Horizontal*%
%TO.CVal,10K*%
%TO.CLbN,Resistor_THT*%
%TO.CMnt,TH*%
%TO.CRot,180*%
X23424000Y36670000D03*
D11*
X24373999Y37719999D02*
X24373999Y35620001D01*
X14854001Y35620001D01*
X14854001Y37719999D01*
X24373999Y37719999D01*
D12*
%TO.P,R4,1*%
X23424000Y36670000D03*
D13*
%TO.P,R4,2*%
X15804000Y36670000D03*
%TD*%
D10*
%TO.C,Reset*%
%TO.CFtp,SW_PUSH_1P1T_6x3.5mm_H4.3_APEM_MJTP1243*%
%TO.CVal,SW_Push*%
%TO.CLbN,Button_Switch_THT*%
%TO.CMnt,TH*%
%TO.CRot,180*%
X16088000Y47450000D03*
D11*
X16087999Y49449999D02*
X16087999Y48829999D01*
X17467999Y48829999D01*
X17467999Y46070001D01*
X16087999Y46070001D01*
X16087999Y45450001D01*
X9588001Y45450001D01*
X9588001Y46070001D01*
X9467495Y46072627D01*
X9230148Y46114478D01*
X9003673Y46196908D01*
X8794953Y46317412D01*
X8794954Y46317412D01*
X8610330Y46472330D01*
X8455412Y46656954D01*
X8455411Y46656954D01*
X8334908Y46865673D01*
X8252478Y47092148D01*
X8210627Y47329495D01*
X8210627Y47570505D01*
X8252478Y47807852D01*
X8334908Y48034327D01*
X8455411Y48243047D01*
X8455412Y48243046D01*
X8610330Y48427670D01*
X8794954Y48582588D01*
X8794953Y48582589D01*
X9003673Y48703092D01*
X9230148Y48785522D01*
X9467495Y48827373D01*
X9588001Y48829999D01*
X9588001Y49449999D01*
X16087999Y49449999D01*
D12*
%TO.P,Reset,1,1*%
X16088000Y47450000D03*
D13*
%TO.P,Reset,2,2*%
X9588000Y47450000D03*
%TD*%
D10*
%TO.C,R2*%
%TO.CFtp,R_Axial_DIN0204_L3.6mm_D1.6mm_P7.62mm_Horizontal*%
%TO.CVal,10K*%
%TO.CLbN,Resistor_THT*%
%TO.CMnt,TH*%
%TO.CRot,180*%
X23454500Y30560000D03*
D11*
X24404499Y31609999D02*
X24404499Y29510001D01*
X14884501Y29510001D01*
X14884501Y31609999D01*
X24404499Y31609999D01*
D12*
%TO.P,R2,1*%
X23454500Y30560000D03*
D13*
%TO.P,R2,2*%
X15834500Y30560000D03*
%TD*%
D14*
X30052000Y50080000D02*
X30000000Y0D01*
X60000Y50080000D02*
X30052000Y50080000D01*
X8000Y0D02*
X60000Y50080000D01*
X30000000Y0D02*
X8000Y0D01*
M02*
