%TF.GenerationSoftware,KiCad,Pcbnew,8.0.1*%
%TF.CreationDate,2024-04-05T21:52:58+02:00*%
%TF.ProjectId,LCRDT-Tester,4c435244-542d-4546-9573-7465722e6b69,0.31*%
%TF.SameCoordinates,PX57bafc0PY83cc3c0*%
%TF.FileFunction,Copper,L2,Bot*%
%TF.FilePolarity,Positive*%
%FSLAX46Y46*%
G04 Gerber Fmt 4.6, Leading zero omitted, Abs format (unit mm)*
G04 Created by KiCad (PCBNEW 8.0.1) date 2024-04-05 21:52:58*
%MOMM*%
%LPD*%
G01*
G04 APERTURE LIST*
%ADD10C,0.100000*%
%ADD11C,0.150000*%
%ADD12C,0.300000*%
%ADD13C,0.400000*%
%TA.AperFunction,ComponentPad*%
%ADD14R,1.700000X1.700000*%
%TD*%
%TA.AperFunction,ComponentPad*%
%ADD15O,1.700000X1.700000*%
%TD*%
%TA.AperFunction,ComponentPad*%
%ADD16C,1.400000*%
%TD*%
%TA.AperFunction,ComponentPad*%
%ADD17O,1.400000X1.400000*%
%TD*%
%TA.AperFunction,ComponentPad*%
%ADD18C,1.600000*%
%TD*%
%TA.AperFunction,ComponentPad*%
%ADD19R,1.600000X1.600000*%
%TD*%
%TA.AperFunction,ComponentPad*%
%ADD20O,1.600000X1.600000*%
%TD*%
%TA.AperFunction,ComponentPad*%
%ADD21C,2.000000*%
%TD*%
%TA.AperFunction,ComponentPad*%
%ADD22C,5.600000*%
%TD*%
%TA.AperFunction,ComponentPad*%
%ADD23R,2.250000X2.250000*%
%TD*%
%TA.AperFunction,ComponentPad*%
%ADD24C,2.250000*%
%TD*%
%TA.AperFunction,ViaPad*%
%ADD25C,0.800000*%
%TD*%
%TA.AperFunction,Profile*%
%ADD26C,0.150000*%
%TD*%
G04 APERTURE END LIST*
D10*
D11*
X85010200Y-27807200D02*
X193010200Y-27807200D01*
X193010200Y-59807200D01*
X85010200Y-59807200D01*
X85010200Y-27807200D01*
D10*
D11*
X-81992000Y128200000D02*
X195010200Y128200000D01*
X195010200Y-61807200D01*
X-81992000Y-61807200D01*
X-81992000Y128200000D01*
D10*
D11*
X-79992000Y126200000D02*
X193010200Y126200000D01*
X193010200Y-59807200D01*
X-79992000Y-59807200D01*
X-79992000Y126200000D01*
D10*
D11*
X-31992000Y126200000D02*
X-31992000Y128200000D01*
D10*
D11*
X18008000Y126200000D02*
X18008000Y128200000D01*
D10*
D11*
X68008000Y126200000D02*
X68008000Y128200000D01*
D10*
D11*
X118008000Y126200000D02*
X118008000Y128200000D01*
D10*
D11*
X168008000Y126200000D02*
X168008000Y128200000D01*
D10*
D11*
X-55902840Y126606396D02*
X-56645697Y126606396D01*
X-56274269Y126606396D02*
X-56274269Y127906396D01*
X-56274269Y127906396D02*
X-56398078Y127720681D01*
X-56398078Y127720681D02*
X-56521888Y127596872D01*
X-56521888Y127596872D02*
X-56645697Y127534967D01*
D10*
D11*
X-6645697Y127782586D02*
X-6583793Y127844491D01*
X-6583793Y127844491D02*
X-6459983Y127906396D01*
X-6459983Y127906396D02*
X-6150459Y127906396D01*
X-6150459Y127906396D02*
X-6026650Y127844491D01*
X-6026650Y127844491D02*
X-5964745Y127782586D01*
X-5964745Y127782586D02*
X-5902840Y127658777D01*
X-5902840Y127658777D02*
X-5902840Y127534967D01*
X-5902840Y127534967D02*
X-5964745Y127349253D01*
X-5964745Y127349253D02*
X-6707602Y126606396D01*
X-6707602Y126606396D02*
X-5902840Y126606396D01*
D10*
D11*
X43292398Y127906396D02*
X44097160Y127906396D01*
X44097160Y127906396D02*
X43663826Y127411158D01*
X43663826Y127411158D02*
X43849541Y127411158D01*
X43849541Y127411158D02*
X43973350Y127349253D01*
X43973350Y127349253D02*
X44035255Y127287348D01*
X44035255Y127287348D02*
X44097160Y127163539D01*
X44097160Y127163539D02*
X44097160Y126854015D01*
X44097160Y126854015D02*
X44035255Y126730205D01*
X44035255Y126730205D02*
X43973350Y126668300D01*
X43973350Y126668300D02*
X43849541Y126606396D01*
X43849541Y126606396D02*
X43478112Y126606396D01*
X43478112Y126606396D02*
X43354303Y126668300D01*
X43354303Y126668300D02*
X43292398Y126730205D01*
D10*
D11*
X93973350Y127473062D02*
X93973350Y126606396D01*
X93663826Y127968300D02*
X93354303Y127039729D01*
X93354303Y127039729D02*
X94159064Y127039729D01*
D10*
D11*
X144035255Y127906396D02*
X143416207Y127906396D01*
X143416207Y127906396D02*
X143354303Y127287348D01*
X143354303Y127287348D02*
X143416207Y127349253D01*
X143416207Y127349253D02*
X143540017Y127411158D01*
X143540017Y127411158D02*
X143849541Y127411158D01*
X143849541Y127411158D02*
X143973350Y127349253D01*
X143973350Y127349253D02*
X144035255Y127287348D01*
X144035255Y127287348D02*
X144097160Y127163539D01*
X144097160Y127163539D02*
X144097160Y126854015D01*
X144097160Y126854015D02*
X144035255Y126730205D01*
X144035255Y126730205D02*
X143973350Y126668300D01*
X143973350Y126668300D02*
X143849541Y126606396D01*
X143849541Y126606396D02*
X143540017Y126606396D01*
X143540017Y126606396D02*
X143416207Y126668300D01*
X143416207Y126668300D02*
X143354303Y126730205D01*
D10*
D11*
X193973350Y127906396D02*
X193725731Y127906396D01*
X193725731Y127906396D02*
X193601922Y127844491D01*
X193601922Y127844491D02*
X193540017Y127782586D01*
X193540017Y127782586D02*
X193416207Y127596872D01*
X193416207Y127596872D02*
X193354303Y127349253D01*
X193354303Y127349253D02*
X193354303Y126854015D01*
X193354303Y126854015D02*
X193416207Y126730205D01*
X193416207Y126730205D02*
X193478112Y126668300D01*
X193478112Y126668300D02*
X193601922Y126606396D01*
X193601922Y126606396D02*
X193849541Y126606396D01*
X193849541Y126606396D02*
X193973350Y126668300D01*
X193973350Y126668300D02*
X194035255Y126730205D01*
X194035255Y126730205D02*
X194097160Y126854015D01*
X194097160Y126854015D02*
X194097160Y127163539D01*
X194097160Y127163539D02*
X194035255Y127287348D01*
X194035255Y127287348D02*
X193973350Y127349253D01*
X193973350Y127349253D02*
X193849541Y127411158D01*
X193849541Y127411158D02*
X193601922Y127411158D01*
X193601922Y127411158D02*
X193478112Y127349253D01*
X193478112Y127349253D02*
X193416207Y127287348D01*
X193416207Y127287348D02*
X193354303Y127163539D01*
D10*
D11*
X-31992000Y-59807200D02*
X-31992000Y-61807200D01*
D10*
D11*
X18008000Y-59807200D02*
X18008000Y-61807200D01*
D10*
D11*
X68008000Y-59807200D02*
X68008000Y-61807200D01*
D10*
D11*
X118008000Y-59807200D02*
X118008000Y-61807200D01*
D10*
D11*
X168008000Y-59807200D02*
X168008000Y-61807200D01*
D10*
D11*
X-55902840Y-61400804D02*
X-56645697Y-61400804D01*
X-56274269Y-61400804D02*
X-56274269Y-60100804D01*
X-56274269Y-60100804D02*
X-56398078Y-60286519D01*
X-56398078Y-60286519D02*
X-56521888Y-60410328D01*
X-56521888Y-60410328D02*
X-56645697Y-60472233D01*
D10*
D11*
X-6645697Y-60224614D02*
X-6583793Y-60162709D01*
X-6583793Y-60162709D02*
X-6459983Y-60100804D01*
X-6459983Y-60100804D02*
X-6150459Y-60100804D01*
X-6150459Y-60100804D02*
X-6026650Y-60162709D01*
X-6026650Y-60162709D02*
X-5964745Y-60224614D01*
X-5964745Y-60224614D02*
X-5902840Y-60348423D01*
X-5902840Y-60348423D02*
X-5902840Y-60472233D01*
X-5902840Y-60472233D02*
X-5964745Y-60657947D01*
X-5964745Y-60657947D02*
X-6707602Y-61400804D01*
X-6707602Y-61400804D02*
X-5902840Y-61400804D01*
D10*
D11*
X43292398Y-60100804D02*
X44097160Y-60100804D01*
X44097160Y-60100804D02*
X43663826Y-60596042D01*
X43663826Y-60596042D02*
X43849541Y-60596042D01*
X43849541Y-60596042D02*
X43973350Y-60657947D01*
X43973350Y-60657947D02*
X44035255Y-60719852D01*
X44035255Y-60719852D02*
X44097160Y-60843661D01*
X44097160Y-60843661D02*
X44097160Y-61153185D01*
X44097160Y-61153185D02*
X44035255Y-61276995D01*
X44035255Y-61276995D02*
X43973350Y-61338900D01*
X43973350Y-61338900D02*
X43849541Y-61400804D01*
X43849541Y-61400804D02*
X43478112Y-61400804D01*
X43478112Y-61400804D02*
X43354303Y-61338900D01*
X43354303Y-61338900D02*
X43292398Y-61276995D01*
D10*
D11*
X93973350Y-60534138D02*
X93973350Y-61400804D01*
X93663826Y-60038900D02*
X93354303Y-60967471D01*
X93354303Y-60967471D02*
X94159064Y-60967471D01*
D10*
D11*
X144035255Y-60100804D02*
X143416207Y-60100804D01*
X143416207Y-60100804D02*
X143354303Y-60719852D01*
X143354303Y-60719852D02*
X143416207Y-60657947D01*
X143416207Y-60657947D02*
X143540017Y-60596042D01*
X143540017Y-60596042D02*
X143849541Y-60596042D01*
X143849541Y-60596042D02*
X143973350Y-60657947D01*
X143973350Y-60657947D02*
X144035255Y-60719852D01*
X144035255Y-60719852D02*
X144097160Y-60843661D01*
X144097160Y-60843661D02*
X144097160Y-61153185D01*
X144097160Y-61153185D02*
X144035255Y-61276995D01*
X144035255Y-61276995D02*
X143973350Y-61338900D01*
X143973350Y-61338900D02*
X143849541Y-61400804D01*
X143849541Y-61400804D02*
X143540017Y-61400804D01*
X143540017Y-61400804D02*
X143416207Y-61338900D01*
X143416207Y-61338900D02*
X143354303Y-61276995D01*
D10*
D11*
X193973350Y-60100804D02*
X193725731Y-60100804D01*
X193725731Y-60100804D02*
X193601922Y-60162709D01*
X193601922Y-60162709D02*
X193540017Y-60224614D01*
X193540017Y-60224614D02*
X193416207Y-60410328D01*
X193416207Y-60410328D02*
X193354303Y-60657947D01*
X193354303Y-60657947D02*
X193354303Y-61153185D01*
X193354303Y-61153185D02*
X193416207Y-61276995D01*
X193416207Y-61276995D02*
X193478112Y-61338900D01*
X193478112Y-61338900D02*
X193601922Y-61400804D01*
X193601922Y-61400804D02*
X193849541Y-61400804D01*
X193849541Y-61400804D02*
X193973350Y-61338900D01*
X193973350Y-61338900D02*
X194035255Y-61276995D01*
X194035255Y-61276995D02*
X194097160Y-61153185D01*
X194097160Y-61153185D02*
X194097160Y-60843661D01*
X194097160Y-60843661D02*
X194035255Y-60719852D01*
X194035255Y-60719852D02*
X193973350Y-60657947D01*
X193973350Y-60657947D02*
X193849541Y-60596042D01*
X193849541Y-60596042D02*
X193601922Y-60596042D01*
X193601922Y-60596042D02*
X193478112Y-60657947D01*
X193478112Y-60657947D02*
X193416207Y-60719852D01*
X193416207Y-60719852D02*
X193354303Y-60843661D01*
D10*
D11*
X-81992000Y78200000D02*
X-79992000Y78200000D01*
D10*
D11*
X-81992000Y28200000D02*
X-79992000Y28200000D01*
D10*
D11*
X-81992000Y-21800000D02*
X-79992000Y-21800000D01*
D10*
D11*
X-81301524Y102977824D02*
X-80682477Y102977824D01*
X-81425334Y102606396D02*
X-80992001Y103906396D01*
X-80992001Y103906396D02*
X-80558667Y102606396D01*
D10*
D11*
X-80899143Y53287348D02*
X-80713429Y53225443D01*
X-80713429Y53225443D02*
X-80651524Y53163539D01*
X-80651524Y53163539D02*
X-80589620Y53039729D01*
X-80589620Y53039729D02*
X-80589620Y52854015D01*
X-80589620Y52854015D02*
X-80651524Y52730205D01*
X-80651524Y52730205D02*
X-80713429Y52668300D01*
X-80713429Y52668300D02*
X-80837239Y52606396D01*
X-80837239Y52606396D02*
X-81332477Y52606396D01*
X-81332477Y52606396D02*
X-81332477Y53906396D01*
X-81332477Y53906396D02*
X-80899143Y53906396D01*
X-80899143Y53906396D02*
X-80775334Y53844491D01*
X-80775334Y53844491D02*
X-80713429Y53782586D01*
X-80713429Y53782586D02*
X-80651524Y53658777D01*
X-80651524Y53658777D02*
X-80651524Y53534967D01*
X-80651524Y53534967D02*
X-80713429Y53411158D01*
X-80713429Y53411158D02*
X-80775334Y53349253D01*
X-80775334Y53349253D02*
X-80899143Y53287348D01*
X-80899143Y53287348D02*
X-81332477Y53287348D01*
D10*
D11*
X-80589620Y2730205D02*
X-80651524Y2668300D01*
X-80651524Y2668300D02*
X-80837239Y2606396D01*
X-80837239Y2606396D02*
X-80961048Y2606396D01*
X-80961048Y2606396D02*
X-81146762Y2668300D01*
X-81146762Y2668300D02*
X-81270572Y2792110D01*
X-81270572Y2792110D02*
X-81332477Y2915920D01*
X-81332477Y2915920D02*
X-81394381Y3163539D01*
X-81394381Y3163539D02*
X-81394381Y3349253D01*
X-81394381Y3349253D02*
X-81332477Y3596872D01*
X-81332477Y3596872D02*
X-81270572Y3720681D01*
X-81270572Y3720681D02*
X-81146762Y3844491D01*
X-81146762Y3844491D02*
X-80961048Y3906396D01*
X-80961048Y3906396D02*
X-80837239Y3906396D01*
X-80837239Y3906396D02*
X-80651524Y3844491D01*
X-80651524Y3844491D02*
X-80589620Y3782586D01*
D10*
D11*
X-81332477Y-47393604D02*
X-81332477Y-46093604D01*
X-81332477Y-46093604D02*
X-81022953Y-46093604D01*
X-81022953Y-46093604D02*
X-80837239Y-46155509D01*
X-80837239Y-46155509D02*
X-80713429Y-46279319D01*
X-80713429Y-46279319D02*
X-80651524Y-46403128D01*
X-80651524Y-46403128D02*
X-80589620Y-46650747D01*
X-80589620Y-46650747D02*
X-80589620Y-46836461D01*
X-80589620Y-46836461D02*
X-80651524Y-47084080D01*
X-80651524Y-47084080D02*
X-80713429Y-47207890D01*
X-80713429Y-47207890D02*
X-80837239Y-47331700D01*
X-80837239Y-47331700D02*
X-81022953Y-47393604D01*
X-81022953Y-47393604D02*
X-81332477Y-47393604D01*
D10*
D11*
X195010200Y78200000D02*
X193010200Y78200000D01*
D10*
D11*
X195010200Y28200000D02*
X193010200Y28200000D01*
D10*
D11*
X195010200Y-21800000D02*
X193010200Y-21800000D01*
D10*
D11*
X193700676Y102977824D02*
X194319723Y102977824D01*
X193576866Y102606396D02*
X194010199Y103906396D01*
X194010199Y103906396D02*
X194443533Y102606396D01*
D10*
D11*
X194103057Y53287348D02*
X194288771Y53225443D01*
X194288771Y53225443D02*
X194350676Y53163539D01*
X194350676Y53163539D02*
X194412580Y53039729D01*
X194412580Y53039729D02*
X194412580Y52854015D01*
X194412580Y52854015D02*
X194350676Y52730205D01*
X194350676Y52730205D02*
X194288771Y52668300D01*
X194288771Y52668300D02*
X194164961Y52606396D01*
X194164961Y52606396D02*
X193669723Y52606396D01*
X193669723Y52606396D02*
X193669723Y53906396D01*
X193669723Y53906396D02*
X194103057Y53906396D01*
X194103057Y53906396D02*
X194226866Y53844491D01*
X194226866Y53844491D02*
X194288771Y53782586D01*
X194288771Y53782586D02*
X194350676Y53658777D01*
X194350676Y53658777D02*
X194350676Y53534967D01*
X194350676Y53534967D02*
X194288771Y53411158D01*
X194288771Y53411158D02*
X194226866Y53349253D01*
X194226866Y53349253D02*
X194103057Y53287348D01*
X194103057Y53287348D02*
X193669723Y53287348D01*
D10*
D11*
X194412580Y2730205D02*
X194350676Y2668300D01*
X194350676Y2668300D02*
X194164961Y2606396D01*
X194164961Y2606396D02*
X194041152Y2606396D01*
X194041152Y2606396D02*
X193855438Y2668300D01*
X193855438Y2668300D02*
X193731628Y2792110D01*
X193731628Y2792110D02*
X193669723Y2915920D01*
X193669723Y2915920D02*
X193607819Y3163539D01*
X193607819Y3163539D02*
X193607819Y3349253D01*
X193607819Y3349253D02*
X193669723Y3596872D01*
X193669723Y3596872D02*
X193731628Y3720681D01*
X193731628Y3720681D02*
X193855438Y3844491D01*
X193855438Y3844491D02*
X194041152Y3906396D01*
X194041152Y3906396D02*
X194164961Y3906396D01*
X194164961Y3906396D02*
X194350676Y3844491D01*
X194350676Y3844491D02*
X194412580Y3782586D01*
D10*
D11*
X193669723Y-47393604D02*
X193669723Y-46093604D01*
X193669723Y-46093604D02*
X193979247Y-46093604D01*
X193979247Y-46093604D02*
X194164961Y-46155509D01*
X194164961Y-46155509D02*
X194288771Y-46279319D01*
X194288771Y-46279319D02*
X194350676Y-46403128D01*
X194350676Y-46403128D02*
X194412580Y-46650747D01*
X194412580Y-46650747D02*
X194412580Y-46836461D01*
X194412580Y-46836461D02*
X194350676Y-47084080D01*
X194350676Y-47084080D02*
X194288771Y-47207890D01*
X194288771Y-47207890D02*
X194164961Y-47331700D01*
X194164961Y-47331700D02*
X193979247Y-47393604D01*
X193979247Y-47393604D02*
X193669723Y-47393604D01*
D10*
D11*
X108466026Y-55593328D02*
X108466026Y-54093328D01*
X108466026Y-54093328D02*
X108823169Y-54093328D01*
X108823169Y-54093328D02*
X109037455Y-54164757D01*
X109037455Y-54164757D02*
X109180312Y-54307614D01*
X109180312Y-54307614D02*
X109251741Y-54450471D01*
X109251741Y-54450471D02*
X109323169Y-54736185D01*
X109323169Y-54736185D02*
X109323169Y-54950471D01*
X109323169Y-54950471D02*
X109251741Y-55236185D01*
X109251741Y-55236185D02*
X109180312Y-55379042D01*
X109180312Y-55379042D02*
X109037455Y-55521900D01*
X109037455Y-55521900D02*
X108823169Y-55593328D01*
X108823169Y-55593328D02*
X108466026Y-55593328D01*
X110608884Y-55593328D02*
X110608884Y-54807614D01*
X110608884Y-54807614D02*
X110537455Y-54664757D01*
X110537455Y-54664757D02*
X110394598Y-54593328D01*
X110394598Y-54593328D02*
X110108884Y-54593328D01*
X110108884Y-54593328D02*
X109966026Y-54664757D01*
X110608884Y-55521900D02*
X110466026Y-55593328D01*
X110466026Y-55593328D02*
X110108884Y-55593328D01*
X110108884Y-55593328D02*
X109966026Y-55521900D01*
X109966026Y-55521900D02*
X109894598Y-55379042D01*
X109894598Y-55379042D02*
X109894598Y-55236185D01*
X109894598Y-55236185D02*
X109966026Y-55093328D01*
X109966026Y-55093328D02*
X110108884Y-55021900D01*
X110108884Y-55021900D02*
X110466026Y-55021900D01*
X110466026Y-55021900D02*
X110608884Y-54950471D01*
X111108884Y-54593328D02*
X111680312Y-54593328D01*
X111323169Y-54093328D02*
X111323169Y-55379042D01*
X111323169Y-55379042D02*
X111394598Y-55521900D01*
X111394598Y-55521900D02*
X111537455Y-55593328D01*
X111537455Y-55593328D02*
X111680312Y-55593328D01*
X112751741Y-55521900D02*
X112608884Y-55593328D01*
X112608884Y-55593328D02*
X112323170Y-55593328D01*
X112323170Y-55593328D02*
X112180312Y-55521900D01*
X112180312Y-55521900D02*
X112108884Y-55379042D01*
X112108884Y-55379042D02*
X112108884Y-54807614D01*
X112108884Y-54807614D02*
X112180312Y-54664757D01*
X112180312Y-54664757D02*
X112323170Y-54593328D01*
X112323170Y-54593328D02*
X112608884Y-54593328D01*
X112608884Y-54593328D02*
X112751741Y-54664757D01*
X112751741Y-54664757D02*
X112823170Y-54807614D01*
X112823170Y-54807614D02*
X112823170Y-54950471D01*
X112823170Y-54950471D02*
X112108884Y-55093328D01*
X113466026Y-55450471D02*
X113537455Y-55521900D01*
X113537455Y-55521900D02*
X113466026Y-55593328D01*
X113466026Y-55593328D02*
X113394598Y-55521900D01*
X113394598Y-55521900D02*
X113466026Y-55450471D01*
X113466026Y-55450471D02*
X113466026Y-55593328D01*
X113466026Y-54664757D02*
X113537455Y-54736185D01*
X113537455Y-54736185D02*
X113466026Y-54807614D01*
X113466026Y-54807614D02*
X113394598Y-54736185D01*
X113394598Y-54736185D02*
X113466026Y-54664757D01*
X113466026Y-54664757D02*
X113466026Y-54807614D01*
X115251741Y-54236185D02*
X115323169Y-54164757D01*
X115323169Y-54164757D02*
X115466027Y-54093328D01*
X115466027Y-54093328D02*
X115823169Y-54093328D01*
X115823169Y-54093328D02*
X115966027Y-54164757D01*
X115966027Y-54164757D02*
X116037455Y-54236185D01*
X116037455Y-54236185D02*
X116108884Y-54379042D01*
X116108884Y-54379042D02*
X116108884Y-54521900D01*
X116108884Y-54521900D02*
X116037455Y-54736185D01*
X116037455Y-54736185D02*
X115180312Y-55593328D01*
X115180312Y-55593328D02*
X116108884Y-55593328D01*
X117037455Y-54093328D02*
X117180312Y-54093328D01*
X117180312Y-54093328D02*
X117323169Y-54164757D01*
X117323169Y-54164757D02*
X117394598Y-54236185D01*
X117394598Y-54236185D02*
X117466026Y-54379042D01*
X117466026Y-54379042D02*
X117537455Y-54664757D01*
X117537455Y-54664757D02*
X117537455Y-55021900D01*
X117537455Y-55021900D02*
X117466026Y-55307614D01*
X117466026Y-55307614D02*
X117394598Y-55450471D01*
X117394598Y-55450471D02*
X117323169Y-55521900D01*
X117323169Y-55521900D02*
X117180312Y-55593328D01*
X117180312Y-55593328D02*
X117037455Y-55593328D01*
X117037455Y-55593328D02*
X116894598Y-55521900D01*
X116894598Y-55521900D02*
X116823169Y-55450471D01*
X116823169Y-55450471D02*
X116751740Y-55307614D01*
X116751740Y-55307614D02*
X116680312Y-55021900D01*
X116680312Y-55021900D02*
X116680312Y-54664757D01*
X116680312Y-54664757D02*
X116751740Y-54379042D01*
X116751740Y-54379042D02*
X116823169Y-54236185D01*
X116823169Y-54236185D02*
X116894598Y-54164757D01*
X116894598Y-54164757D02*
X117037455Y-54093328D01*
X118108883Y-54236185D02*
X118180311Y-54164757D01*
X118180311Y-54164757D02*
X118323169Y-54093328D01*
X118323169Y-54093328D02*
X118680311Y-54093328D01*
X118680311Y-54093328D02*
X118823169Y-54164757D01*
X118823169Y-54164757D02*
X118894597Y-54236185D01*
X118894597Y-54236185D02*
X118966026Y-54379042D01*
X118966026Y-54379042D02*
X118966026Y-54521900D01*
X118966026Y-54521900D02*
X118894597Y-54736185D01*
X118894597Y-54736185D02*
X118037454Y-55593328D01*
X118037454Y-55593328D02*
X118966026Y-55593328D01*
X120251740Y-54593328D02*
X120251740Y-55593328D01*
X119894597Y-54021900D02*
X119537454Y-55093328D01*
X119537454Y-55093328D02*
X120466025Y-55093328D01*
X121037453Y-55021900D02*
X122180311Y-55021900D01*
X123180311Y-54093328D02*
X123323168Y-54093328D01*
X123323168Y-54093328D02*
X123466025Y-54164757D01*
X123466025Y-54164757D02*
X123537454Y-54236185D01*
X123537454Y-54236185D02*
X123608882Y-54379042D01*
X123608882Y-54379042D02*
X123680311Y-54664757D01*
X123680311Y-54664757D02*
X123680311Y-55021900D01*
X123680311Y-55021900D02*
X123608882Y-55307614D01*
X123608882Y-55307614D02*
X123537454Y-55450471D01*
X123537454Y-55450471D02*
X123466025Y-55521900D01*
X123466025Y-55521900D02*
X123323168Y-55593328D01*
X123323168Y-55593328D02*
X123180311Y-55593328D01*
X123180311Y-55593328D02*
X123037454Y-55521900D01*
X123037454Y-55521900D02*
X122966025Y-55450471D01*
X122966025Y-55450471D02*
X122894596Y-55307614D01*
X122894596Y-55307614D02*
X122823168Y-55021900D01*
X122823168Y-55021900D02*
X122823168Y-54664757D01*
X122823168Y-54664757D02*
X122894596Y-54379042D01*
X122894596Y-54379042D02*
X122966025Y-54236185D01*
X122966025Y-54236185D02*
X123037454Y-54164757D01*
X123037454Y-54164757D02*
X123180311Y-54093328D01*
X124966025Y-54593328D02*
X124966025Y-55593328D01*
X124608882Y-54021900D02*
X124251739Y-55093328D01*
X124251739Y-55093328D02*
X125180310Y-55093328D01*
X125751738Y-55021900D02*
X126894596Y-55021900D01*
X127894596Y-54093328D02*
X128037453Y-54093328D01*
X128037453Y-54093328D02*
X128180310Y-54164757D01*
X128180310Y-54164757D02*
X128251739Y-54236185D01*
X128251739Y-54236185D02*
X128323167Y-54379042D01*
X128323167Y-54379042D02*
X128394596Y-54664757D01*
X128394596Y-54664757D02*
X128394596Y-55021900D01*
X128394596Y-55021900D02*
X128323167Y-55307614D01*
X128323167Y-55307614D02*
X128251739Y-55450471D01*
X128251739Y-55450471D02*
X128180310Y-55521900D01*
X128180310Y-55521900D02*
X128037453Y-55593328D01*
X128037453Y-55593328D02*
X127894596Y-55593328D01*
X127894596Y-55593328D02*
X127751739Y-55521900D01*
X127751739Y-55521900D02*
X127680310Y-55450471D01*
X127680310Y-55450471D02*
X127608881Y-55307614D01*
X127608881Y-55307614D02*
X127537453Y-55021900D01*
X127537453Y-55021900D02*
X127537453Y-54664757D01*
X127537453Y-54664757D02*
X127608881Y-54379042D01*
X127608881Y-54379042D02*
X127680310Y-54236185D01*
X127680310Y-54236185D02*
X127751739Y-54164757D01*
X127751739Y-54164757D02*
X127894596Y-54093328D01*
X129751738Y-54093328D02*
X129037452Y-54093328D01*
X129037452Y-54093328D02*
X128966024Y-54807614D01*
X128966024Y-54807614D02*
X129037452Y-54736185D01*
X129037452Y-54736185D02*
X129180310Y-54664757D01*
X129180310Y-54664757D02*
X129537452Y-54664757D01*
X129537452Y-54664757D02*
X129680310Y-54736185D01*
X129680310Y-54736185D02*
X129751738Y-54807614D01*
X129751738Y-54807614D02*
X129823167Y-54950471D01*
X129823167Y-54950471D02*
X129823167Y-55307614D01*
X129823167Y-55307614D02*
X129751738Y-55450471D01*
X129751738Y-55450471D02*
X129680310Y-55521900D01*
X129680310Y-55521900D02*
X129537452Y-55593328D01*
X129537452Y-55593328D02*
X129180310Y-55593328D01*
X129180310Y-55593328D02*
X129037452Y-55521900D01*
X129037452Y-55521900D02*
X128966024Y-55450471D01*
D10*
D11*
X85010200Y-56307200D02*
X193010200Y-56307200D01*
D10*
D11*
X86466026Y-58393328D02*
X86466026Y-56893328D01*
X87323169Y-58393328D02*
X86680312Y-57536185D01*
X87323169Y-56893328D02*
X86466026Y-57750471D01*
X87966026Y-58393328D02*
X87966026Y-57393328D01*
X87966026Y-56893328D02*
X87894598Y-56964757D01*
X87894598Y-56964757D02*
X87966026Y-57036185D01*
X87966026Y-57036185D02*
X88037455Y-56964757D01*
X88037455Y-56964757D02*
X87966026Y-56893328D01*
X87966026Y-56893328D02*
X87966026Y-57036185D01*
X89537455Y-58250471D02*
X89466027Y-58321900D01*
X89466027Y-58321900D02*
X89251741Y-58393328D01*
X89251741Y-58393328D02*
X89108884Y-58393328D01*
X89108884Y-58393328D02*
X88894598Y-58321900D01*
X88894598Y-58321900D02*
X88751741Y-58179042D01*
X88751741Y-58179042D02*
X88680312Y-58036185D01*
X88680312Y-58036185D02*
X88608884Y-57750471D01*
X88608884Y-57750471D02*
X88608884Y-57536185D01*
X88608884Y-57536185D02*
X88680312Y-57250471D01*
X88680312Y-57250471D02*
X88751741Y-57107614D01*
X88751741Y-57107614D02*
X88894598Y-56964757D01*
X88894598Y-56964757D02*
X89108884Y-56893328D01*
X89108884Y-56893328D02*
X89251741Y-56893328D01*
X89251741Y-56893328D02*
X89466027Y-56964757D01*
X89466027Y-56964757D02*
X89537455Y-57036185D01*
X90823170Y-58393328D02*
X90823170Y-57607614D01*
X90823170Y-57607614D02*
X90751741Y-57464757D01*
X90751741Y-57464757D02*
X90608884Y-57393328D01*
X90608884Y-57393328D02*
X90323170Y-57393328D01*
X90323170Y-57393328D02*
X90180312Y-57464757D01*
X90823170Y-58321900D02*
X90680312Y-58393328D01*
X90680312Y-58393328D02*
X90323170Y-58393328D01*
X90323170Y-58393328D02*
X90180312Y-58321900D01*
X90180312Y-58321900D02*
X90108884Y-58179042D01*
X90108884Y-58179042D02*
X90108884Y-58036185D01*
X90108884Y-58036185D02*
X90180312Y-57893328D01*
X90180312Y-57893328D02*
X90323170Y-57821900D01*
X90323170Y-57821900D02*
X90680312Y-57821900D01*
X90680312Y-57821900D02*
X90823170Y-57750471D01*
X92180313Y-58393328D02*
X92180313Y-56893328D01*
X92180313Y-58321900D02*
X92037455Y-58393328D01*
X92037455Y-58393328D02*
X91751741Y-58393328D01*
X91751741Y-58393328D02*
X91608884Y-58321900D01*
X91608884Y-58321900D02*
X91537455Y-58250471D01*
X91537455Y-58250471D02*
X91466027Y-58107614D01*
X91466027Y-58107614D02*
X91466027Y-57679042D01*
X91466027Y-57679042D02*
X91537455Y-57536185D01*
X91537455Y-57536185D02*
X91608884Y-57464757D01*
X91608884Y-57464757D02*
X91751741Y-57393328D01*
X91751741Y-57393328D02*
X92037455Y-57393328D01*
X92037455Y-57393328D02*
X92180313Y-57464757D01*
X94037455Y-57607614D02*
X94537455Y-57607614D01*
X94751741Y-58393328D02*
X94037455Y-58393328D01*
X94037455Y-58393328D02*
X94037455Y-56893328D01*
X94037455Y-56893328D02*
X94751741Y-56893328D01*
X95394598Y-58250471D02*
X95466027Y-58321900D01*
X95466027Y-58321900D02*
X95394598Y-58393328D01*
X95394598Y-58393328D02*
X95323170Y-58321900D01*
X95323170Y-58321900D02*
X95394598Y-58250471D01*
X95394598Y-58250471D02*
X95394598Y-58393328D01*
X96108884Y-58393328D02*
X96108884Y-56893328D01*
X96108884Y-56893328D02*
X96466027Y-56893328D01*
X96466027Y-56893328D02*
X96680313Y-56964757D01*
X96680313Y-56964757D02*
X96823170Y-57107614D01*
X96823170Y-57107614D02*
X96894599Y-57250471D01*
X96894599Y-57250471D02*
X96966027Y-57536185D01*
X96966027Y-57536185D02*
X96966027Y-57750471D01*
X96966027Y-57750471D02*
X96894599Y-58036185D01*
X96894599Y-58036185D02*
X96823170Y-58179042D01*
X96823170Y-58179042D02*
X96680313Y-58321900D01*
X96680313Y-58321900D02*
X96466027Y-58393328D01*
X96466027Y-58393328D02*
X96108884Y-58393328D01*
X97608884Y-58250471D02*
X97680313Y-58321900D01*
X97680313Y-58321900D02*
X97608884Y-58393328D01*
X97608884Y-58393328D02*
X97537456Y-58321900D01*
X97537456Y-58321900D02*
X97608884Y-58250471D01*
X97608884Y-58250471D02*
X97608884Y-58393328D01*
X98251742Y-57964757D02*
X98966028Y-57964757D01*
X98108885Y-58393328D02*
X98608885Y-56893328D01*
X98608885Y-56893328D02*
X99108885Y-58393328D01*
X99608884Y-58250471D02*
X99680313Y-58321900D01*
X99680313Y-58321900D02*
X99608884Y-58393328D01*
X99608884Y-58393328D02*
X99537456Y-58321900D01*
X99537456Y-58321900D02*
X99608884Y-58250471D01*
X99608884Y-58250471D02*
X99608884Y-58393328D01*
X101680313Y-57536185D02*
X101537456Y-57464757D01*
X101537456Y-57464757D02*
X101466027Y-57393328D01*
X101466027Y-57393328D02*
X101394599Y-57250471D01*
X101394599Y-57250471D02*
X101394599Y-57179042D01*
X101394599Y-57179042D02*
X101466027Y-57036185D01*
X101466027Y-57036185D02*
X101537456Y-56964757D01*
X101537456Y-56964757D02*
X101680313Y-56893328D01*
X101680313Y-56893328D02*
X101966027Y-56893328D01*
X101966027Y-56893328D02*
X102108885Y-56964757D01*
X102108885Y-56964757D02*
X102180313Y-57036185D01*
X102180313Y-57036185D02*
X102251742Y-57179042D01*
X102251742Y-57179042D02*
X102251742Y-57250471D01*
X102251742Y-57250471D02*
X102180313Y-57393328D01*
X102180313Y-57393328D02*
X102108885Y-57464757D01*
X102108885Y-57464757D02*
X101966027Y-57536185D01*
X101966027Y-57536185D02*
X101680313Y-57536185D01*
X101680313Y-57536185D02*
X101537456Y-57607614D01*
X101537456Y-57607614D02*
X101466027Y-57679042D01*
X101466027Y-57679042D02*
X101394599Y-57821900D01*
X101394599Y-57821900D02*
X101394599Y-58107614D01*
X101394599Y-58107614D02*
X101466027Y-58250471D01*
X101466027Y-58250471D02*
X101537456Y-58321900D01*
X101537456Y-58321900D02*
X101680313Y-58393328D01*
X101680313Y-58393328D02*
X101966027Y-58393328D01*
X101966027Y-58393328D02*
X102108885Y-58321900D01*
X102108885Y-58321900D02*
X102180313Y-58250471D01*
X102180313Y-58250471D02*
X102251742Y-58107614D01*
X102251742Y-58107614D02*
X102251742Y-57821900D01*
X102251742Y-57821900D02*
X102180313Y-57679042D01*
X102180313Y-57679042D02*
X102108885Y-57607614D01*
X102108885Y-57607614D02*
X101966027Y-57536185D01*
X102894598Y-58250471D02*
X102966027Y-58321900D01*
X102966027Y-58321900D02*
X102894598Y-58393328D01*
X102894598Y-58393328D02*
X102823170Y-58321900D01*
X102823170Y-58321900D02*
X102894598Y-58250471D01*
X102894598Y-58250471D02*
X102894598Y-58393328D01*
X103894599Y-56893328D02*
X104037456Y-56893328D01*
X104037456Y-56893328D02*
X104180313Y-56964757D01*
X104180313Y-56964757D02*
X104251742Y-57036185D01*
X104251742Y-57036185D02*
X104323170Y-57179042D01*
X104323170Y-57179042D02*
X104394599Y-57464757D01*
X104394599Y-57464757D02*
X104394599Y-57821900D01*
X104394599Y-57821900D02*
X104323170Y-58107614D01*
X104323170Y-58107614D02*
X104251742Y-58250471D01*
X104251742Y-58250471D02*
X104180313Y-58321900D01*
X104180313Y-58321900D02*
X104037456Y-58393328D01*
X104037456Y-58393328D02*
X103894599Y-58393328D01*
X103894599Y-58393328D02*
X103751742Y-58321900D01*
X103751742Y-58321900D02*
X103680313Y-58250471D01*
X103680313Y-58250471D02*
X103608884Y-58107614D01*
X103608884Y-58107614D02*
X103537456Y-57821900D01*
X103537456Y-57821900D02*
X103537456Y-57464757D01*
X103537456Y-57464757D02*
X103608884Y-57179042D01*
X103608884Y-57179042D02*
X103680313Y-57036185D01*
X103680313Y-57036185D02*
X103751742Y-56964757D01*
X103751742Y-56964757D02*
X103894599Y-56893328D01*
X105037455Y-58250471D02*
X105108884Y-58321900D01*
X105108884Y-58321900D02*
X105037455Y-58393328D01*
X105037455Y-58393328D02*
X104966027Y-58321900D01*
X104966027Y-58321900D02*
X105037455Y-58250471D01*
X105037455Y-58250471D02*
X105037455Y-58393328D01*
X106537456Y-58393328D02*
X105680313Y-58393328D01*
X106108884Y-58393328D02*
X106108884Y-56893328D01*
X106108884Y-56893328D02*
X105966027Y-57107614D01*
X105966027Y-57107614D02*
X105823170Y-57250471D01*
X105823170Y-57250471D02*
X105680313Y-57321900D01*
D10*
D11*
X85010200Y-53307200D02*
X193010200Y-53307200D01*
D10*
D12*
X172421853Y-55585528D02*
X171921853Y-54871242D01*
X171564710Y-55585528D02*
X171564710Y-54085528D01*
X171564710Y-54085528D02*
X172136139Y-54085528D01*
X172136139Y-54085528D02*
X172278996Y-54156957D01*
X172278996Y-54156957D02*
X172350425Y-54228385D01*
X172350425Y-54228385D02*
X172421853Y-54371242D01*
X172421853Y-54371242D02*
X172421853Y-54585528D01*
X172421853Y-54585528D02*
X172350425Y-54728385D01*
X172350425Y-54728385D02*
X172278996Y-54799814D01*
X172278996Y-54799814D02*
X172136139Y-54871242D01*
X172136139Y-54871242D02*
X171564710Y-54871242D01*
X173636139Y-55514100D02*
X173493282Y-55585528D01*
X173493282Y-55585528D02*
X173207568Y-55585528D01*
X173207568Y-55585528D02*
X173064710Y-55514100D01*
X173064710Y-55514100D02*
X172993282Y-55371242D01*
X172993282Y-55371242D02*
X172993282Y-54799814D01*
X172993282Y-54799814D02*
X173064710Y-54656957D01*
X173064710Y-54656957D02*
X173207568Y-54585528D01*
X173207568Y-54585528D02*
X173493282Y-54585528D01*
X173493282Y-54585528D02*
X173636139Y-54656957D01*
X173636139Y-54656957D02*
X173707568Y-54799814D01*
X173707568Y-54799814D02*
X173707568Y-54942671D01*
X173707568Y-54942671D02*
X172993282Y-55085528D01*
X174207567Y-54585528D02*
X174564710Y-55585528D01*
X174564710Y-55585528D02*
X174921853Y-54585528D01*
X175493281Y-55442671D02*
X175564710Y-55514100D01*
X175564710Y-55514100D02*
X175493281Y-55585528D01*
X175493281Y-55585528D02*
X175421853Y-55514100D01*
X175421853Y-55514100D02*
X175493281Y-55442671D01*
X175493281Y-55442671D02*
X175493281Y-55585528D01*
X175493281Y-54656957D02*
X175564710Y-54728385D01*
X175564710Y-54728385D02*
X175493281Y-54799814D01*
X175493281Y-54799814D02*
X175421853Y-54728385D01*
X175421853Y-54728385D02*
X175493281Y-54656957D01*
X175493281Y-54656957D02*
X175493281Y-54799814D01*
X177636139Y-54085528D02*
X177778996Y-54085528D01*
X177778996Y-54085528D02*
X177921853Y-54156957D01*
X177921853Y-54156957D02*
X177993282Y-54228385D01*
X177993282Y-54228385D02*
X178064710Y-54371242D01*
X178064710Y-54371242D02*
X178136139Y-54656957D01*
X178136139Y-54656957D02*
X178136139Y-55014100D01*
X178136139Y-55014100D02*
X178064710Y-55299814D01*
X178064710Y-55299814D02*
X177993282Y-55442671D01*
X177993282Y-55442671D02*
X177921853Y-55514100D01*
X177921853Y-55514100D02*
X177778996Y-55585528D01*
X177778996Y-55585528D02*
X177636139Y-55585528D01*
X177636139Y-55585528D02*
X177493282Y-55514100D01*
X177493282Y-55514100D02*
X177421853Y-55442671D01*
X177421853Y-55442671D02*
X177350424Y-55299814D01*
X177350424Y-55299814D02*
X177278996Y-55014100D01*
X177278996Y-55014100D02*
X177278996Y-54656957D01*
X177278996Y-54656957D02*
X177350424Y-54371242D01*
X177350424Y-54371242D02*
X177421853Y-54228385D01*
X177421853Y-54228385D02*
X177493282Y-54156957D01*
X177493282Y-54156957D02*
X177636139Y-54085528D01*
X178778995Y-55442671D02*
X178850424Y-55514100D01*
X178850424Y-55514100D02*
X178778995Y-55585528D01*
X178778995Y-55585528D02*
X178707567Y-55514100D01*
X178707567Y-55514100D02*
X178778995Y-55442671D01*
X178778995Y-55442671D02*
X178778995Y-55585528D01*
X179350424Y-54085528D02*
X180278996Y-54085528D01*
X180278996Y-54085528D02*
X179778996Y-54656957D01*
X179778996Y-54656957D02*
X179993281Y-54656957D01*
X179993281Y-54656957D02*
X180136139Y-54728385D01*
X180136139Y-54728385D02*
X180207567Y-54799814D01*
X180207567Y-54799814D02*
X180278996Y-54942671D01*
X180278996Y-54942671D02*
X180278996Y-55299814D01*
X180278996Y-55299814D02*
X180207567Y-55442671D01*
X180207567Y-55442671D02*
X180136139Y-55514100D01*
X180136139Y-55514100D02*
X179993281Y-55585528D01*
X179993281Y-55585528D02*
X179564710Y-55585528D01*
X179564710Y-55585528D02*
X179421853Y-55514100D01*
X179421853Y-55514100D02*
X179350424Y-55442671D01*
X181707567Y-55585528D02*
X180850424Y-55585528D01*
X181278995Y-55585528D02*
X181278995Y-54085528D01*
X181278995Y-54085528D02*
X181136138Y-54299814D01*
X181136138Y-54299814D02*
X180993281Y-54442671D01*
X180993281Y-54442671D02*
X180850424Y-54514100D01*
D10*
D11*
X86394598Y-55521900D02*
X86608884Y-55593328D01*
X86608884Y-55593328D02*
X86966026Y-55593328D01*
X86966026Y-55593328D02*
X87108884Y-55521900D01*
X87108884Y-55521900D02*
X87180312Y-55450471D01*
X87180312Y-55450471D02*
X87251741Y-55307614D01*
X87251741Y-55307614D02*
X87251741Y-55164757D01*
X87251741Y-55164757D02*
X87180312Y-55021900D01*
X87180312Y-55021900D02*
X87108884Y-54950471D01*
X87108884Y-54950471D02*
X86966026Y-54879042D01*
X86966026Y-54879042D02*
X86680312Y-54807614D01*
X86680312Y-54807614D02*
X86537455Y-54736185D01*
X86537455Y-54736185D02*
X86466026Y-54664757D01*
X86466026Y-54664757D02*
X86394598Y-54521900D01*
X86394598Y-54521900D02*
X86394598Y-54379042D01*
X86394598Y-54379042D02*
X86466026Y-54236185D01*
X86466026Y-54236185D02*
X86537455Y-54164757D01*
X86537455Y-54164757D02*
X86680312Y-54093328D01*
X86680312Y-54093328D02*
X87037455Y-54093328D01*
X87037455Y-54093328D02*
X87251741Y-54164757D01*
X87894597Y-55593328D02*
X87894597Y-54593328D01*
X87894597Y-54093328D02*
X87823169Y-54164757D01*
X87823169Y-54164757D02*
X87894597Y-54236185D01*
X87894597Y-54236185D02*
X87966026Y-54164757D01*
X87966026Y-54164757D02*
X87894597Y-54093328D01*
X87894597Y-54093328D02*
X87894597Y-54236185D01*
X88466026Y-54593328D02*
X89251741Y-54593328D01*
X89251741Y-54593328D02*
X88466026Y-55593328D01*
X88466026Y-55593328D02*
X89251741Y-55593328D01*
X90394598Y-55521900D02*
X90251741Y-55593328D01*
X90251741Y-55593328D02*
X89966027Y-55593328D01*
X89966027Y-55593328D02*
X89823169Y-55521900D01*
X89823169Y-55521900D02*
X89751741Y-55379042D01*
X89751741Y-55379042D02*
X89751741Y-54807614D01*
X89751741Y-54807614D02*
X89823169Y-54664757D01*
X89823169Y-54664757D02*
X89966027Y-54593328D01*
X89966027Y-54593328D02*
X90251741Y-54593328D01*
X90251741Y-54593328D02*
X90394598Y-54664757D01*
X90394598Y-54664757D02*
X90466027Y-54807614D01*
X90466027Y-54807614D02*
X90466027Y-54950471D01*
X90466027Y-54950471D02*
X89751741Y-55093328D01*
X91108883Y-55450471D02*
X91180312Y-55521900D01*
X91180312Y-55521900D02*
X91108883Y-55593328D01*
X91108883Y-55593328D02*
X91037455Y-55521900D01*
X91037455Y-55521900D02*
X91108883Y-55450471D01*
X91108883Y-55450471D02*
X91108883Y-55593328D01*
X91108883Y-54664757D02*
X91180312Y-54736185D01*
X91180312Y-54736185D02*
X91108883Y-54807614D01*
X91108883Y-54807614D02*
X91037455Y-54736185D01*
X91037455Y-54736185D02*
X91108883Y-54664757D01*
X91108883Y-54664757D02*
X91108883Y-54807614D01*
X92894598Y-55164757D02*
X93608884Y-55164757D01*
X92751741Y-55593328D02*
X93251741Y-54093328D01*
X93251741Y-54093328D02*
X93751741Y-55593328D01*
X94894598Y-54593328D02*
X94894598Y-55593328D01*
X94537455Y-54021900D02*
X94180312Y-55093328D01*
X94180312Y-55093328D02*
X95108883Y-55093328D01*
D10*
D11*
X171466026Y-58393328D02*
X171466026Y-56893328D01*
X172823170Y-58393328D02*
X172823170Y-56893328D01*
X172823170Y-58321900D02*
X172680312Y-58393328D01*
X172680312Y-58393328D02*
X172394598Y-58393328D01*
X172394598Y-58393328D02*
X172251741Y-58321900D01*
X172251741Y-58321900D02*
X172180312Y-58250471D01*
X172180312Y-58250471D02*
X172108884Y-58107614D01*
X172108884Y-58107614D02*
X172108884Y-57679042D01*
X172108884Y-57679042D02*
X172180312Y-57536185D01*
X172180312Y-57536185D02*
X172251741Y-57464757D01*
X172251741Y-57464757D02*
X172394598Y-57393328D01*
X172394598Y-57393328D02*
X172680312Y-57393328D01*
X172680312Y-57393328D02*
X172823170Y-57464757D01*
X173537455Y-58250471D02*
X173608884Y-58321900D01*
X173608884Y-58321900D02*
X173537455Y-58393328D01*
X173537455Y-58393328D02*
X173466027Y-58321900D01*
X173466027Y-58321900D02*
X173537455Y-58250471D01*
X173537455Y-58250471D02*
X173537455Y-58393328D01*
X173537455Y-57464757D02*
X173608884Y-57536185D01*
X173608884Y-57536185D02*
X173537455Y-57607614D01*
X173537455Y-57607614D02*
X173466027Y-57536185D01*
X173466027Y-57536185D02*
X173537455Y-57464757D01*
X173537455Y-57464757D02*
X173537455Y-57607614D01*
X176180313Y-58393328D02*
X175323170Y-58393328D01*
X175751741Y-58393328D02*
X175751741Y-56893328D01*
X175751741Y-56893328D02*
X175608884Y-57107614D01*
X175608884Y-57107614D02*
X175466027Y-57250471D01*
X175466027Y-57250471D02*
X175323170Y-57321900D01*
X177894598Y-56821900D02*
X176608884Y-58750471D01*
X179180313Y-58393328D02*
X178323170Y-58393328D01*
X178751741Y-58393328D02*
X178751741Y-56893328D01*
X178751741Y-56893328D02*
X178608884Y-57107614D01*
X178608884Y-57107614D02*
X178466027Y-57250471D01*
X178466027Y-57250471D02*
X178323170Y-57321900D01*
D10*
D11*
X85010200Y-49307200D02*
X193010200Y-49307200D01*
D10*
D13*
X86701928Y-50011638D02*
X87844785Y-50011638D01*
X87023357Y-52011638D02*
X87273357Y-50011638D01*
X88261452Y-52011638D02*
X88428119Y-50678304D01*
X88511452Y-50011638D02*
X88404309Y-50106876D01*
X88404309Y-50106876D02*
X88487643Y-50202114D01*
X88487643Y-50202114D02*
X88594786Y-50106876D01*
X88594786Y-50106876D02*
X88511452Y-50011638D01*
X88511452Y-50011638D02*
X88487643Y-50202114D01*
X89094786Y-50678304D02*
X89856690Y-50678304D01*
X89463833Y-50011638D02*
X89249548Y-51725923D01*
X89249548Y-51725923D02*
X89320976Y-51916400D01*
X89320976Y-51916400D02*
X89499548Y-52011638D01*
X89499548Y-52011638D02*
X89690024Y-52011638D01*
X90642405Y-52011638D02*
X90463833Y-51916400D01*
X90463833Y-51916400D02*
X90392405Y-51725923D01*
X90392405Y-51725923D02*
X90606690Y-50011638D01*
X92178119Y-51916400D02*
X91975738Y-52011638D01*
X91975738Y-52011638D02*
X91594785Y-52011638D01*
X91594785Y-52011638D02*
X91416214Y-51916400D01*
X91416214Y-51916400D02*
X91344785Y-51725923D01*
X91344785Y-51725923D02*
X91440024Y-50964019D01*
X91440024Y-50964019D02*
X91559071Y-50773542D01*
X91559071Y-50773542D02*
X91761452Y-50678304D01*
X91761452Y-50678304D02*
X92142404Y-50678304D01*
X92142404Y-50678304D02*
X92320976Y-50773542D01*
X92320976Y-50773542D02*
X92392404Y-50964019D01*
X92392404Y-50964019D02*
X92368595Y-51154495D01*
X92368595Y-51154495D02*
X91392404Y-51344971D01*
X93142405Y-51821161D02*
X93225738Y-51916400D01*
X93225738Y-51916400D02*
X93118595Y-52011638D01*
X93118595Y-52011638D02*
X93035262Y-51916400D01*
X93035262Y-51916400D02*
X93142405Y-51821161D01*
X93142405Y-51821161D02*
X93118595Y-52011638D01*
X93273357Y-50773542D02*
X93356690Y-50868780D01*
X93356690Y-50868780D02*
X93249548Y-50964019D01*
X93249548Y-50964019D02*
X93166214Y-50868780D01*
X93166214Y-50868780D02*
X93273357Y-50773542D01*
X93273357Y-50773542D02*
X93249548Y-50964019D01*
X96547167Y-52011638D02*
X95594786Y-52011638D01*
X95594786Y-52011638D02*
X95844786Y-50011638D01*
X98380501Y-51821161D02*
X98273358Y-51916400D01*
X98273358Y-51916400D02*
X97975739Y-52011638D01*
X97975739Y-52011638D02*
X97785263Y-52011638D01*
X97785263Y-52011638D02*
X97511453Y-51916400D01*
X97511453Y-51916400D02*
X97344787Y-51725923D01*
X97344787Y-51725923D02*
X97273358Y-51535447D01*
X97273358Y-51535447D02*
X97225739Y-51154495D01*
X97225739Y-51154495D02*
X97261453Y-50868780D01*
X97261453Y-50868780D02*
X97404310Y-50487828D01*
X97404310Y-50487828D02*
X97523358Y-50297352D01*
X97523358Y-50297352D02*
X97737644Y-50106876D01*
X97737644Y-50106876D02*
X98035263Y-50011638D01*
X98035263Y-50011638D02*
X98225739Y-50011638D01*
X98225739Y-50011638D02*
X98499549Y-50106876D01*
X98499549Y-50106876D02*
X98582882Y-50202114D01*
X100356691Y-52011638D02*
X99809072Y-51059257D01*
X99213834Y-52011638D02*
X99463834Y-50011638D01*
X99463834Y-50011638D02*
X100225739Y-50011638D01*
X100225739Y-50011638D02*
X100404310Y-50106876D01*
X100404310Y-50106876D02*
X100487644Y-50202114D01*
X100487644Y-50202114D02*
X100559072Y-50392590D01*
X100559072Y-50392590D02*
X100523358Y-50678304D01*
X100523358Y-50678304D02*
X100404310Y-50868780D01*
X100404310Y-50868780D02*
X100297168Y-50964019D01*
X100297168Y-50964019D02*
X100094787Y-51059257D01*
X100094787Y-51059257D02*
X99332882Y-51059257D01*
X101213834Y-52011638D02*
X101463834Y-50011638D01*
X101463834Y-50011638D02*
X101940025Y-50011638D01*
X101940025Y-50011638D02*
X102213834Y-50106876D01*
X102213834Y-50106876D02*
X102380501Y-50297352D01*
X102380501Y-50297352D02*
X102451929Y-50487828D01*
X102451929Y-50487828D02*
X102499549Y-50868780D01*
X102499549Y-50868780D02*
X102463834Y-51154495D01*
X102463834Y-51154495D02*
X102320977Y-51535447D01*
X102320977Y-51535447D02*
X102201929Y-51725923D01*
X102201929Y-51725923D02*
X101987644Y-51916400D01*
X101987644Y-51916400D02*
X101690025Y-52011638D01*
X101690025Y-52011638D02*
X101213834Y-52011638D01*
X103178120Y-50011638D02*
X104320977Y-50011638D01*
X103499549Y-52011638D02*
X103749549Y-50011638D01*
X104832882Y-51249733D02*
X106356692Y-51249733D01*
X107178120Y-50011638D02*
X108320977Y-50011638D01*
X107499549Y-52011638D02*
X107749549Y-50011638D01*
X109511454Y-51916400D02*
X109309073Y-52011638D01*
X109309073Y-52011638D02*
X108928120Y-52011638D01*
X108928120Y-52011638D02*
X108749549Y-51916400D01*
X108749549Y-51916400D02*
X108678120Y-51725923D01*
X108678120Y-51725923D02*
X108773359Y-50964019D01*
X108773359Y-50964019D02*
X108892406Y-50773542D01*
X108892406Y-50773542D02*
X109094787Y-50678304D01*
X109094787Y-50678304D02*
X109475739Y-50678304D01*
X109475739Y-50678304D02*
X109654311Y-50773542D01*
X109654311Y-50773542D02*
X109725739Y-50964019D01*
X109725739Y-50964019D02*
X109701930Y-51154495D01*
X109701930Y-51154495D02*
X108725739Y-51344971D01*
X110368597Y-51916400D02*
X110547168Y-52011638D01*
X110547168Y-52011638D02*
X110928121Y-52011638D01*
X110928121Y-52011638D02*
X111130502Y-51916400D01*
X111130502Y-51916400D02*
X111249549Y-51725923D01*
X111249549Y-51725923D02*
X111261454Y-51630685D01*
X111261454Y-51630685D02*
X111190025Y-51440209D01*
X111190025Y-51440209D02*
X111011454Y-51344971D01*
X111011454Y-51344971D02*
X110725740Y-51344971D01*
X110725740Y-51344971D02*
X110547168Y-51249733D01*
X110547168Y-51249733D02*
X110475740Y-51059257D01*
X110475740Y-51059257D02*
X110487645Y-50964019D01*
X110487645Y-50964019D02*
X110606692Y-50773542D01*
X110606692Y-50773542D02*
X110809073Y-50678304D01*
X110809073Y-50678304D02*
X111094787Y-50678304D01*
X111094787Y-50678304D02*
X111273359Y-50773542D01*
X111951931Y-50678304D02*
X112713835Y-50678304D01*
X112320978Y-50011638D02*
X112106693Y-51725923D01*
X112106693Y-51725923D02*
X112178121Y-51916400D01*
X112178121Y-51916400D02*
X112356693Y-52011638D01*
X112356693Y-52011638D02*
X112547169Y-52011638D01*
X113987645Y-51916400D02*
X113785264Y-52011638D01*
X113785264Y-52011638D02*
X113404311Y-52011638D01*
X113404311Y-52011638D02*
X113225740Y-51916400D01*
X113225740Y-51916400D02*
X113154311Y-51725923D01*
X113154311Y-51725923D02*
X113249550Y-50964019D01*
X113249550Y-50964019D02*
X113368597Y-50773542D01*
X113368597Y-50773542D02*
X113570978Y-50678304D01*
X113570978Y-50678304D02*
X113951930Y-50678304D01*
X113951930Y-50678304D02*
X114130502Y-50773542D01*
X114130502Y-50773542D02*
X114201930Y-50964019D01*
X114201930Y-50964019D02*
X114178121Y-51154495D01*
X114178121Y-51154495D02*
X113201930Y-51344971D01*
X114928121Y-52011638D02*
X115094788Y-50678304D01*
X115047169Y-51059257D02*
X115166216Y-50868780D01*
X115166216Y-50868780D02*
X115273359Y-50773542D01*
X115273359Y-50773542D02*
X115475740Y-50678304D01*
X115475740Y-50678304D02*
X115666216Y-50678304D01*
D10*
D11*
X86966026Y-47407614D02*
X86466026Y-47407614D01*
X86466026Y-48193328D02*
X86466026Y-46693328D01*
X86466026Y-46693328D02*
X87180312Y-46693328D01*
X87751740Y-48193328D02*
X87751740Y-47193328D01*
X87751740Y-46693328D02*
X87680312Y-46764757D01*
X87680312Y-46764757D02*
X87751740Y-46836185D01*
X87751740Y-46836185D02*
X87823169Y-46764757D01*
X87823169Y-46764757D02*
X87751740Y-46693328D01*
X87751740Y-46693328D02*
X87751740Y-46836185D01*
X88680312Y-48193328D02*
X88537455Y-48121900D01*
X88537455Y-48121900D02*
X88466026Y-47979042D01*
X88466026Y-47979042D02*
X88466026Y-46693328D01*
X89823169Y-48121900D02*
X89680312Y-48193328D01*
X89680312Y-48193328D02*
X89394598Y-48193328D01*
X89394598Y-48193328D02*
X89251740Y-48121900D01*
X89251740Y-48121900D02*
X89180312Y-47979042D01*
X89180312Y-47979042D02*
X89180312Y-47407614D01*
X89180312Y-47407614D02*
X89251740Y-47264757D01*
X89251740Y-47264757D02*
X89394598Y-47193328D01*
X89394598Y-47193328D02*
X89680312Y-47193328D01*
X89680312Y-47193328D02*
X89823169Y-47264757D01*
X89823169Y-47264757D02*
X89894598Y-47407614D01*
X89894598Y-47407614D02*
X89894598Y-47550471D01*
X89894598Y-47550471D02*
X89180312Y-47693328D01*
X90537454Y-48050471D02*
X90608883Y-48121900D01*
X90608883Y-48121900D02*
X90537454Y-48193328D01*
X90537454Y-48193328D02*
X90466026Y-48121900D01*
X90466026Y-48121900D02*
X90537454Y-48050471D01*
X90537454Y-48050471D02*
X90537454Y-48193328D01*
X90537454Y-47264757D02*
X90608883Y-47336185D01*
X90608883Y-47336185D02*
X90537454Y-47407614D01*
X90537454Y-47407614D02*
X90466026Y-47336185D01*
X90466026Y-47336185D02*
X90537454Y-47264757D01*
X90537454Y-47264757D02*
X90537454Y-47407614D01*
X93108883Y-48193328D02*
X92394597Y-48193328D01*
X92394597Y-48193328D02*
X92394597Y-46693328D01*
X94466026Y-48050471D02*
X94394598Y-48121900D01*
X94394598Y-48121900D02*
X94180312Y-48193328D01*
X94180312Y-48193328D02*
X94037455Y-48193328D01*
X94037455Y-48193328D02*
X93823169Y-48121900D01*
X93823169Y-48121900D02*
X93680312Y-47979042D01*
X93680312Y-47979042D02*
X93608883Y-47836185D01*
X93608883Y-47836185D02*
X93537455Y-47550471D01*
X93537455Y-47550471D02*
X93537455Y-47336185D01*
X93537455Y-47336185D02*
X93608883Y-47050471D01*
X93608883Y-47050471D02*
X93680312Y-46907614D01*
X93680312Y-46907614D02*
X93823169Y-46764757D01*
X93823169Y-46764757D02*
X94037455Y-46693328D01*
X94037455Y-46693328D02*
X94180312Y-46693328D01*
X94180312Y-46693328D02*
X94394598Y-46764757D01*
X94394598Y-46764757D02*
X94466026Y-46836185D01*
X95966026Y-48193328D02*
X95466026Y-47479042D01*
X95108883Y-48193328D02*
X95108883Y-46693328D01*
X95108883Y-46693328D02*
X95680312Y-46693328D01*
X95680312Y-46693328D02*
X95823169Y-46764757D01*
X95823169Y-46764757D02*
X95894598Y-46836185D01*
X95894598Y-46836185D02*
X95966026Y-46979042D01*
X95966026Y-46979042D02*
X95966026Y-47193328D01*
X95966026Y-47193328D02*
X95894598Y-47336185D01*
X95894598Y-47336185D02*
X95823169Y-47407614D01*
X95823169Y-47407614D02*
X95680312Y-47479042D01*
X95680312Y-47479042D02*
X95108883Y-47479042D01*
X96608883Y-48193328D02*
X96608883Y-46693328D01*
X96608883Y-46693328D02*
X96966026Y-46693328D01*
X96966026Y-46693328D02*
X97180312Y-46764757D01*
X97180312Y-46764757D02*
X97323169Y-46907614D01*
X97323169Y-46907614D02*
X97394598Y-47050471D01*
X97394598Y-47050471D02*
X97466026Y-47336185D01*
X97466026Y-47336185D02*
X97466026Y-47550471D01*
X97466026Y-47550471D02*
X97394598Y-47836185D01*
X97394598Y-47836185D02*
X97323169Y-47979042D01*
X97323169Y-47979042D02*
X97180312Y-48121900D01*
X97180312Y-48121900D02*
X96966026Y-48193328D01*
X96966026Y-48193328D02*
X96608883Y-48193328D01*
X97894598Y-46693328D02*
X98751741Y-46693328D01*
X98323169Y-48193328D02*
X98323169Y-46693328D01*
X99251740Y-47621900D02*
X100394598Y-47621900D01*
X100894598Y-46693328D02*
X101751741Y-46693328D01*
X101323169Y-48193328D02*
X101323169Y-46693328D01*
X102823169Y-48121900D02*
X102680312Y-48193328D01*
X102680312Y-48193328D02*
X102394598Y-48193328D01*
X102394598Y-48193328D02*
X102251740Y-48121900D01*
X102251740Y-48121900D02*
X102180312Y-47979042D01*
X102180312Y-47979042D02*
X102180312Y-47407614D01*
X102180312Y-47407614D02*
X102251740Y-47264757D01*
X102251740Y-47264757D02*
X102394598Y-47193328D01*
X102394598Y-47193328D02*
X102680312Y-47193328D01*
X102680312Y-47193328D02*
X102823169Y-47264757D01*
X102823169Y-47264757D02*
X102894598Y-47407614D01*
X102894598Y-47407614D02*
X102894598Y-47550471D01*
X102894598Y-47550471D02*
X102180312Y-47693328D01*
X103466026Y-48121900D02*
X103608883Y-48193328D01*
X103608883Y-48193328D02*
X103894597Y-48193328D01*
X103894597Y-48193328D02*
X104037454Y-48121900D01*
X104037454Y-48121900D02*
X104108883Y-47979042D01*
X104108883Y-47979042D02*
X104108883Y-47907614D01*
X104108883Y-47907614D02*
X104037454Y-47764757D01*
X104037454Y-47764757D02*
X103894597Y-47693328D01*
X103894597Y-47693328D02*
X103680312Y-47693328D01*
X103680312Y-47693328D02*
X103537454Y-47621900D01*
X103537454Y-47621900D02*
X103466026Y-47479042D01*
X103466026Y-47479042D02*
X103466026Y-47407614D01*
X103466026Y-47407614D02*
X103537454Y-47264757D01*
X103537454Y-47264757D02*
X103680312Y-47193328D01*
X103680312Y-47193328D02*
X103894597Y-47193328D01*
X103894597Y-47193328D02*
X104037454Y-47264757D01*
X104537455Y-47193328D02*
X105108883Y-47193328D01*
X104751740Y-46693328D02*
X104751740Y-47979042D01*
X104751740Y-47979042D02*
X104823169Y-48121900D01*
X104823169Y-48121900D02*
X104966026Y-48193328D01*
X104966026Y-48193328D02*
X105108883Y-48193328D01*
X106180312Y-48121900D02*
X106037455Y-48193328D01*
X106037455Y-48193328D02*
X105751741Y-48193328D01*
X105751741Y-48193328D02*
X105608883Y-48121900D01*
X105608883Y-48121900D02*
X105537455Y-47979042D01*
X105537455Y-47979042D02*
X105537455Y-47407614D01*
X105537455Y-47407614D02*
X105608883Y-47264757D01*
X105608883Y-47264757D02*
X105751741Y-47193328D01*
X105751741Y-47193328D02*
X106037455Y-47193328D01*
X106037455Y-47193328D02*
X106180312Y-47264757D01*
X106180312Y-47264757D02*
X106251741Y-47407614D01*
X106251741Y-47407614D02*
X106251741Y-47550471D01*
X106251741Y-47550471D02*
X105537455Y-47693328D01*
X106894597Y-48193328D02*
X106894597Y-47193328D01*
X106894597Y-47479042D02*
X106966026Y-47336185D01*
X106966026Y-47336185D02*
X107037455Y-47264757D01*
X107037455Y-47264757D02*
X107180312Y-47193328D01*
X107180312Y-47193328D02*
X107323169Y-47193328D01*
X107823168Y-48050471D02*
X107894597Y-48121900D01*
X107894597Y-48121900D02*
X107823168Y-48193328D01*
X107823168Y-48193328D02*
X107751740Y-48121900D01*
X107751740Y-48121900D02*
X107823168Y-48050471D01*
X107823168Y-48050471D02*
X107823168Y-48193328D01*
X108537454Y-48193328D02*
X108537454Y-46693328D01*
X108680312Y-47621900D02*
X109108883Y-48193328D01*
X109108883Y-47193328D02*
X108537454Y-47764757D01*
X109751740Y-48193328D02*
X109751740Y-47193328D01*
X109751740Y-46693328D02*
X109680312Y-46764757D01*
X109680312Y-46764757D02*
X109751740Y-46836185D01*
X109751740Y-46836185D02*
X109823169Y-46764757D01*
X109823169Y-46764757D02*
X109751740Y-46693328D01*
X109751740Y-46693328D02*
X109751740Y-46836185D01*
X111108884Y-48121900D02*
X110966026Y-48193328D01*
X110966026Y-48193328D02*
X110680312Y-48193328D01*
X110680312Y-48193328D02*
X110537455Y-48121900D01*
X110537455Y-48121900D02*
X110466026Y-48050471D01*
X110466026Y-48050471D02*
X110394598Y-47907614D01*
X110394598Y-47907614D02*
X110394598Y-47479042D01*
X110394598Y-47479042D02*
X110466026Y-47336185D01*
X110466026Y-47336185D02*
X110537455Y-47264757D01*
X110537455Y-47264757D02*
X110680312Y-47193328D01*
X110680312Y-47193328D02*
X110966026Y-47193328D01*
X110966026Y-47193328D02*
X111108884Y-47264757D01*
X112394598Y-48193328D02*
X112394598Y-47407614D01*
X112394598Y-47407614D02*
X112323169Y-47264757D01*
X112323169Y-47264757D02*
X112180312Y-47193328D01*
X112180312Y-47193328D02*
X111894598Y-47193328D01*
X111894598Y-47193328D02*
X111751740Y-47264757D01*
X112394598Y-48121900D02*
X112251740Y-48193328D01*
X112251740Y-48193328D02*
X111894598Y-48193328D01*
X111894598Y-48193328D02*
X111751740Y-48121900D01*
X111751740Y-48121900D02*
X111680312Y-47979042D01*
X111680312Y-47979042D02*
X111680312Y-47836185D01*
X111680312Y-47836185D02*
X111751740Y-47693328D01*
X111751740Y-47693328D02*
X111894598Y-47621900D01*
X111894598Y-47621900D02*
X112251740Y-47621900D01*
X112251740Y-47621900D02*
X112394598Y-47550471D01*
X113751741Y-48193328D02*
X113751741Y-46693328D01*
X113751741Y-48121900D02*
X113608883Y-48193328D01*
X113608883Y-48193328D02*
X113323169Y-48193328D01*
X113323169Y-48193328D02*
X113180312Y-48121900D01*
X113180312Y-48121900D02*
X113108883Y-48050471D01*
X113108883Y-48050471D02*
X113037455Y-47907614D01*
X113037455Y-47907614D02*
X113037455Y-47479042D01*
X113037455Y-47479042D02*
X113108883Y-47336185D01*
X113108883Y-47336185D02*
X113180312Y-47264757D01*
X113180312Y-47264757D02*
X113323169Y-47193328D01*
X113323169Y-47193328D02*
X113608883Y-47193328D01*
X113608883Y-47193328D02*
X113751741Y-47264757D01*
X114108884Y-48336185D02*
X115251741Y-48336185D01*
X115608883Y-47193328D02*
X115608883Y-48693328D01*
X115608883Y-47264757D02*
X115751741Y-47193328D01*
X115751741Y-47193328D02*
X116037455Y-47193328D01*
X116037455Y-47193328D02*
X116180312Y-47264757D01*
X116180312Y-47264757D02*
X116251741Y-47336185D01*
X116251741Y-47336185D02*
X116323169Y-47479042D01*
X116323169Y-47479042D02*
X116323169Y-47907614D01*
X116323169Y-47907614D02*
X116251741Y-48050471D01*
X116251741Y-48050471D02*
X116180312Y-48121900D01*
X116180312Y-48121900D02*
X116037455Y-48193328D01*
X116037455Y-48193328D02*
X115751741Y-48193328D01*
X115751741Y-48193328D02*
X115608883Y-48121900D01*
X117608884Y-48121900D02*
X117466026Y-48193328D01*
X117466026Y-48193328D02*
X117180312Y-48193328D01*
X117180312Y-48193328D02*
X117037455Y-48121900D01*
X117037455Y-48121900D02*
X116966026Y-48050471D01*
X116966026Y-48050471D02*
X116894598Y-47907614D01*
X116894598Y-47907614D02*
X116894598Y-47479042D01*
X116894598Y-47479042D02*
X116966026Y-47336185D01*
X116966026Y-47336185D02*
X117037455Y-47264757D01*
X117037455Y-47264757D02*
X117180312Y-47193328D01*
X117180312Y-47193328D02*
X117466026Y-47193328D01*
X117466026Y-47193328D02*
X117608884Y-47264757D01*
X118251740Y-48193328D02*
X118251740Y-46693328D01*
X118251740Y-47264757D02*
X118394598Y-47193328D01*
X118394598Y-47193328D02*
X118680312Y-47193328D01*
X118680312Y-47193328D02*
X118823169Y-47264757D01*
X118823169Y-47264757D02*
X118894598Y-47336185D01*
X118894598Y-47336185D02*
X118966026Y-47479042D01*
X118966026Y-47479042D02*
X118966026Y-47907614D01*
X118966026Y-47907614D02*
X118894598Y-48050471D01*
X118894598Y-48050471D02*
X118823169Y-48121900D01*
X118823169Y-48121900D02*
X118680312Y-48193328D01*
X118680312Y-48193328D02*
X118394598Y-48193328D01*
X118394598Y-48193328D02*
X118251740Y-48121900D01*
D10*
D11*
X85010200Y-43307200D02*
X193010200Y-43307200D01*
D10*
D11*
X86394598Y-45421900D02*
X86608884Y-45493328D01*
X86608884Y-45493328D02*
X86966026Y-45493328D01*
X86966026Y-45493328D02*
X87108884Y-45421900D01*
X87108884Y-45421900D02*
X87180312Y-45350471D01*
X87180312Y-45350471D02*
X87251741Y-45207614D01*
X87251741Y-45207614D02*
X87251741Y-45064757D01*
X87251741Y-45064757D02*
X87180312Y-44921900D01*
X87180312Y-44921900D02*
X87108884Y-44850471D01*
X87108884Y-44850471D02*
X86966026Y-44779042D01*
X86966026Y-44779042D02*
X86680312Y-44707614D01*
X86680312Y-44707614D02*
X86537455Y-44636185D01*
X86537455Y-44636185D02*
X86466026Y-44564757D01*
X86466026Y-44564757D02*
X86394598Y-44421900D01*
X86394598Y-44421900D02*
X86394598Y-44279042D01*
X86394598Y-44279042D02*
X86466026Y-44136185D01*
X86466026Y-44136185D02*
X86537455Y-44064757D01*
X86537455Y-44064757D02*
X86680312Y-43993328D01*
X86680312Y-43993328D02*
X87037455Y-43993328D01*
X87037455Y-43993328D02*
X87251741Y-44064757D01*
X87894597Y-45493328D02*
X87894597Y-43993328D01*
X88537455Y-45493328D02*
X88537455Y-44707614D01*
X88537455Y-44707614D02*
X88466026Y-44564757D01*
X88466026Y-44564757D02*
X88323169Y-44493328D01*
X88323169Y-44493328D02*
X88108883Y-44493328D01*
X88108883Y-44493328D02*
X87966026Y-44564757D01*
X87966026Y-44564757D02*
X87894597Y-44636185D01*
X89823169Y-45421900D02*
X89680312Y-45493328D01*
X89680312Y-45493328D02*
X89394598Y-45493328D01*
X89394598Y-45493328D02*
X89251740Y-45421900D01*
X89251740Y-45421900D02*
X89180312Y-45279042D01*
X89180312Y-45279042D02*
X89180312Y-44707614D01*
X89180312Y-44707614D02*
X89251740Y-44564757D01*
X89251740Y-44564757D02*
X89394598Y-44493328D01*
X89394598Y-44493328D02*
X89680312Y-44493328D01*
X89680312Y-44493328D02*
X89823169Y-44564757D01*
X89823169Y-44564757D02*
X89894598Y-44707614D01*
X89894598Y-44707614D02*
X89894598Y-44850471D01*
X89894598Y-44850471D02*
X89180312Y-44993328D01*
X91108883Y-45421900D02*
X90966026Y-45493328D01*
X90966026Y-45493328D02*
X90680312Y-45493328D01*
X90680312Y-45493328D02*
X90537454Y-45421900D01*
X90537454Y-45421900D02*
X90466026Y-45279042D01*
X90466026Y-45279042D02*
X90466026Y-44707614D01*
X90466026Y-44707614D02*
X90537454Y-44564757D01*
X90537454Y-44564757D02*
X90680312Y-44493328D01*
X90680312Y-44493328D02*
X90966026Y-44493328D01*
X90966026Y-44493328D02*
X91108883Y-44564757D01*
X91108883Y-44564757D02*
X91180312Y-44707614D01*
X91180312Y-44707614D02*
X91180312Y-44850471D01*
X91180312Y-44850471D02*
X90466026Y-44993328D01*
X91608883Y-44493328D02*
X92180311Y-44493328D01*
X91823168Y-43993328D02*
X91823168Y-45279042D01*
X91823168Y-45279042D02*
X91894597Y-45421900D01*
X91894597Y-45421900D02*
X92037454Y-45493328D01*
X92037454Y-45493328D02*
X92180311Y-45493328D01*
X92680311Y-45350471D02*
X92751740Y-45421900D01*
X92751740Y-45421900D02*
X92680311Y-45493328D01*
X92680311Y-45493328D02*
X92608883Y-45421900D01*
X92608883Y-45421900D02*
X92680311Y-45350471D01*
X92680311Y-45350471D02*
X92680311Y-45493328D01*
X92680311Y-44564757D02*
X92751740Y-44636185D01*
X92751740Y-44636185D02*
X92680311Y-44707614D01*
X92680311Y-44707614D02*
X92608883Y-44636185D01*
X92608883Y-44636185D02*
X92680311Y-44564757D01*
X92680311Y-44564757D02*
X92680311Y-44707614D01*
D10*
D12*
X86993282Y-43056957D02*
X86921853Y-42985528D01*
X86921853Y-42985528D02*
X86778996Y-42771242D01*
X86778996Y-42771242D02*
X86707568Y-42628385D01*
X86707568Y-42628385D02*
X86636139Y-42414100D01*
X86636139Y-42414100D02*
X86564710Y-42056957D01*
X86564710Y-42056957D02*
X86564710Y-41771242D01*
X86564710Y-41771242D02*
X86636139Y-41414100D01*
X86636139Y-41414100D02*
X86707568Y-41199814D01*
X86707568Y-41199814D02*
X86778996Y-41056957D01*
X86778996Y-41056957D02*
X86921853Y-40842671D01*
X86921853Y-40842671D02*
X86993282Y-40771242D01*
X88421853Y-42342671D02*
X88350425Y-42414100D01*
X88350425Y-42414100D02*
X88136139Y-42485528D01*
X88136139Y-42485528D02*
X87993282Y-42485528D01*
X87993282Y-42485528D02*
X87778996Y-42414100D01*
X87778996Y-42414100D02*
X87636139Y-42271242D01*
X87636139Y-42271242D02*
X87564710Y-42128385D01*
X87564710Y-42128385D02*
X87493282Y-41842671D01*
X87493282Y-41842671D02*
X87493282Y-41628385D01*
X87493282Y-41628385D02*
X87564710Y-41342671D01*
X87564710Y-41342671D02*
X87636139Y-41199814D01*
X87636139Y-41199814D02*
X87778996Y-41056957D01*
X87778996Y-41056957D02*
X87993282Y-40985528D01*
X87993282Y-40985528D02*
X88136139Y-40985528D01*
X88136139Y-40985528D02*
X88350425Y-41056957D01*
X88350425Y-41056957D02*
X88421853Y-41128385D01*
X88921853Y-43056957D02*
X88993282Y-42985528D01*
X88993282Y-42985528D02*
X89136139Y-42771242D01*
X89136139Y-42771242D02*
X89207568Y-42628385D01*
X89207568Y-42628385D02*
X89278996Y-42414100D01*
X89278996Y-42414100D02*
X89350425Y-42056957D01*
X89350425Y-42056957D02*
X89350425Y-41771242D01*
X89350425Y-41771242D02*
X89278996Y-41414100D01*
X89278996Y-41414100D02*
X89207568Y-41199814D01*
X89207568Y-41199814D02*
X89136139Y-41056957D01*
X89136139Y-41056957D02*
X88993282Y-40842671D01*
X88993282Y-40842671D02*
X88921853Y-40771242D01*
X91064710Y-40985528D02*
X91421853Y-42485528D01*
X91421853Y-42485528D02*
X91707567Y-41414100D01*
X91707567Y-41414100D02*
X91993282Y-42485528D01*
X91993282Y-42485528D02*
X92350425Y-40985528D01*
X93136139Y-42485528D02*
X92993282Y-42414100D01*
X92993282Y-42414100D02*
X92921853Y-42342671D01*
X92921853Y-42342671D02*
X92850425Y-42199814D01*
X92850425Y-42199814D02*
X92850425Y-41771242D01*
X92850425Y-41771242D02*
X92921853Y-41628385D01*
X92921853Y-41628385D02*
X92993282Y-41556957D01*
X92993282Y-41556957D02*
X93136139Y-41485528D01*
X93136139Y-41485528D02*
X93350425Y-41485528D01*
X93350425Y-41485528D02*
X93493282Y-41556957D01*
X93493282Y-41556957D02*
X93564711Y-41628385D01*
X93564711Y-41628385D02*
X93636139Y-41771242D01*
X93636139Y-41771242D02*
X93636139Y-42199814D01*
X93636139Y-42199814D02*
X93564711Y-42342671D01*
X93564711Y-42342671D02*
X93493282Y-42414100D01*
X93493282Y-42414100D02*
X93350425Y-42485528D01*
X93350425Y-42485528D02*
X93136139Y-42485528D01*
X94921854Y-42485528D02*
X94921854Y-40985528D01*
X94921854Y-42414100D02*
X94778996Y-42485528D01*
X94778996Y-42485528D02*
X94493282Y-42485528D01*
X94493282Y-42485528D02*
X94350425Y-42414100D01*
X94350425Y-42414100D02*
X94278996Y-42342671D01*
X94278996Y-42342671D02*
X94207568Y-42199814D01*
X94207568Y-42199814D02*
X94207568Y-41771242D01*
X94207568Y-41771242D02*
X94278996Y-41628385D01*
X94278996Y-41628385D02*
X94350425Y-41556957D01*
X94350425Y-41556957D02*
X94493282Y-41485528D01*
X94493282Y-41485528D02*
X94778996Y-41485528D01*
X94778996Y-41485528D02*
X94921854Y-41556957D01*
X95850425Y-42485528D02*
X95707568Y-42414100D01*
X95707568Y-42414100D02*
X95636139Y-42342671D01*
X95636139Y-42342671D02*
X95564711Y-42199814D01*
X95564711Y-42199814D02*
X95564711Y-41771242D01*
X95564711Y-41771242D02*
X95636139Y-41628385D01*
X95636139Y-41628385D02*
X95707568Y-41556957D01*
X95707568Y-41556957D02*
X95850425Y-41485528D01*
X95850425Y-41485528D02*
X96064711Y-41485528D01*
X96064711Y-41485528D02*
X96207568Y-41556957D01*
X96207568Y-41556957D02*
X96278997Y-41628385D01*
X96278997Y-41628385D02*
X96350425Y-41771242D01*
X96350425Y-41771242D02*
X96350425Y-42199814D01*
X96350425Y-42199814D02*
X96278997Y-42342671D01*
X96278997Y-42342671D02*
X96207568Y-42414100D01*
X96207568Y-42414100D02*
X96064711Y-42485528D01*
X96064711Y-42485528D02*
X95850425Y-42485528D01*
X96850425Y-40985528D02*
X97207568Y-42485528D01*
X97207568Y-42485528D02*
X97493282Y-41414100D01*
X97493282Y-41414100D02*
X97778997Y-42485528D01*
X97778997Y-42485528D02*
X98136140Y-40985528D01*
X98707568Y-42485528D02*
X98707568Y-41485528D01*
X98707568Y-40985528D02*
X98636140Y-41056957D01*
X98636140Y-41056957D02*
X98707568Y-41128385D01*
X98707568Y-41128385D02*
X98778997Y-41056957D01*
X98778997Y-41056957D02*
X98707568Y-40985528D01*
X98707568Y-40985528D02*
X98707568Y-41128385D01*
X99993283Y-42414100D02*
X99850426Y-42485528D01*
X99850426Y-42485528D02*
X99564712Y-42485528D01*
X99564712Y-42485528D02*
X99421854Y-42414100D01*
X99421854Y-42414100D02*
X99350426Y-42271242D01*
X99350426Y-42271242D02*
X99350426Y-41699814D01*
X99350426Y-41699814D02*
X99421854Y-41556957D01*
X99421854Y-41556957D02*
X99564712Y-41485528D01*
X99564712Y-41485528D02*
X99850426Y-41485528D01*
X99850426Y-41485528D02*
X99993283Y-41556957D01*
X99993283Y-41556957D02*
X100064712Y-41699814D01*
X100064712Y-41699814D02*
X100064712Y-41842671D01*
X100064712Y-41842671D02*
X99350426Y-41985528D01*
X100636140Y-42414100D02*
X100778997Y-42485528D01*
X100778997Y-42485528D02*
X101064711Y-42485528D01*
X101064711Y-42485528D02*
X101207568Y-42414100D01*
X101207568Y-42414100D02*
X101278997Y-42271242D01*
X101278997Y-42271242D02*
X101278997Y-42199814D01*
X101278997Y-42199814D02*
X101207568Y-42056957D01*
X101207568Y-42056957D02*
X101064711Y-41985528D01*
X101064711Y-41985528D02*
X100850426Y-41985528D01*
X100850426Y-41985528D02*
X100707568Y-41914100D01*
X100707568Y-41914100D02*
X100636140Y-41771242D01*
X100636140Y-41771242D02*
X100636140Y-41699814D01*
X100636140Y-41699814D02*
X100707568Y-41556957D01*
X100707568Y-41556957D02*
X100850426Y-41485528D01*
X100850426Y-41485528D02*
X101064711Y-41485528D01*
X101064711Y-41485528D02*
X101207568Y-41556957D01*
X102493283Y-42414100D02*
X102350426Y-42485528D01*
X102350426Y-42485528D02*
X102064712Y-42485528D01*
X102064712Y-42485528D02*
X101921854Y-42414100D01*
X101921854Y-42414100D02*
X101850426Y-42271242D01*
X101850426Y-42271242D02*
X101850426Y-41699814D01*
X101850426Y-41699814D02*
X101921854Y-41556957D01*
X101921854Y-41556957D02*
X102064712Y-41485528D01*
X102064712Y-41485528D02*
X102350426Y-41485528D01*
X102350426Y-41485528D02*
X102493283Y-41556957D01*
X102493283Y-41556957D02*
X102564712Y-41699814D01*
X102564712Y-41699814D02*
X102564712Y-41842671D01*
X102564712Y-41842671D02*
X101850426Y-41985528D01*
X103421854Y-42485528D02*
X103278997Y-42414100D01*
X103278997Y-42414100D02*
X103207568Y-42271242D01*
X103207568Y-42271242D02*
X103207568Y-40985528D01*
D10*
D11*
D10*
D11*
D10*
D11*
D10*
D11*
D10*
D11*
X105010200Y-53307200D02*
X105010200Y-56307200D01*
D10*
D11*
X169010200Y-53307200D02*
X169010200Y-59807200D01*
D14*
%TO.P,J1,1,Pin_1*%
%TO.N,Net-(A1-A2)*%
X4268500Y28580000D03*
D15*
%TO.P,J1,2,Pin_2*%
%TO.N,Net-(A1-A1)*%
X4268500Y31120000D03*
%TO.P,J1,3,Pin_3*%
%TO.N,Net-(A1-A0)*%
X4268500Y33660000D03*
%TD*%
D16*
%TO.P,R6,1*%
%TO.N,Net-(A1-D13)*%
X15748000Y43620000D03*
D17*
%TO.P,R6,2*%
%TO.N,Net-(A1-A2)*%
X23368000Y43620000D03*
%TD*%
D16*
%TO.P,R1,1*%
%TO.N,Net-(A1-A0)*%
X15804000Y27680000D03*
D17*
%TO.P,R1,2*%
%TO.N,Net-(A1-D8)*%
X23424000Y27680000D03*
%TD*%
D18*
%TO.P,C1,1*%
%TO.N,Net-(A1-AREF)*%
X4350000Y36900000D03*
%TO.P,C1,2*%
%TO.N,GND*%
X4350000Y41900000D03*
%TD*%
D16*
%TO.P,R3,1*%
%TO.N,Net-(A1-A1)*%
X15888500Y33310000D03*
D17*
%TO.P,R3,2*%
%TO.N,Net-(A1-D10)*%
X23508500Y33310000D03*
%TD*%
D16*
%TO.P,R5,1*%
%TO.N,Net-(A1-A2)*%
X15820000Y39890000D03*
D17*
%TO.P,R5,2*%
%TO.N,Net-(A1-D12)*%
X23440000Y39890000D03*
%TD*%
D19*
%TO.P,A1,1,D1/TX*%
%TO.N,unconnected-(A1-D1{slash}TX-Pad1)*%
X26388000Y5900000D03*
D20*
%TO.P,A1,2,D0/RX*%
%TO.N,unconnected-(A1-D0{slash}RX-Pad2)*%
X26388000Y8440000D03*
%TO.P,A1,3,~{RESET}*%
%TO.N,Net-(A1-~{RESET}-Pad28)*%
X26388000Y10980000D03*
%TO.P,A1,4,GND*%
%TO.N,GND*%
X26388000Y13520000D03*
%TO.P,A1,5,D2*%
%TO.N,unconnected-(A1-D2-Pad5)*%
X26388000Y16060000D03*
%TO.P,A1,6,D3*%
%TO.N,unconnected-(A1-D3-Pad6)*%
X26388000Y18600000D03*
%TO.P,A1,7,D4*%
%TO.N,unconnected-(A1-D4-Pad7)*%
X26388000Y21140000D03*
%TO.P,A1,8,D5*%
%TO.N,unconnected-(A1-D5-Pad8)*%
X26388000Y23680000D03*
%TO.P,A1,9,D6*%
%TO.N,unconnected-(A1-D6-Pad9)*%
X26388000Y26220000D03*
%TO.P,A1,10,D7*%
%TO.N,unconnected-(A1-D7-Pad10)*%
X26388000Y28760000D03*
%TO.P,A1,11,D8*%
%TO.N,Net-(A1-D8)*%
X26388000Y31300000D03*
%TO.P,A1,12,D9*%
%TO.N,Net-(A1-D9)*%
X26388000Y33840000D03*
%TO.P,A1,13,D10*%
%TO.N,Net-(A1-D10)*%
X26388000Y36380000D03*
%TO.P,A1,14,D11*%
%TO.N,Net-(A1-D11)*%
X26388000Y38920000D03*
%TO.P,A1,15,D12*%
%TO.N,Net-(A1-D12)*%
X26388000Y41460000D03*
%TO.P,A1,16,D13*%
%TO.N,Net-(A1-D13)*%
X11148000Y41460000D03*
%TO.P,A1,17,3V3*%
%TO.N,Net-(A1-3V3)*%
X11148000Y38920000D03*
%TO.P,A1,18,AREF*%
%TO.N,Net-(A1-AREF)*%
X11148000Y36380000D03*
%TO.P,A1,19,A0*%
%TO.N,Net-(A1-A0)*%
X11148000Y33840000D03*
%TO.P,A1,20,A1*%
%TO.N,Net-(A1-A1)*%
X11148000Y31300000D03*
%TO.P,A1,21,A2*%
%TO.N,Net-(A1-A2)*%
X11148000Y28760000D03*
%TO.P,A1,22,A3*%
%TO.N,Net-(A1-A3)*%
X11148000Y26220000D03*
%TO.P,A1,23,A4*%
%TO.N,Net-(A1-A4)*%
X11148000Y23680000D03*
%TO.P,A1,24,A5*%
%TO.N,Net-(A1-A5)*%
X11148000Y21140000D03*
%TO.P,A1,25,A6*%
%TO.N,unconnected-(A1-A6-Pad25)*%
X11148000Y18600000D03*
%TO.P,A1,26,A7*%
%TO.N,unconnected-(A1-A7-Pad26)*%
X11148000Y16060000D03*
%TO.P,A1,27,+5V*%
%TO.N,unconnected-(A1-+5V-Pad27)*%
X11148000Y13520000D03*
%TO.P,A1,28,~{RESET}*%
%TO.N,Net-(A1-~{RESET}-Pad28)*%
X11148000Y10980000D03*
%TO.P,A1,29,GND*%
%TO.N,GND*%
X11148000Y8440000D03*
%TO.P,A1,30,VIN*%
%TO.N,unconnected-(A1-VIN-Pad30)*%
X11148000Y5900000D03*
%TD*%
D21*
%TO.P,Start,1,1*%
%TO.N,Net-(A1-A3)*%
X6458000Y10100000D03*
X6458000Y3600000D03*
%TO.P,Start,2,2*%
%TO.N,GND*%
X1958000Y10100000D03*
X1958000Y3600000D03*
%TD*%
D14*
%TO.P,J2,1,Pin_1*%
%TO.N,GND*%
X4349000Y15850000D03*
D15*
%TO.P,J2,2,Pin_2*%
%TO.N,Net-(A1-3V3)*%
X4349000Y18390000D03*
%TO.P,J2,3,Pin_3*%
%TO.N,Net-(A1-A5)*%
X4349000Y20930000D03*
%TO.P,J2,4,Pin_4*%
%TO.N,Net-(A1-A4)*%
X4349000Y23470000D03*
%TD*%
D16*
%TO.P,R4,1*%
%TO.N,Net-(A1-D11)*%
X23424000Y36670000D03*
D17*
%TO.P,R4,2*%
%TO.N,Net-(A1-A1)*%
X15804000Y36670000D03*
%TD*%
D22*
%TO.P,REF9\u002A\u002A,1*%
%TO.N,GND*%
X3948000Y46430000D03*
%TD*%
D23*
%TO.P,Reset,1,1*%
%TO.N,Net-(A1-~{RESET}-Pad28)*%
X16088000Y47450000D03*
D24*
%TO.P,Reset,2,2*%
%TO.N,GND*%
X9588000Y47450000D03*
%TD*%
D16*
%TO.P,R2,1*%
%TO.N,Net-(A1-D9)*%
X23454500Y30560000D03*
D17*
%TO.P,R2,2*%
%TO.N,Net-(A1-A0)*%
X15834500Y30560000D03*
%TD*%
D25*
%TO.N,GND*%
X15230000Y24150000D03*
X28310000Y1150000D03*
X1790000Y1220000D03*
X28808000Y44690000D03*
%TD*%
%TA.AperFunction,Conductor*%
%TO.N,GND*%
G36*
X29942457Y50010224D02*
G01*
X30000622Y49991239D01*
X30036520Y49941691D01*
X30041325Y49911121D01*
X29989632Y128794D01*
X29970664Y70623D01*
X29921127Y34711D01*
X29890731Y29897D01*
X10497584Y10500D01*
X117613Y10500D01*
X59422Y29407D01*
X23458Y78907D01*
X18613Y109603D01*
X20833Y2247583D01*
X22237Y3600000D01*
X752859Y3600000D01*
X773379Y3378555D01*
X834239Y3164653D01*
X933366Y2965579D01*
X933375Y2965564D01*
X1040407Y2823832D01*
X1503606Y3287032D01*
X1517890Y3262292D01*
X1620292Y3159890D01*
X1645028Y3145609D01*
X1182544Y2683126D01*
X1182545Y2683124D01*
X1231736Y2638280D01*
X1420823Y2521203D01*
X1628200Y2440864D01*
X1846804Y2400000D01*
X2069196Y2400000D01*
X2287799Y2440864D01*
X2495176Y2521203D01*
X2684259Y2638278D01*
X2733453Y2683125D01*
X2270970Y3145608D01*
X2295708Y3159890D01*
X2398110Y3262292D01*
X2412392Y3287030D01*
X2875591Y2823831D01*
X2982624Y2965564D01*
X2982633Y2965579D01*
X3081760Y3164653D01*
X3142620Y3378555D01*
X3163140Y3600000D01*
X5252357Y3600000D01*
X5272885Y3378464D01*
X5333771Y3164472D01*
X5432942Y2965311D01*
X5567019Y2787764D01*
X5731438Y2637876D01*
X5920599Y2520753D01*
X6128060Y2440382D01*
X6346757Y2399500D01*
X6569243Y2399500D01*
X6787940Y2440382D01*
X6995401Y2520753D01*
X7184562Y2637876D01*
X7348981Y2787764D01*
X7483058Y2965311D01*
X7582229Y3164472D01*
X7612322Y3270238D01*
X10007500Y3270238D01*
X10035581Y3092937D01*
X10077050Y2965310D01*
X10091057Y2922200D01*
X10134049Y2837823D01*
X10172556Y2762249D01*
X10172558Y2762245D01*
X10278070Y2617020D01*
X10278072Y2617018D01*
X10278075Y2617014D01*
X10405014Y2490075D01*
X10405017Y2490073D01*
X10405019Y2490071D01*
X10550244Y2384559D01*
X10550248Y2384557D01*
X10710200Y2303057D01*
X10880932Y2247583D01*
X10880933Y2247583D01*
X10880936Y2247582D01*
X11058238Y2219500D01*
X11058241Y2219500D01*
X11237762Y2219500D01*
X11415063Y2247582D01*
X11415064Y2247583D01*
X11415068Y2247583D01*
X11585800Y2303057D01*
X11745752Y2384557D01*
X11766320Y2399500D01*
X11890980Y2490071D01*
X11890986Y2490075D01*
X12017925Y2617014D01*
X12123443Y2762248D01*
X12204943Y2922200D01*
X12260417Y3092932D01*
X12271748Y3164472D01*
X12288500Y3270238D01*
X25247500Y3270238D01*
X25275581Y3092937D01*
X25317050Y2965310D01*
X25331057Y2922200D01*
X25374049Y2837823D01*
X25412556Y2762249D01*
X25412558Y2762245D01*
X25518070Y2617020D01*
X25518072Y2617018D01*
X25518075Y2617014D01*
X25645014Y2490075D01*
X25645017Y2490073D01*
X25645019Y2490071D01*
X25790244Y2384559D01*
X25790248Y2384557D01*
X25950200Y2303057D01*
X26120932Y2247583D01*
X26120933Y2247583D01*
X26120936Y2247582D01*
X26298238Y2219500D01*
X26298241Y2219500D01*
X26477762Y2219500D01*
X26655063Y2247582D01*
X26655064Y2247583D01*
X26655068Y2247583D01*
X26825800Y2303057D01*
X26985752Y2384557D01*
X27006320Y2399500D01*
X27130980Y2490071D01*
X27130986Y2490075D01*
X27257925Y2617014D01*
X27363443Y2762248D01*
X27444943Y2922200D01*
X27500417Y3092932D01*
X27511748Y3164472D01*
X27528500Y3270238D01*
X27528500Y3449763D01*
X27500418Y3627064D01*
X27444944Y3797796D01*
X27444943Y3797800D01*
X27363443Y3957752D01*
X27363441Y3957756D01*
X27257929Y4102981D01*
X27257927Y4102983D01*
X27257925Y4102986D01*
X27130986Y4229925D01*
X27130982Y4229928D01*
X27130980Y4229930D01*
X26985755Y4335442D01*
X26985751Y4335444D01*
X26905819Y4376171D01*
X26825800Y4416943D01*
X26825797Y4416944D01*
X26825795Y4416945D01*
X26655063Y4472419D01*
X26477762Y4500500D01*
X26477759Y4500500D01*
X26298241Y4500500D01*
X26298238Y4500500D01*
X26120936Y4472419D01*
X25950204Y4416945D01*
X25790248Y4335444D01*
X25790244Y4335442D01*
X25645019Y4229930D01*
X25518070Y4102981D01*
X25412558Y3957756D01*
X25412556Y3957752D01*
X25331055Y3797796D01*
X25275581Y3627064D01*
X25247500Y3449763D01*
X25247500Y3270238D01*
X12288500Y3270238D01*
X12288500Y3449763D01*
X12260418Y3627064D01*
X12204944Y3797796D01*
X12204943Y3797800D01*
X12123443Y3957752D01*
X12123441Y3957756D01*
X12017929Y4102981D01*
X12017927Y4102983D01*
X12017925Y4102986D01*
X11890986Y4229925D01*
X11890982Y4229928D01*
X11890980Y4229930D01*
X11745755Y4335442D01*
X11745751Y4335444D01*
X11665819Y4376171D01*
X11585800Y4416943D01*
X11585797Y4416944D01*
X11585795Y4416945D01*
X11415063Y4472419D01*
X11237762Y4500500D01*
X11237759Y4500500D01*
X11058241Y4500500D01*
X11058238Y4500500D01*
X10880936Y4472419D01*
X10710204Y4416945D01*
X10550248Y4335444D01*
X10550244Y4335442D01*
X10405019Y4229930D01*
X10278070Y4102981D01*
X10172558Y3957756D01*
X10172556Y3957752D01*
X10091055Y3797796D01*
X10035581Y3627064D01*
X10007500Y3449763D01*
X10007500Y3270238D01*
X7612322Y3270238D01*
X7643115Y3378464D01*
X7663643Y3600000D01*
X7643115Y3821536D01*
X7582229Y4035528D01*
X7483058Y4234689D01*
X7348981Y4412236D01*
X7184562Y4562124D01*
X6995401Y4679247D01*
X6787940Y4759618D01*
X6787939Y4759619D01*
X6787937Y4759619D01*
X6569243Y4800500D01*
X6346757Y4800500D01*
X6128062Y4759619D01*
X6126818Y4759137D01*
X5920599Y4679247D01*
X5731438Y4562124D01*
X5567020Y4412237D01*
X5432943Y4234691D01*
X5432938Y4234682D01*
X5333772Y4035531D01*
X5333771Y4035528D01*
X5272885Y3821536D01*
X5252357Y3600000D01*
X3163140Y3600000D01*
X3142620Y3821446D01*
X3081760Y4035348D01*
X2982633Y4234422D01*
X2982624Y4234437D01*
X2875590Y4376171D01*
X2412391Y3912972D01*
X2398110Y3937708D01*
X2295708Y4040110D01*
X2270968Y4054393D01*
X2733453Y4516877D01*
X2684260Y4561723D01*
X2495176Y4678798D01*
X2287799Y4759137D01*
X2069196Y4800000D01*
X1846804Y4800000D01*
X1628200Y4759137D01*
X1420821Y4678798D01*
X1420816Y4678795D01*
X1231742Y4561725D01*
X1231739Y4561723D01*
X1182545Y4516877D01*
X1645029Y4054393D01*
X1620292Y4040110D01*
X1517890Y3937708D01*
X1503607Y3912971D01*
X1040409Y4376169D01*
X933369Y4234427D01*
X933364Y4234418D01*
X834239Y4035348D01*
X773379Y3821446D01*
X752859Y3600000D01*
X22237Y3600000D01*
X24625Y5899997D01*
X10142659Y5899997D01*
X10161974Y5703874D01*
X10161975Y5703871D01*
X10219187Y5515270D01*
X10219188Y5515268D01*
X10290218Y5382382D01*
X10312090Y5341462D01*
X10312092Y5341460D01*
X10312093Y5341458D01*
X10437112Y5189122D01*
X10437121Y5189113D01*
X10569781Y5080242D01*
X10589462Y5064090D01*
X10763273Y4971186D01*
X10951868Y4913976D01*
X10951870Y4913976D01*
X10951873Y4913975D01*
X11147997Y4894659D01*
X11148000Y4894659D01*
X11148003Y4894659D01*
X11344126Y4913975D01*
X11344127Y4913976D01*
X11344132Y4913976D01*
X11532727Y4971186D01*
X11706538Y5064090D01*
X11726234Y5080254D01*
X25387500Y5080254D01*
X25387501Y5080242D01*
X25399132Y5021773D01*
X25399134Y5021767D01*
X25432932Y4971186D01*
X25443448Y4955448D01*
X25509769Y4911133D01*
X25554231Y4902289D01*
X25568241Y4899502D01*
X25568246Y4899502D01*
X25568252Y4899500D01*
X25568253Y4899500D01*
X27207747Y4899500D01*
X27207748Y4899500D01*
X27266231Y4911133D01*
X27332552Y4955448D01*
X27376867Y5021769D01*
X27388500Y5080252D01*
X27388500Y6719748D01*
X27376867Y6778231D01*
X27332552Y6844552D01*
X27270486Y6886024D01*
X27266233Y6888866D01*
X27266231Y6888867D01*
X27266228Y6888868D01*
X27266227Y6888868D01*
X27207758Y6900499D01*
X27207748Y6900500D01*
X25568252Y6900500D01*
X25568251Y6900500D01*
X25568241Y6900499D01*
X25509772Y6888868D01*
X25509766Y6888866D01*
X25443451Y6844555D01*
X25443445Y6844549D01*
X25399134Y6778234D01*
X25399132Y6778228D01*
X25387501Y6719759D01*
X25387500Y6719747D01*
X25387500Y5080254D01*
X11726234Y5080254D01*
X11858883Y5189117D01*
X11983910Y5341462D01*
X12076814Y5515273D01*
X12134024Y5703868D01*
X12153341Y5900000D01*
X12153341Y5900004D01*
X12134025Y6096127D01*
X12134024Y6096130D01*
X12134024Y6096132D01*
X12076814Y6284727D01*
X11983910Y6458538D01*
X11983906Y6458543D01*
X11858887Y6610879D01*
X11858878Y6610888D01*
X11706542Y6735907D01*
X11706540Y6735908D01*
X11706538Y6735910D01*
X11627361Y6778231D01*
X11532732Y6828812D01*
X11532730Y6828813D01*
X11344129Y6886025D01*
X11344126Y6886026D01*
X11148003Y6905341D01*
X11147997Y6905341D01*
X10951873Y6886026D01*
X10951870Y6886025D01*
X10763269Y6828813D01*
X10763267Y6828812D01*
X10589467Y6735913D01*
X10589457Y6735907D01*
X10437121Y6610888D01*
X10437112Y6610879D01*
X10312093Y6458543D01*
X10312087Y6458533D01*
X10219188Y6284733D01*
X10219187Y6284731D01*
X10161975Y6096130D01*
X10161974Y6096127D01*
X10142659Y5900004D01*
X10142659Y5899997D01*
X24625Y5899997D01*
X27159Y8340000D01*
X10153009Y8340000D01*
X10162467Y8243972D01*
X10162468Y8243966D01*
X10219650Y8055465D01*
X10219652Y8055460D01*
X10312502Y7881748D01*
X10312506Y7881742D01*
X10437468Y7729477D01*
X10437476Y7729469D01*
X10589741Y7604507D01*
X10589747Y7604503D01*
X10763459Y7511653D01*
X10763464Y7511651D01*
X10951968Y7454469D01*
X11047999Y7445011D01*
X11048000Y7445012D01*
X11048000Y7949158D01*
X11082174Y7940000D01*
X11213826Y7940000D01*
X11248000Y7949158D01*
X11248000Y7445011D01*
X11344031Y7454469D01*
X11532535Y7511651D01*
X11532540Y7511653D01*
X11706252Y7604503D01*
X11706258Y7604507D01*
X11858523Y7729469D01*
X11858531Y7729477D01*
X11983493Y7881742D01*
X11983497Y7881748D01*
X12076347Y8055460D01*
X12076349Y8055465D01*
X12133531Y8243966D01*
X12133532Y8243972D01*
X12142991Y8340000D01*
X11638843Y8340000D01*
X11648000Y8374174D01*
X11648000Y8439997D01*
X25382659Y8439997D01*
X25401974Y8243874D01*
X25401975Y8243871D01*
X25459187Y8055270D01*
X25459188Y8055268D01*
X25502587Y7974075D01*
X25552090Y7881462D01*
X25552092Y7881460D01*
X25552093Y7881458D01*
X25677112Y7729122D01*
X25677121Y7729113D01*
X25828954Y7604507D01*
X25829462Y7604090D01*
X26003273Y7511186D01*
X26191868Y7453976D01*
X26191870Y7453976D01*
X26191873Y7453975D01*
X26387997Y7434659D01*
X26388000Y7434659D01*
X26388003Y7434659D01*
X26584126Y7453975D01*
X26584127Y7453976D01*
X26584132Y7453976D01*
X26772727Y7511186D01*
X26946538Y7604090D01*
X27098883Y7729117D01*
X27223910Y7881462D01*
X27316814Y8055273D01*
X27374024Y8243868D01*
X27374035Y8243972D01*
X27393341Y8439997D01*
X27393341Y8440004D01*
X27374025Y8636127D01*
X27374024Y8636130D01*
X27374024Y8636132D01*
X27316814Y8824727D01*
X27308597Y8840099D01*
X27224062Y8998253D01*
X27223910Y8998538D01*
X27109228Y9138278D01*
X27098887Y9150879D01*
X27098878Y9150888D01*
X26946542Y9275907D01*
X26946540Y9275908D01*
X26946538Y9275910D01*
X26905618Y9297782D01*
X26772732Y9368812D01*
X26772730Y9368813D01*
X26584129Y9426025D01*
X26584126Y9426026D01*
X26388003Y9445341D01*
X26387997Y9445341D01*
X26191873Y9426026D01*
X26191870Y9426025D01*
X26003269Y9368813D01*
X26003267Y9368812D01*
X25829467Y9275913D01*
X25829457Y9275907D01*
X25677121Y9150888D01*
X25677112Y9150879D01*
X25552093Y8998543D01*
X25552087Y8998533D01*
X25459188Y8824733D01*
X25459187Y8824731D01*
X25401975Y8636130D01*
X25401974Y8636127D01*
X25382659Y8440004D01*
X25382659Y8439997D01*
X11648000Y8439997D01*
X11648000Y8505826D01*
X11638843Y8540000D01*
X12142990Y8540000D01*
X12142990Y8540001D01*
X12133532Y8636029D01*
X12133531Y8636035D01*
X12076349Y8824536D01*
X12076347Y8824541D01*
X11983497Y8998253D01*
X11983493Y8998259D01*
X11858531Y9150524D01*
X11858523Y9150532D01*
X11706258Y9275494D01*
X11706252Y9275498D01*
X11532540Y9368348D01*
X11532535Y9368350D01*
X11344034Y9425532D01*
X11344028Y9425533D01*
X11248000Y9434991D01*
X11248000Y8930843D01*
X11213826Y8940000D01*
X11082174Y8940000D01*
X11048000Y8930843D01*
X11048000Y9434991D01*
X11047999Y9434991D01*
X10951971Y9425533D01*
X10951965Y9425532D01*
X10763464Y9368350D01*
X10763459Y9368348D01*
X10589747Y9275498D01*
X10589741Y9275494D01*
X10437476Y9150532D01*
X10437468Y9150524D01*
X10312506Y8998259D01*
X10312502Y8998253D01*
X10219652Y8824541D01*
X10219650Y8824536D01*
X10162468Y8636035D01*
X10162467Y8636029D01*
X10153009Y8540001D01*
X10153010Y8540000D01*
X10657157Y8540000D01*
X10648000Y8505826D01*
X10648000Y8374174D01*
X10657157Y8340000D01*
X10153009Y8340000D01*
X27159Y8340000D01*
X28987Y10100000D01*
X752859Y10100000D01*
X773379Y9878555D01*
X834239Y9664653D01*
X933366Y9465579D01*
X933375Y9465564D01*
X1040407Y9323832D01*
X1503606Y9787032D01*
X1517890Y9762292D01*
X1620292Y9659890D01*
X1645028Y9645609D01*
X1182544Y9183126D01*
X1182545Y9183124D01*
X1231736Y9138280D01*
X1420823Y9021203D01*
X1628200Y8940864D01*
X1846804Y8900000D01*
X2069196Y8900000D01*
X2287799Y8940864D01*
X2495176Y9021203D01*
X2684259Y9138278D01*
X2733453Y9183125D01*
X2270970Y9645608D01*
X2295708Y9659890D01*
X2398110Y9762292D01*
X2412392Y9787030D01*
X2875591Y9323831D01*
X2982624Y9465564D01*
X2982633Y9465579D01*
X3081760Y9664653D01*
X3142620Y9878555D01*
X3163140Y10100000D01*
X5252357Y10100000D01*
X5272885Y9878464D01*
X5333771Y9664472D01*
X5432942Y9465311D01*
X5567019Y9287764D01*
X5731438Y9137876D01*
X5920599Y9020753D01*
X6128060Y8940382D01*
X6346757Y8899500D01*
X6569243Y8899500D01*
X6787940Y8940382D01*
X6995401Y9020753D01*
X7184562Y9137876D01*
X7348981Y9287764D01*
X7483058Y9465311D01*
X7582229Y9664472D01*
X7643115Y9878464D01*
X7663643Y10100000D01*
X7643115Y10321536D01*
X7582229Y10535528D01*
X7483058Y10734689D01*
X7348981Y10912236D01*
X7274651Y10979997D01*
X10142659Y10979997D01*
X10161974Y10783874D01*
X10161975Y10783871D01*
X10219187Y10595270D01*
X10219188Y10595268D01*
X10290218Y10462382D01*
X10312090Y10421462D01*
X10312092Y10421460D01*
X10312093Y10421458D01*
X10437112Y10269122D01*
X10437121Y10269113D01*
X10554955Y10172409D01*
X10589462Y10144090D01*
X10763273Y10051186D01*
X10951868Y9993976D01*
X10951870Y9993976D01*
X10951873Y9993975D01*
X11147997Y9974659D01*
X11148000Y9974659D01*
X11148003Y9974659D01*
X11344126Y9993975D01*
X11344127Y9993976D01*
X11344132Y9993976D01*
X11532727Y10051186D01*
X11706538Y10144090D01*
X11858883Y10269117D01*
X11983910Y10421462D01*
X12076814Y10595273D01*
X12134024Y10783868D01*
X12153341Y10979997D01*
X25382659Y10979997D01*
X25401974Y10783874D01*
X25401975Y10783871D01*
X25459187Y10595270D01*
X25459188Y10595268D01*
X25530218Y10462382D01*
X25552090Y10421462D01*
X25552092Y10421460D01*
X25552093Y10421458D01*
X25677112Y10269122D01*
X25677121Y10269113D01*
X25794955Y10172409D01*
X25829462Y10144090D01*
X26003273Y10051186D01*
X26191868Y9993976D01*
X26191870Y9993976D01*
X26191873Y9993975D01*
X26387997Y9974659D01*
X26388000Y9974659D01*
X26388003Y9974659D01*
X26584126Y9993975D01*
X26584127Y9993976D01*
X26584132Y9993976D01*
X26772727Y10051186D01*
X26946538Y10144090D01*
X27098883Y10269117D01*
X27223910Y10421462D01*
X27316814Y10595273D01*
X27374024Y10783868D01*
X27393341Y10980000D01*
X27389709Y11016877D01*
X27374025Y11176127D01*
X27374024Y11176130D01*
X27374024Y11176132D01*
X27316814Y11364727D01*
X27223910Y11538538D01*
X27223906Y11538543D01*
X27098887Y11690879D01*
X27098878Y11690888D01*
X26946542Y11815907D01*
X26946540Y11815908D01*
X26946538Y11815910D01*
X26905618Y11837782D01*
X26772732Y11908812D01*
X26772730Y11908813D01*
X26584129Y11966025D01*
X26584126Y11966026D01*
X26388003Y11985341D01*
X26387997Y11985341D01*
X26191873Y11966026D01*
X26191870Y11966025D01*
X26003269Y11908813D01*
X26003267Y11908812D01*
X25829467Y11815913D01*
X25829457Y11815907D01*
X25677121Y11690888D01*
X25677112Y11690879D01*
X25552093Y11538543D01*
X25552087Y11538533D01*
X25459188Y11364733D01*
X25459187Y11364731D01*
X25401975Y11176130D01*
X25401974Y11176127D01*
X25382659Y10980004D01*
X25382659Y10979997D01*
X12153341Y10979997D01*
X12153341Y10980000D01*
X12149709Y11016877D01*
X12134025Y11176127D01*
X12134024Y11176130D01*
X12134024Y11176132D01*
X12076814Y11364727D01*
X11983910Y11538538D01*
X11983906Y11538543D01*
X11858887Y11690879D01*
X11858878Y11690888D01*
X11706542Y11815907D01*
X11706540Y11815908D01*
X11706538Y11815910D01*
X11665618Y11837782D01*
X11532732Y11908812D01*
X11532730Y11908813D01*
X11344129Y11966025D01*
X11344126Y11966026D01*
X11148003Y11985341D01*
X11147997Y11985341D01*
X10951873Y11966026D01*
X10951870Y11966025D01*
X10763269Y11908813D01*
X10763267Y11908812D01*
X10589467Y11815913D01*
X10589457Y11815907D01*
X10437121Y11690888D01*
X10437112Y11690879D01*
X10312093Y11538543D01*
X10312087Y11538533D01*
X10219188Y11364733D01*
X10219187Y11364731D01*
X10161975Y11176130D01*
X10161974Y11176127D01*
X10142659Y10980004D01*
X10142659Y10979997D01*
X7274651Y10979997D01*
X7184562Y11062124D01*
X6995401Y11179247D01*
X6787940Y11259618D01*
X6787939Y11259619D01*
X6787937Y11259619D01*
X6569243Y11300500D01*
X6346757Y11300500D01*
X6128062Y11259619D01*
X6126818Y11259137D01*
X5920599Y11179247D01*
X5731438Y11062124D01*
X5567020Y10912237D01*
X5432943Y10734691D01*
X5432938Y10734682D01*
X5333772Y10535531D01*
X5333771Y10535528D01*
X5272885Y10321536D01*
X5252357Y10100000D01*
X3163140Y10100000D01*
X3142620Y10321446D01*
X3081760Y10535348D01*
X2982633Y10734422D01*
X2982624Y10734437D01*
X2875590Y10876171D01*
X2412391Y10412972D01*
X2398110Y10437708D01*
X2295708Y10540110D01*
X2270968Y10554393D01*
X2733453Y11016877D01*
X2684260Y11061723D01*
X2495176Y11178798D01*
X2287799Y11259137D01*
X2069196Y11300000D01*
X1846804Y11300000D01*
X1628200Y11259137D01*
X1420821Y11178798D01*
X1420816Y11178795D01*
X1231742Y11061725D01*
X1231739Y11061723D01*
X1182545Y11016877D01*
X1645029Y10554393D01*
X1620292Y10540110D01*
X1517890Y10437708D01*
X1503607Y10412971D01*
X1040409Y10876169D01*
X933369Y10734427D01*
X933364Y10734418D01*
X834239Y10535348D01*
X773379Y10321446D01*
X752859Y10100000D01*
X28987Y10100000D01*
X32538Y13519997D01*
X10142659Y13519997D01*
X10161974Y13323874D01*
X10161975Y13323871D01*
X10219187Y13135270D01*
X10219188Y13135268D01*
X10262587Y13054075D01*
X10312090Y12961462D01*
X10312092Y12961460D01*
X10312093Y12961458D01*
X10437112Y12809122D01*
X10437121Y12809113D01*
X10588954Y12684507D01*
X10589462Y12684090D01*
X10763273Y12591186D01*
X10951868Y12533976D01*
X10951870Y12533976D01*
X10951873Y12533975D01*
X11147997Y12514659D01*
X11148000Y12514659D01*
X11148003Y12514659D01*
X11344126Y12533975D01*
X11344127Y12533976D01*
X11344132Y12533976D01*
X11532727Y12591186D01*
X11706538Y12684090D01*
X11858883Y12809117D01*
X11983910Y12961462D01*
X12076814Y13135273D01*
X12134024Y13323868D01*
X12134035Y13323972D01*
X12143493Y13420000D01*
X25393009Y13420000D01*
X25402467Y13323972D01*
X25402468Y13323966D01*
X25459650Y13135465D01*
X25459652Y13135460D01*
X25552502Y12961748D01*
X25552506Y12961742D01*
X25677468Y12809477D01*
X25677476Y12809469D01*
X25829741Y12684507D01*
X25829747Y12684503D01*
X26003459Y12591653D01*
X26003464Y12591651D01*
X26191968Y12534469D01*
X26287999Y12525011D01*
X26288000Y12525012D01*
X26288000Y13029158D01*
X26322174Y13020000D01*
X26453826Y13020000D01*
X26488000Y13029158D01*
X26488000Y12525011D01*
X26584031Y12534469D01*
X26772535Y12591651D01*
X26772540Y12591653D01*
X26946252Y12684503D01*
X26946258Y12684507D01*
X27098523Y12809469D01*
X27098531Y12809477D01*
X27223493Y12961742D01*
X27223497Y12961748D01*
X27316347Y13135460D01*
X27316349Y13135465D01*
X27373531Y13323966D01*
X27373532Y13323972D01*
X27382991Y13420000D01*
X26878843Y13420000D01*
X26888000Y13454174D01*
X26888000Y13585826D01*
X26878843Y13620000D01*
X27382990Y13620000D01*
X27382990Y13620001D01*
X27373532Y13716029D01*
X27373531Y13716035D01*
X27316349Y13904536D01*
X27316347Y13904541D01*
X27223497Y14078253D01*
X27223493Y14078259D01*
X27098531Y14230524D01*
X27098523Y14230532D01*
X26946258Y14355494D01*
X26946252Y14355498D01*
X26772540Y14448348D01*
X26772535Y14448350D01*
X26584034Y14505532D01*
X26584028Y14505533D01*
X26488000Y14514991D01*
X26488000Y14010843D01*
X26453826Y14020000D01*
X26322174Y14020000D01*
X26288000Y14010843D01*
X26288000Y14514991D01*
X26287999Y14514991D01*
X26191971Y14505533D01*
X26191965Y14505532D01*
X26003464Y14448350D01*
X26003459Y14448348D01*
X25829747Y14355498D01*
X25829741Y14355494D01*
X25677476Y14230532D01*
X25677468Y14230524D01*
X25552506Y14078259D01*
X25552502Y14078253D01*
X25459652Y13904541D01*
X25459650Y13904536D01*
X25402468Y13716035D01*
X25402467Y13716029D01*
X25393009Y13620001D01*
X25393010Y13620000D01*
X25897157Y13620000D01*
X25888000Y13585826D01*
X25888000Y13454174D01*
X25897157Y13420000D01*
X25393009Y13420000D01*
X12143493Y13420000D01*
X12153341Y13519997D01*
X12153341Y13520004D01*
X12134025Y13716127D01*
X12134024Y13716130D01*
X12134024Y13716132D01*
X12076814Y13904727D01*
X12068597Y13920099D01*
X11984062Y14078253D01*
X11983910Y14078538D01*
X11859178Y14230524D01*
X11858887Y14230879D01*
X11858878Y14230888D01*
X11706542Y14355907D01*
X11706540Y14355908D01*
X11706538Y14355910D01*
X11665618Y14377782D01*
X11532732Y14448812D01*
X11532730Y14448813D01*
X11344129Y14506025D01*
X11344126Y14506026D01*
X11148003Y14525341D01*
X11147997Y14525341D01*
X10951873Y14506026D01*
X10951870Y14506025D01*
X10763269Y14448813D01*
X10763267Y14448812D01*
X10589467Y14355913D01*
X10589457Y14355907D01*
X10437121Y14230888D01*
X10437112Y14230879D01*
X10312093Y14078543D01*
X10312087Y14078533D01*
X10219188Y13904733D01*
X10219187Y13904731D01*
X10161975Y13716130D01*
X10161974Y13716127D01*
X10142659Y13520004D01*
X10142659Y13519997D01*
X32538Y13519997D01*
X34054Y14980300D01*
X3299000Y14980300D01*
X3310603Y14921964D01*
X3354806Y14855811D01*
X3354810Y14855807D01*
X3420963Y14811604D01*
X3479299Y14800001D01*
X3479303Y14800000D01*
X4248999Y14800000D01*
X4249000Y14800001D01*
X4249000Y15359158D01*
X4283174Y15350000D01*
X4414826Y15350000D01*
X4449000Y15359158D01*
X4449000Y14800001D01*
X4449001Y14800000D01*
X5218697Y14800000D01*
X5218700Y14800001D01*
X5277036Y14811604D01*
X5343189Y14855807D01*
X5343193Y14855811D01*
X5387396Y14921964D01*
X5398999Y14980300D01*
X5399000Y14980303D01*
X5399000Y15749999D01*
X5398999Y15750000D01*
X4839843Y15750000D01*
X4849000Y15784174D01*
X4849000Y15915826D01*
X4839843Y15950000D01*
X5398999Y15950000D01*
X5399000Y15950001D01*
X5399000Y16059997D01*
X10142659Y16059997D01*
X10161974Y15863874D01*
X10161975Y15863871D01*
X10219187Y15675270D01*
X10219188Y15675268D01*
X10228949Y15657007D01*
X10312090Y15501462D01*
X10312092Y15501460D01*
X10312093Y15501458D01*
X10437112Y15349122D01*
X10437121Y15349113D01*
X10589457Y15224094D01*
X10589462Y15224090D01*
X10763273Y15131186D01*
X10951868Y15073976D01*
X10951870Y15073976D01*
X10951873Y15073975D01*
X11147997Y15054659D01*
X11148000Y15054659D01*
X11148003Y15054659D01*
X11344126Y15073975D01*
X11344127Y15073976D01*
X11344132Y15073976D01*
X11532727Y15131186D01*
X11706538Y15224090D01*
X11858883Y15349117D01*
X11983910Y15501462D01*
X12076814Y15675273D01*
X12134024Y15863868D01*
X12139142Y15915826D01*
X12153341Y16059997D01*
X25382659Y16059997D01*
X25401974Y15863874D01*
X25401975Y15863871D01*
X25459187Y15675270D01*
X25459188Y15675268D01*
X25468949Y15657007D01*
X25552090Y15501462D01*
X25552092Y15501460D01*
X25552093Y15501458D01*
X25677112Y15349122D01*
X25677121Y15349113D01*
X25829457Y15224094D01*
X25829462Y15224090D01*
X26003273Y15131186D01*
X26191868Y15073976D01*
X26191870Y15073976D01*
X26191873Y15073975D01*
X26387997Y15054659D01*
X26388000Y15054659D01*
X26388003Y15054659D01*
X26584126Y15073975D01*
X26584127Y15073976D01*
X26584132Y15073976D01*
X26772727Y15131186D01*
X26946538Y15224090D01*
X27098883Y15349117D01*
X27223910Y15501462D01*
X27316814Y15675273D01*
X27374024Y15863868D01*
X27379142Y15915826D01*
X27393341Y16059997D01*
X27393341Y16060004D01*
X27374025Y16256127D01*
X27374024Y16256130D01*
X27374024Y16256132D01*
X27316814Y16444727D01*
X27223910Y16618538D01*
X27140890Y16719698D01*
X27098887Y16770879D01*
X27098878Y16770888D01*
X26946542Y16895907D01*
X26946540Y16895908D01*
X26946538Y16895910D01*
X26905618Y16917782D01*
X26772732Y16988812D01*
X26772730Y16988813D01*
X26584129Y17046025D01*
X26584126Y17046026D01*
X26388003Y17065341D01*
X26387997Y17065341D01*
X26191873Y17046026D01*
X26191870Y17046025D01*
X26003269Y16988813D01*
X26003267Y16988812D01*
X25829467Y16895913D01*
X25829457Y16895907D01*
X25677121Y16770888D01*
X25677112Y16770879D01*
X25552093Y16618543D01*
X25552087Y16618533D01*
X25459188Y16444733D01*
X25459187Y16444731D01*
X25401975Y16256130D01*
X25401974Y16256127D01*
X25382659Y16060004D01*
X25382659Y16059997D01*
X12153341Y16059997D01*
X12153341Y16060004D01*
X12134025Y16256127D01*
X12134024Y16256130D01*
X12134024Y16256132D01*
X12076814Y16444727D01*
X11983910Y16618538D01*
X11900890Y16719698D01*
X11858887Y16770879D01*
X11858878Y16770888D01*
X11706542Y16895907D01*
X11706540Y16895908D01*
X11706538Y16895910D01*
X11665618Y16917782D01*
X11532732Y16988812D01*
X11532730Y16988813D01*
X11344129Y17046025D01*
X11344126Y17046026D01*
X11148003Y17065341D01*
X11147997Y17065341D01*
X10951873Y17046026D01*
X10951870Y17046025D01*
X10763269Y16988813D01*
X10763267Y16988812D01*
X10589467Y16895913D01*
X10589457Y16895907D01*
X10437121Y16770888D01*
X10437112Y16770879D01*
X10312093Y16618543D01*
X10312087Y16618533D01*
X10219188Y16444733D01*
X10219187Y16444731D01*
X10161975Y16256130D01*
X10161974Y16256127D01*
X10142659Y16060004D01*
X10142659Y16059997D01*
X5399000Y16059997D01*
X5399000Y16719698D01*
X5398999Y16719701D01*
X5387396Y16778037D01*
X5343193Y16844190D01*
X5343189Y16844194D01*
X5277036Y16888397D01*
X5218700Y16900000D01*
X4449001Y16900000D01*
X4449000Y16899999D01*
X4449000Y16340843D01*
X4414826Y16350000D01*
X4283174Y16350000D01*
X4249000Y16340843D01*
X4249000Y16899999D01*
X4248999Y16900000D01*
X3479299Y16900000D01*
X3420963Y16888397D01*
X3354810Y16844194D01*
X3354806Y16844190D01*
X3310603Y16778037D01*
X3299000Y16719701D01*
X3299000Y15950001D01*
X3299001Y15950000D01*
X3858157Y15950000D01*
X3849000Y15915826D01*
X3849000Y15784174D01*
X3858157Y15750000D01*
X3299001Y15750000D01*
X3299000Y15749999D01*
X3299000Y14980300D01*
X34054Y14980300D01*
X35067Y15955886D01*
X40417Y18389997D01*
X3293417Y18389997D01*
X3313698Y18184071D01*
X3313699Y18184066D01*
X3373768Y17986046D01*
X3471316Y17803548D01*
X3503700Y17764088D01*
X3602590Y17643590D01*
X3602595Y17643586D01*
X3762547Y17512317D01*
X3762548Y17512317D01*
X3762550Y17512315D01*
X3945046Y17414768D01*
X4082997Y17372922D01*
X4143065Y17354700D01*
X4143070Y17354699D01*
X4348997Y17334417D01*
X4349000Y17334417D01*
X4349003Y17334417D01*
X4554929Y17354699D01*
X4554934Y17354700D01*
X4752954Y17414768D01*
X4935450Y17512315D01*
X5095410Y17643590D01*
X5226685Y17803550D01*
X5324232Y17986046D01*
X5384300Y18184066D01*
X5384301Y18184071D01*
X5404583Y18389997D01*
X5404583Y18390004D01*
X5384301Y18595930D01*
X5384300Y18595935D01*
X5383068Y18599997D01*
X10142659Y18599997D01*
X10161974Y18403874D01*
X10161975Y18403871D01*
X10219187Y18215270D01*
X10219188Y18215268D01*
X10290218Y18082382D01*
X10312090Y18041462D01*
X10312092Y18041460D01*
X10312093Y18041458D01*
X10437112Y17889122D01*
X10437121Y17889113D01*
X10589457Y17764094D01*
X10589462Y17764090D01*
X10763273Y17671186D01*
X10951868Y17613976D01*
X10951870Y17613976D01*
X10951873Y17613975D01*
X11147997Y17594659D01*
X11148000Y17594659D01*
X11148003Y17594659D01*
X11344126Y17613975D01*
X11344127Y17613976D01*
X11344132Y17613976D01*
X11532727Y17671186D01*
X11706538Y17764090D01*
X11858883Y17889117D01*
X11983910Y18041462D01*
X12076814Y18215273D01*
X12134024Y18403868D01*
X12153341Y18599997D01*
X25382659Y18599997D01*
X25401974Y18403874D01*
X25401975Y18403871D01*
X25459187Y18215270D01*
X25459188Y18215268D01*
X25530218Y18082382D01*
X25552090Y18041462D01*
X25552092Y18041460D01*
X25552093Y18041458D01*
X25677112Y17889122D01*
X25677121Y17889113D01*
X25829457Y17764094D01*
X25829462Y17764090D01*
X26003273Y17671186D01*
X26191868Y17613976D01*
X26191870Y17613976D01*
X26191873Y17613975D01*
X26387997Y17594659D01*
X26388000Y17594659D01*
X26388003Y17594659D01*
X26584126Y17613975D01*
X26584127Y17613976D01*
X26584132Y17613976D01*
X26772727Y17671186D01*
X26946538Y17764090D01*
X27098883Y17889117D01*
X27223910Y18041462D01*
X27316814Y18215273D01*
X27374024Y18403868D01*
X27393341Y18600000D01*
X27374239Y18793954D01*
X27374025Y18796127D01*
X27374024Y18796130D01*
X27374024Y18796132D01*
X27316814Y18984727D01*
X27223910Y19158538D01*
X27134335Y19267685D01*
X27098887Y19310879D01*
X27098878Y19310888D01*
X26946542Y19435907D01*
X26946540Y19435908D01*
X26946538Y19435910D01*
X26905618Y19457782D01*
X26772732Y19528812D01*
X26772730Y19528813D01*
X26584129Y19586025D01*
X26584126Y19586026D01*
X26388003Y19605341D01*
X26387997Y19605341D01*
X26191873Y19586026D01*
X26191870Y19586025D01*
X26003269Y19528813D01*
X26003267Y19528812D01*
X25829467Y19435913D01*
X25829457Y19435907D01*
X25677121Y19310888D01*
X25677112Y19310879D01*
X25552093Y19158543D01*
X25552087Y19158533D01*
X25459188Y18984733D01*
X25459187Y18984731D01*
X25401975Y18796130D01*
X25401974Y18796127D01*
X25382659Y18600004D01*
X25382659Y18599997D01*
X12153341Y18599997D01*
X12153341Y18600000D01*
X12134239Y18793954D01*
X12134025Y18796127D01*
X12134024Y18796130D01*
X12134024Y18796132D01*
X12076814Y18984727D01*
X11983910Y19158538D01*
X11894335Y19267685D01*
X11858887Y19310879D01*
X11858878Y19310888D01*
X11706542Y19435907D01*
X11706540Y19435908D01*
X11706538Y19435910D01*
X11665618Y19457782D01*
X11532732Y19528812D01*
X11532730Y19528813D01*
X11344129Y19586025D01*
X11344126Y19586026D01*
X11148003Y19605341D01*
X11147997Y19605341D01*
X10951873Y19586026D01*
X10951870Y19586025D01*
X10763269Y19528813D01*
X10763267Y19528812D01*
X10589467Y19435913D01*
X10589457Y19435907D01*
X10437121Y19310888D01*
X10437112Y19310879D01*
X10312093Y19158543D01*
X10312087Y19158533D01*
X10219188Y18984733D01*
X10219187Y18984731D01*
X10161975Y18796130D01*
X10161974Y18796127D01*
X10142659Y18600004D01*
X10142659Y18599997D01*
X5383068Y18599997D01*
X5366078Y18656003D01*
X5324232Y18793954D01*
X5226685Y18976450D01*
X5219892Y18984727D01*
X5095414Y19136405D01*
X5095410Y19136410D01*
X5068441Y19158543D01*
X4935452Y19267684D01*
X4752954Y19365232D01*
X4554934Y19425301D01*
X4554929Y19425302D01*
X4349003Y19445583D01*
X4348997Y19445583D01*
X4143070Y19425302D01*
X4143065Y19425301D01*
X3945045Y19365232D01*
X3762547Y19267684D01*
X3602595Y19136415D01*
X3602585Y19136405D01*
X3471316Y18976453D01*
X3373768Y18793955D01*
X3313699Y18595935D01*
X3313698Y18595930D01*
X3293417Y18390004D01*
X3293417Y18389997D01*
X40417Y18389997D01*
X45999Y20929997D01*
X3293417Y20929997D01*
X3313698Y20724071D01*
X3313699Y20724066D01*
X3373768Y20526046D01*
X3471316Y20343548D01*
X3503700Y20304088D01*
X3602590Y20183590D01*
X3602595Y20183586D01*
X3762547Y20052317D01*
X3762548Y20052317D01*
X3762550Y20052315D01*
X3945046Y19954768D01*
X4082997Y19912922D01*
X4143065Y19894700D01*
X4143070Y19894699D01*
X4348997Y19874417D01*
X4349000Y19874417D01*
X4349003Y19874417D01*
X4554929Y19894699D01*
X4554934Y19894700D01*
X4752954Y19954768D01*
X4935450Y20052315D01*
X5095410Y20183590D01*
X5226685Y20343550D01*
X5324232Y20526046D01*
X5384300Y20724066D01*
X5384301Y20724071D01*
X5404583Y20929997D01*
X5404583Y20930004D01*
X5384301Y21135930D01*
X5384300Y21135935D01*
X5383068Y21139997D01*
X10142659Y21139997D01*
X10161974Y20943874D01*
X10161975Y20943871D01*
X10219187Y20755270D01*
X10219188Y20755268D01*
X10290218Y20622382D01*
X10312090Y20581462D01*
X10312092Y20581460D01*
X10312093Y20581458D01*
X10437112Y20429122D01*
X10437121Y20429113D01*
X10589457Y20304094D01*
X10589462Y20304090D01*
X10763273Y20211186D01*
X10951868Y20153976D01*
X10951870Y20153976D01*
X10951873Y20153975D01*
X11147997Y20134659D01*
X11148000Y20134659D01*
X11148003Y20134659D01*
X11344126Y20153975D01*
X11344127Y20153976D01*
X11344132Y20153976D01*
X11532727Y20211186D01*
X11706538Y20304090D01*
X11858883Y20429117D01*
X11983910Y20581462D01*
X12076814Y20755273D01*
X12134024Y20943868D01*
X12153341Y21139997D01*
X25382659Y21139997D01*
X25401974Y20943874D01*
X25401975Y20943871D01*
X25459187Y20755270D01*
X25459188Y20755268D01*
X25530218Y20622382D01*
X25552090Y20581462D01*
X25552092Y20581460D01*
X25552093Y20581458D01*
X25677112Y20429122D01*
X25677121Y20429113D01*
X25829457Y20304094D01*
X25829462Y20304090D01*
X26003273Y20211186D01*
X26191868Y20153976D01*
X26191870Y20153976D01*
X26191873Y20153975D01*
X26387997Y20134659D01*
X26388000Y20134659D01*
X26388003Y20134659D01*
X26584126Y20153975D01*
X26584127Y20153976D01*
X26584132Y20153976D01*
X26772727Y20211186D01*
X26946538Y20304090D01*
X27098883Y20429117D01*
X27223910Y20581462D01*
X27316814Y20755273D01*
X27374024Y20943868D01*
X27393341Y21140000D01*
X27374239Y21333954D01*
X27374025Y21336127D01*
X27374024Y21336130D01*
X27374024Y21336132D01*
X27316814Y21524727D01*
X27223910Y21698538D01*
X27134335Y21807685D01*
X27098887Y21850879D01*
X27098878Y21850888D01*
X26946542Y21975907D01*
X26946540Y21975908D01*
X26946538Y21975910D01*
X26905618Y21997782D01*
X26772732Y22068812D01*
X26772730Y22068813D01*
X26584129Y22126025D01*
X26584126Y22126026D01*
X26388003Y22145341D01*
X26387997Y22145341D01*
X26191873Y22126026D01*
X26191870Y22126025D01*
X26003269Y22068813D01*
X26003267Y22068812D01*
X25829467Y21975913D01*
X25829457Y21975907D01*
X25677121Y21850888D01*
X25677112Y21850879D01*
X25552093Y21698543D01*
X25552087Y21698533D01*
X25459188Y21524733D01*
X25459187Y21524731D01*
X25401975Y21336130D01*
X25401974Y21336127D01*
X25382659Y21140004D01*
X25382659Y21139997D01*
X12153341Y21139997D01*
X12153341Y21140000D01*
X12134239Y21333954D01*
X12134025Y21336127D01*
X12134024Y21336130D01*
X12134024Y21336132D01*
X12076814Y21524727D01*
X11983910Y21698538D01*
X11894335Y21807685D01*
X11858887Y21850879D01*
X11858878Y21850888D01*
X11706542Y21975907D01*
X11706540Y21975908D01*
X11706538Y21975910D01*
X11665618Y21997782D01*
X11532732Y22068812D01*
X11532730Y22068813D01*
X11344129Y22126025D01*
X11344126Y22126026D01*
X11148003Y22145341D01*
X11147997Y22145341D01*
X10951873Y22126026D01*
X10951870Y22126025D01*
X10763269Y22068813D01*
X10763267Y22068812D01*
X10589467Y21975913D01*
X10589457Y21975907D01*
X10437121Y21850888D01*
X10437112Y21850879D01*
X10312093Y21698543D01*
X10312087Y21698533D01*
X10219188Y21524733D01*
X10219187Y21524731D01*
X10161975Y21336130D01*
X10161974Y21336127D01*
X10142659Y21140004D01*
X10142659Y21139997D01*
X5383068Y21139997D01*
X5366078Y21196003D01*
X5324232Y21333954D01*
X5226685Y21516450D01*
X5219892Y21524727D01*
X5095414Y21676405D01*
X5095410Y21676410D01*
X5068441Y21698543D01*
X4935452Y21807684D01*
X4752954Y21905232D01*
X4554934Y21965301D01*
X4554929Y21965302D01*
X4349003Y21985583D01*
X4348997Y21985583D01*
X4143070Y21965302D01*
X4143065Y21965301D01*
X3945045Y21905232D01*
X3762547Y21807684D01*
X3602595Y21676415D01*
X3602585Y21676405D01*
X3471316Y21516453D01*
X3373768Y21333955D01*
X3313699Y21135935D01*
X3313698Y21135930D01*
X3293417Y20930004D01*
X3293417Y20929997D01*
X45999Y20929997D01*
X51582Y23469997D01*
X3293417Y23469997D01*
X3313698Y23264071D01*
X3313699Y23264066D01*
X3373768Y23066046D01*
X3471316Y22883548D01*
X3503700Y22844088D01*
X3602590Y22723590D01*
X3602595Y22723586D01*
X3762547Y22592317D01*
X3762548Y22592317D01*
X3762550Y22592315D01*
X3945046Y22494768D01*
X4082997Y22452922D01*
X4143065Y22434700D01*
X4143070Y22434699D01*
X4348997Y22414417D01*
X4349000Y22414417D01*
X4349003Y22414417D01*
X4554929Y22434699D01*
X4554934Y22434700D01*
X4752954Y22494768D01*
X4935450Y22592315D01*
X5095410Y22723590D01*
X5226685Y22883550D01*
X5324232Y23066046D01*
X5384300Y23264066D01*
X5384301Y23264071D01*
X5404583Y23469997D01*
X5404583Y23470004D01*
X5384301Y23675930D01*
X5384300Y23675935D01*
X5383068Y23679997D01*
X10142659Y23679997D01*
X10161974Y23483874D01*
X10161975Y23483871D01*
X10219187Y23295270D01*
X10219188Y23295268D01*
X10290218Y23162382D01*
X10312090Y23121462D01*
X10312092Y23121460D01*
X10312093Y23121458D01*
X10437112Y22969122D01*
X10437121Y22969113D01*
X10589457Y22844094D01*
X10589462Y22844090D01*
X10763273Y22751186D01*
X10951868Y22693976D01*
X10951870Y22693976D01*
X10951873Y22693975D01*
X11147997Y22674659D01*
X11148000Y22674659D01*
X11148003Y22674659D01*
X11344126Y22693975D01*
X11344127Y22693976D01*
X11344132Y22693976D01*
X11532727Y22751186D01*
X11706538Y22844090D01*
X11858883Y22969117D01*
X11983910Y23121462D01*
X12076814Y23295273D01*
X12134024Y23483868D01*
X12153341Y23679997D01*
X25382659Y23679997D01*
X25401974Y23483874D01*
X25401975Y23483871D01*
X25459187Y23295270D01*
X25459188Y23295268D01*
X25530218Y23162382D01*
X25552090Y23121462D01*
X25552092Y23121460D01*
X25552093Y23121458D01*
X25677112Y22969122D01*
X25677121Y22969113D01*
X25829457Y22844094D01*
X25829462Y22844090D01*
X26003273Y22751186D01*
X26191868Y22693976D01*
X26191870Y22693976D01*
X26191873Y22693975D01*
X26387997Y22674659D01*
X26388000Y22674659D01*
X26388003Y22674659D01*
X26584126Y22693975D01*
X26584127Y22693976D01*
X26584132Y22693976D01*
X26772727Y22751186D01*
X26946538Y22844090D01*
X27098883Y22969117D01*
X27223910Y23121462D01*
X27316814Y23295273D01*
X27374024Y23483868D01*
X27393341Y23680000D01*
X27374239Y23873954D01*
X27374025Y23876127D01*
X27374024Y23876130D01*
X27374024Y23876132D01*
X27316814Y24064727D01*
X27223910Y24238538D01*
X27134335Y24347685D01*
X27098887Y24390879D01*
X27098878Y24390888D01*
X26946542Y24515907D01*
X26946540Y24515908D01*
X26946538Y24515910D01*
X26905618Y24537782D01*
X26772732Y24608812D01*
X26772730Y24608813D01*
X26584129Y24666025D01*
X26584126Y24666026D01*
X26388003Y24685341D01*
X26387997Y24685341D01*
X26191873Y24666026D01*
X26191870Y24666025D01*
X26003269Y24608813D01*
X26003267Y24608812D01*
X25829467Y24515913D01*
X25829457Y24515907D01*
X25677121Y24390888D01*
X25677112Y24390879D01*
X25552093Y24238543D01*
X25552087Y24238533D01*
X25459188Y24064733D01*
X25459187Y24064731D01*
X25401975Y23876130D01*
X25401974Y23876127D01*
X25382659Y23680004D01*
X25382659Y23679997D01*
X12153341Y23679997D01*
X12153341Y23680000D01*
X12134239Y23873954D01*
X12134025Y23876127D01*
X12134024Y23876130D01*
X12134024Y23876132D01*
X12076814Y24064727D01*
X11983910Y24238538D01*
X11894335Y24347685D01*
X11858887Y24390879D01*
X11858878Y24390888D01*
X11706542Y24515907D01*
X11706540Y24515908D01*
X11706538Y24515910D01*
X11665618Y24537782D01*
X11532732Y24608812D01*
X11532730Y24608813D01*
X11344129Y24666025D01*
X11344126Y24666026D01*
X11148003Y24685341D01*
X11147997Y24685341D01*
X10951873Y24666026D01*
X10951870Y24666025D01*
X10763269Y24608813D01*
X10763267Y24608812D01*
X10589467Y24515913D01*
X10589457Y24515907D01*
X10437121Y24390888D01*
X10437112Y24390879D01*
X10312093Y24238543D01*
X10312087Y24238533D01*
X10219188Y24064733D01*
X10219187Y24064731D01*
X10161975Y23876130D01*
X10161974Y23876127D01*
X10142659Y23680004D01*
X10142659Y23679997D01*
X5383068Y23679997D01*
X5366078Y23736003D01*
X5324232Y23873954D01*
X5226685Y24056450D01*
X5219892Y24064727D01*
X5095414Y24216405D01*
X5095410Y24216410D01*
X5068441Y24238543D01*
X4935452Y24347684D01*
X4752954Y24445232D01*
X4554934Y24505301D01*
X4554929Y24505302D01*
X4349003Y24525583D01*
X4348997Y24525583D01*
X4143070Y24505302D01*
X4143065Y24505301D01*
X3945045Y24445232D01*
X3762547Y24347684D01*
X3602595Y24216415D01*
X3602585Y24216405D01*
X3471316Y24056453D01*
X3373768Y23873955D01*
X3313699Y23675935D01*
X3313698Y23675930D01*
X3293417Y23470004D01*
X3293417Y23469997D01*
X51582Y23469997D01*
X57626Y26219997D01*
X10142659Y26219997D01*
X10161974Y26023874D01*
X10161975Y26023871D01*
X10219187Y25835270D01*
X10219188Y25835268D01*
X10290218Y25702382D01*
X10312090Y25661462D01*
X10312092Y25661460D01*
X10312093Y25661458D01*
X10437112Y25509122D01*
X10437121Y25509113D01*
X10589457Y25384094D01*
X10589462Y25384090D01*
X10763273Y25291186D01*
X10951868Y25233976D01*
X10951870Y25233976D01*
X10951873Y25233975D01*
X11147997Y25214659D01*
X11148000Y25214659D01*
X11148003Y25214659D01*
X11344126Y25233975D01*
X11344127Y25233976D01*
X11344132Y25233976D01*
X11532727Y25291186D01*
X11706538Y25384090D01*
X11858883Y25509117D01*
X11983910Y25661462D01*
X12076814Y25835273D01*
X12134024Y26023868D01*
X12153341Y26219997D01*
X25382659Y26219997D01*
X25401974Y26023874D01*
X25401975Y26023871D01*
X25459187Y25835270D01*
X25459188Y25835268D01*
X25530218Y25702382D01*
X25552090Y25661462D01*
X25552092Y25661460D01*
X25552093Y25661458D01*
X25677112Y25509122D01*
X25677121Y25509113D01*
X25829457Y25384094D01*
X25829462Y25384090D01*
X26003273Y25291186D01*
X26191868Y25233976D01*
X26191870Y25233976D01*
X26191873Y25233975D01*
X26387997Y25214659D01*
X26388000Y25214659D01*
X26388003Y25214659D01*
X26584126Y25233975D01*
X26584127Y25233976D01*
X26584132Y25233976D01*
X26772727Y25291186D01*
X26946538Y25384090D01*
X27098883Y25509117D01*
X27223910Y25661462D01*
X27316814Y25835273D01*
X27374024Y26023868D01*
X27393341Y26220000D01*
X27393341Y26220004D01*
X27374025Y26416127D01*
X27374024Y26416130D01*
X27374024Y26416132D01*
X27316814Y26604727D01*
X27223910Y26778538D01*
X27190820Y26818858D01*
X27098887Y26930879D01*
X27098878Y26930888D01*
X26946542Y27055907D01*
X26946540Y27055908D01*
X26946538Y27055910D01*
X26905618Y27077782D01*
X26772732Y27148812D01*
X26772730Y27148813D01*
X26584129Y27206025D01*
X26584126Y27206026D01*
X26388003Y27225341D01*
X26387997Y27225341D01*
X26191873Y27206026D01*
X26191870Y27206025D01*
X26003269Y27148813D01*
X26003267Y27148812D01*
X25829467Y27055913D01*
X25829457Y27055907D01*
X25677121Y26930888D01*
X25677112Y26930879D01*
X25552093Y26778543D01*
X25552087Y26778533D01*
X25459188Y26604733D01*
X25459187Y26604731D01*
X25401975Y26416130D01*
X25401974Y26416127D01*
X25382659Y26220004D01*
X25382659Y26219997D01*
X12153341Y26219997D01*
X12153341Y26220000D01*
X12153341Y26220004D01*
X12134025Y26416127D01*
X12134024Y26416130D01*
X12134024Y26416132D01*
X12076814Y26604727D01*
X11983910Y26778538D01*
X11950820Y26818858D01*
X11858887Y26930879D01*
X11858878Y26930888D01*
X11706542Y27055907D01*
X11706540Y27055908D01*
X11706538Y27055910D01*
X11665618Y27077782D01*
X11532732Y27148812D01*
X11532730Y27148813D01*
X11344129Y27206025D01*
X11344126Y27206026D01*
X11148003Y27225341D01*
X11147997Y27225341D01*
X10951873Y27206026D01*
X10951870Y27206025D01*
X10763269Y27148813D01*
X10763267Y27148812D01*
X10589467Y27055913D01*
X10589457Y27055907D01*
X10437121Y26930888D01*
X10437112Y26930879D01*
X10312093Y26778543D01*
X10312087Y26778533D01*
X10219188Y26604733D01*
X10219187Y26604731D01*
X10161975Y26416130D01*
X10161974Y26416127D01*
X10142659Y26220004D01*
X10142659Y26219997D01*
X57626Y26219997D01*
X60901Y27710254D01*
X3218000Y27710254D01*
X3218001Y27710242D01*
X3229632Y27651773D01*
X3229633Y27651769D01*
X3273948Y27585448D01*
X3340269Y27541133D01*
X3384731Y27532289D01*
X3398741Y27529502D01*
X3398746Y27529502D01*
X3398752Y27529500D01*
X3398753Y27529500D01*
X5138247Y27529500D01*
X5138248Y27529500D01*
X5196731Y27541133D01*
X5263052Y27585448D01*
X5307367Y27651769D01*
X5312982Y27680000D01*
X14898540Y27680000D01*
X14918327Y27491739D01*
X14976819Y27311721D01*
X14976825Y27311707D01*
X15037842Y27206024D01*
X15071467Y27147784D01*
X15071469Y27147782D01*
X15154193Y27055907D01*
X15198129Y27007112D01*
X15351270Y26895849D01*
X15524197Y26818856D01*
X15709354Y26779500D01*
X15709357Y26779500D01*
X15898643Y26779500D01*
X15898646Y26779500D01*
X16083803Y26818856D01*
X16256730Y26895849D01*
X16409871Y27007112D01*
X16536533Y27147784D01*
X16631179Y27311716D01*
X16689674Y27491744D01*
X16709460Y27680000D01*
X22518540Y27680000D01*
X22538327Y27491739D01*
X22596819Y27311721D01*
X22596825Y27311707D01*
X22657842Y27206024D01*
X22691467Y27147784D01*
X22691469Y27147782D01*
X22774193Y27055907D01*
X22818129Y27007112D01*
X22971270Y26895849D01*
X23144197Y26818856D01*
X23329354Y26779500D01*
X23329357Y26779500D01*
X23518643Y26779500D01*
X23518646Y26779500D01*
X23703803Y26818856D01*
X23876730Y26895849D01*
X24029871Y27007112D01*
X24156533Y27147784D01*
X24251179Y27311716D01*
X24309674Y27491744D01*
X24329460Y27680000D01*
X24309674Y27868256D01*
X24251179Y28048284D01*
X24251176Y28048289D01*
X24251174Y28048294D01*
X24202551Y28132510D01*
X24156533Y28212216D01*
X24029871Y28352888D01*
X23999067Y28375268D01*
X23876731Y28464150D01*
X23876732Y28464150D01*
X23876730Y28464151D01*
X23876725Y28464153D01*
X23876722Y28464155D01*
X23703805Y28541143D01*
X23703803Y28541144D01*
X23703800Y28541145D01*
X23703799Y28541145D01*
X23668580Y28548631D01*
X23518646Y28580500D01*
X23329354Y28580500D01*
X23211289Y28555405D01*
X23144200Y28541145D01*
X23144194Y28541143D01*
X22971277Y28464155D01*
X22971268Y28464150D01*
X22818129Y28352889D01*
X22818124Y28352884D01*
X22691469Y28212219D01*
X22691465Y28212213D01*
X22596825Y28048294D01*
X22596819Y28048280D01*
X22538327Y27868262D01*
X22538326Y27868258D01*
X22538326Y27868256D01*
X22518540Y27680000D01*
X16709460Y27680000D01*
X16689674Y27868256D01*
X16631179Y28048284D01*
X16631176Y28048289D01*
X16631174Y28048294D01*
X16582551Y28132510D01*
X16536533Y28212216D01*
X16409871Y28352888D01*
X16379067Y28375268D01*
X16256731Y28464150D01*
X16256732Y28464150D01*
X16256730Y28464151D01*
X16256725Y28464153D01*
X16256722Y28464155D01*
X16083805Y28541143D01*
X16083803Y28541144D01*
X16083800Y28541145D01*
X16083799Y28541145D01*
X16048580Y28548631D01*
X15898646Y28580500D01*
X15709354Y28580500D01*
X15591289Y28555405D01*
X15524200Y28541145D01*
X15524194Y28541143D01*
X15351277Y28464155D01*
X15351268Y28464150D01*
X15198129Y28352889D01*
X15198124Y28352884D01*
X15071469Y28212219D01*
X15071465Y28212213D01*
X14976825Y28048294D01*
X14976819Y28048280D01*
X14918327Y27868262D01*
X14918326Y27868258D01*
X14918326Y27868256D01*
X14898540Y27680000D01*
X5312982Y27680000D01*
X5319000Y27710252D01*
X5319000Y28759997D01*
X10142659Y28759997D01*
X10161974Y28563874D01*
X10161975Y28563871D01*
X10219187Y28375270D01*
X10219188Y28375268D01*
X10231153Y28352884D01*
X10312090Y28201462D01*
X10312092Y28201460D01*
X10312093Y28201458D01*
X10437112Y28049122D01*
X10437121Y28049113D01*
X10589457Y27924094D01*
X10589462Y27924090D01*
X10763273Y27831186D01*
X10951868Y27773976D01*
X10951870Y27773976D01*
X10951873Y27773975D01*
X11147997Y27754659D01*
X11148000Y27754659D01*
X11148003Y27754659D01*
X11344126Y27773975D01*
X11344127Y27773976D01*
X11344132Y27773976D01*
X11532727Y27831186D01*
X11706538Y27924090D01*
X11858883Y28049117D01*
X11983910Y28201462D01*
X12076814Y28375273D01*
X12134024Y28563868D01*
X12153341Y28759997D01*
X25382659Y28759997D01*
X25401974Y28563874D01*
X25401975Y28563871D01*
X25459187Y28375270D01*
X25459188Y28375268D01*
X25471153Y28352884D01*
X25552090Y28201462D01*
X25552092Y28201460D01*
X25552093Y28201458D01*
X25677112Y28049122D01*
X25677121Y28049113D01*
X25829457Y27924094D01*
X25829462Y27924090D01*
X26003273Y27831186D01*
X26191868Y27773976D01*
X26191870Y27773976D01*
X26191873Y27773975D01*
X26387997Y27754659D01*
X26388000Y27754659D01*
X26388003Y27754659D01*
X26584126Y27773975D01*
X26584127Y27773976D01*
X26584132Y27773976D01*
X26772727Y27831186D01*
X26946538Y27924090D01*
X27098883Y28049117D01*
X27223910Y28201462D01*
X27316814Y28375273D01*
X27374024Y28563868D01*
X27393341Y28760000D01*
X27393341Y28760004D01*
X27374025Y28956127D01*
X27374024Y28956130D01*
X27374024Y28956132D01*
X27316814Y29144727D01*
X27223910Y29318538D01*
X27223906Y29318543D01*
X27098887Y29470879D01*
X27098878Y29470888D01*
X26946542Y29595907D01*
X26946540Y29595908D01*
X26946538Y29595910D01*
X26827570Y29659500D01*
X26772732Y29688812D01*
X26772730Y29688813D01*
X26739616Y29698858D01*
X26584132Y29746024D01*
X26584129Y29746025D01*
X26584126Y29746026D01*
X26388003Y29765341D01*
X26387997Y29765341D01*
X26191873Y29746026D01*
X26191870Y29746025D01*
X26003269Y29688813D01*
X26003267Y29688812D01*
X25829467Y29595913D01*
X25829457Y29595907D01*
X25677121Y29470888D01*
X25677112Y29470879D01*
X25552093Y29318543D01*
X25552087Y29318533D01*
X25459188Y29144733D01*
X25459187Y29144731D01*
X25401975Y28956130D01*
X25401974Y28956127D01*
X25382659Y28760004D01*
X25382659Y28759997D01*
X12153341Y28759997D01*
X12153341Y28760000D01*
X12153341Y28760004D01*
X12134025Y28956127D01*
X12134024Y28956130D01*
X12134024Y28956132D01*
X12076814Y29144727D01*
X11983910Y29318538D01*
X11983906Y29318543D01*
X11858887Y29470879D01*
X11858878Y29470888D01*
X11706542Y29595907D01*
X11706540Y29595908D01*
X11706538Y29595910D01*
X11587570Y29659500D01*
X11532732Y29688812D01*
X11532730Y29688813D01*
X11499616Y29698858D01*
X11344132Y29746024D01*
X11344129Y29746025D01*
X11344126Y29746026D01*
X11148003Y29765341D01*
X11147997Y29765341D01*
X10951873Y29746026D01*
X10951870Y29746025D01*
X10763269Y29688813D01*
X10763267Y29688812D01*
X10589467Y29595913D01*
X10589457Y29595907D01*
X10437121Y29470888D01*
X10437112Y29470879D01*
X10312093Y29318543D01*
X10312087Y29318533D01*
X10219188Y29144733D01*
X10219187Y29144731D01*
X10161975Y28956130D01*
X10161974Y28956127D01*
X10142659Y28760004D01*
X10142659Y28759997D01*
X5319000Y28759997D01*
X5319000Y29449748D01*
X5307367Y29508231D01*
X5263052Y29574552D01*
X5231093Y29595907D01*
X5196733Y29618866D01*
X5196731Y29618867D01*
X5196728Y29618868D01*
X5196727Y29618868D01*
X5138258Y29630499D01*
X5138248Y29630500D01*
X3398752Y29630500D01*
X3398751Y29630500D01*
X3398741Y29630499D01*
X3340272Y29618868D01*
X3340266Y29618866D01*
X3273951Y29574555D01*
X3273945Y29574549D01*
X3229634Y29508234D01*
X3229632Y29508228D01*
X3218001Y29449759D01*
X3218000Y29449747D01*
X3218000Y27710254D01*
X60901Y27710254D01*
X68395Y31119997D01*
X3212917Y31119997D01*
X3233198Y30914071D01*
X3233199Y30914066D01*
X3293268Y30716046D01*
X3390816Y30533548D01*
X3522085Y30373596D01*
X3522090Y30373590D01*
X3525016Y30371189D01*
X3682047Y30242317D01*
X3682048Y30242317D01*
X3682050Y30242315D01*
X3864546Y30144768D01*
X4002497Y30102922D01*
X4062565Y30084700D01*
X4062570Y30084699D01*
X4268497Y30064417D01*
X4268500Y30064417D01*
X4268503Y30064417D01*
X4474429Y30084699D01*
X4474434Y30084700D01*
X4672454Y30144768D01*
X4854950Y30242315D01*
X5014910Y30373590D01*
X5146185Y30533550D01*
X5243732Y30716046D01*
X5303800Y30914066D01*
X5303801Y30914071D01*
X5324083Y31119997D01*
X5324083Y31120004D01*
X5306355Y31299997D01*
X10142659Y31299997D01*
X10161974Y31103874D01*
X10161975Y31103871D01*
X10219187Y30915270D01*
X10219188Y30915268D01*
X10290218Y30782382D01*
X10312090Y30741462D01*
X10312092Y30741460D01*
X10312093Y30741458D01*
X10437112Y30589122D01*
X10437121Y30589113D01*
X10589457Y30464094D01*
X10589462Y30464090D01*
X10763273Y30371186D01*
X10951868Y30313976D01*
X10951870Y30313976D01*
X10951873Y30313975D01*
X11147997Y30294659D01*
X11148000Y30294659D01*
X11148003Y30294659D01*
X11344126Y30313975D01*
X11344127Y30313976D01*
X11344132Y30313976D01*
X11532727Y30371186D01*
X11706538Y30464090D01*
X11823404Y30560000D01*
X14929040Y30560000D01*
X14948632Y30373586D01*
X14948827Y30371739D01*
X15007319Y30191721D01*
X15007325Y30191707D01*
X15069107Y30084699D01*
X15101967Y30027784D01*
X15228629Y29887112D01*
X15381770Y29775849D01*
X15554697Y29698856D01*
X15739854Y29659500D01*
X15739857Y29659500D01*
X15929143Y29659500D01*
X15929146Y29659500D01*
X16114303Y29698856D01*
X16287230Y29775849D01*
X16440371Y29887112D01*
X16567033Y30027784D01*
X16661679Y30191716D01*
X16720174Y30371744D01*
X16739960Y30560000D01*
X22549040Y30560000D01*
X22568632Y30373586D01*
X22568827Y30371739D01*
X22627319Y30191721D01*
X22627325Y30191707D01*
X22689107Y30084699D01*
X22721967Y30027784D01*
X22848629Y29887112D01*
X23001770Y29775849D01*
X23174697Y29698856D01*
X23359854Y29659500D01*
X23359857Y29659500D01*
X23549143Y29659500D01*
X23549146Y29659500D01*
X23734303Y29698856D01*
X23907230Y29775849D01*
X24060371Y29887112D01*
X24187033Y30027784D01*
X24281679Y30191716D01*
X24340174Y30371744D01*
X24359960Y30560000D01*
X24340174Y30748256D01*
X24281679Y30928284D01*
X24281676Y30928289D01*
X24281674Y30928294D01*
X24233051Y31012510D01*
X24187033Y31092216D01*
X24060371Y31232888D01*
X23968003Y31299997D01*
X25382659Y31299997D01*
X25401974Y31103874D01*
X25401975Y31103871D01*
X25459187Y30915270D01*
X25459188Y30915268D01*
X25530218Y30782382D01*
X25552090Y30741462D01*
X25552092Y30741460D01*
X25552093Y30741458D01*
X25677112Y30589122D01*
X25677121Y30589113D01*
X25829457Y30464094D01*
X25829462Y30464090D01*
X26003273Y30371186D01*
X26191868Y30313976D01*
X26191870Y30313976D01*
X26191873Y30313975D01*
X26387997Y30294659D01*
X26388000Y30294659D01*
X26388003Y30294659D01*
X26584126Y30313975D01*
X26584127Y30313976D01*
X26584132Y30313976D01*
X26772727Y30371186D01*
X26946538Y30464090D01*
X27098883Y30589117D01*
X27223910Y30741462D01*
X27316814Y30915273D01*
X27374024Y31103868D01*
X27375614Y31120004D01*
X27393341Y31299997D01*
X27393341Y31300004D01*
X27374025Y31496127D01*
X27374024Y31496130D01*
X27374024Y31496132D01*
X27316814Y31684727D01*
X27223910Y31858538D01*
X27217450Y31866410D01*
X27098887Y32010879D01*
X27098878Y32010888D01*
X26946542Y32135907D01*
X26946540Y32135908D01*
X26946538Y32135910D01*
X26872315Y32175583D01*
X26772732Y32228812D01*
X26772730Y32228813D01*
X26584129Y32286025D01*
X26584126Y32286026D01*
X26388003Y32305341D01*
X26387997Y32305341D01*
X26191873Y32286026D01*
X26191870Y32286025D01*
X26003269Y32228813D01*
X26003267Y32228812D01*
X25829467Y32135913D01*
X25829457Y32135907D01*
X25677121Y32010888D01*
X25677112Y32010879D01*
X25552093Y31858543D01*
X25552087Y31858533D01*
X25459188Y31684733D01*
X25459187Y31684731D01*
X25401975Y31496130D01*
X25401974Y31496127D01*
X25382659Y31300004D01*
X25382659Y31299997D01*
X23968003Y31299997D01*
X23907230Y31344151D01*
X23907225Y31344153D01*
X23907222Y31344155D01*
X23734305Y31421143D01*
X23734303Y31421144D01*
X23734300Y31421145D01*
X23734299Y31421145D01*
X23699080Y31428631D01*
X23549146Y31460500D01*
X23359854Y31460500D01*
X23241789Y31435405D01*
X23174700Y31421145D01*
X23174694Y31421143D01*
X23001777Y31344155D01*
X23001768Y31344150D01*
X22848629Y31232889D01*
X22848624Y31232884D01*
X22721969Y31092219D01*
X22721965Y31092213D01*
X22627325Y30928294D01*
X22627319Y30928280D01*
X22568827Y30748262D01*
X22568826Y30748258D01*
X22568826Y30748256D01*
X22549040Y30560000D01*
X16739960Y30560000D01*
X16720174Y30748256D01*
X16661679Y30928284D01*
X16661676Y30928289D01*
X16661674Y30928294D01*
X16613051Y31012510D01*
X16567033Y31092216D01*
X16440371Y31232888D01*
X16287230Y31344151D01*
X16287225Y31344153D01*
X16287222Y31344155D01*
X16114305Y31421143D01*
X16114303Y31421144D01*
X16114300Y31421145D01*
X16114299Y31421145D01*
X16079080Y31428631D01*
X15929146Y31460500D01*
X15739854Y31460500D01*
X15621789Y31435405D01*
X15554700Y31421145D01*
X15554694Y31421143D01*
X15381777Y31344155D01*
X15381768Y31344150D01*
X15228629Y31232889D01*
X15228624Y31232884D01*
X15101969Y31092219D01*
X15101965Y31092213D01*
X15007325Y30928294D01*
X15007319Y30928280D01*
X14948827Y30748262D01*
X14948826Y30748258D01*
X14948826Y30748256D01*
X14929040Y30560000D01*
X11823404Y30560000D01*
X11858883Y30589117D01*
X11983910Y30741462D01*
X12076814Y30915273D01*
X12134024Y31103868D01*
X12135614Y31120004D01*
X12153341Y31299997D01*
X12153341Y31300004D01*
X12134025Y31496127D01*
X12134024Y31496130D01*
X12134024Y31496132D01*
X12076814Y31684727D01*
X11983910Y31858538D01*
X11977450Y31866410D01*
X11858887Y32010879D01*
X11858878Y32010888D01*
X11706542Y32135907D01*
X11706540Y32135908D01*
X11706538Y32135910D01*
X11632315Y32175583D01*
X11532732Y32228812D01*
X11532730Y32228813D01*
X11344129Y32286025D01*
X11344126Y32286026D01*
X11148003Y32305341D01*
X11147997Y32305341D01*
X10951873Y32286026D01*
X10951870Y32286025D01*
X10763269Y32228813D01*
X10763267Y32228812D01*
X10589467Y32135913D01*
X10589457Y32135907D01*
X10437121Y32010888D01*
X10437112Y32010879D01*
X10312093Y31858543D01*
X10312087Y31858533D01*
X10219188Y31684733D01*
X10219187Y31684731D01*
X10161975Y31496130D01*
X10161974Y31496127D01*
X10142659Y31300004D01*
X10142659Y31299997D01*
X5306355Y31299997D01*
X5303801Y31325930D01*
X5303800Y31325935D01*
X5252172Y31496130D01*
X5243732Y31523954D01*
X5146185Y31706450D01*
X5014910Y31866410D01*
X5014904Y31866415D01*
X4854952Y31997684D01*
X4672454Y32095232D01*
X4474434Y32155301D01*
X4474429Y32155302D01*
X4268503Y32175583D01*
X4268497Y32175583D01*
X4062570Y32155302D01*
X4062565Y32155301D01*
X3864545Y32095232D01*
X3682047Y31997684D01*
X3522095Y31866415D01*
X3522085Y31866405D01*
X3390816Y31706453D01*
X3293268Y31523955D01*
X3233199Y31325935D01*
X3233198Y31325930D01*
X3212917Y31120004D01*
X3212917Y31119997D01*
X68395Y31119997D01*
X73977Y33659997D01*
X3212917Y33659997D01*
X3233198Y33454071D01*
X3233199Y33454066D01*
X3293268Y33256046D01*
X3390816Y33073548D01*
X3499008Y32941716D01*
X3522090Y32913590D01*
X3522095Y32913586D01*
X3682047Y32782317D01*
X3682048Y32782317D01*
X3682050Y32782315D01*
X3864546Y32684768D01*
X4002497Y32642922D01*
X4062565Y32624700D01*
X4062570Y32624699D01*
X4268497Y32604417D01*
X4268500Y32604417D01*
X4268503Y32604417D01*
X4474429Y32624699D01*
X4474434Y32624700D01*
X4515351Y32637112D01*
X4672454Y32684768D01*
X4854950Y32782315D01*
X5014910Y32913590D01*
X5146185Y33073550D01*
X5243732Y33256046D01*
X5303800Y33454066D01*
X5303801Y33454071D01*
X5324083Y33659997D01*
X5324083Y33660004D01*
X5306355Y33839997D01*
X10142659Y33839997D01*
X10161974Y33643874D01*
X10161975Y33643871D01*
X10219187Y33455270D01*
X10219188Y33455268D01*
X10290218Y33322382D01*
X10312090Y33281462D01*
X10312092Y33281460D01*
X10312093Y33281458D01*
X10437112Y33129122D01*
X10437121Y33129113D01*
X10589457Y33004094D01*
X10589462Y33004090D01*
X10763273Y32911186D01*
X10951868Y32853976D01*
X10951870Y32853976D01*
X10951873Y32853975D01*
X11147997Y32834659D01*
X11148000Y32834659D01*
X11148003Y32834659D01*
X11344126Y32853975D01*
X11344127Y32853976D01*
X11344132Y32853976D01*
X11532727Y32911186D01*
X11706538Y33004090D01*
X11858883Y33129117D01*
X11983910Y33281462D01*
X11999164Y33310000D01*
X14983040Y33310000D01*
X15002051Y33129117D01*
X15002827Y33121739D01*
X15061319Y32941721D01*
X15061325Y32941707D01*
X15111978Y32853975D01*
X15155967Y32777784D01*
X15282629Y32637112D01*
X15435770Y32525849D01*
X15608697Y32448856D01*
X15793854Y32409500D01*
X15793857Y32409500D01*
X15983143Y32409500D01*
X15983146Y32409500D01*
X16168303Y32448856D01*
X16341230Y32525849D01*
X16494371Y32637112D01*
X16621033Y32777784D01*
X16715679Y32941716D01*
X16774174Y33121744D01*
X16793960Y33310000D01*
X22603040Y33310000D01*
X22622051Y33129117D01*
X22622827Y33121739D01*
X22681319Y32941721D01*
X22681325Y32941707D01*
X22731978Y32853975D01*
X22775967Y32777784D01*
X22902629Y32637112D01*
X23055770Y32525849D01*
X23228697Y32448856D01*
X23413854Y32409500D01*
X23413857Y32409500D01*
X23603143Y32409500D01*
X23603146Y32409500D01*
X23788303Y32448856D01*
X23961230Y32525849D01*
X24114371Y32637112D01*
X24241033Y32777784D01*
X24335679Y32941716D01*
X24394174Y33121744D01*
X24413960Y33310000D01*
X24394174Y33498256D01*
X24335679Y33678284D01*
X24335676Y33678289D01*
X24335674Y33678294D01*
X24287051Y33762510D01*
X24242314Y33839997D01*
X25382659Y33839997D01*
X25401974Y33643874D01*
X25401975Y33643871D01*
X25459187Y33455270D01*
X25459188Y33455268D01*
X25530218Y33322382D01*
X25552090Y33281462D01*
X25552092Y33281460D01*
X25552093Y33281458D01*
X25677112Y33129122D01*
X25677121Y33129113D01*
X25829457Y33004094D01*
X25829462Y33004090D01*
X26003273Y32911186D01*
X26191868Y32853976D01*
X26191870Y32853976D01*
X26191873Y32853975D01*
X26387997Y32834659D01*
X26388000Y32834659D01*
X26388003Y32834659D01*
X26584126Y32853975D01*
X26584127Y32853976D01*
X26584132Y32853976D01*
X26772727Y32911186D01*
X26946538Y33004090D01*
X27098883Y33129117D01*
X27223910Y33281462D01*
X27316814Y33455273D01*
X27374024Y33643868D01*
X27375614Y33660004D01*
X27393341Y33839997D01*
X27393341Y33840004D01*
X27374025Y34036127D01*
X27374024Y34036130D01*
X27374024Y34036132D01*
X27316814Y34224727D01*
X27223910Y34398538D01*
X27217450Y34406410D01*
X27098887Y34550879D01*
X27098878Y34550888D01*
X26946542Y34675907D01*
X26946540Y34675908D01*
X26946538Y34675910D01*
X26872315Y34715583D01*
X26772732Y34768812D01*
X26772730Y34768813D01*
X26584129Y34826025D01*
X26584126Y34826026D01*
X26388003Y34845341D01*
X26387997Y34845341D01*
X26191873Y34826026D01*
X26191870Y34826025D01*
X26003269Y34768813D01*
X26003267Y34768812D01*
X25829467Y34675913D01*
X25829457Y34675907D01*
X25677121Y34550888D01*
X25677112Y34550879D01*
X25552093Y34398543D01*
X25552087Y34398533D01*
X25459188Y34224733D01*
X25459187Y34224731D01*
X25401975Y34036130D01*
X25401974Y34036127D01*
X25382659Y33840004D01*
X25382659Y33839997D01*
X24242314Y33839997D01*
X24241033Y33842216D01*
X24114371Y33982888D01*
X23961230Y34094151D01*
X23961225Y34094153D01*
X23961222Y34094155D01*
X23788305Y34171143D01*
X23788303Y34171144D01*
X23788300Y34171145D01*
X23788299Y34171145D01*
X23753080Y34178631D01*
X23603146Y34210500D01*
X23413854Y34210500D01*
X23295789Y34185405D01*
X23228700Y34171145D01*
X23228694Y34171143D01*
X23055777Y34094155D01*
X23055768Y34094150D01*
X22902629Y33982889D01*
X22902624Y33982884D01*
X22775969Y33842219D01*
X22775965Y33842213D01*
X22681325Y33678294D01*
X22681319Y33678280D01*
X22622827Y33498262D01*
X22622826Y33498258D01*
X22622826Y33498256D01*
X22603040Y33310000D01*
X16793960Y33310000D01*
X16774174Y33498256D01*
X16715679Y33678284D01*
X16715676Y33678289D01*
X16715674Y33678294D01*
X16667051Y33762510D01*
X16621033Y33842216D01*
X16494371Y33982888D01*
X16341230Y34094151D01*
X16341225Y34094153D01*
X16341222Y34094155D01*
X16168305Y34171143D01*
X16168303Y34171144D01*
X16168300Y34171145D01*
X16168299Y34171145D01*
X16133080Y34178631D01*
X15983146Y34210500D01*
X15793854Y34210500D01*
X15675789Y34185405D01*
X15608700Y34171145D01*
X15608694Y34171143D01*
X15435777Y34094155D01*
X15435768Y34094150D01*
X15282629Y33982889D01*
X15282624Y33982884D01*
X15155969Y33842219D01*
X15155965Y33842213D01*
X15061325Y33678294D01*
X15061319Y33678280D01*
X15002827Y33498262D01*
X15002826Y33498258D01*
X15002826Y33498256D01*
X14983040Y33310000D01*
X11999164Y33310000D01*
X12076814Y33455273D01*
X12134024Y33643868D01*
X12135614Y33660004D01*
X12153341Y33839997D01*
X12153341Y33840004D01*
X12134025Y34036127D01*
X12134024Y34036130D01*
X12134024Y34036132D01*
X12076814Y34224727D01*
X11983910Y34398538D01*
X11977450Y34406410D01*
X11858887Y34550879D01*
X11858878Y34550888D01*
X11706542Y34675907D01*
X11706540Y34675908D01*
X11706538Y34675910D01*
X11632315Y34715583D01*
X11532732Y34768812D01*
X11532730Y34768813D01*
X11344129Y34826025D01*
X11344126Y34826026D01*
X11148003Y34845341D01*
X11147997Y34845341D01*
X10951873Y34826026D01*
X10951870Y34826025D01*
X10763269Y34768813D01*
X10763267Y34768812D01*
X10589467Y34675913D01*
X10589457Y34675907D01*
X10437121Y34550888D01*
X10437112Y34550879D01*
X10312093Y34398543D01*
X10312087Y34398533D01*
X10219188Y34224733D01*
X10219187Y34224731D01*
X10161975Y34036130D01*
X10161974Y34036127D01*
X10142659Y33840004D01*
X10142659Y33839997D01*
X5306355Y33839997D01*
X5303801Y33865930D01*
X5303800Y33865935D01*
X5268323Y33982888D01*
X5243732Y34063954D01*
X5146185Y34246450D01*
X5014910Y34406410D01*
X5014904Y34406415D01*
X4854952Y34537684D01*
X4672454Y34635232D01*
X4474434Y34695301D01*
X4474429Y34695302D01*
X4268503Y34715583D01*
X4268497Y34715583D01*
X4062570Y34695302D01*
X4062565Y34695301D01*
X3864545Y34635232D01*
X3682047Y34537684D01*
X3522095Y34406415D01*
X3522085Y34406405D01*
X3390816Y34246453D01*
X3293268Y34063955D01*
X3233199Y33865935D01*
X3233198Y33865930D01*
X3212917Y33660004D01*
X3212917Y33659997D01*
X73977Y33659997D01*
X81098Y36899997D01*
X3344659Y36899997D01*
X3363974Y36703874D01*
X3363975Y36703871D01*
X3421187Y36515270D01*
X3421188Y36515268D01*
X3439110Y36481739D01*
X3514090Y36341462D01*
X3514092Y36341460D01*
X3514093Y36341458D01*
X3639112Y36189122D01*
X3639121Y36189113D01*
X3791457Y36064094D01*
X3791462Y36064090D01*
X3965273Y35971186D01*
X4153868Y35913976D01*
X4153870Y35913976D01*
X4153873Y35913975D01*
X4349997Y35894659D01*
X4350000Y35894659D01*
X4350003Y35894659D01*
X4546126Y35913975D01*
X4546127Y35913976D01*
X4546132Y35913976D01*
X4734727Y35971186D01*
X4908538Y36064090D01*
X5060883Y36189117D01*
X5185910Y36341462D01*
X5206507Y36379997D01*
X10142659Y36379997D01*
X10161974Y36183874D01*
X10161975Y36183871D01*
X10219187Y35995270D01*
X10219188Y35995268D01*
X10272965Y35894659D01*
X10312090Y35821462D01*
X10312092Y35821460D01*
X10312093Y35821458D01*
X10437112Y35669122D01*
X10437121Y35669113D01*
X10589457Y35544094D01*
X10589462Y35544090D01*
X10763273Y35451186D01*
X10951868Y35393976D01*
X10951870Y35393976D01*
X10951873Y35393975D01*
X11147997Y35374659D01*
X11148000Y35374659D01*
X11148003Y35374659D01*
X11344126Y35393975D01*
X11344127Y35393976D01*
X11344132Y35393976D01*
X11532727Y35451186D01*
X11706538Y35544090D01*
X11858883Y35669117D01*
X11983910Y35821462D01*
X12076814Y35995273D01*
X12134024Y36183868D01*
X12134542Y36189122D01*
X12153341Y36379997D01*
X12153341Y36380004D01*
X12134025Y36576127D01*
X12134024Y36576130D01*
X12134024Y36576132D01*
X12105549Y36670000D01*
X14898540Y36670000D01*
X14914802Y36515270D01*
X14918327Y36481739D01*
X14976819Y36301721D01*
X14976825Y36301707D01*
X15041827Y36189122D01*
X15071467Y36137784D01*
X15071469Y36137782D01*
X15137821Y36064090D01*
X15198129Y35997112D01*
X15351270Y35885849D01*
X15524197Y35808856D01*
X15709354Y35769500D01*
X15709357Y35769500D01*
X15898643Y35769500D01*
X15898646Y35769500D01*
X16083803Y35808856D01*
X16256730Y35885849D01*
X16409871Y35997112D01*
X16536533Y36137784D01*
X16631179Y36301716D01*
X16689674Y36481744D01*
X16709460Y36670000D01*
X22518540Y36670000D01*
X22534802Y36515270D01*
X22538327Y36481739D01*
X22596819Y36301721D01*
X22596825Y36301707D01*
X22661827Y36189122D01*
X22691467Y36137784D01*
X22691469Y36137782D01*
X22757821Y36064090D01*
X22818129Y35997112D01*
X22971270Y35885849D01*
X23144197Y35808856D01*
X23329354Y35769500D01*
X23329357Y35769500D01*
X23518643Y35769500D01*
X23518646Y35769500D01*
X23703803Y35808856D01*
X23876730Y35885849D01*
X24029871Y35997112D01*
X24156533Y36137784D01*
X24251179Y36301716D01*
X24276614Y36379997D01*
X25382659Y36379997D01*
X25401974Y36183874D01*
X25401975Y36183871D01*
X25459187Y35995270D01*
X25459188Y35995268D01*
X25512965Y35894659D01*
X25552090Y35821462D01*
X25552092Y35821460D01*
X25552093Y35821458D01*
X25677112Y35669122D01*
X25677121Y35669113D01*
X25829457Y35544094D01*
X25829462Y35544090D01*
X26003273Y35451186D01*
X26191868Y35393976D01*
X26191870Y35393976D01*
X26191873Y35393975D01*
X26387997Y35374659D01*
X26388000Y35374659D01*
X26388003Y35374659D01*
X26584126Y35393975D01*
X26584127Y35393976D01*
X26584132Y35393976D01*
X26772727Y35451186D01*
X26946538Y35544090D01*
X27098883Y35669117D01*
X27223910Y35821462D01*
X27316814Y35995273D01*
X27374024Y36183868D01*
X27374542Y36189122D01*
X27393341Y36379997D01*
X27393341Y36380004D01*
X27374025Y36576127D01*
X27374024Y36576130D01*
X27374024Y36576132D01*
X27316814Y36764727D01*
X27223910Y36938538D01*
X27223906Y36938543D01*
X27098887Y37090879D01*
X27098878Y37090888D01*
X26946542Y37215907D01*
X26946540Y37215908D01*
X26946538Y37215910D01*
X26817791Y37284727D01*
X26772732Y37308812D01*
X26772730Y37308813D01*
X26584129Y37366025D01*
X26584126Y37366026D01*
X26388003Y37385341D01*
X26387997Y37385341D01*
X26191873Y37366026D01*
X26191870Y37366025D01*
X26003269Y37308813D01*
X26003267Y37308812D01*
X25829467Y37215913D01*
X25829457Y37215907D01*
X25677121Y37090888D01*
X25677112Y37090879D01*
X25552093Y36938543D01*
X25552087Y36938533D01*
X25459188Y36764733D01*
X25459187Y36764731D01*
X25401975Y36576130D01*
X25401974Y36576127D01*
X25382659Y36380004D01*
X25382659Y36379997D01*
X24276614Y36379997D01*
X24309674Y36481744D01*
X24329460Y36670000D01*
X24309674Y36858256D01*
X24251179Y37038284D01*
X24251176Y37038289D01*
X24251174Y37038294D01*
X24202551Y37122510D01*
X24156533Y37202216D01*
X24060553Y37308812D01*
X24029875Y37342884D01*
X24029870Y37342889D01*
X23876731Y37454150D01*
X23876732Y37454150D01*
X23876730Y37454151D01*
X23876725Y37454153D01*
X23876722Y37454155D01*
X23703805Y37531143D01*
X23703803Y37531144D01*
X23703800Y37531145D01*
X23703799Y37531145D01*
X23668580Y37538631D01*
X23518646Y37570500D01*
X23329354Y37570500D01*
X23211289Y37545405D01*
X23144200Y37531145D01*
X23144194Y37531143D01*
X22971277Y37454155D01*
X22971268Y37454150D01*
X22818129Y37342889D01*
X22818124Y37342884D01*
X22691469Y37202219D01*
X22691465Y37202213D01*
X22596825Y37038294D01*
X22596819Y37038280D01*
X22538327Y36858262D01*
X22538326Y36858258D01*
X22538326Y36858256D01*
X22518540Y36670000D01*
X16709460Y36670000D01*
X16689674Y36858256D01*
X16631179Y37038284D01*
X16631176Y37038289D01*
X16631174Y37038294D01*
X16582551Y37122510D01*
X16536533Y37202216D01*
X16440553Y37308812D01*
X16409875Y37342884D01*
X16409870Y37342889D01*
X16256731Y37454150D01*
X16256732Y37454150D01*
X16256730Y37454151D01*
X16256725Y37454153D01*
X16256722Y37454155D01*
X16083805Y37531143D01*
X16083803Y37531144D01*
X16083800Y37531145D01*
X16083799Y37531145D01*
X16048580Y37538631D01*
X15898646Y37570500D01*
X15709354Y37570500D01*
X15591289Y37545405D01*
X15524200Y37531145D01*
X15524194Y37531143D01*
X15351277Y37454155D01*
X15351268Y37454150D01*
X15198129Y37342889D01*
X15198124Y37342884D01*
X15071469Y37202219D01*
X15071465Y37202213D01*
X14976825Y37038294D01*
X14976819Y37038280D01*
X14918327Y36858262D01*
X14918326Y36858258D01*
X14918326Y36858256D01*
X14898540Y36670000D01*
X12105549Y36670000D01*
X12076814Y36764727D01*
X11983910Y36938538D01*
X11983906Y36938543D01*
X11858887Y37090879D01*
X11858878Y37090888D01*
X11706542Y37215907D01*
X11706540Y37215908D01*
X11706538Y37215910D01*
X11577791Y37284727D01*
X11532732Y37308812D01*
X11532730Y37308813D01*
X11344129Y37366025D01*
X11344126Y37366026D01*
X11148003Y37385341D01*
X11147997Y37385341D01*
X10951873Y37366026D01*
X10951870Y37366025D01*
X10763269Y37308813D01*
X10763267Y37308812D01*
X10589467Y37215913D01*
X10589457Y37215907D01*
X10437121Y37090888D01*
X10437112Y37090879D01*
X10312093Y36938543D01*
X10312087Y36938533D01*
X10219188Y36764733D01*
X10219187Y36764731D01*
X10161975Y36576130D01*
X10161974Y36576127D01*
X10142659Y36380004D01*
X10142659Y36379997D01*
X5206507Y36379997D01*
X5278814Y36515273D01*
X5336024Y36703868D01*
X5342019Y36764731D01*
X5355341Y36899997D01*
X5355341Y36900004D01*
X5336025Y37096127D01*
X5336024Y37096130D01*
X5336024Y37096132D01*
X5278814Y37284727D01*
X5185910Y37458538D01*
X5185906Y37458543D01*
X5060887Y37610879D01*
X5060878Y37610888D01*
X4908542Y37735907D01*
X4908540Y37735908D01*
X4908538Y37735910D01*
X4867618Y37757782D01*
X4734732Y37828812D01*
X4734730Y37828813D01*
X4546129Y37886025D01*
X4546126Y37886026D01*
X4350003Y37905341D01*
X4349997Y37905341D01*
X4153873Y37886026D01*
X4153870Y37886025D01*
X3965269Y37828813D01*
X3965267Y37828812D01*
X3791467Y37735913D01*
X3791457Y37735907D01*
X3639121Y37610888D01*
X3639112Y37610879D01*
X3514093Y37458543D01*
X3514087Y37458533D01*
X3421188Y37284733D01*
X3421187Y37284731D01*
X3363975Y37096130D01*
X3363974Y37096127D01*
X3344659Y36900004D01*
X3344659Y36899997D01*
X81098Y36899997D01*
X85538Y38919997D01*
X10142659Y38919997D01*
X10161974Y38723874D01*
X10161975Y38723871D01*
X10219187Y38535270D01*
X10219188Y38535268D01*
X10290218Y38402382D01*
X10312090Y38361462D01*
X10312092Y38361460D01*
X10312093Y38361458D01*
X10437112Y38209122D01*
X10437121Y38209113D01*
X10589457Y38084094D01*
X10589462Y38084090D01*
X10763273Y37991186D01*
X10951868Y37933976D01*
X10951870Y37933976D01*
X10951873Y37933975D01*
X11147997Y37914659D01*
X11148000Y37914659D01*
X11148003Y37914659D01*
X11344126Y37933975D01*
X11344127Y37933976D01*
X11344132Y37933976D01*
X11532727Y37991186D01*
X11706538Y38084090D01*
X11858883Y38209117D01*
X11983910Y38361462D01*
X12076814Y38535273D01*
X12134024Y38723868D01*
X12153341Y38919997D01*
X25382659Y38919997D01*
X25401974Y38723874D01*
X25401975Y38723871D01*
X25459187Y38535270D01*
X25459188Y38535268D01*
X25530218Y38402382D01*
X25552090Y38361462D01*
X25552092Y38361460D01*
X25552093Y38361458D01*
X25677112Y38209122D01*
X25677121Y38209113D01*
X25829457Y38084094D01*
X25829462Y38084090D01*
X26003273Y37991186D01*
X26191868Y37933976D01*
X26191870Y37933976D01*
X26191873Y37933975D01*
X26387997Y37914659D01*
X26388000Y37914659D01*
X26388003Y37914659D01*
X26584126Y37933975D01*
X26584127Y37933976D01*
X26584132Y37933976D01*
X26772727Y37991186D01*
X26946538Y38084090D01*
X27098883Y38209117D01*
X27223910Y38361462D01*
X27316814Y38535273D01*
X27374024Y38723868D01*
X27393341Y38920000D01*
X27382620Y39028858D01*
X27374025Y39116127D01*
X27374024Y39116130D01*
X27374024Y39116132D01*
X27316814Y39304727D01*
X27223910Y39478538D01*
X27188475Y39521716D01*
X27098887Y39630879D01*
X27098878Y39630888D01*
X26946542Y39755907D01*
X26946540Y39755908D01*
X26946538Y39755910D01*
X26905618Y39777782D01*
X26772732Y39848812D01*
X26772730Y39848813D01*
X26584129Y39906025D01*
X26584126Y39906026D01*
X26388003Y39925341D01*
X26387997Y39925341D01*
X26191873Y39906026D01*
X26191870Y39906025D01*
X26003269Y39848813D01*
X26003267Y39848812D01*
X25829467Y39755913D01*
X25829457Y39755907D01*
X25677121Y39630888D01*
X25677112Y39630879D01*
X25552093Y39478543D01*
X25552087Y39478533D01*
X25459188Y39304733D01*
X25459187Y39304731D01*
X25401975Y39116130D01*
X25401974Y39116127D01*
X25382659Y38920004D01*
X25382659Y38919997D01*
X12153341Y38919997D01*
X12153341Y38920000D01*
X12142620Y39028858D01*
X12134025Y39116127D01*
X12134024Y39116130D01*
X12134024Y39116132D01*
X12076814Y39304727D01*
X11983910Y39478538D01*
X11948475Y39521716D01*
X11858887Y39630879D01*
X11858878Y39630888D01*
X11706542Y39755907D01*
X11706540Y39755908D01*
X11706538Y39755910D01*
X11665618Y39777782D01*
X11532732Y39848812D01*
X11532730Y39848813D01*
X11396956Y39890000D01*
X14914540Y39890000D01*
X14928633Y39755907D01*
X14934327Y39701739D01*
X14992819Y39521721D01*
X14992825Y39521707D01*
X15068015Y39391475D01*
X15087467Y39357784D01*
X15214129Y39217112D01*
X15367270Y39105849D01*
X15540197Y39028856D01*
X15725354Y38989500D01*
X15725357Y38989500D01*
X15914643Y38989500D01*
X15914646Y38989500D01*
X16099803Y39028856D01*
X16272730Y39105849D01*
X16425871Y39217112D01*
X16552533Y39357784D01*
X16647179Y39521716D01*
X16705674Y39701744D01*
X16725460Y39890000D01*
X22534540Y39890000D01*
X22548633Y39755907D01*
X22554327Y39701739D01*
X22612819Y39521721D01*
X22612825Y39521707D01*
X22688015Y39391475D01*
X22707467Y39357784D01*
X22834129Y39217112D01*
X22987270Y39105849D01*
X23160197Y39028856D01*
X23345354Y38989500D01*
X23345357Y38989500D01*
X23534643Y38989500D01*
X23534646Y38989500D01*
X23719803Y39028856D01*
X23892730Y39105849D01*
X24045871Y39217112D01*
X24172533Y39357784D01*
X24267179Y39521716D01*
X24325674Y39701744D01*
X24345460Y39890000D01*
X24325674Y40078256D01*
X24267179Y40258284D01*
X24267176Y40258289D01*
X24267174Y40258294D01*
X24218551Y40342510D01*
X24172533Y40422216D01*
X24045871Y40562888D01*
X23892730Y40674151D01*
X23892725Y40674153D01*
X23892722Y40674155D01*
X23754388Y40735746D01*
X23719803Y40751144D01*
X23719800Y40751145D01*
X23719799Y40751145D01*
X23684580Y40758631D01*
X23534646Y40790500D01*
X23345354Y40790500D01*
X23227289Y40765405D01*
X23160200Y40751145D01*
X23160194Y40751143D01*
X22987277Y40674155D01*
X22987268Y40674150D01*
X22834129Y40562889D01*
X22834124Y40562884D01*
X22707469Y40422219D01*
X22707465Y40422213D01*
X22612825Y40258294D01*
X22612819Y40258280D01*
X22554327Y40078262D01*
X22554326Y40078258D01*
X22554326Y40078256D01*
X22534540Y39890000D01*
X16725460Y39890000D01*
X16705674Y40078256D01*
X16647179Y40258284D01*
X16647176Y40258289D01*
X16647174Y40258294D01*
X16598551Y40342510D01*
X16552533Y40422216D01*
X16425871Y40562888D01*
X16272730Y40674151D01*
X16272725Y40674153D01*
X16272722Y40674155D01*
X16134388Y40735746D01*
X16099803Y40751144D01*
X16099800Y40751145D01*
X16099799Y40751145D01*
X16064580Y40758631D01*
X15914646Y40790500D01*
X15725354Y40790500D01*
X15607289Y40765405D01*
X15540200Y40751145D01*
X15540194Y40751143D01*
X15367277Y40674155D01*
X15367268Y40674150D01*
X15214129Y40562889D01*
X15214124Y40562884D01*
X15087469Y40422219D01*
X15087465Y40422213D01*
X14992825Y40258294D01*
X14992819Y40258280D01*
X14934327Y40078262D01*
X14934326Y40078258D01*
X14934326Y40078256D01*
X14914540Y39890000D01*
X11396956Y39890000D01*
X11344129Y39906025D01*
X11344126Y39906026D01*
X11148003Y39925341D01*
X11147997Y39925341D01*
X10951873Y39906026D01*
X10951870Y39906025D01*
X10763269Y39848813D01*
X10763267Y39848812D01*
X10589467Y39755913D01*
X10589457Y39755907D01*
X10437121Y39630888D01*
X10437112Y39630879D01*
X10312093Y39478543D01*
X10312087Y39478533D01*
X10219188Y39304733D01*
X10219187Y39304731D01*
X10161975Y39116130D01*
X10161974Y39116127D01*
X10142659Y38920004D01*
X10142659Y38919997D01*
X85538Y38919997D01*
X92087Y41899997D01*
X3345161Y41899997D01*
X3364467Y41703971D01*
X3364468Y41703966D01*
X3421650Y41515465D01*
X3421652Y41515460D01*
X3514502Y41341749D01*
X3514506Y41341743D01*
X3575724Y41267148D01*
X4005414Y41696839D01*
X4029920Y41654394D01*
X4104394Y41579920D01*
X4146836Y41555417D01*
X3717146Y41125726D01*
X3791741Y41064507D01*
X3791747Y41064503D01*
X3965459Y40971653D01*
X3965464Y40971651D01*
X4153965Y40914469D01*
X4153970Y40914468D01*
X4349997Y40895161D01*
X4350003Y40895161D01*
X4546029Y40914468D01*
X4546034Y40914469D01*
X4734535Y40971651D01*
X4734540Y40971653D01*
X4908253Y41064505D01*
X4908258Y41064508D01*
X4982852Y41125726D01*
X4553162Y41555416D01*
X4595606Y41579920D01*
X4670080Y41654394D01*
X4694584Y41696838D01*
X5124274Y41267148D01*
X5185492Y41341742D01*
X5185495Y41341747D01*
X5248701Y41459997D01*
X10142659Y41459997D01*
X10161974Y41263874D01*
X10161975Y41263871D01*
X10219187Y41075270D01*
X10219188Y41075268D01*
X10274572Y40971653D01*
X10312090Y40901462D01*
X10312092Y40901460D01*
X10312093Y40901458D01*
X10437112Y40749122D01*
X10437121Y40749113D01*
X10528464Y40674150D01*
X10589462Y40624090D01*
X10763273Y40531186D01*
X10951868Y40473976D01*
X10951870Y40473976D01*
X10951873Y40473975D01*
X11147997Y40454659D01*
X11148000Y40454659D01*
X11148003Y40454659D01*
X11344126Y40473975D01*
X11344127Y40473976D01*
X11344132Y40473976D01*
X11532727Y40531186D01*
X11706538Y40624090D01*
X11858883Y40749117D01*
X11983910Y40901462D01*
X12076814Y41075273D01*
X12134024Y41263868D01*
X12141695Y41341747D01*
X12153341Y41459997D01*
X25382659Y41459997D01*
X25401974Y41263874D01*
X25401975Y41263871D01*
X25459187Y41075270D01*
X25459188Y41075268D01*
X25514572Y40971653D01*
X25552090Y40901462D01*
X25552092Y40901460D01*
X25552093Y40901458D01*
X25677112Y40749122D01*
X25677121Y40749113D01*
X25768464Y40674150D01*
X25829462Y40624090D01*
X26003273Y40531186D01*
X26191868Y40473976D01*
X26191870Y40473976D01*
X26191873Y40473975D01*
X26387997Y40454659D01*
X26388000Y40454659D01*
X26388003Y40454659D01*
X26584126Y40473975D01*
X26584127Y40473976D01*
X26584132Y40473976D01*
X26772727Y40531186D01*
X26946538Y40624090D01*
X27098883Y40749117D01*
X27223910Y40901462D01*
X27316814Y41075273D01*
X27374024Y41263868D01*
X27381695Y41341747D01*
X27393341Y41459997D01*
X27393341Y41460004D01*
X27374025Y41656127D01*
X27374024Y41656130D01*
X27374024Y41656132D01*
X27316814Y41844727D01*
X27223910Y42018538D01*
X27160310Y42096035D01*
X27098887Y42170879D01*
X27098878Y42170888D01*
X26946542Y42295907D01*
X26946540Y42295908D01*
X26946538Y42295910D01*
X26905618Y42317782D01*
X26772732Y42388812D01*
X26772730Y42388813D01*
X26584129Y42446025D01*
X26584126Y42446026D01*
X26388003Y42465341D01*
X26387997Y42465341D01*
X26191873Y42446026D01*
X26191870Y42446025D01*
X26003269Y42388813D01*
X26003267Y42388812D01*
X25829467Y42295913D01*
X25829457Y42295907D01*
X25677121Y42170888D01*
X25677112Y42170879D01*
X25552093Y42018543D01*
X25552087Y42018533D01*
X25459188Y41844733D01*
X25459187Y41844731D01*
X25401975Y41656130D01*
X25401974Y41656127D01*
X25382659Y41460004D01*
X25382659Y41459997D01*
X12153341Y41459997D01*
X12153341Y41460004D01*
X12134025Y41656127D01*
X12134024Y41656130D01*
X12134024Y41656132D01*
X12076814Y41844727D01*
X11983910Y42018538D01*
X11920310Y42096035D01*
X11858887Y42170879D01*
X11858878Y42170888D01*
X11706542Y42295907D01*
X11706540Y42295908D01*
X11706538Y42295910D01*
X11665618Y42317782D01*
X11532732Y42388812D01*
X11532730Y42388813D01*
X11344129Y42446025D01*
X11344126Y42446026D01*
X11148003Y42465341D01*
X11147997Y42465341D01*
X10951873Y42446026D01*
X10951870Y42446025D01*
X10763269Y42388813D01*
X10763267Y42388812D01*
X10589467Y42295913D01*
X10589457Y42295907D01*
X10437121Y42170888D01*
X10437112Y42170879D01*
X10312093Y42018543D01*
X10312087Y42018533D01*
X10219188Y41844733D01*
X10219187Y41844731D01*
X10161975Y41656130D01*
X10161974Y41656127D01*
X10142659Y41460004D01*
X10142659Y41459997D01*
X5248701Y41459997D01*
X5278347Y41515460D01*
X5278349Y41515465D01*
X5335531Y41703966D01*
X5335532Y41703971D01*
X5354839Y41899997D01*
X5354839Y41900004D01*
X5335532Y42096030D01*
X5335531Y42096035D01*
X5278349Y42284536D01*
X5278347Y42284541D01*
X5185497Y42458253D01*
X5185493Y42458259D01*
X5124274Y42532854D01*
X4694583Y42103164D01*
X4670080Y42145606D01*
X4595606Y42220080D01*
X4553161Y42244586D01*
X4982852Y42674276D01*
X4908257Y42735494D01*
X4908251Y42735498D01*
X4734540Y42828348D01*
X4734535Y42828350D01*
X4546034Y42885532D01*
X4546029Y42885533D01*
X4350003Y42904839D01*
X4349997Y42904839D01*
X4153970Y42885533D01*
X4153965Y42885532D01*
X3965464Y42828350D01*
X3965459Y42828348D01*
X3791747Y42735497D01*
X3791737Y42735491D01*
X3717146Y42674276D01*
X4146837Y42244585D01*
X4104394Y42220080D01*
X4029920Y42145606D01*
X4005415Y42103163D01*
X3575724Y42532854D01*
X3514509Y42458263D01*
X3514503Y42458253D01*
X3421652Y42284541D01*
X3421650Y42284536D01*
X3364468Y42096035D01*
X3364467Y42096030D01*
X3345161Y41900004D01*
X3345161Y41899997D01*
X92087Y41899997D01*
X102043Y46430000D01*
X942916Y46430000D01*
X963235Y46081129D01*
X1023917Y45736985D01*
X1124144Y45402202D01*
X1124145Y45402200D01*
X1262556Y45081328D01*
X1262559Y45081321D01*
X1437288Y44778681D01*
X1437290Y44778678D01*
X1645974Y44498366D01*
X1757127Y44380552D01*
X2745916Y45369342D01*
X2887339Y45227919D01*
X1895473Y44236052D01*
X2153493Y44019549D01*
X2445452Y43827524D01*
X2757744Y43670685D01*
X2757748Y43670684D01*
X3086136Y43551160D01*
X3426162Y43470572D01*
X3773273Y43430000D01*
X4122727Y43430000D01*
X4469837Y43470572D01*
X4809863Y43551160D01*
X5138251Y43670684D01*
X5138255Y43670685D01*
X5450547Y43827524D01*
X5576307Y43910238D01*
X10007500Y43910238D01*
X10035581Y43732937D01*
X10072277Y43620000D01*
X10091057Y43562200D01*
X10134049Y43477823D01*
X10172556Y43402249D01*
X10172558Y43402245D01*
X10278070Y43257020D01*
X10278072Y43257018D01*
X10278075Y43257014D01*
X10405014Y43130075D01*
X10405017Y43130073D01*
X10405019Y43130071D01*
X10550244Y43024559D01*
X10550248Y43024557D01*
X10710200Y42943057D01*
X10880932Y42887583D01*
X10880933Y42887583D01*
X10880936Y42887582D01*
X11058238Y42859500D01*
X11058241Y42859500D01*
X11237762Y42859500D01*
X11415063Y42887582D01*
X11415064Y42887583D01*
X11415068Y42887583D01*
X11585800Y42943057D01*
X11745752Y43024557D01*
X11890986Y43130075D01*
X12017925Y43257014D01*
X12123443Y43402248D01*
X12204943Y43562200D01*
X12223723Y43620000D01*
X14842540Y43620000D01*
X14862327Y43431739D01*
X14920819Y43251721D01*
X14920825Y43251707D01*
X14991050Y43130075D01*
X15015467Y43087784D01*
X15142129Y42947112D01*
X15295270Y42835849D01*
X15468197Y42758856D01*
X15653354Y42719500D01*
X15653357Y42719500D01*
X15842643Y42719500D01*
X15842646Y42719500D01*
X16027803Y42758856D01*
X16200730Y42835849D01*
X16353871Y42947112D01*
X16480533Y43087784D01*
X16575179Y43251716D01*
X16633674Y43431744D01*
X16653460Y43620000D01*
X22462540Y43620000D01*
X22482327Y43431739D01*
X22540819Y43251721D01*
X22540825Y43251707D01*
X22611050Y43130075D01*
X22635467Y43087784D01*
X22762129Y42947112D01*
X22915270Y42835849D01*
X23088197Y42758856D01*
X23273354Y42719500D01*
X23273357Y42719500D01*
X23462643Y42719500D01*
X23462646Y42719500D01*
X23647803Y42758856D01*
X23820730Y42835849D01*
X23973871Y42947112D01*
X24100533Y43087784D01*
X24195179Y43251716D01*
X24253674Y43431744D01*
X24273460Y43620000D01*
X24253674Y43808256D01*
X24220538Y43910238D01*
X25247500Y43910238D01*
X25275581Y43732937D01*
X25312277Y43620000D01*
X25331057Y43562200D01*
X25374049Y43477823D01*
X25412556Y43402249D01*
X25412558Y43402245D01*
X25518070Y43257020D01*
X25518072Y43257018D01*
X25518075Y43257014D01*
X25645014Y43130075D01*
X25645017Y43130073D01*
X25645019Y43130071D01*
X25790244Y43024559D01*
X25790248Y43024557D01*
X25950200Y42943057D01*
X26120932Y42887583D01*
X26120933Y42887583D01*
X26120936Y42887582D01*
X26298238Y42859500D01*
X26298241Y42859500D01*
X26477762Y42859500D01*
X26655063Y42887582D01*
X26655064Y42887583D01*
X26655068Y42887583D01*
X26825800Y42943057D01*
X26985752Y43024557D01*
X27130986Y43130075D01*
X27257925Y43257014D01*
X27363443Y43402248D01*
X27444943Y43562200D01*
X27500417Y43732932D01*
X27528500Y43910241D01*
X27528500Y44089759D01*
X27528500Y44089763D01*
X27500418Y44267064D01*
X27492028Y44292888D01*
X27444943Y44437800D01*
X27363443Y44597752D01*
X27363441Y44597756D01*
X27257929Y44742981D01*
X27257927Y44742983D01*
X27257925Y44742986D01*
X27130986Y44869925D01*
X27130982Y44869928D01*
X27130980Y44869930D01*
X26985755Y44975442D01*
X26985751Y44975444D01*
X26910177Y45013951D01*
X26825800Y45056943D01*
X26825797Y45056944D01*
X26825795Y45056945D01*
X26655063Y45112419D01*
X26477762Y45140500D01*
X26477759Y45140500D01*
X26298241Y45140500D01*
X26298238Y45140500D01*
X26120936Y45112419D01*
X25950204Y45056945D01*
X25790248Y44975444D01*
X25790244Y44975442D01*
X25645019Y44869930D01*
X25518070Y44742981D01*
X25412558Y44597756D01*
X25412556Y44597752D01*
X25331055Y44437796D01*
X25275581Y44267064D01*
X25247500Y44089763D01*
X25247500Y43910238D01*
X24220538Y43910238D01*
X24195179Y43988284D01*
X24195176Y43988289D01*
X24195174Y43988294D01*
X24136590Y44089763D01*
X24100533Y44152216D01*
X23997123Y44267064D01*
X23973875Y44292884D01*
X23973870Y44292889D01*
X23820731Y44404150D01*
X23820732Y44404150D01*
X23820730Y44404151D01*
X23820725Y44404153D01*
X23820722Y44404155D01*
X23647805Y44481143D01*
X23647803Y44481144D01*
X23647800Y44481145D01*
X23647799Y44481145D01*
X23612580Y44488631D01*
X23462646Y44520500D01*
X23273354Y44520500D01*
X23169221Y44498366D01*
X23088200Y44481145D01*
X23088194Y44481143D01*
X22915277Y44404155D01*
X22915268Y44404150D01*
X22762129Y44292889D01*
X22762124Y44292884D01*
X22635469Y44152219D01*
X22635465Y44152213D01*
X22540825Y43988294D01*
X22540819Y43988280D01*
X22482327Y43808262D01*
X22482326Y43808258D01*
X22482326Y43808256D01*
X22467867Y43670685D01*
X22462540Y43620000D01*
X16653460Y43620000D01*
X16633674Y43808256D01*
X16575179Y43988284D01*
X16575176Y43988289D01*
X16575174Y43988294D01*
X16516590Y44089763D01*
X16480533Y44152216D01*
X16377123Y44267064D01*
X16353875Y44292884D01*
X16353870Y44292889D01*
X16200731Y44404150D01*
X16200732Y44404150D01*
X16200730Y44404151D01*
X16200725Y44404153D01*
X16200722Y44404155D01*
X16027805Y44481143D01*
X16027803Y44481144D01*
X16027800Y44481145D01*
X16027799Y44481145D01*
X15992580Y44488631D01*
X15842646Y44520500D01*
X15653354Y44520500D01*
X15549221Y44498366D01*
X15468200Y44481145D01*
X15468194Y44481143D01*
X15295277Y44404155D01*
X15295268Y44404150D01*
X15142129Y44292889D01*
X15142124Y44292884D01*
X15015469Y44152219D01*
X15015465Y44152213D01*
X14920825Y43988294D01*
X14920819Y43988280D01*
X14862327Y43808262D01*
X14862326Y43808258D01*
X14862326Y43808256D01*
X14847867Y43670685D01*
X14842540Y43620000D01*
X12223723Y43620000D01*
X12260417Y43732932D01*
X12288500Y43910241D01*
X12288500Y44089759D01*
X12288500Y44089763D01*
X12260418Y44267064D01*
X12252028Y44292888D01*
X12204943Y44437800D01*
X12123443Y44597752D01*
X12123441Y44597756D01*
X12017929Y44742981D01*
X12017927Y44742983D01*
X12017925Y44742986D01*
X11890986Y44869925D01*
X11890982Y44869928D01*
X11890980Y44869930D01*
X11745755Y44975442D01*
X11745751Y44975444D01*
X11670177Y45013951D01*
X11585800Y45056943D01*
X11585797Y45056944D01*
X11585795Y45056945D01*
X11415063Y45112419D01*
X11237762Y45140500D01*
X11237759Y45140500D01*
X11058241Y45140500D01*
X11058238Y45140500D01*
X10880936Y45112419D01*
X10710204Y45056945D01*
X10550248Y44975444D01*
X10550244Y44975442D01*
X10405019Y44869930D01*
X10278070Y44742981D01*
X10172558Y44597756D01*
X10172556Y44597752D01*
X10091055Y44437796D01*
X10035581Y44267064D01*
X10007500Y44089763D01*
X10007500Y43910238D01*
X5576307Y43910238D01*
X5742509Y44019551D01*
X5742514Y44019555D01*
X6000525Y44236052D01*
X5008659Y45227918D01*
X5150082Y45369341D01*
X6138871Y44380552D01*
X6250026Y44498368D01*
X6250030Y44498374D01*
X6458709Y44778678D01*
X6458711Y44778681D01*
X6633440Y45081321D01*
X6633443Y45081328D01*
X6771854Y45402200D01*
X6771855Y45402202D01*
X6872082Y45736985D01*
X6932764Y46081129D01*
X6953083Y46430000D01*
X6932764Y46778872D01*
X6872082Y47123016D01*
X6774191Y47449996D01*
X8257939Y47449996D01*
X8278144Y47219045D01*
X8338151Y46995093D01*
X8436132Y46784971D01*
X8569110Y46595058D01*
X8580372Y46583796D01*
X9062729Y47066155D01*
X9083112Y47035649D01*
X9173649Y46945112D01*
X9204152Y46924731D01*
X8721795Y46442373D01*
X8733057Y46431111D01*
X8922970Y46298133D01*
X9133092Y46200152D01*
X9357044Y46140145D01*
X9587996Y46119939D01*
X9588004Y46119939D01*
X9818955Y46140145D01*
X10042907Y46200152D01*
X10253029Y46298133D01*
X10263199Y46305254D01*
X14762500Y46305254D01*
X14762501Y46305242D01*
X14774132Y46246773D01*
X14774133Y46246769D01*
X14818448Y46180448D01*
X14884769Y46136133D01*
X14929231Y46127289D01*
X14943241Y46124502D01*
X14943246Y46124502D01*
X14943252Y46124500D01*
X14943253Y46124500D01*
X17232747Y46124500D01*
X17232748Y46124500D01*
X17291231Y46136133D01*
X17357552Y46180448D01*
X17401867Y46246769D01*
X17413500Y46305252D01*
X17413500Y48594748D01*
X17401867Y48653231D01*
X17357552Y48719552D01*
X17297234Y48759856D01*
X17291233Y48763866D01*
X17291231Y48763867D01*
X17291228Y48763868D01*
X17291227Y48763868D01*
X17232758Y48775499D01*
X17232748Y48775500D01*
X14943252Y48775500D01*
X14943251Y48775500D01*
X14943241Y48775499D01*
X14884772Y48763868D01*
X14884766Y48763866D01*
X14818451Y48719555D01*
X14818445Y48719549D01*
X14774134Y48653234D01*
X14774132Y48653228D01*
X14762501Y48594759D01*
X14762500Y48594747D01*
X14762500Y46305254D01*
X10263199Y46305254D01*
X10442942Y46431111D01*
X10442954Y46431121D01*
X10454205Y46442373D01*
X9971847Y46924731D01*
X10002351Y46945112D01*
X10092888Y47035649D01*
X10113269Y47066154D01*
X10595627Y46583796D01*
X10606879Y46595046D01*
X10606889Y46595058D01*
X10739867Y46784971D01*
X10837848Y46995093D01*
X10897855Y47219045D01*
X10918061Y47449996D01*
X10918061Y47450005D01*
X10897855Y47680956D01*
X10837847Y47904913D01*
X10739872Y48115020D01*
X10739868Y48115028D01*
X10606889Y48304943D01*
X10595627Y48316205D01*
X10113269Y47833848D01*
X10092888Y47864351D01*
X10002351Y47954888D01*
X9971845Y47975271D01*
X10454204Y48457628D01*
X10442942Y48468890D01*
X10253029Y48601868D01*
X10042907Y48699849D01*
X9818955Y48759856D01*
X9588004Y48780061D01*
X9587996Y48780061D01*
X9357044Y48759856D01*
X9133087Y48699848D01*
X8922980Y48601873D01*
X8922972Y48601869D01*
X8733051Y48468885D01*
X8721794Y48457629D01*
X9204153Y47975270D01*
X9173649Y47954888D01*
X9083112Y47864351D01*
X9062730Y47833847D01*
X8580371Y48316206D01*
X8569115Y48304949D01*
X8436131Y48115028D01*
X8436127Y48115020D01*
X8338152Y47904913D01*
X8278144Y47680956D01*
X8257939Y47450005D01*
X8257939Y47449996D01*
X6774191Y47449996D01*
X6771855Y47457799D01*
X6771854Y47457801D01*
X6633443Y47778673D01*
X6633440Y47778680D01*
X6458711Y48081320D01*
X6458709Y48081323D01*
X6250025Y48361635D01*
X6138871Y48479450D01*
X5150081Y47490661D01*
X5008658Y47632084D01*
X6000525Y48623950D01*
X5742506Y48840452D01*
X5450547Y49032477D01*
X5138255Y49189316D01*
X5138251Y49189317D01*
X4809863Y49308841D01*
X4469837Y49389429D01*
X4122727Y49430000D01*
X3773273Y49430000D01*
X3426162Y49389429D01*
X3086136Y49308841D01*
X2757748Y49189317D01*
X2757744Y49189316D01*
X2445452Y49032477D01*
X2153493Y48840452D01*
X1895473Y48623950D01*
X2887340Y47632083D01*
X2745917Y47490660D01*
X1757127Y48479450D01*
X1645975Y48361635D01*
X1437290Y48081323D01*
X1437288Y48081320D01*
X1262559Y47778680D01*
X1262556Y47778673D01*
X1124145Y47457801D01*
X1124144Y47457799D01*
X1023917Y47123016D01*
X963235Y46778872D01*
X942916Y46430000D01*
X102043Y46430000D01*
X109782Y49951089D01*
X128817Y50009236D01*
X178396Y50045091D01*
X208908Y50049869D01*
X29942457Y50010224D01*
G37*
%TD.AperFunction*%
%TD*%
D26*
X30052000Y50080000D02*
X30000000Y0D01*
X60000Y50080000D02*
X30052000Y50080000D01*
X8000Y0D02*
X60000Y50080000D01*
X30000000Y0D02*
X8000Y0D01*
M02*
