<?xml version="1.0" standalone="no"?>
 <!DOCTYPE svg PUBLIC "-//W3C//DTD SVG 1.1//EN" 
 "http://www.w3.org/Graphics/SVG/1.1/DTD/svg11.dtd"> 
<svg
  xmlns:svg="http://www.w3.org/2000/svg"
  xmlns="http://www.w3.org/2000/svg"
  xmlns:xlink="http://www.w3.org/1999/xlink"
  version="1.1"
  width="297.0022mm" height="210.0072mm" viewBox="0.0000 0.0000 297.0022 210.0072">
<title>SVG Image created as LCRDT-Tester-NPTH-drl_map.svg date 2024/04/05 21:52:28 </title>
  <desc>Image generated by PCBNEW </desc>
<g style="fill:#000000; fill-opacity:1.0000;stroke:#000000; stroke-opacity:1.0000;
stroke-linecap:round; stroke-linejoin:round;"
 transform="translate(0 0) scale(1 1)">
</g>
<g style="fill:none; 
stroke:#000000; stroke-width:0.3464; stroke-opacity:1; 
stroke-linecap:round; stroke-linejoin:round;">
<path d="M183.1939 5.1732
L183.0738 120.8311
" />
<path d="M113.9284 5.1732
L183.1939 5.1732
" />
<path d="M113.8083 120.8311
L113.9284 5.1732
" />
<path d="M183.0738 120.8311
L113.8083 120.8311
" />
</g>
<g style="fill:none; 
stroke:#000000; stroke-width:0.4111; stroke-opacity:1; 
stroke-linecap:round; stroke-linejoin:round;">
<path d="M137.4803 17.1593
L141.5912 21.2702
" />
<path d="M141.5912 17.1593
L137.4803 21.2702
" />
<path d="M137.4803 111.0159
L141.5912 115.1267
" />
<path d="M141.5912 111.0159
L137.4803 115.1267
" />
<path d="M172.6766 17.1593
L176.7874 21.2702
" />
<path d="M176.7874 17.1593
L172.6766 21.2702
" />
<path d="M172.6766 111.0159
L176.7874 115.1267
" />
<path d="M176.7874 111.0159
L172.6766 115.1267
" />
</g>
<g style="fill:none; 
stroke:#000000; stroke-width:0.2000; stroke-opacity:1; 
stroke-linecap:round; stroke-linejoin:round;">
<text x="115.6351" y="124.2043"
textLength="14.8667" font-size="2.6667" lengthAdjust="spacingAndGlyphs"
text-anchor="start" opacity="0">Drill Map:</text>
<g class="stroked-text"><desc>Drill Map:</desc>
<path d="M116.2429 124.1192
L116.2429 122.1192
" />
<path d="M116.2429 122.1192
L116.7191 122.1192
" />
<path d="M116.7191 122.1192
L117.0048 122.2144
" />
<path d="M117.0048 122.2144
L117.1953 122.4049
" />
<path d="M117.1953 122.4049
L117.2905 122.5953
" />
<path d="M117.2905 122.5953
L117.3858 122.9763
" />
<path d="M117.3858 122.9763
L117.3858 123.2620
" />
<path d="M117.3858 123.2620
L117.2905 123.6430
" />
<path d="M117.2905 123.6430
L117.1953 123.8334
" />
<path d="M117.1953 123.8334
L117.0048 124.0239
" />
<path d="M117.0048 124.0239
L116.7191 124.1192
" />
<path d="M116.7191 124.1192
L116.2429 124.1192
" />
<path d="M118.2429 124.1192
L118.2429 122.7858
" />
<path d="M118.2429 123.1668
L118.3381 122.9763
" />
<path d="M118.3381 122.9763
L118.4334 122.8811
" />
<path d="M118.4334 122.8811
L118.6239 122.7858
" />
<path d="M118.6239 122.7858
L118.8143 122.7858
" />
<path d="M119.4810 124.1192
L119.4810 122.7858
" />
<path d="M119.4810 122.1192
L119.3858 122.2144
" />
<path d="M119.3858 122.2144
L119.4810 122.3096
" />
<path d="M119.4810 122.3096
L119.5762 122.2144
" />
<path d="M119.5762 122.2144
L119.4810 122.1192
" />
<path d="M119.4810 122.1192
L119.4810 122.3096
" />
<path d="M120.7191 124.1192
L120.5286 124.0239
" />
<path d="M120.5286 124.0239
L120.4334 123.8334
" />
<path d="M120.4334 123.8334
L120.4334 122.1192
" />
<path d="M121.7667 124.1192
L121.5762 124.0239
" />
<path d="M121.5762 124.0239
L121.4810 123.8334
" />
<path d="M121.4810 123.8334
L121.4810 122.1192
" />
<path d="M124.0524 124.1192
L124.0524 122.1192
" />
<path d="M124.0524 122.1192
L124.7191 123.5477
" />
<path d="M124.7191 123.5477
L125.3858 122.1192
" />
<path d="M125.3858 122.1192
L125.3858 124.1192
" />
<path d="M127.1953 124.1192
L127.1953 123.0715
" />
<path d="M127.1953 123.0715
L127.1000 122.8811
" />
<path d="M127.1000 122.8811
L126.9096 122.7858
" />
<path d="M126.9096 122.7858
L126.5286 122.7858
" />
<path d="M126.5286 122.7858
L126.3381 122.8811
" />
<path d="M127.1953 124.0239
L127.0048 124.1192
" />
<path d="M127.0048 124.1192
L126.5286 124.1192
" />
<path d="M126.5286 124.1192
L126.3381 124.0239
" />
<path d="M126.3381 124.0239
L126.2429 123.8334
" />
<path d="M126.2429 123.8334
L126.2429 123.6430
" />
<path d="M126.2429 123.6430
L126.3381 123.4525
" />
<path d="M126.3381 123.4525
L126.5286 123.3573
" />
<path d="M126.5286 123.3573
L127.0048 123.3573
" />
<path d="M127.0048 123.3573
L127.1953 123.2620
" />
<path d="M128.1477 122.7858
L128.1477 124.7858
" />
<path d="M128.1477 122.8811
L128.3381 122.7858
" />
<path d="M128.3381 122.7858
L128.7191 122.7858
" />
<path d="M128.7191 122.7858
L128.9096 122.8811
" />
<path d="M128.9096 122.8811
L129.0048 122.9763
" />
<path d="M129.0048 122.9763
L129.1000 123.1668
" />
<path d="M129.1000 123.1668
L129.1000 123.7382
" />
<path d="M129.1000 123.7382
L129.0048 123.9287
" />
<path d="M129.0048 123.9287
L128.9096 124.0239
" />
<path d="M128.9096 124.0239
L128.7191 124.1192
" />
<path d="M128.7191 124.1192
L128.3381 124.1192
" />
<path d="M128.3381 124.1192
L128.1477 124.0239
" />
<path d="M129.9572 123.9287
L130.0524 124.0239
" />
<path d="M130.0524 124.0239
L129.9572 124.1192
" />
<path d="M129.9572 124.1192
L129.8619 124.0239
" />
<path d="M129.8619 124.0239
L129.9572 123.9287
" />
<path d="M129.9572 123.9287
L129.9572 124.1192
" />
<path d="M129.9572 122.8811
L130.0524 122.9763
" />
<path d="M130.0524 122.9763
L129.9572 123.0715
" />
<path d="M129.9572 123.0715
L129.8619 122.9763
" />
<path d="M129.8619 122.9763
L129.9572 122.8811
" />
<path d="M129.9572 122.8811
L129.9572 123.0715
" />
</g></g>
<g style="fill:none; 
stroke:#000000; stroke-width:0.2309; stroke-opacity:1; 
stroke-linecap:round; stroke-linejoin:round;">
<path d="M111.6351 126.4043
L113.6351 128.4043
" />
<path d="M113.6351 126.4043
L111.6351 128.4043
" />
</g>
<g style="fill:none; 
stroke:#000000; stroke-width:0.2000; stroke-opacity:1; 
stroke-linecap:round; stroke-linejoin:round;">
<text x="115.6351" y="128.4043"
textLength="66.6762" font-size="2.6667" lengthAdjust="spacingAndGlyphs"
text-anchor="start" opacity="0">1.780mm / 0.0701" (4 holes) (not plated)</text>
<g class="stroked-text"><desc>1.780mm / 0.0701" (4 holes) (not plated)</desc>
<path d="M117.2905 128.3192
L116.1477 128.3192
" />
<path d="M116.7191 128.3192
L116.7191 126.3192
" />
<path d="M116.7191 126.3192
L116.5286 126.6049
" />
<path d="M116.5286 126.6049
L116.3381 126.7953
" />
<path d="M116.3381 126.7953
L116.1477 126.8906
" />
<path d="M118.1477 128.1287
L118.2429 128.2239
" />
<path d="M118.2429 128.2239
L118.1477 128.3192
" />
<path d="M118.1477 128.3192
L118.0524 128.2239
" />
<path d="M118.0524 128.2239
L118.1477 128.1287
" />
<path d="M118.1477 128.1287
L118.1477 128.3192
" />
<path d="M118.9096 126.3192
L120.2429 126.3192
" />
<path d="M120.2429 126.3192
L119.3858 128.3192
" />
<path d="M121.2905 127.1763
L121.1000 127.0811
" />
<path d="M121.1000 127.0811
L121.0048 126.9858
" />
<path d="M121.0048 126.9858
L120.9096 126.7953
" />
<path d="M120.9096 126.7953
L120.9096 126.7001
" />
<path d="M120.9096 126.7001
L121.0048 126.5096
" />
<path d="M121.0048 126.5096
L121.1000 126.4144
" />
<path d="M121.1000 126.4144
L121.2905 126.3192
" />
<path d="M121.2905 126.3192
L121.6715 126.3192
" />
<path d="M121.6715 126.3192
L121.8620 126.4144
" />
<path d="M121.8620 126.4144
L121.9572 126.5096
" />
<path d="M121.9572 126.5096
L122.0524 126.7001
" />
<path d="M122.0524 126.7001
L122.0524 126.7953
" />
<path d="M122.0524 126.7953
L121.9572 126.9858
" />
<path d="M121.9572 126.9858
L121.8620 127.0811
" />
<path d="M121.8620 127.0811
L121.6715 127.1763
" />
<path d="M121.6715 127.1763
L121.2905 127.1763
" />
<path d="M121.2905 127.1763
L121.1000 127.2715
" />
<path d="M121.1000 127.2715
L121.0048 127.3668
" />
<path d="M121.0048 127.3668
L120.9096 127.5572
" />
<path d="M120.9096 127.5572
L120.9096 127.9382
" />
<path d="M120.9096 127.9382
L121.0048 128.1287
" />
<path d="M121.0048 128.1287
L121.1000 128.2239
" />
<path d="M121.1000 128.2239
L121.2905 128.3192
" />
<path d="M121.2905 128.3192
L121.6715 128.3192
" />
<path d="M121.6715 128.3192
L121.8620 128.2239
" />
<path d="M121.8620 128.2239
L121.9572 128.1287
" />
<path d="M121.9572 128.1287
L122.0524 127.9382
" />
<path d="M122.0524 127.9382
L122.0524 127.5572
" />
<path d="M122.0524 127.5572
L121.9572 127.3668
" />
<path d="M121.9572 127.3668
L121.8620 127.2715
" />
<path d="M121.8620 127.2715
L121.6715 127.1763
" />
<path d="M123.2905 126.3192
L123.4810 126.3192
" />
<path d="M123.4810 126.3192
L123.6715 126.4144
" />
<path d="M123.6715 126.4144
L123.7667 126.5096
" />
<path d="M123.7667 126.5096
L123.8620 126.7001
" />
<path d="M123.8620 126.7001
L123.9572 127.0811
" />
<path d="M123.9572 127.0811
L123.9572 127.5572
" />
<path d="M123.9572 127.5572
L123.8620 127.9382
" />
<path d="M123.8620 127.9382
L123.7667 128.1287
" />
<path d="M123.7667 128.1287
L123.6715 128.2239
" />
<path d="M123.6715 128.2239
L123.4810 128.3192
" />
<path d="M123.4810 128.3192
L123.2905 128.3192
" />
<path d="M123.2905 128.3192
L123.1000 128.2239
" />
<path d="M123.1000 128.2239
L123.0048 128.1287
" />
<path d="M123.0048 128.1287
L122.9096 127.9382
" />
<path d="M122.9096 127.9382
L122.8143 127.5572
" />
<path d="M122.8143 127.5572
L122.8143 127.0811
" />
<path d="M122.8143 127.0811
L122.9096 126.7001
" />
<path d="M122.9096 126.7001
L123.0048 126.5096
" />
<path d="M123.0048 126.5096
L123.1000 126.4144
" />
<path d="M123.1000 126.4144
L123.2905 126.3192
" />
<path d="M124.8143 128.3192
L124.8143 126.9858
" />
<path d="M124.8143 127.1763
L124.9096 127.0811
" />
<path d="M124.9096 127.0811
L125.1000 126.9858
" />
<path d="M125.1000 126.9858
L125.3858 126.9858
" />
<path d="M125.3858 126.9858
L125.5762 127.0811
" />
<path d="M125.5762 127.0811
L125.6715 127.2715
" />
<path d="M125.6715 127.2715
L125.6715 128.3192
" />
<path d="M125.6715 127.2715
L125.7667 127.0811
" />
<path d="M125.7667 127.0811
L125.9572 126.9858
" />
<path d="M125.9572 126.9858
L126.2429 126.9858
" />
<path d="M126.2429 126.9858
L126.4334 127.0811
" />
<path d="M126.4334 127.0811
L126.5286 127.2715
" />
<path d="M126.5286 127.2715
L126.5286 128.3192
" />
<path d="M127.4810 128.3192
L127.4810 126.9858
" />
<path d="M127.4810 127.1763
L127.5762 127.0811
" />
<path d="M127.5762 127.0811
L127.7667 126.9858
" />
<path d="M127.7667 126.9858
L128.0524 126.9858
" />
<path d="M128.0524 126.9858
L128.2429 127.0811
" />
<path d="M128.2429 127.0811
L128.3381 127.2715
" />
<path d="M128.3381 127.2715
L128.3381 128.3192
" />
<path d="M128.3381 127.2715
L128.4334 127.0811
" />
<path d="M128.4334 127.0811
L128.6239 126.9858
" />
<path d="M128.6239 126.9858
L128.9096 126.9858
" />
<path d="M128.9096 126.9858
L129.1000 127.0811
" />
<path d="M129.1000 127.0811
L129.1953 127.2715
" />
<path d="M129.1953 127.2715
L129.1953 128.3192
" />
<path d="M133.1000 126.2239
L131.3858 128.7953
" />
<path d="M135.6715 126.3192
L135.8619 126.3192
" />
<path d="M135.8619 126.3192
L136.0524 126.4144
" />
<path d="M136.0524 126.4144
L136.1477 126.5096
" />
<path d="M136.1477 126.5096
L136.2429 126.7001
" />
<path d="M136.2429 126.7001
L136.3381 127.0811
" />
<path d="M136.3381 127.0811
L136.3381 127.5572
" />
<path d="M136.3381 127.5572
L136.2429 127.9382
" />
<path d="M136.2429 127.9382
L136.1477 128.1287
" />
<path d="M136.1477 128.1287
L136.0524 128.2239
" />
<path d="M136.0524 128.2239
L135.8619 128.3192
" />
<path d="M135.8619 128.3192
L135.6715 128.3192
" />
<path d="M135.6715 128.3192
L135.4810 128.2239
" />
<path d="M135.4810 128.2239
L135.3858 128.1287
" />
<path d="M135.3858 128.1287
L135.2905 127.9382
" />
<path d="M135.2905 127.9382
L135.1953 127.5572
" />
<path d="M135.1953 127.5572
L135.1953 127.0811
" />
<path d="M135.1953 127.0811
L135.2905 126.7001
" />
<path d="M135.2905 126.7001
L135.3858 126.5096
" />
<path d="M135.3858 126.5096
L135.4810 126.4144
" />
<path d="M135.4810 126.4144
L135.6715 126.3192
" />
<path d="M137.1953 128.1287
L137.2905 128.2239
" />
<path d="M137.2905 128.2239
L137.1953 128.3192
" />
<path d="M137.1953 128.3192
L137.1000 128.2239
" />
<path d="M137.1000 128.2239
L137.1953 128.1287
" />
<path d="M137.1953 128.1287
L137.1953 128.3192
" />
<path d="M138.5286 126.3192
L138.7191 126.3192
" />
<path d="M138.7191 126.3192
L138.9096 126.4144
" />
<path d="M138.9096 126.4144
L139.0048 126.5096
" />
<path d="M139.0048 126.5096
L139.1000 126.7001
" />
<path d="M139.1000 126.7001
L139.1953 127.0811
" />
<path d="M139.1953 127.0811
L139.1953 127.5572
" />
<path d="M139.1953 127.5572
L139.1000 127.9382
" />
<path d="M139.1000 127.9382
L139.0048 128.1287
" />
<path d="M139.0048 128.1287
L138.9096 128.2239
" />
<path d="M138.9096 128.2239
L138.7191 128.3192
" />
<path d="M138.7191 128.3192
L138.5286 128.3192
" />
<path d="M138.5286 128.3192
L138.3381 128.2239
" />
<path d="M138.3381 128.2239
L138.2429 128.1287
" />
<path d="M138.2429 128.1287
L138.1477 127.9382
" />
<path d="M138.1477 127.9382
L138.0524 127.5572
" />
<path d="M138.0524 127.5572
L138.0524 127.0811
" />
<path d="M138.0524 127.0811
L138.1477 126.7001
" />
<path d="M138.1477 126.7001
L138.2429 126.5096
" />
<path d="M138.2429 126.5096
L138.3381 126.4144
" />
<path d="M138.3381 126.4144
L138.5286 126.3192
" />
<path d="M139.8619 126.3192
L141.1953 126.3192
" />
<path d="M141.1953 126.3192
L140.3381 128.3192
" />
<path d="M142.3381 126.3192
L142.5286 126.3192
" />
<path d="M142.5286 126.3192
L142.7191 126.4144
" />
<path d="M142.7191 126.4144
L142.8143 126.5096
" />
<path d="M142.8143 126.5096
L142.9096 126.7001
" />
<path d="M142.9096 126.7001
L143.0048 127.0811
" />
<path d="M143.0048 127.0811
L143.0048 127.5572
" />
<path d="M143.0048 127.5572
L142.9096 127.9382
" />
<path d="M142.9096 127.9382
L142.8143 128.1287
" />
<path d="M142.8143 128.1287
L142.7191 128.2239
" />
<path d="M142.7191 128.2239
L142.5286 128.3192
" />
<path d="M142.5286 128.3192
L142.3381 128.3192
" />
<path d="M142.3381 128.3192
L142.1477 128.2239
" />
<path d="M142.1477 128.2239
L142.0524 128.1287
" />
<path d="M142.0524 128.1287
L141.9572 127.9382
" />
<path d="M141.9572 127.9382
L141.8619 127.5572
" />
<path d="M141.8619 127.5572
L141.8619 127.0811
" />
<path d="M141.8619 127.0811
L141.9572 126.7001
" />
<path d="M141.9572 126.7001
L142.0524 126.5096
" />
<path d="M142.0524 126.5096
L142.1477 126.4144
" />
<path d="M142.1477 126.4144
L142.3381 126.3192
" />
<path d="M144.9096 128.3192
L143.7667 128.3192
" />
<path d="M144.3381 128.3192
L144.3381 126.3192
" />
<path d="M144.3381 126.3192
L144.1477 126.6049
" />
<path d="M144.1477 126.6049
L143.9572 126.7953
" />
<path d="M143.9572 126.7953
L143.7667 126.8906
" />
<path d="M145.6715 126.3192
L145.6715 126.7001
" />
<path d="M146.4334 126.3192
L146.4334 126.7001
" />
<path d="M149.3858 129.0811
L149.2905 128.9858
" />
<path d="M149.2905 128.9858
L149.1000 128.7001
" />
<path d="M149.1000 128.7001
L149.0048 128.5096
" />
<path d="M149.0048 128.5096
L148.9096 128.2239
" />
<path d="M148.9096 128.2239
L148.8143 127.7477
" />
<path d="M148.8143 127.7477
L148.8143 127.3668
" />
<path d="M148.8143 127.3668
L148.9096 126.8906
" />
<path d="M148.9096 126.8906
L149.0048 126.6049
" />
<path d="M149.0048 126.6049
L149.1000 126.4144
" />
<path d="M149.1000 126.4144
L149.2905 126.1287
" />
<path d="M149.2905 126.1287
L149.3858 126.0334
" />
<path d="M151.0048 126.9858
L151.0048 128.3192
" />
<path d="M150.5286 126.2239
L150.0524 127.6525
" />
<path d="M150.0524 127.6525
L151.2905 127.6525
" />
<path d="M153.5762 128.3192
L153.5762 126.3192
" />
<path d="M154.4334 128.3192
L154.4334 127.2715
" />
<path d="M154.4334 127.2715
L154.3381 127.0811
" />
<path d="M154.3381 127.0811
L154.1477 126.9858
" />
<path d="M154.1477 126.9858
L153.8619 126.9858
" />
<path d="M153.8619 126.9858
L153.6715 127.0811
" />
<path d="M153.6715 127.0811
L153.5762 127.1763
" />
<path d="M155.6715 128.3192
L155.4810 128.2239
" />
<path d="M155.4810 128.2239
L155.3858 128.1287
" />
<path d="M155.3858 128.1287
L155.2905 127.9382
" />
<path d="M155.2905 127.9382
L155.2905 127.3668
" />
<path d="M155.2905 127.3668
L155.3858 127.1763
" />
<path d="M155.3858 127.1763
L155.4810 127.0811
" />
<path d="M155.4810 127.0811
L155.6715 126.9858
" />
<path d="M155.6715 126.9858
L155.9572 126.9858
" />
<path d="M155.9572 126.9858
L156.1477 127.0811
" />
<path d="M156.1477 127.0811
L156.2429 127.1763
" />
<path d="M156.2429 127.1763
L156.3381 127.3668
" />
<path d="M156.3381 127.3668
L156.3381 127.9382
" />
<path d="M156.3381 127.9382
L156.2429 128.1287
" />
<path d="M156.2429 128.1287
L156.1477 128.2239
" />
<path d="M156.1477 128.2239
L155.9572 128.3192
" />
<path d="M155.9572 128.3192
L155.6715 128.3192
" />
<path d="M157.4810 128.3192
L157.2905 128.2239
" />
<path d="M157.2905 128.2239
L157.1953 128.0334
" />
<path d="M157.1953 128.0334
L157.1953 126.3192
" />
<path d="M159.0048 128.2239
L158.8143 128.3192
" />
<path d="M158.8143 128.3192
L158.4334 128.3192
" />
<path d="M158.4334 128.3192
L158.2429 128.2239
" />
<path d="M158.2429 128.2239
L158.1477 128.0334
" />
<path d="M158.1477 128.0334
L158.1477 127.2715
" />
<path d="M158.1477 127.2715
L158.2429 127.0811
" />
<path d="M158.2429 127.0811
L158.4334 126.9858
" />
<path d="M158.4334 126.9858
L158.8143 126.9858
" />
<path d="M158.8143 126.9858
L159.0048 127.0811
" />
<path d="M159.0048 127.0811
L159.1000 127.2715
" />
<path d="M159.1000 127.2715
L159.1000 127.4620
" />
<path d="M159.1000 127.4620
L158.1477 127.6525
" />
<path d="M159.8619 128.2239
L160.0524 128.3192
" />
<path d="M160.0524 128.3192
L160.4334 128.3192
" />
<path d="M160.4334 128.3192
L160.6238 128.2239
" />
<path d="M160.6238 128.2239
L160.7191 128.0334
" />
<path d="M160.7191 128.0334
L160.7191 127.9382
" />
<path d="M160.7191 127.9382
L160.6238 127.7477
" />
<path d="M160.6238 127.7477
L160.4334 127.6525
" />
<path d="M160.4334 127.6525
L160.1477 127.6525
" />
<path d="M160.1477 127.6525
L159.9572 127.5572
" />
<path d="M159.9572 127.5572
L159.8619 127.3668
" />
<path d="M159.8619 127.3668
L159.8619 127.2715
" />
<path d="M159.8619 127.2715
L159.9572 127.0811
" />
<path d="M159.9572 127.0811
L160.1477 126.9858
" />
<path d="M160.1477 126.9858
L160.4334 126.9858
" />
<path d="M160.4334 126.9858
L160.6238 127.0811
" />
<path d="M161.3858 129.0811
L161.4810 128.9858
" />
<path d="M161.4810 128.9858
L161.6715 128.7001
" />
<path d="M161.6715 128.7001
L161.7667 128.5096
" />
<path d="M161.7667 128.5096
L161.8619 128.2239
" />
<path d="M161.8619 128.2239
L161.9572 127.7477
" />
<path d="M161.9572 127.7477
L161.9572 127.3668
" />
<path d="M161.9572 127.3668
L161.8619 126.8906
" />
<path d="M161.8619 126.8906
L161.7667 126.6049
" />
<path d="M161.7667 126.6049
L161.6715 126.4144
" />
<path d="M161.6715 126.4144
L161.4810 126.1287
" />
<path d="M161.4810 126.1287
L161.3858 126.0334
" />
<path d="M165.0048 129.0811
L164.9096 128.9858
" />
<path d="M164.9096 128.9858
L164.7191 128.7001
" />
<path d="M164.7191 128.7001
L164.6238 128.5096
" />
<path d="M164.6238 128.5096
L164.5286 128.2239
" />
<path d="M164.5286 128.2239
L164.4334 127.7477
" />
<path d="M164.4334 127.7477
L164.4334 127.3668
" />
<path d="M164.4334 127.3668
L164.5286 126.8906
" />
<path d="M164.5286 126.8906
L164.6238 126.6049
" />
<path d="M164.6238 126.6049
L164.7191 126.4144
" />
<path d="M164.7191 126.4144
L164.9096 126.1287
" />
<path d="M164.9096 126.1287
L165.0048 126.0334
" />
<path d="M165.7667 126.9858
L165.7667 128.3192
" />
<path d="M165.7667 127.1763
L165.8619 127.0811
" />
<path d="M165.8619 127.0811
L166.0524 126.9858
" />
<path d="M166.0524 126.9858
L166.3381 126.9858
" />
<path d="M166.3381 126.9858
L166.5286 127.0811
" />
<path d="M166.5286 127.0811
L166.6238 127.2715
" />
<path d="M166.6238 127.2715
L166.6238 128.3192
" />
<path d="M167.8619 128.3192
L167.6715 128.2239
" />
<path d="M167.6715 128.2239
L167.5762 128.1287
" />
<path d="M167.5762 128.1287
L167.4810 127.9382
" />
<path d="M167.4810 127.9382
L167.4810 127.3668
" />
<path d="M167.4810 127.3668
L167.5762 127.1763
" />
<path d="M167.5762 127.1763
L167.6715 127.0811
" />
<path d="M167.6715 127.0811
L167.8619 126.9858
" />
<path d="M167.8619 126.9858
L168.1477 126.9858
" />
<path d="M168.1477 126.9858
L168.3381 127.0811
" />
<path d="M168.3381 127.0811
L168.4334 127.1763
" />
<path d="M168.4334 127.1763
L168.5286 127.3668
" />
<path d="M168.5286 127.3668
L168.5286 127.9382
" />
<path d="M168.5286 127.9382
L168.4334 128.1287
" />
<path d="M168.4334 128.1287
L168.3381 128.2239
" />
<path d="M168.3381 128.2239
L168.1477 128.3192
" />
<path d="M168.1477 128.3192
L167.8619 128.3192
" />
<path d="M169.1000 126.9858
L169.8619 126.9858
" />
<path d="M169.3858 126.3192
L169.3858 128.0334
" />
<path d="M169.3858 128.0334
L169.4810 128.2239
" />
<path d="M169.4810 128.2239
L169.6715 128.3192
" />
<path d="M169.6715 128.3192
L169.8619 128.3192
" />
<path d="M172.0524 126.9858
L172.0524 128.9858
" />
<path d="M172.0524 127.0811
L172.2429 126.9858
" />
<path d="M172.2429 126.9858
L172.6238 126.9858
" />
<path d="M172.6238 126.9858
L172.8143 127.0811
" />
<path d="M172.8143 127.0811
L172.9096 127.1763
" />
<path d="M172.9096 127.1763
L173.0048 127.3668
" />
<path d="M173.0048 127.3668
L173.0048 127.9382
" />
<path d="M173.0048 127.9382
L172.9096 128.1287
" />
<path d="M172.9096 128.1287
L172.8143 128.2239
" />
<path d="M172.8143 128.2239
L172.6238 128.3192
" />
<path d="M172.6238 128.3192
L172.2429 128.3192
" />
<path d="M172.2429 128.3192
L172.0524 128.2239
" />
<path d="M174.1477 128.3192
L173.9572 128.2239
" />
<path d="M173.9572 128.2239
L173.8619 128.0334
" />
<path d="M173.8619 128.0334
L173.8619 126.3192
" />
<path d="M175.7667 128.3192
L175.7667 127.2715
" />
<path d="M175.7667 127.2715
L175.6715 127.0811
" />
<path d="M175.6715 127.0811
L175.4810 126.9858
" />
<path d="M175.4810 126.9858
L175.1000 126.9858
" />
<path d="M175.1000 126.9858
L174.9096 127.0811
" />
<path d="M175.7667 128.2239
L175.5762 128.3192
" />
<path d="M175.5762 128.3192
L175.1000 128.3192
" />
<path d="M175.1000 128.3192
L174.9096 128.2239
" />
<path d="M174.9096 128.2239
L174.8143 128.0334
" />
<path d="M174.8143 128.0334
L174.8143 127.8430
" />
<path d="M174.8143 127.8430
L174.9096 127.6525
" />
<path d="M174.9096 127.6525
L175.1000 127.5572
" />
<path d="M175.1000 127.5572
L175.5762 127.5572
" />
<path d="M175.5762 127.5572
L175.7667 127.4620
" />
<path d="M176.4334 126.9858
L177.1953 126.9858
" />
<path d="M176.7191 126.3192
L176.7191 128.0334
" />
<path d="M176.7191 128.0334
L176.8143 128.2239
" />
<path d="M176.8143 128.2239
L177.0048 128.3192
" />
<path d="M177.0048 128.3192
L177.1953 128.3192
" />
<path d="M178.6238 128.2239
L178.4334 128.3192
" />
<path d="M178.4334 128.3192
L178.0524 128.3192
" />
<path d="M178.0524 128.3192
L177.8619 128.2239
" />
<path d="M177.8619 128.2239
L177.7667 128.0334
" />
<path d="M177.7667 128.0334
L177.7667 127.2715
" />
<path d="M177.7667 127.2715
L177.8619 127.0811
" />
<path d="M177.8619 127.0811
L178.0524 126.9858
" />
<path d="M178.0524 126.9858
L178.4334 126.9858
" />
<path d="M178.4334 126.9858
L178.6238 127.0811
" />
<path d="M178.6238 127.0811
L178.7191 127.2715
" />
<path d="M178.7191 127.2715
L178.7191 127.4620
" />
<path d="M178.7191 127.4620
L177.7667 127.6525
" />
<path d="M180.4334 128.3192
L180.4334 126.3192
" />
<path d="M180.4334 128.2239
L180.2429 128.3192
" />
<path d="M180.2429 128.3192
L179.8619 128.3192
" />
<path d="M179.8619 128.3192
L179.6715 128.2239
" />
<path d="M179.6715 128.2239
L179.5762 128.1287
" />
<path d="M179.5762 128.1287
L179.4810 127.9382
" />
<path d="M179.4810 127.9382
L179.4810 127.3668
" />
<path d="M179.4810 127.3668
L179.5762 127.1763
" />
<path d="M179.5762 127.1763
L179.6715 127.0811
" />
<path d="M179.6715 127.0811
L179.8619 126.9858
" />
<path d="M179.8619 126.9858
L180.2429 126.9858
" />
<path d="M180.2429 126.9858
L180.4334 127.0811
" />
<path d="M181.1953 129.0811
L181.2905 128.9858
" />
<path d="M181.2905 128.9858
L181.4810 128.7001
" />
<path d="M181.4810 128.7001
L181.5762 128.5096
" />
<path d="M181.5762 128.5096
L181.6715 128.2239
" />
<path d="M181.6715 128.2239
L181.7667 127.7477
" />
<path d="M181.7667 127.7477
L181.7667 127.3668
" />
<path d="M181.7667 127.3668
L181.6715 126.8906
" />
<path d="M181.6715 126.8906
L181.5762 126.6049
" />
<path d="M181.5762 126.6049
L181.4810 126.4144
" />
<path d="M181.4810 126.4144
L181.2905 126.1287
" />
<path d="M181.2905 126.1287
L181.1953 126.0334
" />
</g></g> 
</svg>
